<!-- Generator: Adobe Illustrator 24.1.0, SVG Export Plug-In  -->
<svg version="1.1" xmlns="http://www.w3.org/2000/svg" xmlns:xlink="http://www.w3.org/1999/xlink" x="0px" y="0px" width="297.5px"
	 height="160.41px" viewBox="0 0 297.5 160.41" style="enable-background:new 0 0 297.5 160.41;" xml:space="preserve">
<style type="text/css">
	.st0{fill:#E4E0DB;stroke:#231F20;stroke-width:0.331;stroke-miterlimit:10;}
	.st1{fill:#D3D2CD;stroke:#231F20;stroke-width:0.331;stroke-miterlimit:10;}
	.st2{fill:#F2EBE5;stroke:#231F20;stroke-width:0.331;stroke-miterlimit:10;}
	.st3{fill:#CFDCE7;stroke:#231F20;stroke-width:0.331;stroke-miterlimit:10;}
	.st4{fill:#DBDDDD;stroke:#231F20;stroke-width:0.171;stroke-miterlimit:10;}
	.st5{fill:#183C59;stroke:#231F20;stroke-width:0.2824;stroke-miterlimit:10;}
	.st6{fill:#2F5272;stroke:#231F20;stroke-width:0.2824;stroke-miterlimit:10;}
	.st7{opacity:0.58;fill:#9EBAC4;}
</style>
<defs>
</defs>
<g>
	<g>
		<polygon class="st0" points="50.1,59.78 50.1,160.08 297.05,137.06 297.05,36.76 		"/>
		<polygon class="st1" points="0.45,23.19 0.45,123.49 50.1,160.08 50.1,59.78 		"/>
		<path class="st2" d="M0.45,23.18L50.1,59.78l246.95-23.02L247.39,0.17L0.45,23.18z M14.29,26.06L243.54,4.69l39.88,29.38
			l-39.88,3.71L54.37,55.42L14.29,26.06z"/>
		<polygon class="st1" points="243.54,4.69 243.54,37.79 283.42,34.07 		"/>
		<polygon class="st0" points="14.29,26.06 54.37,55.42 243.54,37.79 243.54,4.69 		"/>
	</g>
	<g>
		<polygon class="st3" points="74.31,155.06 162.14,146.87 162.14,107.37 74.31,115.56 		"/>
		<polygon class="st4" points="109.84,143.53 155.2,139.3 155.2,118.9 109.84,123.13 		"/>
		<path class="st5" d="M102.27,125.06c-0.31-0.1-0.64-0.15-0.98-0.15h0c-1.79,0-3.25,1.46-3.25,3.25l0,0c0,1.63,1.22,2.99,2.79,3.22
			"/>
		<path class="st6" d="M98.95,128.34c0,0.89,0.36,1.71,0.95,2.29c0.43,0.43,0.97,0.74,1.58,0.87c0.23,0.05,0.46,0.08,0.71,0.08
			c1.79,0,3.25-1.46,3.25-3.24c0-0.89-0.36-1.71-0.95-2.3c-0.59-0.59-1.4-0.95-2.3-0.95c-0.89,0-1.7,0.36-2.29,0.95
			C99.32,126.63,98.95,127.44,98.95,128.34z"/>
		<line class="st6" x1="101.89" y1="124.96" x2="102.65" y2="125.12"/>
		<line class="st6" x1="101.48" y1="131.51" x2="100.63" y2="131.33"/>
		<g>
			<path class="st5" d="M102.79,137.77c-0.31-0.1-0.64-0.15-0.98-0.15h0c-1.79,0-3.25,1.46-3.25,3.25l0,0
				c0,1.63,1.22,2.99,2.79,3.22"/>
			<path class="st6" d="M99.48,141.05c0,0.89,0.36,1.71,0.95,2.29c0.43,0.43,0.97,0.74,1.58,0.87c0.23,0.05,0.46,0.08,0.71,0.08
				c1.79,0,3.25-1.46,3.25-3.24c0-0.89-0.36-1.71-0.95-2.3c-0.59-0.59-1.4-0.95-2.3-0.95c-0.89,0-1.7,0.36-2.29,0.95
				C99.84,139.35,99.48,140.16,99.48,141.05z"/>
			<line class="st6" x1="102.41" y1="137.67" x2="103.17" y2="137.84"/>
			<line class="st6" x1="102.01" y1="144.22" x2="101.16" y2="144.05"/>
		</g>
		<path class="st5" d="M89.81,132.62c-0.31-0.1-0.64-0.15-0.98-0.15h0c-1.79,0-3.25,1.46-3.25,3.25v0c0,1.63,1.22,2.99,2.79,3.22"/>
		<path class="st6" d="M86.5,135.9c0,0.89,0.36,1.71,0.95,2.29c0.43,0.43,0.97,0.74,1.58,0.87c0.23,0.05,0.46,0.08,0.71,0.08
			c1.79,0,3.25-1.46,3.25-3.24c0-0.89-0.36-1.71-0.95-2.3c-0.59-0.59-1.4-0.95-2.3-0.95c-0.89,0-1.7,0.36-2.29,0.95
			C86.86,134.19,86.5,135.01,86.5,135.9z"/>
		<line class="st6" x1="89.43" y1="132.52" x2="90.19" y2="132.68"/>
		<line class="st6" x1="89.03" y1="139.07" x2="88.18" y2="138.89"/>
	</g>
</g>
<g>
	<polygon class="st7" points="258.12,36.43 243.54,37.79 243.54,25.75 	"/>
	<polygon class="st7" points="243.54,25.75 243.54,37.79 54.37,55.42 39.59,44.59 243.34,25.6 	"/>
</g>
</svg>
