<!-- Generator: Adobe Illustrator 24.1.0, SVG Export Plug-In  -->
<svg version="1.1" xmlns="http://www.w3.org/2000/svg" xmlns:xlink="http://www.w3.org/1999/xlink" x="0px" y="0px"
	 width="174.07px" height="245.12px" viewBox="0 0 174.07 245.12" style="enable-background:new 0 0 174.07 245.12;"
	 xml:space="preserve">
<style type="text/css">
	.st0{fill:#F6E7C8;stroke:#8494A4;stroke-width:1.2344;stroke-miterlimit:10;}
	.st1{fill:none;stroke:#48348B;stroke-width:1.6409;stroke-miterlimit:10;}
	.st2{fill:none;stroke:#075292;stroke-width:0.8571;stroke-linecap:round;stroke-linejoin:round;stroke-miterlimit:10;}
</style>
<defs>
</defs>
<g>
	<ellipse class="st0" cx="87.03" cy="122.56" rx="84.2" ry="119.98"/>
	<ellipse class="st1" cx="87.03" cy="122.56" rx="86.21" ry="121.74"/>
	<path class="st2" d="M107.52,118.36c-3.43,10.14-3.12,22.52,4.92,29.45c2.35,2.03,5.48,3.5,8.66,3.03c4.46-0.67,7.66-5.12,8-9.46
		s-1.55-8.49-3.88-12.13c-3.42-5.35-7.83-10.03-11.82-15C99.6,97.05,90.82,76.05,88.29,54.16c-0.29-2.53-0.5-5.15,0.26-7.63
		c0.71-2.32,2.22-4.35,3.1-6.62c1.93-4.94,0.43-10.91-3.72-14.14c-4.15-3.24-10.68-3.38-15.07-0.19
		c-5.15,3.74-6.49,10.96-4.63,16.75c1.86,5.8,6.3,10.41,10.96,14.42c11.69,10.05,25.62,17.59,36.65,28.31
		c8.3,8.07,14.76,17.79,19.79,28.12c5.13,10.52,8.85,22.63,5.2,33.97c-1.57,4.88-4.95,9.74-10.03,11.17
		c-4.93,1.39-10.06-0.78-14.25-3.47c-4.82-3.09-9.11-6.93-12.66-11.32c-2.28-2.82-4.34-6.27-3.64-9.86c0.58-2.99,2.98-5.4,5.53-7.25
		c5.63-4.11,12.4-6.47,18.19-10.35c5.8-3.88,10.83-10.2,9.88-16.81c-0.67-4.69-4.4-8.6-8.98-10.21c-4.58-1.61-9.84-1.1-14.42,0.79
		c-6.48,2.67-11.54,7.81-17.44,11.57c-2.54,1.62-5.8,3.01-8.45,1.73c-1.67-0.81-2.64-2.48-3.52-4.06c-2.7-4.84-5.39-9.68-8.09-14.52
		c-2.1-3.78-4.22-7.57-5.61-11.66c-0.63-1.86-1.11-3.91-0.43-5.8c1.03-2.86,4.28-4.33,7.24-5.31c4.12-1.36,8.36-2.41,12.29-4.23
		c3.94-1.82,7.64-4.54,9.58-8.31c2.06-3.99,1.89-8.82,0.04-12.79s-5.22-7.13-9.13-9.29c-3.92-2.17-9.19-3.29-12.93-0.61
		c-2.94,2.11-3.98,5.99-3.62,9.45c0.37,3.61,2,6.94,3.69,10.15c10.73,20.37,25.27,39.9,27.06,62.92c0.44,5.61-0.23,11.97-4.64,15.79
		c-0.7,0.61-1.56,1.16-2.49,1.15c-1.74-0.02-2.71-1.87-3.24-3.46c-5.45-16.43-4.15-35.03,3.56-51.01c2.01-4.17,4.49-8.29,5.03-12.83
		c0.53-4.46-0.96-9.04-4.02-12.31"/>
</g>
</svg>
