<!-- Generator: Adobe Illustrator 24.1.0, SVG Export Plug-In  -->
<svg version="1.1" xmlns="http://www.w3.org/2000/svg" xmlns:xlink="http://www.w3.org/1999/xlink" x="0px" y="0px"
	 width="131.41px" height="176.55px" viewBox="0 0 131.41 176.55" style="enable-background:new 0 0 131.41 176.55;"
	 xml:space="preserve">
<style type="text/css">
	.st0{fill:none;stroke:#231F20;stroke-width:0.5;stroke-miterlimit:10;}
	.st1{fill:none;stroke:#231F20;stroke-width:0.5;stroke-linecap:round;stroke-miterlimit:10;}
	.st2{fill:#F1F8F9;}
	.st3{opacity:0.61;fill:#C7C7C9;}
	.st4{fill:#C7C7C9;}
</style>
<defs>
</defs>
<g>
	<path class="st0" d="M126.83,0.33l-83.04,169.9c-0.26,0.53-0.88,0.76-1.42,0.54L8.97,156.8c-0.54-0.23-1-0.61-1.32-1.1l-1.23-1.9
		c-0.31-0.47-0.47-1.03-0.47-1.59v-1.92c0-0.13-0.07-0.25-0.18-0.32l-2.9-1.86c-0.13-0.08-0.31-0.05-0.4,0.07l-2.14,2.8
		c-0.08,0.1-0.1,0.24-0.06,0.36l2.56,7.06c0.27,0.75,0.85,1.36,1.58,1.67l36.47,15.43c0.47,0.23,0.58,0.3,0.89,0.42
		c1.06,0.42,5.01,1.09,6.55-1.91L131.08,2.33L126.83,0.33z"/>
	<path class="st1" d="M3.06,151.32c0.61-0.1,1.29-0.31,1.94-0.72"/>
	<path class="st2" d="M4.56,158.67L4.56,158.67c-0.19,0.07-0.4-0.03-0.47-0.21l-2.3-6.1c-0.07-0.19,0.03-0.4,0.21-0.47h0
		c0.19-0.07,0.4,0.03,0.47,0.21l2.3,6.1C4.85,158.39,4.75,158.6,4.56,158.67z"/>
	<path class="st2" d="M47.35,170.9L47.35,170.9c0.37,0.18,0.83,0.02,1.01-0.35L128.43,5.26c0.18-0.37,0.02-0.83-0.35-1.01v0
		c-0.37-0.18-0.83-0.02-1.01,0.35L47,169.89C46.82,170.26,46.98,170.72,47.35,170.9z"/>
	<path class="st3" d="M130.3,2.24L47.39,173.81c-0.08,0.17-0.02,0.38,0.15,0.46l0,0c0.17,0.08,0.37,0.01,0.45-0.17L130.73,2.44"/>
	<path class="st4" d="M42.27,171.29L8.53,157.24c-0.05-0.02-0.08-0.09-0.06-0.14l0,0c0.02-0.05,0.09-0.08,0.14-0.06l33.73,14.05
		c0.05,0.02,0.08,0.09,0.06,0.14l0,0C42.38,171.29,42.32,171.31,42.27,171.29z"/>
</g>
</svg>
