<!-- Generator: Adobe Illustrator 24.1.0, SVG Export Plug-In  -->
<svg version="1.1" xmlns="http://www.w3.org/2000/svg" xmlns:xlink="http://www.w3.org/1999/xlink" x="0px" y="0px" width="97.1px"
	 height="49.31px" viewBox="0 0 97.1 49.31" style="enable-background:new 0 0 97.1 49.31;" xml:space="preserve">
<style type="text/css">
	.st0{fill:#ECAB69;stroke:#231F20;stroke-width:0.5027;stroke-miterlimit:10;}
	.st1{fill:#ECAB69;stroke:#231F20;stroke-width:0.5;stroke-miterlimit:10;}
	.st2{fill:#E5BD88;stroke:#231F20;stroke-width:0.5;stroke-miterlimit:10;}
	.st3{fill:none;stroke:#231F20;stroke-width:0.5;stroke-miterlimit:10;}
</style>
<defs>
</defs>
<g>
	<polyline class="st0" points="76.86,3.16 78.73,28.82 95.44,43.19 93.42,15.57 	"/>
	<polygon class="st1" points="17.33,20.1 19.42,48.73 2.72,34.54 0.63,5.91 	"/>
	<polygon class="st2" points="94.74,14.44 96.83,43.08 95.45,43.18 93.46,15.87 18.41,21.35 20.41,48.66 19.42,48.73 17.33,20.1 	
		"/>
	<path class="st3" d="M78.03,0.26"/>
	<path class="st2" d="M78.68,4.36c0.01,0.16-0.01,0.32-0.07,0.48c-0.77-1.45-4.66-2.31-9.25-1.98s-8.32,1.76-8.87,3.3
		c-0.08-0.15-0.13-0.3-0.14-0.47c-0.13-1.72,3.88-3.41,8.94-3.78C74.35,1.55,78.55,2.64,78.68,4.36z"/>
	<path class="st3" d="M79.15,15.58"/>
	<path class="st3" d="M2.72,34.55"/>
	<path class="st2" d="M29.83,7.93c0.01,0.16-0.01,0.32-0.07,0.48c-0.77-1.44-4.66-2.31-9.25-1.98c-4.59,0.34-8.31,1.76-8.87,3.3
		c-0.08-0.15-0.13-0.3-0.14-0.46c-0.13-1.72,3.87-3.41,8.94-3.78C25.5,5.12,29.7,6.21,29.83,7.93z"/>
	<path class="st3" d="M29.76,8.4C29.76,8.41,29.76,8.41,29.76,8.4c-0.56,1.54-4.28,2.96-8.87,3.3c-4.59,0.34-8.48-0.53-9.25-1.98
		c0.56-1.54,4.28-2.96,8.87-3.3C25.1,6.09,28.98,6.96,29.76,8.4z"/>
	<path class="st2" d="M37.9,14.53c0.01,0.16-0.01,0.31-0.07,0.47c-0.78-1.44-4.67-2.31-9.25-1.97c-4.6,0.34-8.32,1.76-8.87,3.3
		c-0.08-0.15-0.13-0.3-0.14-0.47c-0.13-1.72,3.88-3.41,8.94-3.78C33.57,11.72,37.77,12.81,37.9,14.53z"/>
	<path class="st3" d="M37.82,15L37.82,15c-0.56,1.55-4.27,2.97-8.86,3.31c-4.59,0.34-8.47-0.53-9.25-1.98
		c0.55-1.54,4.27-2.97,8.87-3.3C33.16,12.69,37.04,13.56,37.82,15z"/>
	<path class="st2" d="M54.25,6.14c0.01,0.16-0.01,0.31-0.07,0.47c-0.78-1.44-4.66-2.31-9.25-1.97c-4.59,0.34-8.31,1.75-8.87,3.3
		c-0.08-0.15-0.13-0.3-0.14-0.46C35.8,5.76,39.8,4.07,44.86,3.7S54.13,4.43,54.25,6.14z"/>
	<path class="st3" d="M54.18,6.62L54.18,6.62c-0.56,1.54-4.27,2.97-8.86,3.3c-4.59,0.34-8.48-0.53-9.25-1.98l0,0
		c0.56-1.54,4.28-2.96,8.87-3.3C49.52,4.31,53.4,5.17,54.18,6.62z"/>
	<path class="st2" d="M61.92,12.62c0.01,0.16-0.01,0.32-0.07,0.48c-0.77-1.45-4.66-2.31-9.25-1.98c-4.59,0.34-8.31,1.75-8.87,3.3
		c-0.08-0.15-0.13-0.3-0.14-0.46c-0.13-1.72,3.87-3.41,8.94-3.78C57.59,9.82,61.8,10.91,61.92,12.62z"/>
	<path class="st3" d="M61.85,13.1C61.85,13.1,61.85,13.1,61.85,13.1c-0.56,1.54-4.28,2.96-8.87,3.3c-4.59,0.34-8.48-0.53-9.25-1.98
		c0.56-1.54,4.27-2.96,8.87-3.3C57.19,10.79,61.08,11.65,61.85,13.1z"/>
	<path class="st3" d="M78.61,4.84c-0.56,1.54-4.28,2.96-8.87,3.3c-4.59,0.34-8.47-0.53-9.25-1.97c0.55-1.54,4.27-2.97,8.87-3.3
		S77.84,3.39,78.61,4.84z"/>
	<path class="st2" d="M85.25,10.92c0.01,0.16-0.01,0.32-0.07,0.47c-0.78-1.44-4.67-2.31-9.25-1.97c-4.59,0.34-8.31,1.76-8.87,3.3
		c-0.08-0.15-0.13-0.3-0.14-0.46c-0.13-1.72,3.88-3.41,8.94-3.78C80.93,8.11,85.13,9.2,85.25,10.92z"/>
	<path class="st3" d="M85.19,11.39L85.19,11.39c-0.01,0.03-0.02,0.05-0.03,0.07c-0.01,0.03-0.03,0.06-0.04,0.09
		c-0.02,0.04-0.04,0.08-0.07,0.12c-0.03,0.05-0.06,0.09-0.1,0.14c-0.26,0.35-0.67,0.68-1.21,0.99c-0.12,0.07-0.25,0.14-0.39,0.21
		c-0.06,0.03-0.13,0.07-0.19,0.1c-0.03,0.01-0.06,0.03-0.09,0.04c-0.16,0.08-0.33,0.15-0.51,0.22c-0.09,0.04-0.19,0.08-0.29,0.11
		c-0.07,0.03-0.15,0.05-0.22,0.08c-0.08,0.03-0.15,0.05-0.23,0.08c-0.57,0.2-1.2,0.37-1.87,0.52c-0.12,0.03-0.25,0.05-0.37,0.08
		c-0.17,0.03-0.34,0.07-0.51,0.1c-0.14,0.03-0.28,0.05-0.43,0.07c-0.02,0-0.03,0.01-0.05,0.01c-0.15,0.02-0.3,0.05-0.44,0.06
		c-0.05,0.01-0.09,0.01-0.14,0.02c-0.18,0.02-0.37,0.05-0.55,0.07c-0.21,0.02-0.41,0.04-0.62,0.06c-0.08,0.01-0.17,0.02-0.25,0.02
		c-0.08,0.01-0.17,0.02-0.25,0.02c-4.59,0.34-8.48-0.53-9.25-1.98c0.56-1.54,4.28-2.96,8.87-3.3C80.52,9.09,84.4,9.95,85.19,11.39z"
		/>
	<path class="st3" d="M29.77,8.42c0-0.01,0-0.01-0.01-0.02"/>
	<polyline class="st3" points="54.19,6.63 54.18,6.62 54.18,6.62 	"/>
	<polyline class="st3" points="36.06,7.94 36.06,7.94 36.06,7.95 	"/>
	<polyline class="st3" points="37.83,15.01 37.82,15 37.82,15 	"/>
	<path class="st3" d="M19.71,16.33c-0.01,0.02-0.02,0.03-0.02,0.05"/>
	<path class="st3" d="M61.86,13.12c0-0.01,0-0.01-0.01-0.02"/>
	<path class="st3" d="M43.73,14.42c-0.01,0.01-0.01,0.01-0.01,0.02"/>
	<path class="st3" d="M78.62,4.87c0-0.01-0.01-0.02-0.02-0.03"/>
	<path class="st3" d="M60.49,6.16c0,0.01-0.01,0.01-0.01,0.02"/>
	<polyline class="st3" points="85.19,11.41 85.19,11.4 85.19,11.39 	"/>
	<path class="st1" d="M78.03,0.26L0.63,5.91L17.33,20.1l77.41-5.65L78.03,0.26z M69.29,1.92c5.06-0.37,9.27,0.72,9.39,2.44
		c0.01,0.16-0.01,0.32-0.07,0.48c-0.56,1.54-4.28,2.96-8.87,3.3c-4.59,0.34-8.47-0.53-9.25-1.97c-0.08-0.15-0.13-0.3-0.14-0.47
		C60.22,3.98,64.22,2.29,69.29,1.92z M44.86,3.7c5.06-0.37,9.26,0.72,9.39,2.44c0.01,0.16-0.01,0.31-0.07,0.47l0,0
		c-0.56,1.54-4.27,2.96-8.87,3.3c-4.59,0.34-8.48-0.53-9.25-1.98l0,0c-0.08-0.15-0.13-0.3-0.14-0.46C35.8,5.76,39.8,4.07,44.86,3.7z
		 M11.64,9.73c-0.08-0.15-0.13-0.3-0.14-0.46c-0.13-1.72,3.87-3.41,8.94-3.78c5.06-0.37,9.26,0.72,9.39,2.44
		c0.01,0.16-0.01,0.32-0.07,0.48c0,0,0,0,0,0c-0.56,1.54-4.28,2.96-8.87,3.3C16.3,12.04,12.41,11.17,11.64,9.73z M37.82,15L37.82,15
		c-0.56,1.55-4.27,2.97-8.86,3.31c-4.59,0.34-8.47-0.53-9.25-1.98c-0.08-0.15-0.13-0.3-0.14-0.47c-0.13-1.72,3.88-3.41,8.94-3.78
		c5.06-0.37,9.26,0.72,9.39,2.44C37.91,14.69,37.88,14.84,37.82,15z M61.85,13.1C61.85,13.1,61.85,13.1,61.85,13.1
		c-0.56,1.54-4.28,2.96-8.87,3.3c-4.59,0.34-8.48-0.53-9.25-1.98c-0.08-0.15-0.13-0.3-0.14-0.46c-0.13-1.72,3.87-3.41,8.94-3.78
		c5.06-0.37,9.27,0.72,9.39,2.44C61.93,12.79,61.91,12.94,61.85,13.1z M85.19,11.4c-0.01,0.02-0.02,0.05-0.03,0.07
		c-0.01,0.03-0.03,0.06-0.04,0.09c-0.02,0.04-0.04,0.08-0.07,0.12c-0.03,0.05-0.06,0.09-0.1,0.14c-0.26,0.35-0.67,0.68-1.21,0.99
		c-0.12,0.07-0.25,0.14-0.39,0.21c-0.06,0.03-0.13,0.07-0.19,0.1c-0.03,0.01-0.06,0.03-0.09,0.04c-0.16,0.08-0.33,0.15-0.51,0.22
		c-0.09,0.04-0.19,0.08-0.29,0.11c-0.07,0.03-0.15,0.05-0.22,0.08c-0.08,0.03-0.15,0.05-0.23,0.08c-0.57,0.2-1.2,0.37-1.87,0.52
		c-0.12,0.03-0.25,0.06-0.37,0.08c-0.17,0.03-0.34,0.07-0.51,0.1c-0.14,0.03-0.28,0.05-0.43,0.07c-0.02,0-0.03,0.01-0.05,0.01
		c-0.15,0.02-0.3,0.05-0.44,0.06c-0.05,0.01-0.09,0.01-0.14,0.02c-0.18,0.02-0.37,0.05-0.55,0.07c-0.21,0.02-0.41,0.04-0.62,0.06
		c-0.08,0.01-0.17,0.02-0.25,0.02c-0.08,0.01-0.17,0.02-0.25,0.02c-4.59,0.34-8.48-0.53-9.25-1.98c-0.08-0.15-0.13-0.3-0.14-0.46
		c-0.13-1.72,3.88-3.41,8.94-3.78c5.06-0.37,9.26,0.72,9.39,2.44C85.27,11.08,85.24,11.24,85.19,11.4L85.19,11.4z"/>
</g>
</svg>
