<!-- Generator: Adobe Illustrator 24.1.0, SVG Export Plug-In  -->
<svg version="1.1" xmlns="http://www.w3.org/2000/svg" xmlns:xlink="http://www.w3.org/1999/xlink" x="0px" y="0px"
	 width="186.93px" height="54.78px" viewBox="0 0 186.93 54.78" style="enable-background:new 0 0 186.93 54.78;"
	 xml:space="preserve">
<style type="text/css">
	.st0{fill:#3D6D97;stroke:#3D6D97;stroke-miterlimit:10;}
	.st1{fill:#FFFFFF;}
	.st2{fill:none;stroke:#FFFFFF;stroke-miterlimit:10;}
</style>
<defs>
</defs>
<path class="st0" d="M163.1,54.28H23.83C10.94,54.28,0.5,43.83,0.5,30.95v-7.13C0.5,10.94,10.94,0.5,23.83,0.5H163.1
	c12.88,0,23.33,10.44,23.33,23.33v7.13C186.43,43.83,175.98,54.28,163.1,54.28z"/>
<g>
	<path class="st1" d="M33.03,20.66h5.24c3.77,0,6.36,2.27,6.36,5.77c0,3.49-2.59,5.77-6.36,5.77h-5.24V20.66z M38.14,30.01
		c2.29,0,3.79-1.37,3.79-3.58c0-2.21-1.5-3.58-3.79-3.58H35.7v7.15H38.14z"/>
	<path class="st1" d="M46.15,20.66c0-0.81,0.64-1.43,1.6-1.43c0.96,0,1.6,0.59,1.6,1.38c0,0.86-0.64,1.48-1.6,1.48
		C46.79,22.1,46.15,21.47,46.15,20.66z M46.46,23.33h2.57v8.87h-2.57V23.33z"/>
	<path class="st1" d="M50.56,31.38l0.86-1.85c0.79,0.51,1.99,0.86,3.08,0.86c1.19,0,1.63-0.31,1.63-0.81c0-1.45-5.36,0.03-5.36-3.51
		c0-1.68,1.52-2.87,4.1-2.87c1.22,0,2.57,0.28,3.41,0.77l-0.86,1.83c-0.87-0.49-1.75-0.66-2.55-0.66c-1.15,0-1.65,0.36-1.65,0.82
		c0,1.52,5.36,0.05,5.36,3.54c0,1.65-1.53,2.82-4.19,2.82C52.9,32.33,51.39,31.92,50.56,31.38z"/>
	<path class="st1" d="M59.51,27.77c0-2.67,2.06-4.56,4.94-4.56c1.86,0,3.33,0.81,3.97,2.26l-1.99,1.07
		c-0.48-0.84-1.19-1.22-1.99-1.22c-1.3,0-2.32,0.91-2.32,2.46c0,1.55,1.02,2.46,2.32,2.46c0.81,0,1.52-0.36,1.99-1.22l1.99,1.09
		c-0.64,1.42-2.11,2.24-3.97,2.24C61.57,32.33,59.51,30.44,59.51,27.77z"/>
	<path class="st1" d="M69.13,27.77c0-2.67,2.06-4.56,4.88-4.56s4.86,1.9,4.86,4.56c0,2.67-2.04,4.56-4.86,4.56
		S69.13,30.44,69.13,27.77z M76.27,27.77c0-1.53-0.97-2.46-2.26-2.46s-2.27,0.92-2.27,2.46s0.99,2.46,2.27,2.46
		S76.27,29.3,76.27,27.77z"/>
	<path class="st1" d="M89.14,23.33L85.4,32.2h-2.65l-3.72-8.87h2.65l2.46,6.03l2.54-6.03H89.14z"/>
	<path class="st1" d="M98.58,28.49h-6.71c0.25,1.1,1.19,1.78,2.54,1.78c0.94,0,1.62-0.28,2.23-0.86L98,30.9
		c-0.82,0.94-2.06,1.43-3.66,1.43c-3.06,0-5.06-1.93-5.06-4.56c0-2.65,2.03-4.56,4.73-4.56c2.6,0,4.61,1.75,4.61,4.6
		C98.63,28,98.6,28.28,98.58,28.49z M91.84,26.99h4.37c-0.18-1.12-1.02-1.85-2.18-1.85C92.86,25.15,92.02,25.86,91.84,26.99z"/>
	<path class="st1" d="M105.84,23.2v2.37c-0.21-0.02-0.38-0.03-0.58-0.03c-1.42,0-2.36,0.77-2.36,2.47v4.19h-2.57v-8.87h2.46v1.17
		C103.42,23.65,104.48,23.2,105.84,23.2z"/>
</g>
<g>
	<line class="st1" x1="114.73" y1="27.39" x2="154.65" y2="27.39"/>
	<g>
		<line class="st2" x1="114.73" y1="27.39" x2="147.59" y2="27.39"/>
		<g>
			<polygon class="st1" points="154.65,27.39 144.7,31.45 147.06,27.39 144.7,23.32 			"/>
		</g>
	</g>
</g>
</svg>
