<!-- Generator: Adobe Illustrator 24.1.0, SVG Export Plug-In  -->
<svg version="1.1" xmlns="http://www.w3.org/2000/svg" xmlns:xlink="http://www.w3.org/1999/xlink" x="0px" y="0px"
	 width="413.37px" height="641.44px" viewBox="0 0 413.37 641.44" style="enable-background:new 0 0 413.37 641.44;"
	 xml:space="preserve">
<style type="text/css">
	.st0{fill:#828383;stroke:#231F20;stroke-width:0.5;stroke-miterlimit:10;}
	.st1{fill:#929292;stroke:#231F20;stroke-width:0.5;stroke-miterlimit:10;}
	.st2{fill:#D3D3D3;stroke:#231F20;stroke-width:0.5;stroke-miterlimit:10;}
	.st3{fill:none;stroke:#231F20;stroke-width:0.5;stroke-miterlimit:10;}
	.st4{fill:#CDCBCB;stroke:#231F20;stroke-width:0.5;stroke-miterlimit:10;}
	.st5{fill:#231F20;}
</style>
<defs>
</defs>
<g>
	<polygon class="st0" points="413.12,24.24 413.12,548.27 405.94,557.36 405.94,557.38 399.35,565.72 387.32,580.96 368.46,604.84 
		368.46,0.42 	"/>
	<polygon class="st1" points="368.46,0.42 368.46,69.89 0.25,76.84 0.25,8.36 	"/>
	<polygon class="st2" points="368.46,69.89 368.46,109.59 174.81,111.67 0.25,113.56 0.25,76.84 	"/>
	<path class="st1" d="M0.25,113.56v462.28l21.22,1.67l12.03,0.95l6.59,0.52l134.72,10.6v-477.9L0.25,113.56z M161.03,386.73h-31.76
		v-4.47l-1.75-127.04v-3.47l33.51,0.99V386.73z"/>
	<polygon class="st0" points="153.83,257.21 153.83,380.78 129.27,382.27 127.53,255.23 	"/>
	<path class="st1" d="M174.81,111.67v477.9l164.75,12.98l12.03,0.95l6.59,0.52l10.28,0.81V109.59L174.81,111.67z M225.64,256.64
		l-1.75,127.04v4.47h-31.76V254.16l33.51-0.99V256.64z"/>
	<polygon class="st0" points="225.64,256.64 223.9,383.68 199.34,382.19 199.34,258.62 	"/>
	<line class="st3" x1="174.81" y1="111.67" x2="174.81" y2="111.58"/>
	<polygon class="st4" points="161.03,252.75 161.03,386.73 129.27,386.73 129.27,382.27 153.83,380.78 153.83,257.21 127.53,255.23 
		127.53,251.75 	"/>
	<polygon class="st4" points="199.34,258.62 199.34,382.19 223.9,383.68 223.9,388.14 192.14,388.14 192.14,254.16 225.64,253.16 
		225.64,256.64 	"/>
	<polygon class="st5" points="405.94,557.38 405.94,583.74 399.35,592.06 399.35,565.72 	"/>
	<polygon class="st5" points="399.35,565.72 399.35,592.06 387.32,592.06 387.32,580.96 	"/>
	<line class="st3" x1="399.35" y1="565.72" x2="399.35" y2="565.68"/>
	<polygon class="st5" points="358.18,604.03 358.18,633.13 351.59,641.44 351.59,603.51 	"/>
	<polygon class="st5" points="351.59,603.51 351.59,641.44 339.56,641.44 339.56,602.56 	"/>
	<polygon class="st5" points="40.09,578.98 40.09,608.55 33.5,616.87 33.5,578.46 	"/>
	<polygon class="st5" points="33.5,578.46 33.5,616.87 21.47,616.87 21.47,577.51 	"/>
</g>
</svg>
