<!-- Generator: Adobe Illustrator 24.1.0, SVG Export Plug-In  -->
<svg version="1.1" xmlns="http://www.w3.org/2000/svg" xmlns:xlink="http://www.w3.org/1999/xlink" x="0px" y="0px" width="53.16px"
	 height="94.39px" viewBox="0 0 53.16 94.39" style="enable-background:new 0 0 53.16 94.39;" xml:space="preserve">
<style type="text/css">
	.st0{opacity:0.9;fill:#E5F3F3;}
</style>
<defs>
</defs>
<g>
	<path class="st0" d="M42.56,5.1c1.75,5.4-6.3,12.86-17.98,16.65c-11.69,3.79-22.59,2.48-24.34-2.91
		c-1.76-5.41,6.3-12.87,17.99-16.66C29.91-1.62,40.81-0.31,42.56,5.1z"/>
	<path class="st0" d="M42.56,5.1l9.09,28.01c1.2,3.71,1.7,7.58,1.44,11.24l-3.52,48.53c-0.08,1.56-1.53,2.04-2.53,0.86L14.02,55.65
		c-1.92-2.22-3.44-4.95-4.4-7.92l-9.38-28.9c1.75,5.4,12.65,6.71,24.34,2.91C36.26,17.95,44.32,10.49,42.56,5.1z"/>
</g>
</svg>
