<!-- Generator: Adobe Illustrator 24.1.0, SVG Export Plug-In  -->
<svg version="1.1" xmlns="http://www.w3.org/2000/svg" xmlns:xlink="http://www.w3.org/1999/xlink" x="0px" y="0px" width="22.19px"
	 height="46.05px" viewBox="0 0 22.19 46.05" style="enable-background:new 0 0 22.19 46.05;" xml:space="preserve">
<style type="text/css">
	.st0{fill:#A2D9F1;stroke:#231F20;stroke-width:0.5;stroke-miterlimit:10;}
	.st1{fill:none;stroke:#231F20;stroke-width:0.5;stroke-miterlimit:10;}
	.st2{fill:#80C2DD;stroke:#231F20;stroke-width:0.5;stroke-miterlimit:10;}
	.st3{fill:none;stroke:#231F20;stroke-width:0.635;stroke-linecap:round;stroke-miterlimit:10;}
	.st4{fill:#FFFFFF;}
	.st5{fill:#C3E5F0;}
	.st6{fill:#73B5CB;}
</style>
<defs>
</defs>
<g>
	<path class="st0" d="M10.57,0.93l2.07,5.53c0.04,0.1,0.03,0.21-0.01,0.33c0.17,0.47,8.78,23.44,8.78,23.44
		c0.13,0.35,0.2,0.71,0.21,1.07l0.32,14.45c0,0.01-0.04,0.03-0.11,0.04c-0.06,0.01-0.12,0.01-0.12,0.01l-9.83-12.55
		c-0.25-0.31-0.44-0.65-0.57-1c0,0-8.46-22.59-8.79-23.45C2.44,8.73,2.38,8.65,2.34,8.57L0.27,3.04"/>
	<path class="st1" d="M4.73,9.27"/>
	<path class="st1" d="M2.64,3.74"/>
	<path class="st2" d="M11.45,7.8c0-0.02,0-0.04,0-0.04s-1.95-5.2-2.06-5.5c0.87-0.45,1.34-0.93,1.19-1.32
		C10.29,0.17,7.75,0.02,4.9,0.6s-4.91,1.68-4.63,2.45c0.17,0.44,1.09,0.68,2.36,0.69l2.05,5.47c0,0,0.28,0.5,0.93,0.03
		c0,0-2.03-5.42-2.07-5.53c0.74-0.05,1.56-0.15,2.4-0.33c1-0.2,1.91-0.47,2.65-0.77c0.1,0.26,2.07,5.52,2.07,5.52
		C11.41,8.27,11.45,7.92,11.45,7.8"/>
	<path class="st1" d="M2.64,3.74c0,0,0.3,0.26,0.91-0.03"/>
	<path class="st1" d="M9.38,2.27c0,0-0.06,0.37-0.78,0.35"/>
	<path class="st3" d="M21.52,30.5"/>
	<path class="st1" d="M4.73,9.27C3.43,9.26,2.52,9.02,2.35,8.58"/>
	<path class="st1" d="M12.64,6.78c-0.12,0.32-0.54,0.67-1.2,1.01"/>
	<ellipse transform="matrix(0.9815 -0.1913 0.1913 0.9815 -0.2816 1.0746)" class="st4" cx="5.43" cy="2" rx="4.49" ry="1.04"/>
	<path class="st5" d="M5.15,9.39L3.09,3.9c0,0-0.27,0.01-0.33-0.04l2,5.34C4.75,9.2,4.88,9.43,5.15,9.39z"/>
	<path class="st5" d="M9.15,2.58l2.06,5.5c0,0-0.11,0.08-0.5,0.02L8.68,2.67C8.68,2.67,8.93,2.68,9.15,2.58z"/>
	<path class="st5" d="M1.36,3.68L3.39,9.1c0,0-0.34-0.07-0.53-0.16l-2.02-5.4C0.84,3.54,1.14,3.65,1.36,3.68z"/>
	<path class="st6" d="M3.63,3.76l2.03,5.43c0,0,0.34-0.02,0.61-0.05L4.25,3.71C4.25,3.71,3.89,3.75,3.63,3.76z"/>
	<path class="st6" d="M9.46,2.29c0,0,0.24-0.12,0.41-0.23l2.03,5.42c0,0-0.2,0.13-0.4,0.24L9.46,2.29z"/>
	<path class="st6" d="M12.04,7.51l8.76,23.38c0.03,0.08,0.05,0.17,0.05,0.25l0.98,14.61l-0.35-14.83c0-0.1-0.02-0.19-0.06-0.29
		l-8.84-23.6C12.58,7.02,12.42,7.26,12.04,7.51z"/>
	<path class="st3" d="M20.73,31.61c0.19-0.12,0.36-0.24,0.48-0.36"/>
	<path class="st5" d="M4.01,9.29l8.76,23.37c0.03,0.07,0.07,0.15,0.11,0.22l8.92,12.88l-8.13-13.02c-0.04-0.06-0.06-0.12-0.09-0.18
		L4.94,9.48c0,0-0.14-0.04-0.25-0.16C4.69,9.32,4.36,9.33,4.01,9.29z"/>
	<path class="st5" d="M9.48,8.62l8.78,23.43c0.01,0.04,0.03,0.08,0.03,0.12l2.43,10.62l-1.74-10.83c-0.01-0.06-0.02-0.11-0.04-0.17
		L10.18,8.4C10.18,8.4,9.91,8.5,9.48,8.62z"/>
	<path class="st3" d="M12.28,33.1c1.02,0.26,2.8,0.22,4.72-0.17c0.89-0.18,1.7-0.42,2.38-0.67"/>
	<path class="st1" d="M5.62,9.24c0,0,2.8-0.12,5.05-1.1"/>
</g>
</svg>
