<!-- Generator: Adobe Illustrator 24.1.0, SVG Export Plug-In  -->
<svg version="1.1" xmlns="http://www.w3.org/2000/svg" xmlns:xlink="http://www.w3.org/1999/xlink" x="0px" y="0px" width="66.27px"
	 height="140.56px" viewBox="0 0 66.27 140.56" style="enable-background:new 0 0 66.27 140.56;" xml:space="preserve">
<style type="text/css">
	.st0{opacity:0.9;fill:#EEEDA2;}
	.st1{fill:#F1F8F9;}
	.st2{opacity:0.61;fill:#C7C7C9;}
	.st3{fill:none;stroke:#231F20;stroke-width:0.5;stroke-miterlimit:10;}
	.st4{fill:#020203;}
	.st5{fill:none;stroke:#231F20;stroke-width:0.5;stroke-linecap:round;stroke-miterlimit:10;}
	.st6{fill:none;stroke:#231F20;stroke-width:0.562;stroke-linecap:round;stroke-miterlimit:10;}
	.st7{fill:#FAFAFA;stroke:#C3C5C5;stroke-width:0.937;stroke-miterlimit:10;}
</style>
<defs>
</defs>
<g>
	<g>
		<g>
			<g>
				<path class="st0" d="M53.05,81.49c0,3.76-8.99,6.81-20.07,6.81c-11.09,0-20.08-3.05-20.08-6.81c0-3.76,8.99-6.81,20.08-6.81
					C44.06,74.68,53.05,77.73,53.05,81.49z"/>
				<path class="st0" d="M53.05,81.49v19.48c0,2.58-0.66,5.12-1.9,7.37l-16.53,29.82c-0.5,0.97-1.88,0.97-2.41,0.03l-17.74-30.72
					c-1.03-1.79-1.57-3.81-1.57-5.88v-20.1c0,3.76,8.99,6.81,20.08,6.81C44.06,88.3,53.05,85.25,53.05,81.49z"/>
			</g>
			<g>
				<path class="st1" d="M24.34,37.3v67.06c0,0.41,0.05,0.82,0.15,1.21l7.53,29.04l-5.47-29.2c-0.05-0.29-0.08-0.58-0.08-0.88V37.45
					C26.47,37.45,25.7,37.48,24.34,37.3z"/>
				<path class="st1" d="M13.23,29.92v71.89c0,0.75,0.18,1.49,0.52,2.17l18.28,35.74l-16-35.85c-0.27-0.6-0.4-1.24-0.4-1.9V31.02
					C15.63,31.02,14.37,30.5,13.23,29.92z"/>
				<path class="st2" d="M51.94,35.03v66.78c0,0.75-0.18,1.49-0.52,2.17l-18.28,35.74l16-35.85c0.27-0.6,0.4-1.24,0.4-1.9
					l0.01-66.27C49.56,35.7,50.94,35.52,51.94,35.03z"/>
				<path class="st3" d="M60.59,22.12c0,6.5-11.99,11.76-26.79,11.76S7.01,28.61,7.01,22.12"/>
				<line class="st3" x1="7.01" y1="20.83" x2="7.01" y2="22.12"/>
				<line class="st3" x1="60.59" y1="17.06" x2="60.59" y2="22.12"/>
				<path class="st3" d="M11.8,28.83v72.12c0,2.9,0.76,5.74,2.22,8.25l17.28,29.84c1,1.72,3.5,1.69,4.45-0.05l16.22-29.64
					c1.43-2.61,2.18-5.54,2.18-8.51V29.76"/>
				<path class="st3" d="M52.97,3.8C48.1,1.61,41.31,0.25,33.8,0.25c-11.73,0-21.71,3.31-25.33,7.92c-0.08,0.1-0.19,0.16-0.32,0.16
					c-1.26,0-7.9,0-7.9,0v7.44h7.88c0.18,0,0.34,0.08,0.45,0.21c3.71,4.54,13.6,7.79,25.22,7.79c14.8,0,26.79-5.27,26.79-11.76
					C60.59,8.82,57.68,5.92,52.97,3.8z"/>
				<path class="st3" d="M60.59,17.06c0,6.5-11.99,11.76-26.79,11.76c-11.63,0-21.52-3.25-25.23-7.8c-0.1-0.12-0.25-0.19-0.41-0.19
					H0.25v-5.06"/>
				<line class="st3" x1="60.59" y1="12.01" x2="60.59" y2="17.06"/>
				<ellipse class="st3" cx="33.8" cy="12.01" rx="15.23" ry="5.64"/>
				<path class="st3" d="M61.7,23.26c-0.36,0.07-0.73,0.11-1.11,0.11v-1.92c1.94,0,3.51-1.57,3.51-3.51s-1.57-3.51-3.51-3.51v-1.92
					c3,0,5.43,2.43,5.43,5.43C66.02,20.57,64.17,22.75,61.7,23.26z"/>
				<path class="st3" d="M60.59,15.6"/>
				<path class="st3" d="M58.37,7.08c2.29,0,4.25,1.42,5.05,3.42c0.43,1.07,2.14,5.27,2.14,5.27"/>
				<path class="st3" d="M60.59,15.24c0.26-0.21,0.49-0.46,0.68-0.73"/>
				<path class="st3" d="M66.01,17.65"/>
				<path class="st3" d="M23.87,125.93c0,0,1.9,0.22,3.62,0.07"/>
				<path class="st3" d="M39.28,125.8c0,0,1.6,0.16,3.32,0"/>
				<path class="st3" d="M25.88,117.64c0,0,7.13,0.84,13.4,0"/>
				<path class="st3" d="M25.88,90.06c0,0,7.13,0.84,13.4,0"/>
				<path class="st3" d="M25.88,68.83c0,0,7.13,0.84,13.4,0"/>
				<path class="st3" d="M25.88,48.21c0,0,7.13,0.84,13.4,0"/>
				<path class="st3" d="M23.88,100.66c0,0,1.9,0.27,3.62,0.16"/>
				<path class="st3" d="M38.91,100.75c0,0,1.61,0.01,3.3-0.29"/>
				<path class="st3" d="M23.74,79.19c0,0,1.9,0.27,3.62,0.16"/>
				<path class="st3" d="M38.78,79.29c0,0,1.61,0.01,3.3-0.29"/>
				<path class="st3" d="M23.41,58.39c0,0,1.9,0.27,3.62,0.16"/>
				<path class="st3" d="M38.45,58.49c0,0,1.61,0.01,3.3-0.29"/>
				<g>
					<path class="st4" d="M31.85,100.93c0,1.48-0.55,2.3-1.52,2.3c-0.85,0-1.43-0.8-1.44-2.24c0-1.46,0.63-2.27,1.52-2.27
						C31.33,98.72,31.85,99.54,31.85,100.93z M29.48,101c0,1.13,0.35,1.78,0.89,1.78c0.6,0,0.89-0.71,0.89-1.82
						c0-1.07-0.27-1.78-0.89-1.78C29.86,99.18,29.48,99.81,29.48,101z"/>
					<path class="st4" d="M32.45,102.81c0-0.25,0.17-0.42,0.4-0.42s0.4,0.17,0.4,0.42c0,0.24-0.15,0.42-0.4,0.42
						C32.61,103.23,32.45,103.05,32.45,102.81z"/>
					<path class="st4" d="M36.39,99.29h-1.67l-0.17,1.12c0.1-0.01,0.19-0.03,0.36-0.03c0.34,0,0.67,0.07,0.94,0.23
						c0.34,0.2,0.62,0.57,0.62,1.12c0,0.85-0.68,1.49-1.62,1.49c-0.48,0-0.88-0.13-1.09-0.27l0.15-0.45
						c0.18,0.11,0.54,0.24,0.93,0.24c0.56,0,1.03-0.36,1.03-0.95c-0.01-0.56-0.38-0.97-1.25-0.97c-0.25,0-0.44,0.03-0.6,0.05
						l0.28-2.09h2.09V99.29z"/>
				</g>
				<g>
					<path class="st4" d="M31.42,77.78h-0.01l-0.76,0.41l-0.11-0.45l0.95-0.51h0.5v4.36h-0.57V77.78z"/>
					<path class="st4" d="M33.64,81.25c0-0.25,0.17-0.42,0.4-0.42s0.4,0.17,0.4,0.42c0,0.24-0.16,0.42-0.4,0.42
						C33.8,81.67,33.64,81.49,33.64,81.25z"/>
					<path class="st4" d="M37.88,79.37c0,1.48-0.55,2.3-1.52,2.3c-0.85,0-1.43-0.8-1.44-2.24c0-1.46,0.63-2.27,1.52-2.27
						C37.36,77.16,37.88,77.98,37.88,79.37z M35.51,79.44c0,1.13,0.35,1.78,0.89,1.78c0.6,0,0.89-0.71,0.89-1.82
						c0-1.07-0.27-1.78-0.89-1.78C35.89,77.62,35.51,78.25,35.51,79.44z"/>
				</g>
				<g>
					<path class="st4" d="M30.58,56.92h-0.01l-0.76,0.41l-0.11-0.45l0.95-0.51h0.5v4.36h-0.57V56.92z"/>
					<path class="st4" d="M32.8,60.39c0-0.25,0.17-0.42,0.4-0.42s0.4,0.17,0.4,0.42c0,0.24-0.16,0.42-0.4,0.42
						C32.96,60.81,32.8,60.63,32.8,60.39z"/>
					<path class="st4" d="M36.74,56.87h-1.67l-0.17,1.12c0.1-0.01,0.19-0.03,0.36-0.03c0.34,0,0.67,0.07,0.94,0.23
						c0.34,0.2,0.62,0.57,0.62,1.12c0,0.85-0.68,1.49-1.62,1.49c-0.48,0-0.88-0.13-1.09-0.27l0.15-0.45
						c0.18,0.11,0.54,0.24,0.93,0.24c0.56,0,1.03-0.36,1.03-0.95c-0.01-0.56-0.38-0.97-1.25-0.97c-0.25,0-0.44,0.03-0.6,0.05
						l0.28-2.09h2.09V56.87z"/>
				</g>
				<g>
					<path class="st4" d="M33.04,127.04c0,1.48-0.55,2.3-1.52,2.3c-0.85,0-1.43-0.8-1.44-2.24c0-1.46,0.63-2.27,1.52-2.27
						C32.52,124.83,33.04,125.65,33.04,127.04z M30.67,127.1c0,1.13,0.35,1.78,0.89,1.78c0.6,0,0.89-0.71,0.89-1.82
						c0-1.07-0.28-1.78-0.89-1.78C31.05,125.28,30.67,125.91,30.67,127.1z"/>
					<path class="st4" d="M33.64,128.92c0-0.25,0.17-0.42,0.4-0.42s0.4,0.17,0.4,0.42c0,0.24-0.16,0.42-0.4,0.42
						C33.8,129.34,33.64,129.16,33.64,128.92z"/>
					<path class="st4" d="M36.26,125.45h-0.01l-0.76,0.41l-0.11-0.45l0.95-0.51h0.5v4.36h-0.57V125.45z"/>
				</g>
				<path class="st3" d="M18.81,13.02c1.28-2.63,7.5-4.63,14.98-4.63c7.48,0,13.7,2,14.98,4.63"/>
				<path class="st5" d="M40.77,109.22c-2.56,0.35-5.36,0.55-8.3,0.55c-8.19,0-15.34-1.52-19.12-3.77"/>
				<path class="st5" d="M52.59,105.33c-1.51,1.16-3.88,2.17-6.82,2.93"/>
				<path class="st6" d="M50.77,100.8c-1.82-0.84-4.39-1.54-7.47-2.03"/>
				<path class="st2" d="M53.93,31.87c0,0-11.64,4.66-25.52,1.99c0,0,14.46,1.65,25.51-3.73L53.93,31.87z"/>
				<path class="st1" d="M58.44,10.18C57.12,16.04,47.19,20.5,33.42,20.5c-12.82,0-21.62-4.86-24.26-10.14
					c0.7,6.22,11.63,11.49,25.97,11.49C48.88,21.85,57.32,16.19,58.44,10.18"/>
			</g>
		</g>
		<g>
			<path class="st7" d="M54.33,50.03v18.7c0,2.08-9.49,3.77-21.19,3.77c-11.7,0-21.19-1.69-21.19-3.77v-18.7
				c0,2.09,9.49,3.77,21.19,3.77C44.84,53.8,54.33,52.12,54.33,50.03z"/>
		</g>
	</g>
	<g>
		<path class="st4" d="M23.13,64.95c0.47,0.29,1.17,0.54,1.9,0.54c1.08,0,1.72-0.57,1.72-1.4c0-0.77-0.44-1.2-1.54-1.63
			c-1.34-0.47-2.17-1.17-2.17-2.32c0-1.28,1.06-2.23,2.65-2.23c0.84,0,1.45,0.2,1.81,0.4l-0.29,0.86c-0.27-0.15-0.81-0.39-1.56-0.39
			c-1.12,0-1.54,0.67-1.54,1.23c0,0.77,0.5,1.14,1.63,1.58c1.39,0.53,2.09,1.2,2.09,2.41c0,1.26-0.94,2.36-2.87,2.36
			c-0.79,0-1.65-0.23-2.09-0.52L23.13,64.95z"/>
		<path class="st4" d="M36.29,62.05c0,2.82-1.72,4.32-3.81,4.32c-2.17,0-3.69-1.68-3.69-4.16c0-2.6,1.62-4.31,3.81-4.31
			C34.84,57.9,36.29,59.62,36.29,62.05z M29.93,62.19c0,1.75,0.95,3.32,2.62,3.32c1.68,0,2.63-1.55,2.63-3.41
			c0-1.63-0.85-3.33-2.62-3.33C30.8,58.77,29.93,60.39,29.93,62.19z"/>
		<path class="st4" d="M43.4,65.97c-0.39,0.19-1.17,0.39-2.17,0.39c-2.31,0-4.05-1.46-4.05-4.15c0-2.57,1.74-4.31,4.28-4.31
			c1.02,0,1.67,0.22,1.95,0.37l-0.26,0.86c-0.4-0.2-0.97-0.34-1.65-0.34c-1.92,0-3.2,1.23-3.2,3.38c0,2.01,1.16,3.3,3.15,3.3
			c0.64,0,1.3-0.13,1.73-0.34L43.4,65.97z"/>
	</g>
</g>
</svg>
