<!-- Generator: Adobe Illustrator 24.1.0, SVG Export Plug-In  -->
<svg version="1.1" xmlns="http://www.w3.org/2000/svg" xmlns:xlink="http://www.w3.org/1999/xlink" x="0px" y="0px"
	 width="102.79px" height="81.95px" viewBox="0 0 102.79 81.95" style="enable-background:new 0 0 102.79 81.95;"
	 xml:space="preserve">
<style type="text/css">
	.st0{opacity:0.9;fill:#EEF7F8;}
	.st1{fill:none;stroke:#2B2523;stroke-width:0.2073;stroke-linecap:round;stroke-miterlimit:10;}
	.st2{fill:#F7FCFD;}
	.st3{fill:none;stroke:#2B2523;stroke-width:0.2073;stroke-miterlimit:10;}
	.st4{fill:#E9C289;stroke:#2B2523;stroke-width:0.2073;stroke-miterlimit:10;}
	.st5{fill:#EEB066;stroke:#2B2523;stroke-width:0.2084;stroke-miterlimit:10;}
	.st6{fill:#EEB066;stroke:#2B2523;stroke-width:0.2073;stroke-miterlimit:10;}
	.st7{fill:#D0CED0;}
	.st8{fill:none;stroke:#2B2523;stroke-width:0.2612;stroke-miterlimit:10;}
	.st9{fill:none;stroke:#2B2523;stroke-width:0.233;stroke-linecap:round;stroke-miterlimit:10;}
	.st10{opacity:0.61;fill:#D0CED0;}
	.st11{fill:#FCFCFD;stroke:#CCCCCC;stroke-width:0.3902;stroke-miterlimit:10;}
</style>
<defs>
</defs>
<g>
	<path class="st0" d="M12.51,41.87c0,1.85,4.44,3.36,9.9,3.36c5.47,0,9.91-1.5,9.91-3.36c0-1.86-4.44-3.36-9.91-3.36
		C16.95,38.51,12.51,40.01,12.51,41.87z"/>
	<path class="st0" d="M12.51,41.87v9.61c0,1.27,0.32,2.52,0.94,3.64l8.16,14.72c0.25,0.48,0.93,0.48,1.19,0.01l8.75-15.15
		c0.51-0.88,0.78-1.88,0.78-2.9v-9.92c0,1.85-4.44,3.36-9.91,3.36C16.95,45.23,12.51,43.72,12.51,41.87z"/>
</g>
<g>
	<path class="st0" d="M39.96,44.44c0,1.85,4.44,3.36,9.9,3.36c5.47,0,9.91-1.5,9.91-3.36c0-1.86-4.44-3.36-9.91-3.36
		C44.39,41.08,39.96,42.59,39.96,44.44z"/>
	<path class="st0" d="M39.96,44.44v9.61c0,1.27,0.32,2.52,0.94,3.64l8.16,14.72c0.25,0.48,0.93,0.48,1.19,0.01l8.75-15.15
		c0.51-0.88,0.78-1.88,0.78-2.9v-9.92c0,1.85-4.44,3.36-9.91,3.36C44.39,47.8,39.96,46.3,39.96,44.44z"/>
</g>
<g>
	<path class="st0" d="M67.17,47.06c0,1.85,4.44,3.36,9.9,3.36c5.47,0,9.91-1.5,9.91-3.36c0-1.86-4.44-3.36-9.91-3.36
		C71.61,43.7,67.17,45.2,67.17,47.06z"/>
	<path class="st0" d="M67.17,47.06v9.61c0,1.27,0.32,2.52,0.94,3.64l8.16,14.72c0.25,0.48,0.93,0.48,1.19,0.01l8.75-15.15
		c0.51-0.88,0.78-1.88,0.78-2.9v-9.92c0,1.85-4.44,3.36-9.91,3.36C71.61,50.42,67.17,48.91,67.17,47.06z"/>
</g>
<path class="st1" d="M73.23,60.74c1.26,0.17,2.64,0.27,4.09,0.27c4.04,0,7.57-0.75,9.43-1.86"/>
<path class="st2" d="M86.82,49.62v10.69c0,0.37-0.09,0.74-0.26,1.07l-9.4,14.52l8.27-14.58c0.13-0.29,0.2-0.61,0.2-0.94l0.03-10.88"
	/>
<path class="st3" d="M87.53,49.69v6.97c0,1.43-0.38,2.83-1.09,4.07l-8.52,14.72c-0.49,0.85-1.73,0.84-2.2-0.03l-8-14.62
	c-0.71-1.29-1.07-2.73-1.07-4.2v-8.55"/>
<text transform="matrix(-1 0 0 1 77.0793 48.819)" style="fill:#13110C; font-family:'Bahnschrift'; font-size:3.3161px;">1.0</text>
<path class="st4" d="M66.23,39.42c0,0.19,0.04,0.37,0.12,0.55c0.8-1.77,5.29-3.12,10.72-3.12c5.44,0,9.94,1.36,10.72,3.13
	c0.08-0.18,0.12-0.37,0.12-0.56c0-2.03-4.86-3.68-10.85-3.68S66.23,37.39,66.23,39.42z"/>
<path class="st4" d="M39.18,36.89c0,0.19,0.04,0.37,0.12,0.55c0.8-1.77,5.29-3.12,10.72-3.12c5.43,0,9.94,1.36,10.72,3.12
	c0.08-0.18,0.12-0.36,0.12-0.56c0-2.03-4.86-3.68-10.85-3.68C44.04,33.21,39.18,34.86,39.18,36.89z"/>
<path class="st3" d="M64.91,43.98c0,0,0-0.01,0.01-0.01v0"/>
<path class="st3" d="M86.36,43.97c0.01,0.02,0.02,0.04,0.03,0.06"/>
<g>
	<polygon class="st5" points="1.48,73.99 18.94,61.64 19.18,43.43 19.2,41.75 19.2,41.73 19.25,38.33 19.34,31.3 19.41,25.95 
		3.38,40.25 3.37,40.25 3.36,40.26 1.69,41.75 	"/>
	<polygon class="st6" points="84.09,47.85 84.09,81.74 102.53,68.12 102.53,34.11 	"/>
	<polygon class="st4" points="0.48,39.98 0.1,73.86 1.48,73.98 1.75,41.8 82.92,49.42 82.92,81.74 84.09,81.74 84.09,47.85 	"/>
	<path class="st6" d="M0.46,39.97l2.91,0.28h0.01l15.82,1.48l64.86,6.11l18.45-13.74l-83.12-8.17L0.46,39.97z M66.23,39.42
		c0-2.03,4.85-3.67,10.84-3.67c5.99,0,10.85,1.64,10.85,3.67c0,0.19-0.04,0.37-0.12,0.56C87,41.74,82.5,43.1,77.07,43.1
		c-0.1,0-0.2,0-0.29-0.01h-0.3c-0.25-0.01-0.49-0.02-0.74-0.02c-0.22-0.01-0.44-0.02-0.65-0.03c-0.06-0.01-0.11-0.01-0.17-0.02
		c-0.17-0.01-0.35-0.02-0.52-0.03c-0.02-0.01-0.04-0.01-0.06-0.01c-0.17-0.02-0.34-0.03-0.51-0.06c-0.21-0.02-0.41-0.05-0.61-0.07
		c-0.15-0.02-0.3-0.03-0.44-0.06c-0.81-0.12-1.56-0.27-2.25-0.45c-0.1-0.02-0.18-0.05-0.28-0.07c-0.1-0.02-0.18-0.06-0.27-0.08
		c-0.12-0.03-0.24-0.06-0.35-0.1c-0.21-0.07-0.42-0.14-0.62-0.21c-0.03-0.02-0.07-0.03-0.11-0.05c-0.08-0.02-0.16-0.06-0.24-0.1
		c-0.16-0.07-0.33-0.13-0.48-0.21c-0.66-0.32-1.17-0.68-1.51-1.06c-0.05-0.06-0.09-0.1-0.13-0.16c-0.03-0.05-0.06-0.1-0.09-0.14
		c-0.02-0.03-0.05-0.07-0.06-0.1c-0.02-0.02-0.02-0.06-0.04-0.08C66.27,39.79,66.23,39.61,66.23,39.42z M39.18,36.89
		c0-2.03,4.86-3.68,10.85-3.68c5.98,0,10.84,1.65,10.84,3.68c0,0.19-0.04,0.37-0.13,0.56c-0.79,1.76-5.29,3.12-10.71,3.12
		c-5.44,0-9.93-1.35-10.73-3.12C39.22,37.27,39.18,37.08,39.18,36.89z M19.25,38.33l0.1-7.03c0.99-0.1,2.05-0.16,3.14-0.16
		c5.99,0,10.85,1.64,10.85,3.67c0,0.19-0.04,0.38-0.13,0.56c-0.79,1.76-5.29,3.12-10.72,3.12C21.36,38.5,20.27,38.44,19.25,38.33z"
		/>
</g>
<path class="st3" d="M19.25,38.33c1.02,0.11,2.11,0.17,3.24,0.17c5.43,0,9.93-1.36,10.72-3.12c0.09-0.18,0.13-0.37,0.13-0.56
	c0-2.03-4.86-3.67-10.85-3.67c-1.1,0-2.15,0.06-3.14,0.16L19.25,38.33z"/>
<path class="st3" d="M11.65,34.81c0,0.19,0.04,0.37,0.12,0.56c0.63,1.4,3.58,2.55,7.48,2.96l0.1-7.03
	C14.89,31.75,11.65,33.16,11.65,34.81z"/>
<path class="st3" d="M39.18,36.89c0,0.19,0.04,0.37,0.12,0.56c0.8,1.77,5.29,3.12,10.73,3.12c5.43,0,9.93-1.36,10.71-3.12
	c0.09-0.18,0.13-0.37,0.13-0.56c0-2.03-4.86-3.68-10.84-3.68C44.04,33.21,39.18,34.86,39.18,36.89z"/>
<path class="st3" d="M66.23,39.42c0,0.19,0.04,0.37,0.12,0.56c0.02,0.02,0.02,0.06,0.04,0.08c0.02,0.03,0.04,0.07,0.06,0.1
	c0.02,0.05,0.06,0.1,0.09,0.14c0.04,0.06,0.08,0.1,0.13,0.16c0.33,0.38,0.85,0.75,1.51,1.06c0.15,0.08,0.32,0.14,0.48,0.21
	c0.08,0.04,0.16,0.07,0.24,0.1c0.04,0.02,0.08,0.02,0.11,0.05c0.2,0.07,0.4,0.14,0.62,0.21c0.11,0.04,0.23,0.07,0.35,0.1
	c0.09,0.02,0.17,0.06,0.27,0.08c0.1,0.02,0.18,0.05,0.28,0.07c0.69,0.18,1.44,0.33,2.25,0.45c0.14,0.02,0.29,0.04,0.44,0.06
	c0.2,0.02,0.4,0.06,0.61,0.07c0.17,0.02,0.34,0.04,0.51,0.06c0.02,0,0.04,0,0.06,0.01c0.17,0.01,0.35,0.02,0.52,0.03
	c0.06,0.01,0.11,0.01,0.17,0.02c0.21,0.01,0.43,0.02,0.65,0.03c0.25,0.01,0.49,0.02,0.74,0.02h0.3c0.1,0.01,0.2,0.01,0.29,0.01
	c5.44,0,9.94-1.36,10.73-3.13c0.08-0.18,0.12-0.37,0.12-0.56c0-2.03-4.86-3.67-10.85-3.67C71.08,35.74,66.23,37.39,66.23,39.42z"/>
<path class="st2" d="M81.34,49.11v9.23c0,0.2-0.03,0.4-0.08,0.6l-3.72,14.33l2.7-14.41c0.03-0.14,0.04-0.29,0.04-0.43v-9.27"/>
<path class="st7" d="M67.72,48.17v10.41c0,0.37,0.09,0.74-0.22-0.4l9.02,17.63L69.1,59.59c-0.13-0.29-0.2-0.61-0.2-0.94l0-10.49"/>
<path class="st8" d="M93.62,71.54c0,0-1.18,0.14-2.25,0.04"/>
<path class="st8" d="M84.04,71.46c0,0-1,0.1-2.06,0"/>
<path class="st3" d="M80.58,64.89c0,0-3.52,0.41-6.61,0"/>
<path class="st3" d="M80.58,51.28c0,0-3.52,0.41-6.61,0"/>
<path class="st3" d="M81.57,56.51c0,0-0.94,0.13-1.78,0.08"/>
<path class="st3" d="M74.15,56.56c0,0-0.79,0.01-1.63-0.14"/>
<text transform="matrix(-1 0 0 1 79.2124 57.7477)" style="fill:#13110C; font-family:'Bahnschrift'; font-size:3.3161px;">0.5</text>
<text transform="matrix(-1 0 0 1 78.625 70.6261)" style="fill:#13110C; font-family:'Bahnschrift'; font-size:3.3161px;">0.1</text>
<path class="st1" d="M67.4,58.82c0.75,0.57,1.91,1.07,3.37,1.44"/>
<path class="st9" d="M68.29,56.59c0.9-0.41,2.17-0.76,3.68-1"/>
<path class="st4" d="M11.64,34.77c0,0.19,0.04,0.37,0.12,0.56c0.79-1.77,5.29-3.12,10.72-3.12c5.43,0,9.93,1.35,10.72,3.12
	c0.08-0.18,0.12-0.36,0.12-0.56c0-2.03-4.85-3.68-10.84-3.68C16.5,31.09,11.64,32.74,11.64,34.77z"/>
<path class="st3" d="M52.41,26.26c0,0-3.52,0.41-6.61,0"/>
<path class="st1" d="M46.01,58.13c1.26,0.17,2.64,0.27,4.09,0.27c4.04,0,7.57-0.75,9.43-1.86"/>
<path class="st2" d="M59.6,47.23V57.7c0,0.37-0.09,0.74-0.26,1.07l-9.4,14.52l8.27-14.58c0.13-0.29,0.2-0.61,0.2-0.94l0.03-10.66"/>
<path class="st3" d="M60.31,47.3v6.74c0,1.43-0.38,2.83-1.09,4.07l-8.52,14.72c-0.49,0.85-1.73,0.84-2.2-0.03l-8-14.62
	c-0.71-1.29-1.07-2.73-1.07-4.2v-8.55"/>
<path class="st2" d="M54.12,46.81v9.23c0,0.2-0.03,0.4-0.08,0.6l-3.72,14.33l2.7-14.41c0.03-0.14,0.04-0.29,0.04-0.43l0.01-9.38"/>
<path class="st7" d="M40.5,45.56v10.41c0,0.37,0.09,0.74-0.22-0.4L49.3,73.2l-7.41-16.22c-0.13-0.29-0.2-0.61-0.2-0.94l0-10.34"/>
<path class="st3" d="M54.35,66.37c0,0-0.94,0.11-1.79,0.03"/>
<path class="st3" d="M46.75,66.31c0,0-0.79,0.08-1.64,0"/>
<path class="st3" d="M53.36,62.28c0,0-3.52,0.41-6.61,0"/>
<path class="st3" d="M53.36,48.67c0,0-3.52,0.41-6.61,0"/>
<path class="st3" d="M54.35,53.9c0,0-0.94,0.13-1.78,0.08"/>
<path class="st3" d="M46.93,53.95c0,0-0.79,0.01-1.63-0.14"/>
<text transform="matrix(-1 0 0 1 51.9948 55.1349)" style="fill:#13110C; font-family:'Bahnschrift'; font-size:3.3161px;">0.5</text>
<text transform="matrix(-1 0 0 1 51.4074 68.0138)" style="fill:#13110C; font-family:'Bahnschrift'; font-size:3.3161px;">0.1</text>
<path class="st1" d="M40.18,56.2c0.75,0.57,1.91,1.07,3.37,1.44"/>
<path class="st9" d="M41.08,53.97c0.9-0.41,2.17-0.76,3.68-1"/>
<path class="st1" d="M18.57,55.55c1.26,0.17,2.64,0.27,4.09,0.27c4.04,0,7.57-0.75,9.43-1.86"/>
<path class="st2" d="M32.16,44.66v10.47c0,0.37-0.09,0.74-0.26,1.07l-9.4,14.52l8.27-14.58c0.13-0.29,0.2-0.61,0.2-0.94l0.03-10.66"
	/>
<path class="st3" d="M32.87,44.72v6.74c0,1.43-0.38,2.83-1.09,4.07l-8.52,14.72c-0.49,0.85-1.73,0.84-2.2-0.03l-8-14.62
	c-0.71-1.29-1.07-2.73-1.07-4.2v-8.55"/>
<path class="st2" d="M26.68,44.23v9.23c0,0.2-0.03,0.4-0.08,0.6L22.88,68.4l2.7-14.41c0.03-0.14,0.04-0.29,0.04-0.43l0.01-9.38"/>
<path class="st7" d="M13.06,42.98v10.41c0,0.37,0.09,0.74-0.22-0.4l9.02,17.63L14.44,54.4c-0.13-0.29-0.2-0.61-0.2-0.94l0-10.34"/>
<path class="st3" d="M26.91,63.79c0,0-0.94,0.11-1.79,0.03"/>
<path class="st3" d="M19.3,63.73c0,0-0.79,0.08-1.64,0"/>
<path class="st3" d="M25.92,59.7c0,0-3.52,0.41-6.61,0"/>
<path class="st3" d="M26.91,51.33c0,0-0.94,0.13-1.78,0.08"/>
<path class="st3" d="M19.49,51.37c0,0-0.79,0.01-1.63-0.14"/>
<text transform="matrix(-1 0 0 1 24.5515 52.5592)" style="fill:#13110C; font-family:'Bahnschrift'; font-size:3.3161px;">0.5</text>
<text transform="matrix(-1 0 0 1 23.9641 65.4376)" style="fill:#13110C; font-family:'Bahnschrift'; font-size:3.3161px;">0.1</text>
<path class="st1" d="M12.74,53.63c0.75,0.57,1.91,1.07,3.37,1.44"/>
<path class="st9" d="M13.63,51.4c0.9-0.41,2.17-0.76,3.68-1"/>
<path class="st2" d="M80.22,42.89V23.13c0,0,0.38,0.01,1.05-0.07v19.73"/>
<path class="st2" d="M85.57,41.69V18.92c0,0,0.62,0.78,1.18,0.49v21.66"/>
<path class="st10" d="M68.83,41.75l0-19.49c0,0-0.68-0.09-1.18-0.33v19.24"/>
<line class="st3" x1="66.57" y1="40.39" x2="66.57" y2="19.33"/>
<line class="st3" x1="87.46" y1="18.87" x2="87.46" y2="40.62"/>
<path class="st3" d="M79.53,28.86c0,0-3.52,0.41-6.61,0"/>
<path class="st10" d="M66.67,20.37c0,0,5.74,2.3,12.59,0.98c0,0-7.14,0.81-12.59-1.84L66.67,20.37z"/>
<path class="st11" d="M66.51,29.65v9.27c0,1.03,4.7,1.87,10.5,1.87c5.8,0,10.5-0.84,10.5-1.87v-9.27c0,1.03-4.71,1.87-10.5,1.87
	C71.21,31.52,66.51,30.68,66.51,29.65z"/>
<path class="st2" d="M53.1,40.29V20.53c0,0,0.38,0.01,1.05-0.07v19.73"/>
<path class="st2" d="M58.45,39.09V16.32c0,0,0.62,0.78,1.18,0.49v21.66"/>
<path class="st7" d="M41.72,39.15l0-19.49c0,0-0.68-0.09-1.18-0.33v19.24"/>
<path class="st2" d="M25.62,38.22V18.46c0,0,0.38,0.01,1.05-0.07v19.73"/>
<path class="st2" d="M30.98,37.02V14.25c0,0,0.62,0.78,1.18,0.49V36.4"/>
<path class="st10" d="M14.24,37.08l0-19.49c0,0-0.68-0.09-1.18-0.33V36.5"/>
<path class="st3" d="M24.93,24.19c0,0-3.52,0.41-6.61,0"/>
<path class="st11" d="M11.91,24.98v9.27c0,1.03,4.7,1.87,10.5,1.87c5.8,0,10.5-0.84,10.5-1.87v-9.27c0,1.03-4.71,1.87-10.5,1.87
	C16.62,26.85,11.91,26.01,11.91,24.98z"/>
<path class="st7" d="M39.55,17.77c0,0,5.74,2.3,12.59,0.98c0,0-7.14,0.81-12.59-1.84L39.55,17.77z"/>
<path class="st3" d="M63.39,15.56c0,3.21,5.92,5.8,13.22,5.8s13.22-2.6,13.22-5.8"/>
<line class="st3" x1="89.82" y1="14.93" x2="89.82" y2="15.56"/>
<line class="st3" x1="63.39" y1="11.3" x2="63.39" y2="13.8"/>
<path class="st3" d="M67.15,6.52c2.4-1.08,5.75-1.75,9.46-1.75c5.79,0,10.71,1.63,12.5,3.91c0.04,0.05,0.09,0.08,0.16,0.08
	c0.62,0,3.9,0,3.9,0v3.67h-3.89c-0.09,0-0.17,0.04-0.22,0.11c-1.83,2.24-6.71,3.84-12.44,3.84c-7.3,0-13.22-2.6-13.22-5.8
	C63.39,9,64.82,7.57,67.15,6.52z"/>
<path class="st3" d="M63.39,13.07c0,3.21,5.92,5.8,13.22,5.8c5.74,0,10.62-1.6,12.45-3.85c0.05-0.06,0.12-0.1,0.2-0.1h3.9v-2.5"/>
<line class="st3" x1="63.39" y1="13.01" x2="63.39" y2="15.51"/>
<ellipse class="st3" cx="76.61" cy="10.58" rx="7.51" ry="2.78"/>
<path class="st3" d="M62.84,16.13c0.18,0.04,0.36,0.06,0.55,0.06v-0.95c-0.96,0-1.73-0.77-1.73-1.73s0.77-1.73,1.73-1.73v-0.95
	c-1.48,0-2.68,1.2-2.68,2.68C60.71,14.8,61.62,15.88,62.84,16.13z"/>
<path class="st3" d="M62.4,12.76"/>
<path class="st3" d="M64.6,8.14c-1.13,0-2.22,0.7-2.61,1.69c-0.21,0.53-1.06,2.6-1.06,2.6"/>
<path class="st3" d="M63.39,12.17c-0.13-0.1-0.24-0.23-0.33-0.36"/>
<path class="st3" d="M59.73,13.77"/>
<path class="st3" d="M84,11.07c-0.63-1.3-3.7-2.28-7.39-2.28c-3.69,0-6.76,0.98-7.39,2.28"/>
<path class="st2" d="M64.45,9.67c0.65,2.89,5.55,5.09,12.34,5.09c6.32,0,10.67-2.4,11.97-5c-0.34,3.07-5.74,5.67-12.81,5.67
	C69.16,15.43,65,12.64,64.45,9.67"/>
<path class="st3" d="M8.79,10.89c0,3.21,5.92,5.8,13.22,5.8c5.75,0,10.65-1.61,12.46-3.87"/>
<path class="st3" d="M35.23,10.89"/>
<line class="st3" x1="8.79" y1="6.63" x2="8.79" y2="9.13"/>
<line class="st3" x1="11.97" y1="35.72" x2="11.97" y2="14.67"/>
<line class="st3" x1="32.87" y1="14.2" x2="32.87" y2="35.95"/>
<path class="st3" d="M34.67,7.76c-0.09,0-0.17,0.04-0.22,0.11c-1.83,2.24-6.71,3.84-12.44,3.84c-7.3,0-13.22-2.6-13.22-5.8
	c0-1.58,1.43-3.01,3.76-4.05c2.4-1.08,5.75-1.75,9.46-1.75c5.79,0,10.71,1.63,12.5,3.91c0.04,0.05,0.09,0.08,0.16,0.08
	c0.62,0,3.9,0,3.9,0v0.65"/>
<path class="st3" d="M38.56,4.68"/>
<path class="st3" d="M8.79,8.4c0,3.21,5.92,5.8,13.22,5.8c5.01,0,9.37-1.22,11.61-3.03"/>
<line class="st3" x1="8.79" y1="8.34" x2="8.79" y2="10.84"/>
<ellipse class="st3" cx="22.01" cy="5.91" rx="7.51" ry="2.78"/>
<path class="st3" d="M8.24,11.46c0.18,0.04,0.36,0.06,0.55,0.06v-0.95c-0.96,0-1.73-0.77-1.73-1.73S7.84,7.1,8.79,7.1V6.16
	c-1.48,0-2.68,1.2-2.68,2.68C6.11,10.13,7.03,11.21,8.24,11.46z"/>
<path class="st3" d="M7.81,8.09"/>
<path class="st3" d="M9.88,3.48c-1.13,0-2.1,0.7-2.49,1.69c-0.21,0.53-1.06,2.6-1.06,2.6"/>
<path class="st3" d="M8.79,7.5c-0.13-0.1-0.24-0.23-0.33-0.36"/>
<path class="st3" d="M5.13,9.11"/>
<path class="st3" d="M29.4,6.4c-0.63-1.3-3.7-2.28-7.39-2.28c-3.69,0-6.76,0.98-7.39,2.28"/>
<path class="st10" d="M12.08,15.7c0,0,5.74,2.3,12.59,0.98c0,0-7.14,0.81-12.59-1.84L12.08,15.7z"/>
<path class="st2" d="M9.85,5c0.65,2.89,5.55,5.09,12.34,5.09c6.32,0,10.67-2.4,11.97-5c-0.34,3.07-5.74,5.67-12.81,5.67
	C14.57,10.76,10.41,7.97,9.85,5"/>
<path class="st3" d="M36.27,12.96c0,3.21,5.92,5.8,13.22,5.8c5.34,0,9.94-1.39,12.03-3.39"/>
<line class="st3" x1="36.27" y1="8.7" x2="36.27" y2="11.2"/>
<path class="st3" d="M61.93,9.94c-1.83,2.24-6.71,3.84-12.44,3.84c-7.3,0-13.22-2.6-13.22-5.8c0-1.58,1.43-3.01,3.76-4.05
	c2.4-1.08,5.75-1.75,9.46-1.75c5.79,0,10.71,1.63,12.5,3.91c0.04,0.05,0.09,0.08,0.16,0.08c0.62,0,3.9,0,3.9,0v0.95"/>
<line class="st3" x1="36.27" y1="10.41" x2="36.27" y2="12.91"/>
<ellipse class="st3" cx="49.49" cy="7.98" rx="7.51" ry="2.78"/>
<path class="st3" d="M35.72,13.53c0.18,0.04,0.36,0.06,0.55,0.06v-0.95c-0.96,0-1.73-0.77-1.73-1.73s0.77-1.73,1.73-1.73V8.22
	c-1.48,0-2.68,1.2-2.68,2.68C33.59,12.2,34.51,13.28,35.72,13.53z"/>
<path class="st3" d="M35.29,10.16"/>
<path class="st3" d="M37.48,5.54c-1.13,0-2.22,0.7-2.61,1.69c-0.21,0.53-1.06,2.6-1.06,2.6"/>
<path class="st3" d="M36.27,9.57c-0.13-0.1-0.24-0.23-0.33-0.36"/>
<path class="st3" d="M32.61,11.18"/>
<path class="st3" d="M56.88,8.47c-0.63-1.3-3.7-2.28-7.39-2.28c-3.69,0-6.76,0.98-7.39,2.28"/>
<path class="st2" d="M37.33,7.07c0.65,2.89,5.55,5.09,12.34,5.09c6.32,0,10.67-2.4,11.97-5c-0.34,3.07-5.74,5.67-12.81,5.67
	C42.05,12.83,37.88,10.04,37.33,7.07"/>
<path class="st3" d="M36.27,10.6c0,3.21,5.92,5.8,13.22,5.8c5.01,0,8.98-0.93,11.22-2.74"/>
<line class="st3" x1="39.45" y1="37.79" x2="39.45" y2="16.74"/>
<line class="st3" x1="60.34" y1="16.27" x2="60.34" y2="38.02"/>
<path class="st11" d="M39.39,27.05v9.27c0,1.03,4.7,1.87,10.5,1.87c5.8,0,10.5-0.84,10.5-1.87v-9.27c0,1.03-4.71,1.87-10.5,1.87
	C44.09,28.92,39.39,28.08,39.39,27.05z"/>
</svg>
