<!-- Generator: Adobe Illustrator 24.1.0, SVG Export Plug-In  -->
<svg version="1.1" xmlns="http://www.w3.org/2000/svg" xmlns:xlink="http://www.w3.org/1999/xlink" x="0px" y="0px"
	 width="350.74px" height="475.62px" viewBox="0 0 350.74 475.62" style="enable-background:new 0 0 350.74 475.62;"
	 xml:space="preserve">
<style type="text/css">
	.st0{opacity:0.8;}
	.st1{fill:#FFFFFF;}
</style>
<defs>
</defs>
<g class="st0">
	<g>
		<path class="st1" d="M209.57,282.06c3.1,3.12,8.14,3.15,11.27,0.05c0.02-0.02,0.03-0.03,0.05-0.05l63.75-63.75
			c3.12-3.12,3.12-8.19,0-11.32c-3.12-3.12-8.19-3.12-11.32,0l-63.75,63.75c-3.12,3.1-3.15,8.14-0.05,11.27
			C209.54,282.03,209.55,282.05,209.57,282.06z"/>
		<path class="st1" d="M348.38,254.81c-3.1-3.12-8.14-3.15-11.27-0.05c-0.02,0.02-0.03,0.03-0.05,0.05L217.54,374.34
			c-8.06-15.92-24.31-26.03-42.15-26.22c-10.12,0.03-19.96,3.33-28.05,9.4c-53.51-19.61-81-78.88-61.4-132.4
			c1.59-4.33,3.46-8.55,5.62-12.63h3.98c10.41-0.01,20.6-2.97,29.4-8.53l25.26,25.26c4.55,4.61,10.74,7.24,17.21,7.33
			c6.52-0.01,12.78-2.55,17.45-7.09l46.86-46.94c9.47-9.62,9.47-25.05,0-34.66L103.03,18.77c-9.61-9.56-25.14-9.56-34.74,0l0,0
			L55.85,7.06C41.57-4.19,20.88-1.73,9.63,12.55c-9.41,11.95-9.41,28.79,0,40.73l11.95,11.87l0,0c-9.56,9.61-9.56,25.14,0,34.74
			l27.01,26.93c-3.27,5.28-5.61,11.07-6.93,17.13c-64.25,78.21-52.94,193.71,25.28,257.96c4.28,3.51,8.71,6.83,13.29,9.95H39.91
			c-13.2,0-23.91,10.7-23.91,23.91v23.91c0,8.8,7.14,15.94,15.94,15.94h286.87c8.8,0,15.94-7.14,15.94-15.94v-23.91
			c0-13.2-10.7-23.91-23.91-23.91H220.4c1.85-5.11,2.8-10.5,2.79-15.94c0.08-1.49,0.08-2.98,0-4.46l125.19-125.35
			c3.12-3.1,3.15-8.14,0.05-11.27C348.41,254.84,348.4,254.82,348.38,254.81z M175.38,364.06c17.6,0,31.87,14.27,31.87,31.87
			c0,6.9-2.24,13.61-6.37,19.12l6.37,4.78l0,0l-6.45-4.78c-10.62,14.04-30.61,16.81-44.65,6.19c-7.93-6-12.61-15.37-12.64-25.31
			C143.51,378.33,157.78,364.06,175.38,364.06z M88.2,196c-18.77-3.59-32.35-20.01-32.35-39.13c-0.02-2.22,0.2-4.44,0.64-6.61
			c1.05-6.86,3.95-13.3,8.37-18.65c13.62-17.28,38.68-20.24,55.96-6.62s20.24,38.68,6.62,55.96c-1.88,2.38-4.03,4.54-6.4,6.44
			C111.98,195.12,99.89,198.29,88.2,196z M32.66,77.19l47.1-47.1c3.31-3.34,8.71-3.37,12.06-0.05c0.02,0.02,0.04,0.04,0.05,0.05
			L220.64,159.1c3.34,3.31,3.37,8.71,0.05,12.06c-0.02,0.02-0.04,0.04-0.05,0.05l-46.78,46.86c-3.38,3.33-8.81,3.33-12.19,0
			l-24.3-23.91c20.04-23.4,17.31-58.61-6.09-78.65c-20.88-17.88-51.68-17.88-72.57,0L32.66,89.14C29.4,85.82,29.4,80.5,32.66,77.19z
			 M16.01,260.47c0.09-31.6,9.09-62.54,25.98-89.25c4.49,17.2,16.97,31.2,33.55,37.61c-28.45,59.57-3.22,130.92,56.35,159.38
			c1.21,0.58,2.43,1.14,3.66,1.67c-5.13,7.73-7.9,16.78-7.97,26.06c0.04,5.43,0.98,10.82,2.79,15.94h-18.17
			C53.5,384.3,16.03,325.31,16.01,260.47z M318.82,435.78v23.91H31.94v-23.91c0-4.4,3.57-7.97,7.97-7.97h99.85
			c17.66,19.63,47.89,21.22,67.52,3.56c1.25-1.12,2.44-2.31,3.56-3.56h100.01C315.25,427.81,318.82,431.38,318.82,435.78z"/>
	</g>
</g>
</svg>
