<!-- Generator: Adobe Illustrator 24.1.0, SVG Export Plug-In  -->
<svg version="1.1" xmlns="http://www.w3.org/2000/svg" xmlns:xlink="http://www.w3.org/1999/xlink" x="0px" y="0px"
	 width="164.17px" height="231.81px" viewBox="0 0 164.17 231.81" style="enable-background:new 0 0 164.17 231.81;"
	 xml:space="preserve">
<style type="text/css">
	.st0{fill:none;stroke:#8494A4;stroke-width:1.234;stroke-linecap:round;stroke-miterlimit:10;}
</style>
<defs>
</defs>
<g>
	<path class="st0" d="M157.67,71.65c3.08,10.47,5.11,21.71,5.88,33.47"/>
	<path class="st0" d="M113.26,9.22c8.27,4.79,15.85,11.45,22.5,19.59"/>
	<path class="st0" d="M51.26,9.22c9.56-5.55,20.03-8.6,31.01-8.6c10.97,0,21.44,3.06,31,8.6"/>
	<path class="st0" d="M14.69,51.17c5.51-11.44,12.44-21.41,20.43-29.41"/>
	<path class="st0" d="M16.8,184.82C6.64,165.59,0.62,141.74,0.62,115.9c0-2.22,0.04-4.43,0.13-6.61"/>
	<path class="st0" d="M100.99,228.14c-6.01,1.99-12.28,3.05-18.73,3.05c-16.16,0-31.23-6.63-43.91-18.08"/>
	<path class="st0" d="M162.1,140.12c-5.14,33.96-20.87,62.37-42.07,78.02"/>
</g>
</svg>
