<!-- Generator: Adobe Illustrator 24.1.0, SVG Export Plug-In  -->
<svg version="1.1" xmlns="http://www.w3.org/2000/svg" xmlns:xlink="http://www.w3.org/1999/xlink" x="0px" y="0px" width="23.41px"
	 height="13.35px" viewBox="0 0 23.41 13.35" style="enable-background:new 0 0 23.41 13.35;" xml:space="preserve">
<defs>
</defs>
<g>
	<path d="M0.51,5.99c0.23,0.27,0.81,0.76,1.51,0.98c1.3,0.4,1.95-0.3,2.13-0.93c0.31-1.05-0.49-1.78-1.47-2.08L2.12,3.78l0.23-0.76
		L2.91,3.2c0.73,0.23,1.78,0.13,2.05-0.75C5.15,1.85,4.93,1.21,4,0.92c-0.6-0.18-1.25-0.1-1.64,0.04L2.32,0.14
		C2.8-0.02,3.64-0.08,4.45,0.17C5.92,0.62,6.31,1.7,6.03,2.6C5.8,3.37,5.14,3.88,4.12,3.93L4.11,3.95c0.86,0.46,1.4,1.38,1.08,2.42
		c-0.37,1.19-1.62,1.95-3.41,1.4C0.95,7.52,0.29,7.03,0,6.68L0.51,5.99z"/>
	<path d="M12.93,2.91l-0.2,0.67L7.4,9.37L6.35,9.05l5.26-5.6l0.01-0.02L7.97,2.3l0.26-0.84L12.93,2.91z"/>
	<path d="M16.5,5.2c-0.29,0.93-1.22,1.31-2.01,1.06c-0.89-0.27-1.29-1.14-1.05-1.94c0.26-0.89,1.15-1.34,2-1.08
		C16.38,3.53,16.74,4.42,16.5,5.2z M14.06,4.51c-0.16,0.53,0.1,1.06,0.6,1.21c0.52,0.16,1.04-0.15,1.21-0.71
		C16,4.6,15.92,3.98,15.26,3.78C14.67,3.6,14.21,4.02,14.06,4.51z"/>
	<path d="M21.17,13.32c-0.42,0.07-1.21,0.03-2.15-0.26c-2.18-0.67-3.4-2.55-2.62-5.08c0.74-2.42,2.88-3.55,5.28-2.82
		c0.96,0.3,1.51,0.69,1.73,0.91l-0.49,0.74c-0.32-0.3-0.82-0.6-1.46-0.8c-1.81-0.56-3.37,0.23-4,2.26
		c-0.58,1.89,0.14,3.44,2.02,4.02c0.61,0.19,1.27,0.25,1.73,0.18L21.17,13.32z"/>
</g>
</svg>
