<!-- Generator: Adobe Illustrator 24.1.0, SVG Export Plug-In  -->
<svg version="1.1" xmlns="http://www.w3.org/2000/svg" xmlns:xlink="http://www.w3.org/1999/xlink" x="0px" y="0px"
	 width="142.62px" height="305.94px" viewBox="0 0 142.62 305.94" style="enable-background:new 0 0 142.62 305.94;"
	 xml:space="preserve">
<style type="text/css">
	.st0{fill:#A2D9F1;stroke:#231F20;stroke-width:0.5;stroke-miterlimit:10;}
	.st1{fill:none;stroke:#231F20;stroke-width:0.5;stroke-miterlimit:10;}
	.st2{fill:#80C2DD;stroke:#231F20;stroke-width:0.5;stroke-miterlimit:10;}
	.st3{fill:none;stroke:#231F20;stroke-width:0.635;stroke-linecap:round;stroke-miterlimit:10;}
	.st4{fill:#FFFFFF;}
	.st5{fill:#C3E5F0;}
	.st6{fill:#73B5CB;}
	.st7{fill:none;stroke:#231F20;stroke-width:0.5;stroke-linecap:round;stroke-miterlimit:10;}
	.st8{fill:#FFFFFF;stroke:#231F20;stroke-width:0.5;stroke-linecap:round;stroke-miterlimit:10;}
	.st9{fill:#231F20;}
	.st10{fill:#628EC4;stroke:#231F20;stroke-width:0.5;stroke-linecap:round;stroke-miterlimit:10;}
	.st11{fill:#4E79BC;stroke:#231F20;stroke-width:0.5;stroke-linecap:round;stroke-miterlimit:10;}
</style>
<defs>
</defs>
<g>
	<g>
		<path class="st0" d="M131,260.82l2.07,5.53c0.04,0.1,0.03,0.21-0.01,0.33c0.17,0.47,8.78,23.44,8.78,23.44
			c0.13,0.35,0.2,0.71,0.21,1.07l0.32,14.45c0,0.01-0.04,0.03-0.11,0.04s-0.12,0.01-0.12,0.01l-9.83-12.55
			c-0.25-0.31-0.44-0.65-0.57-1c0,0-8.46-22.59-8.79-23.45c-0.09-0.07-0.15-0.15-0.18-0.23l-2.07-5.53"/>
		<path class="st1" d="M125.15,269.16"/>
		<path class="st1" d="M123.06,263.63"/>
		<path class="st2" d="M131.87,267.68c0-0.02,0-0.04,0-0.04s-1.95-5.2-2.06-5.5c0.87-0.45,1.34-0.93,1.19-1.32
			c-0.29-0.77-2.83-0.92-5.67-0.34s-4.91,1.68-4.63,2.45c0.17,0.44,1.09,0.68,2.36,0.69l2.05,5.47c0,0,0.28,0.5,0.93,0.03
			c0,0-2.03-5.42-2.07-5.53c0.74-0.05,1.56-0.15,2.4-0.33c1-0.2,1.91-0.47,2.65-0.77c0.1,0.26,2.07,5.52,2.07,5.52
			C131.83,268.16,131.88,267.8,131.87,267.68"/>
		<path class="st1" d="M123.06,263.63c0,0,0.3,0.26,0.91-0.03"/>
		<path class="st1" d="M129.81,262.15c0,0-0.06,0.37-0.78,0.35"/>
		<path class="st3" d="M141.95,290.39"/>
		<path class="st1" d="M125.15,269.16c-1.29-0.01-2.21-0.25-2.38-0.69"/>
		<path class="st1" d="M133.07,266.67c-0.12,0.32-0.54,0.67-1.2,1.01"/>
		
			<ellipse transform="matrix(0.9815 -0.1913 0.1913 0.9815 -47.7673 28.9073)" class="st4" cx="125.85" cy="261.88" rx="4.49" ry="1.04"/>
		<path class="st5" d="M125.57,269.28l-2.06-5.5c0,0-0.27,0.01-0.33-0.04l2,5.34C125.18,269.08,125.31,269.31,125.57,269.28z"/>
		<path class="st5" d="M129.58,262.46l2.06,5.5c0,0-0.11,0.08-0.5,0.02l-2.03-5.43C129.11,262.55,129.35,262.57,129.58,262.46z"/>
		<path class="st5" d="M121.79,263.57l2.03,5.41c0,0-0.34-0.07-0.53-0.16l-2.02-5.4C121.27,263.43,121.56,263.54,121.79,263.57z"/>
		<path class="st6" d="M124.06,263.65l2.03,5.43c0,0,0.34-0.02,0.61-0.05l-2.03-5.43C124.67,263.59,124.32,263.63,124.06,263.65z"/>
		<path class="st6" d="M129.88,262.17c0,0,0.24-0.12,0.41-0.23l2.03,5.42c0,0-0.2,0.13-0.4,0.24L129.88,262.17z"/>
		<path class="st6" d="M132.47,267.39l8.76,23.38c0.03,0.08,0.05,0.17,0.05,0.25l0.98,14.61l-0.35-14.83c0-0.1-0.02-0.19-0.06-0.29
			l-8.84-23.6C133.01,266.9,132.85,267.14,132.47,267.39z"/>
		<path class="st3" d="M141.15,291.49c0.19-0.12,0.36-0.24,0.48-0.36"/>
		<path class="st5" d="M124.44,269.17l8.76,23.37c0.03,0.07,0.07,0.15,0.11,0.22l8.92,12.88l-8.13-13.02
			c-0.04-0.06-0.06-0.12-0.09-0.18l-8.64-23.07c0,0-0.14-0.04-0.25-0.16C125.12,269.2,124.79,269.21,124.44,269.17z"/>
		<path class="st5" d="M129.91,268.51l8.78,23.43c0.01,0.04,0.03,0.08,0.03,0.12l2.43,10.62l-1.74-10.83
			c-0.01-0.06-0.02-0.11-0.04-0.17l-8.76-23.39C130.6,268.28,130.33,268.38,129.91,268.51z"/>
		<path class="st3" d="M132.7,292.99c1.02,0.26,2.8,0.22,4.72-0.17c0.89-0.18,1.7-0.42,2.38-0.67"/>
		<path class="st1" d="M126.04,269.13c0,0,2.8-0.12,5.05-1.1"/>
	</g>
	<g>
		<path class="st7" d="M130.64,259.94l-25.22-68.39c-0.14-0.37-0.11-0.78,0.07-1.13l5.96-11.62"/>
		<path class="st7" d="M86.89,187.89c0.51,1.27,6.48,0.07,13.34-2.69c6.86-2.76,12-6.02,11.49-7.29"/>
		<path class="st8" d="M120.89,263.86l-25.23-68.41c-0.13-0.37-0.36-0.69-0.67-0.93l-8.11-6.62l-4.22-12.15"/>
		<line class="st7" x1="111.72" y1="177.91" x2="107.99" y2="167.17"/>
		<path class="st7" d="M114.3,162.52c0.54,1.56-7.51,5.76-17.98,9.4s-19.39,5.31-19.93,3.76"/>
		<line class="st7" x1="76.39" y1="175.68" x2="27.55" y2="39.81"/>
		<line class="st7" x1="114.3" y1="162.52" x2="73.8" y2="40.7"/>
		
			<rect x="57.88" y="117.03" transform="matrix(0.3278 0.9448 -0.9448 0.3278 163.2282 12.6506)" class="st9" width="29.69" height="8"/>
		<path class="st7" d="M30.49,29.57"/>
		<path class="st10" d="M44.69,11.15c-2.01,0.89-4.6,1.86-7.48,2.75c-2.74,0.85-5.33,1.51-7.44,1.91c-3.05,0.59-5.12,0.65-5.3,0.06
			l-2.38-7.67c0.31,0.99,6.02,0.11,12.74-1.97c6.72-2.09,11.93-4.58,11.63-5.58l2.37,7.67C49,8.9,47.37,9.96,44.69,11.15z"/>
		<path class="st7" d="M49.42,24.42"/>
		<path class="st7" d="M41.38,27.71c-4.22,0.92-7.8,1.02-7.97,0.21l-3.64-12.11c2.11-0.4,4.69-1.06,7.44-1.91
			c2.88-0.89,5.47-1.86,7.48-2.75l4.04,13.43C48.9,25.38,45.61,26.79,41.38,27.71z"/>
		<path class="st11" d="M34.82,6.23C28.1,8.31,22.39,9.2,22.09,8.21c-0.31-0.99,4.89-3.49,11.63-5.58
			c6.72-2.09,12.43-2.96,12.74-1.97C46.76,1.65,41.55,4.15,34.82,6.23z"/>
		<path class="st7" d="M26.73,25.13"/>
		<path class="st7" d="M28.55,27.71"/>
		<path class="st7" d="M27.84,26.01c0.46-0.59,2.02-1.25,4.36-1.91"/>
		<path class="st7" d="M71.79,42.35c1.24-0.62,1.97-1.2,2.01-1.65c0.01-0.04,0-0.09-0.01-0.13c-0.12-0.49-1.11-0.71-2.81-0.67"/>
		<path class="st7" d="M52.88,24.77c0-0.01-0.01-0.03-0.01-0.03"/>
		<path class="st10" d="M67.02,27.76c-0.67,0.19-1.36,0.36-2.08,0.54c-4.38,1.04-8.2,1.51-10.23,1.31c-1-2.64-1.74-4.6-1.83-4.83
			c0.86,0.2,2.35,0.2,4.23-0.01c1.91-0.21,4.22-0.62,6.7-1.21c6.25-1.49,11.08-3.61,10.81-4.73l1.14,4.74
			C75.99,24.56,72.22,26.32,67.02,27.76z"/>
		<path class="st10" d="M71.79,42.35c-1.95,0.98-5.14,2.08-8.82,2.95c-0.73,0.18-1.45,0.34-2.15,0.48
			c-0.02-0.08-3.77-9.99-6.11-16.18c2.03,0.21,5.85-0.26,10.23-1.31c0.72-0.17,1.41-0.35,2.08-0.54l3.97,12.15L71.79,42.35z"/>
		<path class="st7" d="M120.88,263.88c0.51,1.27,3.11,1.43,5.8,0.34c2.69-1.08,4.46-2.99,3.95-4.26"/>
		<path class="st11" d="M63.8,23.55c-2.48,0.59-4.79,1-6.7,1.21c-1.88,0.21-3.37,0.21-4.23,0.01c-0.02-0.01-0.03,0-0.04-0.01
			c0.01,0,0.02-0.01,0.03-0.02c0.93-0.49,1.44-0.95,1.42-1.31c0.01-0.02,0.01-0.04,0-0.07l-0.2-0.94l0.01,0
			c1.96-0.96,5.11-2.03,8.74-2.91c6.24-1.5,11.52-1.8,11.78-0.68C74.88,19.95,70.05,22.06,63.8,23.55z"/>
		<path class="st11" d="M2.94,41.82c1.24-1.93,3.04-3.99,5.63-6.02c1.34-1.05,2.88-1.82,4.53-2.26c0,0,10.05-2.67,13.8-3.67
			c0.86-0.23,1.4-0.37,1.4-0.37c0.08-0.24,0.15-0.48,0.15-0.48c0.22-0.71,0.43-2.21-1.05-3.48c-0.37-0.32-0.9-0.41-1.37-0.27
			l-12.67,3.81c-1.18,0.35-2.31,0.87-3.32,1.57c-8.6,5.9-7.21,11.03-7.21,11.03s0.02,0.09,0.07,0.24
			C2.9,41.88,2.92,41.85,2.94,41.82"/>
		<path class="st7" d="M47.83,21.56"/>
		<path class="st7" d="M47.75,21.39c3.63-0.41,6.04-0.22,6.2,0.52l0.26,1.21c0.25,1.15-5.72,3.93-12.76,5.47
			c-4.7,1.02-8.42,0.89-10.79,0.76l-2-0.07"/>
		<path class="st7" d="M2.88,41.91c-3.24,5.26-2.58,9.78-2.58,9.78c0.43,2.38,1.86,2.03,2.66,1.62c0.36-0.18,0.59-0.54,0.65-0.93
			c1.06-6.67,4.58-10.27,7.22-12.08c1.84-1.26,3.96-1.96,6.17-2.2c9.48-1.03,16.58,5.57,16.58,5.57"/>
	</g>
</g>
</svg>
