<!-- Generator: Adobe Illustrator 24.1.0, SVG Export Plug-In  -->
<svg version="1.1" xmlns="http://www.w3.org/2000/svg" xmlns:xlink="http://www.w3.org/1999/xlink" x="0px" y="0px"
	 width="243.02px" height="422.91px" viewBox="0 0 243.02 422.91" style="enable-background:new 0 0 243.02 422.91;"
	 xml:space="preserve">
<style type="text/css">
	.st0{fill:#B3B2B2;stroke:#231F20;stroke-width:0.5;stroke-miterlimit:10;}
	.st1{fill:none;stroke:#231F20;stroke-width:0.5;stroke-miterlimit:10;}
	.st2{fill:#CFCECD;stroke:#231F20;stroke-width:0.5;stroke-miterlimit:10;}
	.st3{fill:#E9E8E8;stroke:#231F20;stroke-width:0.5;stroke-miterlimit:10;}
	.st4{fill:#E3E3E4;stroke:#231F20;stroke-width:0.5;stroke-miterlimit:10;}
	.st5{fill:#193F34;stroke:#231F20;stroke-width:0.5;stroke-miterlimit:10;}
	.st6{fill:#465C96;stroke:#231F20;stroke-width:0.5;stroke-miterlimit:10;}
	.st7{fill:#7995B2;stroke:#231F20;stroke-width:0.5;stroke-miterlimit:10;}
	.st8{fill:#367D67;stroke:#231F20;stroke-width:0.5;stroke-miterlimit:10;}
	.st9{fill:#286456;stroke:#231F20;stroke-width:0.5;stroke-miterlimit:10;}
	.st10{fill:#CDCBCB;stroke:#231F20;stroke-width:0.5;stroke-miterlimit:10;}
	.st11{fill:#CDCBCB;stroke:#CDCBCB;stroke-width:0.5;stroke-miterlimit:10;}
	.st12{fill:#929497;stroke:#231F20;stroke-width:0.2928;stroke-miterlimit:10;}
	.st13{fill:#D7D8D8;stroke:#231F20;stroke-width:0.5;stroke-miterlimit:10;}
	.st14{fill:none;stroke:#231F20;stroke-width:0.1289;stroke-miterlimit:10;}
	.st15{clip-path:url(#SVGID_4_);}
	.st16{opacity:0.9;fill:#E5F3F3;}
	.st17{fill:#F1F8F9;}
	.st18{opacity:0.61;fill:#C7C7C9;}
	.st19{fill:#020203;}
	.st20{font-family:'Bahnschrift';}
	.st21{font-size:2.0995px;}
	.st22{fill:none;stroke:#231F20;stroke-width:0.5;stroke-linecap:round;stroke-miterlimit:10;}
	.st23{fill:none;stroke:#231F20;stroke-width:0.562;stroke-linecap:round;stroke-miterlimit:10;}
	.st24{fill:#FAFAFA;stroke:#C3C5C5;stroke-width:0.937;stroke-miterlimit:10;}
	.st25{clip-path:url(#SVGID_5_);}
	.st26{clip-path:url(#SVGID_6_);}
	.st27{clip-path:url(#SVGID_8_);}
	.st28{clip-path:url(#SVGID_10_);}
	.st29{clip-path:url(#SVGID_12_);}
</style>
<defs>
</defs>
<g>
	<g>
		<polygon class="st0" points="65.84,358.82 65.84,421.55 0.34,249.55 0.34,158.55 15.04,197.19 14.81,224.82 22.71,245.56 
			22.73,245.62 		"/>
		<line class="st1" x1="65.84" y1="358.82" x2="65.84" y2="357.46"/>
		<line class="st1" x1="15.05" y1="197.2" x2="15.04" y2="197.19"/>
		<path class="st1" d="M175.79,127.29"/>
		<path class="st2" d="M242.57,320.86L65.84,358.82v62.73l176.93-38L242.57,320.86z M126.47,401.69c-2.01,0-3.87-0.65-5.38-1.74
			l-0.12-0.09l-1.82-1.33l-0.79-0.59c-2.05-1.67-3.35-4.23-3.35-7.09c0-5.07,4.11-9.19,9.19-9.19c2.45,0,4.68,0.96,6.33,2.53
			l-0.03,0.04c0.39,0.19,0.76,0.4,1.11,0.64l0.07,0.05c2.41,1.66,3.98,4.44,3.98,7.58C135.66,397.57,131.55,401.69,126.47,401.69z
			 M162.52,391.88c-2.06,0-3.73-1.67-3.73-3.73s1.67-3.73,3.73-3.73s3.73,1.67,3.73,3.73S164.58,391.88,162.52,391.88z
			 M162.52,380.62c-2.06,0-3.73-1.67-3.73-3.73s1.67-3.73,3.73-3.73s3.73,1.67,3.73,3.73S164.58,380.62,162.52,380.62z
			 M198.57,385.96c-2.17,0-4.17-0.75-5.74-2.01l-1.38-1.02c-0.39-0.24-0.75-0.5-1.09-0.8c-1.99-1.68-3.25-4.19-3.25-7
			c0-5.08,4.11-9.2,9.19-9.2c1.89,0,3.66,0.58,5.12,1.56l0.01,0.01l2.28,1.65l0.36,0.26c2.24,1.67,3.69,4.34,3.69,7.36
			C207.76,381.85,203.65,385.96,198.57,385.96z M219.86,354.49L90.19,382.66v-15.07l129.67-27.77V354.49z"/>
		<polygon class="st3" points="219.86,339.82 219.86,354.49 90.19,382.66 90.19,367.59 		"/>
		<path class="st4" d="M199.37,207.62L22.73,245.56v0.06l43.11,113.2l176.73-37.96v-0.04L199.37,207.62z M201.12,301.58
			c-7.25,23.43-42.44,33.35-78.59,22.16s-59.57-39.25-52.32-62.68s42.43-33.35,78.58-22.16
			C184.94,250.09,208.37,278.15,201.12,301.58z"/>
		<path class="st1" d="M199.33,178.49"/>
		<path class="st1" d="M177.27,120.55"/>
		<polygon class="st4" points="15.05,155.39 15.05,196.56 15.04,197.19 0.34,158.55 		"/>
		<line class="st1" x1="15.09" y1="155.38" x2="15.05" y2="155.39"/>
		<path class="st1" d="M0.33,185.32"/>
		<path class="st1" d="M191.72,158.55"/>
		<polygon class="st5" points="22.73,245.56 22.71,245.56 14.81,224.82 15.04,197.19 15.05,196.56 15.05,38.29 22.71,57.87 
			22.43,57.93 22.43,216.19 		"/>
		<path class="st1" d="M191.98,158.56"/>
		<path class="st6" d="M130.53,384.19l-0.03,0.04c-1.22-0.6-2.58-0.93-4.03-0.93c-5.08,0-9.19,4.12-9.19,9.2
			c0,2.55,1.04,4.86,2.72,6.52c-0.29-0.14-0.58-0.31-0.85-0.49l-0.79-0.59c-2.05-1.67-3.35-4.23-3.35-7.09
			c0-5.07,4.11-9.19,9.19-9.19C126.65,381.66,128.88,382.62,130.53,384.19z"/>
		<path class="st7" d="M130.5,384.23l-10.42,14.84c-0.03-0.01-0.05-0.03-0.08-0.05c-1.68-1.66-2.72-3.97-2.72-6.52
			c0-5.08,4.11-9.2,9.19-9.2C127.92,383.3,129.28,383.63,130.5,384.23z"/>
		<path class="st6" d="M189.38,376.77c0,2.56,1.04,4.87,2.73,6.54c-0.23-0.12-0.45-0.24-0.66-0.38l-1.09-0.8
			c-1.99-1.68-3.25-4.19-3.25-7c0-5.08,4.11-9.2,9.19-9.2c1.89,0,3.66,0.58,5.12,1.56l0.01,0.01c0.48,0.32,0.92,0.69,1.33,1.09
			c-1.25-0.65-2.68-1.01-4.19-1.01C193.49,367.58,189.38,371.69,189.38,376.77z"/>
		<path class="st7" d="M191.45,382.93c-0.39-0.24-0.75-0.5-1.09-0.8L191.45,382.93z"/>
		<path class="st7" d="M202.79,368.62l-10.64,14.71c-0.01-0.01-0.03-0.01-0.04-0.02c-1.69-1.67-2.73-3.98-2.73-6.54
			c0-5.08,4.11-9.19,9.19-9.19c1.51,0,2.94,0.36,4.19,1.01C202.77,368.6,202.78,368.61,202.79,368.62z"/>
		<path class="st7" d="M135.66,392.5c0,5.07-4.11,9.19-9.19,9.19c-2.01,0-3.87-0.65-5.38-1.74l-0.12-0.09
			c-0.34-0.25-0.67-0.53-0.97-0.84c-1.68-1.66-2.72-3.97-2.72-6.52c0-5.08,4.11-9.2,9.19-9.2c1.45,0,2.81,0.33,4.03,0.93
			c0.39,0.19,0.76,0.4,1.11,0.64l0.07,0.05C134.09,386.58,135.66,389.36,135.66,392.5z"/>
		<path class="st7" d="M207.76,376.77c0,5.08-4.11,9.19-9.19,9.19c-2.17,0-4.17-0.75-5.74-2.01c-0.25-0.2-0.49-0.42-0.72-0.64
			c-1.69-1.67-2.73-3.98-2.73-6.54c0-5.08,4.11-9.19,9.19-9.19c1.51,0,2.94,0.36,4.19,1.01c0.33,0.17,0.65,0.35,0.95,0.56l0.36,0.26
			C206.31,371.08,207.76,373.75,207.76,376.77z"/>
		<path class="st7" d="M166.25,376.89c0,2.06-1.67,3.73-3.73,3.73s-3.73-1.67-3.73-3.73s1.67-3.73,3.73-3.73
			S166.25,374.83,166.25,376.89z"/>
		<path class="st7" d="M166.25,388.15c0,2.06-1.67,3.73-3.73,3.73s-3.73-1.67-3.73-3.73s1.67-3.73,3.73-3.73
			S166.25,386.09,166.25,388.15z"/>
		<line class="st1" x1="131.61" y1="384.87" x2="129.45" y2="383.3"/>
		<line class="st1" x1="118.36" y1="397.94" x2="118.27" y2="397.88"/>
		<line class="st1" x1="204.16" y1="369.47" x2="204.07" y2="369.41"/>
		<line class="st1" x1="190.36" y1="382.13" x2="190.25" y2="382.05"/>
		<line class="st1" x1="22.73" y1="57.93" x2="22.71" y2="57.87"/>
		<polygon class="st8" points="199.11,19.92 22.71,57.87 15.05,38.29 191.73,0.29 		"/>
		<line class="st1" x1="22.71" y1="245.56" x2="22.43" y2="245.62"/>
		<polygon class="st9" points="199.37,178.19 199.37,207.62 22.73,245.56 22.43,216.19 22.43,57.93 22.71,57.87 199.11,19.92 		"/>
		<path class="st10" d="M148.32,238.9c-36.46-11.19-71.95-1.27-79.26,22.16s16.31,51.49,52.78,62.68s71.96,1.27,79.27-22.16
			S184.78,250.09,148.32,238.9z M180.92,275.84c2.12-2.46,5.62-2.95,7.82-1.09s2.26,5.36,0.13,7.83c-2.12,2.46-5.62,2.95-7.82,1.09
			C178.85,281.81,178.79,278.31,180.92,275.84z M166.86,262.5c1.53-2.87,4.84-4.1,7.39-2.76c2.55,1.34,3.38,4.75,1.85,7.62
			c-1.53,2.86-4.84,4.09-7.39,2.75C166.15,268.77,165.33,265.36,166.86,262.5z M151.16,252.61c1.53-2.86,4.84-4.09,7.39-2.75
			c2.55,1.34,3.38,4.75,1.85,7.61c-1.53,2.86-4.84,4.1-7.39,2.75C150.46,258.88,149.63,255.47,151.16,252.61z M132.16,247.52
			c0.65-3.18,3.46-5.3,6.29-4.73c2.83,0.56,4.61,3.59,3.96,6.77c-0.65,3.18-3.46,5.3-6.29,4.73
			C133.29,253.73,131.53,250.7,132.16,247.52z M115.99,239.75c2.88-0.1,5.33,2.44,5.45,5.68c0.11,3.24-2.13,5.95-5.01,6.05
			c-2.89,0.1-5.33-2.44-5.44-5.68C110.87,242.56,113.11,239.86,115.99,239.75z M93.04,244.96c2.71-0.98,5.82,0.7,6.94,3.74
			c1.12,3.04-0.17,6.31-2.88,7.29c-2.71,0.98-5.82-0.69-6.94-3.74C89.04,249.21,90.33,245.94,93.04,244.96z M73.73,266.32
			c-1.51-2.87-0.67-6.28,1.9-7.6c2.55-1.33,5.86-0.08,7.37,2.79c1.51,2.88,0.67,6.28-1.89,7.61
			C78.55,270.44,75.24,269.19,73.73,266.32z M120.23,322.79c-26.62-8.17-43.87-28.65-38.52-45.76c5.34-17.1,31.24-24.34,57.86-16.17
			c26.62,8.16,43.87,28.65,38.53,45.75C172.76,323.72,146.85,330.96,120.23,322.79z M184.37,319.33c-3.02,1.27-6.36,0.16-7.49-2.48
			c-1.13-2.63,0.4-5.8,3.41-7.06c3.01-1.27,6.36-0.16,7.49,2.48C188.9,314.9,187.38,318.07,184.37,319.33z M192.26,301.81
			c-3.02,1.26-6.37,0.15-7.49-2.49c-1.13-2.63,0.4-5.79,3.41-7.06c3.01-1.27,6.36-0.15,7.49,2.48
			C196.79,297.38,195.27,300.54,192.26,301.81z"/>
		<path class="st1" d="M82.16,269.12c-2.54,1.32-5.82,0.07-7.32-2.8s-0.66-6.28,1.88-7.6c2.53-1.33,5.81-0.08,7.31,2.79
			C85.53,264.39,84.69,267.79,82.16,269.12z"/>
		<path class="st1" d="M91.13,252.25c-1.11-3.04,0.17-6.31,2.86-7.29c2.69-0.98,5.77,0.7,6.88,3.74c1.11,3.04-0.17,6.31-2.86,7.29
			S92.24,255.3,91.13,252.25z"/>
		<path class="st1" d="M111.78,245.8c-0.12-3.24,2.1-5.94,4.96-6.05c2.86-0.1,5.28,2.44,5.4,5.68c0.11,3.24-2.11,5.95-4.97,6.05
			C114.31,251.58,111.89,249.04,111.78,245.8z"/>
		<path class="st1" d="M132.77,247.52c0.64-3.18,3.43-5.3,6.24-4.73c2.81,0.56,4.57,3.59,3.93,6.77c-0.64,3.18-3.43,5.3-6.24,4.73
			C133.89,253.73,132.14,250.7,132.77,247.52z"/>
		<path class="st1" d="M151.61,252.61c1.52-2.86,4.8-4.09,7.33-2.75c2.53,1.34,3.35,4.75,1.83,7.61c-1.52,2.86-4.8,4.1-7.33,2.75
			C150.91,258.88,150.09,255.47,151.61,252.61z"/>
		<path class="st1" d="M167.17,262.5c1.52-2.87,4.8-4.1,7.33-2.76c2.53,1.34,3.35,4.75,1.83,7.62c-1.52,2.86-4.8,4.09-7.33,2.75
			C166.47,268.77,165.65,265.36,167.17,262.5z"/>
		<path class="st1" d="M187.91,312.27c1.11,2.63-0.4,5.8-3.38,7.06c-2.99,1.27-6.31,0.16-7.43-2.48c-1.12-2.63,0.4-5.8,3.38-7.06
			C183.46,308.52,186.79,309.63,187.91,312.27z"/>
		<path class="st1" d="M181.24,283.67c-2.18-1.86-2.24-5.36-0.13-7.83c2.1-2.46,5.57-2.95,7.75-1.09s2.24,5.36,0.13,7.83
			C186.89,285.04,183.42,285.53,181.24,283.67z"/>
		<path class="st1" d="M192.35,301.81c-2.99,1.26-6.31,0.15-7.43-2.49c-1.12-2.63,0.4-5.79,3.38-7.06c2.98-1.27,6.31-0.15,7.43,2.48
			C196.84,297.38,195.33,300.54,192.35,301.81z"/>
		<path class="st4" d="M139.48,260.86c-26.39-8.17-52.07-0.93-57.36,16.17c-5.3,17.11,11.8,37.59,38.19,45.76
			c26.39,8.17,52.08,0.93,57.37-16.18C182.97,289.51,165.87,269.02,139.48,260.86z M148.06,290.56l-0.09,0.49l-0.01,0.05l-0.92,4.78
			c-0.05,0.38-0.15,0.79-0.27,1.17c-1.87,6.04-10.94,8.59-20.26,5.71c-9.06-2.81-15.03-9.73-13.62-15.67
			c0.27-1.36,0.83-4.34,0.92-4.8c0.01-0.04,0.01-0.06,0.01-0.06c0.06-0.36,0.14-0.71,0.25-1.06c1.87-6.04,10.94-8.6,20.26-5.71
			C143.11,278.17,148.99,284.75,148.06,290.56z"/>
		<path class="st10" d="M148.59,291.1l-0.92,4.78c-0.05,0.38-0.15,0.79-0.27,1.17c-1.87,6.04-10.94,8.59-20.26,5.71
			c-9.06-2.81-15.03-9.73-13.62-15.67c0.27-1.36,0.83-4.34,0.92-4.8c-0.86,5.79,5,12.33,13.75,15.04
			c9.32,2.88,18.39,0.32,20.26-5.72C148.5,291.44,148.55,291.27,148.59,291.1z"/>
		<path class="st11" d="M82.69,270.6c-3.26,1.67-7.48,0.09-9.41-3.54s-0.85-7.93,2.42-9.6c3.25-1.68,7.47-0.1,9.39,3.52
			C87.02,264.63,85.94,268.92,82.69,270.6z"/>
		<path class="st12" d="M98.01,255.99c-2.69,0.98-5.77-0.69-6.88-3.74c-1.11-3.04,0.17-6.31,2.86-7.29c2.69-0.98,5.77,0.7,6.88,3.74
			C101.98,251.74,100.7,255.01,98.01,255.99z"/>
		<path class="st12" d="M122.14,245.43c0.11,3.24-2.11,5.95-4.97,6.05c-2.86,0.1-5.28-2.44-5.39-5.68c-0.12-3.24,2.1-5.94,4.96-6.05
			C119.6,239.65,122.02,242.19,122.14,245.43z"/>
		<path class="st12" d="M142.94,249.56c-0.64,3.18-3.43,5.3-6.24,4.73c-2.81-0.56-4.56-3.59-3.93-6.77c0.64-3.18,3.43-5.3,6.24-4.73
			C141.82,243.35,143.58,246.38,142.94,249.56z"/>
		<path class="st12" d="M160.77,257.47c-1.52,2.86-4.8,4.1-7.33,2.75c-2.53-1.34-3.35-4.75-1.83-7.61s4.8-4.09,7.33-2.75
			C161.47,251.2,162.29,254.61,160.77,257.47z"/>
		<path class="st12" d="M176.33,267.36c-1.52,2.86-4.8,4.09-7.33,2.75c-2.53-1.34-3.35-4.75-1.83-7.61c1.52-2.87,4.8-4.1,7.33-2.76
			C177.03,261.08,177.85,264.49,176.33,267.36z"/>
		<path class="st12" d="M188.99,282.58c-2.1,2.46-5.57,2.95-7.75,1.09c-2.18-1.86-2.24-5.36-0.13-7.83c2.1-2.46,5.57-2.95,7.75-1.09
			S191.1,280.11,188.99,282.58z"/>
		<path class="st12" d="M192.35,301.81c-2.99,1.26-6.31,0.15-7.43-2.49c-1.12-2.63,0.4-5.79,3.38-7.06
			c2.98-1.27,6.31-0.15,7.43,2.48C196.84,297.38,195.33,300.54,192.35,301.81z"/>
		<path class="st12" d="M184.53,319.33c-2.99,1.27-6.31,0.16-7.43-2.48c-1.12-2.63,0.4-5.8,3.38-7.06c2.98-1.27,6.31-0.16,7.43,2.48
			C189.02,314.9,187.51,318.07,184.53,319.33z"/>
		<path class="st13" d="M148.69,290.56l-0.09,0.49l-0.01,0.05c-0.04,0.17-0.09,0.34-0.14,0.51c-1.87,6.04-10.94,8.6-20.26,5.72
			c-8.75-2.71-14.61-9.25-13.75-15.04c0.01-0.04,0.01-0.06,0.01-0.06c0.06-0.36,0.14-0.71,0.25-1.06c1.87-6.04,10.94-8.6,20.26-5.71
			C143.74,278.17,149.62,284.75,148.69,290.56z"/>
		<path class="st14" d="M147.74,294.81"/>
	</g>
	<g>
		<defs>
			<path id="SVGID_3_" d="M162.26,256.57c-1.27,1.34-4.07,4.28-7.4,3.92c-2.82-0.31-4.66-2.82-5.52-4
				c-6.28-8.59-6.31-30.62-6.29-34.57h26.29C169.51,225.77,170.34,248.06,162.26,256.57z"/>
		</defs>
		<clipPath id="SVGID_4_">
			<use xlink:href="#SVGID_3_"  style="overflow:visible;"/>
		</clipPath>
		<g class="st15">
			<g>
				<g>
					<path class="st16" d="M162.41,249.12c0,1.17-2.81,2.13-6.27,2.13c-3.46,0-6.27-0.95-6.27-2.13c0-1.18,2.81-2.13,6.27-2.13
						C159.6,246.99,162.41,247.95,162.41,249.12z"/>
					<path class="st16" d="M162.41,249.12v6.09c0,0.81-0.2,1.6-0.59,2.3l-5.16,9.32c-0.16,0.3-0.59,0.3-0.75,0.01l-5.54-9.59
						c-0.32-0.56-0.49-1.19-0.49-1.84v-6.28c0,1.17,2.81,2.13,6.27,2.13C159.6,251.25,162.41,250.3,162.41,249.12z"/>
				</g>
				<g>
					<path class="st17" d="M153.44,235.32v20.95c0,0.13,0.02,0.25,0.05,0.38l2.35,9.07l-1.71-9.12c-0.02-0.09-0.03-0.18-0.03-0.27
						v-20.96C154.11,235.36,153.87,235.37,153.44,235.32z"/>
					<path class="st17" d="M149.97,233.01v22.46c0,0.24,0.06,0.47,0.16,0.68l5.71,11.16l-5-11.2c-0.08-0.19-0.13-0.39-0.13-0.59
						v-22.16C150.72,233.35,150.33,233.19,149.97,233.01z"/>
					<path class="st18" d="M162.06,234.61v20.86c0,0.24-0.06,0.47-0.16,0.68l-5.71,11.16l5-11.2c0.08-0.19,0.13-0.39,0.13-0.59
						l0-20.7C161.32,234.82,161.75,234.76,162.06,234.61z"/>
					<path class="st1" d="M164.76,230.57c0,2.03-3.75,3.67-8.37,3.67s-8.37-1.64-8.37-3.67"/>
					<line class="st1" x1="148.03" y1="230.17" x2="148.03" y2="230.57"/>
					<line class="st1" x1="164.76" y1="229" x2="164.76" y2="230.57"/>
					<path class="st1" d="M149.52,232.67v22.53c0,0.91,0.24,1.79,0.69,2.58l5.4,9.32c0.31,0.54,1.09,0.53,1.39-0.02l5.07-9.26
						c0.45-0.82,0.68-1.73,0.68-2.66v-22.2"/>
					<path class="st1" d="M162.38,224.85c-1.52-0.68-3.64-1.11-5.99-1.11c-3.67,0-6.78,1.03-7.91,2.47
						c-0.02,0.03-0.06,0.05-0.1,0.05c-0.39,0-2.47,0-2.47,0v2.32h2.46c0.05,0,0.11,0.02,0.14,0.07c1.16,1.42,4.25,2.43,7.88,2.43
						c4.62,0,8.37-1.64,8.37-3.67C164.76,226.42,163.86,225.51,162.38,224.85z"/>
					<path class="st1" d="M164.76,229c0,2.03-3.75,3.67-8.37,3.67c-3.63,0-6.72-1.02-7.88-2.44c-0.03-0.04-0.08-0.06-0.13-0.06
						h-2.47v-1.58"/>
					<line class="st1" x1="164.76" y1="227.42" x2="164.76" y2="229"/>
					<ellipse class="st1" cx="156.39" cy="227.42" rx="4.76" ry="1.76"/>
					<path class="st1" d="M165.11,230.93c-0.11,0.02-0.23,0.04-0.35,0.04v-0.6c0.61,0,1.1-0.49,1.1-1.1s-0.49-1.1-1.1-1.1v-0.6
						c0.94,0,1.7,0.76,1.7,1.7C166.46,230.09,165.88,230.77,165.11,230.93z"/>
					<path class="st1" d="M164.76,228.54"/>
					<path class="st1" d="M164.07,225.88c0.72,0,1.33,0.44,1.58,1.07c0.14,0.34,0.67,1.64,0.67,1.64"/>
					<path class="st1" d="M164.76,228.42c0.08-0.07,0.15-0.14,0.21-0.23"/>
					<path class="st1" d="M166.46,229.18"/>
					<path class="st1" d="M153.29,263c0,0,0.59,0.07,1.13,0.02"/>
					<path class="st1" d="M158.11,262.96c0,0,0.5,0.05,1.04,0"/>
					<path class="st1" d="M153.92,260.41c0,0,2.23,0.26,4.19,0"/>
					<path class="st1" d="M153.92,251.8c0,0,2.23,0.26,4.19,0"/>
					<path class="st1" d="M153.92,245.17c0,0,2.23,0.26,4.19,0"/>
					<path class="st1" d="M153.92,238.73c0,0,2.23,0.26,4.19,0"/>
					<path class="st1" d="M153.3,255.11c0,0,0.59,0.08,1.13,0.05"/>
					<path class="st1" d="M157.99,255.14c0,0,0.5,0,1.03-0.09"/>
					<path class="st1" d="M153.25,248.4c0,0,0.59,0.08,1.13,0.05"/>
					<path class="st1" d="M157.95,248.43c0,0,0.5,0,1.03-0.09"/>
					<path class="st1" d="M153.15,241.91c0,0,0.59,0.08,1.13,0.05"/>
					<path class="st1" d="M157.85,241.94c0,0,0.5,0,1.03-0.09"/>
					<text transform="matrix(1 0 0 1 154.785 255.8903)" class="st19 st20 st21">0.5</text>
					<text transform="matrix(1 0 0 1 155.1571 249.1544)" class="st19 st20 st21">1.0</text>
					<text transform="matrix(1 0 0 1 154.8944 242.6374)" class="st19 st20 st21">1.5</text>
					<text transform="matrix(1 0 0 1 155.1571 264.0446)" class="st19 st20 st21">0.1</text>
					<path class="st1" d="M151.71,227.73c0.4-0.82,2.34-1.45,4.68-1.45c2.34,0,4.28,0.62,4.68,1.45"/>
					<path class="st22" d="M158.57,257.78c-0.8,0.11-1.67,0.17-2.59,0.17c-2.56,0-4.79-0.47-5.97-1.18"/>
					<path class="st22" d="M162.26,256.57c-0.47,0.36-1.21,0.68-2.13,0.91"/>
					<path class="st23" d="M161.7,255.15c-0.57-0.26-1.37-0.48-2.33-0.63"/>
					<path class="st18" d="M162.68,233.62c0,0-3.63,1.45-7.97,0.62c0,0,4.52,0.52,7.97-1.17L162.68,233.62z"/>
					<path class="st17" d="M164.09,226.84c-0.41,1.83-3.52,3.22-7.82,3.22c-4,0-6.75-1.52-7.58-3.17c0.22,1.94,3.63,3.59,8.11,3.59
						C161.11,230.49,163.74,228.72,164.09,226.84"/>
				</g>
			</g>
			<g>
				<path class="st24" d="M162.81,239.29v5.84c0,0.65-2.96,1.18-6.62,1.18c-3.65,0-6.62-0.53-6.62-1.18v-5.84
					c0,0.65,2.97,1.18,6.62,1.18C159.84,240.47,162.81,239.95,162.81,239.29z"/>
			</g>
		</g>
	</g>
	<g>
		<defs>
			<path id="SVGID_2_" d="M85.04,297.03c-3.36,1.13-7.38-2.68-8.75-3.97c-8.7-8.22-12.7-24.63-6.09-32
				c0.73-0.81,1.44-1.35,1.86-1.64c7,0,14,0,20.99,0c-0.13,4.16-0.9,25.36-4.68,33.91C87.68,294.91,86.69,296.48,85.04,297.03z"/>
		</defs>
		<clipPath id="SVGID_5_">
			<use xlink:href="#SVGID_2_"  style="overflow:visible;"/>
		</clipPath>
		<g class="st25">
			<g>
				<g>
					<path class="st16" d="M87.3,284.82c0,1.17-2.81,2.13-6.27,2.13c-3.46,0-6.27-0.95-6.27-2.13c0-1.18,2.81-2.13,6.27-2.13
						C84.49,282.69,87.3,283.65,87.3,284.82z"/>
					<path class="st16" d="M87.3,284.82v6.09c0,0.81-0.2,1.6-0.59,2.3l-5.16,9.32c-0.16,0.3-0.59,0.3-0.75,0.01l-5.54-9.59
						c-0.32-0.56-0.49-1.19-0.49-1.84v-6.28c0,1.17,2.81,2.13,6.27,2.13C84.49,286.95,87.3,286,87.3,284.82z"/>
				</g>
				<g>
					<path class="st17" d="M78.33,271.02v20.95c0,0.13,0.02,0.25,0.05,0.38l2.35,9.07l-1.71-9.12c-0.02-0.09-0.03-0.18-0.03-0.27
						v-20.96C79,271.06,78.76,271.07,78.33,271.02z"/>
					<path class="st17" d="M74.86,268.71v22.46c0,0.24,0.06,0.47,0.16,0.68l5.71,11.16l-5-11.2c-0.08-0.19-0.13-0.39-0.13-0.59
						v-22.16C75.61,269.05,75.22,268.89,74.86,268.71z"/>
					<path class="st18" d="M86.95,270.31v20.86c0,0.24-0.06,0.47-0.16,0.68l-5.71,11.16l5-11.2c0.08-0.19,0.13-0.39,0.13-0.59
						l0-20.7C86.21,270.52,86.64,270.46,86.95,270.31z"/>
					<path class="st1" d="M89.66,266.27c0,2.03-3.75,3.67-8.37,3.67c-4.62,0-8.37-1.64-8.37-3.67"/>
					<line class="st1" x1="72.92" y1="265.87" x2="72.92" y2="266.27"/>
					<line class="st1" x1="89.66" y1="264.7" x2="89.66" y2="266.27"/>
					<path class="st1" d="M74.41,268.37v22.53c0,0.91,0.24,1.79,0.69,2.58l5.4,9.32c0.31,0.54,1.09,0.53,1.39-0.02l5.07-9.26
						c0.45-0.82,0.68-1.73,0.68-2.66v-22.2"/>
					<path class="st1" d="M87.28,260.55c-1.52-0.68-3.64-1.11-5.99-1.11c-3.67,0-6.78,1.03-7.91,2.47c-0.02,0.03-0.06,0.05-0.1,0.05
						c-0.39,0-2.47,0-2.47,0v2.32h2.46c0.05,0,0.11,0.02,0.14,0.07c1.16,1.42,4.25,2.43,7.88,2.43c4.62,0,8.37-1.64,8.37-3.67
						C89.66,262.12,88.75,261.21,87.28,260.55z"/>
					<path class="st1" d="M89.66,264.7c0,2.03-3.75,3.67-8.37,3.67c-3.63,0-6.72-1.02-7.88-2.44c-0.03-0.04-0.08-0.06-0.13-0.06
						h-2.47v-1.58"/>
					<line class="st1" x1="89.66" y1="263.12" x2="89.66" y2="264.7"/>
					<ellipse class="st1" cx="81.29" cy="263.12" rx="4.76" ry="1.76"/>
					<path class="st1" d="M90,266.63c-0.11,0.02-0.23,0.04-0.35,0.04v-0.6c0.61,0,1.1-0.49,1.1-1.1s-0.49-1.1-1.1-1.1v-0.6
						c0.94,0,1.7,0.76,1.7,1.7C91.35,265.79,90.77,266.47,90,266.63z"/>
					<path class="st1" d="M89.66,264.24"/>
					<path class="st1" d="M88.96,261.58c0.72,0,1.33,0.44,1.58,1.07c0.14,0.34,0.67,1.64,0.67,1.64"/>
					<path class="st1" d="M89.66,264.12c0.08-0.07,0.15-0.14,0.21-0.23"/>
					<path class="st1" d="M91.35,264.88"/>
					<path class="st1" d="M78.19,298.7c0,0,0.59,0.07,1.13,0.02"/>
					<path class="st1" d="M83,298.66c0,0,0.5,0.05,1.04,0"/>
					<path class="st1" d="M78.81,296.11c0,0,2.23,0.26,4.19,0"/>
					<path class="st1" d="M78.81,287.5c0,0,2.23,0.26,4.19,0"/>
					<path class="st1" d="M78.81,280.87c0,0,2.23,0.26,4.19,0"/>
					<path class="st1" d="M78.81,274.43c0,0,2.23,0.26,4.19,0"/>
					<path class="st1" d="M78.19,290.81c0,0,0.59,0.08,1.13,0.05"/>
					<path class="st1" d="M82.89,290.84c0,0,0.5,0,1.03-0.09"/>
					<path class="st1" d="M78.14,284.1c0,0,0.59,0.08,1.13,0.05"/>
					<path class="st1" d="M82.84,284.13c0,0,0.5,0,1.03-0.09"/>
					<path class="st1" d="M78.04,277.61c0,0,0.59,0.08,1.13,0.05"/>
					<path class="st1" d="M82.74,277.64c0,0,0.5,0,1.03-0.09"/>
					<text transform="matrix(1 0 0 1 79.6782 291.5901)" class="st19 st20 st21">0.5</text>
					<text transform="matrix(1 0 0 1 80.0502 284.8543)" class="st19 st20 st21">1.0</text>
					<text transform="matrix(1 0 0 1 79.7875 278.3372)" class="st19 st20 st21">1.5</text>
					<text transform="matrix(1 0 0 1 80.0502 299.7444)" class="st19 st20 st21">0.1</text>
					<path class="st1" d="M76.61,263.43c0.4-0.82,2.34-1.45,4.68-1.45c2.34,0,4.28,0.62,4.68,1.45"/>
					<path class="st22" d="M83.46,293.48c-0.8,0.11-1.67,0.17-2.59,0.17c-2.56,0-4.79-0.47-5.97-1.18"/>
					<path class="st22" d="M87.16,292.27c-0.47,0.36-1.21,0.68-2.13,0.91"/>
					<path class="st23" d="M86.59,290.85c-0.57-0.26-1.37-0.48-2.33-0.63"/>
					<path class="st18" d="M87.58,269.32c0,0-3.63,1.45-7.97,0.62c0,0,4.52,0.52,7.97-1.17L87.58,269.32z"/>
					<path class="st17" d="M88.98,262.54c-0.41,1.83-3.52,3.22-7.82,3.22c-4,0-6.75-1.52-7.58-3.17c0.22,1.94,3.63,3.59,8.11,3.59
						C86,266.19,88.63,264.42,88.98,262.54"/>
				</g>
			</g>
			<g>
				<path class="st24" d="M87.7,274.99v5.84c0,0.65-2.96,1.18-6.62,1.18c-3.65,0-6.62-0.53-6.62-1.18v-5.84
					c0,0.65,2.97,1.18,6.62,1.18C84.74,276.17,87.7,275.65,87.7,274.99z"/>
			</g>
		</g>
	</g>
	<g>
		<defs>
			<path id="SVGID_1_" d="M184.75,319.24c-3.49,0.64-6.65-2.21-7.96-3.4c-8.94-8.08-5.09-33.16-4.59-36.29h20.99
				c0.42,3.66,2.84,26.17-3.08,35.31C189.34,316.08,187.63,318.72,184.75,319.24z"/>
		</defs>
		<clipPath id="SVGID_6_">
			<use xlink:href="#SVGID_1_"  style="overflow:visible;"/>
		</clipPath>
		<g class="st26">
			<g>
				<g>
					<path class="st16" d="M189.8,308.39c0,1.17-2.81,2.13-6.27,2.13c-3.46,0-6.27-0.95-6.27-2.13c0-1.18,2.81-2.13,6.27-2.13
						C186.99,306.27,189.8,307.22,189.8,308.39z"/>
					<path class="st16" d="M189.8,308.39v6.09c0,0.81-0.2,1.6-0.59,2.3l-5.16,9.32c-0.16,0.3-0.59,0.3-0.75,0.01l-5.54-9.59
						c-0.32-0.56-0.49-1.19-0.49-1.84v-6.28c0,1.17,2.81,2.13,6.27,2.13C186.99,310.52,189.8,309.57,189.8,308.39z"/>
				</g>
				<g>
					<path class="st17" d="M180.83,294.59v20.95c0,0.13,0.02,0.25,0.05,0.38l2.35,9.07l-1.71-9.12c-0.02-0.09-0.03-0.18-0.03-0.27
						v-20.96C181.5,294.64,181.26,294.64,180.83,294.59z"/>
					<path class="st17" d="M177.36,292.28v22.46c0,0.24,0.06,0.47,0.16,0.68l5.71,11.16l-5-11.2c-0.08-0.19-0.13-0.39-0.13-0.59
						v-22.16C178.11,292.63,177.72,292.47,177.36,292.28z"/>
					<path class="st18" d="M189.45,293.88v20.86c0,0.24-0.06,0.47-0.16,0.68l-5.71,11.16l5-11.2c0.08-0.19,0.13-0.39,0.13-0.59
						l0-20.7C188.71,294.09,189.14,294.03,189.45,293.88z"/>
					<path class="st1" d="M192.16,289.85c0,2.03-3.75,3.67-8.37,3.67s-8.37-1.64-8.37-3.67"/>
					<line class="st1" x1="175.42" y1="289.45" x2="175.42" y2="289.85"/>
					<line class="st1" x1="192.16" y1="288.27" x2="192.16" y2="289.85"/>
					<path class="st1" d="M176.91,291.94v22.53c0,0.91,0.24,1.79,0.69,2.58l5.4,9.32c0.31,0.54,1.09,0.53,1.39-0.02l5.07-9.26
						c0.45-0.82,0.68-1.73,0.68-2.66v-22.2"/>
					<path class="st1" d="M189.78,284.12c-1.52-0.68-3.64-1.11-5.99-1.11c-3.67,0-6.78,1.03-7.91,2.47
						c-0.02,0.03-0.06,0.05-0.1,0.05c-0.39,0-2.47,0-2.47,0v2.32h2.46c0.05,0,0.11,0.02,0.14,0.07c1.16,1.42,4.25,2.43,7.88,2.43
						c4.62,0,8.37-1.64,8.37-3.67C192.16,285.69,191.25,284.79,189.78,284.12z"/>
					<path class="st1" d="M192.16,288.27c0,2.03-3.75,3.67-8.37,3.67c-3.63,0-6.72-1.02-7.88-2.44c-0.03-0.04-0.08-0.06-0.13-0.06
						h-2.47v-1.58"/>
					<line class="st1" x1="192.16" y1="286.69" x2="192.16" y2="288.27"/>
					<ellipse class="st1" cx="183.79" cy="286.69" rx="4.76" ry="1.76"/>
					<path class="st1" d="M192.5,290.2c-0.11,0.02-0.23,0.04-0.35,0.04v-0.6c0.61,0,1.1-0.49,1.1-1.1s-0.49-1.1-1.1-1.1v-0.6
						c0.94,0,1.7,0.76,1.7,1.7C193.85,289.36,193.27,290.04,192.5,290.2z"/>
					<path class="st1" d="M192.16,287.81"/>
					<path class="st1" d="M191.46,285.15c0.72,0,1.33,0.44,1.58,1.07c0.14,0.34,0.67,1.64,0.67,1.64"/>
					<path class="st1" d="M192.16,287.7c0.08-0.07,0.15-0.14,0.21-0.23"/>
					<path class="st1" d="M193.85,288.45"/>
					<path class="st1" d="M180.69,322.28c0,0,0.59,0.07,1.13,0.02"/>
					<path class="st1" d="M185.5,322.24c0,0,0.5,0.05,1.04,0"/>
					<path class="st1" d="M181.31,319.68c0,0,2.23,0.26,4.19,0"/>
					<path class="st1" d="M181.31,311.07c0,0,2.23,0.26,4.19,0"/>
					<path class="st1" d="M181.31,304.44c0,0,2.23,0.26,4.19,0"/>
					<path class="st1" d="M181.31,298c0,0,2.23,0.26,4.19,0"/>
					<path class="st1" d="M180.69,314.38c0,0,0.59,0.08,1.13,0.05"/>
					<path class="st1" d="M185.39,314.41c0,0,0.5,0,1.03-0.09"/>
					<path class="st1" d="M180.64,307.68c0,0,0.59,0.08,1.13,0.05"/>
					<path class="st1" d="M185.34,307.7c0,0,0.5,0,1.03-0.09"/>
					<path class="st1" d="M180.54,301.18c0,0,0.59,0.08,1.13,0.05"/>
					<path class="st1" d="M185.24,301.21c0,0,0.5,0,1.03-0.09"/>
					<text transform="matrix(1 0 0 1 182.1785 315.1624)" class="st19 st20 st21">0.5</text>
					<text transform="matrix(1 0 0 1 182.5506 308.4266)" class="st19 st20 st21">1.0</text>
					<text transform="matrix(1 0 0 1 182.2879 301.9095)" class="st19 st20 st21">1.5</text>
					<text transform="matrix(1 0 0 1 182.5506 323.3167)" class="st19 st20 st21">0.1</text>
					<path class="st1" d="M179.11,287c0.4-0.82,2.34-1.45,4.68-1.45c2.34,0,4.28,0.62,4.68,1.45"/>
					<path class="st22" d="M185.96,317.06c-0.8,0.11-1.67,0.17-2.59,0.17c-2.56,0-4.79-0.47-5.97-1.18"/>
					<path class="st22" d="M189.66,315.84c-0.47,0.36-1.21,0.68-2.13,0.91"/>
					<path class="st23" d="M189.09,314.43c-0.57-0.26-1.37-0.48-2.33-0.63"/>
					<path class="st18" d="M190.08,292.89c0,0-3.63,1.45-7.97,0.62c0,0,4.52,0.52,7.97-1.17L190.08,292.89z"/>
					<path class="st17" d="M191.48,286.12c-0.41,1.83-3.52,3.22-7.82,3.22c-4,0-6.75-1.52-7.58-3.17c0.22,1.94,3.63,3.59,8.11,3.59
						C188.5,289.76,191.13,288,191.48,286.12"/>
				</g>
			</g>
			<g>
				<path class="st24" d="M190.2,298.57v5.84c0,0.65-2.96,1.18-6.62,1.18c-3.65,0-6.62-0.53-6.62-1.18v-5.84
					c0,0.65,2.97,1.18,6.62,1.18C187.24,299.74,190.2,299.22,190.2,298.57z"/>
			</g>
		</g>
	</g>
</g>
</svg>
