<!-- Generator: Adobe Illustrator 24.1.0, SVG Export Plug-In  -->
<svg version="1.1" xmlns="http://www.w3.org/2000/svg" xmlns:xlink="http://www.w3.org/1999/xlink" x="0px" y="0px" width="28.32px"
	 height="165.88px" viewBox="0 0 28.32 165.88" style="enable-background:new 0 0 28.32 165.88;" xml:space="preserve">
<style type="text/css">
	.st0{fill:#A2D9F1;stroke:#231F20;stroke-width:0.5;stroke-miterlimit:10;}
	.st1{fill:none;stroke:#231F20;stroke-width:0.5;stroke-miterlimit:10;}
	.st2{fill:#80C2DD;stroke:#231F20;stroke-width:0.5;stroke-miterlimit:10;}
	.st3{fill:none;stroke:#231F20;stroke-width:0.635;stroke-linecap:round;stroke-miterlimit:10;}
	.st4{fill:#C3E5F0;}
	.st5{fill:#73B5CB;}
</style>
<defs>
</defs>
<g>
	<path class="st0" d="M28.07,5.31v20.24c0,0.38-0.11,0.75-0.32,1.1c0,1.71,0,85.79,0,85.79c0,1.27-0.16,2.54-0.48,3.77l-12.79,49.35
		c-0.01,0.03-0.14,0.07-0.31,0.07c-0.17,0-0.31-0.04-0.31-0.07L0.96,116.07c-0.32-1.24-0.48-2.51-0.48-3.78c0,0,0-82.65,0-85.81
		c-0.15-0.3-0.23-0.61-0.23-0.92V5.31"/>
	<path class="st1" d="M5.57,29.6"/>
	<path class="st1" d="M5.52,9.35"/>
	<path class="st2" d="M23.81,29.26c0.02-0.08,0.02-0.13,0.02-0.13s0-19.03,0-20.12c2.61-0.93,4.23-2.23,4.23-3.66
		c0-2.82-6.23-5.1-13.91-5.1S0.25,2.53,0.25,5.35c0,1.61,2.08,3.06,5.27,4v20.03c0,0,0.22,1.9,2.3,0.75c0,0,0-19.84,0-20.23
		c1.9,0.36,4.05,0.56,6.34,0.56c2.71,0,5.24-0.28,7.37-0.77c0,0.94,0,20.2,0,20.2C23.27,30.84,23.71,29.67,23.81,29.26"/>
	<path class="st1" d="M5.52,9.35c0,0,0.5,1.09,2.3,0.54"/>
	<path class="st1" d="M23.84,9.01c0,0-0.5,1.21-2.3,0.66"/>
	<path class="st3" d="M27.74,113.43"/>
	<path class="st1" d="M5.57,29.6c-3.24-0.93-5.32-2.38-5.32-4.01"/>
	<path class="st1" d="M27.77,26.64c-0.59,1.01-2,1.9-3.95,2.59"/>
	<ellipse class="st0" cx="14.16" cy="5.35" rx="11.89" ry="3.62"/>
	<path class="st4" d="M6.5,30.3V10.19c0,0-0.67-0.17-0.8-0.37v19.55C5.7,29.36,5.81,30.23,6.5,30.3z"/>
	<path class="st4" d="M22.97,9.92v20.12c0,0-0.35,0.18-1.26-0.28V9.89C21.7,9.89,22.3,10.11,22.97,9.92z"/>
	<path class="st4" d="M2.37,8.27v19.82c0,0-0.78-0.46-1.18-0.89V7.43C1.19,7.43,1.84,8,2.37,8.27z"/>
	<path class="st5" d="M8.01,10.11v19.87c0,0,0.87,0.17,1.57,0.25l0.02-19.88C9.59,10.34,8.67,10.24,8.01,10.11z"/>
	<path class="st5" d="M24.01,9.13c0,0,0.71-0.24,1.24-0.51v19.82c0,0-0.62,0.3-1.24,0.52L24.01,9.13z"/>
	<path class="st5" d="M25.58,28.67l0,85.55c0,0.3-0.03,0.6-0.1,0.89L14.2,165.45l13.07-50.66c0.09-0.33,0.13-0.68,0.13-1.02V27.4
		C27.4,27.4,26.77,28.09,25.58,28.67z"/>
	<path class="st3" d="M24.71,116.64c0.6-0.28,1.12-0.58,1.56-0.9"/>
	<path class="st4" d="M3.76,29.15v85.51c0,0.27,0.03,0.54,0.08,0.81l10.27,49.97l-8.16-49.91c-0.04-0.22-0.05-0.44-0.05-0.66V30.44
		c0,0-0.31-0.22-0.48-0.71C5.43,29.74,4.6,29.54,3.76,29.15z"/>
	<path class="st4" d="M18.11,30.69v85.75c0,0.14-0.01,0.28-0.02,0.42l-3.88,37.8l5.81-38.03c0.03-0.2,0.05-0.4,0.05-0.61v-85.6
		C20.06,30.42,19.3,30.56,18.11,30.69z"/>
	<path class="st3" d="M2.1,115.85c2.3,1.6,6.82,2.69,12.01,2.69c2.4,0,4.65-0.23,6.61-0.64"/>
	<path class="st1" d="M7.82,30.12c0,0,7.14,1.53,13.71-0.25"/>
</g>
</svg>
