<!-- Generator: Adobe Illustrator 24.1.0, SVG Export Plug-In  -->
<svg version="1.1" xmlns="http://www.w3.org/2000/svg" xmlns:xlink="http://www.w3.org/1999/xlink" x="0px" y="0px" width="10.93px"
	 height="48.99px" viewBox="0 0 10.93 48.99" style="enable-background:new 0 0 10.93 48.99;" xml:space="preserve">
<style type="text/css">
	.st0{fill:#A2D9F1;stroke:#231F20;stroke-width:0.5;stroke-miterlimit:10;}
	.st1{fill:none;stroke:#231F20;stroke-width:0.5;stroke-miterlimit:10;}
	.st2{fill:#80C2DD;stroke:#231F20;stroke-width:0.5;stroke-miterlimit:10;}
	.st3{fill:none;stroke:#231F20;stroke-width:0.635;stroke-linecap:round;stroke-miterlimit:10;}
	.st4{fill:#FFFFFF;}
	.st5{fill:#C3E5F0;}
	.st6{fill:#73B5CB;}
</style>
<defs>
</defs>
<g>
	<path class="st0" d="M10.68,2.8L10.66,8.7c0,0.11-0.04,0.21-0.12,0.3c0,0.5-0.12,25.04-0.12,25.04c0,0.37-0.06,0.73-0.18,1.07
		L5.4,48.73c0,0.01-0.05,0.01-0.12,0c-0.06-0.01-0.11-0.03-0.12-0.04L0.43,33.47c-0.12-0.38-0.18-0.76-0.18-1.13
		c0,0,0.11-24.12,0.12-25.04C0.31,7.2,0.28,7.1,0.28,7.01L0.31,1.1"/>
	<path class="st1" d="M2.26,8.52"/>
	<path class="st1" d="M2.27,2.6"/>
	<path class="st2" d="M9.06,9.53C9.07,9.5,9.07,9.49,9.07,9.49S9.1,3.94,9.1,3.62c0.97-0.11,1.58-0.39,1.58-0.81
		c0-0.82-2.32-1.87-5.18-2.33S0.31,0.29,0.31,1.12c0,0.47,0.77,1.02,1.96,1.49L2.24,8.45c0,0,0.08,0.57,0.86,0.36
		c0,0,0.03-5.79,0.03-5.9c0.71,0.22,1.51,0.41,2.36,0.55C6.5,3.61,7.44,3.69,8.24,3.67c0,0.27-0.03,5.9-0.03,5.9
		C8.86,9.96,9.03,9.64,9.06,9.53"/>
	<path class="st1" d="M2.27,2.6c0,0,0.18,0.35,0.86,0.3"/>
	<path class="st1" d="M9.1,3.62c0,0-0.19,0.32-0.86,0.05"/>
	<path class="st3" d="M10.41,34.33"/>
	<path class="st1" d="M2.26,8.52C1.05,8.05,0.28,7.5,0.28,7.02"/>
	<path class="st1" d="M10.54,9C10.32,9.26,9.8,9.44,9.07,9.52"/>
	<ellipse transform="matrix(0.1699 -0.9855 0.9855 0.1699 2.6291 7.045)" class="st4" cx="5.5" cy="1.96" rx="1.04" ry="4.49"/>
	<path class="st5" d="M2.61,8.78l0.03-5.87c0,0-0.25-0.09-0.3-0.16l-0.03,5.7C2.31,8.46,2.35,8.71,2.61,8.78z"/>
	<path class="st5" d="M8.77,3.83L8.75,9.7c0,0-0.13,0.03-0.47-0.16L8.3,3.75C8.3,3.75,8.52,3.85,8.77,3.83z"/>
	<path class="st5" d="M1.1,2.1L1.07,7.88c0,0-0.29-0.18-0.44-0.33l0.03-5.77C0.66,1.78,0.9,1.99,1.1,2.1z"/>
	<path class="st6" d="M3.19,2.98l-0.03,5.8c0,0,0.32,0.1,0.58,0.17l0.03-5.8C3.79,3.14,3.44,3.06,3.19,2.98z"/>
	<path class="st6" d="M9.16,3.66c0,0,0.26-0.03,0.46-0.07L9.6,9.38c0,0-0.23,0.05-0.46,0.08L9.16,3.66z"/>
	<path class="st6" d="M9.72,9.46L9.61,34.43c0,0.09-0.01,0.17-0.04,0.25l-4.27,14l4.94-13.99c0.03-0.09,0.05-0.19,0.05-0.29
		L10.4,9.2C10.4,9.2,10.17,9.37,9.72,9.46z"/>
	<path class="st3" d="M9.28,35.08c0.22-0.04,0.42-0.1,0.58-0.17"/>
	<path class="st5" d="M1.59,8.28L1.47,33.23c0,0.08,0.01,0.16,0.03,0.24l3.76,15.21L2.29,33.62c-0.01-0.07-0.02-0.13-0.02-0.2
		L2.39,8.78c0,0-0.12-0.08-0.18-0.24C2.21,8.55,1.9,8.44,1.59,8.28z"/>
	<path class="st5" d="M6.93,9.6L6.82,34.62c0,0.04,0,0.08-0.01,0.12l-1.5,10.8l2.22-10.74c0.01-0.06,0.02-0.11,0.02-0.17L7.66,9.64
		C7.66,9.64,7.38,9.63,6.93,9.6z"/>
	<path class="st3" d="M0.85,33.47c0.86,0.61,2.54,1.2,4.47,1.51c0.89,0.15,1.74,0.22,2.47,0.22"/>
	<path class="st1" d="M3.1,8.81c0,0,2.66,0.88,5.11,0.76"/>
</g>
</svg>
