<!-- Generator: Adobe Illustrator 24.1.0, SVG Export Plug-In  -->
<svg version="1.1" xmlns="http://www.w3.org/2000/svg" xmlns:xlink="http://www.w3.org/1999/xlink" x="0px" y="0px" width="297.5px"
	 height="219.14px" viewBox="0 0 297.5 219.14" style="enable-background:new 0 0 297.5 219.14;" xml:space="preserve">
<style type="text/css">
	.st0{fill:none;stroke:#2B2523;stroke-width:0.2612;stroke-miterlimit:10;}
	.st1{fill:#DBD9D5;stroke:#2B2523;stroke-width:0.331;stroke-miterlimit:10;}
	.st2{fill:#EBE7E3;stroke:#2B2523;stroke-width:0.331;stroke-miterlimit:10;}
	.st3{opacity:0.58;fill:#A9C1CB;}
	.st4{opacity:0.9;fill:#EEF7F8;}
	.st5{fill:none;stroke:#2B2523;stroke-width:0.2073;stroke-linecap:round;stroke-miterlimit:10;}
	.st6{fill:#F7FCFD;}
	.st7{fill:none;stroke:#2B2523;stroke-width:0.2073;stroke-miterlimit:10;}
	.st8{fill:#E9C289;stroke:#2B2523;stroke-width:0.2073;stroke-miterlimit:10;}
	.st9{fill:#EEB066;stroke:#2B2523;stroke-width:0.2084;stroke-miterlimit:10;}
	.st10{fill:#EEB066;stroke:#2B2523;stroke-width:0.2073;stroke-miterlimit:10;}
	.st11{fill:#D0CED0;}
	.st12{fill:none;stroke:#2B2523;stroke-width:0.233;stroke-linecap:round;stroke-miterlimit:10;}
	.st13{opacity:0.61;fill:#D0CED0;}
	.st14{fill:#FCFCFD;stroke:#CCCCCC;stroke-width:0.3902;stroke-miterlimit:10;}
	.st15{fill:#DAE3EF;stroke:#2B2523;stroke-width:0.331;stroke-miterlimit:10;}
	.st16{fill:#E4E4E5;stroke:#2B2523;stroke-width:0.171;stroke-miterlimit:10;}
	.st17{fill:#203A57;stroke:#2B2523;stroke-width:0.2824;stroke-miterlimit:10;}
	.st18{fill:#314D6F;stroke:#2B2523;stroke-width:0.2824;stroke-miterlimit:10;}
	.st19{fill:#F7F1ED;stroke:#2B2523;stroke-width:0.331;stroke-miterlimit:10;}
	.st20{fill:#676363;}
	.st21{opacity:0.5;fill:#F8FCFF;stroke:#817D7B;stroke-width:0.3305;stroke-miterlimit:10;}
</style>
<defs>
</defs>
<path class="st0" d="M115.69,107.28c-0.02,0.03-0.03,0.05-0.04,0.07"/>
<g>
	<polygon class="st1" points="0.45,81.91 0.45,182.22 50.1,218.81 50.1,118.51 	"/>
	<polygon class="st1" points="243.54,63.42 243.54,96.52 283.42,92.8 	"/>
	<polygon class="st2" points="14.29,84.79 54.37,114.15 243.54,96.52 243.54,63.42 	"/>
	<g>
		<polygon class="st3" points="258.28,95.29 243.7,96.65 243.7,84.61 		"/>
		<polygon class="st3" points="243.7,84.61 243.7,96.65 54.53,114.28 39.76,103.45 243.51,84.46 		"/>
	</g>
	<g>
		<path class="st4" d="M191.84,99.78c0,1.85-4.44,3.36-9.9,3.36c-5.47,0-9.91-1.5-9.91-3.36c0-1.86,4.44-3.36,9.91-3.36
			C187.41,96.42,191.84,97.92,191.84,99.78z"/>
		<path class="st4" d="M191.84,99.78v9.61c0,1.27-0.32,2.52-0.94,3.64l-8.16,14.72c-0.25,0.48-0.93,0.48-1.19,0.01l-8.75-15.15
			c-0.51-0.88-0.78-1.88-0.78-2.9v-9.92c0,1.85,4.44,3.36,9.91,3.36C187.41,103.13,191.84,101.63,191.84,99.78z"/>
	</g>
	<g>
		<path class="st4" d="M164.4,102.35c0,1.85-4.44,3.36-9.9,3.36c-5.47,0-9.91-1.5-9.91-3.36c0-1.86,4.44-3.36,9.91-3.36
			C159.97,98.99,164.4,100.5,164.4,102.35z"/>
		<path class="st4" d="M164.4,102.35v9.61c0,1.27-0.32,2.52-0.94,3.64l-8.16,14.72c-0.25,0.48-0.93,0.48-1.19,0.01l-8.75-15.15
			c-0.51-0.88-0.78-1.88-0.78-2.9v-9.92c0,1.85,4.44,3.36,9.91,3.36C159.97,105.71,164.4,104.21,164.4,102.35z"/>
	</g>
	<g>
		<path class="st4" d="M137.18,104.97c0,1.85-4.44,3.36-9.9,3.36c-5.47,0-9.91-1.5-9.91-3.36c0-1.86,4.44-3.36,9.91-3.36
			C132.75,101.6,137.18,103.11,137.18,104.97z"/>
		<path class="st4" d="M137.18,104.97v9.61c0,1.27-0.32,2.52-0.94,3.64l-8.16,14.72c-0.25,0.48-0.93,0.48-1.19,0.01l-8.75-15.15
			c-0.51-0.88-0.78-1.88-0.78-2.9v-9.92c0,1.85,4.44,3.36,9.91,3.36C132.75,108.32,137.18,106.82,137.18,104.97z"/>
	</g>
	<path class="st5" d="M131.13,118.65c-1.26,0.17-2.64,0.27-4.09,0.27c-4.04,0-7.57-0.75-9.43-1.86"/>
	<path class="st6" d="M117.54,107.53v10.69c0,0.37,0.09,0.74,0.26,1.07l9.4,14.52l-8.27-14.58c-0.13-0.29-0.2-0.61-0.2-0.94
		l-0.03-10.88"/>
	<path class="st7" d="M116.83,107.6v6.97c0,1.43,0.38,2.83,1.09,4.07l8.52,14.72c0.49,0.85,1.73,0.84,2.2-0.03l8-14.62
		c0.71-1.29,1.07-2.73,1.07-4.2v-8.55"/>
	<text transform="matrix(1 0 0 1 127.2798 106.727)" style="fill:#13110C; font-family:'Bahnschrift'; font-size:3.3161px;">1.0</text>
	<path class="st8" d="M138.13,97.33c0,0.19-0.04,0.37-0.12,0.55c-0.8-1.77-5.29-3.12-10.72-3.12c-5.44,0-9.94,1.36-10.72,3.13
		c-0.08-0.18-0.12-0.37-0.12-0.56c0-2.03,4.86-3.68,10.85-3.68S138.13,95.3,138.13,97.33z"/>
	<path class="st8" d="M165.18,94.8c0,0.19-0.04,0.37-0.12,0.55c-0.8-1.77-5.29-3.12-10.72-3.12c-5.43,0-9.94,1.36-10.72,3.12
		c-0.08-0.18-0.12-0.36-0.12-0.56c0-2.03,4.86-3.68,10.85-3.68C160.32,91.12,165.18,92.76,165.18,94.8z"/>
	<path class="st7" d="M139.45,101.89c0,0,0-0.01-0.01-0.01v0"/>
	<path class="st7" d="M117.99,101.88c-0.01,0.02-0.02,0.04-0.03,0.06"/>
	<g>
		<polygon class="st9" points="202.88,131.89 185.42,119.55 185.17,101.34 185.16,99.66 185.16,99.64 185.11,96.24 185.02,89.21 
			184.94,83.86 200.98,98.16 200.99,98.16 201,98.17 202.67,99.66 		"/>
		<polygon class="st10" points="120.27,105.76 120.27,139.65 101.82,126.03 101.82,92.02 		"/>
		<polygon class="st8" points="203.87,97.89 204.25,131.76 202.88,131.89 202.6,99.71 121.44,107.33 121.44,139.65 120.27,139.65 
			120.27,105.76 		"/>
		<path class="st10" d="M184.97,83.84l-83.12,8.17l18.45,13.74l64.86-6.11l15.82-1.48h0.01l2.91-0.28L184.97,83.84z M138.01,97.88
			c-0.02,0.02-0.02,0.06-0.04,0.08c-0.02,0.03-0.04,0.07-0.06,0.1c-0.02,0.05-0.06,0.1-0.09,0.14c-0.04,0.06-0.08,0.1-0.13,0.16
			c-0.33,0.38-0.85,0.75-1.51,1.06c-0.15,0.08-0.32,0.14-0.48,0.21c-0.08,0.04-0.16,0.07-0.24,0.1c-0.04,0.02-0.08,0.02-0.11,0.05
			c-0.2,0.07-0.4,0.14-0.62,0.21c-0.11,0.04-0.23,0.07-0.35,0.1c-0.09,0.02-0.17,0.06-0.27,0.08c-0.1,0.02-0.18,0.05-0.28,0.07
			c-0.69,0.18-1.44,0.33-2.25,0.45c-0.14,0.02-0.29,0.04-0.44,0.06c-0.2,0.02-0.4,0.06-0.61,0.07c-0.17,0.02-0.34,0.04-0.51,0.06
			c-0.02,0-0.04,0-0.06,0.01c-0.17,0.01-0.35,0.02-0.52,0.03c-0.06,0.01-0.11,0.01-0.17,0.02c-0.21,0.01-0.43,0.02-0.65,0.03
			c-0.25,0.01-0.49,0.02-0.74,0.02h-0.3c-0.1,0.01-0.2,0.01-0.29,0.01c-5.44,0-9.94-1.36-10.73-3.13c-0.08-0.18-0.12-0.37-0.12-0.56
			c0-2.03,4.86-3.67,10.85-3.67c5.99,0,10.84,1.64,10.84,3.67C138.13,97.52,138.09,97.7,138.01,97.88z M165.06,95.36
			c-0.8,1.77-5.29,3.12-10.73,3.12c-5.43,0-9.93-1.36-10.71-3.12c-0.09-0.18-0.13-0.37-0.13-0.56c0-2.03,4.86-3.68,10.84-3.68
			c5.99,0,10.85,1.65,10.85,3.68C165.18,94.99,165.14,95.17,165.06,95.36z M181.87,96.4c-5.43,0-9.93-1.36-10.72-3.12
			c-0.09-0.18-0.13-0.37-0.13-0.56c0-2.03,4.86-3.67,10.85-3.67c1.1,0,2.15,0.06,3.14,0.16l0.1,7.03
			C184.09,96.35,183,96.4,181.87,96.4z"/>
	</g>
	<path class="st7" d="M185.11,96.24c-1.02,0.11-2.11,0.17-3.24,0.17c-5.43,0-9.93-1.36-10.72-3.12c-0.09-0.18-0.13-0.37-0.13-0.56
		c0-2.03,4.86-3.67,10.85-3.67c1.1,0,2.15,0.06,3.14,0.16L185.11,96.24z"/>
	<path class="st7" d="M192.71,92.72c0,0.19-0.04,0.37-0.12,0.56c-0.63,1.4-3.58,2.55-7.48,2.96l-0.1-7.03
		C189.47,89.66,192.71,91.06,192.71,92.72z"/>
	<path class="st7" d="M165.18,94.8c0,0.19-0.04,0.37-0.12,0.56c-0.8,1.77-5.29,3.12-10.73,3.12c-5.43,0-9.93-1.36-10.71-3.12
		c-0.09-0.18-0.13-0.37-0.13-0.56c0-2.03,4.86-3.68,10.84-3.68C160.32,91.12,165.18,92.77,165.18,94.8z"/>
	<path class="st7" d="M138.13,97.32c0,0.19-0.04,0.37-0.12,0.56c-0.02,0.02-0.02,0.06-0.04,0.08c-0.02,0.03-0.04,0.07-0.06,0.1
		c-0.02,0.05-0.06,0.1-0.09,0.14c-0.04,0.06-0.08,0.1-0.13,0.16c-0.33,0.38-0.85,0.75-1.51,1.06c-0.15,0.08-0.32,0.14-0.48,0.21
		c-0.08,0.04-0.16,0.07-0.24,0.1c-0.04,0.02-0.08,0.02-0.11,0.05c-0.2,0.07-0.4,0.14-0.62,0.21c-0.11,0.04-0.23,0.07-0.35,0.1
		c-0.09,0.02-0.17,0.06-0.27,0.08c-0.1,0.02-0.18,0.05-0.28,0.07c-0.69,0.18-1.44,0.33-2.25,0.45c-0.14,0.02-0.29,0.04-0.44,0.06
		c-0.2,0.02-0.4,0.06-0.61,0.07c-0.17,0.02-0.34,0.04-0.51,0.06c-0.02,0-0.04,0-0.06,0.01c-0.17,0.01-0.35,0.02-0.52,0.03
		c-0.06,0.01-0.11,0.01-0.17,0.02c-0.21,0.01-0.43,0.02-0.65,0.03c-0.25,0.01-0.49,0.02-0.74,0.02h-0.3
		c-0.1,0.01-0.2,0.01-0.29,0.01c-5.44,0-9.94-1.36-10.73-3.13c-0.08-0.18-0.12-0.37-0.12-0.56c0-2.03,4.86-3.67,10.85-3.67
		C133.28,93.65,138.13,95.29,138.13,97.32z"/>
	<path class="st6" d="M123.02,107.02v9.23c0,0.2,0.03,0.4,0.08,0.6l3.72,14.33l-2.7-14.41c-0.03-0.14-0.04-0.29-0.04-0.43v-9.27"/>
	<path class="st11" d="M136.64,106.08v10.41c0,0.37-0.09,0.74,0.22-0.4l-9.02,17.63l7.41-16.22c0.13-0.29,0.2-0.61,0.2-0.94l0-10.49
		"/>
	<path class="st0" d="M110.74,129.45c0,0,1.18,0.14,2.25,0.04"/>
	<path class="st0" d="M120.32,129.37c0,0,1,0.1,2.06,0"/>
	<path class="st7" d="M123.78,122.8c0,0,3.52,0.41,6.61,0"/>
	<path class="st7" d="M123.78,109.19c0,0,3.52,0.41,6.61,0"/>
	<path class="st7" d="M122.79,114.42c0,0,0.94,0.13,1.78,0.08"/>
	<path class="st7" d="M130.21,114.47c0,0,0.79,0.01,1.63-0.14"/>
	<text transform="matrix(1 0 0 1 125.1468 115.6557)" style="fill:#13110C; font-family:'Bahnschrift'; font-size:3.3161px;">0.5</text>
	<text transform="matrix(1 0 0 1 125.7342 128.5341)" style="fill:#13110C; font-family:'Bahnschrift'; font-size:3.3161px;">0.1</text>
	<path class="st5" d="M136.96,116.72c-0.75,0.57-1.91,1.07-3.37,1.44"/>
	<path class="st12" d="M136.06,114.49c-0.9-0.41-2.17-0.76-3.68-1"/>
	<path class="st8" d="M192.72,92.68c0,0.19-0.04,0.37-0.12,0.56c-0.79-1.77-5.29-3.12-10.72-3.12c-5.43,0-9.93,1.35-10.72,3.12
		c-0.08-0.18-0.12-0.36-0.12-0.56c0-2.03,4.85-3.68,10.84-3.68C187.86,89,192.72,90.65,192.72,92.68z"/>
	<path class="st7" d="M151.95,84.16c0,0,3.52,0.41,6.61,0"/>
	<path class="st5" d="M158.34,116.03c-1.26,0.17-2.64,0.27-4.09,0.27c-4.04,0-7.57-0.75-9.43-1.86"/>
	<path class="st6" d="M144.76,105.14v10.47c0,0.37,0.09,0.74,0.26,1.07l9.4,14.52l-8.27-14.58c-0.13-0.29-0.2-0.61-0.2-0.94
		l-0.03-10.66"/>
	<path class="st7" d="M144.05,105.21v6.74c0,1.43,0.38,2.83,1.09,4.07l8.52,14.72c0.49,0.85,1.73,0.84,2.2-0.03l8-14.62
		c0.71-1.29,1.07-2.73,1.07-4.2v-8.55"/>
	<path class="st6" d="M150.24,104.72v9.23c0,0.2,0.03,0.4,0.08,0.6l3.72,14.33l-2.7-14.41c-0.03-0.14-0.04-0.29-0.04-0.43
		l-0.01-9.38"/>
	<path class="st11" d="M163.86,103.47v10.41c0,0.37-0.09,0.74,0.22-0.4l-9.02,17.63l7.41-16.22c0.13-0.29,0.2-0.61,0.2-0.94l0-10.34
		"/>
	<path class="st7" d="M150.01,124.28c0,0,0.94,0.11,1.79,0.03"/>
	<path class="st7" d="M157.61,124.21c0,0,0.79,0.08,1.64,0"/>
	<path class="st7" d="M151,120.18c0,0,3.52,0.41,6.61,0"/>
	<path class="st7" d="M151,106.58c0,0,3.52,0.41,6.61,0"/>
	<path class="st7" d="M150.01,111.81c0,0,0.94,0.13,1.78,0.08"/>
	<path class="st7" d="M157.43,111.86c0,0,0.79,0.01,1.63-0.14"/>
	<text transform="matrix(1 0 0 1 152.3643 113.0429)" style="fill:#13110C; font-family:'Bahnschrift'; font-size:3.3161px;">0.5</text>
	<text transform="matrix(1 0 0 1 152.9517 125.9218)" style="fill:#13110C; font-family:'Bahnschrift'; font-size:3.3161px;">0.1</text>
	<path class="st5" d="M164.18,114.11c-0.75,0.57-1.91,1.07-3.37,1.44"/>
	<path class="st12" d="M163.28,111.88c-0.9-0.41-2.17-0.76-3.68-1"/>
	<path class="st5" d="M185.79,113.46c-1.26,0.17-2.64,0.27-4.09,0.27c-4.04,0-7.57-0.75-9.43-1.86"/>
	<path class="st6" d="M172.2,102.56v10.47c0,0.37,0.09,0.74,0.26,1.07l9.4,14.52l-8.27-14.58c-0.13-0.29-0.2-0.61-0.2-0.94
		l-0.03-10.66"/>
	<path class="st7" d="M171.49,102.63v6.74c0,1.43,0.38,2.83,1.09,4.07l8.52,14.72c0.49,0.85,1.73,0.84,2.2-0.03l8-14.62
		c0.71-1.29,1.07-2.73,1.07-4.2v-8.55"/>
	<path class="st6" d="M177.68,102.14v9.23c0,0.2,0.03,0.4,0.08,0.6l3.72,14.33l-2.7-14.41c-0.03-0.14-0.04-0.29-0.04-0.43
		l-0.01-9.38"/>
	<path class="st11" d="M191.3,100.89v10.41c0,0.37-0.09,0.74,0.22-0.4l-9.02,17.63l7.41-16.22c0.13-0.29,0.2-0.61,0.2-0.94l0-10.34"
		/>
	<path class="st7" d="M177.45,121.7c0,0,0.94,0.11,1.79,0.03"/>
	<path class="st7" d="M185.06,121.64c0,0,0.79,0.08,1.64,0"/>
	<path class="st7" d="M178.44,117.61c0,0,3.52,0.41,6.61,0"/>
	<path class="st7" d="M177.45,109.23c0,0,0.94,0.13,1.78,0.08"/>
	<path class="st7" d="M184.87,109.28c0,0,0.79,0.01,1.63-0.14"/>
	<text transform="matrix(1 0 0 1 179.8076 110.4672)" style="fill:#13110C; font-family:'Bahnschrift'; font-size:3.3161px;">0.5</text>
	<text transform="matrix(1 0 0 1 180.3951 123.3457)" style="fill:#13110C; font-family:'Bahnschrift'; font-size:3.3161px;">0.1</text>
	<path class="st5" d="M191.62,111.54c-0.75,0.57-1.91,1.07-3.37,1.44"/>
	<path class="st12" d="M190.72,109.3c-0.9-0.41-2.17-0.76-3.68-1"/>
	<path class="st6" d="M124.14,100.8V81.03c0,0-0.38,0.01-1.05-0.07v19.73"/>
	<path class="st6" d="M118.79,99.6V76.83c0,0-0.62,0.78-1.18,0.49v21.66"/>
	<path class="st13" d="M135.52,99.66l0-19.49c0,0,0.68-0.09,1.18-0.33v19.24"/>
	<line class="st7" x1="137.79" y1="98.3" x2="137.79" y2="77.24"/>
	<line class="st7" x1="116.9" y1="76.78" x2="116.9" y2="98.52"/>
	<path class="st7" d="M124.83,86.76c0,0,3.52,0.41,6.61,0"/>
	<path class="st13" d="M137.69,78.28c0,0-5.74,2.3-12.59,0.98c0,0,7.14,0.81,12.59-1.84L137.69,78.28z"/>
	<path class="st14" d="M137.85,87.56v9.27c0,1.03-4.7,1.87-10.5,1.87c-5.8,0-10.5-0.84-10.5-1.87v-9.27c0,1.03,4.71,1.87,10.5,1.87
		C133.15,89.43,137.85,88.59,137.85,87.56z"/>
	<path class="st6" d="M151.26,98.2V78.43c0,0-0.38,0.01-1.05-0.07v19.73"/>
	<path class="st6" d="M145.9,97V74.23c0,0-0.62,0.78-1.18,0.49v21.66"/>
	<path class="st11" d="M162.64,97.06l0-19.49c0,0,0.68-0.09,1.18-0.33v19.24"/>
	<path class="st6" d="M178.73,96.13V76.36c0,0-0.38,0.01-1.05-0.07v19.73"/>
	<path class="st6" d="M173.38,94.93V72.16c0,0-0.62,0.78-1.18,0.49v21.66"/>
	<path class="st13" d="M190.12,94.99l0-19.49c0,0,0.68-0.09,1.18-0.33v19.24"/>
	<path class="st7" d="M179.43,82.1c0,0,3.52,0.41,6.61,0"/>
	<path class="st14" d="M192.44,82.89v9.27c0,1.03-4.7,1.87-10.5,1.87c-5.8,0-10.5-0.84-10.5-1.87v-9.27c0,1.03,4.71,1.87,10.5,1.87
		C187.74,84.76,192.44,83.92,192.44,82.89z"/>
	<polygon class="st2" points="50.1,118.51 50.1,218.81 297.05,195.79 297.05,95.49 	"/>
	<g>
		<polygon class="st15" points="74.31,213.79 162.14,205.6 162.14,166.1 74.31,174.29 		"/>
		<polygon class="st16" points="109.84,202.26 155.2,198.03 155.2,177.63 109.84,181.86 		"/>
		<path class="st17" d="M102.27,183.78c-0.31-0.1-0.64-0.15-0.98-0.15h0c-1.79,0-3.25,1.46-3.25,3.25v0c0,1.63,1.22,2.99,2.79,3.22"
			/>
		<path class="st18" d="M98.95,187.07c0,0.89,0.36,1.71,0.95,2.29c0.43,0.43,0.97,0.74,1.58,0.87c0.23,0.05,0.46,0.08,0.71,0.08
			c1.79,0,3.25-1.46,3.25-3.24c0-0.89-0.36-1.71-0.95-2.3c-0.59-0.59-1.4-0.95-2.3-0.95c-0.89,0-1.7,0.36-2.29,0.95
			C99.32,185.36,98.95,186.17,98.95,187.07z"/>
		<line class="st18" x1="101.89" y1="183.69" x2="102.65" y2="183.85"/>
		<line class="st18" x1="101.48" y1="190.23" x2="100.63" y2="190.06"/>
		<g>
			<path class="st17" d="M102.79,196.5c-0.31-0.1-0.64-0.15-0.98-0.15h0c-1.79,0-3.25,1.46-3.25,3.25l0,0
				c0,1.63,1.22,2.99,2.79,3.22"/>
			<path class="st18" d="M99.48,199.78c0,0.89,0.36,1.71,0.95,2.29c0.43,0.43,0.97,0.74,1.58,0.87c0.23,0.05,0.46,0.08,0.71,0.08
				c1.79,0,3.25-1.46,3.25-3.24c0-0.89-0.36-1.71-0.95-2.3c-0.59-0.59-1.4-0.95-2.3-0.95c-0.89,0-1.7,0.36-2.29,0.95
				C99.84,198.07,99.48,198.89,99.48,199.78z"/>
			<line class="st18" x1="102.41" y1="196.4" x2="103.17" y2="196.56"/>
			<line class="st18" x1="102.01" y1="202.95" x2="101.16" y2="202.78"/>
		</g>
		<path class="st17" d="M89.81,191.35c-0.31-0.1-0.64-0.15-0.98-0.15h0c-1.79,0-3.25,1.46-3.25,3.25l0,0c0,1.63,1.22,2.99,2.79,3.22
			"/>
		<path class="st18" d="M86.5,194.63c0,0.89,0.36,1.71,0.95,2.29c0.43,0.43,0.97,0.74,1.58,0.87c0.23,0.05,0.46,0.08,0.71,0.08
			c1.79,0,3.25-1.46,3.25-3.24c0-0.89-0.36-1.71-0.95-2.3c-0.59-0.59-1.4-0.95-2.3-0.95c-0.89,0-1.7,0.36-2.29,0.95
			C86.86,192.92,86.5,193.74,86.5,194.63z"/>
		<line class="st18" x1="89.43" y1="191.25" x2="90.19" y2="191.41"/>
		<line class="st18" x1="89.03" y1="197.8" x2="88.18" y2="197.62"/>
	</g>
	<path class="st19" d="M0.45,81.91L50.1,118.5l246.95-23.02L247.39,58.9L0.45,81.91z M14.29,84.79l229.25-21.36l39.88,29.38
		l-39.88,3.71L54.37,114.15L14.29,84.79z"/>
	<path class="st11" d="M164.81,75.68c0,0-5.74,2.3-12.59,0.98c0,0,7.14,0.81,12.59-1.84L164.81,75.68z"/>
	<path class="st7" d="M140.97,73.47c0,3.21-5.92,5.8-13.22,5.8c-7.3,0-13.22-2.6-13.22-5.8"/>
	<line class="st7" x1="114.54" y1="72.84" x2="114.54" y2="73.47"/>
	<line class="st7" x1="140.97" y1="69.21" x2="140.97" y2="71.7"/>
	<path class="st7" d="M137.21,64.43c-2.4-1.08-5.75-1.75-9.46-1.75c-5.79,0-10.71,1.63-12.5,3.91c-0.04,0.05-0.09,0.08-0.16,0.08
		c-0.62,0-3.9,0-3.9,0v3.67h3.89c0.09,0,0.17,0.04,0.22,0.11c1.83,2.24,6.71,3.84,12.44,3.84c7.3,0,13.22-2.6,13.22-5.8
		C140.97,66.91,139.54,65.48,137.21,64.43z"/>
	<path class="st7" d="M140.97,70.98c0,3.21-5.92,5.8-13.22,5.8c-5.74,0-10.62-1.6-12.45-3.85c-0.05-0.06-0.12-0.1-0.2-0.1h-3.9v-2.5
		"/>
	<line class="st7" x1="140.97" y1="70.92" x2="140.97" y2="73.41"/>
	<ellipse class="st7" cx="127.75" cy="68.48" rx="7.51" ry="2.78"/>
	<path class="st7" d="M141.52,74.04c-0.18,0.04-0.36,0.06-0.55,0.06v-0.95c0.96,0,1.73-0.77,1.73-1.73c0-0.96-0.77-1.73-1.73-1.73
		v-0.95c1.48,0,2.68,1.2,2.68,2.68C143.65,72.7,142.74,73.78,141.52,74.04z"/>
	<path class="st7" d="M141.96,70.67"/>
	<path class="st7" d="M139.76,66.05c1.13,0,2.22,0.7,2.61,1.69c0.21,0.53,1.06,2.6,1.06,2.6"/>
	<path class="st7" d="M140.97,70.07c0.13-0.1,0.24-0.23,0.33-0.36"/>
	<path class="st7" d="M144.63,71.68"/>
	<path class="st7" d="M120.36,68.98c0.63-1.3,3.7-2.28,7.39-2.28c3.69,0,6.76,0.98,7.39,2.28"/>
	<path class="st6" d="M139.91,67.58c-0.65,2.89-5.55,5.09-12.34,5.09c-6.32,0-10.67-2.4-11.97-5c0.34,3.07,5.74,5.67,12.81,5.67
		C135.2,73.34,139.36,70.55,139.91,67.58"/>
	<path class="st7" d="M195.57,68.8c0,3.21-5.92,5.8-13.22,5.8c-5.75,0-10.65-1.61-12.46-3.87"/>
	<path class="st7" d="M169.13,68.8"/>
	<line class="st7" x1="195.57" y1="64.54" x2="195.57" y2="67.04"/>
	<line class="st7" x1="192.39" y1="93.63" x2="192.39" y2="72.57"/>
	<line class="st7" x1="171.49" y1="72.11" x2="171.49" y2="93.85"/>
	<path class="st7" d="M169.69,65.67c0.09,0,0.17,0.04,0.22,0.11c1.83,2.24,6.71,3.84,12.44,3.84c7.3,0,13.22-2.6,13.22-5.8
		c0-1.58-1.43-3.01-3.76-4.05c-2.4-1.08-5.75-1.75-9.46-1.75c-5.79,0-10.71,1.63-12.5,3.91c-0.04,0.05-0.09,0.08-0.16,0.08
		c-0.62,0-3.9,0-3.9,0v0.65"/>
	<path class="st7" d="M165.8,62.58"/>
	<path class="st7" d="M195.57,66.31c0,3.21-5.92,5.8-13.22,5.8c-5.01,0-9.37-1.22-11.61-3.03"/>
	<line class="st7" x1="195.57" y1="66.25" x2="195.57" y2="68.75"/>
	<ellipse class="st7" cx="182.35" cy="63.81" rx="7.51" ry="2.78"/>
	<path class="st7" d="M196.11,69.37c-0.18,0.04-0.36,0.06-0.55,0.06v-0.95c0.96,0,1.73-0.77,1.73-1.73s-0.77-1.73-1.73-1.73v-0.95
		c1.48,0,2.68,1.2,2.68,2.68C198.25,68.04,197.33,69.11,196.11,69.37z"/>
	<path class="st7" d="M196.55,66"/>
	<path class="st7" d="M194.47,61.38c1.13,0,2.1,0.7,2.49,1.69c0.21,0.53,1.06,2.6,1.06,2.6"/>
	<path class="st7" d="M195.57,65.41c0.13-0.1,0.24-0.23,0.33-0.36"/>
	<path class="st7" d="M199.23,67.01"/>
	<path class="st7" d="M174.96,64.31c0.63-1.3,3.7-2.28,7.39-2.28c3.69,0,6.76,0.98,7.39,2.28"/>
	<path class="st13" d="M192.28,73.61c0,0-5.74,2.3-12.59,0.98c0,0,7.14,0.81,12.59-1.84L192.28,73.61z"/>
	<path class="st6" d="M194.51,62.91c-0.65,2.89-5.55,5.09-12.34,5.09c-6.32,0-10.67-2.4-11.97-5c0.34,3.07,5.74,5.67,12.81,5.67
		C189.79,68.67,193.95,65.88,194.51,62.91"/>
	<path class="st7" d="M168.09,70.87c0,3.21-5.92,5.8-13.22,5.8c-5.34,0-9.94-1.39-12.03-3.39"/>
	<line class="st7" x1="168.09" y1="66.61" x2="168.09" y2="69.11"/>
	<path class="st7" d="M142.43,67.85c1.83,2.24,6.71,3.84,12.44,3.84c7.3,0,13.22-2.6,13.22-5.8c0-1.58-1.43-3.01-3.76-4.05
		c-2.4-1.08-5.75-1.75-9.46-1.75c-5.79,0-10.71,1.63-12.5,3.91c-0.04,0.05-0.09,0.08-0.16,0.08c-0.62,0-3.9,0-3.9,0v0.95"/>
	<line class="st7" x1="168.09" y1="68.32" x2="168.09" y2="70.81"/>
	<ellipse class="st7" cx="154.87" cy="65.88" rx="7.51" ry="2.78"/>
	<path class="st7" d="M168.64,71.44c-0.18,0.04-0.36,0.06-0.55,0.06v-0.95c0.96,0,1.73-0.77,1.73-1.73c0-0.96-0.77-1.73-1.73-1.73
		v-0.95c1.48,0,2.68,1.2,2.68,2.68C170.77,70.11,169.85,71.18,168.64,71.44z"/>
	<path class="st7" d="M169.07,68.07"/>
	<path class="st7" d="M166.88,63.45c1.13,0,2.22,0.7,2.61,1.69c0.21,0.53,1.06,2.6,1.06,2.6"/>
	<path class="st7" d="M168.09,67.48c0.13-0.1,0.24-0.23,0.33-0.36"/>
	<path class="st7" d="M171.75,69.08"/>
	<path class="st7" d="M147.48,66.38c0.63-1.3,3.7-2.28,7.39-2.28c3.69,0,6.76,0.98,7.39,2.28"/>
	<path class="st6" d="M167.03,64.98c-0.65,2.89-5.55,5.09-12.34,5.09c-6.32,0-10.67-2.4-11.97-5c0.34,3.07,5.74,5.67,12.81,5.67
		C162.31,70.74,166.47,67.95,167.03,64.98"/>
	<path class="st7" d="M168.09,68.51c0,3.21-5.92,5.8-13.22,5.8c-5.01,0-8.98-0.93-11.22-2.74"/>
	<line class="st7" x1="164.91" y1="95.7" x2="164.91" y2="74.64"/>
	<line class="st7" x1="144.01" y1="74.18" x2="144.01" y2="95.92"/>
	<path class="st14" d="M164.97,84.96v9.27c0,1.03-4.7,1.87-10.5,1.87c-5.8,0-10.5-0.84-10.5-1.87v-9.27c0,1.03,4.71,1.87,10.5,1.87
		C160.26,86.83,164.97,85.99,164.97,84.96z"/>
</g>
<g>
	<path class="st20" d="M116.57,21.26l-0.77-9.78c-0.32-3.6,2.35-6.77,5.96-7.09l49.05-4.36c3.61-0.32,6.81,2.34,7.13,5.93l0.86,9.58
		l-4.86,0.43l-0.57-7c-0.23-2.56-2.91-4.41-6-4.13l-41.84,3.72c-3.08,0.27-5.4,2.57-5.17,5.12l0.65,7.18L116.57,21.26z"/>
	<polygon class="st21" points="243.52,54.26 243.52,63.59 283.42,92.86 283.42,50.58 	"/>
	<polygon class="st21" points="243.52,21.31 283.42,50.58 263.46,7.72 	"/>
	<polygon class="st21" points="54.47,80.42 54.47,113.25 283.67,92.11 243.77,62.85 	"/>
	<polygon class="st21" points="14.29,42.59 14.29,84.87 54.21,81.17 54.21,71.72 54.21,71.72 54.2,71.71 	"/>
	<polygon class="st21" points="14.29,42.59 54.2,71.71 39.56,40.25 	"/>
	<polygon class="st21" points="54.21,71.72 54.21,81.17 243.52,63.59 243.52,54.26 	"/>
	<polygon class="st21" points="243.52,21.31 243.52,54.26 283.42,50.58 	"/>
	<polygon class="st21" points="39.56,40.25 54.2,71.71 54.21,71.72 54.21,71.72 243.52,54.26 243.52,21.31 	"/>
	<polygon class="st21" points="34.25,28.85 39.56,40.25 243.52,21.31 263.46,7.72 	"/>
	<polygon class="st21" points="14.29,84.87 54.21,113.99 54.21,81.17 	"/>
	<polyline class="st21" points="34.25,28.85 39.56,40.25 14.3,42.45 34.25,28.85 	"/>
</g>
</svg>
