<!-- Generator: Adobe Illustrator 24.1.0, SVG Export Plug-In  -->
<svg version="1.1" xmlns="http://www.w3.org/2000/svg" xmlns:xlink="http://www.w3.org/1999/xlink" x="0px" y="0px"
	 width="319.71px" height="284.22px" viewBox="0 0 319.71 284.22" style="enable-background:new 0 0 319.71 284.22;"
	 xml:space="preserve">
<style type="text/css">
	.st0{fill:#699DAC;stroke:#231F20;stroke-width:0.5;stroke-miterlimit:10;}
	.st1{fill:#AEAEAF;stroke:#231F20;stroke-width:0.5;stroke-miterlimit:10;}
	.st2{fill:#9CC1CC;stroke:#231F20;stroke-width:0.5;stroke-miterlimit:10;}
	.st3{fill:#D7D8D8;stroke:#231F20;stroke-width:0.5;stroke-miterlimit:10;}
	.st4{opacity:0.58;fill:#C2C0C0;stroke:#231F20;stroke-width:0.5;stroke-miterlimit:10;}
	.st5{fill:#88B9C9;stroke:#231F20;stroke-width:0.5;stroke-miterlimit:10;}
	.st6{fill:#C2C0C0;stroke:#231F20;stroke-width:0.5;stroke-miterlimit:10;}
	.st7{fill:#F0F8FD;stroke:#231F20;stroke-width:0.5;stroke-miterlimit:10;}
	.st8{fill:none;stroke:#231F20;stroke-width:0.5;stroke-miterlimit:10;}
	.st9{fill:#1B335B;stroke:#231F20;stroke-width:0.5;stroke-miterlimit:10;}
	.st10{fill:#3C629B;stroke:#231F20;stroke-width:0.5;stroke-miterlimit:10;}
	.st11{opacity:0.4;fill:#F0F8FD;stroke:#231F20;stroke-width:0.5;stroke-miterlimit:10;}
	.st12{opacity:0.9;fill:#EEF7F8;}
	.st13{fill:none;stroke:#2B2523;stroke-width:0.2073;stroke-linecap:round;stroke-miterlimit:10;}
	.st14{fill:#F7FCFD;}
	.st15{fill:none;stroke:#2B2523;stroke-width:0.2073;stroke-miterlimit:10;}
	.st16{fill:#E9C289;stroke:#2B2523;stroke-width:0.2073;stroke-miterlimit:10;}
	.st17{fill:#EEB066;stroke:#2B2523;stroke-width:0.2084;stroke-miterlimit:10;}
	.st18{fill:#EEB066;stroke:#2B2523;stroke-width:0.2073;stroke-miterlimit:10;}
	.st19{fill:#D0CED0;}
	.st20{fill:none;stroke:#2B2523;stroke-width:0.2612;stroke-miterlimit:10;}
	.st21{fill:none;stroke:#2B2523;stroke-width:0.233;stroke-linecap:round;stroke-miterlimit:10;}
	.st22{opacity:0.61;fill:#D0CED0;}
	.st23{fill:#FCFCFD;stroke:#CCCCCC;stroke-width:0.3902;stroke-miterlimit:10;}
</style>
<defs>
</defs>
<g>
	<polygon class="st0" points="245.85,229.22 238.02,271.92 227.68,283.75 219.85,264.92 231.52,233.25 237.52,238.25 	"/>
	<polygon class="st1" points="318.77,17.75 313.52,156.5 308.52,191.25 238.02,271.92 245.85,229.22 273.22,163.92 273.78,159.28 
		286.57,53.26 289.18,31.59 	"/>
	<path class="st2" d="M33.53,196.28l-18.01-3.36L0.85,219.59l65.33,41l56,11.33l97.67-7l11.67-31.67L33.53,196.28z M155.77,264
		l-31.75,2l-53.25-11.11l-23.25-13.14l15.5-30.32l103.5,20.07L155.77,264z"/>
	<polygon class="st3" points="318.77,17.75 289.18,31.59 88.85,11.92 126.85,0.25 	"/>
	<polygon class="st4" points="242.06,82.3 237.05,154.02 119.85,137.25 119.85,68.22 	"/>
	<polygon class="st4" points="266.82,51.12 244.52,70.59 119.85,56.78 119.85,35.2 	"/>
	<polygon class="st5" points="227.68,283.75 123.52,278.92 70.85,266.92 13.18,238.25 0.85,219.59 66.18,260.59 122.18,271.92 
		219.85,264.92 	"/>
	<polygon class="st6" points="289.18,31.59 286.57,53.26 266.82,51.12 	"/>
	<polygon class="st6" points="289.18,31.59 266.82,51.12 119.85,35.2 86.54,31.59 88.85,11.92 	"/>
	<polygon class="st4" points="244.52,70.59 242.06,82.3 119.85,68.22 119.85,56.78 	"/>
	<polygon class="st7" points="88.85,11.92 86.54,31.59 84.05,52.81 31.52,46.99 	"/>
	<polygon class="st7" points="84.05,52.81 82.74,63.95 27.52,57.59 31.52,46.99 	"/>
	<polygon class="st7" points="82.74,63.95 74.52,134 39.21,192.3 33.53,196.28 15.52,192.92 27.52,57.59 	"/>
	<polygon class="st1" points="119.85,68.22 119.85,137.25 39.21,192.3 74.52,134 82.74,63.95 	"/>
	<line class="st8" x1="119.85" y1="35.2" x2="119.85" y2="35.19"/>
	<polygon class="st1" points="119.85,35.2 119.85,56.78 84.05,52.81 86.54,31.59 	"/>
	<polygon class="st1" points="119.85,56.78 119.85,68.22 82.74,63.95 84.05,52.81 	"/>
	<polygon class="st4" points="286.57,53.26 273.78,159.28 237.05,154.02 242.06,82.3 244.52,70.59 266.82,51.12 	"/>
	<polygon class="st3" points="236.88,156.43 234.21,194.69 210.18,217.59 51.85,186.92 124.52,139.75 	"/>
	<polygon class="st3" points="269.31,161.25 234.21,194.69 236.88,156.43 	"/>
	<polygon class="st3" points="51.85,186.92 51.85,196.28 210.52,226.5 233.55,204.24 231.52,233.25 33.53,196.28 39.21,192.3 
		119.85,137.25 237.05,154.02 236.88,156.43 124.52,139.75 	"/>
	<polygon class="st6" points="210.52,226.5 51.85,196.28 51.85,186.92 210.18,217.59 	"/>
	<polygon class="st1" points="234.21,194.69 233.55,204.24 210.52,226.5 210.18,217.59 	"/>
	<polygon class="st1" points="269.31,161.25 269.31,169.67 233.55,204.24 234.21,194.69 	"/>
	<polygon class="st3" points="273.78,159.28 273.22,163.92 245.85,229.22 237.52,238.25 231.52,233.25 233.55,204.24 269.31,169.67 
		269.31,161.25 236.88,156.43 237.05,154.02 	"/>
	<path class="st1" d="M63.02,211.43l-15.5,30.32l23.25,13.14L124.02,266l31.75-2l10.75-32.5L63.02,211.43z M76.58,245.75h-1.19
		c-2.17,0-3.92-1.75-3.92-3.91c0-2.17,1.75-3.92,3.92-3.92h1.19c2.16,0,3.92,1.75,3.92,3.92C80.5,244,78.74,245.75,76.58,245.75z
		 M101.62,251.34h-1.2c-2.16,0-3.91-1.76-3.91-3.92c0-2.16,1.75-3.92,3.91-3.92h1.2c2.16,0,3.91,1.76,3.91,3.92
		C105.53,249.58,103.78,251.34,101.62,251.34z M128.04,255.25h-1.19c-2.17,0-3.92-1.75-3.92-3.91c0-2.17,1.75-3.92,3.92-3.92h1.19
		c2.16,0,3.92,1.75,3.92,3.92C131.96,253.5,130.2,255.25,128.04,255.25z M144.27,243.5l-76.59-14.28l3.84-8.47l76.81,14.35
		L144.27,243.5z"/>
	<path class="st9" d="M80.5,241.84c0,2.16-1.76,3.91-3.92,3.91h-1.19c2.16,0,3.91-1.75,3.91-3.91c0-2.17-1.75-3.92-3.91-3.92h1.19
		C78.74,237.92,80.5,239.67,80.5,241.84z"/>
	<path class="st9" d="M105.53,247.42c0,2.16-1.75,3.92-3.91,3.92h-1.2c2.16,0,3.92-1.76,3.92-3.92c0-2.16-1.76-3.92-3.92-3.92h1.2
		C103.78,243.5,105.53,245.26,105.53,247.42z"/>
	<path class="st9" d="M131.96,251.34c0,2.16-1.76,3.91-3.92,3.91h-1.19c2.16,0,3.91-1.75,3.91-3.91c0-2.17-1.75-3.92-3.91-3.92h1.19
		C130.2,247.42,131.96,249.17,131.96,251.34z"/>
	<polygon class="st3" points="148.33,235.1 144.27,243.5 67.68,229.22 71.52,220.75 	"/>
	<path class="st10" d="M79.3,241.84c0,2.16-1.75,3.91-3.91,3.91c-2.17,0-3.92-1.75-3.92-3.91c0-2.17,1.75-3.92,3.92-3.92
		C77.55,237.92,79.3,239.67,79.3,241.84z"/>
	<g>
		<path class="st10" d="M104.34,247.42c0,2.16-1.76,3.92-3.92,3.92c-2.16,0-3.91-1.76-3.91-3.92c0-2.16,1.75-3.92,3.91-3.92
			C102.58,243.5,104.34,245.26,104.34,247.42z"/>
	</g>
	<path class="st10" d="M130.76,251.34c0,2.16-1.75,3.91-3.91,3.91c-2.17,0-3.92-1.75-3.92-3.91c0-2.17,1.75-3.92,3.92-3.92
		C129.01,247.42,130.76,249.17,130.76,251.34z"/>
	<g>
		<polygon class="st11" points="33.53,196.28 39.21,192.3 74.52,134 82.74,63.95 242.06,82.3 231.52,233.25 		"/>
		<polygon class="st11" points="231.52,233.25 237.52,238.25 245.85,229.22 273.22,163.92 289.18,31.59 244.52,70.59 242.06,82.3 		
			"/>
		<polygon class="st11" points="82.74,63.95 84.05,52.81 244.52,70.59 242.06,82.3 		"/>
		<polygon class="st11" points="88.85,11.92 84.05,52.81 244.52,70.59 289.18,31.59 		"/>
	</g>
</g>
<g>
	<path class="st12" d="M132.36,162.01c0,1.14,2.73,2.07,6.09,2.07c3.37,0,6.09-0.93,6.09-2.07c0-1.14-2.73-2.07-6.09-2.07
		C135.09,159.94,132.36,160.86,132.36,162.01z"/>
	<path class="st12" d="M132.36,162.01v5.91c0,0.78,0.2,1.55,0.58,2.24l5.02,9.05c0.15,0.29,0.57,0.3,0.73,0.01l5.38-9.32
		c0.31-0.54,0.48-1.16,0.48-1.79v-6.1c0,1.14-2.73,2.07-6.09,2.07C135.09,164.07,132.36,163.15,132.36,162.01z"/>
</g>
<g>
	<path class="st12" d="M149.25,163.59c0,1.14,2.73,2.07,6.09,2.07c3.37,0,6.09-0.93,6.09-2.07c0-1.14-2.73-2.07-6.09-2.07
		C151.97,161.52,149.25,162.45,149.25,163.59z"/>
	<path class="st12" d="M149.25,163.59v5.91c0,0.78,0.2,1.55,0.58,2.24l5.02,9.05c0.15,0.29,0.57,0.3,0.73,0.01l5.38-9.32
		c0.31-0.54,0.48-1.16,0.48-1.79v-6.1c0,1.14-2.73,2.07-6.09,2.07C151.97,165.66,149.25,164.73,149.25,163.59z"/>
</g>
<g>
	<path class="st12" d="M165.99,165.2c0,1.14,2.73,2.07,6.09,2.07c3.37,0,6.09-0.93,6.09-2.07c0-1.14-2.73-2.07-6.09-2.07
		C168.72,163.13,165.99,164.06,165.99,165.2z"/>
	<path class="st12" d="M165.99,165.2v5.91c0,0.78,0.2,1.55,0.58,2.24l5.02,9.05c0.15,0.29,0.57,0.3,0.73,0.01l5.38-9.32
		c0.31-0.54,0.48-1.16,0.48-1.79v-6.1c0,1.14-2.73,2.07-6.09,2.07C168.72,167.26,165.99,166.34,165.99,165.2z"/>
</g>
<path class="st13" d="M169.72,173.61c0.78,0.11,1.63,0.17,2.52,0.17c2.49,0,4.66-0.46,5.8-1.14"/>
<path class="st14" d="M178.08,166.78v6.58c0,0.23-0.05,0.45-0.16,0.66l-5.78,8.94l5.09-8.97c0.08-0.18,0.12-0.38,0.12-0.58
	l0.02-6.69"/>
<path class="st15" d="M178.51,166.82v4.29c0,0.88-0.23,1.74-0.67,2.5l-5.24,9.06c-0.3,0.52-1.06,0.51-1.35-0.02l-4.92-9
	c-0.43-0.79-0.66-1.68-0.66-2.58v-5.26"/>
<text transform="matrix(-1 0 0 1 172.0824 166.2818)" style="fill:#13110C; font-family:'Bahnschrift'; font-size:2.04px;">1.0</text>
<path class="st16" d="M165.41,160.5c0,0.12,0.03,0.23,0.08,0.34c0.49-1.09,3.26-1.92,6.59-1.92c3.35,0,6.11,0.84,6.6,1.92
	c0.05-0.11,0.08-0.23,0.08-0.34c0-1.25-2.99-2.26-6.67-2.26S165.41,159.25,165.41,160.5z"/>
<path class="st16" d="M148.77,158.94c0,0.11,0.03,0.23,0.07,0.34c0.49-1.09,3.26-1.92,6.6-1.92c3.34,0,6.11,0.83,6.6,1.92
	c0.05-0.11,0.08-0.22,0.08-0.34c0-1.25-2.99-2.26-6.67-2.26C151.75,156.68,148.77,157.69,148.77,158.94z"/>
<polyline class="st15" points="164.6,163.3 164.6,163.3 164.6,163.29 "/>
<path class="st15" d="M177.79,163.3c0.01,0.01,0.01,0.02,0.02,0.04"/>
<g>
	<polygon class="st17" points="125.58,181.76 136.32,174.17 136.47,162.97 136.48,161.93 136.48,161.92 136.51,159.83 136.56,155.5 
		136.61,152.21 126.74,161.01 126.74,161.01 126.73,161.02 125.7,161.93 	"/>
	<polygon class="st18" points="176.39,165.69 176.39,186.53 187.74,178.16 187.74,157.24 	"/>
	<polygon class="st16" points="124.96,160.85 124.73,181.68 125.58,181.76 125.74,161.97 175.68,166.65 175.68,186.53 
		176.39,186.53 176.39,165.69 	"/>
	<path class="st18" d="M124.95,160.84l1.79,0.17h0l9.73,0.91l39.9,3.76l11.35-8.46l-51.13-5.02L124.95,160.84z M165.41,160.5
		c0-1.25,2.98-2.26,6.67-2.26c3.69,0,6.67,1.01,6.67,2.26c0,0.12-0.02,0.23-0.07,0.34c-0.49,1.09-3.26,1.92-6.6,1.92
		c-0.06,0-0.12,0-0.18,0h-0.19c-0.15,0-0.3-0.01-0.45-0.01c-0.14,0-0.27-0.01-0.4-0.02c-0.03,0-0.07,0-0.1-0.01
		c-0.11,0-0.22-0.01-0.32-0.02c-0.01-0.01-0.02-0.01-0.04-0.01c-0.1-0.01-0.21-0.02-0.31-0.03c-0.13-0.01-0.25-0.03-0.38-0.04
		c-0.09-0.01-0.19-0.02-0.27-0.03c-0.5-0.07-0.96-0.17-1.39-0.28c-0.06-0.01-0.11-0.03-0.17-0.04s-0.11-0.03-0.17-0.05
		c-0.07-0.02-0.15-0.04-0.21-0.06c-0.13-0.04-0.26-0.09-0.38-0.13c-0.02-0.01-0.04-0.02-0.07-0.03c-0.05-0.01-0.1-0.03-0.15-0.06
		c-0.1-0.04-0.2-0.08-0.29-0.13c-0.41-0.2-0.72-0.42-0.93-0.65c-0.03-0.03-0.05-0.06-0.08-0.1c-0.02-0.03-0.04-0.06-0.05-0.09
		c-0.01-0.02-0.03-0.04-0.04-0.06c-0.01-0.01-0.01-0.03-0.02-0.05C165.43,160.73,165.41,160.62,165.41,160.5z M148.77,158.95
		c0-1.25,2.99-2.27,6.67-2.27c3.68,0,6.67,1.02,6.67,2.27c0,0.12-0.02,0.23-0.08,0.34c-0.48,1.08-3.25,1.92-6.59,1.92
		c-3.34,0-6.11-0.83-6.6-1.92C148.79,159.18,148.77,159.06,148.77,158.95z M136.51,159.83l0.06-4.33c0.61-0.06,1.26-0.1,1.93-0.1
		c3.69,0,6.67,1.01,6.67,2.26c0,0.12-0.02,0.23-0.08,0.35c-0.49,1.08-3.26,1.92-6.6,1.92C137.8,159.93,137.14,159.9,136.51,159.83z"
		/>
</g>
<path class="st15" d="M136.51,159.83c0.63,0.07,1.3,0.1,1.99,0.1c3.34,0,6.11-0.83,6.6-1.92c0.05-0.11,0.08-0.23,0.08-0.35
	c0-1.25-2.99-2.26-6.67-2.26c-0.67,0-1.32,0.03-1.93,0.1L136.51,159.83z"/>
<path class="st15" d="M131.83,157.67c0,0.12,0.02,0.23,0.07,0.34c0.39,0.86,2.2,1.57,4.6,1.82l0.06-4.33
	C133.83,155.78,131.83,156.65,131.83,157.67z"/>
<path class="st15" d="M148.77,158.95c0,0.12,0.02,0.23,0.07,0.34c0.49,1.09,3.26,1.92,6.6,1.92c3.34,0,6.11-0.83,6.59-1.92
	c0.05-0.11,0.08-0.22,0.08-0.34c0-1.25-2.99-2.27-6.67-2.27C151.76,156.68,148.77,157.7,148.77,158.95z"/>
<path class="st15" d="M165.41,160.5c0,0.12,0.02,0.23,0.07,0.34c0.01,0.01,0.01,0.03,0.02,0.05c0.01,0.02,0.02,0.04,0.04,0.06
	c0.01,0.03,0.03,0.06,0.05,0.09c0.02,0.03,0.05,0.06,0.08,0.1c0.21,0.23,0.52,0.46,0.93,0.65c0.09,0.05,0.2,0.09,0.29,0.13
	c0.05,0.02,0.1,0.04,0.15,0.06c0.02,0.01,0.05,0.01,0.07,0.03c0.12,0.04,0.25,0.09,0.38,0.13c0.07,0.02,0.14,0.04,0.21,0.06
	c0.05,0.01,0.11,0.03,0.17,0.05s0.11,0.03,0.17,0.04c0.42,0.11,0.89,0.21,1.39,0.28c0.09,0.01,0.18,0.02,0.27,0.03
	c0.12,0.01,0.25,0.03,0.38,0.04c0.1,0.01,0.21,0.02,0.31,0.03c0.01,0,0.02,0,0.04,0.01c0.11,0,0.21,0.01,0.32,0.02
	c0.03,0,0.07,0,0.1,0.01c0.13,0,0.26,0.01,0.4,0.02c0.15,0,0.3,0.01,0.45,0.01h0.19c0.06,0,0.12,0,0.18,0c3.34,0,6.11-0.83,6.6-1.92
	c0.05-0.11,0.07-0.22,0.07-0.34c0-1.25-2.99-2.26-6.67-2.26C168.39,158.24,165.41,159.25,165.41,160.5z"/>
<path class="st14" d="M174.7,166.46v5.68c0,0.12-0.02,0.25-0.05,0.37l-2.29,8.82l1.66-8.86c0.02-0.09,0.02-0.18,0.02-0.27v-5.71"/>
<path class="st19" d="M166.33,165.88v6.4c0,0.23,0.05,0.45-0.14-0.25l5.55,10.85l-4.56-9.98c-0.08-0.18-0.12-0.38-0.12-0.58l0-6.45"
	/>
<path class="st20" d="M182.26,180.26c0,0-0.73,0.09-1.38,0.03"/>
<path class="st20" d="M176.36,180.21c0,0-0.61,0.06-1.27,0"/>
<path class="st15" d="M174.23,176.17c0,0-2.16,0.26-4.07,0"/>
<path class="st15" d="M174.23,167.8c0,0-2.16,0.26-4.07,0"/>
<path class="st15" d="M174.84,171.02c0,0-0.58,0.08-1.1,0.05"/>
<path class="st15" d="M170.28,171.04c0,0-0.49,0-1-0.09"/>
<text transform="matrix(-1 0 0 1 173.3949 171.7749)" style="fill:#13110C; font-family:'Bahnschrift'; font-size:2.04px;">0.5</text>
<text transform="matrix(-1 0 0 1 173.0336 179.6978)" style="fill:#13110C; font-family:'Bahnschrift'; font-size:2.04px;">0.1</text>
<path class="st13" d="M166.13,172.43c0.46,0.35,1.18,0.66,2.07,0.89"/>
<path class="st21" d="M166.68,171.06c0.55-0.25,1.33-0.47,2.27-0.61"/>
<path class="st16" d="M131.83,157.64c0,0.12,0.03,0.23,0.08,0.34c0.48-1.09,3.25-1.92,6.6-1.92c3.34,0,6.11,0.83,6.59,1.92
	c0.05-0.11,0.08-0.22,0.08-0.34c0-1.25-2.99-2.26-6.67-2.26C134.82,155.38,131.83,156.39,131.83,157.64z"/>
<path class="st15" d="M156.91,152.4c0,0-2.16,0.25-4.07,0"/>
<path class="st13" d="M152.97,172.01c0.78,0.11,1.63,0.17,2.52,0.17c2.49,0,4.66-0.46,5.8-1.14"/>
<path class="st14" d="M161.33,165.31v6.44c0,0.23-0.05,0.45-0.16,0.66l-5.78,8.94l5.09-8.97c0.08-0.18,0.12-0.38,0.12-0.58
	l0.02-6.56"/>
<path class="st15" d="M161.77,165.35v4.15c0,0.88-0.23,1.74-0.67,2.5l-5.24,9.06c-0.3,0.52-1.06,0.51-1.35-0.02l-4.92-9
	c-0.43-0.79-0.66-1.68-0.66-2.58v-5.26"/>
<path class="st14" d="M157.96,165.05v5.68c0,0.12-0.02,0.25-0.05,0.37l-2.29,8.82l1.66-8.86c0.02-0.09,0.02-0.18,0.02-0.27
	l0.01-5.77"/>
<path class="st19" d="M149.58,164.28v6.4c0,0.23,0.05,0.45-0.14-0.25l5.55,10.85l-4.56-9.98c-0.08-0.18-0.12-0.38-0.12-0.58l0-6.36"
	/>
<path class="st15" d="M158.1,177.08c0,0-0.58,0.07-1.1,0.02"/>
<path class="st15" d="M153.42,177.04c0,0-0.49,0.05-1.01,0"/>
<path class="st15" d="M157.49,174.56c0,0-2.16,0.25-4.07,0"/>
<path class="st15" d="M157.49,166.19c0,0-2.16,0.26-4.07,0"/>
<path class="st15" d="M158.1,169.41c0,0-0.58,0.08-1.1,0.05"/>
<path class="st15" d="M153.53,169.44c0,0-0.49,0-1-0.09"/>
<text transform="matrix(-1 0 0 1 156.6513 170.1675)" style="fill:#13110C; font-family:'Bahnschrift'; font-size:2.04px;">0.5</text>
<text transform="matrix(-1 0 0 1 156.2899 178.0903)" style="fill:#13110C; font-family:'Bahnschrift'; font-size:2.04px;">0.1</text>
<path class="st13" d="M149.38,170.83c0.46,0.35,1.18,0.66,2.07,0.89"/>
<path class="st21" d="M149.94,169.45c0.55-0.25,1.33-0.47,2.27-0.61"/>
<path class="st13" d="M136.09,170.42c0.78,0.11,1.63,0.17,2.52,0.17c2.49,0,4.66-0.46,5.8-1.14"/>
<path class="st14" d="M144.45,163.72v6.44c0,0.23-0.05,0.45-0.16,0.66l-5.78,8.94l5.09-8.97c0.08-0.18,0.12-0.38,0.12-0.58
	l0.02-6.56"/>
<path class="st15" d="M144.88,163.76v4.15c0,0.88-0.23,1.74-0.67,2.5l-5.24,9.06c-0.3,0.52-1.06,0.51-1.35-0.02l-4.92-9
	c-0.43-0.79-0.66-1.68-0.66-2.58v-5.26"/>
<path class="st14" d="M141.08,163.46v5.68c0,0.12-0.02,0.25-0.05,0.37l-2.29,8.82l1.66-8.86c0.02-0.09,0.02-0.18,0.02-0.27
	l0.01-5.77"/>
<path class="st19" d="M132.7,162.69v6.4c0,0.23,0.05,0.45-0.14-0.25l5.55,10.85l-4.56-9.98c-0.08-0.18-0.12-0.38-0.12-0.58l0-6.36"
	/>
<path class="st15" d="M141.22,175.49c0,0-0.58,0.07-1.1,0.02"/>
<path class="st15" d="M136.54,175.46c0,0-0.49,0.05-1.01,0"/>
<path class="st15" d="M140.61,172.98c0,0-2.16,0.26-4.07,0"/>
<path class="st15" d="M141.22,167.82c0,0-0.58,0.08-1.1,0.05"/>
<path class="st15" d="M136.65,167.85c0,0-0.49,0-1-0.09"/>
<text transform="matrix(-1 0 0 1 139.7685 168.5825)" style="fill:#13110C; font-family:'Bahnschrift'; font-size:2.04px;">0.5</text>
<text transform="matrix(-1 0 0 1 139.4071 176.5054)" style="fill:#13110C; font-family:'Bahnschrift'; font-size:2.04px;">0.1</text>
<path class="st13" d="M132.5,169.24c0.46,0.35,1.18,0.66,2.07,0.89"/>
<path class="st21" d="M133.05,167.87c0.55-0.25,1.33-0.47,2.27-0.61"/>
<path class="st14" d="M174.01,162.63v-12.16c0,0,0.23,0.01,0.65-0.04v12.14"/>
<path class="st14" d="M177.31,161.9v-14.01c0,0,0.38,0.48,0.73,0.3v13.33"/>
<path class="st22" d="M167.01,161.93l0-11.99c0,0-0.42-0.05-0.72-0.2v11.83"/>
<line class="st15" x1="165.62" y1="161.1" x2="165.62" y2="148.14"/>
<line class="st15" x1="178.47" y1="147.86" x2="178.47" y2="161.24"/>
<path class="st15" d="M173.59,154c0,0-2.16,0.25-4.07,0"/>
<path class="st22" d="M165.68,148.78c0,0,3.53,1.41,7.75,0.6c0,0-4.39,0.5-7.74-1.13L165.68,148.78z"/>
<path class="st23" d="M165.58,154.49v5.7c0,0.63,2.89,1.15,6.46,1.15c3.57,0,6.46-0.52,6.46-1.15v-5.7c0,0.64-2.9,1.15-6.46,1.15
	C168.47,155.64,165.58,155.13,165.58,154.49z"/>
<path class="st14" d="M157.33,161.04v-12.16c0,0,0.23,0.01,0.65-0.04v12.14"/>
<path class="st14" d="M160.63,160.3v-14.01c0,0,0.38,0.48,0.73,0.3v13.33"/>
<path class="st19" d="M150.33,160.33l0-11.99c0,0-0.42-0.05-0.72-0.2v11.83"/>
<path class="st14" d="M140.43,159.76V147.6c0,0,0.23,0.01,0.65-0.04v12.14"/>
<path class="st14" d="M143.72,159.02v-14.01c0,0,0.38,0.48,0.73,0.3v13.33"/>
<path class="st22" d="M133.43,159.06l0-11.99c0,0-0.42-0.05-0.72-0.2v11.83"/>
<path class="st15" d="M140,151.13c0,0-2.16,0.26-4.07,0"/>
<path class="st23" d="M131.99,151.62v5.7c0,0.63,2.89,1.15,6.46,1.15c3.57,0,6.46-0.52,6.46-1.15v-5.7c0,0.64-2.9,1.15-6.46,1.15
	C134.89,152.77,131.99,152.25,131.99,151.62z"/>
<path class="st19" d="M149,147.18c0,0,3.53,1.41,7.75,0.6c0,0-4.39,0.5-7.74-1.13L149,147.18z"/>
<path class="st15" d="M163.66,145.82c0,1.97,3.64,3.57,8.13,3.57c4.49,0,8.13-1.6,8.13-3.57"/>
<line class="st15" x1="179.92" y1="145.43" x2="179.92" y2="145.82"/>
<line class="st15" x1="163.66" y1="143.2" x2="163.66" y2="144.74"/>
<path class="st15" d="M165.97,140.26c1.48-0.66,3.54-1.08,5.82-1.08c3.56,0,6.59,1.01,7.69,2.4c0.02,0.03,0.06,0.05,0.1,0.05
	c0.38,0,2.4,0,2.4,0v2.26h-2.39c-0.05,0-0.1,0.02-0.14,0.07c-1.13,1.38-4.13,2.36-7.65,2.36c-4.49,0-8.13-1.6-8.13-3.57
	C163.66,141.79,164.54,140.91,165.97,140.26z"/>
<path class="st15" d="M163.66,144.29c0,1.97,3.64,3.57,8.13,3.57c3.53,0,6.53-0.99,7.66-2.37c0.03-0.04,0.07-0.06,0.12-0.06h2.4
	v-1.54"/>
<line class="st15" x1="163.66" y1="144.26" x2="163.66" y2="145.79"/>
<ellipse class="st15" cx="171.79" cy="142.76" rx="4.62" ry="1.71"/>
<path class="st15" d="M163.32,146.17c0.11,0.02,0.22,0.03,0.34,0.03v-0.58c-0.59,0-1.06-0.48-1.06-1.06s0.48-1.06,1.06-1.06v-0.58
	c-0.91,0-1.65,0.74-1.65,1.65C162.01,145.35,162.57,146.02,163.32,146.17z"/>
<path class="st15" d="M163.05,144.1"/>
<path class="st15" d="M164.41,141.26c-0.7,0-1.36,0.43-1.61,1.04c-0.13,0.33-0.65,1.6-0.65,1.6"/>
<path class="st15" d="M163.66,143.73c-0.08-0.06-0.15-0.14-0.21-0.22"/>
<path class="st15" d="M161.41,144.72"/>
<path class="st15" d="M176.34,143.06c-0.39-0.8-2.28-1.4-4.55-1.4c-2.27,0-4.16,0.61-4.55,1.4"/>
<path class="st14" d="M164.31,142.2c0.4,1.78,3.42,3.13,7.59,3.13c3.89,0,6.56-1.48,7.36-3.08c-0.21,1.89-3.53,3.49-7.88,3.49
	C167.21,145.74,164.65,144.02,164.31,142.2"/>
<path class="st15" d="M130.07,142.95c0,1.97,3.64,3.57,8.13,3.57c3.54,0,6.55-0.99,7.67-2.38"/>
<path class="st15" d="M146.34,142.95"/>
<line class="st15" x1="130.07" y1="140.33" x2="130.07" y2="141.86"/>
<line class="st15" x1="132.03" y1="158.23" x2="132.03" y2="145.27"/>
<line class="st15" x1="144.88" y1="144.99" x2="144.88" y2="158.36"/>
<path class="st15" d="M146,141.02c-0.05,0-0.1,0.02-0.14,0.07c-1.13,1.38-4.13,2.36-7.65,2.36c-4.49,0-8.13-1.6-8.13-3.57
	c0-0.97,0.88-1.85,2.31-2.49c1.48-0.66,3.54-1.08,5.82-1.08c3.56,0,6.59,1.01,7.69,2.4c0.02,0.03,0.06,0.05,0.1,0.05
	c0.38,0,2.4,0,2.4,0v0.4"/>
<path class="st15" d="M148.39,139.13"/>
<path class="st15" d="M130.07,141.42c0,1.97,3.64,3.57,8.13,3.57c3.08,0,5.76-0.75,7.14-1.86"/>
<line class="st15" x1="130.07" y1="141.38" x2="130.07" y2="142.92"/>
<ellipse class="st15" cx="138.21" cy="139.88" rx="4.62" ry="1.71"/>
<path class="st15" d="M129.74,143.3c0.11,0.02,0.22,0.03,0.34,0.03v-0.58c-0.59,0-1.06-0.48-1.06-1.06c0-0.59,0.48-1.06,1.06-1.06
	v-0.58c-0.91,0-1.65,0.74-1.65,1.65C128.43,142.48,128.99,143.14,129.74,143.3z"/>
<path class="st15" d="M129.47,141.23"/>
<path class="st15" d="M130.75,138.39c-0.7,0-1.29,0.43-1.53,1.04c-0.13,0.33-0.65,1.6-0.65,1.6"/>
<path class="st15" d="M130.07,140.86c-0.08-0.06-0.15-0.14-0.21-0.22"/>
<path class="st15" d="M127.82,141.85"/>
<path class="st15" d="M142.75,140.19c-0.39-0.8-2.28-1.4-4.55-1.4c-2.27,0-4.16,0.61-4.55,1.4"/>
<path class="st22" d="M132.09,145.91c0,0,3.53,1.41,7.75,0.6c0,0-4.39,0.5-7.74-1.13L132.09,145.91z"/>
<path class="st14" d="M130.73,139.33c0.4,1.78,3.42,3.13,7.59,3.13c3.89,0,6.56-1.48,7.36-3.08c-0.21,1.89-3.53,3.49-7.88,3.49
	C133.63,142.87,131.07,141.15,130.73,139.33"/>
<path class="st15" d="M146.98,144.22c0,1.97,3.64,3.57,8.13,3.57c3.28,0,6.11-0.86,7.4-2.09"/>
<line class="st15" x1="146.98" y1="141.6" x2="146.98" y2="143.14"/>
<path class="st15" d="M162.76,142.36c-1.13,1.38-4.13,2.36-7.65,2.36c-4.49,0-8.13-1.6-8.13-3.57c0-0.97,0.88-1.85,2.31-2.49
	c1.48-0.66,3.54-1.08,5.82-1.08c3.56,0,6.59,1.01,7.69,2.4c0.02,0.03,0.06,0.05,0.1,0.05c0.38,0,2.4,0,2.4,0v0.58"/>
<line class="st15" x1="146.98" y1="142.66" x2="146.98" y2="144.19"/>
<ellipse class="st15" cx="155.11" cy="141.16" rx="4.62" ry="1.71"/>
<path class="st15" d="M146.64,144.57c0.11,0.02,0.22,0.03,0.34,0.03v-0.58c-0.59,0-1.06-0.48-1.06-1.06s0.48-1.06,1.06-1.06v-0.58
	c-0.91,0-1.65,0.74-1.65,1.65C145.33,143.75,145.89,144.42,146.64,144.57z"/>
<path class="st15" d="M146.37,142.5"/>
<path class="st15" d="M147.72,139.66c-0.7,0-1.36,0.43-1.61,1.04c-0.13,0.33-0.65,1.6-0.65,1.6"/>
<path class="st15" d="M146.98,142.14c-0.08-0.06-0.15-0.14-0.21-0.22"/>
<path class="st15" d="M144.73,143.12"/>
<path class="st15" d="M159.66,141.46c-0.39-0.8-2.28-1.4-4.55-1.4c-2.27,0-4.16,0.61-4.55,1.4"/>
<path class="st14" d="M147.63,140.6c0.4,1.78,3.42,3.13,7.59,3.13c3.89,0,6.56-1.48,7.36-3.08c-0.21,1.89-3.53,3.49-7.88,3.49
	C150.53,144.14,147.97,142.43,147.63,140.6"/>
<path class="st15" d="M146.98,142.77c0,1.97,3.64,3.57,8.13,3.57c3.08,0,5.53-0.57,6.9-1.68"/>
<line class="st15" x1="148.93" y1="159.5" x2="148.93" y2="146.54"/>
<line class="st15" x1="161.79" y1="146.26" x2="161.79" y2="159.64"/>
<path class="st23" d="M148.9,152.89v5.7c0,0.63,2.89,1.15,6.46,1.15c3.57,0,6.46-0.52,6.46-1.15v-5.7c0,0.64-2.9,1.15-6.46,1.15
	C151.79,154.04,148.9,153.53,148.9,152.89z"/>
</svg>
