<!-- Generator: Adobe Illustrator 24.1.0, SVG Export Plug-In  -->
<svg version="1.1" xmlns="http://www.w3.org/2000/svg" xmlns:xlink="http://www.w3.org/1999/xlink" x="0px" y="0px" width="78.79px"
	 height="167.22px" viewBox="0 0 78.79 167.22" style="enable-background:new 0 0 78.79 167.22;" xml:space="preserve">
<style type="text/css">
	.st0{opacity:0.9;fill:#E5F3F3;}
	.st1{fill:#F1F8F9;}
	.st2{opacity:0.61;fill:#C7C7C9;}
	.st3{fill:none;stroke:#231F20;stroke-width:0.5;stroke-miterlimit:10;}
	.st4{fill:none;stroke:#231F20;stroke-width:0.5;stroke-linecap:round;stroke-miterlimit:10;}
	.st5{fill:none;stroke:#231F20;stroke-width:0.562;stroke-linecap:round;stroke-miterlimit:10;}
</style>
<defs>
</defs>
<g>
	<g>
		<path class="st0" d="M63.09,96.96c0,4.47-10.7,8.1-23.89,8.1c-13.2,0-23.9-3.63-23.9-8.1c0-4.48,10.7-8.11,23.9-8.11
			C52.39,88.85,63.09,92.48,63.09,96.96z"/>
		<path class="st0" d="M63.09,96.96v23.19c0,3.07-0.78,6.09-2.26,8.77l-19.68,35.5c-0.6,1.15-2.24,1.16-2.87,0.03l-21.11-36.56
			c-1.23-2.13-1.87-4.54-1.87-7V96.96c0,4.47,10.7,8.1,23.9,8.1C52.39,105.06,63.09,101.43,63.09,96.96z"/>
	</g>
	<g>
		<path class="st1" d="M28.92,44.36v79.82c0,0.49,0.06,0.97,0.18,1.44l8.97,34.57l-6.52-34.76c-0.06-0.34-0.1-0.7-0.1-1.05V44.53
			C31.46,44.53,30.55,44.56,28.92,44.36z"/>
		<path class="st1" d="M15.7,35.57v85.57c0,0.9,0.21,1.78,0.62,2.58l21.76,42.54l-19.04-42.68c-0.32-0.71-0.48-1.48-0.48-2.26V36.87
			C18.55,36.87,17.06,36.26,15.7,35.57z"/>
		<path class="st2" d="M61.78,41.65v79.49c0,0.9-0.21,1.78-0.62,2.58L39.4,166.26l19.04-42.68c0.32-0.71,0.48-1.48,0.48-2.26
			l0.02-78.88C58.94,42.44,60.58,42.23,61.78,41.65z"/>
		<path class="st3" d="M72.07,26.28c0,7.73-14.28,14-31.89,14s-31.89-6.27-31.89-14"/>
		<line class="st3" x1="8.29" y1="24.75" x2="8.29" y2="26.28"/>
		<line class="st3" x1="72.07" y1="20.26" x2="72.07" y2="26.28"/>
		<path class="st3" d="M13.99,34.26v85.85c0,3.45,0.91,6.84,2.64,9.82l20.57,35.52c1.19,2.05,4.16,2.02,5.3-0.06l19.31-35.27
			c1.7-3.11,2.59-6.59,2.59-10.13v-84.6"/>
		<path class="st3" d="M63,4.47c-5.79-2.6-13.88-4.22-22.82-4.22c-13.97,0-25.84,3.94-30.15,9.43C9.94,9.8,9.8,9.87,9.65,9.87
			c-1.5,0-9.4,0-9.4,0v8.86h9.38c0.21,0,0.4,0.09,0.53,0.26c4.42,5.41,16.19,9.27,30.02,9.27c17.61,0,31.89-6.27,31.89-14
			C72.07,10.45,68.61,6.99,63,4.47z"/>
		<path class="st3" d="M72.07,20.26c0,7.73-14.28,14-31.89,14c-13.84,0-25.62-3.87-30.03-9.28c-0.12-0.15-0.29-0.23-0.48-0.23H0.25
			v-6.03"/>
		<line class="st3" x1="72.07" y1="14.25" x2="72.07" y2="20.26"/>
		<ellipse class="st3" cx="40.18" cy="14.25" rx="18.12" ry="6.71"/>
		<path class="st3" d="M73.39,27.64c-0.43,0.09-0.87,0.13-1.32,0.13v-2.29c2.31,0,4.18-1.87,4.18-4.18s-1.87-4.18-4.18-4.18v-2.29
			c3.57,0,6.47,2.89,6.47,6.47C78.54,24.43,76.33,27.03,73.39,27.64z"/>
		<path class="st3" d="M72.07,18.52"/>
		<path class="st3" d="M69.43,8.38c2.73,0,5.06,1.69,6.01,4.07c0.52,1.28,2.55,6.27,2.55,6.27"/>
		<path class="st3" d="M72.07,18.09c0.31-0.25,0.58-0.54,0.8-0.87"/>
		<path class="st3" d="M78.53,20.96"/>
		<path class="st3" d="M28.37,149.85c0,0,2.27,0.27,4.31,0.08"/>
		<path class="st3" d="M46.71,149.69c0,0,1.91,0.19,3.95,0"/>
		<path class="st3" d="M30.76,139.97c0,0,8.49,1,15.95,0"/>
		<path class="st3" d="M30.76,107.15c0,0,8.49,1,15.95,0"/>
		<path class="st3" d="M30.76,81.88c0,0,8.49,1,15.95,0"/>
		<path class="st3" d="M30.76,57.34c0,0,8.49,1,15.95,0"/>
		<path class="st3" d="M28.37,119.77c0,0,2.26,0.32,4.3,0.19"/>
		<path class="st3" d="M46.27,119.88c0,0,1.92,0.02,3.93-0.35"/>
		<path class="st3" d="M28.21,94.21c0,0,2.26,0.32,4.3,0.19"/>
		<path class="st3" d="M46.11,94.33c0,0,1.92,0.02,3.93-0.35"/>
		<path class="st3" d="M27.82,69.46c0,0,2.26,0.32,4.3,0.19"/>
		<path class="st3" d="M45.72,69.57c0,0,1.92,0.02,3.93-0.35"/>
		<text transform="matrix(1 0 0 1 34.0521 122.7438)" style="fill:#020203; font-family:'Bahnschrift'; font-size:8px;">0.5</text>
		<text transform="matrix(1 0 0 1 35.4688 97.0772)" style="fill:#020203; font-family:'Bahnschrift'; font-size:8px;">1.0</text>
		<text transform="matrix(1 0 0 1 34.4688 72.2439)" style="fill:#020203; font-family:'Bahnschrift'; font-size:8px;">1.5</text>
		<text transform="matrix(1 0 0 1 35.4688 153.8127)" style="fill:#020203; font-family:'Bahnschrift'; font-size:8px;">0.1</text>
		<path class="st3" d="M22.35,15.45c1.53-3.13,8.93-5.51,17.84-5.51c8.9,0,16.31,2.38,17.84,5.51"/>
		<path class="st4" d="M48.48,129.96c-3.05,0.42-6.38,0.65-9.87,0.65c-9.75,0-18.25-1.81-22.76-4.49"/>
		<path class="st4" d="M62.55,125.32c-1.8,1.38-4.62,2.58-8.12,3.48"/>
		<path class="st5" d="M60.39,119.94c-2.16-1-5.23-1.83-8.89-2.41"/>
		<path class="st2" d="M64.15,37.88c0,0-13.85,5.54-30.38,2.37c0,0,17.22,1.97,30.37-4.44L64.15,37.88z"/>
		<path class="st1" d="M69.51,12.07c-1.56,6.97-13.39,12.28-29.78,12.28c-15.26,0-25.74-5.78-28.88-12.07
			c0.83,7.41,13.84,13.68,30.91,13.68C58.14,25.96,68.18,19.23,69.51,12.07"/>
	</g>
</g>
</svg>
