<!-- Generator: Adobe Illustrator 24.1.0, SVG Export Plug-In  -->
<svg version="1.1" xmlns="http://www.w3.org/2000/svg" xmlns:xlink="http://www.w3.org/1999/xlink" x="0px" y="0px"
	 width="929.29px" height="76.33px" viewBox="0 0 929.29 76.33" style="enable-background:new 0 0 929.29 76.33;"
	 xml:space="preserve">
<style type="text/css">
	.st0{fill:none;stroke:#3D6D97;stroke-miterlimit:10;}
	.st1{fill:#3D6D97;stroke:#3D6D97;stroke-miterlimit:10;}
</style>
<defs>
</defs>
<g>
	<g>
		<path class="st0" d="M21.17,22.31H0.5V10.13h56.29v12.18H36.12v52.42H21.17V22.31z"/>
		<path class="st0" d="M105.98,74.73l-12.46-18h-0.74H79.77v18H64.82v-64.6h27.96c17.26,0,28.05,8.95,28.05,23.44
			c0,9.69-4.89,16.8-13.29,20.4l14.49,20.76H105.98z M91.95,22.31H79.77v22.52h12.18c9.14,0,13.75-4.25,13.75-11.26
			C105.7,26.46,101.09,22.31,91.95,22.31z"/>
		<path class="st0" d="M175.19,60.88H145.2l-5.72,13.84h-15.32l28.79-64.6h14.77l28.89,64.6h-15.69L175.19,60.88z M170.49,49.53
			L160.24,24.8L150,49.53H170.49z"/>
		<path class="st0" d="M262.59,10.13v64.6h-12.27L218.11,35.5v39.22h-14.77v-64.6h12.37l32.12,39.22V10.13H262.59z"/>
		<path class="st0" d="M272.83,68.36l5.08-11.26c5.44,3.97,13.57,6.74,21.32,6.74c8.86,0,12.46-2.95,12.46-6.92
			c0-12.09-37.56-3.78-37.56-27.78c0-10.98,8.86-20.12,27.22-20.12c8.12,0,16.43,1.94,22.43,5.72l-4.61,11.35
			c-6-3.41-12.18-5.08-17.9-5.08c-8.86,0-12.27,3.32-12.27,7.38c0,11.9,37.56,3.69,37.56,27.41c0,10.8-8.95,20.03-27.41,20.03
			C288.89,75.83,278.55,72.79,272.83,68.36z"/>
		<path class="st0" d="M351.73,22.12V39.2h29.9v12h-29.9v23.53h-14.95v-64.6h48.82v12H351.73z"/>
		<path class="st0" d="M391.05,42.43c0-19.2,14.95-33.41,35.35-33.41c20.3,0,35.35,14.12,35.35,33.41s-15.04,33.41-35.35,33.41
			C406,75.83,391.05,61.62,391.05,42.43z M446.6,42.43c0-12.27-8.67-20.67-20.21-20.67s-20.21,8.4-20.21,20.67
			s8.67,20.67,20.21,20.67S446.6,54.7,446.6,42.43z"/>
		<path class="st0" d="M514.15,74.73l-12.46-18h-0.74h-13.01v18h-14.95v-64.6h27.96c17.26,0,28.05,8.95,28.05,23.44
			c0,9.69-4.89,16.8-13.29,20.4l14.49,20.76H514.15z M500.13,22.31h-12.18v22.52h12.18c9.14,0,13.75-4.25,13.75-11.26
			C513.88,26.46,509.26,22.31,500.13,22.31z"/>
		<path class="st0" d="M599.61,74.73l-0.09-38.76L580.5,67.9h-6.74l-18.92-31.1v37.93h-14.03v-64.6h12.37l24.18,40.14l23.81-40.14
			h12.27l0.18,64.6H599.61z"/>
		<path class="st0" d="M671.5,60.88H641.5l-5.72,13.84h-15.32l28.79-64.6h14.77l28.89,64.6h-15.69L671.5,60.88z M666.79,49.53
			L656.55,24.8L646.3,49.53H666.79z"/>
		<path class="st0" d="M709.79,22.31h-20.67V10.13h56.29v12.18h-20.67v52.42h-14.95V22.31z"/>
		<path class="st0" d="M753.45,10.13h14.95v64.6h-14.95V10.13z"/>
		<path class="st0" d="M779.65,42.43c0-19.2,14.95-33.41,35.35-33.41c20.3,0,35.35,14.12,35.35,33.41S835.3,75.83,815,75.83
			C794.6,75.83,779.65,61.62,779.65,42.43z M835.21,42.43c0-12.27-8.67-20.67-20.21-20.67s-20.21,8.4-20.21,20.67
			S803.46,63.1,815,63.1S835.21,54.7,835.21,42.43z"/>
		<path class="st0" d="M920.85,10.13v64.6h-12.27L876.37,35.5v39.22H861.6v-64.6h12.37l32.12,39.22V10.13H920.85z"/>
	</g>
	<g>
		<path class="st1" d="M29.11,13.79H8.44V1.61h56.29v12.18H44.06v52.42H29.11V13.79z"/>
		<path class="st1" d="M113.92,66.21l-12.46-18h-0.74H87.71v18H72.76V1.61h27.96c17.26,0,28.05,8.95,28.05,23.44
			c0,9.69-4.89,16.8-13.29,20.4l14.49,20.76H113.92z M99.89,13.79H87.71v22.52h12.18c9.14,0,13.75-4.25,13.75-11.26
			C113.64,17.94,109.03,13.79,99.89,13.79z"/>
		<path class="st1" d="M183.13,52.36h-29.99l-5.72,13.84H132.1l28.79-64.6h14.77l28.89,64.6h-15.69L183.13,52.36z M178.43,41.01
			l-10.24-24.73l-10.24,24.73H178.43z"/>
		<path class="st1" d="M270.52,1.61v64.6h-12.27l-32.21-39.22v39.22h-14.77V1.61h12.37l32.12,39.22V1.61H270.52z"/>
		<path class="st1" d="M280.77,59.84l5.08-11.26c5.44,3.97,13.57,6.74,21.32,6.74c8.86,0,12.46-2.95,12.46-6.92
			c0-12.09-37.56-3.78-37.56-27.78c0-10.98,8.86-20.12,27.22-20.12c8.12,0,16.43,1.94,22.43,5.72l-4.61,11.35
			c-6-3.41-12.18-5.08-17.9-5.08c-8.86,0-12.27,3.32-12.27,7.38c0,11.9,37.56,3.69,37.56,27.41c0,10.8-8.95,20.03-27.41,20.03
			C296.83,67.31,286.49,64.27,280.77,59.84z"/>
		<path class="st1" d="M359.67,13.6v17.07h29.9v12h-29.9v23.53h-14.95V1.61h48.82v12H359.67z"/>
		<path class="st1" d="M398.98,33.91c0-19.2,14.95-33.41,35.35-33.41c20.3,0,35.35,14.12,35.35,33.41s-15.04,33.41-35.35,33.41
			C413.93,67.31,398.98,53.1,398.98,33.91z M454.54,33.91c0-12.27-8.67-20.67-20.21-20.67s-20.21,8.4-20.21,20.67
			s8.67,20.67,20.21,20.67S454.54,46.18,454.54,33.91z"/>
		<path class="st1" d="M522.09,66.21l-12.46-18h-0.74h-13.01v18h-14.95V1.61h27.96c17.26,0,28.05,8.95,28.05,23.44
			c0,9.69-4.89,16.8-13.29,20.4l14.49,20.76H522.09z M508.06,13.79h-12.18v22.52h12.18c9.14,0,13.75-4.25,13.75-11.26
			C521.81,17.94,517.2,13.79,508.06,13.79z"/>
		<path class="st1" d="M607.55,66.21l-0.09-38.76l-19.01,31.93h-6.74l-18.92-31.1v37.93h-14.03V1.61h12.37l24.18,40.14l23.81-40.14
			h12.27l0.18,64.6H607.55z"/>
		<path class="st1" d="M679.44,52.36h-29.99l-5.72,13.84H628.4l28.79-64.6h14.77l28.89,64.6h-15.69L679.44,52.36z M674.73,41.01
			l-10.24-24.73l-10.24,24.73H674.73z"/>
		<path class="st1" d="M717.73,13.79h-20.67V1.61h56.29v12.18h-20.67v52.42h-14.95V13.79z"/>
		<path class="st1" d="M761.38,1.61h14.95v64.6h-14.95V1.61z"/>
		<path class="st1" d="M787.59,33.91c0-19.2,14.95-33.41,35.35-33.41c20.3,0,35.35,14.12,35.35,33.41s-15.04,33.41-35.35,33.41
			C802.54,67.31,787.59,53.1,787.59,33.91z M843.15,33.91c0-12.27-8.67-20.67-20.21-20.67s-20.21,8.4-20.21,20.67
			s8.67,20.67,20.21,20.67S843.15,46.18,843.15,33.91z"/>
		<path class="st1" d="M928.79,1.61v64.6h-12.27l-32.21-39.22v39.22h-14.77V1.61h12.37l32.12,39.22V1.61H928.79z"/>
	</g>
</g>
</svg>
