<!-- Generator: Adobe Illustrator 24.1.0, SVG Export Plug-In  -->
<svg version="1.1" xmlns="http://www.w3.org/2000/svg" xmlns:xlink="http://www.w3.org/1999/xlink" x="0px" y="0px" width="314.9px"
	 height="275.65px" viewBox="0 0 314.9 275.65" style="enable-background:new 0 0 314.9 275.65;" xml:space="preserve">
<style type="text/css">
	.st0{fill:#AEAEAF;stroke:#231F20;stroke-width:0.5;stroke-miterlimit:10;}
	.st1{fill:none;stroke:#231F20;stroke-width:0.5;stroke-miterlimit:10;}
	.st2{fill:#D7D8D8;stroke:#231F20;stroke-width:0.5;stroke-miterlimit:10;}
	.st3{fill:#C7C6C6;stroke:#231F20;stroke-width:0.5;stroke-miterlimit:10;}
	.st4{fill:#699DAC;stroke:#231F20;stroke-width:0.5;stroke-miterlimit:10;}
	.st5{fill:#9CC1CC;stroke:#231F20;stroke-width:0.5;stroke-miterlimit:10;}
	.st6{fill:#88B9C9;stroke:#231F20;stroke-width:0.5;stroke-miterlimit:10;}
	.st7{fill:#699DAC;stroke:#231F20;stroke-width:0.25;stroke-miterlimit:10;}
	.st8{fill:#88B9C9;stroke:#231F20;stroke-width:0.25;stroke-miterlimit:10;}
	.st9{fill:#D7D8D8;stroke:#231F20;stroke-width:0.25;stroke-miterlimit:10;}
	.st10{fill:#AEAEAF;stroke:#231F20;stroke-width:0.25;stroke-miterlimit:10;}
	.st11{fill:none;stroke:#231F20;stroke-width:0.25;stroke-miterlimit:10;}
	.st12{fill:#DAE0E0;stroke:#231F20;stroke-width:0.25;stroke-miterlimit:10;}
	.st13{fill:none;}
</style>
<defs>
</defs>
<g>
	<polygon class="st0" points="29.39,27.57 29.39,210.37 0.72,189.17 0.72,6.37 	"/>
	<path class="st1" d="M29.39,27.57"/>
	<polygon class="st2" points="206.56,21.45 64.39,26.36 29.39,27.57 0.72,6.37 177.9,0.25 	"/>
	<polygon class="st3" points="64.39,156.7 64.39,209.25 29.39,210.37 29.39,157.91 	"/>
	<path class="st3" d="M64.39,26.36v182.89l142.17-4.57V21.45L64.39,26.36z M192.23,191.76L81.3,195.59V39.52l82.26-2.85l28.67-0.99
		V191.76z"/>
	<polygon class="st0" points="192.23,35.68 192.23,91.62 163.56,70.42 163.56,36.67 	"/>
	<polygon class="st0" points="192.23,94.47 192.23,152.29 163.56,131.09 163.56,95.46 	"/>
	<polygon class="st0" points="192.23,155.14 192.23,191.05 163.56,169.86 163.56,156.13 	"/>
	<polygon class="st3" points="163.56,156.13 163.56,169.86 81.3,172.7 81.3,158.97 	"/>
	<polygon class="st3" points="163.56,95.46 163.56,131.09 81.3,133.93 81.3,98.3 	"/>
	<polygon class="st3" points="163.56,36.67 163.56,70.42 81.3,73.26 81.3,39.52 	"/>
	<polygon class="st3" points="192.23,152.29 192.23,155.14 163.56,156.13 81.3,158.97 81.3,156.12 	"/>
	<polygon class="st3" points="192.23,91.62 192.23,94.47 163.56,95.46 81.3,98.3 81.3,95.45 	"/>
	<polygon class="st2" points="192.23,91.62 81.3,95.45 81.3,73.26 163.56,70.42 	"/>
	<polygon class="st2" points="192.23,152.29 81.3,156.12 81.3,133.93 163.56,131.09 	"/>
	<polygon class="st2" points="192.23,191.05 192.23,191.76 81.3,195.59 81.3,172.7 163.56,169.86 	"/>
	<line class="st1" x1="64.39" y1="209.46" x2="64.39" y2="209.25"/>
	<polygon class="st2" points="64.39,26.36 64.39,156.7 29.39,157.91 29.39,27.57 	"/>
	<polygon class="st4" points="301.86,91.92 301.86,275.15 206.56,204.68 206.56,21.45 206.57,21.45 	"/>
	<path class="st1" d="M70.42,30.82"/>
	<path class="st1" d="M206.57,21.45"/>
	<polygon class="st5" points="314.16,91.62 301.86,91.92 206.57,21.45 218.56,21.04 	"/>
	<polygon class="st6" points="314.16,91.62 313.91,274.72 301.86,275.15 301.86,91.92 	"/>
	<path class="st1" d="M163.57,95.54"/>
	<g>
		<polygon class="st3" points="59.44,44.64 59.44,75.67 34.44,76.53 34.44,45.51 		"/>
		<path class="st2" d="M34.35,76.53v62.08l25-0.87V75.67L34.35,76.53z M44.57,114.06h-1.12c-1.89,0-3.41-1.52-3.41-3.4
			s1.52-3.41,3.41-3.41h1.12c1.88,0,3.41,1.53,3.41,3.41S46.45,114.06,44.57,114.06z M44.57,100.87h-1.12
			c-1.89,0-3.41-1.52-3.41-3.4c0-1.89,1.52-3.41,3.41-3.41h1.12c1.88,0,3.41,1.52,3.41,3.41C47.98,99.35,46.45,100.87,44.57,100.87z
			 M44.57,87.68h-1.12c-1.89,0-3.41-1.53-3.41-3.41s1.52-3.4,3.41-3.4h1.12c1.88,0,3.41,1.52,3.41,3.4S46.45,87.68,44.57,87.68z"/>
		<path class="st7" d="M41.26,84.27c0,1.49,0.95,2.75,2.28,3.22v0.19c-1.89,0-3.41-1.53-3.41-3.41s1.52-3.4,3.41-3.4v0.19
			C42.21,81.52,41.26,82.78,41.26,84.27z"/>
		<path class="st8" d="M48.07,84.27c0,1.88-1.53,3.41-3.41,3.41c-0.39,0-0.77-0.07-1.12-0.19c-1.33-0.47-2.28-1.73-2.28-3.22
			s0.95-2.75,2.28-3.21c0.35-0.12,0.73-0.19,1.12-0.19C46.54,80.87,48.07,82.39,48.07,84.27z"/>
		<path class="st7" d="M41.26,97.47c0,1.49,0.95,2.75,2.28,3.21v0.19c-1.89,0-3.41-1.52-3.41-3.4c0-1.89,1.52-3.41,3.41-3.41v0.19
			C42.21,94.71,41.26,95.98,41.26,97.47z"/>
		<path class="st8" d="M48.07,97.47c0,1.88-1.53,3.4-3.41,3.4c-0.39,0-0.77-0.07-1.12-0.19c-1.33-0.46-2.28-1.72-2.28-3.21
			s0.95-2.76,2.28-3.22c0.35-0.12,0.73-0.19,1.12-0.19C46.54,94.06,48.07,95.58,48.07,97.47z"/>
		<path class="st7" d="M41.26,110.66c0,1.49,0.95,2.75,2.28,3.21v0.19c-1.89,0-3.41-1.52-3.41-3.4s1.52-3.41,3.41-3.41v0.19
			C42.21,107.91,41.26,109.17,41.26,110.66z"/>
		<path class="st8" d="M48.07,110.66c0,1.88-1.53,3.4-3.41,3.4c-0.39,0-0.77-0.07-1.12-0.19c-1.33-0.46-2.28-1.72-2.28-3.21
			s0.95-2.75,2.28-3.22c0.35-0.12,0.73-0.19,1.12-0.19C46.54,107.25,48.07,108.78,48.07,110.66z"/>
		<polygon class="st9" points="41.26,124.36 41.26,132.69 40.33,132.19 40.33,123.86 		"/>
		<polygon class="st10" points="49.92,124.28 49.92,132.61 41.26,132.69 41.26,124.36 		"/>
		<polyline class="st11" points="49.92,124.28 48.92,123.71 40.21,123.79 		"/>
	</g>
</g>
<g>
	<path class="st12" d="M135.85,79.81v3.33c0,2.07-4.82,3.75-10.76,3.75c-5.94,0-10.76-1.68-10.76-3.75v-3.33"/>
	<ellipse class="st12" cx="125.09" cy="79.81" rx="10.76" ry="3.75"/>
	<line class="st1" x1="136.23" y1="76.99" x2="136.23" y2="83.14"/>
	<ellipse class="st1" cx="125.08" cy="76.99" rx="11.15" ry="4.06"/>
	<path class="st1" d="M136.23,83.14c0,2.24-4.99,4.06-11.15,4.06s-11.15-1.82-11.15-4.06"/>
	<line class="st1" x1="113.93" y1="76.99" x2="113.93" y2="83.14"/>
	<ellipse class="st13" cx="125.09" cy="76.98" rx="10.76" ry="3.75"/>
</g>
<g>
	<path class="st12" d="M135.85,139.57v3.33c0,2.07-4.82,3.75-10.76,3.75c-5.94,0-10.76-1.68-10.76-3.75v-3.33"/>
	<ellipse class="st12" cx="125.09" cy="139.57" rx="10.76" ry="3.75"/>
	<line class="st1" x1="136.23" y1="136.75" x2="136.23" y2="142.9"/>
	<ellipse class="st1" cx="125.08" cy="136.75" rx="11.15" ry="4.06"/>
	<path class="st1" d="M136.23,142.9c0,2.24-4.99,4.06-11.15,4.06s-11.15-1.82-11.15-4.06"/>
	<line class="st1" x1="113.93" y1="136.75" x2="113.93" y2="142.9"/>
	<ellipse class="st13" cx="125.09" cy="136.74" rx="10.76" ry="3.75"/>
</g>
<g>
	<path class="st12" d="M135.85,183.28v3.33c0,2.07-4.82,3.75-10.76,3.75c-5.94,0-10.76-1.68-10.76-3.75v-3.33"/>
	<ellipse class="st12" cx="125.09" cy="183.28" rx="10.76" ry="3.75"/>
	<line class="st1" x1="136.23" y1="180.46" x2="136.23" y2="186.61"/>
	<ellipse class="st1" cx="125.08" cy="180.46" rx="11.15" ry="4.06"/>
	<path class="st1" d="M136.23,186.61c0,2.24-4.99,4.06-11.15,4.06s-11.15-1.82-11.15-4.06"/>
	<line class="st1" x1="113.93" y1="180.46" x2="113.93" y2="186.61"/>
	<ellipse class="st13" cx="125.09" cy="180.45" rx="10.76" ry="3.75"/>
</g>
</svg>
