<!-- Generator: Adobe Illustrator 24.1.0, SVG Export Plug-In  -->
<svg version="1.1" xmlns="http://www.w3.org/2000/svg" xmlns:xlink="http://www.w3.org/1999/xlink" x="0px" y="0px" width="59.95px"
	 height="59.94px" viewBox="0 0 59.95 59.94" style="enable-background:new 0 0 59.95 59.94;" xml:space="preserve">
<style type="text/css">
	.st0{fill:none;stroke:#9EC52E;stroke-width:6;stroke-miterlimit:10;}
	.st1{fill:none;stroke:#FFFFFF;stroke-width:5;stroke-miterlimit:10;}
	.st2{fill:none;stroke:#EEA500;stroke-width:6;stroke-miterlimit:10;}
	.st3{fill:none;stroke:#6CC9F3;stroke-width:6;stroke-miterlimit:10;}
	.st4{fill:none;stroke:#3D6D97;stroke-miterlimit:10;}
</style>
<defs>
</defs>
<g>
	<path class="st0" d="M5.12,40.47C3.75,37.24,3,33.7,3,29.97c0-5.59,1.7-10.78,4.61-15.08"/>
	<path class="st1" d="M53.85,42.53c-4.52,8.57-13.52,14.41-23.88,14.41c-11.17,0-20.76-6.79-24.85-16.47"/>
	<path class="st2" d="M56.95,29.97c0,4.54-1.12,8.81-3.1,12.56"/>
	<path class="st3" d="M52.78,15.56c2.64,4.17,4.17,9.11,4.17,14.41"/>
	<path class="st2" d="M45.06,7.6c3.09,2.09,5.73,4.8,7.73,7.96"/>
	<g>
		<circle class="st4" cx="29.97" cy="29.97" r="23.87"/>
		<circle class="st4" cx="29.97" cy="29.97" r="29.47"/>
	</g>
	<path class="st1" d="M7.61,14.89C12.45,7.71,20.66,3,29.97,3c5.59,0,10.78,1.7,15.08,4.61"/>
</g>
</svg>
