<!-- Generator: Adobe Illustrator 24.1.0, SVG Export Plug-In  -->
<svg version="1.1" xmlns="http://www.w3.org/2000/svg" xmlns:xlink="http://www.w3.org/1999/xlink" x="0px" y="0px"
	 width="174.07px" height="245.12px" viewBox="0 0 174.07 245.12" style="enable-background:new 0 0 174.07 245.12;"
	 xml:space="preserve">
<style type="text/css">
	.st0{fill:#F6E7C8;stroke:#8494A4;stroke-width:1.2344;stroke-miterlimit:10;}
	.st1{fill:none;stroke:#48348B;stroke-width:1.6409;stroke-miterlimit:10;}
	.st2{fill:none;stroke:#075292;stroke-width:0.8571;stroke-linecap:round;stroke-linejoin:round;stroke-miterlimit:10;}
</style>
<defs>
</defs>
<g>
	<ellipse class="st0" cx="87.03" cy="122.56" rx="84.2" ry="119.98"/>
	<ellipse class="st1" cx="87.03" cy="122.56" rx="86.21" ry="121.74"/>
	<path class="st2" d="M80.8,154.54c-8.14,9.81-13.08,23.7-7.11,34.84c1.75,3.26,4.6,6.23,8.33,7.06c5.25,1.16,10.7-2.42,12.93-7.09
		c2.23-4.68,1.9-10.1,0.86-15.14c-1.52-7.41-4.42-14.49-6.73-21.72c-8-25.02-8.79-52.11-2.26-77.51c0.76-2.94,1.65-5.94,3.55-8.37
		c1.78-2.27,4.32-3.89,6.27-6.03c4.25-4.67,5.13-11.94,1.91-17.31c-3.23-5.37-10.43-8.32-16.67-6.65
		C74.57,38.59,70,46.04,69.59,53.27c-0.4,7.24,2.55,14.26,6.03,20.7c8.71,16.16,20.97,30.49,28.65,47.11
		c5.77,12.51,8.81,26.08,10,39.7c1.21,13.88,0.18,28.93-8.73,39.97c-3.83,4.76-9.66,8.72-15.92,8.14
		c-6.08-0.56-10.85-5.17-14.35-9.93c-4.04-5.49-7.17-11.58-9.24-17.99c-1.33-4.11-2.15-8.82,0.16-12.51
		c1.93-3.08,5.62-4.72,9.24-5.7c8.01-2.16,16.54-1.9,24.64-3.74s16.39-6.71,18.16-14.47c1.25-5.5-1.23-11.43-5.63-15.18
		c-4.4-3.74-10.47-5.42-16.36-5.27c-8.34,0.2-16.16,3.76-24.32,5.42c-3.52,0.72-7.73,0.88-10.13-1.68
		c-1.51-1.61-1.88-3.88-2.18-6.02c-0.93-6.53-1.86-13.06-2.79-19.59c-0.73-5.09-1.45-10.22-1.26-15.36c0.09-2.34,0.44-4.82,2-6.63
		c2.37-2.73,6.61-2.99,10.32-2.81c5.16,0.24,10.32,0.89,15.47,0.55c5.15-0.34,10.43-1.78,14.2-5.14c3.99-3.56,5.86-8.99,5.51-14.2
		s-2.76-10.16-6.18-14.23c-3.43-4.09-8.82-7.58-14.11-6.2c-4.17,1.09-6.98,4.96-8.06,8.96c-1.13,4.17-0.74,8.57-0.23,12.85
		c3.23,27.22,11.05,55.13,3.21,81.48c-1.91,6.42-5.37,13.2-11.9,15.57c-1.04,0.38-2.23,0.63-3.26,0.21
		c-1.93-0.77-2.21-3.23-2.12-5.22c0.96-20.59,10.34-40.71,25.73-55.17c4.02-3.78,8.53-7.3,11.06-12.11
		c2.49-4.73,2.79-10.46,0.79-15.4"/>
</g>
</svg>
