<!-- Generator: Adobe Illustrator 24.1.0, SVG Export Plug-In  -->
<svg version="1.1" xmlns="http://www.w3.org/2000/svg" xmlns:xlink="http://www.w3.org/1999/xlink" x="0px" y="0px" width="242.3px"
	 height="263.17px" viewBox="0 0 242.3 263.17" style="enable-background:new 0 0 242.3 263.17;" xml:space="preserve">
<style type="text/css">
	.st0{fill:#EFEFEF;stroke:#231F20;stroke-width:0.5;stroke-miterlimit:10;}
	.st1{fill:#DBDBDA;stroke:#231F20;stroke-width:0.5;stroke-miterlimit:10;}
	.st2{fill:#C12336;stroke:#231F20;stroke-width:0.5;stroke-miterlimit:10;}
	.st3{fill:#98A598;stroke:#231F20;stroke-width:0.5;stroke-miterlimit:10;}
	.st4{fill:none;stroke:#231F20;stroke-width:0.5;stroke-miterlimit:10;}
	.st5{fill:#E62E2D;stroke:#231F20;stroke-width:0.5;stroke-miterlimit:10;}
	.st6{fill:#020203;}
	.st7{fill:#231F20;}
	.st8{fill:none;stroke:#231F20;stroke-miterlimit:10;}
</style>
<defs>
</defs>
<g>
	<path class="st0" d="M213.19,261.33l23.63-17.22c0,0,0.02-0.01,0.05-0.04c3.12-2.17,5.18-5.79,5.18-9.86V12.25c0-6.6-5.4-12-12-12
		h-195c-2.77,0-5.33,0.95-7.37,2.54C26.9,3.38,4.29,20.01,4.29,20.01"/>
	<path class="st1" d="M207.25,262.92h-195c-6.6,0-12-5.4-12-12V28.96c0-6.6,5.4-12,12-12h195c6.6,0,12,5.4,12,12v221.96
		C219.25,257.52,213.85,262.92,207.25,262.92z"/>
	<path class="st2" d="M166.76,196.07c0,0,5.46-1.62,5.87-1.74c0.86-0.15,1.74-0.23,2.64-0.23c8.61,0,15.59,6.98,15.59,15.59
		c0,7.44-5.21,13.67-12.19,15.22"/>
	<path class="st3" d="M187.25,149.55H30.75c-6.6,0-12-5.4-12-12V54.63c0-6.6,5.4-12,12-12h156.5c6.6,0,12,5.4,12,12v82.92
		C199.25,144.15,193.85,149.55,187.25,149.55z"/>
	<path class="st2" d="M35.83,196.07c0,0,5.46-1.62,5.87-1.74c0.86-0.15,1.74-0.23,2.64-0.23c8.61,0,15.59,6.98,15.59,15.59
		c0,7.44-5.21,13.67-12.19,15.22"/>
	<line class="st4" x1="43.4" y1="226.32" x2="48.91" y2="224.6"/>
	<path class="st2" d="M100.49,196.07c0,0,5.46-1.62,5.87-1.74c0.86-0.15,1.74-0.23,2.64-0.23c8.61,0,15.59,6.98,15.59,15.59
		c0,7.44-5.21,13.67-12.19,15.22"/>
	<line class="st4" x1="108.06" y1="226.32" x2="113.57" y2="224.6"/>
	<circle class="st5" cx="170.89" cy="211.11" r="15.59"/>
	<line class="st4" x1="174.33" y1="226.32" x2="179.84" y2="224.6"/>
	<g>
		<path class="st6" d="M34.34,97.06l1.64,2.05l-2.14,14.12l-3.4,2.7l-0.82-1.23l2.67-16.2L34.34,97.06z M34.43,113.65l16.03,0.03
			l2.31,3.08l-1.64,1.03H32.08l-1.03-1.23L34.43,113.65z M36.39,77l2.46,3.08l-2.46,14.36l-1.9,1.46l-1.79-2.08l2.67-16L36.39,77z
			 M38.44,75.77h19.25l1.2,1.2l-3.43,2.7H39.29l-2.29-3.08L38.44,75.77z M55.43,97.27l1.85,2.05l-2.67,16.05l-1.23,0.76l-2.4-2.9
			l2.43-14.15L55.43,97.27z M59.33,77.41l1.03,1.23l-2.46,15.59l-2.26,1.85L54,94.22l1.99-14.21L59.33,77.41z"/>
		<path class="st6" d="M69.55,97.06l1.64,2.05l-2.14,14.12l-3.4,2.7l-0.82-1.23l2.67-16.2L69.55,97.06z M69.64,113.65l16.03,0.03
			l2.31,3.08l-1.64,1.03H67.3l-1.03-1.23L69.64,113.65z M71.61,77l2.46,3.08l-2.46,14.36l-1.9,1.46l-1.79-2.08l2.67-16L71.61,77z
			 M73.66,75.77H92.9l1.2,1.2l-3.43,2.7H74.51l-2.29-3.08L73.66,75.77z M90.65,97.27l1.85,2.05l-2.67,16.05l-1.23,0.76l-2.4-2.9
			l2.43-14.15L90.65,97.27z M94.55,77.41l1.03,1.23l-2.46,15.59l-2.26,1.85l-1.64-1.85l1.99-14.21L94.55,77.41z"/>
	</g>
	<g>
		<path class="st6" d="M120.59,97.06l1.64,2.05l-2.14,14.12l-3.4,2.7l-0.82-1.23l2.67-16.2L120.59,97.06z M120.67,113.65l16.03,0.03
			l2.31,3.08l-1.64,1.03h-19.04l-1.03-1.23L120.67,113.65z M122.64,77l2.46,3.08l-2.46,14.36l-1.9,1.46l-1.79-2.08l2.67-16
			L122.64,77z M124.69,75.77h19.25l1.2,1.2l-3.43,2.7h-16.17l-2.29-3.08L124.69,75.77z M141.68,97.27l1.85,2.05l-2.67,16.05
			l-1.23,0.76l-2.4-2.9l2.43-14.15L141.68,97.27z M145.58,77.41l1.03,1.23l-2.46,15.59l-2.26,1.85l-1.64-1.85l1.99-14.21
			L145.58,77.41z"/>
		<path class="st6" d="M155.8,97.06l1.64,2.05l-2.14,14.12l-3.4,2.7l-0.82-1.23l2.67-16.2L155.8,97.06z M155.89,113.65l16.03,0.03
			l2.31,3.08l-1.64,1.03h-19.04l-1.03-1.23L155.89,113.65z M157.85,77l2.46,3.08l-2.46,14.36l-1.9,1.46l-1.79-2.08l2.67-16
			L157.85,77z M159.9,75.77h19.25l1.2,1.2l-3.43,2.7h-16.17l-2.29-3.08L159.9,75.77z M176.9,97.27l1.85,2.05l-2.67,16.05l-1.23,0.76
			l-2.4-2.9l2.43-14.15L176.9,97.27z M180.79,77.41l1.03,1.23l-2.46,15.59l-2.26,1.85l-1.64-1.85l1.99-14.21L180.79,77.41z"/>
	</g>
	<g>
		<g>
			<path class="st6" d="M97.31,74.55c0-0.9,0-1.89-0.02-2.71h1.03c0.02,0.36,0.06,1.26,0.04,1.87c0.44-1.05,1.41-2.12,3.15-2.12
				c1.47,0,2.62,0.73,3.04,2.08c0.52-1.09,1.57-2.08,3.42-2.08c1.62,0,3.3,0.92,3.3,3.84v6.91h-1.05v-6.78
				c0-1.41-0.5-2.94-2.46-2.94c-2.04,0-2.96,1.64-2.96,3.67v6.05h-1.03v-6.76c0-1.53-0.46-2.96-2.39-2.96
				c-2.04,0-3.02,1.81-3.02,3.95v5.77h-1.05V74.55z"/>
		</g>
	</g>
	<g>
		<g>
			<path class="st6" d="M184.81,79.44c0.36,1.36,1.32,2.18,2.98,2.18c1.87,0,2.62-0.86,2.62-2.04c0-1.2-0.5-1.78-2.86-2.35
				c-2.71-0.65-3.38-1.47-3.38-2.86c0-1.45,1.09-2.79,3.46-2.79c2.37,0,3.51,1.45,3.67,2.94h-1.05c-0.19-0.88-0.88-1.97-2.67-1.97
				c-1.83,0-2.35,0.9-2.35,1.74c0,0.97,0.5,1.45,2.58,1.95c2.96,0.71,3.7,1.68,3.7,3.25c0,1.91-1.55,3.09-3.76,3.09
				c-2.39,0-3.74-1.26-4.03-3.15H184.81z"/>
		</g>
	</g>
	<path class="st7" d="M199.25,62.42H18.75v-7.79c0,0,0.19-11.12,12-12h156.5c0,0,10.88,0,12,12V62.42z"/>
	<line class="st8" x1="18.75" y1="128.26" x2="199.25" y2="128.26"/>
	<circle class="st5" cx="104.63" cy="211.11" r="15.59"/>
	<circle class="st5" cx="39.97" cy="211.11" r="15.59"/>
	<path class="st7" d="M199.25,128.26H18.75v8.38c0,0-0.38,11.86,12,12.91h156.5c0,0,11.75-0.3,12-12.91V128.26z"/>
</g>
</svg>
