<!-- Generator: Adobe Illustrator 24.1.0, SVG Export Plug-In  -->
<svg version="1.1" xmlns="http://www.w3.org/2000/svg" xmlns:xlink="http://www.w3.org/1999/xlink" x="0px" y="0px"
	 width="218.65px" height="501.44px" viewBox="0 0 218.65 501.44" style="enable-background:new 0 0 218.65 501.44;"
	 xml:space="preserve">
<style type="text/css">
	.st0{fill:#BFBEBE;stroke:#231F20;stroke-width:0.5;stroke-miterlimit:10;}
	.st1{fill:#D7D8D8;stroke:#231F20;stroke-width:0.5;stroke-miterlimit:10;}
	.st2{fill:none;stroke:#231F20;stroke-width:0.5;stroke-miterlimit:10;}
	.st3{fill:#94312C;stroke:#231F20;stroke-width:0.5;stroke-miterlimit:10;}
	.st4{fill:none;stroke:#231F20;stroke-width:0.4492;stroke-miterlimit:10;}
	.st5{fill:#AEAEAF;stroke:#231F20;stroke-width:0.5;stroke-miterlimit:10;}
	.st6{fill:#CE5246;stroke:#231F20;stroke-width:0.5;stroke-miterlimit:10;}
	.st7{fill:#94312C;}
	.st8{fill:#EFEFEF;}
	.st9{fill:none;stroke:#EFEFEF;stroke-linecap:round;stroke-miterlimit:10;}
	.st10{fill:#878889;}
</style>
<defs>
</defs>
<g>
	<path class="st0" d="M173,448.19v28c0,13.8-38.68,25-86.38,25s-86.37-11.2-86.37-25l0.04-27.28c1.32,13.47,39.47,24.28,86.33,24.28
		C134.32,473.19,173,461.99,173,448.19z"/>
	<path class="st1" d="M173,448.19c0,13.8-38.68,25-86.38,25c-46.86,0-85.01-10.81-86.33-24.28c-0.03-0.24-0.04-0.48-0.04-0.72
		c0-5.77,6.87-11.08,18.21-15.31c-5.17,6.95-7.86,12.31-8.32,13.26c-0.34,0.67-0.52,1.35-0.52,2.05c0,9.66,34.47,17.5,77,17.5
		c42.53,0,77-7.84,77-17.5c0-0.67-0.16-1.32-0.48-1.96c-0.3-0.64-2.95-6.16-8.27-13.37C166.23,437.09,173,442.41,173,448.19z"/>
	<line class="st2" x1="0.29" y1="448.91" x2="0.29" y2="448.65"/>
	<path class="st0" d="M163.62,448.19c0,9.66-34.47,17.5-77,17.5c-42.53,0-77-7.84-77-17.5c0-0.7,0.18-1.38,0.52-2.05
		c0.46-0.95,3.15-6.31,8.32-13.26c8.49-11.41,23.65-27.1,46.6-34.51v2.56c0,3.53,9.65,6.38,21.56,6.38
		c11.91,0,21.56-2.85,21.56-6.38v-2.51c23.12,7.32,38.26,23.02,46.69,34.44c5.32,7.21,7.97,12.73,8.27,13.37
		C163.46,446.87,163.62,447.52,163.62,448.19z"/>
	<path class="st2" d="M65.31,398.29c-0.08,0.03-0.17,0.05-0.25,0.08"/>
	<path class="st2" d="M108.18,398.42c-0.09-0.03-0.18-0.06-0.27-0.09"/>
	<path class="st0" d="M105.52,375.06c0,6.91,1.19,12.5,2.66,12.5v13.37c0,3.53-9.65,6.38-21.56,6.38c-11.91,0-21.56-2.85-21.56-6.38
		v-43.5l11.64,4.51h19.84l11.64-4.51v5.13C106.71,362.56,105.52,368.16,105.52,375.06z"/>
	<path class="st0" d="M105.89,294.13l2.29,2.3v9.87c0,3.3-9.66,5.85-21.56,5.85c-11.9,0-21.54-2.67-21.54-5.98v-9.77l2.27-2.27
		c3.48-3.48,5.44-8.21,5.44-13.14v-20.62c0-5.43-2.38-10.59-6.5-14.13l-1.23-1.05l0.03-10.36c0.18,3.26,9.75,5.88,21.53,5.88
		c11.9,0,21.54-2.67,21.54-5.98l0.02,10.46l-1.23,1.05c-4.12,3.54-6.5,8.7-6.5,14.13v20.62
		C100.45,285.92,102.41,290.65,105.89,294.13z"/>
	<path class="st2" d="M65.09,234.83c-0.01-0.03-0.01-0.07-0.01-0.1c0-0.05,0-0.11,0.01-0.16"/>
	<path class="st2" d="M67.87,231.79c-0.03,0.01-0.06,0.03-0.08,0.04"/>
	<path class="st1" d="M108.16,234.73c0,3.31-9.64,5.98-21.54,5.98c-11.78,0-21.35-2.62-21.53-5.88v-0.26
		c0.09-0.99,1.06-1.92,2.7-2.74v2.9c0,2.4,8.43,4.35,18.83,4.35c10.4,0,18.83-1.95,18.83-4.35v-2.9
		C107.18,232.69,108.16,233.68,108.16,234.73z"/>
	<path class="st2" d="M105.45,231.83c-0.02-0.01-0.03-0.02-0.05-0.03"/>
	<path class="st0" d="M108.16,6.23V65.5c0,1.05-0.98,2.05-2.71,2.91c-3.67,1.83-10.73,3.07-18.83,3.07c-8.1,0-15.16-1.24-18.83-3.07
		c-1.73-0.86-2.71-1.86-2.71-2.91V6.23c0,3.3,9.64,5.98,21.54,5.98C98.52,12.21,108.16,9.53,108.16,6.23z"/>
	<ellipse class="st1" cx="86.62" cy="6.23" rx="21.54" ry="5.98"/>
	<ellipse class="st0" cx="86.62" cy="6.23" rx="18.83" ry="4.34"/>
	<path class="st0" d="M105.45,68.41v166.32c0,2.4-8.43,4.35-18.83,4.35c-10.4,0-18.83-1.95-18.83-4.35V68.41
		c3.67,1.83,10.73,3.07,18.83,3.07C94.72,71.48,101.78,70.24,105.45,68.41z"/>
	<path class="st0" d="M158.91,375.06c0,6.9-1.05,12.5-2.35,12.5h-48.38c-1.47,0-2.66-5.59-2.66-12.5c0-6.9,1.19-12.5,2.66-12.5
		h48.38C157.86,362.56,158.91,368.15,158.91,375.06z"/>
	<path class="st3" d="M160.08,375.06c0,7.83-1.58,14.19-3.52,14.19c-0.61,0-1.18-0.62-1.68-1.69h1.68c1.3,0,2.35-5.6,2.35-12.5
		c0-6.91-1.05-12.5-2.35-12.5h-1.65c0.49-1.03,1.06-1.69,1.65-1.69C158.5,360.87,160.08,367.22,160.08,375.06z"/>
	<rect x="76.7" y="317.02" class="st0" width="19.84" height="44.92"/>
	<path class="st4" d="M100.45,296.4"/>
	<path class="st5" d="M115.04,309.85c0,0,0,44.65,0,44.92l-6.86,2.66l-11.64,4.51v-44.92L115.04,309.85z"/>
	<path class="st1" d="M115.04,309.85l-18.5,7.17H76.7l-18.5-7.17l6.88-6.34v2.66c0,3.31,9.64,5.98,21.54,5.98
		c11.9,0,21.56-2.55,21.56-5.85v-2.77L115.04,309.85z"/>
	<line class="st4" x1="108.18" y1="303.53" x2="108.16" y2="303.51"/>
	<polygon class="st5" points="76.7,317.02 76.7,361.94 65.06,357.43 58.2,354.77 58.2,309.85 	"/>
	<path class="st4" d="M72.79,296.4"/>
	<line class="st4" x1="65.17" y1="303.43" x2="65.08" y2="303.51"/>
	<path class="st1" d="M72.79,260.37v20.62c0,4.93-1.96,9.66-5.44,13.14l-2.27,2.27l-0.02-51.21l1.23,1.05
		C70.41,249.78,72.79,254.94,72.79,260.37z"/>
	<path class="st1" d="M108.18,245.19v51.24l-2.29-2.3c-3.48-3.48-5.44-8.21-5.44-13.14v-20.62c0-5.43,2.38-10.59,6.5-14.13
		L108.18,245.19z"/>
	<path class="st6" d="M218.4,375.06c0,7.83-1.58,14.19-3.53,14.19h-58.31c1.94,0,3.52-6.36,3.52-14.19c0-7.84-1.58-14.19-3.52-14.19
		h58.31C216.82,360.87,218.4,367.22,218.4,375.06z"/>
	<path class="st7" d="M158.53,387.47l57.78,0c0,0-0.6,1.56-1.46,1.56L157.6,389C157.6,389,158.03,388.67,158.53,387.47z"/>
	<path class="st8" d="M67.94,60.99h-0.3c-0.2,0-0.36-0.16-0.36-0.36v-42.8c0-0.2,0.16-0.36,0.36-0.36h0.3c0.2,0,0.36,0.16,0.36,0.36
		v42.8C68.3,60.83,68.14,60.99,67.94,60.99z"/>
	<path class="st9" d="M12.14,448.65c0,0,21.67-37,50.67-46.17"/>
	<path class="st8" d="M112.04,364.23v-0.16c0-0.16,0.13-0.3,0.3-0.3h39.76c0.16,0,0.3,0.13,0.3,0.3v0.16c0,0.16-0.13,0.3-0.3,0.3
		h-39.76C112.17,364.53,112.04,364.39,112.04,364.23z"/>
	<path class="st8" d="M182.93,362.67v-0.23c0-0.14,0.12-0.26,0.26-0.26h31.09c0.14,0,0.26,0.12,0.26,0.26v0.23
		c0,0.14-0.12,0.26-0.26,0.26H183.2C183.05,362.93,182.93,362.82,182.93,362.67z"/>
	<path class="st10" d="M108.04,386.94L108.04,386.94c0-0.16,0.13-0.29,0.28-0.29h48.14c0.16,0,0.28,0.13,0.28,0.28v0
		c0,0.16-0.13,0.28-0.28,0.28h-48.14C108.17,387.22,108.04,387.09,108.04,386.94z"/>
</g>
</svg>
