<!-- Generator: Adobe Illustrator 24.1.0, SVG Export Plug-In  -->
<svg version="1.1" xmlns="http://www.w3.org/2000/svg" xmlns:xlink="http://www.w3.org/1999/xlink" x="0px" y="0px"
	 width="244.06px" height="210.25px" viewBox="0 0 244.06 210.25" style="enable-background:new 0 0 244.06 210.25;"
	 xml:space="preserve">
<style type="text/css">
	.st0{fill:#A4D7DC;}
	.st1{fill:#6DC3BF;}
	.st2{fill:none;}
	.st3{fill:#C5E5ED;}
	.st4{fill:#DAEFF4;}
</style>
<defs>
</defs>
<g>
	<g>
		<path class="st0" d="M233.51,200.97l-7.06-42.99c-0.08-0.47-0.03-0.96,0.13-1.41c1.4-3.8,8.21-24.31,10.2-70.34
			c0.03-0.65,0.13-1.3,0.29-1.93c1.66-6.25,10.38-38.34,5.52-47.04c-0.8-1.43-2.78-1.81-3.99-0.7c-2.76,2.53-5.47,11.09-11.45,39.07
			c-0.14,0.67-0.46,1.31-0.97,1.76c-0.66,0.59-1.42,0.04-1.44-2.42c0,0,2.99-50-1.47-60.67c-0.58-1.38-2.35-1.91-3.48-0.93
			c-2.98,2.58-5.07,13.39-9.8,55.35c0,0-1.38,3.38-2.35,0c-0.62-2.14-0.65-55.83-7.35-67.45c-0.94-1.63-3.26-1.72-4.34-0.18
			c-2.8,3.99-4.14,16.78-4.49,65.02c-0.01,0.73-0.04,1.48-0.3,2.16c-0.51,1.36-1.88,1.9-3.08-0.52c-0.3-0.6-0.36-1.3-0.41-1.96
			l-2.85-39.73c0,0-0.79-14.9-5.64-19.89c-1.4-1.44-3.69-1.23-4.83,0.43c-1.71,2.49-2.83,7.1-2.36,20.13l1.96,43.14
			c0.03,0.57,0.04,1.14,0.03,1.72l-0.14,18.49c-0.01,1.69-0.51,3.33-1.45,4.73c-1.29,1.92-3.53,4.23-7.03,4.79
			c-1.05,0.17-2.12-0.23-2.79-1.07c-1.81-2.26-6.28-7.38-13.22-12.46c-1.58-1.16-3.3-2.14-5.09-2.93
			c-4.52-1.99-13.37-5.27-17.94-2.8c-1.26,0.68-1.77,2.25-1.15,3.54c0.72,1.5,2.43,3.76,6.4,6.71c0,0,11.75,8.88,16.88,19.75
			c0,0,11.89,30.48,24.3,42.35c0.49,0.47,0.9,1,1.21,1.6l1.62,3.14c0.25,0.48,0.39,1.01,0.41,1.54l1.94,41.26
			c0.04,0.89,0.54,1.7,1.32,2.13c5.76,3.16,30.38,15.07,52.85,1.62C233.14,203.36,233.71,202.17,233.51,200.97z"/>
		<path class="st1" d="M176.84,5.21c-0.2,0.01-0.41,0.03-0.61,0.08c0.13,0.09,5.04,3.27,6.18,23.06l2.24,30.79
			c0,0,0.7,8.21,3.94,9.47c-0.3-0.6-0.81-1.09-0.93-2.82l-2.85-39.73c0,0-0.79-14.9-5.64-19.89C178.54,5.49,177.68,5.18,176.84,5.21
			z"/>
		<path class="st1" d="M173.08,153.04c-0.11-0.12-0.21-0.23-0.33-0.34c-12.4-11.87-24.3-42.35-24.3-42.35
			c-1.96-4.16-4.89-8.03-7.76-11.22c0.05,0.03,9.62,5.68,15.26,16.72l15.57,28.87c0.31,0.57,0.62,1.14,0.97,1.69
			c0.7,1.11,2.31,4.18,0.89,7C173.29,153.28,173.19,153.16,173.08,153.04z"/>
		<path class="st2" d="M242.83,185.46"/>
		<path class="st3" d="M175.68,73.75l-0.92,60.93c-0.04,2.52,0.55,5.03,1.78,7.23c3.13,5.58,10.65,14.32,25.25,8.4
			c1.96-0.79,3.7-2.04,5.06-3.66c4.91-5.88,16.42-22.98,14.51-52.42c-0.09-1.33-0.72-2.56-1.73-3.43
			c-4.85-4.2-20.53-16.37-42.03-18.76C176.58,71.92,175.69,72.73,175.68,73.75z"/>
		<path class="st3" d="M181.13,162.15l1.04,37.65c0.02,0.78,0.68,1.39,1.46,1.35l12.36-0.62c1.51-0.08,2.99-0.48,4.31-1.24
			c2.69-1.55,6.43-5.05,7.67-12.82c0,0,1.99-11.46-2.63-25.33c-0.28-0.85-1.1-1.4-1.99-1.37l-20.57,0.65
			C181.83,160.45,181.1,161.22,181.13,162.15z"/>
		
			<ellipse transform="matrix(0.2452 -0.9695 0.9695 0.2452 120.3639 271.7715)" class="st3" cx="234.72" cy="58.59" rx="19.18" ry="1.39"/>
		<ellipse transform="matrix(0.1 -0.995 0.995 0.1 152.9028 254.7729)" class="st3" cx="217.29" cy="42.86" rx="24.2" ry="1.7"/>
		<ellipse class="st3" cx="196.29" cy="40.56" rx="1.7" ry="28.75"/>
		
			<ellipse transform="matrix(0.9985 -0.0554 0.0554 0.9985 -1.6615 9.8637)" class="st3" cx="176.97" cy="34.88" rx="1.36" ry="24.2"/>
		<path class="st3" d="M126.77,81.08c3.36-0.28,19.87-0.84,30.38,13.98c0.18,0.25-0.11,0.57-0.38,0.43
			c-2.94-1.57-11.35-5.96-16.94-7.98c-1.12-0.41-2.27-0.7-3.45-0.9c-2.91-0.5-9.79-1.97-10.24-4.79
			C126.09,81.45,126.39,81.11,126.77,81.08z"/>
		<path class="st1" d="M198.15,0.21c0.67,0.99,3.32,5.94,4.33,23.39l2.16,29.67c0.05,0.62,0.08,1.25,0.1,1.87
			c0.1,2.88,0.63,13.1,3.23,14.68c-0.19-0.64-0.32-1.1-0.32-1.1c-0.62-2.14-0.65-55.83-7.35-67.45c-0.5-0.88-1.41-1.31-2.3-1.28
			C198.01,0.02,198.06,0.08,198.15,0.21z"/>
		<path class="st1" d="M221.85,14.01c-0.19-0.92-0.33-1.09-0.33-1.09c0.75,0.13,1.43,0.63,1.75,1.39
			c4.46,10.67,1.47,60.67,1.47,60.67s-0.05,0.89-0.13,2.14c-2.64-2.05-2.46-10.05-2.46-10.05l0.67-31.42
			C222.86,21.31,222.25,15.96,221.85,14.01z"/>
		<path class="st1" d="M242.95,37.98c4.06,9.62-4.25,40.22-5.87,46.32c-0.17,0.63-0.26,1.28-0.29,1.93
			c-2,46.03-8.8,66.54-10.2,70.34c-0.17,0.45-0.21,0.93-0.13,1.41l7.06,42.99c0.2,1.2-0.37,2.39-1.41,3.02
			c-17.41,10.42-36.11,5.62-46.33,1.45c0,0,19.21,0.26,19.21,0.26c2.1,0.03,4.11-0.83,5.53-2.38c1.46-1.59,3.07-4.13,4.03-8.09
			c0.42-1.75,0.61-3.54,0.65-5.34l0.62-24.51c0.02-0.75-0.14-1.49-0.5-2.15c-1.02-1.91-3.9-5.39-11.36-5.93
			c0,0,14.75-5.38,18.81-16.12c0,0,7.23-12.57,9.06-40.42c0,0,1.06-14.64-1-16.77c0,0,4.38-0.81,7.25-13.69c0,0,6-28.85,3.19-34.18
			c0.55,0.21,1.02,0.6,1.33,1.15C242.73,37.49,242.84,37.73,242.95,37.98z"/>
		<path class="st4" d="M212.63,116.58c0.47-0.41,1.19-0.42,1.63,0.01c0.37,0.36,0.66,0.83,0.65,1.25
			c-0.33,16.38-7.68,24.75-10.44,28.04c-0.74,0.89-1.68,1.58-2.75,2.02c-8.21,3.37-12.43-1.54-14.19-4.66
			c-0.69-1.23-1.02-2.63-1-4.04L212.63,116.58z"/>
	</g>
	<g>
		<path class="st0" d="M10.54,200.97l7.06-42.99c0.08-0.47,0.03-0.96-0.13-1.41c-1.4-3.8-8.21-24.31-10.2-70.34
			c-0.03-0.65-0.13-1.3-0.29-1.93C5.32,78.05-3.4,45.96,1.46,37.26c0.8-1.43,2.78-1.81,3.99-0.7c2.76,2.53,5.47,11.09,11.45,39.07
			c0.14,0.67,0.46,1.31,0.97,1.76c0.66,0.59,1.42,0.04,1.44-2.42c0,0-2.99-50,1.47-60.67c0.58-1.38,2.35-1.91,3.48-0.93
			c2.98,2.58,5.07,13.39,9.8,55.35c0,0,1.38,3.38,2.35,0c0.62-2.14,0.65-55.83,7.35-67.45c0.94-1.63,3.26-1.72,4.34-0.18
			c2.8,3.99,4.14,16.78,4.49,65.02c0.01,0.73,0.04,1.48,0.3,2.16c0.5,1.36,1.88,1.9,3.08-0.52c0.3-0.6,0.36-1.3,0.41-1.96
			l2.85-39.73c0,0,0.79-14.9,5.64-19.89c1.4-1.44,3.69-1.23,4.83,0.43c1.71,2.49,2.83,7.1,2.36,20.13L70.1,69.87
			c-0.03,0.57-0.04,1.14-0.03,1.72l0.14,18.49c0.01,1.69,0.51,3.33,1.45,4.73c1.29,1.92,3.53,4.23,7.03,4.79
			c1.05,0.17,2.12-0.23,2.79-1.07c1.81-2.26,6.28-7.38,13.22-12.46c1.58-1.16,3.3-2.14,5.09-2.93c4.52-1.99,13.37-5.27,17.94-2.8
			c1.26,0.68,1.77,2.25,1.15,3.54c-0.72,1.5-2.43,3.76-6.4,6.71c0,0-11.75,8.88-16.88,19.75c0,0-11.89,30.48-24.3,42.35
			c-0.49,0.47-0.9,1-1.21,1.6l-1.62,3.14c-0.25,0.48-0.39,1.01-0.41,1.54l-1.94,41.26c-0.04,0.89-0.54,1.7-1.32,2.13
			c-5.76,3.16-30.38,15.07-52.85,1.62C10.91,203.36,10.35,202.17,10.54,200.97z"/>
		<path class="st1" d="M67.21,5.21c0.2,0.01,0.41,0.03,0.61,0.08c-0.13,0.09-5.04,3.27-6.18,23.06l-2.24,30.79
			c0,0-0.7,8.21-3.94,9.47c0.3-0.6,0.81-1.09,0.93-2.82l2.85-39.73c0,0,0.79-14.9,5.64-19.89C65.52,5.49,66.37,5.18,67.21,5.21z"/>
		<path class="st1" d="M70.98,153.04c0.11-0.12,0.21-0.23,0.33-0.34c12.4-11.87,24.3-42.35,24.3-42.35
			c1.96-4.16,4.89-8.03,7.76-11.22c-0.05,0.03-9.62,5.68-15.26,16.72l-15.57,28.87c-0.31,0.57-0.62,1.14-0.97,1.69
			c-0.7,1.11-2.31,4.18-0.89,7C70.76,153.28,70.87,153.16,70.98,153.04z"/>
		<path class="st2" d="M1.23,185.46"/>
		<path class="st3" d="M68.38,73.75l0.92,60.93c0.04,2.52-0.55,5.03-1.78,7.23c-3.13,5.58-10.65,14.32-25.25,8.4
			c-1.96-0.79-3.7-2.04-5.06-3.66c-4.91-5.88-16.42-22.98-14.51-52.42c0.09-1.33,0.72-2.56,1.73-3.43
			c4.85-4.2,20.53-16.37,42.03-18.76C67.48,71.92,68.36,72.73,68.38,73.75z"/>
		<path class="st3" d="M62.93,162.15l-1.04,37.65c-0.02,0.78-0.68,1.39-1.46,1.35l-12.36-0.62c-1.51-0.08-2.99-0.48-4.31-1.24
			c-2.69-1.55-6.43-5.05-7.67-12.82c0,0-1.99-11.46,2.63-25.33c0.28-0.85,1.1-1.4,1.99-1.37l20.57,0.65
			C62.23,160.45,62.96,161.22,62.93,162.15z"/>
		
			<ellipse transform="matrix(0.9695 -0.2452 0.2452 0.9695 -14.0815 4.0784)" class="st3" cx="9.34" cy="58.59" rx="1.39" ry="19.18"/>
		<ellipse transform="matrix(0.995 -0.1 0.1 0.995 -4.1538 2.893)" class="st3" cx="26.77" cy="42.86" rx="1.7" ry="24.2"/>
		<ellipse class="st3" cx="47.77" cy="40.56" rx="1.7" ry="28.75"/>
		
			<ellipse transform="matrix(0.0554 -0.9985 0.9985 0.0554 28.5407 99.9322)" class="st3" cx="67.09" cy="34.88" rx="24.2" ry="1.36"/>
		<path class="st3" d="M117.28,81.08c-3.36-0.28-19.87-0.84-30.38,13.98c-0.18,0.25,0.11,0.57,0.38,0.43
			c2.94-1.57,11.35-5.96,16.94-7.98c1.12-0.41,2.27-0.7,3.45-0.9c2.91-0.5,9.79-1.97,10.24-4.79
			C117.97,81.45,117.66,81.11,117.28,81.08z"/>
		<path class="st1" d="M45.91,0.21c-0.67,0.99-3.32,5.94-4.33,23.39l-2.16,29.67c-0.05,0.62-0.08,1.25-0.1,1.87
			c-0.1,2.88-0.63,13.1-3.23,14.68c0.19-0.64,0.32-1.1,0.32-1.1c0.62-2.14,0.65-55.83,7.35-67.45c0.5-0.88,1.41-1.31,2.3-1.28
			C46.05,0.02,46,0.08,45.91,0.21z"/>
		<path class="st1" d="M22.21,14.01c0.19-0.92,0.33-1.09,0.33-1.09c-0.75,0.13-1.43,0.63-1.75,1.39
			c-4.46,10.67-1.47,60.67-1.47,60.67s0.05,0.89,0.13,2.14c2.64-2.05,2.46-10.05,2.46-10.05l-0.67-31.42
			C21.2,21.31,21.81,15.96,22.21,14.01z"/>
		<path class="st1" d="M1.1,37.98C-2.95,47.6,5.36,78.21,6.98,84.3c0.17,0.63,0.26,1.28,0.29,1.93c2,46.03,8.8,66.54,10.2,70.34
			c0.17,0.45,0.21,0.93,0.13,1.41l-7.06,42.99c-0.2,1.2,0.37,2.39,1.41,3.02c17.41,10.42,36.11,5.62,46.33,1.45
			c0,0-19.21,0.26-19.21,0.26c-2.1,0.03-4.11-0.83-5.53-2.38c-1.46-1.59-3.07-4.13-4.03-8.09c-0.42-1.75-0.61-3.54-0.65-5.34
			l-0.62-24.51c-0.02-0.75,0.14-1.49,0.5-2.15c1.02-1.91,3.9-5.39,11.36-5.93c0,0-14.75-5.38-18.81-16.12c0,0-7.23-12.57-9.06-40.42
			c0,0-1.06-14.64,1-16.77c0,0-4.38-0.81-7.25-13.69c0,0-6-28.85-3.19-34.18c-0.55,0.21-1.02,0.6-1.33,1.15
			C1.33,37.49,1.21,37.73,1.1,37.98z"/>
		<path class="st4" d="M31.43,116.58c-0.47-0.41-1.19-0.42-1.63,0.01c-0.37,0.36-0.66,0.83-0.65,1.25
			c0.33,16.38,7.68,24.75,10.44,28.04c0.74,0.89,1.68,1.58,2.75,2.02c8.21,3.37,12.43-1.54,14.19-4.66c0.69-1.23,1.02-2.63,1-4.04
			L31.43,116.58z"/>
	</g>
</g>
</svg>
