<!-- Generator: Adobe Illustrator 24.1.0, SVG Export Plug-In  -->
<svg version="1.1" xmlns="http://www.w3.org/2000/svg" xmlns:xlink="http://www.w3.org/1999/xlink" x="0px" y="0px"
	 width="301.87px" height="204.59px" viewBox="0 0 301.87 204.59" style="enable-background:new 0 0 301.87 204.59;"
	 xml:space="preserve">
<style type="text/css">
	.st0{fill:#F8B582;}
	.st1{fill:#EC8C56;}
	.st2{fill:#FCD5BC;}
</style>
<defs>
</defs>
<g>
	<g>
		<path class="st0" d="M97.08,129.13c0,0-0.03-30.85,1.47-35.93c2.11-7.15,9.45-38.77,15.75-70.47c2.39-12.03-6.94-19.41-12.59-5
			c-4.65,11.87-11.13,44-16.11,57.57c-2.76,7.53-5.43,4.73-5.59,3.36c-1.82-15.82-2.44-50.08-1.49-63.92
			c1.22-17.83-12-20.42-14.7-2.71c-0.67,4.4-0.45,21.99-1.01,36.5c-0.47,11.96-0.24,19.99-1.08,25.66
			c-1.48,10.01-3.47,14.32-7.56,4.66C47.98,64.25,40.7,28.3,39.09,23.97c-7.98-21.34-15.72-12.69-13.93,2.02
			c0.87,7.15,9.86,41.12,14.26,60.66c0.69,3.08-1.13,6.18-4.09,1.23l0.38,13.17l4.94,38.85L97.08,129.13z"/>
		<path class="st0" d="M134.21,86.65c-10.78,2.79-25.26,26.13-29.38,30c-4.22,3.96-7.61,2.38-7.56-4.28
			c0.09-12.14-13.69,4.44-21.55,5.52c-0.6,0.08-1.1-0.02-1.52-0.24c-1.63,0.33-3.35,0.74-5.01,1.21c-8.31,2.37-12.9,9.04-12.9,9.04
			s-5.4-11.7-16.22-31.57c-3.31-6.07-11.13-19.61-14.37-25.31c-6.89-12.12-13.06-22.2-16.08-25.22C4.3,40.49-3.55,44.87,1.77,55.98
			c7.26,15.16,19.38,37.75,23.12,49.26c2.94,9.04,4.35,27.79,7.33,38.84c2.98,11.04,5.96,23.82,6.45,29.93c0.5,6.11,0,30.58,0,30.58
			h34.56h2.83c0.11-10.66,0.66-26.4,2.89-29.87c3.44-5.36,16.76-13.07,18.53-14.64v0c2.71-2.34,6.11-4.99,10.36-8.14
			c5.22-3.87,10.9-8.42,13.57-19.21c3.38-13.64,12.57-29.03,28.34-39.53C149.43,90.37,147.83,83.12,134.21,86.65z"/>
		<path class="st1" d="M78.97,174.72c-2.23,3.47-2.78,19.2-2.89,29.87h1.72H88.3c0,0,0.51-23.97,2-28.97
			c0.99-3.34,2.21-11.22,7.2-15.53v0C95.73,161.66,82.42,169.36,78.97,174.72z"/>
		<path class="st1" d="M99.61,29.44c0,0,0.89,1.97,4.44,3.5c3.54,1.53,6,0.31,6,0.31s-1.96-0.48-5.22-1.91
			C101.57,29.92,99.61,29.44,99.61,29.44z"/>
		<path class="st1" d="M65.9,24.36c0,0,1.37,1.6,5.15,1.91c3.79,0.32,5.82-1.65,5.82-1.65s-2,0.18-5.49-0.13
			C67.9,24.19,65.9,24.36,65.9,24.36z"/>
		<path class="st1" d="M92.39,59.01c0,0,1.53,1.27,5.1,2.72c3.57,1.45,5.11,0.77,5.11,0.77s-1.08-1.02-4.36-2.38
			C94.96,58.77,92.39,59.01,92.39,59.01z"/>
		<path class="st1" d="M65.55,57.22c0,0,1.83,0.59,5.63,0.56c3.8-0.03,5.03-1.27,5.03-1.27s-1.33-0.54-4.83-0.53
			C67.88,55.99,65.55,57.22,65.55,57.22z"/>
		<path class="st1" d="M28.78,36.15c0,0,1.71,1.1,5.43,0.21c3.71-0.89,5.17-3.42,5.17-3.42s-1.87,0.8-5.3,1.6
			C30.66,35.35,28.78,36.15,28.78,36.15z"/>
		<path class="st1" d="M8.79,64.97c0,0,0.48,0.47,3.56-2.01c3.09-2.48,3.52-3.97,3.52-3.97s-1.43,0.1-4.28,2.37
			C8.74,63.63,8.79,64.97,8.79,64.97z"/>
		<path class="st1" d="M17.81,82.06c0,0,0.48,0.47,3.56-2.01c3.08-2.48,3.52-3.97,3.52-3.97s-1.43,0.1-4.28,2.37
			C17.76,80.71,17.81,82.06,17.81,82.06z"/>
		<path class="st1" d="M36.43,66.24c0,0,1.9,0.16,5.61-0.73c3.71-0.89,4.69-2.39,4.69-2.39s-1.4-0.23-4.82,0.58
			C38.49,64.5,36.43,66.24,36.43,66.24z"/>
		<path class="st1" d="M52.64,74.92c0,0-0.22,10.78,3.2,11.66c3.58,0.92,4.98-7.4,4.98-7.4s-2.9,4.85-4.78,2.26
			C54.16,78.86,52.64,74.92,52.64,74.92z"/>
		<path class="st1" d="M79.37,72.14c0,0-1.65,10.08,1.73,11.13c3.54,1.11,4.5-7.96,4.5-7.96s-1.93,5.38-3.44,3.77
			C80.01,76.78,79.37,72.14,79.37,72.14z"/>
		<path class="st1" d="M34.08,85.68c0,0,2.07,8.47,4.21,7.44c2.14-1.03,1.13-6.47,1.13-6.47s-0.49,2.93-1.69,2.79
			C36.53,89.29,34.08,85.68,34.08,85.68z"/>
		<path class="st1" d="M39.66,168.1c0,0,3.94,5.36,9.13,5.81c5.19,0.45,7.95,0.89,7.95,0.89s-5.6,3.44-10.75,0.75
			C40.85,172.85,39.66,168.1,39.66,168.1z"/>
		<path class="st1" d="M35.34,114.52c0,0,14.1-4.56,25.48-8.59c11.38-4.02,23.29-13.59,23.29-13.59s-2.99,5.4-13.24,11.33
			c-8.75,5.08-13.83,7.31-22.68,10C40.3,116.07,35.34,114.52,35.34,114.52z"/>
		<path class="st1" d="M86.79,103.68c0,0-14.1,6.17-22.31,12c-10.48,7.46-17.74,21.08-17.74,21.08s12.91-14.1,19.47-18.76
			C72.77,113.33,86.79,103.68,86.79,103.68z"/>
		<path class="st2" d="M140.06,101.02l-1.2-1.93c0,0,8.38-7.45,10.91-5.88C147.78,95.07,140.06,101.02,140.06,101.02z"/>
	</g>
	<g>
		<path class="st0" d="M204.79,129.13c0,0,0.03-30.85-1.47-35.93c-2.11-7.15-9.45-38.77-15.75-70.47c-2.39-12.03,6.94-19.41,12.59-5
			c4.65,11.87,11.13,44,16.11,57.57c2.76,7.53,5.43,4.73,5.59,3.36c1.82-15.82,2.44-50.08,1.49-63.92
			c-1.22-17.83,12-20.42,14.7-2.71c0.67,4.4,0.45,21.99,1.01,36.5c0.47,11.96,0.24,19.99,1.08,25.66
			c1.48,10.01,3.47,14.32,7.56,4.66c6.19-14.61,13.46-50.56,15.08-54.89c7.98-21.34,15.72-12.69,13.93,2.02
			c-0.87,7.15-9.86,41.12-14.26,60.66c-0.69,3.08,1.13,6.18,4.09,1.23l-0.38,13.17l-4.94,38.85L204.79,129.13z"/>
		<path class="st0" d="M167.66,86.65c10.78,2.79,25.26,26.13,29.38,30c4.22,3.96,7.61,2.38,7.56-4.28
			c-0.09-12.14,13.69,4.44,21.55,5.52c0.6,0.08,1.1-0.02,1.52-0.24c1.63,0.33,3.35,0.74,5.01,1.21c8.31,2.37,12.9,9.04,12.9,9.04
			s5.4-11.7,16.22-31.57c3.31-6.07,11.13-19.61,14.37-25.31c6.89-12.12,13.06-22.2,16.08-25.22c5.32-5.31,13.17-0.94,7.85,10.17
			c-7.26,15.16-19.38,37.75-23.12,49.26c-2.94,9.04-4.35,27.79-7.33,38.84c-2.98,11.04-5.96,23.82-6.45,29.93
			c-0.5,6.11,0,30.58,0,30.58h-34.56h-2.83c-0.11-10.66-0.66-26.4-2.89-29.87c-3.44-5.36-16.76-13.07-18.53-14.64v0
			c-2.71-2.34-6.11-4.99-10.36-8.14c-5.22-3.87-10.9-8.42-13.57-19.21c-3.38-13.64-12.57-29.03-28.34-39.53
			C152.44,90.37,154.04,83.12,167.66,86.65z"/>
		<path class="st1" d="M222.9,174.72c2.23,3.47,2.78,19.2,2.89,29.87h-1.72h-10.51c0,0-0.51-23.97-2-28.97
			c-0.99-3.34-2.21-11.22-7.2-15.53v0C206.14,161.66,219.46,169.36,222.9,174.72z"/>
		<path class="st1" d="M202.26,29.44c0,0-0.89,1.97-4.44,3.5c-3.54,1.53-6,0.31-6,0.31s1.96-0.48,5.22-1.91
			C200.31,29.92,202.26,29.44,202.26,29.44z"/>
		<path class="st1" d="M235.97,24.36c0,0-1.37,1.6-5.15,1.91c-3.79,0.32-5.82-1.65-5.82-1.65s2,0.18,5.49-0.13
			C233.97,24.19,235.97,24.36,235.97,24.36z"/>
		<path class="st1" d="M209.48,59.01c0,0-1.53,1.27-5.1,2.72c-3.57,1.45-5.11,0.77-5.11,0.77s1.08-1.02,4.36-2.38
			C206.91,58.77,209.48,59.01,209.48,59.01z"/>
		<path class="st1" d="M236.33,57.22c0,0-1.83,0.59-5.63,0.56c-3.8-0.03-5.03-1.27-5.03-1.27s1.33-0.54,4.83-0.53
			C233.99,55.99,236.33,57.22,236.33,57.22z"/>
		<path class="st1" d="M273.09,36.15c0,0-1.71,1.1-5.43,0.21c-3.71-0.89-5.17-3.42-5.17-3.42s1.87,0.8,5.3,1.6
			C271.21,35.35,273.09,36.15,273.09,36.15z"/>
		<path class="st1" d="M293.08,64.97c0,0-0.48,0.47-3.56-2.01C286.43,60.49,286,59,286,59s1.43,0.1,4.28,2.37
			C293.13,63.63,293.08,64.97,293.08,64.97z"/>
		<path class="st1" d="M284.06,82.06c0,0-0.48,0.47-3.56-2.01c-3.08-2.48-3.52-3.97-3.52-3.97s1.43,0.1,4.28,2.37
			C284.11,80.71,284.06,82.06,284.06,82.06z"/>
		<path class="st1" d="M265.44,66.24c0,0-1.9,0.16-5.61-0.73c-3.71-0.89-4.69-2.39-4.69-2.39s1.4-0.23,4.82,0.58
			C263.38,64.5,265.44,66.24,265.44,66.24z"/>
		<path class="st1" d="M249.23,74.92c0,0,0.22,10.78-3.2,11.66c-3.58,0.92-4.98-7.4-4.98-7.4s2.9,4.85,4.78,2.26
			C247.71,78.86,249.23,74.92,249.23,74.92z"/>
		<path class="st1" d="M222.5,72.14c0,0,1.65,10.08-1.73,11.13c-3.54,1.11-4.5-7.96-4.5-7.96s1.93,5.38,3.44,3.77
			C221.86,76.78,222.5,72.14,222.5,72.14z"/>
		<path class="st1" d="M267.79,85.68c0,0-2.07,8.47-4.21,7.44c-2.14-1.03-1.13-6.47-1.13-6.47s0.49,2.93,1.69,2.79
			C265.34,89.29,267.79,85.68,267.79,85.68z"/>
		<path class="st1" d="M262.21,168.1c0,0-3.94,5.36-9.13,5.81c-5.19,0.45-7.95,0.89-7.95,0.89s5.6,3.44,10.75,0.75
			C261.03,172.85,262.21,168.1,262.21,168.1z"/>
		<path class="st1" d="M266.53,114.52c0,0-14.1-4.56-25.48-8.59c-11.38-4.02-23.29-13.59-23.29-13.59s2.99,5.4,13.24,11.33
			c8.75,5.08,13.83,7.31,22.68,10C261.58,116.07,266.53,114.52,266.53,114.52z"/>
		<path class="st1" d="M215.08,103.68c0,0,14.1,6.17,22.31,12c10.48,7.46,17.74,21.08,17.74,21.08s-12.91-14.1-19.47-18.76
			C229.1,113.33,215.08,103.68,215.08,103.68z"/>
		<path class="st2" d="M161.81,101.02l1.2-1.93c0,0-8.38-7.45-10.91-5.88C154.09,95.07,161.81,101.02,161.81,101.02z"/>
	</g>
</g>
</svg>
