<!-- Generator: Adobe Illustrator 24.1.0, SVG Export Plug-In  -->
<svg version="1.1" xmlns="http://www.w3.org/2000/svg" xmlns:xlink="http://www.w3.org/1999/xlink" x="0px" y="0px"
	 width="597.46px" height="650.89px" viewBox="0 0 597.46 650.89" style="enable-background:new 0 0 597.46 650.89;"
	 xml:space="preserve">
<style type="text/css">
	.st0{fill:#929292;stroke:#231F20;stroke-width:0.5;stroke-miterlimit:10;}
	.st1{fill:#828383;stroke:#231F20;stroke-width:0.5;stroke-miterlimit:10;}
	.st2{fill:#D3D3D3;stroke:#231F20;stroke-width:0.5;stroke-miterlimit:10;}
	.st3{fill:none;stroke:#231F20;stroke-width:0.5;stroke-miterlimit:10;}
	.st4{fill:#CDCBCB;stroke:#231F20;stroke-width:0.5;stroke-miterlimit:10;}
	.st5{fill:#231F20;}
	.st6{fill:#9A9A9B;stroke:#231F20;stroke-width:0.5;stroke-miterlimit:10;}
	.st7{fill:#C2C0C0;stroke:#231F20;stroke-width:0.5;stroke-miterlimit:10;}
	.st8{opacity:0.9;fill:#EEF7F8;}
	.st9{fill:none;stroke:#2B2523;stroke-width:0.2612;stroke-linecap:round;stroke-miterlimit:10;}
	.st10{fill:#F7FCFD;}
	.st11{fill:none;stroke:#2B2523;stroke-width:0.2612;stroke-miterlimit:10;}
	.st12{fill:#13110C;}
	.st13{font-family:'Bahnschrift';}
	.st14{font-size:2.0656px;}
	.st15{fill:#E9C289;stroke:#2B2523;stroke-width:0.2612;stroke-miterlimit:10;}
	.st16{fill:#EEB066;stroke:#2B2523;stroke-width:0.2626;stroke-miterlimit:10;}
	.st17{fill:#EEB066;stroke:#2B2523;stroke-width:0.2612;stroke-miterlimit:10;}
	.st18{opacity:0.61;fill:#D0CED0;}
	.st19{fill:none;stroke:#2B2523;stroke-width:0.2936;stroke-linecap:round;stroke-miterlimit:10;}
</style>
<defs>
</defs>
<g>
	<path class="st0" d="M355.38,113.32v484.96l167.18,13.17l18.89,1.49l10.43,0.83V111.2L355.38,113.32z M406.96,260.42l-1.77,128.91
		v4.53h-32.23V257.9l34-1.01V260.42z"/>
	<polygon class="st1" points="406.96,260.42 405.19,389.33 380.27,387.82 380.27,262.43 	"/>
	<polygon class="st1" points="597.21,24.59 597.21,556.36 589.92,565.58 589.92,565.6 583.23,574.06 571.03,589.51 571.03,589.53 
		551.89,613.76 551.89,0.42 	"/>
	<polygon class="st2" points="551.89,70.92 551.89,111.2 355.38,113.32 178.24,115.23 178.24,77.97 	"/>
	<polygon class="st0" points="551.89,0.42 551.89,70.92 178.24,77.97 178.24,8.47 	"/>
	<line class="st3" x1="355.38" y1="113.32" x2="355.38" y2="113.22"/>
	<polygon class="st4" points="380.27,262.43 380.27,387.82 405.19,389.33 405.19,393.87 372.96,393.87 372.96,257.9 406.96,256.89 
		406.96,260.42 	"/>
	<polygon class="st5" points="589.92,565.6 589.92,592.35 583.23,600.79 583.23,574.06 	"/>
	<polygon class="st5" points="583.23,574.06 583.23,600.79 571.03,600.79 571.03,589.51 	"/>
	<line class="st3" x1="583.23" y1="574.06" x2="583.23" y2="574.02"/>
	<polygon class="st5" points="541.46,612.94 541.46,642.47 534.77,650.89 522.56,650.89 522.56,611.45 	"/>
	<line class="st3" x1="534.77" y1="650.89" x2="534.77" y2="612.47"/>
	<line class="st3" x1="522.56" y1="611.45" x2="522.56" y2="610.98"/>
	<polygon class="st5" points="218.67,587.5 218.67,617.53 211.98,625.97 211.98,586.97 	"/>
	<polygon class="st5" points="211.98,586.97 211.98,625.97 199.77,625.97 199.77,586.07 	"/>
	<path class="st3" d="M178.24,584.32"/>
	<polygon class="st0" points="178.24,115.23 178.24,584.32 1.13,569.27 1.13,100.18 	"/>
	<line class="st3" x1="344.34" y1="537.4" x2="344.08" y2="537.38"/>
	<path class="st3" d="M191.69,579.29"/>
	<polygon class="st2" points="178.24,109.05 178.24,115.23 1.13,100.18 14.56,95.15 	"/>
	<polygon class="st2" points="344.08,465.9 344.08,492.06 189,479.77 238.41,458.34 	"/>
	<polygon class="st2" points="344.08,339.26 344.08,365.6 189,355.73 238.67,334.73 	"/>
	<polygon class="st2" points="344.34,233.71 344.08,253.87 189,245.57 238.67,230.14 344.08,233.71 	"/>
	<line class="st3" x1="238.67" y1="489.85" x2="238.67" y2="489.81"/>
	<path class="st2" d="M178.24,115.23v469.08l33.74,2.66l6.69,0.52l136.71,10.78V113.32L178.24,115.23z M344.08,586.43L189,574.14
		V127.13l49.67-0.56l105.41-1.19V586.43z"/>
	<polygon class="st1" points="238.67,255.38 238.67,334.73 189,355.73 189,252.72 	"/>
	<polygon class="st6" points="344.08,125.38 344.08,233.71 238.67,230.14 238.67,126.57 	"/>
	<polygon class="st1" points="238.67,126.57 238.67,230.14 189,245.57 189,127.13 	"/>
	<polygon class="st6" points="344.08,261.04 344.08,339.26 238.67,334.73 238.67,255.38 	"/>
	<polygon class="st1" points="238.67,366.95 238.41,458.34 189,479.77 189,363.79 	"/>
	<polygon class="st6" points="344.08,373.66 344.08,465.9 238.41,458.34 238.67,366.95 	"/>
	<polygon class="st6" points="344.08,498.2 344.08,537.38 238.67,529.08 238.67,489.85 	"/>
	<polygon class="st1" points="238.67,489.85 238.67,529.08 189,574.14 189,485.92 	"/>
	<polygon class="st7" points="344.08,537.38 344.08,586.43 189,574.14 238.67,529.08 	"/>
	<polygon class="st2" points="344.08,492.06 344.08,498.2 238.67,489.85 189,485.92 189,479.77 	"/>
	<polygon class="st2" points="344.08,365.6 344.08,373.66 238.67,366.95 189,363.79 189,355.73 	"/>
	<polygon class="st2" points="344.08,253.87 344.08,261.04 238.67,255.38 189,252.72 189,245.57 	"/>
</g>
<g>
	<g>
		<path class="st8" d="M242.52,331.94c0,1.15,2.76,2.09,6.17,2.09c3.41,0,6.17-0.94,6.17-2.09c0-1.16-2.76-2.09-6.17-2.09
			C245.28,329.84,242.52,330.78,242.52,331.94z"/>
		<path class="st8" d="M242.52,331.94v5.99c0,0.79,0.2,1.57,0.58,2.26l5.08,9.17c0.15,0.3,0.58,0.3,0.74,0.01l5.45-9.44
			c0.32-0.55,0.48-1.17,0.48-1.81v-6.18c0,1.15-2.76,2.09-6.17,2.09C245.28,334.03,242.52,333.09,242.52,331.94z"/>
	</g>
	<g>
		<path class="st8" d="M259.61,333.54c0,1.15,2.76,2.09,6.17,2.09c3.41,0,6.17-0.94,6.17-2.09c0-1.16-2.76-2.09-6.17-2.09
			C262.37,331.45,259.61,332.39,259.61,333.54z"/>
		<path class="st8" d="M259.61,333.54v5.99c0,0.79,0.2,1.57,0.58,2.26l5.08,9.17c0.15,0.3,0.58,0.3,0.74,0.01l5.45-9.44
			c0.32-0.55,0.48-1.17,0.48-1.81v-6.18c0,1.15-2.76,2.09-6.17,2.09C262.37,335.63,259.61,334.7,259.61,333.54z"/>
	</g>
	<g>
		<path class="st8" d="M276.56,335.17c0,1.15,2.76,2.09,6.17,2.09c3.41,0,6.17-0.94,6.17-2.09c0-1.16-2.76-2.09-6.17-2.09
			C279.33,333.08,276.56,334.01,276.56,335.17z"/>
		<path class="st8" d="M276.56,335.17v5.99c0,0.79,0.2,1.57,0.58,2.26l5.08,9.17c0.15,0.3,0.58,0.3,0.74,0.01l5.45-9.44
			c0.32-0.55,0.48-1.17,0.48-1.81v-6.18c0,1.15-2.76,2.09-6.17,2.09C279.33,337.26,276.56,336.32,276.56,335.17z"/>
	</g>
	<path class="st9" d="M280.34,343.69c0.79,0.11,1.65,0.17,2.55,0.17c2.52,0,4.71-0.47,5.88-1.16"/>
	<path class="st10" d="M288.8,336.77v6.66c0,0.23-0.05,0.46-0.16,0.67l-5.85,9.05l5.15-9.08c0.08-0.18,0.12-0.38,0.12-0.58
		l0.02-6.78"/>
	<path class="st11" d="M289.24,336.81v4.34c0,0.89-0.23,1.77-0.68,2.54l-5.31,9.17c-0.31,0.53-1.08,0.52-1.37-0.02l-4.99-9.11
		c-0.44-0.8-0.67-1.7-0.67-2.62v-5.32"/>
	<text transform="matrix(-1 0 0 1 282.733 336.2674)" class="st12 st13 st14">1.0</text>
	<path class="st15" d="M275.97,330.41c0,0.12,0.03,0.23,0.08,0.34c0.5-1.1,3.3-1.94,6.68-1.94c3.39,0,6.19,0.85,6.68,1.95
		c0.05-0.11,0.08-0.23,0.08-0.35c0-1.27-3.03-2.29-6.76-2.29S275.97,329.15,275.97,330.41z"/>
	<path class="st15" d="M259.13,328.83c0,0.12,0.03,0.23,0.07,0.34c0.5-1.1,3.3-1.94,6.68-1.94c3.39,0,6.19,0.84,6.68,1.94
		c0.05-0.11,0.08-0.23,0.08-0.35c0-1.27-3.03-2.29-6.76-2.29C262.15,326.54,259.13,327.57,259.13,328.83z"/>
	<polyline class="st11" points="275.16,333.25 275.16,333.24 275.16,333.24 	"/>
	<path class="st11" d="M288.52,333.25c0.01,0.01,0.01,0.02,0.02,0.04"/>
	<g>
		<polygon class="st16" points="235.64,351.94 246.52,344.26 246.67,332.91 246.68,331.86 246.68,331.85 246.71,329.73 
			246.77,325.35 246.82,322.02 236.83,330.93 236.82,330.93 236.82,330.93 235.77,331.86 		"/>
		<polygon class="st17" points="287.1,335.67 287.1,356.77 298.59,348.29 298.59,327.11 		"/>
		<polygon class="st15" points="235.02,330.76 234.79,351.86 235.65,351.94 235.81,331.9 286.37,336.64 286.37,356.77 287.1,356.77 
			287.1,335.67 		"/>
		<path class="st17" d="M235.01,330.76l1.81,0.17h0l9.86,0.92l40.4,3.81l11.49-8.56l-51.77-5.09L235.01,330.76z M275.97,330.41
			c0-1.27,3.02-2.29,6.75-2.29c3.73,0,6.76,1.02,6.76,2.29c0,0.12-0.02,0.23-0.07,0.35c-0.49,1.1-3.3,1.95-6.68,1.95
			c-0.06,0-0.12,0-0.18,0h-0.19c-0.15,0-0.31-0.01-0.46-0.01c-0.14,0-0.27-0.01-0.41-0.02c-0.03,0-0.07,0-0.1-0.01
			c-0.11,0-0.22-0.01-0.33-0.02c-0.01-0.01-0.02-0.01-0.04-0.01c-0.1-0.01-0.21-0.02-0.32-0.03c-0.13-0.01-0.26-0.03-0.38-0.04
			c-0.09-0.01-0.19-0.02-0.28-0.03c-0.5-0.07-0.97-0.17-1.4-0.28c-0.06-0.01-0.11-0.03-0.17-0.04c-0.06-0.01-0.11-0.03-0.17-0.05
			c-0.07-0.02-0.15-0.04-0.22-0.06c-0.13-0.04-0.26-0.09-0.39-0.13c-0.02-0.01-0.04-0.02-0.07-0.03c-0.05-0.01-0.1-0.03-0.15-0.06
			c-0.1-0.04-0.2-0.08-0.3-0.13c-0.41-0.2-0.73-0.43-0.94-0.66c-0.03-0.03-0.05-0.06-0.08-0.1c-0.02-0.03-0.04-0.06-0.05-0.09
			c-0.01-0.02-0.03-0.04-0.04-0.06c-0.01-0.01-0.01-0.03-0.02-0.05C276,330.64,275.97,330.53,275.97,330.41z M259.13,328.84
			c0-1.27,3.03-2.29,6.76-2.29c3.73,0,6.75,1.03,6.75,2.29c0,0.12-0.02,0.23-0.08,0.35c-0.49,1.1-3.29,1.94-6.67,1.94
			c-3.39,0-6.18-0.84-6.68-1.94C259.15,329.07,259.13,328.96,259.13,328.84z M246.71,329.73l0.06-4.38c0.62-0.06,1.28-0.1,1.96-0.1
			c3.73,0,6.76,1.02,6.76,2.29c0,0.12-0.02,0.24-0.08,0.35c-0.49,1.1-3.3,1.94-6.68,1.94C248.03,329.84,247.35,329.8,246.71,329.73z
			"/>
	</g>
	<path class="st11" d="M246.71,329.73c0.64,0.07,1.31,0.1,2.02,0.1c3.38,0,6.18-0.85,6.68-1.94c0.05-0.11,0.08-0.23,0.08-0.35
		c0-1.27-3.03-2.29-6.76-2.29c-0.68,0-1.34,0.03-1.96,0.1L246.71,329.73z"/>
	<path class="st11" d="M241.98,327.54c0,0.12,0.02,0.23,0.07,0.35c0.39,0.87,2.23,1.59,4.66,1.84l0.06-4.38
		C244,325.64,241.98,326.51,241.98,327.54z"/>
	<path class="st11" d="M259.13,328.84c0,0.12,0.02,0.23,0.07,0.35c0.5,1.1,3.3,1.94,6.68,1.94c3.38,0,6.18-0.85,6.67-1.94
		c0.05-0.11,0.08-0.23,0.08-0.35c0-1.27-3.03-2.29-6.75-2.29C262.15,326.54,259.13,327.57,259.13,328.84z"/>
	<path class="st11" d="M275.97,330.41c0,0.12,0.02,0.23,0.07,0.35c0.01,0.01,0.01,0.03,0.02,0.05c0.01,0.02,0.02,0.04,0.04,0.06
		c0.01,0.03,0.03,0.06,0.05,0.09c0.02,0.03,0.05,0.06,0.08,0.1c0.21,0.24,0.53,0.46,0.94,0.66c0.09,0.05,0.2,0.09,0.3,0.13
		c0.05,0.02,0.1,0.04,0.15,0.06c0.02,0.01,0.05,0.01,0.07,0.03c0.12,0.04,0.25,0.09,0.39,0.13c0.07,0.02,0.14,0.04,0.22,0.06
		c0.05,0.01,0.11,0.03,0.17,0.05c0.06,0.01,0.11,0.03,0.17,0.04c0.43,0.11,0.9,0.21,1.4,0.28c0.09,0.01,0.18,0.02,0.28,0.03
		c0.12,0.01,0.25,0.03,0.38,0.04c0.1,0.01,0.21,0.02,0.32,0.03c0.01,0,0.02,0,0.04,0.01c0.11,0,0.22,0.01,0.33,0.02
		c0.03,0,0.07,0,0.1,0.01c0.13,0,0.27,0.01,0.41,0.02c0.15,0,0.31,0.01,0.46,0.01h0.19c0.06,0,0.12,0,0.18,0
		c3.39,0,6.19-0.85,6.68-1.95c0.05-0.11,0.07-0.23,0.07-0.35c0-1.27-3.03-2.29-6.76-2.29C279,328.12,275.97,329.14,275.97,330.41z"
		/>
	<path class="st10" d="M285.39,336.45v5.75c0,0.13-0.02,0.25-0.05,0.37l-2.32,8.93l1.68-8.98c0.02-0.09,0.03-0.18,0.03-0.27v-5.78"
		/>
	<path class="st18" d="M276.9,335.86v6.48c0,0.23,0.05,0.46-0.14-0.25l5.62,10.98l-4.62-10.1c-0.08-0.18-0.12-0.38-0.12-0.58l0-6.53
		"/>
	<path class="st11" d="M285.53,348.83c0,0-0.58,0.07-1.11,0.02"/>
	<path class="st11" d="M280.79,348.79c0,0-0.49,0.05-1.02,0"/>
	<path class="st11" d="M284.91,346.28c0,0-2.19,0.26-4.12,0"/>
	<path class="st11" d="M284.91,337.8c0,0-2.19,0.26-4.12,0"/>
	<path class="st11" d="M285.53,341.06c0,0-0.58,0.08-1.11,0.05"/>
	<path class="st11" d="M280.91,341.09c0,0-0.49,0-1.02-0.09"/>
	<text transform="matrix(-1 0 0 1 284.0621 341.8289)" class="st12 st13 st14">0.5</text>
	<text transform="matrix(-1 0 0 1 283.6959 349.8513)" class="st12 st13 st14">0.1</text>
	<path class="st9" d="M276.7,342.49c0.47,0.36,1.19,0.67,2.1,0.9"/>
	<path class="st19" d="M277.26,341.1c0.56-0.26,1.35-0.47,2.29-0.62"/>
	<g>
		<path class="st10" d="M284.69,332.57v-12.31c0,0,0.24,0.01,0.66-0.04v12.29"/>
		<path class="st10" d="M288.02,331.83v-14.18c0,0,0.39,0.48,0.74,0.3v13.49"/>
		<path class="st18" d="M277.6,331.86l0-12.14c0,0-0.42-0.05-0.73-0.2v11.98"/>
		<path class="st11" d="M274.21,315.55c0,2,3.69,3.61,8.23,3.61s8.23-1.62,8.23-3.61"/>
		<line class="st11" x1="290.67" y1="315.16" x2="290.67" y2="315.55"/>
		<line class="st11" x1="274.21" y1="312.9" x2="274.21" y2="314.45"/>
		<line class="st11" x1="276.19" y1="331.02" x2="276.19" y2="317.9"/>
		<line class="st11" x1="289.2" y1="317.61" x2="289.2" y2="331.16"/>
		<path class="st11" d="M276.55,309.92c1.5-0.67,3.58-1.09,5.89-1.09c3.61,0,6.67,1.02,7.78,2.43c0.02,0.03,0.06,0.05,0.1,0.05
			c0.39,0,2.43,0,2.43,0v2.29h-2.42c-0.05,0-0.1,0.02-0.14,0.07c-1.14,1.4-4.18,2.39-7.75,2.39c-4.55,0-8.23-1.62-8.23-3.61
			C274.21,311.46,275.1,310.57,276.55,309.92z"/>
		<path class="st11" d="M274.21,314c0,2,3.69,3.61,8.23,3.61c3.57,0,6.61-1,7.75-2.4c0.03-0.04,0.08-0.06,0.12-0.06h2.43v-1.56"/>
		<line class="st11" x1="274.21" y1="313.96" x2="274.21" y2="315.52"/>
		<ellipse class="st11" cx="282.44" cy="312.45" rx="4.68" ry="1.73"/>
		<path class="st11" d="M273.86,315.9c0.11,0.02,0.22,0.03,0.34,0.03v-0.59c-0.6,0-1.08-0.48-1.08-1.08c0-0.6,0.48-1.08,1.08-1.08
			v-0.59c-0.92,0-1.67,0.75-1.67,1.67C272.54,315.07,273.11,315.75,273.86,315.9z"/>
		<path class="st11" d="M273.59,313.81"/>
		<path class="st11" d="M274.96,310.93c-0.7,0-1.38,0.44-1.63,1.05c-0.13,0.33-0.66,1.62-0.66,1.62"/>
		<path class="st11" d="M274.21,313.44c-0.08-0.06-0.15-0.14-0.21-0.23"/>
		<path class="st11" d="M271.93,314.44"/>
		<path class="st11" d="M284.26,323.83c0,0-2.19,0.26-4.12,0"/>
		<path class="st11" d="M284.26,329.12c0,0-2.19,0.26-4.12,0"/>
		<path class="st11" d="M287.04,312.76c-0.39-0.81-2.31-1.42-4.61-1.42c-2.3,0-4.21,0.61-4.61,1.42"/>
		<path class="st18" d="M276.25,318.55c0,0,3.58,1.43,7.84,0.61c0,0-4.45,0.51-7.84-1.15L276.25,318.55z"/>
		<path class="st10" d="M274.87,311.88c0.4,1.8,3.46,3.17,7.69,3.17c3.94,0,6.65-1.49,7.46-3.12c-0.21,1.91-3.57,3.53-7.98,3.53
			C277.8,315.47,275.21,313.73,274.87,311.88"/>
	</g>
	<path class="st15" d="M241.97,327.52c0,0.12,0.03,0.23,0.08,0.35c0.49-1.1,3.29-1.94,6.68-1.94c3.38,0,6.19,0.84,6.68,1.94
		c0.05-0.11,0.08-0.23,0.08-0.35c0-1.27-3.02-2.29-6.75-2.29C245,325.23,241.97,326.25,241.97,327.52z"/>
	<path class="st10" d="M267.8,330.95v-12.31c0,0,0.24,0.01,0.66-0.04v12.29"/>
	<path class="st10" d="M271.13,330.21v-14.18c0,0,0.39,0.48,0.74,0.31v13.49"/>
	<path class="st18" d="M260.71,330.24l0-12.14c0,0-0.42-0.05-0.73-0.2v11.98"/>
	<path class="st11" d="M257.31,313.93c0,2,3.69,3.61,8.23,3.61c3.33,0,6.19-0.87,7.49-2.11"/>
	<line class="st11" x1="257.31" y1="311.28" x2="257.31" y2="312.83"/>
	<line class="st11" x1="259.29" y1="329.4" x2="259.29" y2="316.28"/>
	<line class="st11" x1="272.31" y1="315.99" x2="272.31" y2="329.54"/>
	<path class="st11" d="M273.3,312.05c-1.14,1.4-4.18,2.39-7.75,2.39c-4.55,0-8.23-1.62-8.23-3.61c0-0.98,0.89-1.87,2.34-2.52
		c1.5-0.67,3.58-1.09,5.89-1.09c3.61,0,6.67,1.02,7.78,2.43c0.02,0.03,0.06,0.05,0.1,0.05c0.39,0,2.43,0,2.43,0v0.59"/>
	<line class="st11" x1="257.31" y1="312.34" x2="257.31" y2="313.9"/>
	<ellipse class="st11" cx="265.55" cy="310.83" rx="4.68" ry="1.73"/>
	<path class="st11" d="M256.97,314.28c0.11,0.02,0.22,0.03,0.34,0.03v-0.59c-0.6,0-1.08-0.48-1.08-1.08s0.48-1.08,1.08-1.08v-0.59
		c-0.92,0-1.67,0.75-1.67,1.67C255.65,313.46,256.21,314.13,256.97,314.28z"/>
	<path class="st11" d="M256.7,312.19"/>
	<path class="st11" d="M258.07,309.31c-0.7,0-1.38,0.44-1.63,1.05c-0.13,0.33-0.66,1.62-0.66,1.62"/>
	<path class="st11" d="M257.31,311.82c-0.08-0.06-0.15-0.14-0.21-0.23"/>
	<path class="st11" d="M255.03,312.82"/>
	<path class="st11" d="M267.37,322.21c0,0-2.19,0.26-4.12,0"/>
	<path class="st11" d="M267.37,327.49c0,0-2.19,0.26-4.12,0"/>
	<path class="st11" d="M270.15,311.14c-0.39-0.81-2.31-1.42-4.61-1.42c-2.3,0-4.21,0.61-4.61,1.42"/>
	<path class="st18" d="M259.36,316.93c0,0,3.58,1.43,7.84,0.61c0,0-4.45,0.51-7.84-1.15L259.36,316.93z"/>
	<path class="st10" d="M257.98,310.26c0.4,1.8,3.46,3.17,7.69,3.17c3.94,0,6.65-1.49,7.46-3.12c-0.21,1.91-3.57,3.53-7.98,3.53
		C260.91,313.85,258.32,312.11,257.98,310.26"/>
	<g>
		<path class="st10" d="M250.68,329.67v-12.31c0,0,0.24,0.01,0.66-0.04v12.29"/>
		<path class="st10" d="M254.02,328.92v-14.18c0,0,0.39,0.48,0.74,0.3v13.49"/>
		<path class="st18" d="M243.59,328.95l0-12.14c0,0-0.42-0.05-0.73-0.2v11.98"/>
		<path class="st11" d="M240.2,312.64c0,2,3.69,3.61,8.23,3.61c3.58,0,6.63-1.01,7.76-2.41"/>
		<path class="st11" d="M256.67,312.64"/>
		<line class="st11" x1="240.2" y1="309.99" x2="240.2" y2="311.54"/>
		<line class="st11" x1="242.18" y1="328.11" x2="242.18" y2="314.99"/>
		<line class="st11" x1="255.19" y1="314.7" x2="255.19" y2="328.25"/>
		<path class="st11" d="M256.32,310.69c-0.05,0-0.1,0.02-0.14,0.07c-1.14,1.4-4.18,2.39-7.75,2.39c-4.55,0-8.23-1.62-8.23-3.61
			c0-0.98,0.89-1.87,2.34-2.52c1.5-0.67,3.58-1.09,5.89-1.09c3.61,0,6.67,1.02,7.78,2.43c0.02,0.03,0.06,0.05,0.1,0.05
			c0.39,0,2.43,0,2.43,0v0.4"/>
		<path class="st11" d="M258.74,308.77"/>
		<path class="st11" d="M240.2,311.09c0,2,3.69,3.61,8.23,3.61c3.12,0,5.84-0.76,7.23-1.89"/>
		<line class="st11" x1="240.2" y1="311.06" x2="240.2" y2="312.61"/>
		<ellipse class="st11" cx="248.43" cy="309.54" rx="4.68" ry="1.73"/>
		<path class="st11" d="M239.86,313c0.11,0.02,0.22,0.03,0.34,0.03v-0.59c-0.6,0-1.08-0.48-1.08-1.08c0-0.6,0.48-1.08,1.08-1.08
			v-0.59c-0.92,0-1.67,0.75-1.67,1.67C238.53,312.17,239.1,312.84,239.86,313z"/>
		<path class="st11" d="M239.59,310.9"/>
		<path class="st11" d="M240.88,308.02c-0.7,0-1.31,0.44-1.55,1.05c-0.13,0.33-0.66,1.62-0.66,1.62"/>
		<path class="st11" d="M240.2,310.53c-0.08-0.06-0.15-0.14-0.21-0.23"/>
		<path class="st11" d="M237.92,311.53"/>
		<path class="st11" d="M250.25,320.92c0,0-2.19,0.26-4.12,0"/>
		<path class="st11" d="M250.25,326.34c0,0-2.19,0.26-4.12,0"/>
		<path class="st11" d="M253.04,309.85c-0.39-0.81-2.31-1.42-4.61-1.42c-2.3,0-4.21,0.61-4.61,1.42"/>
		<path class="st18" d="M242.24,315.64c0,0,3.58,1.43,7.84,0.61c0,0-4.45,0.51-7.84-1.15L242.24,315.64z"/>
		<path class="st10" d="M240.86,308.97c0.4,1.8,3.46,3.17,7.69,3.17c3.94,0,6.65-1.49,7.46-3.12c-0.21,1.91-3.57,3.53-7.98,3.53
			C243.8,312.56,241.2,310.82,240.86,308.97"/>
	</g>
	<path class="st11" d="M257.31,312.46c0,2,3.69,3.61,8.23,3.61c3.12,0,5.59-0.58,6.99-1.7"/>
	<path class="st9" d="M263.38,342.06c0.79,0.11,1.65,0.17,2.55,0.17c2.52,0,4.71-0.47,5.88-1.16"/>
	<path class="st10" d="M271.85,335.28v6.52c0,0.23-0.05,0.46-0.16,0.67l-5.85,9.05l5.15-9.08c0.08-0.18,0.12-0.38,0.12-0.58
		l0.02-6.64"/>
	<path class="st11" d="M272.29,335.32v4.2c0,0.89-0.24,1.77-0.68,2.54l-5.31,9.17c-0.31,0.53-1.08,0.52-1.37-0.02l-4.99-9.11
		c-0.44-0.8-0.67-1.7-0.67-2.62v-5.32"/>
	<path class="st10" d="M268.43,335.02v5.75c0,0.13-0.02,0.25-0.05,0.37l-2.32,8.93l1.68-8.98c0.02-0.09,0.03-0.18,0.03-0.27
		l0.01-5.85"/>
	<path class="st18" d="M259.95,334.24v6.48c0,0.23,0.05,0.46-0.14-0.25l5.62,10.98l-4.62-10.1c-0.08-0.18-0.12-0.38-0.12-0.58
		l0-6.44"/>
	<path class="st11" d="M268.58,347.2c0,0-0.58,0.07-1.11,0.02"/>
	<path class="st11" d="M263.84,347.16c0,0-0.49,0.05-1.02,0"/>
	<path class="st11" d="M267.96,344.65c0,0-2.19,0.26-4.12,0"/>
	<path class="st11" d="M267.96,336.17c0,0-2.19,0.26-4.12,0"/>
	<path class="st11" d="M268.58,339.43c0,0-0.58,0.08-1.11,0.05"/>
	<path class="st11" d="M263.95,339.46c0,0-0.49,0-1.02-0.09"/>
	<text transform="matrix(-1 0 0 1 267.11 340.201)" class="st12 st13 st14">0.5</text>
	<text transform="matrix(-1 0 0 1 266.7438 348.2234)" class="st12 st13 st14">0.1</text>
	<path class="st9" d="M259.75,340.87c0.47,0.36,1.19,0.67,2.1,0.9"/>
	<path class="st19" d="M260.31,339.48c0.56-0.26,1.35-0.47,2.29-0.62"/>
	<path class="st9" d="M246.29,340.46c0.79,0.11,1.65,0.17,2.55,0.17c2.52,0,4.71-0.47,5.88-1.16"/>
	<path class="st10" d="M254.75,333.67v6.52c0,0.23-0.05,0.46-0.16,0.67l-5.85,9.05l5.15-9.08c0.08-0.18,0.12-0.38,0.12-0.58
		l0.02-6.64"/>
	<path class="st11" d="M255.19,333.71v4.2c0,0.89-0.23,1.77-0.68,2.54l-5.31,9.17c-0.31,0.53-1.08,0.52-1.37-0.02l-4.99-9.11
		c-0.44-0.8-0.67-1.7-0.67-2.62v-5.32"/>
	<path class="st10" d="M251.34,333.41v5.75c0,0.13-0.02,0.25-0.05,0.37l-2.32,8.93l1.68-8.98c0.02-0.09,0.03-0.18,0.03-0.27
		l0.01-5.85"/>
	<path class="st18" d="M242.86,332.63v6.48c0,0.23,0.05,0.46-0.14-0.25l5.62,10.98l-4.62-10.1c-0.08-0.18-0.12-0.38-0.12-0.58
		l0-6.44"/>
	<path class="st11" d="M251.48,345.59c0,0-0.58,0.07-1.11,0.02"/>
	<path class="st11" d="M246.75,345.55c0,0-0.49,0.05-1.02,0"/>
	<path class="st11" d="M250.86,343.04c0,0-2.19,0.26-4.12,0"/>
	<path class="st11" d="M251.48,337.83c0,0-0.58,0.08-1.11,0.05"/>
	<path class="st11" d="M246.86,337.86c0,0-0.49,0-1.02-0.09"/>
	<text transform="matrix(-1 0 0 1 250.0153 338.5965)" class="st12 st13 st14">0.5</text>
	<text transform="matrix(-1 0 0 1 249.649 346.6189)" class="st12 st13 st14">0.1</text>
	<path class="st9" d="M242.66,339.26c0.47,0.36,1.19,0.67,2.1,0.9"/>
	<path class="st19" d="M243.21,337.87c0.56-0.26,1.35-0.47,2.29-0.62"/>
</g>
</svg>
