<!-- Generator: Adobe Illustrator 24.1.0, SVG Export Plug-In  -->
<svg version="1.1" xmlns="http://www.w3.org/2000/svg" xmlns:xlink="http://www.w3.org/1999/xlink" x="0px" y="0px" width="97.1px"
	 height="79.12px" viewBox="0 0 97.1 79.12" style="enable-background:new 0 0 97.1 79.12;" xml:space="preserve">
<style type="text/css">
	.st0{fill:#ECAB69;stroke:#231F20;stroke-width:0.5027;stroke-miterlimit:10;}
	.st1{fill:#ECAB69;stroke:#231F20;stroke-width:0.5;stroke-miterlimit:10;}
	.st2{fill:#E5BD88;stroke:#231F20;stroke-width:0.5;stroke-miterlimit:10;}
	.st3{fill:none;stroke:#231F20;stroke-width:0.5;stroke-miterlimit:10;}
	.st4{fill:#F1F8F9;}
	.st5{opacity:0.61;fill:#C7C7C9;}
	.st6{fill:#020203;}
	.st7{font-family:'Bahnschrift';}
	.st8{font-size:2.8095px;}
	.st9{fill:none;stroke:#231F20;stroke-width:0.5;stroke-linecap:round;stroke-miterlimit:10;}
	.st10{fill:none;stroke:#231F20;stroke-width:0.562;stroke-linecap:round;stroke-miterlimit:10;}
	.st11{fill:#FAFAFA;stroke:#C3C5C5;stroke-width:0.937;stroke-miterlimit:10;}
	.st12{font-family:'MyriadPro-Regular';}
	.st13{font-size:12px;}
	.st14{font-size:6px;}
</style>
<defs>
</defs>
<g>
	<g>
		<g>
			<polyline class="st0" points="76.86,32.98 78.73,58.64 95.44,73.01 93.42,45.38 			"/>
			<polygon class="st1" points="17.33,49.91 19.42,78.54 2.72,64.36 0.63,35.72 			"/>
			<polygon class="st2" points="94.74,44.26 96.83,72.89 95.45,72.99 93.46,45.68 18.41,51.16 20.41,78.47 19.42,78.54 17.33,49.91 
							"/>
			<path class="st3" d="M78.03,30.07"/>
			<path class="st2" d="M78.68,34.17c0.01,0.16-0.01,0.32-0.07,0.48c-0.77-1.45-4.66-2.31-9.25-1.98c-4.6,0.34-8.32,1.76-8.87,3.3
				c-0.08-0.15-0.13-0.3-0.14-0.47c-0.13-1.72,3.88-3.41,8.94-3.78C74.35,31.36,78.55,32.45,78.68,34.17z"/>
			<path class="st3" d="M79.15,45.4"/>
			<path class="st3" d="M2.72,64.36"/>
			<path class="st2" d="M29.83,37.74c0.01,0.16-0.01,0.32-0.07,0.48c-0.77-1.44-4.66-2.31-9.25-1.98c-4.59,0.34-8.31,1.76-8.87,3.3
				c-0.08-0.15-0.13-0.3-0.14-0.46c-0.13-1.72,3.87-3.41,8.94-3.78C25.5,34.93,29.7,36.02,29.83,37.74z"/>
			<path class="st3" d="M29.76,38.22C29.76,38.22,29.76,38.22,29.76,38.22c-0.56,1.54-4.28,2.96-8.87,3.3
				c-4.59,0.34-8.48-0.53-9.25-1.98c0.56-1.54,4.28-2.96,8.87-3.3C25.1,35.9,28.98,36.77,29.76,38.22z"/>
			<path class="st2" d="M37.9,44.34c0.01,0.16-0.01,0.31-0.07,0.47c-0.78-1.44-4.67-2.31-9.25-1.97c-4.6,0.34-8.32,1.76-8.87,3.3
				c-0.08-0.15-0.13-0.3-0.14-0.47c-0.13-1.72,3.88-3.41,8.94-3.78S37.77,42.62,37.9,44.34z"/>
			<path class="st3" d="M37.82,44.81L37.82,44.81c-0.56,1.55-4.27,2.97-8.86,3.31c-4.59,0.34-8.47-0.53-9.25-1.98
				c0.55-1.54,4.27-2.97,8.87-3.3C33.16,42.51,37.04,43.37,37.82,44.81z"/>
			<path class="st2" d="M54.25,35.96c0.01,0.16-0.01,0.31-0.07,0.47c-0.78-1.44-4.66-2.31-9.25-1.97c-4.59,0.34-8.31,1.75-8.87,3.3
				c-0.08-0.15-0.13-0.3-0.14-0.46c-0.13-1.72,3.88-3.41,8.94-3.78S54.13,34.24,54.25,35.96z"/>
			<path class="st3" d="M54.18,36.43L54.18,36.43c-0.56,1.54-4.27,2.97-8.86,3.3c-4.59,0.34-8.48-0.53-9.25-1.98l0,0
				c0.56-1.54,4.28-2.96,8.87-3.3C49.52,34.12,53.4,34.99,54.18,36.43z"/>
			<path class="st2" d="M61.92,42.44c0.01,0.16-0.01,0.32-0.07,0.48c-0.77-1.45-4.66-2.31-9.25-1.98c-4.59,0.34-8.31,1.75-8.87,3.3
				c-0.08-0.15-0.13-0.3-0.14-0.46c-0.13-1.72,3.87-3.41,8.94-3.78C57.59,39.63,61.8,40.72,61.92,42.44z"/>
			<path class="st3" d="M61.85,42.91C61.85,42.92,61.85,42.92,61.85,42.91c-0.56,1.54-4.28,2.96-8.87,3.3
				c-4.59,0.34-8.48-0.53-9.25-1.98c0.56-1.54,4.27-2.96,8.87-3.3C57.19,40.6,61.08,41.47,61.85,42.91z"/>
			<path class="st3" d="M78.61,34.65c-0.56,1.54-4.28,2.96-8.87,3.3c-4.59,0.34-8.47-0.53-9.25-1.97c0.55-1.54,4.27-2.97,8.87-3.3
				C73.95,32.34,77.84,33.2,78.61,34.65z"/>
			<path class="st2" d="M85.25,40.73c0.01,0.16-0.01,0.32-0.07,0.47c-0.78-1.44-4.67-2.31-9.25-1.97c-4.59,0.34-8.31,1.76-8.87,3.3
				c-0.08-0.15-0.13-0.3-0.14-0.46c-0.13-1.72,3.88-3.41,8.94-3.78C80.93,37.93,85.13,39.02,85.25,40.73z"/>
			<path class="st3" d="M85.19,41.21L85.19,41.21c-0.01,0.03-0.02,0.05-0.03,0.07c-0.01,0.03-0.03,0.06-0.04,0.09
				c-0.02,0.04-0.04,0.08-0.07,0.12c-0.03,0.05-0.06,0.09-0.1,0.14c-0.26,0.35-0.67,0.68-1.21,0.99c-0.12,0.07-0.25,0.14-0.39,0.21
				c-0.06,0.03-0.13,0.07-0.19,0.1c-0.03,0.01-0.06,0.03-0.09,0.04c-0.16,0.08-0.33,0.15-0.51,0.22c-0.09,0.04-0.19,0.08-0.29,0.11
				c-0.07,0.03-0.15,0.05-0.22,0.08c-0.08,0.03-0.15,0.05-0.23,0.08c-0.57,0.2-1.2,0.37-1.87,0.52c-0.12,0.03-0.25,0.05-0.37,0.08
				c-0.17,0.03-0.34,0.07-0.51,0.1c-0.14,0.03-0.28,0.05-0.43,0.07c-0.02,0-0.03,0.01-0.05,0.01c-0.15,0.02-0.3,0.05-0.44,0.06
				c-0.05,0.01-0.09,0.01-0.14,0.02c-0.18,0.02-0.37,0.05-0.55,0.07c-0.21,0.02-0.41,0.04-0.62,0.06c-0.08,0.01-0.17,0.02-0.25,0.02
				c-0.08,0.01-0.17,0.02-0.25,0.02c-4.59,0.34-8.48-0.53-9.25-1.98c0.56-1.54,4.28-2.96,8.87-3.3
				C80.52,38.9,84.4,39.76,85.19,41.21z"/>
			<path class="st3" d="M29.77,38.24c0-0.01,0-0.01-0.01-0.02"/>
			<polyline class="st3" points="54.19,36.44 54.18,36.43 54.18,36.43 			"/>
			<polyline class="st3" points="36.06,37.75 36.06,37.76 36.06,37.77 			"/>
			<polyline class="st3" points="37.83,44.83 37.82,44.82 37.82,44.81 			"/>
			<path class="st3" d="M19.71,46.14c-0.01,0.02-0.02,0.03-0.02,0.05"/>
			<path class="st3" d="M61.86,42.93c0-0.01,0-0.01-0.01-0.02"/>
			<path class="st3" d="M43.73,44.24c-0.01,0.01-0.01,0.01-0.01,0.02"/>
			<path class="st3" d="M78.62,34.68c0-0.01-0.01-0.02-0.02-0.03"/>
			<path class="st3" d="M60.49,35.98c0,0.01-0.01,0.01-0.01,0.02"/>
			<polyline class="st3" points="85.19,41.22 85.19,41.21 85.19,41.21 			"/>
			<path class="st1" d="M78.03,30.07L0.63,35.72l16.71,14.19l77.41-5.65L78.03,30.07z M69.29,31.73c5.06-0.37,9.27,0.72,9.39,2.44
				c0.01,0.16-0.01,0.32-0.07,0.48c-0.56,1.54-4.28,2.96-8.87,3.3c-4.59,0.34-8.47-0.53-9.25-1.97c-0.08-0.15-0.13-0.3-0.14-0.47
				C60.22,33.79,64.22,32.1,69.29,31.73z M44.86,33.52c5.06-0.37,9.26,0.72,9.39,2.44c0.01,0.16-0.01,0.31-0.07,0.47l0,0
				c-0.56,1.54-4.27,2.96-8.87,3.3c-4.59,0.34-8.48-0.53-9.25-1.98l0,0c-0.08-0.15-0.13-0.3-0.14-0.46
				C35.8,35.58,39.8,33.89,44.86,33.52z M11.64,39.54c-0.08-0.15-0.13-0.3-0.14-0.46c-0.13-1.72,3.87-3.41,8.94-3.78
				c5.06-0.37,9.26,0.72,9.39,2.44c0.01,0.16-0.01,0.32-0.07,0.48c0,0,0,0,0,0c-0.56,1.54-4.28,2.96-8.87,3.3
				C16.3,41.85,12.41,40.98,11.64,39.54z M37.82,44.81L37.82,44.81c-0.56,1.55-4.27,2.97-8.86,3.31c-4.59,0.34-8.47-0.53-9.25-1.98
				c-0.08-0.15-0.13-0.3-0.14-0.47c-0.13-1.72,3.88-3.41,8.94-3.78s9.26,0.72,9.39,2.44C37.91,44.5,37.88,44.65,37.82,44.81z
				 M61.85,42.91C61.85,42.92,61.85,42.92,61.85,42.91c-0.56,1.54-4.28,2.96-8.87,3.3c-4.59,0.34-8.48-0.53-9.25-1.98
				c-0.08-0.15-0.13-0.3-0.14-0.46c-0.13-1.72,3.87-3.41,8.94-3.78c5.06-0.37,9.27,0.72,9.39,2.44
				C61.93,42.6,61.91,42.76,61.85,42.91z M85.19,41.21c-0.01,0.02-0.02,0.05-0.03,0.07c-0.01,0.03-0.03,0.06-0.04,0.09
				c-0.02,0.04-0.04,0.08-0.07,0.12c-0.03,0.05-0.06,0.09-0.1,0.14c-0.26,0.35-0.67,0.68-1.21,0.99c-0.12,0.07-0.25,0.14-0.39,0.21
				c-0.06,0.03-0.13,0.07-0.19,0.1c-0.03,0.01-0.06,0.03-0.09,0.04c-0.16,0.08-0.33,0.15-0.51,0.22c-0.09,0.04-0.19,0.08-0.29,0.11
				c-0.07,0.03-0.15,0.05-0.22,0.08c-0.08,0.03-0.15,0.05-0.23,0.08c-0.57,0.2-1.2,0.37-1.87,0.52c-0.12,0.03-0.25,0.06-0.37,0.08
				c-0.17,0.03-0.34,0.07-0.51,0.1c-0.14,0.03-0.28,0.05-0.43,0.07c-0.02,0-0.03,0.01-0.05,0.01c-0.15,0.02-0.3,0.05-0.44,0.06
				c-0.05,0.01-0.09,0.01-0.14,0.02c-0.18,0.02-0.37,0.05-0.55,0.07c-0.21,0.02-0.41,0.04-0.62,0.06c-0.08,0.01-0.17,0.02-0.25,0.02
				c-0.08,0.01-0.17,0.02-0.25,0.02c-4.59,0.34-8.48-0.53-9.25-1.98c-0.08-0.15-0.13-0.3-0.14-0.46c-0.13-1.72,3.88-3.41,8.94-3.78
				c5.06-0.37,9.26,0.72,9.39,2.44C85.27,40.89,85.24,41.05,85.19,41.21L85.19,41.21z"/>
		</g>
		<g>
			<path class="st4" d="M26.17,48.18l-1.6-21.88c0,0-0.32,0.03-0.89,0.01l1.59,21.82"/>
			<line class="st4" x1="26.35" y1="50.58" x2="26.17" y2="48.18"/>
			<path class="st4" d="M25.46,50.65l0.26,3.62c0.01,0.17,0.05,0.34,0.1,0.5l4.03,11.88l-3.17-12.01c-0.03-0.12-0.05-0.24-0.06-0.36
				l-0.27-3.69"/>
			<line class="st4" x1="25.27" y1="48.13" x2="25.46" y2="50.65"/>
			<path class="st4" d="M21.52,46.71l-1.66-22.76c0,0-0.54-0.18-1.03-0.38l1.69,23.11"/>
			<line class="st4" x1="21.81" y1="50.77" x2="21.52" y2="46.71"/>
			<path class="st4" d="M20.81,50.85l0.2,2.69c0.02,0.31,0.12,0.62,0.28,0.89L30,68.77l-7.76-14.46c-0.13-0.24-0.21-0.51-0.23-0.78
				l-0.2-2.75"/>
			<line class="st4" x1="20.51" y1="46.68" x2="20.81" y2="50.85"/>
			<line class="st5" x1="36.69" y1="46.06" x2="36.96" y2="49.81"/>
			<path class="st5" d="M35.72,46.58l-1.58-21.71c0,0,0.57-0.12,0.97-0.35l1.57,21.54"/>
			<line class="st5" x1="35.96" y1="49.88" x2="35.72" y2="46.58"/>
			<path class="st5" d="M36.96,49.81l0.19,2.55c0.02,0.31-0.03,0.63-0.15,0.92l-6.53,15.46l5.58-15.43c0.09-0.26,0.13-0.53,0.11-0.8
				l-0.19-2.61"/>
			<path class="st3" d="M38.33,18.87c0.2,2.71-4.64,5.27-10.81,5.72s-11.33-1.38-11.53-4.09"/>
			<line class="st3" x1="15.95" y1="19.96" x2="15.99" y2="20.5"/>
			<line class="st3" x1="38.17" y1="16.76" x2="38.33" y2="18.87"/>
			<line class="st3" x1="37.54" y1="45.11" x2="35.88" y2="22.25"/>
			<path class="st3" d="M37.54,45.11"/>
			<path class="st3" d="M20.23,51.03l0.16,2.19c0.09,1.21,0.49,2.37,1.18,3.37l8.11,11.91c0.47,0.69,1.51,0.6,1.86-0.16l5.86-12.85
				c0.52-1.13,0.74-2.38,0.65-3.62l-0.17-2.28"/>
			<line class="st3" x1="18.19" y1="23.15" x2="19.86" y2="46.01"/>
			<path class="st3" d="M34.59,11.46c-2.09-0.76-4.97-1.12-8.1-0.89c-4.89,0.36-8.95,2.04-10.32,4.07
				c-0.03,0.04-0.08,0.07-0.13,0.08c-0.52,0.04-3.29,0.24-3.29,0.24l0.23,3.1l3.29-0.24c0.07-0.01,0.14,0.02,0.19,0.08
				c1.69,1.78,5.91,2.83,10.75,2.48c6.17-0.45,11.01-3.01,10.81-5.72C37.92,13.32,36.62,12.2,34.59,11.46z"/>
			<path class="st3" d="M38.17,16.76c0.2,2.71-4.64,5.27-10.81,5.72c-4.85,0.35-9.07-0.7-10.76-2.48c-0.05-0.05-0.11-0.07-0.18-0.07
				l-3.3,0.24l-0.15-2.11"/>
			<line class="st3" x1="38.02" y1="14.66" x2="38.17" y2="16.76"/>
			
				<ellipse transform="matrix(0.9973 -0.0728 0.0728 0.9973 -1.0556 1.9971)" class="st3" cx="26.85" cy="15.47" rx="6.37" ry="2.36"/>
			<path class="st3" d="M38.83,19.31c-0.15,0.04-0.3,0.07-0.46,0.08l-0.06-0.8c0.81-0.06,1.41-0.76,1.36-1.57
				c-0.06-0.81-0.76-1.41-1.57-1.36l-0.06-0.8c1.25-0.09,2.34,0.85,2.43,2.1C40.55,18.06,39.84,19.02,38.83,19.31z"/>
			<path class="st3" d="M38.13,16.15"/>
			<path class="st3" d="M36.95,12.67c0.95-0.07,1.81,0.46,2.21,1.27c0.21,0.43,1.05,2.13,1.05,2.13"/>
			<path class="st3" d="M38.12,16c0.1-0.1,0.19-0.21,0.26-0.33"/>
			<path class="st3" d="M40.45,16.84"/>
			<path class="st3" d="M26.18,63.27c0,0,0.8,0.04,1.51-0.08"/>
			<path class="st3" d="M32.6,62.74c0,0,0.67,0.02,1.38-0.1"/>
			<path class="st3" d="M26.77,59.75c0,0,3,0.13,5.59-0.41"/>
			<path class="st3" d="M25.28,39.4c0,0,3,0.13,5.59-0.41"/>
			<path class="st3" d="M24.65,30.8c0,0,3,0.13,5.59-0.41"/>
			<path class="st3" d="M25.41,52.73c0,0,0.8,0.06,1.51-0.04"/>
			<path class="st3" d="M31.69,52.31c0,0,0.67-0.04,1.37-0.22"/>
			<path class="st3" d="M24.7,43.79c0,0,0.8,0.06,1.51-0.04"/>
			<path class="st3" d="M30.98,43.37c0,0,0.67-0.04,1.37-0.22"/>
			<path class="st3" d="M23.93,35.12c0,0,0.8,0.06,1.51-0.04"/>
			<path class="st3" d="M30.21,34.71c0,0,0.67-0.04,1.37-0.22"/>
			<text transform="matrix(0.9973 -0.0728 0.0728 0.9973 27.4772 53.6287)" class="st6 st7 st8">0.5</text>
			<text transform="matrix(0.9973 -0.0728 0.0728 0.9973 27.3174 44.6027)" class="st6 st7 st8">1.0</text>
			<text transform="matrix(0.9973 -0.0728 0.0728 0.9973 26.3313 35.9288)" class="st6 st7 st8">1.5</text>
			<text transform="matrix(0.9973 -0.0728 0.0728 0.9973 28.7688 64.4756)" class="st6 st7 st8">0.1</text>
			<path class="st3" d="M20.64,16.35c0.46-1.14,2.99-2.16,6.11-2.39c3.12-0.23,5.77,0.41,6.39,1.47"/>
			<path class="st9" d="M32.72,55.79c-1.06,0.23-2.22,0.39-3.44,0.48c-3.42,0.25-6.44-0.17-8.09-0.99"/>
			<path class="st9" d="M37.53,53.8c-0.6,0.53-1.55,1.02-2.76,1.43"/>
			<path class="st10" d="M36.63,51.97c-0.78-0.29-1.88-0.51-3.17-0.62"/>
			<path class="st5" d="M35.85,23.14c0,0-4.71,2.3-10.58,1.61c0,0,6.08,0.25,10.52-2.33L35.85,23.14z"/>
			<path class="st4" d="M37.07,13.96c-0.37,2.48-4.38,4.64-10.12,5.06c-5.34,0.39-9.16-1.37-10.42-3.49c0.48,2.57,5.2,4.44,11.18,4
				C33.44,19.11,36.78,16.5,37.07,13.96"/>
		</g>
		<g>
			<path class="st4" d="M42.86,37.93l-1.6-21.88c0,0-0.32,0.03-0.89,0.01l1.59,21.82"/>
			<line class="st4" x1="43.04" y1="40.33" x2="42.86" y2="37.93"/>
			<line class="st4" x1="41.96" y1="37.88" x2="42.15" y2="40.4"/>
			<path class="st4" d="M38.21,36.46L36.54,13.7c0,0-0.54-0.18-1.03-0.38l1.69,23.11"/>
			<line class="st4" x1="38.5" y1="40.52" x2="38.21" y2="36.46"/>
			<path class="st4" d="M38.93,44.06c-0.13-0.24-0.21-0.51-0.23-0.78l-0.2-2.75"/>
			<polyline class="st4" points="41.1,49.3 46.69,58.52 41.72,49.25 			"/>
			<line class="st4" x1="37.2" y1="36.43" x2="37.5" y2="40.6"/>
			<line class="st5" x1="53.38" y1="35.81" x2="53.65" y2="39.56"/>
			<path class="st5" d="M52.41,36.33l-1.58-21.71c0,0,0.57-0.12,0.97-0.35l1.57,21.54"/>
			<line class="st5" x1="52.66" y1="39.63" x2="52.41" y2="36.33"/>
			<polyline class="st5" points="51.16,49.02 47.16,58.48 50.59,48.99 			"/>
			<path class="st3" d="M55.02,8.62c0.2,2.71-4.64,5.27-10.81,5.72c-6.17,0.45-11.33-1.38-11.53-4.09"/>
			<line class="st3" x1="32.64" y1="9.72" x2="32.68" y2="10.25"/>
			<line class="st3" x1="54.87" y1="6.51" x2="55.02" y2="8.62"/>
			<line class="st3" x1="54.24" y1="34.86" x2="52.57" y2="12"/>
			<path class="st3" d="M54.24,34.86"/>
			<path class="st3" d="M40.47,49.6l5.89,8.66c0.47,0.69,1.51,0.6,1.86-0.16l4.18-9.16"/>
			<line class="st3" x1="34.88" y1="12.9" x2="36.55" y2="35.76"/>
			<path class="st3" d="M51.29,1.21c-2.09-0.76-4.97-1.12-8.1-0.89c-4.89,0.36-8.95,2.04-10.32,4.07c-0.03,0.04-0.08,0.07-0.13,0.08
				c-0.52,0.04-3.29,0.24-3.29,0.24l0.23,3.1l3.29-0.24c0.07-0.01,0.14,0.02,0.19,0.08c1.69,1.78,5.91,2.83,10.75,2.48
				c6.17-0.45,11.01-3.01,10.81-5.72C54.61,3.07,53.32,1.95,51.29,1.21z"/>
			<path class="st3" d="M54.87,6.51c0.2,2.71-4.64,5.27-10.81,5.72c-4.85,0.35-9.07-0.7-10.76-2.48c-0.05-0.05-0.11-0.07-0.18-0.07
				l-3.3,0.24l-0.15-2.11"/>
			<line class="st3" x1="54.71" y1="4.41" x2="54.87" y2="6.51"/>
			
				<ellipse transform="matrix(0.9973 -0.0728 0.0728 0.9973 -0.2647 3.1857)" class="st3" cx="43.54" cy="5.22" rx="6.37" ry="2.36"/>
			<path class="st3" d="M55.52,9.06c-0.15,0.04-0.3,0.07-0.46,0.08L55,8.34c0.81-0.06,1.41-0.76,1.36-1.57s-0.76-1.41-1.57-1.36
				l-0.06-0.8c1.25-0.09,2.34,0.85,2.43,2.1C57.24,7.81,56.53,8.77,55.52,9.06z"/>
			<path class="st3" d="M54.82,5.9"/>
			<path class="st3" d="M53.64,2.42c0.95-0.07,1.81,0.46,2.21,1.27c0.21,0.43,1.05,2.13,1.05,2.13"/>
			<path class="st3" d="M54.81,5.75c0.1-0.1,0.19-0.21,0.26-0.33"/>
			<path class="st3" d="M57.14,6.59"/>
			<path class="st3" d="M42.87,53.02c0,0,0.8,0.04,1.51-0.08"/>
			<path class="st3" d="M49.29,52.5c0,0,0.67,0.02,1.38-0.1"/>
			<path class="st3" d="M43.46,50.11c0,0,3,0.13,5.59-0.41"/>
			<path class="st3" d="M41.97,29.15c0,0,3,0.13,5.59-0.41"/>
			<path class="st3" d="M41.34,20.56c0,0,3,0.13,5.59-0.41"/>
			<path class="st3" d="M41.39,33.54c0,0,0.8,0.06,1.51-0.04"/>
			<path class="st3" d="M47.67,33.12c0,0,0.67-0.04,1.37-0.22"/>
			<path class="st3" d="M40.62,24.88c0,0,0.8,0.06,1.51-0.04"/>
			<path class="st3" d="M46.9,24.46c0,0,0.67-0.04,1.37-0.22"/>
			<text transform="matrix(0.9973 -0.0728 0.0728 0.9973 44.008 34.3537)" class="st6 st7 st8">1.0</text>
			<text transform="matrix(0.9973 -0.0728 0.0728 0.9973 43.022 25.6798)" class="st6 st7 st8">1.5</text>
			<text transform="matrix(0.9973 -0.0728 0.0728 0.9973 45.4595 54.2265)" class="st6 st7 st8">0.1</text>
			<path class="st3" d="M37.33,6.1c0.46-1.14,2.99-2.16,6.11-2.39c3.12-0.23,5.77,0.41,6.39,1.47"/>
			<path class="st5" d="M52.54,12.89c0,0-4.71,2.3-10.58,1.61c0,0,6.08,0.25,10.52-2.33L52.54,12.89z"/>
			<path class="st4" d="M53.76,3.71c-0.37,2.48-4.38,4.64-10.12,5.06C38.3,9.16,34.48,7.4,33.22,5.28c0.48,2.57,5.2,4.44,11.18,4
				C50.13,8.86,53.47,6.25,53.76,3.71"/>
		</g>
		<g>
			<path class="st4" d="M73.5,44.11l-1.6-21.88c0,0-0.32,0.03-0.89,0.01l1.59,21.82"/>
			<line class="st4" x1="73.67" y1="46.52" x2="73.5" y2="44.11"/>
			<line class="st4" x1="73.72" y1="47.12" x2="73.67" y2="46.52"/>
			<path class="st4" d="M72.83,47.19l0.22,3.01c0.01,0.17,0.05,0.34,0.1,0.5l4.03,11.88L74,50.57c-0.03-0.12-0.05-0.24-0.06-0.36
				l-0.23-3.08"/>
			<line class="st4" x1="72.78" y1="46.58" x2="72.83" y2="47.19"/>
			<line class="st4" x1="72.6" y1="44.06" x2="72.78" y2="46.58"/>
			<path class="st4" d="M68.84,42.65l-1.66-22.76c0,0-0.54-0.18-1.03-0.38l1.69,23.11"/>
			<line class="st4" x1="69.14" y1="46.71" x2="68.84" y2="42.65"/>
			<line class="st4" x1="69.18" y1="47.35" x2="69.14" y2="46.71"/>
			<path class="st4" d="M68.19,47.42l0.15,2.05c0.02,0.31,0.12,0.62,0.28,0.89l8.71,14.34l-7.76-14.46
				c-0.13-0.24-0.21-0.51-0.23-0.78l-0.15-2.11"/>
			<line class="st4" x1="68.14" y1="46.78" x2="68.19" y2="47.42"/>
			<line class="st4" x1="67.83" y1="42.61" x2="68.14" y2="46.78"/>
			<line class="st5" x1="84.01" y1="41.99" x2="84.29" y2="45.74"/>
			<path class="st5" d="M83.05,42.51L81.47,20.8c0,0,0.57-0.12,0.97-0.35l1.57,21.54"/>
			<line class="st5" x1="83.29" y1="45.81" x2="83.05" y2="42.51"/>
			<line class="st5" x1="83.33" y1="46.32" x2="83.29" y2="45.81"/>
			<path class="st5" d="M84.32,46.24l0.15,2.05c0.02,0.31-0.03,0.63-0.15,0.92l-6.53,15.46l5.58-15.43c0.09-0.26,0.13-0.53,0.11-0.8
				l-0.15-2.11"/>
			<line class="st5" x1="84.29" y1="45.74" x2="84.32" y2="46.24"/>
			<path class="st3" d="M85.65,14.8c0.2,2.71-4.64,5.27-10.81,5.72c-6.17,0.45-11.33-1.38-11.53-4.09"/>
			<line class="st3" x1="63.28" y1="15.9" x2="63.32" y2="16.43"/>
			<line class="st3" x1="85.5" y1="12.7" x2="85.65" y2="14.8"/>
			<line class="st3" x1="84.87" y1="41.04" x2="83.2" y2="18.19"/>
			<path class="st3" d="M84.87,41.04"/>
			<path class="st3" d="M67.59,47.47l0.12,1.69c0.09,1.21,0.49,2.37,1.18,3.37L77,64.44c0.47,0.69,1.51,0.6,1.86-0.16l5.86-12.85
				c0.52-1.13,0.74-2.38,0.65-3.62l-0.17-2.28"/>
			<line class="st3" x1="65.52" y1="19.08" x2="67.18" y2="41.94"/>
			<path class="st3" d="M81.92,7.4c-2.09-0.76-4.97-1.12-8.1-0.89c-4.89,0.36-8.95,2.04-10.32,4.07c-0.03,0.04-0.08,0.07-0.13,0.08
				c-0.52,0.04-3.29,0.24-3.29,0.24l0.23,3.1l3.29-0.24c0.07-0.01,0.14,0.02,0.19,0.08c1.69,1.78,5.91,2.83,10.75,2.48
				c6.17-0.45,11.01-3.01,10.81-5.72C85.25,9.26,83.95,8.14,81.92,7.4z"/>
			<path class="st3" d="M85.5,12.7c0.2,2.71-4.64,5.27-10.81,5.72c-4.85,0.35-9.07-0.7-10.76-2.48c-0.05-0.05-0.11-0.07-0.18-0.07
				l-3.3,0.24l-0.15-2.11"/>
			<line class="st3" x1="85.35" y1="10.59" x2="85.5" y2="12.7"/>
			
				<ellipse transform="matrix(0.9973 -0.0728 0.0728 0.9973 -0.6337 5.4336)" class="st3" cx="74.18" cy="11.4" rx="6.37" ry="2.36"/>
			<path class="st3" d="M86.15,15.25c-0.15,0.04-0.3,0.07-0.46,0.08l-0.06-0.8c0.81-0.06,1.41-0.76,1.36-1.57
				c-0.06-0.81-0.76-1.41-1.57-1.36l-0.06-0.8c1.25-0.09,2.34,0.85,2.43,2.1C87.87,13.99,87.16,14.96,86.15,15.25z"/>
			<path class="st3" d="M85.45,12.08"/>
			<path class="st3" d="M84.27,8.6c0.95-0.07,1.81,0.46,2.21,1.27c0.21,0.43,1.05,2.13,1.05,2.13"/>
			<path class="st3" d="M85.44,11.93c0.1-0.1,0.19-0.21,0.26-0.33"/>
			<path class="st3" d="M87.78,12.77"/>
			<path class="st3" d="M73.51,59.2c0,0,0.8,0.04,1.51-0.08"/>
			<path class="st3" d="M79.93,58.68c0,0,0.67,0.02,1.38-0.1"/>
			<path class="st3" d="M74.09,55.68c0,0,3,0.13,5.59-0.41"/>
			<path class="st3" d="M72.61,35.33c0,0,3,0.13,5.59-0.41"/>
			<path class="st3" d="M71.98,26.74c0,0,3,0.13,5.59-0.41"/>
			<path class="st3" d="M72.74,48.67c0,0,0.8,0.06,1.51-0.04"/>
			<path class="st3" d="M79.01,48.25c0,0,0.67-0.04,1.37-0.22"/>
			<path class="st3" d="M72.03,39.72c0,0,0.8,0.06,1.51-0.04"/>
			<path class="st3" d="M78.3,39.3c0,0,0.67-0.04,1.37-0.22"/>
			<path class="st3" d="M71.26,31.06c0,0,0.8,0.06,1.51-0.04"/>
			<path class="st3" d="M77.53,30.64c0,0,0.67-0.04,1.37-0.22"/>
			<text transform="matrix(0.9973 -0.0728 0.0728 0.9973 74.8029 49.5631)" class="st6 st7 st8">0.5</text>
			<text transform="matrix(0.9973 -0.0728 0.0728 0.9973 74.644 40.537)" class="st6 st7 st8">1.0</text>
			<text transform="matrix(0.9973 -0.0728 0.0728 0.9973 73.658 31.8632)" class="st6 st7 st8">1.5</text>
			<text transform="matrix(0.9973 -0.0728 0.0728 0.9973 76.0955 60.4099)" class="st6 st7 st8">0.1</text>
			<path class="st3" d="M67.96,12.28c0.46-1.14,2.99-2.16,6.11-2.39c3.12-0.23,5.77,0.41,6.39,1.47"/>
			<path class="st9" d="M80.04,51.72c-1.06,0.23-2.22,0.39-3.44,0.48c-3.42,0.25-6.44-0.17-8.09-0.99"/>
			<path class="st9" d="M84.85,49.74c-0.6,0.53-1.55,1.02-2.76,1.43"/>
			<path class="st10" d="M83.96,47.91c-0.78-0.29-1.88-0.51-3.17-0.62"/>
			<path class="st5" d="M83.18,19.07c0,0-4.71,2.3-10.58,1.61c0,0,6.08,0.25,10.52-2.33L83.18,19.07z"/>
			<path class="st4" d="M84.39,9.89c-0.37,2.48-4.38,4.64-10.12,5.06c-5.34,0.39-9.16-1.37-10.42-3.49c0.48,2.57,5.2,4.44,11.18,4
				C80.76,15.05,84.11,12.43,84.39,9.89"/>
		</g>
	</g>
	<g>
		<path class="st11" d="M83.63,25.79l0.56,7.52c0.06,0.84-3.7,1.8-8.41,2.15c-4.7,0.35-8.57-0.04-8.64-0.88l-0.56-7.52
			c0.06,0.84,3.93,1.23,8.64,0.88C79.93,27.59,83.7,26.63,83.63,25.79z"/>
	</g>
	<g>
		<path class="st11" d="M35.72,28.92l0.56,7.52c0.06,0.84-3.7,1.8-8.41,2.15c-4.7,0.35-8.57-0.04-8.64-0.88l-0.56-7.52
			c0.06,0.84,3.93,1.23,8.64,0.88C32.02,30.72,35.78,29.76,35.72,28.92z"/>
	</g>
	<g>
		<path class="st11" d="M53.87,20.05l0.56,7.52c0.06,0.84-3.7,1.8-8.41,2.15c-4.7,0.35-8.57-0.04-8.64-0.88l-0.56-7.52
			c0.06,0.84,3.93,1.23,8.64,0.88C50.17,21.85,53.93,20.89,53.87,20.05z"/>
	</g>
	<text transform="matrix(1 0 0 1 25.58 38.4084)" class="st12 st13">-</text>
	<text transform="matrix(0.9937 -0.112 0.112 0.9937 44.0293 28.2414)" class="st12 st14">+</text>
	<text transform="matrix(1 -3.832834e-03 3.832834e-03 1 71.2589 33.8182)" class="st12 st14">RFP</text>
</g>
</svg>
