<!-- Generator: Adobe Illustrator 24.1.0, SVG Export Plug-In  -->
<svg version="1.1" xmlns="http://www.w3.org/2000/svg" xmlns:xlink="http://www.w3.org/1999/xlink" x="0px" y="0px"
	 width="319.71px" height="284.22px" viewBox="0 0 319.71 284.22" style="enable-background:new 0 0 319.71 284.22;"
	 xml:space="preserve">
<style type="text/css">
	.st0{fill:#699DAC;stroke:#231F20;stroke-width:0.5;stroke-miterlimit:10;}
	.st1{fill:#AEAEAF;stroke:#231F20;stroke-width:0.5;stroke-miterlimit:10;}
	.st2{fill:#9CC1CC;stroke:#231F20;stroke-width:0.5;stroke-miterlimit:10;}
	.st3{fill:#D7D8D8;stroke:#231F20;stroke-width:0.5;stroke-miterlimit:10;}
	.st4{opacity:0.58;fill:#C2C0C0;stroke:#231F20;stroke-width:0.5;stroke-miterlimit:10;}
	.st5{fill:#88B9C9;stroke:#231F20;stroke-width:0.5;stroke-miterlimit:10;}
	.st6{fill:#C2C0C0;stroke:#231F20;stroke-width:0.5;stroke-miterlimit:10;}
	.st7{fill:#F0F8FD;stroke:#231F20;stroke-width:0.5;stroke-miterlimit:10;}
	.st8{fill:none;stroke:#231F20;stroke-width:0.5;stroke-miterlimit:10;}
	.st9{fill:#1B335B;stroke:#231F20;stroke-width:0.5;stroke-miterlimit:10;}
	.st10{fill:#3C629B;stroke:#231F20;stroke-width:0.5;stroke-miterlimit:10;}
	.st11{opacity:0.4;fill:#F0F8FD;stroke:#231F20;stroke-width:0.5;stroke-miterlimit:10;}
</style>
<defs>
</defs>
<g>
	<polygon class="st0" points="245.85,229.22 238.02,271.92 227.68,283.75 219.85,264.92 231.52,233.25 237.52,238.25 	"/>
	<polygon class="st1" points="318.77,17.75 313.52,156.5 308.52,191.25 238.02,271.92 245.85,229.22 273.22,163.92 273.78,159.28 
		286.57,53.26 289.18,31.59 	"/>
	<path class="st2" d="M33.53,196.28l-18.01-3.36L0.85,219.59l65.33,41l56,11.33l97.67-7l11.67-31.67L33.53,196.28z M155.77,264
		l-31.75,2l-53.25-11.11l-23.25-13.14l15.5-30.32l103.5,20.07L155.77,264z"/>
	<polygon class="st3" points="318.77,17.75 289.18,31.59 88.85,11.92 126.85,0.25 	"/>
	<polygon class="st4" points="242.06,82.3 237.05,154.02 119.85,137.25 119.85,68.22 	"/>
	<polygon class="st4" points="266.82,51.12 244.52,70.59 119.85,56.78 119.85,35.2 	"/>
	<polygon class="st5" points="227.68,283.75 123.52,278.92 70.85,266.92 13.18,238.25 0.85,219.59 66.18,260.59 122.18,271.92 
		219.85,264.92 	"/>
	<polygon class="st6" points="289.18,31.59 286.57,53.26 266.82,51.12 	"/>
	<polygon class="st6" points="289.18,31.59 266.82,51.12 119.85,35.2 86.54,31.59 88.85,11.92 	"/>
	<polygon class="st4" points="244.52,70.59 242.06,82.3 119.85,68.22 119.85,56.78 	"/>
	<polygon class="st7" points="88.85,11.92 86.54,31.59 84.05,52.81 31.52,46.99 	"/>
	<polygon class="st7" points="84.05,52.81 82.74,63.95 27.52,57.59 31.52,46.99 	"/>
	<polygon class="st7" points="82.74,63.95 74.52,134 39.21,192.3 33.53,196.28 15.52,192.92 27.52,57.59 	"/>
	<polygon class="st1" points="119.85,68.22 119.85,137.25 39.21,192.3 74.52,134 82.74,63.95 	"/>
	<line class="st8" x1="119.85" y1="35.2" x2="119.85" y2="35.19"/>
	<polygon class="st1" points="119.85,35.2 119.85,56.78 84.05,52.81 86.54,31.59 	"/>
	<polygon class="st1" points="119.85,56.78 119.85,68.22 82.74,63.95 84.05,52.81 	"/>
	<polygon class="st4" points="286.57,53.26 273.78,159.28 237.05,154.02 242.06,82.3 244.52,70.59 266.82,51.12 	"/>
	<polygon class="st3" points="236.88,156.43 234.21,194.69 210.18,217.59 51.85,186.92 124.52,139.75 	"/>
	<polygon class="st3" points="269.31,161.25 234.21,194.69 236.88,156.43 	"/>
	<polygon class="st3" points="51.85,186.92 51.85,196.28 210.52,226.5 233.55,204.24 231.52,233.25 33.53,196.28 39.21,192.3 
		119.85,137.25 237.05,154.02 236.88,156.43 124.52,139.75 	"/>
	<polygon class="st6" points="210.52,226.5 51.85,196.28 51.85,186.92 210.18,217.59 	"/>
	<polygon class="st1" points="234.21,194.69 233.55,204.24 210.52,226.5 210.18,217.59 	"/>
	<polygon class="st1" points="269.31,161.25 269.31,169.67 233.55,204.24 234.21,194.69 	"/>
	<polygon class="st3" points="273.78,159.28 273.22,163.92 245.85,229.22 237.52,238.25 231.52,233.25 233.55,204.24 269.31,169.67 
		269.31,161.25 236.88,156.43 237.05,154.02 	"/>
	<path class="st1" d="M63.02,211.43l-15.5,30.32l23.25,13.14L124.02,266l31.75-2l10.75-32.5L63.02,211.43z M76.58,245.75h-1.19
		c-2.17,0-3.92-1.75-3.92-3.91c0-2.17,1.75-3.92,3.92-3.92h1.19c2.16,0,3.92,1.75,3.92,3.92C80.5,244,78.74,245.75,76.58,245.75z
		 M101.62,251.34h-1.2c-2.16,0-3.91-1.76-3.91-3.92c0-2.16,1.75-3.92,3.91-3.92h1.2c2.16,0,3.91,1.76,3.91,3.92
		C105.53,249.58,103.78,251.34,101.62,251.34z M128.04,255.25h-1.19c-2.17,0-3.92-1.75-3.92-3.91c0-2.17,1.75-3.92,3.92-3.92h1.19
		c2.16,0,3.92,1.75,3.92,3.92C131.96,253.5,130.2,255.25,128.04,255.25z M144.27,243.5l-76.59-14.28l3.84-8.47l76.81,14.35
		L144.27,243.5z"/>
	<path class="st9" d="M80.5,241.84c0,2.16-1.76,3.91-3.92,3.91h-1.19c2.16,0,3.91-1.75,3.91-3.91c0-2.17-1.75-3.92-3.91-3.92h1.19
		C78.74,237.92,80.5,239.67,80.5,241.84z"/>
	<path class="st9" d="M105.53,247.42c0,2.16-1.75,3.92-3.91,3.92h-1.2c2.16,0,3.92-1.76,3.92-3.92c0-2.16-1.76-3.92-3.92-3.92h1.2
		C103.78,243.5,105.53,245.26,105.53,247.42z"/>
	<path class="st9" d="M131.96,251.34c0,2.16-1.76,3.91-3.92,3.91h-1.19c2.16,0,3.91-1.75,3.91-3.91c0-2.17-1.75-3.92-3.91-3.92h1.19
		C130.2,247.42,131.96,249.17,131.96,251.34z"/>
	<polygon class="st3" points="148.33,235.1 144.27,243.5 67.68,229.22 71.52,220.75 	"/>
	<path class="st10" d="M79.3,241.84c0,2.16-1.75,3.91-3.91,3.91c-2.17,0-3.92-1.75-3.92-3.91c0-2.17,1.75-3.92,3.92-3.92
		C77.55,237.92,79.3,239.67,79.3,241.84z"/>
	<g>
		<path class="st10" d="M104.34,247.42c0,2.16-1.76,3.92-3.92,3.92c-2.16,0-3.91-1.76-3.91-3.92c0-2.16,1.75-3.92,3.91-3.92
			C102.58,243.5,104.34,245.26,104.34,247.42z"/>
	</g>
	<path class="st10" d="M130.76,251.34c0,2.16-1.75,3.91-3.91,3.91c-2.17,0-3.92-1.75-3.92-3.91c0-2.17,1.75-3.92,3.92-3.92
		C129.01,247.42,130.76,249.17,130.76,251.34z"/>
	<g>
		<polygon class="st11" points="33.53,196.28 39.21,192.3 74.52,134 82.74,63.95 242.06,82.3 231.52,233.25 		"/>
		<polygon class="st11" points="231.52,233.25 237.52,238.25 245.85,229.22 273.22,163.92 289.18,31.59 244.52,70.59 242.06,82.3 		
			"/>
		<polygon class="st11" points="82.74,63.95 84.05,52.81 244.52,70.59 242.06,82.3 		"/>
		<polygon class="st11" points="88.85,11.92 84.05,52.81 244.52,70.59 289.18,31.59 		"/>
	</g>
</g>
</svg>
