<!-- Generator: Adobe Illustrator 24.1.0, SVG Export Plug-In  -->
<svg version="1.1" xmlns="http://www.w3.org/2000/svg" xmlns:xlink="http://www.w3.org/1999/xlink" x="0px" y="0px"
	 width="172.47px" height="242.81px" viewBox="0 0 172.47 242.81" style="enable-background:new 0 0 172.47 242.81;"
	 xml:space="preserve">
<style type="text/css">
	.st0{fill:none;stroke:#48348B;stroke-width:1.773;stroke-linecap:round;stroke-miterlimit:10;}
</style>
<defs>
</defs>
<g>
	<path class="st0" d="M59.37,235.83c-19.97-9.34-36.66-28.81-47.04-54.1"/>
	<path class="st0" d="M121.24,231.36c-10.68,6.79-22.53,10.57-35,10.57c-1.99,0-3.96-0.1-5.91-0.28"/>
	<path class="st0" d="M161.96,177.07c-6.74,18.25-16.7,33.76-28.81,45.04"/>
	<path class="st0" d="M155.62,51.21c10.05,19.77,15.97,44.01,15.97,70.2"/>
	<path class="st0" d="M133.06,20.63c4.8,4.46,9.27,9.59,13.33,15.29"/>
	<path class="st0" d="M54.43,9.53c9.83-5.58,20.57-8.65,31.81-8.65c10.14,0,19.86,2.5,28.88,7.08"/>
	<path class="st0" d="M15.86,53.2c6.28-12.89,14.28-23.97,23.55-32.57"/>
	<path class="st0" d="M1.44,135.17c-0.36-4.52-0.55-9.11-0.55-13.76c0-20.41,3.59-39.64,9.94-56.49"/>
</g>
</svg>
