<!-- Generator: Adobe Illustrator 24.1.0, SVG Export Plug-In  -->
<svg version="1.1" xmlns="http://www.w3.org/2000/svg" xmlns:xlink="http://www.w3.org/1999/xlink" x="0px" y="0px"
	 width="215.87px" height="197.45px" viewBox="0 0 215.87 197.45" style="enable-background:new 0 0 215.87 197.45;"
	 xml:space="preserve">
<style type="text/css">
	.st0{opacity:0.9;fill:#EEF7F8;}
	.st1{fill:#13110C;}
	.st2{font-family:'Bahnschrift';}
	.st3{font-size:6.2896px;}
	.st4{fill:#EEB066;stroke:#2B2523;stroke-width:0.3952;stroke-miterlimit:10;}
	.st5{fill:#EEB066;stroke:#2B2523;stroke-width:0.3931;stroke-miterlimit:10;}
	.st6{fill:#E9C289;stroke:#2B2523;stroke-width:0.3931;stroke-miterlimit:10;}
	.st7{fill:none;stroke:#2B2523;stroke-width:0.3931;stroke-miterlimit:10;}
	.st8{fill:#F7FCFD;}
	.st9{opacity:0.61;fill:#D0CED0;}
	.st10{fill:none;stroke:#2B2523;stroke-width:0.3931;stroke-linecap:round;stroke-miterlimit:10;}
	.st11{fill:none;stroke:#2B2523;stroke-width:0.4418;stroke-linecap:round;stroke-miterlimit:10;}
	.st12{fill:#FCFCFD;stroke:#CCCCCC;stroke-width:0.7401;stroke-miterlimit:10;}
</style>
<defs>
</defs>
<g>
	<g>
		<g>
			<path class="st0" d="M187.15,133.37c0,3.51-8.41,6.37-18.78,6.37c-10.38,0-18.79-2.85-18.79-6.37c0-3.52,8.41-6.38,18.79-6.38
				C178.74,127,187.15,129.85,187.15,133.37z"/>
			<path class="st0" d="M187.15,133.37v18.23c0,2.41-0.61,4.79-1.78,6.9l-15.47,27.91c-0.47,0.9-1.76,0.91-2.26,0.02l-16.6-28.74
				c-0.97-1.67-1.47-3.57-1.47-5.5v-18.81c0,3.51,8.41,6.37,18.79,6.37C178.74,139.74,187.15,136.89,187.15,133.37z"/>
		</g>
		<text transform="matrix(1 0 0 1 165.4347 133.4673)" class="st1 st2 st3">1.0</text>
		<g>
			<path class="st0" d="M134.78,133.27c0,3.51-8.41,6.37-18.78,6.37c-10.38,0-18.79-2.85-18.79-6.37c0-3.52,8.41-6.38,18.79-6.38
				C126.36,126.89,134.78,129.74,134.78,133.27z"/>
			<path class="st0" d="M134.78,133.27v18.23c0,2.41-0.61,4.79-1.78,6.9l-15.47,27.91c-0.47,0.9-1.76,0.91-2.26,0.02l-16.6-28.74
				c-0.97-1.67-1.47-3.57-1.47-5.5v-18.81c0,3.51,8.41,6.37,18.79,6.37C126.36,139.63,134.78,136.78,134.78,133.27z"/>
		</g>
		<text transform="matrix(1 0 0 1 113.0587 133.3614)" class="st1 st2 st3">1.0</text>
		<g>
			<path class="st0" d="M80.71,133.75c0,3.51-8.41,6.37-18.78,6.37c-10.38,0-18.79-2.85-18.79-6.37c0-3.52,8.41-6.38,18.79-6.38
				C72.3,127.37,80.71,130.22,80.71,133.75z"/>
			<path class="st0" d="M80.71,133.75v18.23c0,2.41-0.61,4.79-1.78,6.9l-15.47,27.91c-0.47,0.9-1.76,0.91-2.26,0.02l-16.6-28.74
				c-0.97-1.67-1.47-3.57-1.47-5.5v-18.81c0,3.51,8.41,6.37,18.79,6.37C72.3,140.11,80.71,137.26,80.71,133.75z"/>
		</g>
		<text transform="matrix(1 0 0 1 58.9894 133.8409)" class="st1 st2 st3">1.0</text>
		<g>
			<polyline class="st4" points="171.13,104.56 171.13,162.16 206.09,196.97 206.09,134.96 			"/>
			<polygon class="st5" points="35.47,132.66 35.47,196.93 0.48,162.54 0.48,98.27 			"/>
			<polygon class="st6" points="209.22,132.66 209.22,196.93 206.12,196.93 206.12,135.63 37.68,135.63 37.68,196.93 35.47,196.93 
				35.47,132.66 			"/>
			<path class="st7" d="M174.23,98.27"/>
			<path class="st6" d="M175,107.53c0,0.36-0.08,0.72-0.24,1.06c-1.49-3.36-10.02-5.93-20.34-5.93c-10.31,0-18.86,2.57-20.34,5.93
				c-0.16-0.35-0.24-0.7-0.24-1.06c0-3.85,9.21-6.97,20.57-6.97C165.79,100.55,175,103.68,175,107.53z"/>
			<path class="st7" d="M174.23,132.67"/>
			<path class="st7" d="M0.48,162.54"/>
			<path class="st6" d="M65.35,107.53c0,0.36-0.08,0.71-0.24,1.05c-1.49-3.35-10.02-5.92-20.33-5.92c-10.31,0-18.85,2.56-20.34,5.92
				c-0.16-0.35-0.24-0.69-0.24-1.05c0-3.85,9.21-6.97,20.57-6.97C56.14,100.55,65.35,103.68,65.35,107.53z"/>
			<path class="st7" d="M65.11,108.58C65.11,108.59,65.11,108.59,65.11,108.58c-1.51,3.36-10.03,5.92-20.33,5.92
				c-10.31,0-18.85-2.57-20.34-5.92c1.49-3.36,10.03-5.92,20.34-5.92C55.09,102.66,63.62,105.23,65.11,108.58z"/>
			<path class="st6" d="M82.28,123.58c0,0.36-0.08,0.7-0.24,1.05c-1.51-3.35-10.04-5.91-20.33-5.91c-10.31,0-18.85,2.58-20.34,5.93
				c-0.16-0.35-0.24-0.7-0.24-1.06c0-3.85,9.21-6.97,20.57-6.97S82.28,119.73,82.28,123.58z"/>
			<path class="st7" d="M82.05,124.63L82.05,124.63c-1.49,3.36-10.02,5.94-20.33,5.94c-10.3,0-18.83-2.57-20.34-5.92
				c1.49-3.35,10.02-5.93,20.34-5.93C72.01,118.72,80.54,121.28,82.05,124.63z"/>
			<path class="st6" d="M120.17,107.53c0,0.36-0.08,0.7-0.24,1.05c-1.5-3.35-10.03-5.91-20.33-5.91c-10.3,0-18.83,2.56-20.34,5.91
				c-0.16-0.35-0.24-0.68-0.24-1.05c0-3.85,9.21-6.97,20.57-6.97S120.17,103.68,120.17,107.53z"/>
			<path class="st7" d="M119.94,108.57L119.94,108.57c-1.49,3.36-10.02,5.93-20.33,5.93c-10.31,0-18.85-2.57-20.34-5.92v-0.01
				c1.51-3.35,10.04-5.91,20.34-5.91C109.9,102.66,118.43,105.22,119.94,108.57z"/>
			<path class="st6" d="M136.24,123.25c0,0.36-0.08,0.71-0.24,1.05c-1.49-3.36-10.03-5.92-20.34-5.92
				c-10.31,0-18.84,2.56-20.33,5.92c-0.16-0.35-0.24-0.69-0.24-1.05c0-3.85,9.21-6.97,20.57-6.97
				C127.03,116.28,136.24,119.4,136.24,123.25z"/>
			<path class="st7" d="M136.01,124.31C136.01,124.31,136.01,124.31,136.01,124.31c-1.51,3.36-10.04,5.92-20.34,5.92
				c-10.31,0-18.84-2.57-20.33-5.92c1.49-3.36,10.02-5.92,20.33-5.92C125.97,118.39,134.51,120.95,136.01,124.31z"/>
			<path class="st7" d="M174.77,108.59c-1.51,3.35-10.04,5.91-20.34,5.91c-10.3,0-18.83-2.56-20.34-5.91
				c1.48-3.36,10.02-5.93,20.34-5.93C164.74,102.66,173.28,105.23,174.77,108.59z"/>
			<path class="st6" d="M188.61,123.25c0,0.35-0.08,0.71-0.23,1.05c-1.51-3.35-10.04-5.91-20.34-5.91
				c-10.31,0-18.85,2.57-20.34,5.92c-0.16-0.35-0.24-0.69-0.24-1.05c0-3.85,9.21-6.97,20.57-6.97
				C179.4,116.28,188.61,119.4,188.61,123.25z"/>
			<path class="st7" d="M188.38,124.3L188.38,124.3c-0.02,0.06-0.05,0.11-0.08,0.16c-0.03,0.06-0.07,0.13-0.11,0.2
				c-0.05,0.09-0.11,0.17-0.17,0.27c-0.07,0.1-0.16,0.2-0.24,0.3c-0.63,0.73-1.6,1.42-2.86,2.02c-0.28,0.14-0.59,0.28-0.9,0.41
				c-0.15,0.06-0.29,0.13-0.45,0.18c-0.07,0.02-0.14,0.05-0.21,0.08c-0.37,0.14-0.76,0.28-1.17,0.41c-0.21,0.07-0.43,0.14-0.66,0.2
				c-0.17,0.05-0.34,0.09-0.51,0.14c-0.18,0.05-0.35,0.09-0.53,0.14c-1.31,0.35-2.74,0.63-4.27,0.85c-0.28,0.05-0.56,0.08-0.84,0.12
				c-0.38,0.05-0.76,0.09-1.16,0.13c-0.32,0.04-0.64,0.07-0.97,0.09c-0.04,0.01-0.08,0.01-0.12,0.02c-0.33,0.02-0.67,0.06-1,0.07
				c-0.1,0.01-0.2,0.02-0.31,0.02c-0.41,0.02-0.83,0.05-1.24,0.06c-0.46,0.02-0.93,0.03-1.4,0.04c-0.19,0.01-0.38,0.01-0.57,0.01
				c-0.19,0.01-0.38,0.01-0.57,0.01c-10.31,0-18.85-2.57-20.34-5.92c1.49-3.35,10.03-5.92,20.34-5.92
				C178.34,118.39,186.87,120.95,188.38,124.3z"/>
			<path class="st7" d="M65.14,108.63c-0.01-0.02-0.01-0.02-0.02-0.04"/>
			<path class="st7" d="M119.95,108.6c0-0.01-0.01-0.02-0.02-0.02v-0.01"/>
			<path class="st7" d="M79.27,108.57L79.27,108.57c-0.01,0.02-0.02,0.02-0.02,0.03"/>
			<path class="st7" d="M82.06,124.66c0-0.01-0.01-0.02-0.02-0.02v-0.01"/>
			<path class="st7" d="M41.38,124.64c-0.02,0.04-0.04,0.07-0.06,0.11"/>
			<path class="st7" d="M136.03,124.35c-0.01-0.02-0.01-0.02-0.02-0.04"/>
			<path class="st7" d="M95.34,124.31c-0.02,0.02-0.02,0.02-0.02,0.04"/>
			<path class="st7" d="M174.8,108.65c-0.01-0.02-0.02-0.04-0.03-0.06"/>
			<path class="st7" d="M134.09,108.59c-0.01,0.02-0.02,0.03-0.02,0.05"/>
			<path class="st7" d="M188.4,124.34c-0.01-0.01-0.01-0.02-0.02-0.03v-0.01"/>
			<path class="st5" d="M174.23,98.27H0.48l34.99,34.4h173.75L174.23,98.27z M154.43,100.55c11.36,0,20.57,3.12,20.57,6.97
				c0,0.36-0.08,0.72-0.24,1.06c-1.51,3.35-10.04,5.91-20.34,5.91c-10.3,0-18.83-2.56-20.34-5.91c-0.16-0.35-0.24-0.7-0.24-1.06
				C133.85,103.68,143.07,100.55,154.43,100.55z M99.6,100.55c11.36,0,20.57,3.12,20.57,6.97c0,0.36-0.08,0.7-0.24,1.05v0.01
				c-1.49,3.35-10.02,5.92-20.33,5.92c-10.31,0-18.85-2.57-20.34-5.92v-0.01c-0.16-0.35-0.24-0.68-0.24-1.05
				C79.03,103.68,88.24,100.55,99.6,100.55z M24.44,108.58c-0.16-0.35-0.24-0.69-0.24-1.05c0-3.85,9.21-6.97,20.57-6.97
				c11.36,0,20.57,3.12,20.57,6.97c0,0.36-0.08,0.71-0.24,1.05c0,0.01,0,0.01,0,0.01c-1.51,3.35-10.03,5.91-20.33,5.91
				C34.48,114.5,25.94,111.93,24.44,108.58z M82.05,124.63L82.05,124.63c-1.49,3.36-10.02,5.94-20.33,5.94
				c-10.3,0-18.83-2.57-20.34-5.92c-0.16-0.35-0.24-0.7-0.24-1.06c0-3.85,9.21-6.97,20.57-6.97s20.57,3.12,20.57,6.97
				C82.28,123.94,82.21,124.28,82.05,124.63z M136.01,124.31C136.01,124.31,136.01,124.31,136.01,124.31
				c-1.51,3.36-10.04,5.92-20.34,5.92c-10.31,0-18.84-2.57-20.33-5.92c-0.16-0.35-0.24-0.69-0.24-1.05c0-3.85,9.21-6.97,20.57-6.97
				c11.36,0,20.57,3.12,20.57,6.97C136.24,123.61,136.16,123.96,136.01,124.31z M188.38,124.31c-0.02,0.05-0.05,0.1-0.08,0.15
				c-0.03,0.06-0.07,0.13-0.11,0.2c-0.05,0.09-0.11,0.17-0.17,0.27c-0.07,0.1-0.15,0.2-0.24,0.3c-0.63,0.73-1.6,1.42-2.86,2.02
				c-0.28,0.14-0.59,0.28-0.9,0.41c-0.15,0.06-0.29,0.13-0.45,0.18c-0.07,0.02-0.14,0.05-0.21,0.08c-0.37,0.14-0.76,0.28-1.17,0.41
				c-0.21,0.08-0.43,0.14-0.66,0.2c-0.17,0.05-0.34,0.09-0.51,0.14c-0.18,0.05-0.35,0.09-0.53,0.14c-1.31,0.35-2.74,0.63-4.27,0.85
				c-0.28,0.05-0.56,0.09-0.84,0.12c-0.38,0.05-0.76,0.09-1.16,0.13c-0.32,0.04-0.64,0.07-0.97,0.09c-0.04,0.01-0.08,0.01-0.12,0.02
				c-0.33,0.02-0.67,0.06-1,0.07c-0.1,0.01-0.2,0.02-0.31,0.02c-0.41,0.02-0.83,0.05-1.24,0.06c-0.46,0.02-0.93,0.03-1.4,0.04
				c-0.19,0.01-0.38,0.01-0.57,0.01c-0.19,0.01-0.38,0.01-0.57,0.01c-10.31,0-18.85-2.57-20.34-5.92c-0.16-0.35-0.24-0.69-0.24-1.05
				c0-3.85,9.21-6.97,20.57-6.97c11.36,0,20.57,3.12,20.57,6.97C188.61,123.61,188.53,123.96,188.38,124.31L188.38,124.31z"/>
		</g>
		<path class="st8" d="M55.84,130.01V92.53c0,0-0.72,0.03-2-0.13v37.42"/>
		<path class="st8" d="M53.84,135.87v19.28c0,0.38,0.05,0.76,0.14,1.13l7.05,27.18l-5.12-27.33c-0.05-0.27-0.08-0.55-0.08-0.82
			v-19.46"/>
		<path class="st8" d="M43.45,135.86v23.04c0,0.7,0.17,1.4,0.49,2.03l17.82,27.55l-15.69-27.66c-0.25-0.56-0.38-1.16-0.38-1.78
			v-23.18"/>
		<path class="st8" d="M45.69,127.74V84.55c0,0-1.17,1.48-2.24,0.93v41.09"/>
		<path class="st9" d="M79.67,135.86v19.74c0,0.7-0.17,1.4,0.42-0.76l-17.11,33.45l14.06-30.76c0.25-0.56,0.38-1.16,0.38-1.78
			l0-19.89"/>
		<path class="st9" d="M77.43,127.84l0.01-36.96c0,0,1.29-0.16,2.23-0.62v36.49"/>
		<line class="st7" x1="81.74" y1="125.28" x2="81.74" y2="85.33"/>
		<path class="st7" d="M42.11,135.63v16.31c0,2.71,0.72,5.38,2.07,7.72l16.17,27.92c0.93,1.61,3.27,1.59,4.17-0.05l15.18-27.73
			c1.34-2.44,2.04-5.18,2.04-7.97v-16.21"/>
		<line class="st7" x1="42.11" y1="84.46" x2="42.11" y2="125.7"/>
		<path class="st7" d="M87.77,72.08"/>
		<path class="st7" d="M92.84,74"/>
		<path class="st7" d="M53.41,175.33c0,0,1.78,0.21,3.39,0.06"/>
		<path class="st7" d="M67.83,175.21c0,0,1.5,0.15,3.1,0"/>
		<path class="st7" d="M55.29,167.57c0,0,6.67,0.79,12.54,0"/>
		<path class="st7" d="M55.29,141.76c0,0,6.67,0.79,12.54,0"/>
		<path class="st7" d="M55.29,121.89c0,0,6.67,0.79,12.54,0"/>
		<path class="st7" d="M55.29,102.6c0,0,6.67,0.79,12.54,0"/>
		<path class="st7" d="M53.41,151.68c0,0,1.78,0.25,3.38,0.15"/>
		<path class="st7" d="M67.48,151.77c0,0,1.51,0.01,3.09-0.27"/>
		<path class="st7" d="M52.98,112.13c0,0,1.78,0.25,3.38,0.15"/>
		<path class="st7" d="M67.05,112.21c0,0,1.51,0.01,3.09-0.27"/>
		<text transform="matrix(1 0 0 1 57.8751 154.0201)" class="st1 st2 st3">0.5</text>
		<text transform="matrix(1 0 0 1 58.2032 114.3164)" class="st1 st2 st3">1.5</text>
		<text transform="matrix(1 0 0 1 58.9894 178.4463)" class="st1 st2 st3">0.1</text>
		<path class="st10" d="M69.22,159.69c-2.4,0.33-5.02,0.51-7.76,0.51c-7.67,0-14.35-1.42-17.89-3.53"/>
		<path class="st10" d="M80.28,156.05c-1.42,1.09-3.63,2.03-6.39,2.74"/>
		<path class="st11" d="M78.58,151.82c-1.7-0.78-4.11-1.44-6.99-1.9"/>
		<path class="st9" d="M81.54,87.3c0,0-10.89,4.36-23.88,1.86c0,0,13.54,1.55,23.87-3.49L81.54,87.3z"/>
		<path class="st8" d="M109.91,129.53V92.05c0,0-0.72,0.03-2-0.13v37.42"/>
		<path class="st8" d="M107.91,135.39v19.28c0,0.38,0.05,0.76,0.14,1.13l7.05,27.18l-5.12-27.33c-0.05-0.27-0.08-0.55-0.08-0.82
			v-19.46"/>
		<path class="st8" d="M97.51,135.38v23.04c0,0.7,0.17,1.4,0.49,2.03l18.14,27.41l-16.01-27.52c-0.25-0.56-0.38-1.16-0.38-1.78
			v-23.18"/>
		<path class="st8" d="M99.76,127.26V84.07c0,0-1.17,1.48-2.24,0.93v41.09"/>
		<path class="st9" d="M133.74,135.38v19.74c0,0.7-0.17,1.4-0.49,2.03l-15.99,30.71l13.86-30.82c0.25-0.56,0.38-1.16,0.38-1.78
			l0-19.89"/>
		<path class="st9" d="M131.5,127.36l0.01-36.96c0,0,1.29-0.16,2.23-0.62v36.49"/>
		<line class="st7" x1="135.81" y1="124.8" x2="135.81" y2="84.85"/>
		<path class="st7" d="M96.17,135.15v16.31c0,2.71,0.72,5.38,2.07,7.72l16.17,27.92c0.93,1.61,3.27,1.59,4.17-0.05l15.18-27.73
			c1.34-2.44,2.04-5.18,2.04-7.97v-16.21"/>
		<line class="st7" x1="96.17" y1="83.98" x2="96.17" y2="125.22"/>
		<path class="st7" d="M107.48,174.85c0,0,1.78,0.21,3.39,0.06"/>
		<path class="st7" d="M121.9,174.73c0,0,1.5,0.15,3.1,0"/>
		<path class="st7" d="M109.36,167.09c0,0,6.67,0.79,12.54,0"/>
		<path class="st7" d="M109.36,141.28c0,0,6.67,0.79,12.54,0"/>
		<path class="st7" d="M109.36,121.41c0,0,6.67,0.79,12.54,0"/>
		<path class="st7" d="M109.36,102.12c0,0,6.67,0.79,12.54,0"/>
		<path class="st7" d="M107.48,151.2c0,0,1.78,0.25,3.38,0.15"/>
		<path class="st7" d="M121.55,151.29c0,0,1.51,0.01,3.09-0.27"/>
		<path class="st7" d="M107.05,111.65c0,0,1.78,0.25,3.38,0.15"/>
		<path class="st7" d="M121.12,111.73c0,0,1.51,0.01,3.09-0.27"/>
		<text transform="matrix(1 0 0 1 111.9444 153.5406)" class="st1 st2 st3">0.5</text>
		<text transform="matrix(1 0 0 1 112.2721 113.8369)" class="st1 st2 st3">1.5</text>
		<text transform="matrix(1 0 0 1 113.0587 177.9668)" class="st1 st2 st3">0.1</text>
		<path class="st10" d="M123.29,159.21c-2.4,0.33-5.02,0.51-7.76,0.51c-7.67,0-14.35-1.42-17.89-3.53"/>
		<path class="st10" d="M134.35,155.57c-1.42,1.09-3.63,2.03-6.39,2.74"/>
		<path class="st11" d="M132.65,151.34c-1.7-0.78-4.11-1.44-6.99-1.9"/>
		<path class="st9" d="M135.61,86.82c0,0-10.89,4.36-23.88,1.86c0,0,13.54,1.55,23.87-3.49L135.61,86.82z"/>
		<path class="st8" d="M162.29,129.64V92.15c0,0-0.72,0.03-2-0.13v37.42"/>
		<path class="st8" d="M160.29,135.49v19.28c0,0.38,0.05,0.76,0.14,1.13l7.05,27.18l-5.12-27.33c-0.05-0.27-0.08-0.55-0.08-0.82
			v-19.46"/>
		<path class="st8" d="M149.89,135.48v23.04c0,0.7,0.17,1.4,0.49,2.03l17.81,27.2l-15.67-27.31c-0.25-0.56-0.38-1.16-0.38-1.78
			v-23.18"/>
		<path class="st8" d="M152.13,127.36V84.18c0,0-1.17,1.48-2.24,0.93v41.09"/>
		<path class="st9" d="M186.12,135.48v19.74c0,0.7-0.17,1.4-0.49,2.03l-15.79,30.5l13.66-30.6c0.25-0.56,0.38-1.16,0.38-1.78
			l0-19.89"/>
		<path class="st9" d="M183.88,127.47l0.01-36.96c0,0,1.29-0.16,2.23-0.62v36.49"/>
		<line class="st7" x1="188.18" y1="124.9" x2="188.18" y2="84.96"/>
		<path class="st7" d="M148.55,135.26v16.31c0,2.71,0.72,5.38,2.07,7.72l16.17,27.92c0.93,1.61,3.27,1.59,4.17-0.05l15.18-27.73
			c1.34-2.44,2.04-5.18,2.04-7.97v-16.21"/>
		<line class="st7" x1="148.55" y1="84.08" x2="148.55" y2="125.32"/>
		<path class="st7" d="M159.85,174.95c0,0,1.78,0.21,3.39,0.06"/>
		<path class="st7" d="M174.28,174.84c0,0,1.5,0.15,3.1,0"/>
		<path class="st7" d="M161.73,167.19c0,0,6.67,0.79,12.54,0"/>
		<path class="st7" d="M161.73,141.38c0,0,6.67,0.79,12.54,0"/>
		<path class="st7" d="M161.73,121.52c0,0,6.67,0.79,12.54,0"/>
		<path class="st7" d="M161.73,102.23c0,0,6.67,0.79,12.54,0"/>
		<path class="st7" d="M159.86,151.31c0,0,1.78,0.25,3.38,0.15"/>
		<path class="st7" d="M173.93,151.4c0,0,1.51,0.01,3.09-0.27"/>
		<path class="st7" d="M159.42,111.75c0,0,1.78,0.25,3.38,0.15"/>
		<path class="st7" d="M173.5,111.84c0,0,1.51,0.01,3.09-0.27"/>
		<text transform="matrix(1 0 0 1 164.3204 153.6465)" class="st1 st2 st3">0.5</text>
		<text transform="matrix(1 0 0 1 164.6485 113.9429)" class="st1 st2 st3">1.5</text>
		<text transform="matrix(1 0 0 1 165.4347 178.0728)" class="st1 st2 st3">0.1</text>
		<path class="st10" d="M175.66,159.32c-2.4,0.33-5.02,0.51-7.76,0.51c-7.67,0-14.35-1.42-17.89-3.53"/>
		<path class="st10" d="M186.72,155.67c-1.42,1.09-3.63,2.03-6.39,2.74"/>
		<path class="st11" d="M185.03,151.44c-1.7-0.78-4.11-1.44-6.99-1.9"/>
		<path class="st9" d="M187.98,86.93c0,0-10.89,4.36-23.88,1.86c0,0,13.54,1.55,23.87-3.49L187.98,86.93z"/>
		<path class="st12" d="M81.85,104.9v17.59c0,1.95-8.92,3.55-19.92,3.55c-11,0-19.92-1.59-19.92-3.55V104.9
			c0,1.96,8.93,3.55,19.92,3.55C72.93,108.44,81.85,106.86,81.85,104.9z"/>
		<path class="st12" d="M135.91,103.94v17.59c0,1.95-8.92,3.55-19.92,3.55c-11,0-19.92-1.59-19.92-3.55v-17.59
			c0,1.96,8.93,3.55,19.92,3.55C127,107.48,135.91,105.9,135.91,103.94z"/>
		<path class="st12" d="M188.29,103.27v17.59c0,1.95-8.92,3.55-19.92,3.55c-11,0-19.92-1.59-19.92-3.55v-17.59
			c0,1.96,8.93,3.55,19.92,3.55C179.37,106.82,188.29,105.23,188.29,103.27z"/>
		<ellipse class="st7" cx="62.42" cy="73.43" rx="20.57" ry="6.98"/>
		<ellipse class="st7" cx="62.64" cy="73.43" rx="25.07" ry="11.01"/>
		<path class="st7" d="M87.71,78.16c0,6.08-11.22,11.01-25.07,11.01s-25.07-4.93-25.07-11.01v-4.73"/>
		<line class="st7" x1="87.71" y1="73.43" x2="87.71" y2="78.16"/>
		<path class="st7" d="M95.53,8.01"/>
		<path class="st7" d="M87.02,70.85l10.27-9.48c0.26-0.26,0.46-0.58,0.58-0.93l3.29-9.48c0.14-0.42,0.4-0.78,0.73-1.08
			c4.14-3.8,7.1-11.5,7.1-19.81c0-8.34-2.82-15.6-6.97-19.35c-0.19-0.17-0.3-0.41-0.3-0.67c0.01-1.41,0.03-6.09,0.04-7.66
			c0-0.24-0.25-0.39-0.46-0.28l-3.81,1.8"/>
		<path class="st7" d="M75.74,64.05l8.76-6.82c0.39-0.31,0.69-0.72,0.84-1.2c0,0,1.44-4.38,1.83-5.58c0.06-0.18-0.02-0.36-0.17-0.46
			c-5.08-3.04-8.69-10.79-8.69-19.88c0-8.2,2.94-15.31,7.25-18.86c0.19-0.15,0.3-0.38,0.3-0.62l0-8.49c0-0.12,0.11-0.21,0.22-0.19
			l11.4,1.97c0.08,0.01,0.14,0.09,0.14,0.17l0,6.46c0,0.27,0.12,0.52,0.33,0.69c4.32,3.54,7.27,10.66,7.27,18.87
			c0,7.74-3.15,16.02-7.07,19.77c-0.1,0.09-0.17,0.2-0.21,0.33l-2.8,8.02c-0.13,0.38-0.36,0.73-0.67,0.99l-9.99,8.8"/>
		<path class="st7" d="M85.86,1.92"/>
		<path class="st7" d="M86.08,1.95l4.87-1.4c0.04-0.01,0.08-0.01,0.12-0.01l10.45,1.55"/>
		<ellipse class="st7" cx="86.08" cy="30.92" rx="5.27" ry="14.25"/>
		<path class="st7" d="M93.61,15.62c2.91,0,5.27,6.38,5.27,14.25s-2.36,14.25-5.27,14.25"/>
		<line class="st7" x1="86.08" y1="16.67" x2="93.61" y2="15.62"/>
		<line class="st7" x1="86.08" y1="45.17" x2="93.61" y2="44.12"/>
		<ellipse class="st7" cx="86.08" cy="30.92" rx="3.28" ry="11.69"/>
		<path class="st8" d="M85.28,72.25c-1.23,5.48-10.53,9.66-23.41,9.66c-11.99,0-20.24-4.55-22.7-9.49
			c0.65,5.82,10.88,10.75,24.3,10.75C76.34,83.17,84.23,77.88,85.28,72.25"/>
		<ellipse class="st7" cx="116.59" cy="73.08" rx="20.57" ry="6.98"/>
		<ellipse class="st7" cx="116.81" cy="73.08" rx="25.07" ry="11.01"/>
		<path class="st7" d="M141.88,77.81c0,6.08-11.22,11.01-25.07,11.01s-25.07-4.93-25.07-11.01v-4.73"/>
		<line class="st7" x1="141.88" y1="73.08" x2="141.88" y2="77.81"/>
		<path class="st7" d="M149.7,7.66"/>
		<path class="st7" d="M141.18,70.51l10.27-9.48c0.26-0.26,0.46-0.58,0.58-0.93l3.29-9.48c0.14-0.42,0.4-0.78,0.73-1.08
			c4.14-3.8,7.1-11.5,7.1-19.81c0-8.34-2.82-15.6-6.97-19.35c-0.19-0.17-0.3-0.41-0.3-0.67c0.01-1.41,0.03-6.09,0.04-7.66
			c0-0.24-0.25-0.39-0.46-0.28l-3.81,1.8"/>
		<path class="st7" d="M129.91,63.7l8.76-6.82c0.39-0.31,0.69-0.72,0.84-1.2c0,0,1.44-4.38,1.83-5.58c0.06-0.18-0.02-0.36-0.17-0.46
			c-5.08-3.04-8.69-10.79-8.69-19.88c0-8.2,2.94-15.31,7.25-18.86c0.19-0.15,0.3-0.38,0.3-0.62l0-8.49c0-0.12,0.11-0.21,0.22-0.19
			l11.4,1.97c0.08,0.01,0.14,0.09,0.14,0.17l0,6.46c0,0.27,0.12,0.52,0.33,0.69c4.32,3.54,7.27,10.66,7.27,18.87
			c0,7.74-3.15,16.02-7.07,19.77c-0.1,0.09-0.17,0.2-0.21,0.33l-2.8,8.02c-0.13,0.38-0.36,0.73-0.67,0.99l-9.99,8.8"/>
		<path class="st7" d="M140.02,1.57"/>
		<path class="st7" d="M140.25,1.61l4.87-1.4c0.04-0.01,0.08-0.01,0.12-0.01l10.45,1.55"/>
		<ellipse class="st7" cx="140.25" cy="30.57" rx="5.27" ry="14.25"/>
		<path class="st7" d="M147.78,15.27c2.91,0,5.27,6.38,5.27,14.25s-2.36,14.25-5.27,14.25"/>
		<line class="st7" x1="140.25" y1="16.32" x2="147.78" y2="15.27"/>
		<line class="st7" x1="140.25" y1="44.82" x2="147.78" y2="43.77"/>
		<ellipse class="st7" cx="140.25" cy="30.57" rx="3.28" ry="11.69"/>
		<path class="st8" d="M139.44,71.9c-1.23,5.48-10.53,9.66-23.41,9.66c-11.99,0-20.24-4.55-22.7-9.49
			c0.65,5.82,10.88,10.75,24.3,10.75C130.5,82.82,138.39,77.53,139.44,71.9"/>
		<line class="st7" x1="71.01" y1="151.16" x2="71.01" y2="155.89"/>
		<path class="st7" d="M78.83,85.74"/>
		<path class="st7" d="M69.16,79.65"/>
		<ellipse class="st7" cx="169.11" cy="73.08" rx="20.57" ry="6.98"/>
		<ellipse class="st7" cx="169.33" cy="73.08" rx="25.07" ry="11.01"/>
		<path class="st7" d="M194.4,77.81c0,6.08-11.22,11.01-25.07,11.01s-25.07-4.93-25.07-11.01v-4.73"/>
		<line class="st7" x1="194.4" y1="73.08" x2="194.4" y2="77.81"/>
		<path class="st7" d="M202.22,7.66"/>
		<path class="st7" d="M193.7,70.51l10.27-9.48c0.26-0.26,0.46-0.58,0.58-0.93l3.29-9.48c0.14-0.42,0.4-0.78,0.73-1.08
			c4.14-3.8,7.1-11.5,7.1-19.81c0-8.34-2.82-15.6-6.97-19.35c-0.19-0.17-0.3-0.41-0.3-0.67c0.01-1.41,0.03-6.09,0.04-7.66
			c0-0.24-0.25-0.39-0.46-0.28l-3.81,1.8"/>
		<path class="st7" d="M182.43,63.7l8.76-6.82c0.39-0.31,0.69-0.72,0.84-1.2c0,0,1.44-4.38,1.83-5.58c0.06-0.18-0.02-0.36-0.17-0.46
			c-5.08-3.04-8.69-10.79-8.69-19.88c0-8.2,2.94-15.31,7.25-18.86c0.19-0.15,0.3-0.38,0.3-0.62l0-8.49c0-0.12,0.11-0.21,0.22-0.19
			l11.4,1.97c0.08,0.01,0.14,0.09,0.14,0.17l0,6.46c0,0.27,0.12,0.52,0.33,0.69c4.32,3.54,7.27,10.66,7.27,18.87
			c0,7.74-3.15,16.02-7.07,19.77c-0.1,0.09-0.17,0.2-0.21,0.33l-2.8,8.02c-0.13,0.38-0.36,0.73-0.67,0.99l-9.99,8.8"/>
		<path class="st7" d="M192.54,1.57"/>
		<path class="st7" d="M192.77,1.61l4.87-1.4c0.04-0.01,0.08-0.01,0.12-0.01l10.45,1.55"/>
		<ellipse class="st7" cx="192.77" cy="30.57" rx="5.27" ry="14.25"/>
		<path class="st7" d="M200.3,15.27c2.91,0,5.27,6.38,5.27,14.25s-2.36,14.25-5.27,14.25"/>
		<line class="st7" x1="192.77" y1="16.32" x2="200.3" y2="15.27"/>
		<line class="st7" x1="192.77" y1="44.82" x2="200.3" y2="43.77"/>
		<ellipse class="st7" cx="192.77" cy="30.57" rx="3.28" ry="11.69"/>
		<path class="st8" d="M191.96,71.9c-1.23,5.48-10.53,9.66-23.41,9.66c-11.99,0-20.24-4.55-22.7-9.49
			c0.65,5.82,10.88,10.75,24.3,10.75C183.02,82.82,190.91,77.53,191.96,71.9"/>
	</g>
</g>
</svg>
