<!-- Generator: Adobe Illustrator 24.1.0, SVG Export Plug-In  -->
<svg version="1.1" xmlns="http://www.w3.org/2000/svg" xmlns:xlink="http://www.w3.org/1999/xlink" x="0px" y="0px"
	 width="190.48px" height="257.95px" viewBox="0 0 190.48 257.95" style="enable-background:new 0 0 190.48 257.95;"
	 xml:space="preserve">
<style type="text/css">
	.st0{opacity:0.2;}
	.st1{fill:#3D6D97;stroke:#3D6D97;stroke-miterlimit:10;}
</style>
<defs>
</defs>
<g class="st0">
	<g>
		<path class="st1" d="M113.72,152.88c1.67,1.69,4.4,1.7,6.09,0.02c0.01-0.01,0.02-0.02,0.02-0.02l34.44-34.44
			c1.69-1.69,1.69-4.43,0-6.11c-1.69-1.69-4.43-1.69-6.11,0l-34.44,34.44c-1.69,1.67-1.7,4.4-0.02,6.09
			C113.7,152.86,113.71,152.87,113.72,152.88z"/>
		<path class="st1" d="M188.71,138.16c-1.67-1.69-4.4-1.7-6.09-0.02c-0.01,0.01-0.02,0.02-0.02,0.02l-64.58,64.58
			c-4.35-8.6-13.13-14.06-22.77-14.16c-5.47,0.02-10.78,1.8-15.15,5.08c-28.91-10.59-43.76-42.62-33.17-71.53
			c0.86-2.34,1.87-4.62,3.03-6.83h2.15c5.62-0.01,11.13-1.6,15.89-4.61l13.65,13.65c2.46,2.49,5.8,3.91,9.3,3.96
			c3.52,0,6.9-1.38,9.43-3.83l25.31-25.36c5.11-5.19,5.11-13.53,0-18.73L56.16,10.64c-5.19-5.17-13.58-5.17-18.77,0l0,0l-6.72-6.33
			C22.96-1.76,11.78-0.44,5.7,7.28c-5.08,6.45-5.08,15.55,0,22.01l6.46,6.41l0,0c-5.17,5.19-5.17,13.58,0,18.77l14.59,14.55
			c-1.77,2.85-3.03,5.98-3.75,9.26c-34.71,42.25-28.6,104.65,13.66,139.36c2.31,1.9,4.71,3.69,7.18,5.37H22.06
			c-7.13,0-12.92,5.78-12.92,12.92v12.92c0,4.76,3.85,8.61,8.61,8.61h154.98c4.76,0,8.61-3.85,8.61-8.61v-12.92
			c0-7.13-5.78-12.92-12.92-12.92h-48.86c1-2.76,1.51-5.67,1.51-8.61c0.04-0.8,0.04-1.61,0-2.41l67.63-67.72
			c1.69-1.67,1.7-4.4,0.02-6.09C188.73,138.17,188.72,138.17,188.71,138.16z M95.25,197.18c9.51,0,17.22,7.71,17.22,17.22
			c0,3.73-1.21,7.35-3.44,10.33l3.44,2.58l0,0l-3.49-2.58c-5.74,7.58-16.54,9.08-24.12,3.34c-4.29-3.24-6.81-8.3-6.83-13.68
			C78.03,204.89,85.74,197.18,95.25,197.18z M48.15,106.39c-10.14-1.94-17.48-10.81-17.48-21.14c-0.01-1.2,0.11-2.4,0.34-3.57
			c0.57-3.7,2.13-7.19,4.52-10.07c7.36-9.34,20.9-10.94,30.23-3.58s10.94,20.9,3.58,30.23c-1.02,1.29-2.17,2.46-3.46,3.48
			C60.99,105.91,54.46,107.62,48.15,106.39z M18.15,42.2l25.44-25.44c1.79-1.81,4.71-1.82,6.51-0.03c0.01,0.01,0.02,0.02,0.03,0.03
			l69.57,69.7c1.81,1.79,1.82,4.71,0.03,6.51c-0.01,0.01-0.02,0.02-0.03,0.03l-25.27,25.31c-1.83,1.8-4.76,1.8-6.59,0L74.71,105.4
			c10.83-12.64,9.35-31.67-3.29-42.49c-11.28-9.66-27.92-9.66-39.2,0L18.15,48.66C16.38,46.86,16.38,43.99,18.15,42.2z M9.15,141.21
			c0.05-17.07,4.91-33.79,14.03-48.22c2.42,9.29,9.17,16.85,18.12,20.32c-15.37,32.18-1.74,70.73,30.44,86.1
			c0.65,0.31,1.31,0.61,1.98,0.9c-2.77,4.18-4.27,9.07-4.31,14.08c0.02,2.93,0.53,5.84,1.51,8.61h-9.82
			C29.4,208.11,9.16,176.24,9.15,141.21z M172.74,235.93v12.92H17.76v-12.92c0-2.38,1.93-4.31,4.31-4.31H76
			c9.54,10.6,25.87,11.46,36.48,1.92c0.67-0.61,1.32-1.25,1.92-1.92h54.03C170.81,231.62,172.74,233.55,172.74,235.93z"/>
	</g>
</g>
</svg>
