<!-- Generator: Adobe Illustrator 24.1.0, SVG Export Plug-In  -->
<svg version="1.1" xmlns="http://www.w3.org/2000/svg" xmlns:xlink="http://www.w3.org/1999/xlink" x="0px" y="0px"
	 width="294.83px" height="174.2px" viewBox="0 0 294.83 174.2" style="enable-background:new 0 0 294.83 174.2;"
	 xml:space="preserve">
<style type="text/css">
	.st0{fill:#EAE1BF;}
	.st1{fill:#CCC7AE;stroke:#231F20;stroke-width:0.5;stroke-miterlimit:10;}
	.st2{fill:#EAE1BF;stroke:#231F20;stroke-width:0.5;stroke-miterlimit:10;}
	.st3{fill:#F0F8FB;stroke:#231F20;stroke-width:0.5;stroke-miterlimit:10;}
	.st4{fill:none;stroke:#231F20;stroke-width:0.5;stroke-miterlimit:10;}
	.st5{fill:none;stroke:#231F20;stroke-width:0.593;stroke-miterlimit:10;}
	.st6{opacity:0.82;fill:#C6E6EB;}
	.st7{fill:#C6E6EB;}
</style>
<defs>
</defs>
<g>
	<polygon class="st0" points="242.19,34.47 240.07,36.85 236.79,35 237.88,33.94 	"/>
	<polygon class="st1" points="37.4,43.98 37.4,41.96 40.96,40.03 40.96,33.02 45.21,30.28 46.71,30.28 46.71,35.28 53.34,35.28 
		53.34,32.28 61.34,29.09 60.09,24.14 66.76,24.14 66.76,13 18.98,41.73 	"/>
	<polygon class="st2" points="243.71,34.65 253.09,39.4 253.09,43.9 258.15,44.52 257.59,48.06 273.76,38.33 	"/>
	<polygon class="st2" points="66.76,13 66.76,24.14 67.15,24.14 70.53,18.21 78.46,18.21 78.46,23.34 79.33,25.86 80.77,22.71 
		85.82,22.71 85.82,19.57 86.53,19.19 86.53,17.32 87.07,17.27 87.07,16.15 90.4,15.88 	"/>
	<line class="st2" x1="242.26" y1="34.48" x2="237.88" y2="33.94"/>
	<polyline class="st3" points="106.23,11.89 105.57,11.9 104.69,11.15 104.51,11 103.4,10.07 99.4,10.51 94.23,11.07 94.23,15.57 	
		"/>
	<polyline class="st4" points="97.32,22.24 96.11,23.19 94.23,23.19 94.23,24.44 	"/>
	<polyline class="st4" points="93.53,30.78 89.53,22.71 85.82,22.71 	"/>
	<line class="st4" x1="37.4" y1="44.02" x2="37.4" y2="43.98"/>
	<polyline class="st3" points="94.23,15.57 96.15,17.11 96.15,19.15 97.32,22.23 104.51,22.23 104.51,14.98 106.23,11.89 	"/>
	<path class="st3" d="M37.2,41.99v2.02L225.78,67.1l31.61-19.01l0.56-3.54l-5.06-0.62v-4.5l-9.38-4.75l-1.12-0.56l-0.33,0.39
		l-2.11,2.48l-3.25-1.94l2.5-2.87l-6.75-4.63h-2.75l-0.81,1.07v-7.57l-8.63-3.56l-8.75,0.88v0.81l-1.87,0.25v-3.62l-2.94-1.71
		l-1.13-4.67l-13.08-2.08l-5.62,5.33l-2.17-3.33h-5.63V4.68h-16.29l-0.41,1.92l-4.25-4.84h-6.84v2.25c0,0-3.75,2.59-9.83,1.42
		L137.7,5.1l-3-4.84l-10,1l1.67,5.17c0,0-4.5,0.67-7.84-1.25l-6.58,5.75l0.46,1.22l0.54,1.45l-1.83-1.09l-1.59-0.66l-3.5,0.07
		l-1.72,3.09v7.25h-7.19l-1.17-3.08v-2.04l-1.92-1.54l-3.83,0.31l-3.33,0.27v1.12l-0.54,0.05v1.87l-0.71,0.38v3.14h-5.05l-1.44,3.15
		l-0.87-2.52v-5.13h-7.93l-3.38,5.93h-7.06l1.25,4.95l-8,3.19v3h-6.63v-5h-1.5l-4.25,2.74v7.01L37.2,41.99z"/>
	<polyline class="st4" points="79.33,25.86 81.03,30.78 71.77,34.9 68.96,32.84 	"/>
	<polyline class="st4" points="231.78,45.53 236.46,40.04 224.21,28.53 221.84,28.53 218.03,32.9 220.71,37.53 	"/>
	<polyline class="st4" points="215.28,43.72 212.71,38.47 202.46,38.47 202.46,40.04 201.15,42.47 201.15,43.72 	"/>
	<polyline class="st4" points="230.84,53.4 225.59,45.53 214.59,53.03 	"/>
	<polyline class="st4" points="226.46,57.72 208.21,52.59 208.59,60.59 	"/>
	<polyline class="st4" points="204.09,61.72 204.09,55.78 208.21,52.59 	"/>
	<polyline class="st4" points="189.53,34.03 195.84,31.03 194.03,19.59 180.21,18.03 183.71,26.03 	"/>
	<polyline class="st4" points="178.28,27.72 175.71,22.09 180.21,18.03 	"/>
	<path class="st4" d="M168.53,38.78V35.4c0-0.48-0.18-0.93-0.51-1.28l-0.21-0.22c-0.49-0.51-1.17-0.82-1.88-0.84l-6.72-0.24
		c-0.58-0.02-1.1,0.35-1.27,0.91l-0.9,2.99"/>
	<path class="st4" d="M171.96,13.09l-22.37,1.02c-1.23,0.06-2.24,0.99-2.39,2.22l-0.24,2.01"/>
	<path class="st5" d="M171.2,21.93c0.24,0.18,0.49,0.28,0.76,0.28c1.21,0,2.19-2.04,2.19-4.56s-0.98-4.56-2.19-4.56
		s-2.19,2.04-2.19,4.56c0,0.49,0.04,0.95,0.1,1.39"/>
	<path class="st4" d="M204.09,53.4l-19.51-19.54c-1.1-1.1-2.64-1.71-4.18-1.47c-0.94,0.15-1.94,0.6-2.73,1.67
		c-0.65,0.88-0.63,2.1,0.02,2.99l3.64,5.06"/>
	<polyline class="st4" points="194.32,51.24 188.32,44.4 180.21,44.4 177.96,46.57 	"/>
	<polyline class="st4" points="183.07,57.19 183.07,50.86 169.98,45.03 166.78,45.03 	"/>
	<polyline class="st4" points="114.99,49.62 110.9,45.31 101.65,45.31 97.24,50.29 	"/>
	<polyline class="st4" points="106.65,40.97 107.65,30.4 101.28,28.28 97.24,34.03 	"/>
	<polyline class="st4" points="128.15,29.84 121.34,25.28 113.46,27.56 113.46,32.59 	"/>
	<polyline class="st4" points="149.65,35.8 149.09,32.81 142.28,32.81 141.59,35.8 	"/>
	<polyline class="st4" points="147.84,32.03 147.84,27.22 141.9,24.97 138.21,25.28 136.34,28.5 	"/>
	<polyline class="st4" points="152.09,24.15 150.4,18.72 142.46,19.03 141.59,23.34 	"/>
	<polyline class="st4" points="168.06,50.09 165.09,42.59 153.93,37.56 148.4,45.4 152.59,51.11 	"/>
	<line class="st4" x1="153.56" y1="40.04" x2="151.99" y2="50.29"/>
	<polyline class="st4" points="122.9,38.09 130.28,32.81 136.03,32.81 139.59,36.09 139.59,44.34 131.71,43.9 130.21,38.22 	"/>
	<line class="st4" x1="0.25" y1="46.03" x2="66.09" y2="6.43"/>
	<polygon class="st1" points="228.74,73.99 228.74,173.75 294.58,134.15 294.58,34.39 	"/>
	<line class="st4" x1="229.17" y1="26.39" x2="294.58" y2="34.39"/>
	<line class="st4" x1="104.6" y1="11.14" x2="112.7" y2="12.14"/>
	<line class="st3" x1="66.09" y1="6.43" x2="99.4" y2="10.51"/>
	<polygon class="st2" points="0.25,46.03 0.25,145.79 228.74,173.75 228.74,73.99 	"/>
	<path class="st6" d="M212.36,55.02l8.62,2.48c0.07,0.02,0.12,0.1,0.1,0.17h0c-0.02,0.07-0.1,0.12-0.17,0.1l-8.62-2.48
		c-0.07-0.02-0.12-0.1-0.1-0.17l0,0C212.21,55.04,212.29,54.99,212.36,55.02z"/>
	<path class="st6" d="M217.57,52.76l7.3-5.21c0.06-0.04,0.15-0.03,0.2,0.03v0c0.04,0.06,0.03,0.15-0.03,0.2l-7.3,5.21
		c-0.06,0.04-0.15,0.03-0.2-0.03l0,0C217.5,52.89,217.51,52.8,217.57,52.76z"/>
	<path class="st6" d="M182.83,19.09l8.9,1.1c0.08,0.01,0.13,0.08,0.12,0.16l0,0c-0.01,0.08-0.08,0.13-0.16,0.12l-8.9-1.1
		c-0.08-0.01-0.13-0.08-0.12-0.16v0C182.68,19.13,182.75,19.08,182.83,19.09z"/>
	<path class="st6" d="M205.86,39.09h5.67c0.06,0,0.11,0.05,0.11,0.11v0.06c0,0.06-0.05,0.11-0.11,0.11h-5.67
		c-0.06,0-0.11-0.05-0.11-0.11V39.2C205.74,39.14,205.79,39.09,205.86,39.09z"/>
	<path class="st6" d="M203.48,39.37h0.77c0.06,0,0.11-0.05,0.11-0.11l0,0c0-0.06-0.05-0.11-0.11-0.11h-0.77
		c-0.06,0-0.11,0.05-0.11,0.11l0,0C203.37,39.32,203.42,39.37,203.48,39.37z"/>
	<path class="st6" d="M228,33.53l6.47,6.21c0.06,0.05,0.06,0.14,0,0.2l0,0c-0.05,0.06-0.14,0.06-0.2,0l-6.47-6.21
		c-0.06-0.05-0.06-0.14,0-0.2l0,0C227.85,33.48,227.94,33.48,228,33.53z"/>
	<path class="st7" d="M223.91,29.57l1.83,1.83c0.05,0.05,0.05,0.14,0,0.19v0c-0.05,0.05-0.14,0.05-0.19,0l-1.83-1.83
		c-0.05-0.05-0.05-0.14,0-0.19l0,0C223.77,29.52,223.85,29.52,223.91,29.57z"/>
	<path class="st6" d="M181.53,45.03h5.88c0.05,0,0.1,0.04,0.1,0.1v0.01c0,0.05-0.04,0.1-0.1,0.1h-5.88c-0.05,0-0.1-0.04-0.1-0.1
		v-0.01C181.44,45.07,181.48,45.03,181.53,45.03z"/>
	<path class="st6" d="M178.72,46.94l1.52-1.52c0.03-0.03,0.07-0.03,0.1,0l0.02,0.02c0.03,0.03,0.03,0.07,0,0.1l-1.52,1.52
		c-0.03,0.03-0.07,0.03-0.1,0l-0.02-0.02C178.69,47.01,178.69,46.97,178.72,46.94z"/>
	<path class="st6" d="M185.63,36.74l14.64,14.64c0.05,0.05,0.12,0.05,0.17,0l0,0c0.05-0.05,0.05-0.12,0-0.17L185.8,36.57
		c-0.05-0.05-0.12-0.05-0.17,0l0,0C185.58,36.62,185.58,36.69,185.63,36.74z"/>
	<path class="st6" d="M159.06,33.68l6.41,0.21c0.04,0,0.07-0.03,0.07-0.06l0-0.1c0-0.04-0.03-0.07-0.06-0.07l-6.41-0.21
		c-0.04,0-0.07,0.03-0.07,0.06l0,0.1C159,33.65,159.03,33.68,159.06,33.68z"/>
	<path class="st7" d="M143.99,33.52h4.52c0.03,0,0.06-0.03,0.06-0.06v-0.12c0-0.03-0.03-0.06-0.06-0.06h-4.52
		c-0.03,0-0.06,0.03-0.06,0.06v0.12C143.93,33.49,143.96,33.52,143.99,33.52z"/>
	<path class="st7" d="M142.41,35.6l0.37-1.6c0-0.02-0.01-0.04-0.03-0.04l-0.16-0.04c-0.02,0-0.04,0.01-0.04,0.03l-0.37,1.6
		c0,0.02,0.01,0.04,0.03,0.04l0.16,0.04C142.39,35.63,142.41,35.62,142.41,35.6z"/>
	<path class="st7" d="M155.34,39.36l7.71,3.42c0.04,0.02,0.1,0,0.12-0.04l0.05-0.11c0.02-0.04,0-0.1-0.04-0.12l-7.71-3.42
		c-0.04-0.02-0.1,0-0.12,0.04l-0.05,0.11C155.27,39.29,155.29,39.34,155.34,39.36z"/>
	<path class="st7" d="M172.1,47.13l9.35,4.15c0.05,0.02,0.1,0,0.12-0.05l0.02-0.05c0.02-0.05,0-0.1-0.05-0.12l-9.35-4.15
		c-0.05-0.02-0.1,0-0.12,0.05l-0.02,0.05C172.04,47.05,172.06,47.11,172.1,47.13z"/>
	<path class="st7" d="M105.82,46.15h4.52c0.03,0,0.06-0.03,0.06-0.06v-0.12c0-0.03-0.03-0.06-0.06-0.06h-4.52
		c-0.03,0-0.06,0.03-0.06,0.06v0.12C105.77,46.13,105.79,46.15,105.82,46.15z"/>
	<path class="st7" d="M130.74,33.8h4.52c0.03,0,0.06-0.03,0.06-0.06v-0.12c0-0.03-0.03-0.06-0.06-0.06h-4.52
		c-0.03,0-0.06,0.03-0.06,0.06v0.12C130.68,33.78,130.71,33.8,130.74,33.8z"/>
	<path class="st7" d="M101.77,29.67l4.31,1.36c0.03,0.01,0.06-0.01,0.07-0.04l0.04-0.12c0.01-0.03-0.01-0.06-0.04-0.07l-4.31-1.36
		c-0.03-0.01-0.06,0.01-0.07,0.04l-0.04,0.12C101.72,29.63,101.74,29.66,101.77,29.67z"/>
	<path class="st7" d="M114.96,28.1l5.64-1.53c0.03-0.01,0.05-0.04,0.05-0.08l-0.03-0.11c-0.01-0.03-0.04-0.05-0.08-0.05l-5.64,1.53
		c-0.03,0.01-0.05,0.04-0.05,0.08l0.03,0.11C114.9,28.08,114.93,28.1,114.96,28.1z"/>
	<path class="st7" d="M98.78,50.37l3.08-3.31c0.02-0.02,0.02-0.06,0-0.08l-0.09-0.08c-0.02-0.02-0.06-0.02-0.08,0l-3.08,3.31
		c-0.02,0.02-0.02,0.06,0,0.08l0.09,0.08C98.72,50.39,98.76,50.39,98.78,50.37z"/>
	<path class="st7" d="M98.32,34.17l2.01-2.58c0.02-0.02,0.01-0.05-0.01-0.07l-0.11-0.08c-0.02-0.02-0.05-0.01-0.07,0.01l-2.01,2.58
		c-0.02,0.02-0.01,0.05,0.01,0.07l0.11,0.08C98.27,34.2,98.3,34.19,98.32,34.17z"/>
	<path class="st7" d="M143.08,19.98l5.27-0.2c0.03,0,0.06-0.03,0.05-0.06l0-0.09c0-0.03-0.03-0.06-0.06-0.05l-5.27,0.2
		c-0.03,0-0.06,0.03-0.05,0.06l0,0.09C143.03,19.95,143.05,19.98,143.08,19.98z"/>
	<path class="st7" d="M149.88,15.18l11.98-0.46c0.05,0,0.08-0.04,0.08-0.09l0-0.03c0-0.05-0.04-0.08-0.09-0.08l-11.98,0.46
		c-0.05,0-0.08,0.04-0.08,0.09l0,0.03C149.8,15.15,149.84,15.18,149.88,15.18z"/>
	<path class="st7" d="M147.75,18.41l0.28-2.19c0-0.02-0.01-0.04-0.03-0.04l-0.11-0.01c-0.02,0-0.04,0.01-0.04,0.03l-0.28,2.19
		c0,0.02,0.01,0.04,0.03,0.04l0.11,0.01C147.73,18.45,147.75,18.43,147.75,18.41z"/>
</g>
</svg>
