<!-- Generator: Adobe Illustrator 24.1.0, SVG Export Plug-In  -->
<svg version="1.1" xmlns="http://www.w3.org/2000/svg" xmlns:xlink="http://www.w3.org/1999/xlink" x="0px" y="0px" width="409.9px"
	 height="265.09px" viewBox="0 0 409.9 265.09" style="enable-background:new 0 0 409.9 265.09;" xml:space="preserve">
<style type="text/css">
	.st0{fill:#DAE0E0;stroke:#231F20;stroke-width:0.25;stroke-miterlimit:10;}
	.st1{fill:none;stroke:#231F20;stroke-width:0.5;stroke-miterlimit:10;}
	.st2{fill:none;stroke:#231F20;stroke-width:0.4716;stroke-miterlimit:10;}
</style>
<defs>
</defs>
<g>
	<path class="st0" d="M225.92,188.7v34.31c0,21.31-49.58,38.58-110.75,38.58S4.42,244.32,4.42,223.01V188.7"/>
	<ellipse class="st0" cx="115.17" cy="188.7" rx="110.75" ry="38.58"/>
	<line class="st1" x1="229.92" y1="159.68" x2="229.92" y2="223.01"/>
	<ellipse class="st1" cx="115.08" cy="159.68" rx="114.83" ry="41.83"/>
	<path class="st1" d="M229.92,223.01c0,23.1-51.41,41.83-114.83,41.83S0.25,246.11,0.25,223.01"/>
	<line class="st1" x1="0.25" y1="159.68" x2="0.25" y2="223.01"/>
	<ellipse class="st2" cx="115.17" cy="159.59" rx="110.75" ry="38.58"/>
</g>
<g>
	
		<ellipse transform="matrix(0.7071 -0.7071 0.7071 0.7071 -11.4197 235.3836)" class="st1" cx="278.42" cy="131.48" rx="41.83" ry="114.83"/>
	<path class="st1" d="M242.01,5.49c16.34-16.34,65.93,6.77,110.78,51.62s67.96,94.44,51.62,110.78"/>
	<line class="st1" x1="359.62" y1="212.68" x2="404.41" y2="167.89"/>
	<line class="st1" x1="197.22" y1="50.28" x2="242.01" y2="5.49"/>
	
		<ellipse transform="matrix(0.7071 -0.7071 0.7071 0.7071 -11.4543 235.3002)" class="st2" cx="278.31" cy="131.48" rx="38.58" ry="110.75"/>
	<path class="st2" d="M256.1,64.42c9.6,15.73,23.18,32.91,39.77,49.49c16.59,16.59,33.77,30.17,49.49,39.77"/>
</g>
</svg>
