<!-- Generator: Adobe Illustrator 24.1.0, SVG Export Plug-In  -->
<svg version="1.1" xmlns="http://www.w3.org/2000/svg" xmlns:xlink="http://www.w3.org/1999/xlink" x="0px" y="0px" width="214px"
	 height="214px" viewBox="0 0 214 214" style="enable-background:new 0 0 214 214;" xml:space="preserve">
<style type="text/css">
	.st0{fill:#F08285;}
	.st1{fill:none;stroke:#231F20;stroke-width:0.25;stroke-miterlimit:10;}
	.st2{fill:#DAE0E0;stroke:#231F20;stroke-width:0.25;stroke-miterlimit:10;}
	.st3{fill:#FFFFFF;}
	.st4{fill:none;stroke:#E9F1F1;stroke-linecap:round;stroke-miterlimit:10;}
</style>
<defs>
</defs>
<g>
	<circle class="st0" cx="28.67" cy="113.95" r="1.37"/>
	<circle class="st0" cx="27.94" cy="123.11" r="1.54"/>
	<circle class="st0" cx="134.36" cy="90.21" r="3.07"/>
	<circle class="st1" cx="107" cy="107" r="106.88"/>
	<circle class="st1" cx="107" cy="107" r="100.09"/>
	<circle class="st2" cx="107" cy="107" r="94.18"/>
	<circle class="st3" cx="80.83" cy="37.13" r="3.73"/>
	<circle class="st0" cx="138.59" cy="48.3" r="2.69"/>
	<circle class="st3" cx="100.42" cy="40.86" r="1.92"/>
	<circle class="st0" cx="106.68" cy="48.86" r="1.92"/>
	<circle class="st3" cx="69.53" cy="35.21" r="3.73"/>
	<path class="st0" d="M56.52,27.6c1.05,0.66,1.76,1.83,1.76,3.17c0,2.06-1.67,3.73-3.73,3.73c-1.82,0-3.33-1.3-3.66-3.02"/>
	<circle class="st0" cx="71.8" cy="25.08" r="3.73"/>
	<path class="st3" d="M74.17,18.84c0.43,0.61,0.69,1.35,0.69,2.16c0,2.06-1.67,3.73-3.73,3.73c-1.84,0-3.37-1.33-3.67-3.08"/>
	<circle class="st0" cx="129.19" cy="59.32" r="3.73"/>
	<circle class="st0" cx="131.87" cy="62.27" r="1.44"/>
	<circle class="st0" cx="132.92" cy="64.5" r="1.44"/>
	<circle class="st0" cx="95.97" cy="55.86" r="3.46"/>
	<circle class="st3" cx="98.61" cy="65.94" r="3.73"/>
	<circle class="st0" cx="49.08" cy="62.54" r="4.06"/>
	<circle class="st3" cx="49.41" cy="63.59" r="3.73"/>
	<circle class="st0" cx="45.02" cy="53.77" r="3.73"/>
	<circle class="st0" cx="112.73" cy="33.87" r="3.73"/>
	<circle class="st0" cx="113.7" cy="33.87" r="3.73"/>
	<circle class="st3" cx="118.5" cy="42.3" r="2.04"/>
	<circle class="st0" cx="92.46" cy="18.35" r="2.04"/>
	<circle class="st3" cx="83.1" cy="22.12" r="1.74"/>
	<circle class="st0" cx="83.1" cy="18.64" r="1.74"/>
	<ellipse class="st0" cx="71.79" cy="52.79" rx="2.82" ry="3.08"/>
	<circle class="st0" cx="76" cy="53.77" r="3.18"/>
	<circle class="st0" cx="82.25" cy="52.79" r="3.07"/>
	<circle class="st3" cx="75.22" cy="48.55" r="1.88"/>
	<circle class="st0" cx="89.98" cy="50.04" r="1.88"/>
	<circle class="st0" cx="87.2" cy="44.8" r="1.88"/>
	<circle class="st0" cx="85.11" cy="48.16" r="2.86"/>
	<circle class="st3" cx="155.2" cy="63.92" r="3.27"/>
	<circle class="st0" cx="163.2" cy="50.99" r="1.96"/>
	<circle class="st0" cx="134.36" cy="90.21" r="3.07"/>
	<circle class="st3" cx="99.43" cy="86.35" r="3.33"/>
	<circle class="st0" cx="119.39" cy="115.23" r="3.07"/>
	<circle class="st0" cx="147.33" cy="137.83" r="3.27"/>
	<circle class="st0" cx="119.44" cy="162.92" r="3.07"/>
	<circle class="st0" cx="109.56" cy="179.22" r="3.39"/>
	<circle class="st0" cx="87.32" cy="177.49" r="3.77"/>
	<circle class="st3" cx="106.53" cy="171.31" r="3.54"/>
	<circle class="st3" cx="135.76" cy="184.63" r="3.37"/>
	<circle class="st3" cx="118.61" cy="175.83" r="3.45"/>
	<circle class="st0" cx="129.11" cy="174.46" r="1.72"/>
	<circle class="st0" cx="127.85" cy="178.37" r="1.72"/>
	<circle class="st0" cx="111.98" cy="190.08" r="1.72"/>
	<circle class="st0" cx="113.7" cy="198.41" r="1.72"/>
	<circle class="st0" cx="116.37" cy="196.12" r="1.72"/>
	<circle class="st0" cx="95.66" cy="177.49" r="1.72"/>
	<circle class="st0" cx="135.76" cy="161.92" r="1.72"/>
	<circle class="st0" cx="113.7" cy="172.38" r="1.72"/>
	<circle class="st0" cx="111.98" cy="170.08" r="2.66"/>
	<circle class="st0" cx="141.91" cy="174.86" r="3.54"/>
	<circle class="st0" cx="148.52" cy="182.34" r="3.54"/>
	<circle class="st0" cx="164.62" cy="150.03" r="3.23"/>
	<circle class="st3" cx="156.04" cy="173.1" r="3.03"/>
	<path class="st3" d="M130.08,198.2c-1.68-0.35-2.95-1.83-2.95-3.62c0-2.04,1.65-3.69,3.69-3.69s3.69,1.65,3.69,3.69
		c0,1.09-0.48,2.08-1.23,2.75"/>
	<circle class="st0" cx="143.73" cy="161.92" r="2.93"/>
	<circle class="st0" cx="115.61" cy="153.09" r="1.39"/>
	<ellipse class="st0" cx="117.29" cy="145.94" rx="2.15" ry="2.42"/>
	<circle class="st3" cx="47.97" cy="170.66" r="3.27"/>
	<circle class="st0" cx="67.6" cy="107" r="3.27"/>
	<circle class="st3" cx="150.6" cy="121.97" r="3.27"/>
	<circle class="st0" cx="161.86" cy="133.3" r="2.76"/>
	<circle class="st3" cx="171.69" cy="135.61" r="3.07"/>
	<circle class="st0" cx="183.27" cy="124.55" r="2.76"/>
	<circle class="st0" cx="105.51" cy="111.12" r="2.76"/>
	<circle class="st0" cx="59.26" cy="148.27" r="3.03"/>
	<circle class="st0" cx="49.78" cy="162.8" r="3.19"/>
	<circle class="st0" cx="48.48" cy="139.13" r="2.76"/>
	<circle class="st0" cx="67.93" cy="150.5" r="2.76"/>
	<circle class="st0" cx="65.04" cy="124.61" r="2.76"/>
	<circle class="st0" cx="70.77" cy="79.85" r="3.17"/>
	<circle class="st0" cx="78.11" cy="78.61" r="2.76"/>
	<circle class="st0" cx="79.86" cy="81.62" r="2.76"/>
	<circle class="st0" cx="47.77" cy="84.38" r="2.76"/>
	<circle class="st3" cx="24.88" cy="140.88" r="2.76"/>
	<circle class="st0" cx="33.72" cy="141.52" r="2.76"/>
	<circle class="st0" cx="38.18" cy="154.26" r="2.53"/>
	<circle class="st3" cx="37.05" cy="150.03" r="2.53"/>
	<circle class="st0" cx="41.54" cy="167.95" r="3.11"/>
	<ellipse class="st0" cx="154.93" cy="148.48" rx="2.98" ry="3.21"/>
	<circle class="st0" cx="142.73" cy="126.05" r="2.53"/>
	<circle class="st0" cx="55.81" cy="144.28" r="2.53"/>
	<circle class="st0" cx="55.81" cy="139.13" r="2.53"/>
	<circle class="st0" cx="32.72" cy="134.02" r="2.93"/>
	<circle class="st3" cx="139.55" cy="92.41" r="2.87"/>
	<circle class="st3" cx="127.5" cy="103.64" r="2.79"/>
	<ellipse class="st0" cx="159.61" cy="86.8" rx="3.07" ry="2.74"/>
	<circle class="st3" cx="144.9" cy="167.46" r="2.62"/>
	<ellipse class="st3" cx="152.42" cy="173.37" rx="2.8" ry="2.46"/>
	<circle class="st0" cx="140.31" cy="158.6" r="1.6"/>
	<circle class="st0" cx="159.2" cy="166.28" r="1.81"/>
	<circle class="st3" cx="168.4" cy="171.27" r="2.2"/>
	<path class="st0" d="M154.43,188.26c-1.28-0.37-2.21-1.55-2.21-2.95c0-1.7,1.37-3.07,3.07-3.07c1.7,0,3.07,1.37,3.07,3.07
		c0,0.17-0.01,0.34-0.04,0.5"/>
	<circle class="st0" cx="157.72" cy="180.09" r="2.31"/>
	<circle class="st0" cx="153.15" cy="178.18" r="1.71"/>
	<circle class="st0" cx="147.51" cy="172.38" r="1.71"/>
	<circle class="st0" cx="147.91" cy="174.12" r="1.71"/>
	<circle class="st0" cx="151.96" cy="166.7" r="1.57"/>
	<circle class="st0" cx="154" cy="164.7" r="1.57"/>
	<circle class="st0" cx="149.49" cy="165.99" r="1.57"/>
	<circle class="st3" cx="150.38" cy="163.64" r="2.27"/>
	<circle class="st3" cx="149.31" cy="157.98" r="2.11"/>
	<circle class="st0" cx="150.6" cy="146.26" r="1.6"/>
	<circle class="st0" cx="154.26" cy="142.16" r="1.6"/>
	<circle class="st0" cx="158.33" cy="140.56" r="1.6"/>
	<circle class="st0" cx="158.33" cy="137.6" r="1.6"/>
	<circle class="st3" cx="161.02" cy="153.81" r="1.6"/>
	<circle class="st0" cx="153.79" cy="157" r="1.6"/>
	<circle class="st0" cx="156.04" cy="155.4" r="1.6"/>
	<circle class="st0" cx="152.82" cy="153.26" r="2.11"/>
	<circle class="st0" cx="169.44" cy="144.66" r="1.6"/>
	<circle class="st0" cx="171.69" cy="142.7" r="1.6"/>
	<circle class="st0" cx="171.44" cy="152.49" r="1.6"/>
	<circle class="st0" cx="174.76" cy="163.13" r="1.6"/>
	<circle class="st0" cx="175.79" cy="159.58" r="1.6"/>
	<circle class="st0" cx="184.6" cy="149.46" r="1.6"/>
	<circle class="st0" cx="184.43" cy="147.2" r="1.6"/>
	<circle class="st3" cx="166.03" cy="143.76" r="1.03"/>
	<circle class="st0" cx="168.1" cy="141.7" r="1.03"/>
	<path class="st0" d="M98.61,200.72c0.14-1.3,1.24-2.31,2.58-2.31c1.43,0,2.6,1.16,2.6,2.6"/>
	<circle class="st0" cx="79.63" cy="184.77" r="1.76"/>
	<circle class="st0" cx="81.15" cy="167.39" r="1.81"/>
	<circle class="st0" cx="52.97" cy="174.86" r="1.6"/>
	<path class="st3" d="M70.3,193.61c-0.34-0.36-0.54-0.85-0.54-1.38c0-1.12,0.91-2.03,2.03-2.03c1.12,0,2.03,0.91,2.03,2.03
		c0,1.1-0.87,1.99-1.96,2.03"/>
	<circle class="st0" cx="81.19" cy="194.97" r="2.19"/>
	<ellipse class="st0" cx="75.37" cy="188.03" rx="2.19" ry="1.71"/>
	<circle class="st0" cx="67.77" cy="165.42" r="1.76"/>
	<circle class="st0" cx="65.38" cy="158.9" r="1.6"/>
	<circle class="st0" cx="75.78" cy="152.09" r="1.6"/>
	<circle class="st0" cx="51.97" cy="165.03" r="1.6"/>
	<circle class="st0" cx="36.97" cy="163.85" r="2.14"/>
	<circle class="st0" cx="36.11" cy="162.8" r="1.6"/>
	<circle class="st0" cx="42.18" cy="158.9" r="1.25"/>
	<circle class="st0" cx="44.48" cy="160.85" r="1.25"/>
	<circle class="st3" cx="44.59" cy="165.53" r="1.36"/>
	<circle class="st0" cx="39.11" cy="158.9" r="1.25"/>
	<circle class="st0" cx="34.97" cy="159.95" r="1.25"/>
	<circle class="st0" cx="31.93" cy="160.49" r="1.25"/>
	<circle class="st0" cx="54.05" cy="157.47" r="1.42"/>
	<circle class="st0" cx="37.54" cy="141.34" r="1.42"/>
	<circle class="st0" cx="30.45" cy="137.39" r="1.48"/>
	<circle class="st0" cx="45.34" cy="143.13" r="1.25"/>
	<circle class="st3" cx="49.93" cy="144.28" r="1.25"/>
	<circle class="st0" cx="20.37" cy="130.59" r="1.48"/>
	<circle class="st0" cx="31.52" cy="128.52" r="1.54"/>
	<circle class="st0" cx="40.3" cy="130.25" r="1.44"/>
	<circle class="st0" cx="42.97" cy="134.12" r="1.56"/>
	<circle class="st0" cx="37.38" cy="123.69" r="1.58"/>
	<ellipse class="st0" cx="40.39" cy="125.88" rx="1.71" ry="1.4"/>
	<circle class="st0" cx="65.38" cy="150.05" r="1.25"/>
	<circle class="st0" cx="64.26" cy="146.9" r="1.37"/>
	<circle class="st0" cx="65.25" cy="145.17" r="1.32"/>
	<circle class="st0" cx="68.78" cy="147.17" r="1.39"/>
	<circle class="st0" cx="49.22" cy="158.04" r="1.25"/>
	<ellipse class="st0" cx="54.31" cy="154.56" rx="1.51" ry="1.66"/>
	<circle class="st0" cx="58.35" cy="153.42" r="1.25"/>
	<circle class="st0" cx="59.99" cy="153.48" r="1.49"/>
	<ellipse class="st0" cx="37.2" cy="156.26" rx="2.38" ry="2.53"/>
	<circle class="st0" cx="47.01" cy="148.06" r="2.53"/>
	<ellipse class="st3" cx="50.63" cy="151.3" rx="2.65" ry="2.53"/>
	<circle class="st3" cx="53.57" cy="151.99" r="1.4"/>
	<circle class="st0" cx="61.72" cy="138.94" r="1.48"/>
	<circle class="st0" cx="53.06" cy="140.27" r="1.25"/>
	<circle class="st0" cx="52.47" cy="140.42" r="1.25"/>
	<circle class="st0" cx="46.87" cy="137.31" r="1.4"/>
	<path class="st0" d="M16.71,133.4c0.48-0.39,1.08-0.62,1.74-0.62c1.52,0,2.76,1.23,2.76,2.76c0,1.52-1.23,2.76-2.76,2.76
		c-0.05,0-0.11,0-0.16,0"/>
	<circle class="st0" cx="20.37" cy="137.49" r="1.48"/>
	<circle class="st0" cx="23.6" cy="147.29" r="1.48"/>
	<path class="st0" d="M20.16,143.16c0.24-0.16,0.42-0.19,0.73-0.19c0.82,0,1.48,0.66,1.48,1.48c0,0.68-0.41,1.25-1.04,1.42"/>
	<path class="st0" d="M23.03,149.36c0.03-0.67,0.52-1.25,1.21-1.38c0.8-0.15,1.58,0.38,1.73,1.18c0.15,0.8-0.38,1.58-1.18,1.73
		c-0.38,0.07-0.76-0.01-1.07-0.21"/>
	<circle class="st0" cx="26.5" cy="149.73" r="1.48"/>
	<circle class="st0" cx="27.64" cy="150.51" r="1.48"/>
	<circle class="st0" cx="28.58" cy="151.98" r="1.48"/>
	<circle class="st0" cx="28.58" cy="154.18" r="1.48"/>
	<path class="st0" d="M25.79,154.41c0.13-0.68,0.73-1.19,1.45-1.19c0.82,0,1.48,0.66,1.48,1.48s-0.66,1.48-1.48,1.48
		c-0.16,0-0.32-0.03-0.46-0.07"/>
	<path class="st3" d="M23.56,150.44c0.35-0.18,0.74-0.28,1.16-0.28c1.4,0,2.53,1.13,2.53,2.53c0,0.93-0.5,1.74-1.25,2.18"/>
	<circle class="st0" cx="61.72" cy="132.67" r="2.61"/>
	<circle class="st0" cx="50.34" cy="130.06" r="2.42"/>
	<circle class="st3" cx="36.77" cy="129.11" r="2.42"/>
	<circle class="st0" cx="36.68" cy="119.82" r="2.63"/>
	<circle class="st0" cx="58.35" cy="126.25" r="2.56"/>
	<circle class="st0" cx="60.64" cy="128.52" r="2.56"/>
	<circle class="st0" cx="52.62" cy="123.54" r="2.41"/>
	<circle class="st0" cx="58.95" cy="113.58" r="2.57"/>
	<circle class="st3" cx="61.95" cy="105.15" r="2.57"/>
	<circle class="st0" cx="58.65" cy="134.44" r="1.48"/>
	<circle class="st0" cx="47.35" cy="131.68" r="1.48"/>
	<circle class="st3" cx="44.97" cy="131.31" r="1.1"/>
	<circle class="st0" cx="28.47" cy="120.49" r="2.63"/>
	<circle class="st0" cx="25.56" cy="122.45" r="2.63"/>
	<circle class="st3" cx="27.94" cy="123.11" r="1.54"/>
	<circle class="st0" cx="22.93" cy="121.13" r="1.54"/>
	<circle class="st0" cx="21.39" cy="119.12" r="1.54"/>
	<circle class="st0" cx="24.38" cy="117.53" r="1.41"/>
	<circle class="st0" cx="23.51" cy="115.28" r="1.41"/>
	<circle class="st0" cx="25.56" cy="113.95" r="1.41"/>
	<circle class="st0" cx="60.64" cy="122.11" r="1.48"/>
	<circle class="st0" cx="72.16" cy="123.69" r="1.48"/>
	<circle class="st0" cx="71.9" cy="125.99" r="1.74"/>
	<circle class="st0" cx="61.52" cy="115.72" r="1.48"/>
	<circle class="st0" cx="65.34" cy="115.72" r="1.48"/>
	<circle class="st0" cx="67.8" cy="118.16" r="1.48"/>
	<circle class="st0" cx="73.97" cy="109.86" r="1.48"/>
	<circle class="st0" cx="79.35" cy="107" r="1.48"/>
	<circle class="st0" cx="60.64" cy="109.86" r="1.48"/>
	<circle class="st0" cx="81.85" cy="111.9" r="1.48"/>
	<circle class="st0" cx="88.79" cy="111.34" r="1.48"/>
	<circle class="st3" cx="31.52" cy="117.58" r="1.48"/>
	<circle class="st0" cx="43.21" cy="121.57" r="1.48"/>
	<circle class="st0" cx="37.38" cy="109.54" r="1.48"/>
	<circle class="st0" cx="40.8" cy="109.54" r="2.41"/>
	<ellipse class="st3" cx="25.64" cy="100.02" rx="2.7" ry="2.41"/>
	<circle class="st0" cx="24.99" cy="97.61" r="1.48"/>
	<circle class="st0" cx="26.4" cy="97.98" r="1.48"/>
	<circle class="st0" cx="34.43" cy="114.73" r="1.37"/>
	<circle class="st0" cx="28.67" cy="113.95" r="1.37"/>
	<path class="st0" d="M14.46,123.97c0.48-0.53,1.18-0.87,1.95-0.87c1.45,0,2.63,1.18,2.63,2.63c0,1.45-1.18,2.63-2.63,2.63
		c-0.39,0-0.76-0.09-1.1-0.24"/>
	<ellipse class="st0" cx="50.04" cy="102.08" rx="2.44" ry="2.63"/>
	<circle class="st0" cx="38.17" cy="77.49" r="2.63"/>
	<circle class="st0" cx="19.09" cy="126.98" r="1.41"/>
	<circle class="st3" cx="18.7" cy="125.57" r="1.41"/>
	<circle class="st0" cx="15.05" cy="113.59" r="1.41"/>
	<circle class="st0" cx="17.96" cy="115.28" r="1.41"/>
	<circle class="st0" cx="18.7" cy="112.67" r="1.41"/>
	<circle class="st0" cx="15.34" cy="103.49" r="1.41"/>
	<circle class="st0" cx="22.8" cy="103.84" r="1.41"/>
	<circle class="st0" cx="25.85" cy="105.05" r="1.41"/>
	<circle class="st0" cx="23.51" cy="108.41" r="1.41"/>
	<circle class="st0" cx="29.05" cy="106.65" r="1.41"/>
	<circle class="st0" cx="32.25" cy="107.3" r="1.41"/>
	<circle class="st0" cx="34.06" cy="104.13" r="1.41"/>
	<circle class="st0" cx="38.96" cy="107.12" r="1.41"/>
	<circle class="st0" cx="46.62" cy="120.46" r="1.41"/>
	<circle class="st0" cx="48.8" cy="121.13" r="1.41"/>
	<circle class="st0" cx="52.62" cy="121.5" r="1.41"/>
	<circle class="st3" cx="50.45" cy="118.71" r="2.41"/>
	<circle class="st0" cx="50.92" cy="116.15" r="1.41"/>
	<circle class="st0" cx="52.03" cy="114.76" r="1.32"/>
	
		<ellipse transform="matrix(0.3679 -0.9299 0.9299 0.3679 -74.7983 124.2345)" class="st0" cx="53.98" cy="117.13" rx="1.52" ry="1.37"/>
	<circle class="st0" cx="42.41" cy="116.68" r="1.41"/>
	<circle class="st3" cx="43.26" cy="114.53" r="1.41"/>
	<circle class="st0" cx="47.62" cy="110.05" r="1.41"/>
	<circle class="st0" cx="55.79" cy="111.46" r="1.41"/>
	<circle class="st0" cx="38.38" cy="115.49" r="1.41"/>
	<circle class="st0" cx="38.44" cy="117.03" r="1.41"/>
	<circle class="st0" cx="32.25" cy="112.18" r="1.41"/>
	
		<ellipse transform="matrix(0.3679 -0.9299 0.9299 0.3679 -82.29 101.5076)" class="st0" cx="33.52" cy="111.28" rx="1.59" ry="1.61"/>
	<circle class="st0" cx="26.89" cy="110.12" r="2.41"/>
	<circle class="st0" cx="29.11" cy="109.54" r="1.37"/>
	<circle class="st0" cx="30.04" cy="109.9" r="1.37"/>
	<circle class="st0" cx="41.33" cy="101.13" r="1.37"/>
	<circle class="st0" cx="41.33" cy="102.51" r="1.37"/>
	<circle class="st0" cx="42.7" cy="101.53" r="1.37"/>
	<circle class="st0" cx="47.33" cy="97.14" r="1.53"/>
	<circle class="st0" cx="38.86" cy="98.67" r="1.37"/>
	<circle class="st0" cx="36.54" cy="99.58" r="1.37"/>
	<circle class="st0" cx="38.16" cy="101.39" r="1.37"/>
	<circle class="st3" cx="35.91" cy="101.83" r="1.37"/>
	<circle class="st0" cx="43.95" cy="102.58" r="1.37"/>
	<circle class="st0" cx="42.57" cy="102.76" r="1.37"/>
	<circle class="st0" cx="45.95" cy="101.83" r="1.37"/>
	<circle class="st0" cx="47.62" cy="106.34" r="1.37"/>
	<circle class="st0" cx="49.13" cy="104.49" r="2.41"/>
	<circle class="st3" cx="48.24" cy="100.71" r="1.37"/>
	<circle class="st0" cx="50.23" cy="99.45" r="1.37"/>
	<circle class="st0" cx="50.45" cy="110.17" r="1.37"/>
	<circle class="st0" cx="52.03" cy="111.46" r="1.37"/>
	<circle class="st0" cx="52.03" cy="108.67" r="1.37"/>
	<circle class="st0" cx="53.61" cy="108.53" r="1.37"/>
	<circle class="st0" cx="52.47" cy="107.3" r="1.37"/>
	<circle class="st0" cx="54.98" cy="106.65" r="1.37"/>
	<circle class="st0" cx="54.54" cy="104.43" r="1.37"/>
	<circle class="st0" cx="67.15" cy="92.63" r="1.81"/>
	<circle class="st0" cx="60.56" cy="87.08" r="1.9"/>
	<circle class="st0" cx="44.07" cy="85.19" r="1.37"/>
	<circle class="st0" cx="54.52" cy="84.65" r="1.91"/>
	<circle class="st0" cx="22.14" cy="92.19" r="1.37"/>
	<circle class="st0" cx="53.77" cy="93.35" r="1.58"/>
	<circle class="st0" cx="28.18" cy="92.19" r="1.37"/>
	<circle class="st0" cx="31.44" cy="87.14" r="1.37"/>
	<circle class="st0" cx="24.61" cy="87.37" r="1.37"/>
	<circle class="st0" cx="19.76" cy="95.35" r="1.37"/>
	<circle class="st0" cx="18.38" cy="91.43" r="1.53"/>
	<circle class="st3" cx="18.82" cy="87.41" r="1.65"/>
	<circle class="st0" cx="33.8" cy="92.96" r="1.37"/>
	<circle class="st0" cx="41.33" cy="94.93" r="1.37"/>
	<circle class="st0" cx="42.17" cy="96.5" r="1.37"/>
	<circle class="st0" cx="44.07" cy="94.71" r="1.37"/>
	<circle class="st0" cx="43.54" cy="91.76" r="1.37"/>
	<circle class="st0" cx="45.95" cy="93.56" r="1.37"/>
	<circle class="st0" cx="45.32" cy="91.76" r="1.37"/>
	<circle class="st0" cx="48.06" cy="89.06" r="2.76"/>
	<circle class="st0" cx="50.81" cy="91.1" r="1.66"/>
	<circle class="st0" cx="53.27" cy="90.44" r="1.37"/>
	<circle class="st0" cx="34.53" cy="93.56" r="1.37"/>
	<circle class="st0" cx="39.28" cy="92.69" r="2.25"/>
	<circle class="st0" cx="37.28" cy="92.16" r="2.25"/>
	<path class="st0" d="M16.36,81.87c0.77,0.42,1.3,1.33,1.3,2.39c0,1.46-1.01,2.64-2.25,2.64c-0.12,0-0.24-0.01-0.36-0.03"/>
	<path class="st3" d="M117.94,200.42c-0.52-0.44-0.84-1.06-0.84-1.75c0-1.32,1.17-2.39,2.62-2.39c1.45,0,2.62,1.07,2.62,2.39
		c0,0.44-0.13,0.85-0.36,1.2"/>
	<circle class="st0" cx="39.03" cy="86.56" r="2.25"/>
	<path class="st0" d="M33.59,47.89c0.55,0.41,0.9,1.07,0.9,1.8c0,1.24-1.01,2.25-2.25,2.25c-0.52,0-1-0.17-1.38-0.47"/>
	<path class="st0" d="M32.42,49.43c1.51,0,2.74,1.01,2.74,2.25s-1.23,2.25-2.74,2.25c-1.07,0-2-0.51-2.45-1.24"/>
	<circle class="st0" cx="33.8" cy="76.14" r="1.37"/>
	<circle class="st0" cx="38.65" cy="80.59" r="1.37"/>
	<circle class="st0" cx="39.53" cy="81.96" r="1.37"/>
	<circle class="st0" cx="38.16" cy="83.61" r="1.37"/>
	<circle class="st3" cx="34.53" cy="87.93" r="1.37"/>
	<circle class="st0" cx="19.56" cy="81.96" r="1.37"/>
	<path class="st0" d="M19.95,71.4c0.42,0.23,0.7,0.68,0.7,1.2c0,0.76-0.61,1.37-1.37,1.37c-0.13,0-0.25-0.02-0.37-0.05"/>
	<path class="st0" d="M21,68.78c0.71,0.05,1.27,0.65,1.27,1.37c0,0.76-0.61,1.37-1.37,1.37c-0.35,0-0.66-0.13-0.9-0.34"/>
	<circle class="st0" cx="21.53" cy="76.24" r="1.37"/>
	<path class="st0" d="M22.77,64.78c0.15-0.05,0.3-0.08,0.47-0.08c0.76,0,1.37,0.61,1.37,1.37c0,0.76-0.61,1.37-1.37,1.37
		c-0.62,0-1.14-0.41-1.31-0.96"/>
	<circle class="st0" cx="19.91" cy="79.57" r="1.37"/>
	<path class="st0" d="M18.54,75.03c0.42,0.23,0.71,0.68,0.71,1.2c0,0.76-0.61,1.37-1.37,1.37c-0.09,0-0.19-0.01-0.28-0.03"/>
	<path class="st0" d="M17.88,76.86c0.1-0.02,0.2-0.03,0.3-0.03c0.76,0,1.37,0.61,1.37,1.37c0,0.76-0.61,1.37-1.37,1.37
		c-0.42,0-0.8-0.19-1.05-0.49"/>
	<circle class="st0" cx="28.18" cy="80.94" r="2.03"/>
	<circle class="st0" cx="36.56" cy="84.64" r="2.03"/>
	<circle class="st0" cx="25.88" cy="76.72" r="2.03"/>
	<circle class="st0" cx="25.6" cy="64.04" r="2.03"/>
	<circle class="st3" cx="27.43" cy="62.82" r="2.17"/>
	<path class="st0" d="M27.7,56.11c0.99,0.13,1.76,0.98,1.76,2.01c0,1.12-0.91,2.03-2.03,2.03c-0.71,0-1.33-0.36-1.69-0.91"/>
	<circle class="st3" cx="29.46" cy="58.12" r="2.03"/>
	<circle class="st0" cx="30.78" cy="79.57" r="2.03"/>
	<circle class="st3" cx="33.82" cy="83.67" r="1.97"/>
	<circle class="st0" cx="32.43" cy="81.71" r="2.03"/>
	<circle class="st0" cx="27.21" cy="71.76" r="2.03"/>
	<circle class="st0" cx="24.43" cy="71.4" r="2.03"/>
	<circle class="st0" cx="81.1" cy="100.5" r="1.52"/>
	<circle class="st0" cx="84.49" cy="102.02" r="1.52"/>
	<circle class="st0" cx="86.87" cy="95.66" r="1.52"/>
	<circle class="st0" cx="76.59" cy="88.61" r="1.52"/>
	<circle class="st3" cx="81.64" cy="87.87" r="1.52"/>
	<circle class="st0" cx="94.58" cy="81.82" r="1.52"/>
	<circle class="st0" cx="98.22" cy="77.76" r="1.64"/>
	<circle class="st0" cx="98.39" cy="73.89" r="1.74"/>
	<circle class="st0" cx="88.92" cy="91.89" r="2.91"/>
	<circle class="st0" cx="75.41" cy="86.1" r="2.7"/>
	<circle class="st0" cx="75.07" cy="66.6" r="1.62"/>
	<circle class="st0" cx="69.13" cy="69.93" r="1.68"/>
	<circle class="st0" cx="67.33" cy="73.78" r="1.63"/>
	<circle class="st0" cx="71.55" cy="83.34" r="1.52"/>
	<circle class="st0" cx="77.11" cy="81.62" r="1.52"/>
	<circle class="st3" cx="85.63" cy="72.51" r="1.67"/>
	<circle class="st0" cx="80.53" cy="70.62" r="1.52"/>
	<circle class="st0" cx="77.74" cy="71.1" r="1.52"/>
	<circle class="st0" cx="76.22" cy="74.18" r="1.52"/>
	<circle class="st0" cx="74.06" cy="74.33" r="1.52"/>
	<circle class="st0" cx="72.33" cy="73.43" r="1.52"/>
	<circle class="st3" cx="110.84" cy="104.53" r="1.52"/>
	<circle class="st3" cx="118.51" cy="97.06" r="1.3"/>
	<circle class="st0" cx="96.1" cy="97.28" r="1.19"/>
	<circle class="st0" cx="113.86" cy="103.16" r="1.36"/>
	<circle class="st0" cx="95.19" cy="98.3" r="1.24"/>
	<circle class="st0" cx="108.74" cy="97.62" r="1.3"/>
	<circle class="st3" cx="111.44" cy="97.17" r="1.3"/>
	<circle class="st0" cx="124.51" cy="87.14" r="1.52"/>
	<circle class="st0" cx="121.33" cy="84.97" r="1.52"/>
	<circle class="st0" cx="111.66" cy="91.56" r="1.52"/>
	<circle class="st0" cx="111.44" cy="79.8" r="1.52"/>
	<circle class="st0" cx="136.03" cy="83.31" r="1.67"/>
	<circle class="st3" cx="124.2" cy="82.64" r="1.52"/>
	<circle class="st0" cx="125.06" cy="99.34" r="1.52"/>
	<circle class="st0" cx="113.7" cy="86.72" r="1.52"/>
	<circle class="st0" cx="112.73" cy="83.31" r="1.52"/>
	<circle class="st0" cx="107.81" cy="84.35" r="1.26"/>
	<circle class="st0" cx="107.81" cy="81.51" r="1.26"/>
	<circle class="st3" cx="121.86" cy="98.08" r="1.26"/>
	<circle class="st0" cx="116.15" cy="92" r="1.26"/>
	<circle class="st0" cx="125.32" cy="93.67" r="1.26"/>
	<circle class="st0" cx="130.16" cy="92.95" r="1.39"/>
	<circle class="st0" cx="127.5" cy="94.52" r="1.56"/>
	<circle class="st0" cx="118.51" cy="75.01" r="1.67"/>
	<circle class="st0" cx="116.57" cy="89.12" r="2.77"/>
	<circle class="st0" cx="118.22" cy="109.23" r="1.17"/>
	<circle class="st0" cx="116.9" cy="109.23" r="1.17"/>
	<circle class="st0" cx="127.92" cy="106.81" r="1.17"/>
	<circle class="st0" cx="129.99" cy="107.69" r="1.17"/>
	<circle class="st0" cx="147.1" cy="81.83" r="1.48"/>
	<circle class="st0" cx="133.4" cy="72.73" r="1.65"/>
	<circle class="st0" cx="154.42" cy="81.25" r="1.3"/>
	<circle class="st0" cx="144.02" cy="80.43" r="1.4"/>
	<circle class="st0" cx="136.32" cy="76.14" r="1.76"/>
	<circle class="st0" cx="144.89" cy="76" r="2.76"/>
	<circle class="st0" cx="156.89" cy="82.9" r="1.17"/>
	<circle class="st0" cx="151.37" cy="76.57" r="1.35"/>
	<circle class="st0" cx="168.72" cy="89.54" r="1.17"/>
	<circle class="st0" cx="164.72" cy="84.63" r="1.17"/>
	<circle class="st0" cx="162.17" cy="83.47" r="1.17"/>
	<circle class="st0" cx="163.55" cy="79.26" r="1.17"/>
	<circle class="st0" cx="177.03" cy="76.38" r="1.72"/>
	<circle class="st3" cx="171.91" cy="68.84" r="1.65"/>
	<circle class="st0" cx="184.17" cy="108.55" r="1.82"/>
	<circle class="st0" cx="186.08" cy="101.58" r="1.7"/>
	<circle class="st0" cx="186.08" cy="96.83" r="1.92"/>
	<circle class="st0" cx="183.27" cy="91.88" r="1.61"/>
	<circle class="st3" cx="178.43" cy="87.95" r="1.54"/>
	<circle class="st0" cx="178.04" cy="101.73" r="1.55"/>
	<circle class="st3" cx="175.18" cy="107.9" r="1.17"/>
	<ellipse class="st3" cx="183.54" cy="112.67" rx="1.5" ry="1.17"/>
	<circle class="st3" cx="185.72" cy="125.71" r="1.17"/>
	<circle class="st0" cx="180.51" cy="130.87" r="1.17"/>
	<circle class="st0" cx="181.18" cy="131.38" r="1.17"/>
	<circle class="st0" cx="186.2" cy="118.09" r="1.57"/>
	<circle class="st0" cx="133.66" cy="108.55" r="1.17"/>
	<circle class="st0" cx="158.84" cy="124.41" r="1.44"/>
	<circle class="st0" cx="157.02" cy="119.66" r="1.17"/>
	<circle class="st0" cx="145.09" cy="115.4" r="1.34"/>
	<circle class="st0" cx="138.23" cy="119.1" r="1.55"/>
	<circle class="st0" cx="136.27" cy="110.37" r="1.17"/>
	<circle class="st0" cx="134.83" cy="107.38" r="1.17"/>
	<circle class="st0" cx="134.29" cy="112.41" r="1.42"/>
	<circle class="st0" cx="149.43" cy="109.72" r="1.17"/>
	<circle class="st0" cx="151.22" cy="115.23" r="1.17"/>
	<circle class="st0" cx="138.43" cy="114.25" r="1.36"/>
	<circle class="st0" cx="170.78" cy="129.96" r="1.42"/>
	<circle class="st0" cx="171.69" cy="126.88" r="1.17"/>
	<circle class="st0" cx="156.35" cy="131.55" r="2.49"/>
	<circle class="st0" cx="152.18" cy="106.01" r="2.28"/>
	<circle class="st0" cx="149.73" cy="97.38" r="2.12"/>
	<ellipse class="st0" cx="157.98" cy="115.61" rx="2.25" ry="2.12"/>
	<circle class="st0" cx="146.35" cy="103.44" r="2.04"/>
	<circle class="st0" cx="163.55" cy="92.95" r="2.12"/>
	<circle class="st0" cx="147.49" cy="112.89" r="2.12"/>
	<circle class="st0" cx="141.53" cy="111.28" r="2.56"/>
	<circle class="st0" cx="152.89" cy="108.72" r="2.12"/>
	<circle class="st0" cx="141.66" cy="96.08" r="2.12"/>
	<circle class="st3" cx="143.64" cy="96.83" r="2.12"/>
	<circle class="st0" cx="145.26" cy="94.95" r="1.88"/>
	<circle class="st0" cx="156.58" cy="102.29" r="2.12"/>
	<circle class="st0" cx="140.16" cy="108.11" r="1.41"/>
	<circle class="st0" cx="146.95" cy="110.52" r="1.31"/>
	<circle class="st0" cx="156.58" cy="111.28" r="1.17"/>
	<circle class="st0" cx="155.98" cy="109.19" r="1.42"/>
	<circle class="st0" cx="154.31" cy="126.17" r="1.17"/>
	<circle class="st0" cx="156.47" cy="126.56" r="1.17"/>
	<circle class="st0" cx="156.64" cy="122.72" r="1.17"/>
	<circle class="st0" cx="158.8" cy="120.92" r="1.17"/>
	<circle class="st0" cx="160.47" cy="118.78" r="1.28"/>
	<circle class="st0" cx="164.08" cy="134.26" r="1.36"/>
	<circle class="st0" cx="165.7" cy="126.88" r="1.17"/>
	<circle class="st0" cx="164.27" cy="129.06" r="1.17"/>
	<circle class="st0" cx="166.08" cy="130.55" r="1.17"/>
	<circle class="st0" cx="168.41" cy="124.28" r="1.17"/>
	<circle class="st0" cx="167.88" cy="124.42" r="1.17"/>
	<circle class="st3" cx="166.71" cy="121.97" r="1.17"/>
	<circle class="st0" cx="168.68" cy="120.39" r="1.17"/>
	<circle class="st0" cx="167.65" cy="120.39" r="1.17"/>
	<circle class="st0" cx="167.96" cy="117.81" r="1.17"/>
	<circle class="st0" cx="162.93" cy="110.39" r="1.17"/>
	<circle class="st0" cx="164.8" cy="113.26" r="1.17"/>
	<circle class="st0" cx="169.13" cy="111.94" r="1.17"/>
	<circle class="st0" cx="160.88" cy="108.17" r="1.17"/>
	<circle class="st0" cx="159.4" cy="105.71" r="1.17"/>
	<circle class="st0" cx="151.22" cy="102.05" r="1.17"/>
	<circle class="st0" cx="148.74" cy="101.61" r="1.17"/>
	<circle class="st0" cx="153.35" cy="100.44" r="1.17"/>
	<circle class="st0" cx="152.68" cy="98.19" r="1.17"/>
	<circle class="st0" cx="152.53" cy="96.08" r="1.17"/>
	<circle class="st0" cx="155.63" cy="99.99" r="1.17"/>
	<circle class="st0" cx="157.07" cy="99.5" r="1.17"/>
	<circle class="st0" cx="152.53" cy="92.12" r="1.32"/>
	<circle class="st0" cx="150.38" cy="89.2" r="1.5"/>
	<circle class="st0" cx="154" cy="90.81" r="1.32"/>
	<circle class="st0" cx="167.56" cy="94.27" r="1.32"/>
	<circle class="st0" cx="174.02" cy="97.38" r="1.32"/>
	<circle class="st0" cx="172.86" cy="100.44" r="1.32"/>
	<circle class="st0" cx="165.53" cy="90.81" r="1.32"/>
	<circle class="st0" cx="165.69" cy="89.33" r="1.12"/>
	<circle class="st0" cx="165.97" cy="97.38" r="1.32"/>
	<circle class="st0" cx="163.55" cy="97.03" r="1.32"/>
	<circle class="st0" cx="161.44" cy="97.81" r="1.32"/>
	<circle class="st0" cx="159.4" cy="96.9" r="1.32"/>
	<circle class="st0" cx="175.33" cy="120.07" r="1.32"/>
	<circle class="st0" cx="175.58" cy="116.12" r="1.32"/>
	<circle class="st0" cx="173.52" cy="113.48" r="1.32"/>
	<circle class="st0" cx="179.6" cy="121.56" r="1.32"/>
	<circle class="st0" cx="160" cy="103.52" r="1.76"/>
	<circle class="st0" cx="163.55" cy="107.96" r="1.76"/>
	<circle class="st0" cx="166.03" cy="109.34" r="1.76"/>
	<circle class="st0" cx="161.79" cy="103.94" r="1.76"/>
	<circle class="st0" cx="162.4" cy="100.66" r="1.17"/>
	<circle class="st0" cx="163.4" cy="102.18" r="1.17"/>
	<circle class="st3" cx="167.08" cy="113.93" r="1.76"/>
	<circle class="st0" cx="166.71" cy="115.82" r="1.17"/>
	<circle class="st0" cx="170.14" cy="107" r="1.76"/>
	<circle class="st0" cx="170.74" cy="108.49" r="1.76"/>
	<circle class="st0" cx="172.5" cy="110.78" r="1.17"/>
	<path class="st4" d="M4.32,94.13c0,0,5.1-53.44,53.3-77.07"/>
	<circle class="st0" cx="62.33" cy="14.69" r="0.69"/>
	<path class="st4" d="M209.36,121.14c0,0-5.1,53.44-53.3,77.07"/>
	<circle class="st0" cx="151.35" cy="200.58" r="0.69"/>
	<circle class="st0" cx="86.89" cy="128.7" r="3.27"/>
	<circle class="st3" cx="84.24" cy="132.74" r="3.07"/>
	<circle class="st0" cx="83.53" cy="137.99" r="1.68"/>
	<circle class="st0" cx="89.13" cy="138.52" r="1.68"/>
	<circle class="st0" cx="93.26" cy="122.41" r="1.68"/>
	<circle class="st3" cx="99.04" cy="123.97" r="3.27"/>
	<g>
		<circle class="st0" cx="98.36" cy="109.08" r="1.68"/>
		<circle class="st0" cx="98.68" cy="108.96" r="1.68"/>
		<circle class="st0" cx="99.08" cy="108.15" r="0.31"/>
		<circle class="st0" cx="99.56" cy="108.45" r="0.11"/>
	</g>
	<g>
		<circle class="st0" cx="95.9" cy="103.38" r="1.46"/>
		<circle class="st0" cx="96.17" cy="103.27" r="1.46"/>
		<circle class="st0" cx="96.52" cy="102.56" r="0.27"/>
		<circle class="st0" cx="96.94" cy="102.83" r="0.09"/>
	</g>
	<g>
		<circle class="st0" cx="99.38" cy="99.79" r="1.46"/>
		<circle class="st0" cx="99.65" cy="99.68" r="1.46"/>
		<circle class="st0" cx="100" cy="98.97" r="0.27"/>
		<circle class="st0" cx="100.42" cy="99.24" r="0.09"/>
	</g>
	<g>
		<ellipse class="st3" cx="102.23" cy="103.53" rx="1.52" ry="1.2"/>
		<ellipse class="st3" cx="102.4" cy="103.32" rx="1.52" ry="1.2"/>
		<circle class="st3" cx="102.53" cy="102.41" r="0.16"/>
		<circle class="st3" cx="102.21" cy="102.47" r="0.1"/>
		<circle class="st3" cx="102.37" cy="102.64" r="0.06"/>
	</g>
	<g>
		<ellipse class="st0" cx="84.91" cy="111.52" rx="1.11" ry="1.49"/>
		<ellipse class="st0" cx="84.72" cy="111.35" rx="1.11" ry="1.49"/>
		<ellipse class="st0" cx="83.88" cy="111.23" rx="0.15" ry="0.16"/>
		<ellipse class="st0" cx="83.93" cy="111.53" rx="0.09" ry="0.1"/>
		<ellipse class="st0" cx="84.09" cy="111.38" rx="0.06" ry="0.06"/>
	</g>
</g>
</svg>
