<!-- Generator: Adobe Illustrator 24.1.0, SVG Export Plug-In  -->
<svg version="1.1" xmlns="http://www.w3.org/2000/svg" xmlns:xlink="http://www.w3.org/1999/xlink" x="0px" y="0px" width="75.53px"
	 height="212.34px" viewBox="0 0 75.53 212.34" style="enable-background:new 0 0 75.53 212.34;" xml:space="preserve">
<style type="text/css">
	.st0{opacity:0.9;fill:#E5F3F3;}
	.st1{fill:#F1F8F9;}
	.st2{opacity:0.61;fill:#C7C7C9;}
	.st3{fill:none;stroke:#231F20;stroke-width:0.5;stroke-miterlimit:10;}
	.st4{fill:none;stroke:#231F20;stroke-width:0.5;stroke-linecap:round;stroke-miterlimit:10;}
	.st5{fill:#020203;}
	.st6{fill:none;stroke:#231F20;stroke-width:0.562;stroke-linecap:round;stroke-miterlimit:10;}
	.st7{fill:#FAFAFA;stroke:#C3C5C5;stroke-miterlimit:10;}
</style>
<defs>
</defs>
<g>
	<g>
		<g>
			<path class="st0" d="M67.31,146.46c1.21,3.73-6.74,9.66-17.75,13.23c-11.02,3.58-20.94,3.44-22.15-0.29
				c-1.21-3.74,6.74-9.67,17.76-13.25C56.18,142.59,66.09,142.72,67.31,146.46z"/>
			<path class="st0" d="M67.31,146.46l6.28,19.36c0.83,2.56,1,5.3,0.49,7.93l-6.81,34.97c-0.19,1.12-1.56,1.58-2.39,0.8l-27.53-24.8
				c-1.6-1.44-2.79-3.28-3.46-5.34l-6.48-19.98c1.21,3.73,11.13,3.86,22.15,0.29C60.57,156.12,68.52,150.19,67.31,146.46z"/>
		</g>
		<path class="st1" d="M25.38,112.78l21.63,66.64c0.13,0.41,0.31,0.79,0.54,1.15l16.85,26.43l-14.86-27.26
			c-0.15-0.27-0.27-0.55-0.36-0.85l-21.63-66.67C27.55,112.24,26.79,112.51,25.38,112.78z"/>
		<path class="st1" d="M11.93,108.96l23.21,71.51c0.24,0.75,0.66,1.43,1.22,1.98l29.69,29.62L38.59,181.6
			c-0.46-0.51-0.8-1.11-1.01-1.76l-22.94-70.7C14.63,109.15,13.33,109.11,11.93,108.96z"/>
		<path class="st2" d="M52.07,101.62l21.53,66.36c0.24,0.75,0.3,1.54,0.18,2.32l-6.64,41.41l4.34-40.79c0.07-0.68,0-1.37-0.21-2.02
			l-21.36-65.86C49.92,103.05,51.24,102.43,52.07,101.62z"/>
		
			<ellipse transform="matrix(0.9512 -0.3087 0.3087 0.9512 -26.3009 12.6752)" class="st3" cx="26.91" cy="89.46" rx="22.97" ry="7.79"/>
		
			<ellipse transform="matrix(0.9512 -0.3087 0.3087 0.9512 -26.2662 12.7433)" class="st3" cx="27.14" cy="89.39" rx="27.99" ry="12.29"/>
		<path class="st3" d="M55.39,85.77c2.09,6.45-8.13,15.56-22.83,20.33c-14.7,4.77-28.32,3.41-30.41-3.05l-1.63-5.02"/>
		<line class="st3" x1="53.76" y1="80.75" x2="55.39" y2="85.77"/>
		<path class="st3" d="M51.46,95.45l22.92,70.62c0.96,2.96,1.16,6.11,0.58,9.16l-6.56,34.68c-0.39,2.05-2.86,2.88-4.41,1.49
			l-26.79-24.08c-2.25-2.02-3.93-4.61-4.86-7.48L9.07,108.17"/>
		<path class="st3" d="M39.53,8.59"/>
		<path class="st3" d="M52.14,78.25l7.64-13.61c0.19-0.37,0.29-0.77,0.3-1.18l0.22-11.19c0.01-0.49,0.16-0.97,0.4-1.4
			c3.09-5.47,3.57-14.66,0.71-23.48c-2.87-8.85-8.37-15.59-14.07-18.15c-0.26-0.12-0.46-0.33-0.55-0.61
			c-0.48-1.5-2.06-6.48-2.59-8.14c-0.08-0.25-0.4-0.33-0.59-0.14l-3.43,3.22"/>
		<path class="st3" d="M37.82,74.91l6.95-10.26c0.31-0.46,0.48-1.01,0.48-1.56c0,0,0.02-5.14,0.03-6.55c0-0.21-0.14-0.38-0.34-0.43
			c-6.44-1.47-12.95-8.46-16.08-18.12c-2.83-8.71-2.15-17.28,1.2-22.52c0.15-0.23,0.19-0.5,0.1-0.76l-2.93-9.02
			c-0.04-0.13,0.04-0.26,0.17-0.28l12.78-1.84c0.09-0.01,0.18,0.04,0.21,0.13l2.23,6.86c0.09,0.29,0.31,0.51,0.59,0.62
			c5.8,2.27,11.39,8.81,14.22,17.53c2.67,8.22,2.18,18.1-0.7,23.43c-0.07,0.13-0.11,0.27-0.11,0.42l-0.2,9.48
			c-0.01,0.45-0.14,0.9-0.37,1.29l-7.57,12.78"/>
		<path class="st3" d="M27.16,5.45"/>
		<path class="st3" d="M27.4,5.41l4.68-3.16c0.04-0.02,0.08-0.04,0.12-0.05l11.63-1.95"/>
		
			<ellipse transform="matrix(0.9512 -0.3087 0.3087 0.9512 -9.3393 13.3058)" class="st3" cx="37.38" cy="36.17" rx="5.89" ry="15.91"/>
		<path class="st3" d="M40.11,17.33c3.09-1,7.8,4.96,10.51,13.31s2.4,15.95-0.69,16.95"/>
		<line class="st3" x1="32.47" y1="21.04" x2="40.11" y2="17.33"/>
		<line class="st3" x1="42.3" y1="51.3" x2="49.93" y2="47.59"/>
		
			<ellipse transform="matrix(0.9512 -0.3087 0.3087 0.9512 -9.3393 13.3058)" class="st3" cx="37.38" cy="36.17" rx="3.66" ry="13.06"/>
		<path class="st3" d="M52.56,201.08c0,0,1.96-0.39,3.62-1.1"/>
		<path class="st3" d="M67.83,195.99c0,0,1.64-0.36,3.3-1.07"/>
		<path class="st3" d="M51.88,192.19c0,0,7.36-1.46,13.32-4.32"/>
		<path class="st4" d="M64.02,178.85c-2.43,1.18-5.15,2.27-8.07,3.22c-8.14,2.64-15.73,3.44-20.21,2.42"/>
		<path class="st4" d="M74.51,171.17c-1.13,1.64-3.16,3.4-5.84,5.11"/>
		<path class="st3" d="M42.98,164.79c0,0,7.36-1.46,13.32-4.32"/>
		<path class="st3" d="M36.14,143.69c0,0,7.36-1.46,13.32-4.32"/>
		<path class="st3" d="M29.49,123.21c0,0,7.36-1.46,13.32-4.32"/>
		<path class="st3" d="M44.41,175.97c0,0,1.97-0.34,3.64-1.01"/>
		<path class="st3" d="M59.38,171.22c0,0,1.6-0.51,3.19-1.36"/>
		<path class="st3" d="M37.35,154.68c0,0,1.97-0.34,3.64-1.01"/>
		<path class="st3" d="M52.32,149.93c0,0,1.6-0.51,3.19-1.36"/>
		<path class="st3" d="M30.32,134.12c0,0,1.97-0.34,3.64-1.01"/>
		<path class="st3" d="M45.29,129.36c0,0,1.6-0.51,3.19-1.36"/>
		<g>
			<path class="st5" d="M61.85,198.67c0.48,1.48,0.2,2.47-0.77,2.78c-0.85,0.28-1.68-0.33-2.16-1.77c-0.47-1.46-0.1-2.46,0.78-2.75
				C60.61,196.65,61.4,197.29,61.85,198.67z M59.51,199.51c0.37,1.13,0.92,1.66,1.46,1.48c0.6-0.2,0.66-0.99,0.3-2.1
				c-0.35-1.07-0.85-1.68-1.46-1.48C59.3,197.57,59.13,198.32,59.51,199.51z"/>
			<path class="st5" d="M63.04,200.35c-0.08-0.25,0.03-0.48,0.26-0.55c0.23-0.08,0.45,0.05,0.53,0.29c0.08,0.24-0.02,0.47-0.26,0.55
				C63.34,200.72,63.12,200.59,63.04,200.35z"/>
			<path class="st5" d="M64.53,196.06l-0.01,0l-0.62,0.65l-0.26-0.41l0.79-0.82l0.5-0.16l1.41,4.34l-0.57,0.18L64.53,196.06z"/>
		</g>
		<g>
			<path class="st5" d="M52.42,173.66c0.48,1.48,0.2,2.47-0.77,2.78c-0.85,0.28-1.68-0.33-2.16-1.77c-0.47-1.46-0.1-2.46,0.78-2.75
				C51.19,171.64,51.98,172.28,52.42,173.66z M50.09,174.5c0.37,1.13,0.92,1.66,1.46,1.48c0.6-0.2,0.66-0.99,0.3-2.1
				c-0.35-1.07-0.85-1.68-1.46-1.48C49.87,172.57,49.7,173.32,50.09,174.5z"/>
			<path class="st5" d="M53.62,175.35c-0.08-0.25,0.03-0.48,0.26-0.55c0.23-0.08,0.45,0.05,0.53,0.29c0.08,0.24-0.02,0.47-0.26,0.55
				C53.92,175.71,53.7,175.59,53.62,175.35z"/>
			<path class="st5" d="M56.41,170.57l-1.66,0.54l0.2,1.17c0.1-0.05,0.18-0.09,0.34-0.14c0.33-0.11,0.69-0.14,1.01-0.07
				c0.4,0.08,0.81,0.37,0.98,0.91c0.28,0.85-0.19,1.7-1.14,2.01c-0.47,0.15-0.92,0.15-1.17,0.08l0-0.5
				c0.22,0.05,0.61,0.07,1.01-0.06c0.55-0.18,0.91-0.7,0.72-1.28c-0.19-0.56-0.69-0.84-1.56-0.56c-0.25,0.08-0.43,0.17-0.59,0.24
				l-0.4-2.18l2.08-0.67L56.41,170.57z"/>
		</g>
		<g>
			<path class="st5" d="M44.53,150.8l-0.01,0l-0.62,0.65l-0.26-0.41l0.79-0.82l0.5-0.16l1.41,4.34l-0.57,0.18L44.53,150.8z"/>
			<path class="st5" d="M47.85,153.53c-0.08-0.25,0.03-0.48,0.26-0.55c0.23-0.08,0.45,0.05,0.53,0.29c0.08,0.24-0.02,0.47-0.26,0.55
				C48.14,153.9,47.93,153.77,47.85,153.53z"/>
			<path class="st5" d="M51.46,150.29c0.48,1.48,0.2,2.47-0.77,2.78c-0.85,0.28-1.68-0.33-2.16-1.77c-0.47-1.46-0.1-2.46,0.78-2.75
				C50.23,148.26,51.01,148.91,51.46,150.29z M49.13,151.13c0.37,1.13,0.92,1.66,1.46,1.48c0.6-0.2,0.66-0.99,0.3-2.1
				c-0.35-1.07-0.85-1.68-1.46-1.48C48.91,149.19,48.74,149.94,49.13,151.13z"/>
		</g>
		<g>
			<path class="st5" d="M36.97,130.34l-0.01,0L36.33,131l-0.26-0.41l0.79-0.82l0.5-0.16l1.41,4.34l-0.57,0.18L36.97,130.34z"/>
			<path class="st5" d="M40.29,133.07c-0.08-0.25,0.03-0.48,0.26-0.55c0.23-0.08,0.45,0.05,0.53,0.29c0.08,0.24-0.02,0.47-0.26,0.55
				C40.58,133.44,40.36,133.31,40.29,133.07z"/>
			<path class="st5" d="M43.08,128.3l-1.66,0.54l0.19,1.17c0.1-0.05,0.19-0.09,0.35-0.14c0.33-0.11,0.69-0.14,1.01-0.07
				c0.4,0.08,0.81,0.37,0.98,0.91c0.28,0.85-0.19,1.7-1.14,2.01c-0.47,0.15-0.92,0.15-1.17,0.08l0-0.5
				c0.22,0.05,0.61,0.07,1.01-0.06c0.55-0.18,0.91-0.7,0.72-1.28c-0.19-0.56-0.69-0.84-1.56-0.56c-0.25,0.08-0.43,0.17-0.59,0.24
				l-0.4-2.18l2.08-0.67L43.08,128.3z"/>
		</g>
		<path class="st6" d="M71.25,167.26c-2.08-0.24-4.86-0.11-8.07,0.39"/>
		<path class="st2" d="M51.92,97.6c0,0-10.06,8.38-24.72,10.21c0,0,14.91-3.02,24.15-11.93L51.92,97.6z"/>
		<path class="st1" d="M50.77,80.33c0.58,6.24-7.85,13.88-21.53,18.32C16.5,102.79,6.19,100.8,1.86,96.4
			c2.7,5.96,15.26,7.67,29.51,3.04C45.04,95.01,51.6,86.67,50.77,80.33"/>
	</g>
	<path class="st7" d="M59.58,120.46l6.19,19.09c0.69,2.12-8.16,6.9-19.78,10.67c-11.61,3.77-21.59,5.1-22.28,2.98l-6.19-19.09
		c0.69,2.13,10.67,0.79,22.28-2.98C51.41,127.37,60.27,122.59,59.58,120.46z"/>
	<g>
		<path d="M46.82,139.18l0.45,1.15l-4.37,1.72l-0.45-1.15L46.82,139.18z"/>
	</g>
</g>
</svg>
