<!-- Generator: Adobe Illustrator 24.1.0, SVG Export Plug-In  -->
<svg version="1.1" xmlns="http://www.w3.org/2000/svg" xmlns:xlink="http://www.w3.org/1999/xlink" x="0px" y="0px"
	 width="411.41px" height="450.52px" viewBox="0 0 411.41 450.52" style="enable-background:new 0 0 411.41 450.52;"
	 xml:space="preserve">
<style type="text/css">
	.st0{fill:#1B335B;stroke:#231F20;stroke-width:0.5;stroke-miterlimit:10;}
	.st1{fill:#3C629B;stroke:#231F20;stroke-width:0.5;stroke-miterlimit:10;}
	.st2{fill:#699DAC;stroke:#231F20;stroke-width:0.5;stroke-miterlimit:10;}
	.st3{fill:#AEAEAF;stroke:#231F20;stroke-width:0.5;stroke-miterlimit:10;}
	.st4{fill:#D7D8D8;stroke:#231F20;stroke-width:0.5;stroke-miterlimit:10;}
	.st5{fill:none;stroke:#231F20;stroke-width:0.5;stroke-miterlimit:10;}
	.st6{fill:#9CC1CC;stroke:#231F20;stroke-width:0.5;stroke-miterlimit:10;}
	.st7{fill:#88B9C9;stroke:#231F20;stroke-width:0.5;stroke-miterlimit:10;}
	.st8{fill:#BFBEBE;stroke:#231F20;stroke-width:0.5;stroke-miterlimit:10;}
	.st9{opacity:0.4;fill:#F0F8FD;stroke:#231F20;stroke-width:0.5;stroke-miterlimit:10;}
</style>
<defs>
</defs>
<g>
	<g>
		<path class="st0" d="M223.65,417.64c0,2.16-1.76,3.91-3.92,3.91h-1.19c2.16,0,3.91-1.75,3.91-3.91c0-2.17-1.75-3.92-3.91-3.92
			h1.19C221.89,413.72,223.65,415.47,223.65,417.64z"/>
		<path class="st1" d="M222.45,417.64c0,2.16-1.75,3.91-3.91,3.91c-2.17,0-3.92-1.75-3.92-3.91c0-2.17,1.75-3.92,3.92-3.92
			C220.7,413.72,222.45,415.47,222.45,417.64z"/>
	</g>
	<g>
		<path class="st0" d="M197.22,413.72c0,2.16-1.76,3.91-3.92,3.91h-1.19c2.16,0,3.91-1.75,3.91-3.91c0-2.17-1.75-3.92-3.91-3.92
			h1.19C195.46,409.8,197.22,411.55,197.22,413.72z"/>
		<path class="st1" d="M196.02,413.72c0,2.16-1.75,3.91-3.91,3.91c-2.17,0-3.92-1.75-3.92-3.91c0-2.17,1.75-3.92,3.92-3.92
			C194.27,409.8,196.02,411.55,196.02,413.72z"/>
	</g>
	<g>
		<path class="st0" d="M172.19,408.14c0,2.16-1.76,3.91-3.92,3.91h-1.19c2.16,0,3.91-1.75,3.91-3.91c0-2.17-1.75-3.92-3.91-3.92
			h1.19C170.43,404.22,172.19,405.97,172.19,408.14z"/>
		<path class="st1" d="M170.99,408.14c0,2.16-1.75,3.91-3.91,3.91c-2.17,0-3.92-1.75-3.92-3.91c0-2.17,1.75-3.92,3.92-3.92
			C169.24,404.22,170.99,405.97,170.99,408.14z"/>
	</g>
	<polygon class="st2" points="337.54,395.52 329.73,438.18 329.72,438.2 319.37,450.05 311.54,431.22 323.21,399.55 329.21,404.55 	
		"/>
	<polygon class="st3" points="410.46,184.05 405.21,322.8 400.21,357.55 329.73,438.18 337.54,395.52 364.92,330.22 365.48,325.58 
		378.26,219.56 380.87,197.88 	"/>
	<polygon class="st4" points="410.46,184.05 380.87,197.88 380.87,181.35 	"/>
	<path class="st5" d="M336.21,236.89"/>
	<path class="st6" d="M125.22,362.58l-18.01-3.36l-14.67,26.66l65.33,41l56,11.34l97.67-7l11.67-31.67L125.22,362.58z M247.46,430.3
		l-31.75,2l-53.25-11.11l-23.25-13.14l15.5-30.32l103.5,20.07L247.46,430.3z"/>
	<polygon class="st7" points="319.37,450.05 215.21,445.22 162.54,433.22 104.87,404.55 92.54,385.88 157.87,426.88 213.87,438.22 
		311.54,431.22 	"/>
	<polygon class="st8" points="380.87,197.88 378.26,219.56 211.54,201.49 178.23,197.88 180.54,178.22 370.2,196.83 370.22,196.83 	
		"/>
	<polygon class="st3" points="211.54,201.49 211.54,303.55 130.9,358.59 166.21,300.3 178.23,197.88 	"/>
	<polygon class="st8" points="378.26,219.56 365.48,325.58 211.54,303.55 211.54,201.49 	"/>
	<path class="st4" d="M211.54,303.55l-80.64,55.04l-5.68,3.99l197.99,36.97l6,5l8.33-9.03l27.38-65.3l0.56-4.64L211.54,303.55z
		 M361,335.97l-58.79,56.83l-158.67-30.22v-9.36l72.67-47.17L361,327.55V335.97z"/>
	<polygon class="st3" points="361,327.55 361,335.97 302.21,392.8 301.87,383.88 	"/>
	<polygon class="st8" points="302.21,392.8 143.54,362.58 143.54,353.22 301.87,383.88 	"/>
	<line class="st5" x1="329.72" y1="438.22" x2="329.72" y2="438.2"/>
	<polygon class="st4" points="361,327.55 301.87,383.88 143.54,353.22 216.21,306.05 	"/>
	<path class="st3" d="M154.71,377.73l-15.5,30.32l23.25,13.14l53.25,11.11l31.75-2l10.75-32.5L154.71,377.73z M168.27,412.05h-1.19
		c-2.17,0-3.92-1.75-3.92-3.91c0-2.17,1.75-3.92,3.92-3.92h1.19c2.16,0,3.92,1.75,3.92,3.92
		C172.19,410.3,170.43,412.05,168.27,412.05z M193.3,417.63h-1.19c-2.17,0-3.92-1.75-3.92-3.91c0-2.17,1.75-3.92,3.92-3.92h1.19
		c2.16,0,3.92,1.75,3.92,3.92C197.22,415.88,195.46,417.63,193.3,417.63z M219.73,421.55h-1.19c-2.17,0-3.92-1.75-3.92-3.91
		c0-2.17,1.75-3.92,3.92-3.92h1.19c2.16,0,3.92,1.75,3.92,3.92C223.65,419.8,221.89,421.55,219.73,421.55z M235.96,409.8
		l-76.59-14.28l3.84-8.47l76.81,14.34L235.96,409.8z"/>
	<path class="st5" d="M172.19,408.14c0,2.16-1.76,3.91-3.92,3.91h-1.19c-2.17,0-3.92-1.75-3.92-3.91c0-2.17,1.75-3.92,3.92-3.92
		h1.19C170.43,404.22,172.19,405.97,172.19,408.14z"/>
	<path class="st5" d="M197.22,413.72c0,2.16-1.76,3.91-3.92,3.91h-1.19c-2.17,0-3.92-1.75-3.92-3.91c0-2.17,1.75-3.92,3.92-3.92
		h1.19C195.46,409.8,197.22,411.55,197.22,413.72z"/>
	<path class="st5" d="M223.65,417.64c0,2.16-1.76,3.91-3.92,3.91h-1.19c-2.17,0-3.92-1.75-3.92-3.91c0-2.17,1.75-3.92,3.92-3.92
		h1.19C221.89,413.72,223.65,415.47,223.65,417.64z"/>
	<polygon class="st4" points="240.02,401.39 235.96,409.8 159.37,395.52 163.21,387.05 	"/>
	<polygon class="st9" points="380.87,27.56 343.26,23.87 361,19.93 	"/>
	<polyline class="st9" points="1.87,35.55 1.69,35.53 1.85,35.5 	"/>
	<line class="st9" x1="180.52" y1="7.88" x2="160.65" y2="0.25"/>
	<polygon class="st9" points="361,19.93 343.26,23.87 180.52,7.89 180.52,53.1 1.87,35.55 1.85,35.5 160.65,0.25 	"/>
	<polygon class="st4" points="370.2,196.83 180.54,178.22 182.89,177.5 218.54,166.55 307.05,174.62 307.06,174.62 	"/>
	<polygon class="st4" points="380.87,197.88 370.22,196.83 370.2,196.83 307.06,174.62 320.81,175.88 320.83,175.88 	"/>
	<polygon class="st9" points="343.26,23.87 202.04,55.21 180.52,53.1 180.52,7.89 	"/>
	<polygon class="st9" points="380.87,27.56 380.87,181.35 320.83,175.88 320.81,175.88 302.21,169.06 243.27,100.55 215.81,79.7 
		202.04,55.21 343.26,23.87 	"/>
	<line class="st5" x1="180.52" y1="178.22" x2="180.52" y2="178.21"/>
	<polygon class="st4" points="380.87,181.35 380.87,197.88 320.83,175.88 	"/>
	<line class="st5" x1="180.54" y1="178.22" x2="180.52" y2="178.21"/>
	<polygon class="st9" points="180.52,56.41 7.38,39.4 18.23,58.69 45.52,79.23 104.02,146.87 180.52,176.58 180.52,178.21 
		101.86,149.06 42.92,80.55 15.46,59.7 1.87,35.55 180.52,53.1 	"/>
	<line class="st9" x1="1.85" y1="35.5" x2="1.69" y2="35.22"/>
	<polygon class="st9" points="307.05,174.62 218.54,166.55 182.89,177.5 180.52,176.58 180.52,56.41 198.52,58.18 210.63,79.7 
		238.09,100.55 299.52,171.97 	"/>
	<line class="st5" x1="186.13" y1="178.76" x2="182.89" y2="177.5"/>
	<line class="st5" x1="370.52" y1="196.94" x2="370.22" y2="196.83"/>
	<polygon class="st9" points="320.81,175.88 307.06,174.62 307.05,174.62 299.52,171.97 238.09,100.55 210.63,79.7 198.52,58.18 
		180.52,56.41 180.52,53.1 202.04,55.21 215.81,79.7 243.27,100.55 302.21,169.06 	"/>
	<polygon class="st9" points="180.52,56.41 180.52,176.58 104.02,146.87 45.52,79.23 18.23,58.69 7.38,39.4 	"/>
	<polygon class="st9" points="180.54,178.22 380.89,197.88 380.89,181.35 218.56,166.55 	"/>
</g>
</svg>
