<!-- Generator: Adobe Illustrator 24.1.0, SVG Export Plug-In  -->
<svg version="1.1" xmlns="http://www.w3.org/2000/svg" xmlns:xlink="http://www.w3.org/1999/xlink" x="0px" y="0px"
	 width="245.68px" height="396.9px" viewBox="0 0 245.68 396.9" style="enable-background:new 0 0 245.68 396.9;"
	 xml:space="preserve">
<style type="text/css">
	.st0{opacity:0.96;fill:#A9A9AA;stroke:#231F20;stroke-width:0.5;stroke-linejoin:round;stroke-miterlimit:10;}
	.st1{fill:#DAE0E0;stroke:#231F20;stroke-width:0.5;stroke-miterlimit:10;}
	.st2{fill:#FFFFFF;stroke:#231F20;stroke-width:0.5;stroke-miterlimit:10;}
	.st3{fill:none;stroke:#231F20;stroke-width:0.5;stroke-miterlimit:10;}
	.st4{fill:none;stroke:#231F20;stroke-width:0.4716;stroke-miterlimit:10;}
	.st5{fill:none;stroke:#231F20;stroke-width:0.5316;stroke-miterlimit:10;}
	.st6{fill:none;stroke:#231F20;stroke-width:0.5014;stroke-miterlimit:10;}
	.st7{fill:none;stroke:#231F20;stroke-width:0.4743;stroke-miterlimit:10;}
	.st8{fill:#A9A9AA;stroke:#231F20;stroke-width:0.5;stroke-linejoin:round;stroke-miterlimit:10;}
	.st9{fill:none;stroke:#231F20;stroke-width:0.5;stroke-linecap:round;stroke-linejoin:round;stroke-miterlimit:10;}
	.st10{fill:none;stroke:#F1F8F9;stroke-linecap:round;stroke-miterlimit:10;}
</style>
<defs>
</defs>
<g>
	<g>
		<path class="st0" d="M23.49,24.8v-7.75l7.05,3.37C30.54,20.42,24.73,23.39,23.49,24.8z"/>
		<path class="st1" d="M199.29,144.48v7.1c-19.89,6.57-46.83,10.57-76.48,10.51c-54.09-0.12-99.09-13.72-108.75-31.6
			c20.37,14.22,61.22,23.93,108.3,23.93C151.52,154.42,178.29,150.7,199.29,144.48z"/>
		<path class="st2" d="M14,130.38c0.02,0.04,0.04,0.07,0.06,0.11c-0.66-0.46-1.3-0.93-1.92-1.4c-1.42-1.08-2.71-2.18-3.89-3.3
			c-0.06-0.06-0.13-0.12-0.19-0.19c-5.04-4.87-7.79-10.15-7.79-15.66"/>
		<path class="st3" d="M7.72,42.01c0,0.01,0,0.02,0,0.03l-0.03,7.55l-0.03,6.06L7.59,73.73"/>
		<path class="st3" d="M237.25,105.59"/>
		<path class="st3" d="M7.59,73.55"/>
		<path class="st3" d="M237.39,42.26"/>
		<path class="st3" d="M7.72,41.76"/>
		<polyline class="st3" points="237.39,42.51 237.37,49.82 237.36,55.5 237.32,73.9 237.32,74.05 		"/>
		<path class="st3" d="M233.09,105.67"/>
		<path class="st4" d="M11.59,105.19"/>
		<path class="st3" d="M233.22,42.25"/>
		<path class="st4" d="M11.72,41.77"/>
		<path class="st4" d="M11.95,78.99c-0.01-0.03-0.01-0.07-0.02-0.1"/>
		<path class="st1" d="M233.26,53.62l-0.03,6.02l-3.82-1.83C230.89,56.45,232.18,55.05,233.26,53.62z"/>
		<line class="st3" x1="233.23" y1="59.72" x2="233.23" y2="59.64"/>
		<path class="st1" d="M199.16,79.63V95.9c-20.6,6.16-47.37,9.88-76.65,9.88c-50.78,0-94.05-11.2-110.58-26.89
			c-0.19-0.93-0.28-1.86-0.28-2.8l0.11-23.01c13.28,17.76,57.8,30.89,110.71,31.01c26.89,0.06,51.64-3.26,71.22-8.86l3.87,1.85
			C198.54,77.55,199.16,78.54,199.16,79.63z"/>
		<line class="st4" x1="11.76" y1="53.08" x2="11.75" y2="53.08"/>
		<path class="st3" d="M30.77,20.49c-0.01,0.01-0.03,0.01-0.04,0.02"/>
		<path class="st3" d="M189.39,73.15c-0.01,0-0.03,0.01-0.04,0.01"/>
		<path class="st3" d="M226.06,56.21c-0.02,0.03-0.05,0.05-0.07,0.07"/>
		<path class="st3" d="M75.23,7.28c-0.02,0-0.05,0.01-0.07,0.01"/>
		<path class="st1" d="M193.69,75.23c-19.58,5.6-44.33,8.92-71.22,8.86C69.56,83.97,25.04,70.84,11.76,53.08v-0.01l0.05-11.02
			c0,21.3,49.53,38.66,110.66,38.79c25.12,0.06,48.29-2.81,66.88-7.68L193.69,75.23z"/>
		<line class="st3" x1="11.76" y1="53.08" x2="11.75" y2="53.08"/>
		<path class="st3" d="M11.76,53.07c-2.64-3.52-4.04-7.21-4.04-11.03c0-0.01,0-0.02,0-0.03c0.02-7.71,5.76-14.92,15.77-21.1
			c1.16-0.72,2.38-1.42,3.65-2.11h0.01c0.02-0.02,0.04-0.03,0.06-0.04"/>
		<path class="st3" d="M193.73,75.22c-0.01,0-0.03,0.01-0.04,0.01"/>
		<path class="st1" d="M233.31,42.5c-0.01,4.84-2.57,9.45-7.25,13.71l-29.21-13.96c-0.02,0.01-0.78,0.36-2.08,0.95
			c-7.82,3.55-34.94,15.85-34.94,15.85l29.52,14.11c-18.59,4.87-41.76,7.74-66.88,7.68C61.34,80.71,11.81,63.35,11.81,42.05v-0.03
			c0.02-6.19,4.21-12.04,11.68-17.22c2.15-1.49,4.57-2.92,7.24-4.29l32.1,15.34l37.02-16.8L75.23,7.28
			c14.38-2.34,30.45-3.64,47.41-3.6C183.81,3.81,233.35,21.19,233.31,42.5z"/>
		<path class="st1" d="M233.31,42.5l-0.05,11.12c-1.08,1.43-2.37,2.83-3.85,4.19l-3.35-1.6C230.74,51.95,233.3,47.34,233.31,42.5z"
			/>
		<path class="st3" d="M70.19,4.92c0.02,0,0.05-0.01,0.07-0.01c15.71-2.9,33.52-4.53,52.39-4.48
			c63.42,0.13,114.79,18.97,114.74,42.08c-0.01,3.85-1.44,7.57-4.13,11.11"/>
		<path class="st3" d="M229.41,57.81c-0.02,0.03-0.05,0.05-0.07,0.07"/>
		<path class="st3" d="M237.32,49.76c4.66,4.71,7.19,9.79,7.19,15.08"/>
		<path class="st5" d="M0.32,64.84c0-5.37,2.61-10.52,7.4-15.28"/>
		<path class="st3" d="M199.23,99.42c-20.98,6.19-47.7,9.9-76.81,9.9c-67.43,0-122.1-19.91-122.1-44.48"/>
		<path class="st3" d="M244.51,64.84c0,5.73-2.97,11.21-8.39,16.23"/>
		<path class="st5" d="M244.46,109.94c0,5.71-2.95,11.17-8.33,16.18"/>
		<line class="st5" x1="0.32" y1="64.84" x2="0.27" y2="109.94"/>
		<line class="st3" x1="244.51" y1="64.84" x2="244.46" y2="109.94"/>
		<path class="st3" d="M237.32,55.44c1.99,2.99,2.94,6.11,2.94,9.31"/>
		<path class="st6" d="M4.75,64.75c0-3.16,1.03-6.24,2.97-9.19"/>
		<path class="st6" d="M11.93,78.89c-4.64-4.41-7.18-9.17-7.18-14.13"/>
		<path class="st3" d="M199.23,95.88c-0.02,0.01-0.05,0.01-0.07,0.02"/>
		<path class="st3" d="M240.26,64.75c0,3.74-1.44,7.37-4.14,10.82"/>
		<path class="st3" d="M7.92,154.8"/>
		<path class="st3" d="M237.72,123.5"/>
		<path class="st3" d="M8.05,123.01"/>
		<path class="st4" d="M233.55,123.5"/>
		<path class="st4" d="M12.05,123.02"/>
		<line class="st3" x1="7.92" y1="154.98" x2="8.05" y2="125.6"/>
		<path class="st3" d="M237.58,186.84"/>
		<line class="st3" x1="237.65" y1="155.15" x2="237.72" y2="124.46"/>
		<path class="st4" d="M233.42,186.91"/>
		<path class="st4" d="M11.92,186.43"/>
		<path class="st4" d="M12.28,160.24c-0.01-0.04-0.02-0.07-0.02-0.11"/>
		<line class="st7" x1="12.14" y1="129.09" x2="12.14" y2="129.07"/>
		<path class="st1" d="M199.29,154.88l-0.08,22.35c-20.56,6.1-47.23,9.79-76.37,9.79c-50.77,0-94.04-11.19-110.58-26.89
			c-0.19-0.92-0.28-1.86-0.28-2.8l0.13-22.98c13.29,17.75,57.8,30.88,110.69,30.99C152.17,165.4,178.97,161.44,199.29,154.88z"/>
		<path class="st6" d="M12.11,134.35c-2.07-2.75-3.38-5.62-3.86-8.56c0-0.01,0-0.01,0-0.02"/>
		<path class="st3" d="M237.7,124.46c-0.1,2.11-0.63,4.18-1.56,6.2"/>
		<path class="st5" d="M237.65,131.01c4.66,4.71,7.19,9.79,7.19,15.08"/>
		<path class="st5" d="M0.65,146.09c0-5.37,2.61-10.52,7.4-15.28"/>
		<path class="st5" d="M199.26,180.75c-20.93,6.14-47.54,9.81-76.51,9.81c-67.43,0-122.1-19.91-122.1-44.48"/>
		<path class="st5" d="M244.85,146.09c0,5.85-3.1,11.44-8.74,16.55"/>
		<path class="st5" d="M244.79,191.19c0,5.82-3.07,11.38-8.65,16.48"/>
		<line class="st5" x1="0.65" y1="146.09" x2="0.6" y2="191.19"/>
		<line class="st5" x1="244.85" y1="146.09" x2="244.79" y2="191.19"/>
		<path class="st6" d="M237.65,136.69c1.99,2.99,2.94,6.11,2.94,9.31"/>
		<path class="st6" d="M5.08,146c0-3.16,1.03-6.24,2.97-9.19"/>
		<path class="st6" d="M12.26,160.13c-4.64-4.41-7.18-9.17-7.18-14.13"/>
		<path class="st6" d="M240.59,146c0,3.9-1.56,7.67-4.48,11.25"/>
		<line class="st3" x1="7.86" y1="235.64" x2="7.99" y2="206.47"/>
		<path class="st3" d="M237.52,267.49"/>
		<line class="st3" x1="237.59" y1="235.81" x2="237.59" y2="206.26"/>
		<path class="st4" d="M233.36,267.57"/>
		<path class="st4" d="M11.86,267.09"/>
		<path class="st4" d="M12.23,240.89c-0.01-0.03-0.01-0.07-0.02-0.1"/>
		<path class="st1" d="M199.24,232.56c-20.06,6.4-47.05,10.25-76.49,10.18c-54.07-0.11-98.77-13.2-108.45-31.06
			c20.34,14.25,61.25,23.99,108.39,23.99c28.97,0,55.58-3.68,76.51-9.82L199.24,232.56z"/>
		<path class="st5" d="M14.3,211.68c-0.02-0.04-0.05-0.09-0.07-0.13"/>
		<path class="st5" d="M12.08,210.04c-1.4-1.08-2.68-2.2-3.84-3.33v-0.01c-0.08-0.07-0.16-0.15-0.24-0.23
			c-4.79-4.76-7.4-9.91-7.4-15.28"/>
		<path class="st1" d="M199.28,236.03c-20.32,6.31-47.14,10.03-76.54,9.96c-52.9-0.11-97.41-13.17-110.69-30.91l0.03-5.04
			c0.71,0.56,1.45,1.1,2.22,1.64c9.68,17.86,54.38,30.95,108.45,31.06c29.44,0.07,56.43-3.78,76.49-10.18L199.28,236.03z"/>
		<path class="st3" d="M12.05,215.08c-2.03-2.69-3.32-5.5-3.81-8.38c-0.02-0.06-0.03-0.12-0.04-0.18"/>
		<path class="st3" d="M237.59,206.26c-0.1,2.08-0.62,4.12-1.52,6.1"/>
		<path class="st5" d="M237.59,211.67c4.66,4.71,7.19,9.79,7.19,15.08"/>
		<path class="st5" d="M0.6,226.74c0-5.37,2.61-10.52,7.4-15.28"/>
		<path class="st5" d="M199.2,261.41c-20.93,6.14-47.54,9.81-76.51,9.81c-67.43,0-122.1-19.91-122.1-44.48"/>
		<path class="st5" d="M244.79,226.74c0,5.83-3.08,11.39-8.67,16.5"/>
		<path class="st1" d="M199.19,306.5v6.55c-19.93,6.29-46.63,10.07-75.81,10.01c-54.1-0.12-97.91-11.77-107.55-29.65
			c20.83,13.67,60.85,22.91,106.81,22.91C151.62,316.32,178.25,312.64,199.19,306.5z"/>
		<path class="st4" d="M0.54,271.84c0,5.62,2.86,11,8.08,15.95c0.17,0.16,0.35,0.33,0.53,0.49c1.08,1,2.27,1.98,3.55,2.94"/>
		<path class="st4" d="M15.83,293.41c-0.02-0.03-0.04-0.07-0.06-0.1"/>
		<path class="st5" d="M244.73,271.84c0,5.81-3.06,11.36-8.62,16.45"/>
		<line class="st5" x1="0.6" y1="226.74" x2="0.54" y2="271.84"/>
		<line class="st5" x1="244.79" y1="226.74" x2="244.73" y2="271.84"/>
		<path class="st6" d="M237.59,217.34c1.99,2.99,2.94,6.11,2.94,9.31"/>
		<path class="st6" d="M5.03,226.66c0-3.16,1.03-6.24,2.97-9.19"/>
		<path class="st6" d="M12.2,240.79c-4.64-4.41-7.18-9.17-7.18-14.13"/>
		<path class="st6" d="M240.53,226.66c0,3.87-1.54,7.62-4.42,11.17"/>
		<line class="st3" x1="8.49" y1="315.95" x2="8.62" y2="287.79"/>
		<path class="st3" d="M238.15,347.81"/>
		<line class="st3" x1="238.22" y1="316.12" x2="238.29" y2="286.14"/>
		<path class="st4" d="M233.99,347.88"/>
		<path class="st4" d="M12.49,347.4"/>
		<path class="st4" d="M12.85,321.2c-0.01-0.03-0.01-0.07-0.02-0.1"/>
		<path class="st1" d="M199.25,316.36c-20.25,6.28-46.81,10.01-75.88,9.95c-53.32-0.12-97.87-12.28-110.7-29.95l0.03-5.14
			c0.99,0.74,2.03,1.47,3.13,2.19c9.64,17.88,53.45,29.53,107.55,29.65c29.18,0.06,55.88-3.72,75.81-10.01L199.25,316.36z"/>
		<path class="st3" d="M12.67,296.36c-1.87-2.58-3.07-5.28-3.52-8.08"/>
		<path class="st3" d="M238.29,286.14c-0.12,2.54-0.87,5.02-2.18,7.42"/>
		<path class="st5" d="M238.22,291.98c4.66,4.71,7.19,9.79,7.19,15.08"/>
		<path class="st5" d="M1.22,307.05c0-5.37,2.61-10.52,7.4-15.28"/>
		<path class="st5" d="M199.24,341.89c-20.84,6.04-47.23,9.64-75.92,9.64c-67.43,0-122.1-19.91-122.1-44.48"/>
		<path class="st5" d="M245.42,307.05c0,6.05-3.31,11.81-9.31,17.07"/>
		<path class="st5" d="M199.19,386.99c-20.84,6.04-47.23,9.65-75.93,9.65c-67.43,0-122.1-19.91-122.1-44.48"/>
		<path class="st5" d="M245.36,352.15c0,6.02-3.28,11.76-9.24,17"/>
		<line class="st5" x1="1.22" y1="307.05" x2="1.17" y2="352.15"/>
		<line class="st5" x1="245.42" y1="307.05" x2="245.36" y2="352.15"/>
		<path class="st6" d="M238.22,297.65c1.99,2.99,2.94,6.11,2.94,9.31"/>
		<path class="st6" d="M5.66,306.97c0-3.16,1.03-6.24,2.97-9.19"/>
		<path class="st6" d="M12.83,321.1c-4.64-4.41-7.18-9.17-7.18-14.13"/>
		<path class="st6" d="M241.16,306.97c0,4.15-1.77,8.16-5.06,11.93"/>
		<path class="st2" d="M150.49,59.05"/>
		<g>
			<path class="st8" d="M99.85,19.05l-37.02,16.8l-32.1-15.34l-0.19-0.09l-3.4-1.62l-3.65-1.75c0,0,27.12-12.3,34.94-15.85
				c1.3-0.59,2.07-0.94,2.09-0.95l9.74,4.66l4.97,2.37L99.85,19.05z"/>
			<path class="st8" d="M60.45,345.69"/>
			<path class="st8" d="M62.83,346.2"/>
		</g>
		<g>
			<path class="st8" d="M236.35,75.5V62.92c0-1.14-0.65-2.17-1.68-2.66l-37.66-18c-0.02,0.01-0.79,0.36-2.09,0.95
				c-7.82,3.55-34.94,15.86-34.94,15.86l37.73,18.03c0.98,0.47,1.6,1.46,1.6,2.55v308.57c0,0,29.3-8.21,37.03-18V75.5"/>
			<line class="st9" x1="199.33" y1="388.21" x2="196.95" y2="387.7"/>
		</g>
		<path class="st1" d="M199.29,151.58v3.3c-20.32,6.56-47.12,10.52-76.49,10.46c-52.89-0.11-97.4-13.24-110.69-30.99l0.03-5.26
			c0.62,0.47,1.26,0.94,1.92,1.4c9.66,17.88,54.66,31.48,108.75,31.6C152.46,162.15,179.4,158.15,199.29,151.58z"/>
		<path class="st1" d="M199.28,236.03l-0.08,21.84c-20.57,6.11-47.25,9.81-76.42,9.81c-50.77,0-94.04-11.2-110.57-26.89
			c-0.2-0.93-0.29-1.86-0.29-2.8l0.13-22.91c13.28,17.74,57.79,30.8,110.69,30.91C152.14,246.06,178.96,242.34,199.28,236.03z"/>
		<path class="st1" d="M199.25,316.36v21.99c-20.49,6.02-46.95,9.64-75.84,9.64c-50.77,0-94.04-11.2-110.58-26.89
			c-0.19-0.93-0.28-1.85-0.28-2.8l0.12-21.94c12.83,17.67,57.38,29.83,110.7,29.95C152.44,326.37,179,322.64,199.25,316.36z"/>
		<path class="st10" d="M159.99,9.36c0,0,79.66,10.42,65.99,40.79"/>
		<path class="st10" d="M21.41,31.03c0,0-15.19,16.68,14.75,30.5"/>
	</g>
	<line class="st10" x1="13.77" y1="60.16" x2="13.77" y2="76.32"/>
	<line class="st10" x1="13.77" y1="141.4" x2="13.77" y2="157.57"/>
	<line class="st10" x1="13.77" y1="221.66" x2="13.77" y2="237.82"/>
	<line class="st10" x1="14.3" y1="302.82" x2="14.3" y2="318.99"/>
</g>
</svg>
