<!-- Generator: Adobe Illustrator 24.1.0, SVG Export Plug-In  -->
<svg version="1.1" xmlns="http://www.w3.org/2000/svg" xmlns:xlink="http://www.w3.org/1999/xlink" x="0px" y="0px"
	 width="201.33px" height="148.47px" viewBox="0 0 201.33 148.47" style="enable-background:new 0 0 201.33 148.47;"
	 xml:space="preserve">
<style type="text/css">
	.st0{fill:#E4E0DB;stroke:#231F20;stroke-width:0.5;stroke-miterlimit:10;}
	.st1{fill:#D2D1CD;stroke:#231F20;stroke-width:0.5;stroke-miterlimit:10;}
	.st2{fill:#F3EBE5;stroke:#231F20;stroke-width:0.5;stroke-miterlimit:10;}
	.st3{fill:#616162;}
	.st4{opacity:0.5;fill:#F4FAFD;stroke:#797879;stroke-width:0.5;stroke-miterlimit:10;}
	.st5{fill:#D0DBE7;stroke:#231F20;stroke-width:0.5;stroke-miterlimit:10;}
	.st6{fill:#DBDDDD;stroke:#231F20;stroke-width:0.2582;stroke-miterlimit:10;}
	.st7{fill:#193D59;stroke:#231F20;stroke-width:0.4266;stroke-miterlimit:10;}
	.st8{fill:#2F5272;stroke:#231F20;stroke-width:0.4266;stroke-miterlimit:10;}
</style>
<defs>
</defs>
<g>
	<g>
		<g>
			<polygon class="st0" points="167.17,80.35 167.17,147.97 0.68,132.45 0.68,64.83 			"/>
			<polygon class="st1" points="200.65,55.68 200.65,123.3 167.17,147.97 167.17,80.35 			"/>
			<path class="st2" d="M34.16,40.16L0.68,64.83l166.49,15.52l33.48-24.67L34.16,40.16z M164.29,77.41L36.75,65.52l-26.88-2.5
				l26.88-19.81l154.56,14.4L164.29,77.41z"/>
			<polygon class="st1" points="36.75,43.21 36.75,65.52 9.87,63.02 			"/>
			<polygon class="st0" points="191.32,57.61 164.29,77.41 36.75,65.52 36.75,43.21 			"/>
		</g>
		<g>
			<path class="st3" d="M122.42,14.39l0.52-6.62c0.22-2.43-1.58-4.59-4.02-4.8L85.87,0.02c-2.43-0.22-4.59,1.58-4.8,4.02l-0.58,6.48
				l3.28,0.29l0.38-4.74c0.15-1.73,1.96-2.98,4.04-2.8l28.19,2.51c2.08,0.19,3.64,1.74,3.48,3.47l-0.44,4.86L122.42,14.39z"/>
			<polygon class="st4" points="36.89,36.73 36.89,43.04 10,62.85 10,34.24 			"/>
			<polygon class="st4" points="36.89,14.43 10,34.24 23.45,5.22 			"/>
			<polygon class="st4" points="164.43,54.94 164.43,77.16 10,62.85 36.89,43.04 			"/>
			<polygon class="st4" points="191.32,28.83 191.32,57.45 164.43,54.94 164.43,48.54 164.43,48.54 164.43,48.54 			"/>
			<polygon class="st4" points="191.32,28.83 164.43,48.54 174.3,27.24 			"/>
			<polygon class="st4" points="164.43,48.54 164.43,54.94 36.89,43.04 36.89,36.73 			"/>
			<polygon class="st4" points="36.89,14.43 36.89,36.73 10,34.24 			"/>
			<polygon class="st4" points="174.3,27.24 164.43,48.54 164.43,48.54 164.43,48.54 36.89,36.73 36.89,14.43 			"/>
			<polygon class="st4" points="177.87,19.53 174.3,27.24 36.89,14.43 23.45,5.22 			"/>
			<polygon class="st4" points="191.32,57.45 164.43,77.16 164.43,54.94 			"/>
			<polyline class="st4" points="177.87,19.53 174.3,27.24 191.32,28.73 177.88,19.53 			"/>
		</g>
	</g>
	<g>
		<polygon class="st5" points="151.86,144.12 92.64,138.6 92.64,111.97 151.86,117.49 		"/>
		<polygon class="st6" points="127.91,136.35 97.32,133.5 97.32,119.74 127.91,122.59 		"/>
		<path class="st7" d="M133.01,123.89c0.21-0.07,0.43-0.1,0.66-0.1l0,0c1.2,0,2.19,0.99,2.19,2.19v0c0,1.1-0.82,2.02-1.88,2.17"/>
		<path class="st8" d="M135.25,126.1c0,0.6-0.25,1.15-0.64,1.54c-0.29,0.29-0.66,0.5-1.07,0.59c-0.16,0.04-0.31,0.05-0.48,0.05
			c-1.21,0-2.19-0.98-2.19-2.19c0-0.6,0.25-1.15,0.64-1.55c0.4-0.4,0.95-0.64,1.55-0.64c0.6,0,1.15,0.25,1.54,0.64
			C135,124.95,135.25,125.5,135.25,126.1z"/>
		<line class="st8" x1="133.27" y1="123.83" x2="132.75" y2="123.93"/>
		<line class="st8" x1="133.54" y1="128.24" x2="134.11" y2="128.12"/>
		<g>
			<path class="st7" d="M132.66,132.46c0.21-0.07,0.43-0.1,0.66-0.1h0c1.2,0,2.19,0.99,2.19,2.19l0,0c0,1.1-0.82,2.02-1.88,2.17"/>
			<path class="st8" d="M134.89,134.68c0,0.6-0.25,1.15-0.64,1.54c-0.29,0.29-0.66,0.5-1.07,0.59c-0.16,0.04-0.31,0.05-0.48,0.05
				c-1.21,0-2.19-0.98-2.19-2.19c0-0.6,0.25-1.15,0.64-1.55c0.4-0.4,0.95-0.64,1.55-0.64c0.6,0,1.15,0.25,1.54,0.64
				C134.65,133.52,134.89,134.07,134.89,134.68z"/>
			<line class="st8" x1="132.91" y1="132.4" x2="132.4" y2="132.51"/>
			<line class="st8" x1="133.18" y1="136.81" x2="133.76" y2="136.69"/>
		</g>
		<path class="st7" d="M141.41,128.99c0.21-0.07,0.43-0.1,0.66-0.1l0,0c1.2,0,2.19,0.99,2.19,2.19l0,0c0,1.1-0.82,2.02-1.88,2.17"/>
		<path class="st8" d="M143.64,131.2c0,0.6-0.25,1.15-0.64,1.54c-0.29,0.29-0.66,0.5-1.07,0.59c-0.16,0.04-0.31,0.05-0.48,0.05
			c-1.21,0-2.19-0.98-2.19-2.19c0-0.6,0.25-1.15,0.64-1.55c0.4-0.4,0.95-0.64,1.55-0.64c0.6,0,1.15,0.25,1.54,0.64
			C143.4,130.05,143.64,130.6,143.64,131.2z"/>
		<line class="st8" x1="141.66" y1="128.92" x2="141.15" y2="129.03"/>
		<line class="st8" x1="141.94" y1="133.34" x2="142.51" y2="133.22"/>
	</g>
</g>
</svg>
