<!-- Generator: Adobe Illustrator 24.1.0, SVG Export Plug-In  -->
<svg version="1.1" xmlns="http://www.w3.org/2000/svg" xmlns:xlink="http://www.w3.org/1999/xlink" x="0px" y="0px" width="81.72px"
	 height="322.51px" viewBox="0 0 81.72 322.51" style="enable-background:new 0 0 81.72 322.51;" xml:space="preserve">
<style type="text/css">
	.st0{fill:#A2D9F1;stroke:#231F20;stroke-width:0.5;stroke-miterlimit:10;}
	.st1{fill:none;stroke:#231F20;stroke-width:0.5;stroke-miterlimit:10;}
	.st2{fill:#80C2DD;stroke:#231F20;stroke-width:0.5;stroke-miterlimit:10;}
	.st3{fill:none;stroke:#231F20;stroke-width:0.635;stroke-linecap:round;stroke-miterlimit:10;}
	.st4{fill:#FFFFFF;}
	.st5{fill:#C3E5F0;}
	.st6{fill:#73B5CB;}
	.st7{fill:none;stroke:#231F20;stroke-width:0.5;stroke-linecap:round;stroke-miterlimit:10;}
	.st8{fill:#FFFFFF;stroke:#231F20;stroke-width:0.5;stroke-linecap:round;stroke-miterlimit:10;}
	.st9{fill:#231F20;}
	.st10{fill:#628EC4;stroke:#231F20;stroke-width:0.5;stroke-linecap:round;stroke-miterlimit:10;}
	.st11{fill:#4E79BC;stroke:#231F20;stroke-width:0.5;stroke-linecap:round;stroke-miterlimit:10;}
</style>
<defs>
</defs>
<g>
	<g>
		<path class="st0" d="M48.22,276.32l-0.03,5.91c0,0.11-0.04,0.21-0.12,0.3c0,0.5-0.12,25.04-0.12,25.04c0,0.37-0.06,0.73-0.18,1.07
			l-4.84,13.62c0,0.01-0.05,0.01-0.12,0c-0.06-0.01-0.11-0.03-0.12-0.04l-4.74-15.23c-0.12-0.38-0.18-0.76-0.18-1.13
			c0,0,0.11-24.12,0.12-25.04c-0.05-0.1-0.08-0.19-0.08-0.28l0.03-5.91"/>
		<path class="st1" d="M39.79,282.04"/>
		<path class="st1" d="M39.8,276.13"/>
		<path class="st2" d="M46.6,283.05c0.01-0.02,0.01-0.04,0.01-0.04s0.03-5.55,0.03-5.87c0.97-0.11,1.58-0.39,1.58-0.81
			c0-0.82-2.32-1.87-5.18-2.33c-2.86-0.47-5.19-0.18-5.19,0.64c0,0.47,0.77,1.02,1.96,1.49l-0.03,5.84c0,0,0.08,0.57,0.86,0.36
			c0,0,0.03-5.79,0.03-5.9c0.71,0.22,1.51,0.41,2.36,0.55c1.01,0.16,1.95,0.24,2.75,0.22c0,0.27-0.03,5.9-0.03,5.9
			C46.39,283.48,46.56,283.16,46.6,283.05"/>
		<path class="st1" d="M39.8,276.13c0,0,0.18,0.35,0.86,0.3"/>
		<path class="st1" d="M46.63,277.14c0,0-0.19,0.32-0.86,0.05"/>
		<path class="st3" d="M47.95,307.85"/>
		<path class="st1" d="M39.79,282.04c-1.21-0.47-1.98-1.02-1.98-1.49"/>
		<path class="st1" d="M48.08,282.53c-0.22,0.26-0.75,0.43-1.47,0.52"/>
		
			<ellipse transform="matrix(0.1699 -0.9855 0.9855 0.1699 -235.7625 271.0982)" class="st4" cx="43.03" cy="275.49" rx="1.04" ry="4.49"/>
		<path class="st5" d="M40.14,282.3l0.03-5.87c0,0-0.25-0.09-0.3-0.16l-0.03,5.7C39.84,281.98,39.88,282.24,40.14,282.3z"/>
		<path class="st5" d="M46.31,277.36l-0.03,5.87c0,0-0.13,0.03-0.47-0.16l0.03-5.79C45.84,277.27,46.06,277.37,46.31,277.36z"/>
		<path class="st5" d="M38.63,275.62l-0.03,5.78c0,0-0.29-0.18-0.44-0.33l0.03-5.77C38.19,275.3,38.43,275.51,38.63,275.62z"/>
		<path class="st6" d="M40.73,276.5l-0.03,5.8c0,0,0.32,0.1,0.58,0.17l0.03-5.8C41.32,276.67,40.98,276.58,40.73,276.5z"/>
		<path class="st6" d="M46.7,277.19c0,0,0.26-0.03,0.46-0.07l-0.03,5.78c0,0-0.23,0.05-0.46,0.08L46.7,277.19z"/>
		<path class="st6" d="M47.26,282.99l-0.12,24.96c0,0.09-0.01,0.17-0.04,0.25l-4.27,14l4.94-13.99c0.03-0.09,0.05-0.19,0.05-0.29
			l0.12-25.2C47.94,282.73,47.7,282.89,47.26,282.99z"/>
		<path class="st3" d="M46.81,308.6c0.22-0.04,0.42-0.1,0.58-0.17"/>
		<path class="st5" d="M39.12,281.8l-0.12,24.95c0,0.08,0.01,0.16,0.03,0.24l3.76,15.21l-2.97-15.06c-0.01-0.07-0.02-0.13-0.02-0.2
			l0.11-24.64c0,0-0.12-0.08-0.18-0.24C39.74,282.07,39.43,281.96,39.12,281.8z"/>
		<path class="st5" d="M44.47,283.12l-0.12,25.02c0,0.04,0,0.08-0.01,0.12l-1.5,10.8l2.22-10.74c0.01-0.06,0.02-0.11,0.02-0.17
			l0.12-24.98C45.2,283.16,44.91,283.15,44.47,283.12z"/>
		<path class="st3" d="M38.38,307c0.86,0.61,2.54,1.2,4.47,1.51c0.89,0.15,1.74,0.22,2.47,0.22"/>
		<path class="st1" d="M40.63,282.33c0,0,2.66,0.88,5.11,0.76"/>
	</g>
	<g>
		<path class="st7" d="M48.2,275.37l0.72-72.89c0-0.39,0.17-0.77,0.46-1.03l9.69-8.75"/>
		<path class="st7" d="M32.89,192.48c0.03,1.37,6.04,2.37,13.43,2.23c7.39-0.14,13.36-1.36,13.33-2.73"/>
		<path class="st8" d="M37.69,275.57l0.72-72.91c0-0.39-0.1-0.77-0.29-1.11l-5.23-9.07l0.38-12.86"/>
		<line class="st7" x1="59.65" y1="191.97" x2="59.98" y2="180.61"/>
		<path class="st7" d="M67.52,178.5c-0.05,1.65-9.07,2.72-20.14,2.4c-11.08-0.32-20.02-1.92-19.97-3.57"/>
		<line class="st7" x1="27.41" y1="177.33" x2="30.02" y2="32.98"/>
		<line class="st7" x1="67.52" y1="178.5" x2="72.94" y2="50.24"/>
		
			<rect x="28.56" y="120.95" transform="matrix(-0.0292 0.9996 -0.9996 -0.0292 169.5622 85.2135)" class="st9" width="29.69" height="8"/>
		<path class="st7" d="M36.41,24.45"/>
		<path class="st10" d="M56.22,12.28c-2.2,0.12-4.96,0.1-7.97-0.08c-2.87-0.18-5.52-0.49-7.63-0.86c-3.06-0.54-5.02-1.21-4.98-1.82
			l0.5-8.01c-0.07,1.04,5.59,2.24,12.61,2.68C55.77,4.62,61.53,4.13,61.6,3.1l-0.51,8.01C61.05,11.7,59.15,12.12,56.22,12.28z"/>
		<path class="st7" d="M55.93,26.37"/>
		<path class="st7" d="M47.25,26.58c-4.28-0.64-7.65-1.81-7.53-2.63l0.9-12.62c2.11,0.37,4.76,0.68,7.63,0.86
			c3.01,0.19,5.77,0.2,7.97,0.08l-1,13.98C55.1,27.08,51.53,27.22,47.25,26.58z"/>
		<path class="st11" d="M48.75,4.18C41.73,3.73,36.07,2.54,36.14,1.5c0.07-1.04,5.82-1.53,12.85-1.08
			C56.02,0.85,61.66,2.06,61.6,3.1C61.53,4.13,55.77,4.62,48.75,4.18z"/>
		<path class="st7" d="M34.47,18.97"/>
		<path class="st7" d="M35.26,22.02"/>
		<path class="st7" d="M35.19,20.18c0.64-0.39,2.33-0.46,4.76-0.23"/>
		<path class="st7" d="M70.47,51.07c1.38-0.14,2.27-0.42,2.46-0.83c0.02-0.03,0.03-0.08,0.04-0.12c0.06-0.5-0.79-1.06-2.39-1.63"/>
		<path class="st7" d="M59.04,27.92c0-0.01,0-0.03,0-0.03"/>
		<path class="st10" d="M71.2,35.73c-0.69-0.06-1.4-0.15-2.14-0.24c-4.47-0.58-8.2-1.5-10.03-2.42c0-2.82,0.01-4.92,0.01-5.16
			c0.73,0.5,2.12,1.02,3.95,1.49c1.86,0.49,4.17,0.92,6.69,1.25c6.37,0.82,11.64,0.57,11.79-0.58l-0.62,4.83
			C80.72,35.93,76.57,36.24,71.2,35.73z"/>
		<path class="st10" d="M70.47,51.07c-2.17,0.22-5.54,0.11-9.29-0.38c-0.75-0.09-1.48-0.2-2.18-0.32c0.01-0.08,0.02-10.67,0.03-17.3
			c1.83,0.92,5.56,1.83,10.03,2.42c0.73,0.09,1.45,0.18,2.14,0.24L70.59,48.5L70.47,51.07z"/>
		<path class="st7" d="M37.67,275.59c0.03,1.37,2.4,2.44,5.3,2.38s5.23-1.21,5.21-2.58"/>
		<path class="st11" d="M69.68,30.66c-2.52-0.33-4.83-0.76-6.69-1.25c-1.83-0.47-3.22-1-3.95-1.49c-0.01-0.01-0.03-0.01-0.03-0.02
			c0.01,0,0.02-0.01,0.04-0.01c1.04-0.13,1.68-0.38,1.8-0.72c0.01-0.01,0.02-0.03,0.02-0.06l0.15-0.95l0.01,0
			c2.17-0.21,5.5-0.09,9.2,0.38c6.36,0.82,11.4,2.41,11.25,3.55C81.33,31.23,76.05,31.48,69.68,30.66z"/>
		<path class="st11" d="M6.3,26.12c1.84-1.37,4.25-2.65,7.4-3.63c1.63-0.5,3.34-0.68,5.03-0.5c0,0,10.34,1.07,14.21,1.47
			c0.89,0.09,1.44,0.15,1.44,0.15c0.16-0.2,0.31-0.39,0.31-0.39c0.46-0.58,1.19-1.91,0.25-3.63c-0.24-0.43-0.69-0.7-1.18-0.74
			l-13.2-0.95c-1.23-0.09-2.47,0-3.66,0.29C6.76,20.65,6.24,25.93,6.24,25.93s-0.01,0.09-0.02,0.25C6.24,26.16,6.27,26.14,6.3,26.12
			"/>
		<path class="st7" d="M55.46,23.12"/>
		<path class="st7" d="M55.45,22.93c3.54,0.91,5.72,1.94,5.61,2.69l-0.18,1.22c-0.17,1.16-6.75,1.64-13.87,0.58
			c-4.75-0.71-8.19-2.15-10.36-3.12l-1.85-0.77"/>
		<path class="st7" d="M6.21,26.19c-4.89,3.76-5.88,8.23-5.88,8.23c-0.44,2.38,1.02,2.56,1.92,2.46c0.4-0.04,0.74-0.29,0.94-0.64
			c3.36-5.86,7.93-7.97,11.04-8.72c2.16-0.52,4.4-0.43,6.55,0.13c9.23,2.4,13.52,11.09,13.52,11.09"/>
	</g>
</g>
</svg>
