<!-- Generator: Adobe Illustrator 24.1.0, SVG Export Plug-In  -->
<svg version="1.1" xmlns="http://www.w3.org/2000/svg" xmlns:xlink="http://www.w3.org/1999/xlink" x="0px" y="0px"
	 width="317.21px" height="681.16px" viewBox="0 0 317.21 681.16" style="enable-background:new 0 0 317.21 681.16;"
	 xml:space="preserve">
<style type="text/css">
	.st0{fill:#A2D9F1;stroke:#231F20;stroke-width:0.5;stroke-miterlimit:10;}
	.st1{fill:none;stroke:#231F20;stroke-width:0.5;stroke-miterlimit:10;}
	.st2{fill:#80C2DD;stroke:#231F20;stroke-width:0.5;stroke-miterlimit:10;}
	.st3{fill:none;stroke:#231F20;stroke-width:0.635;stroke-linecap:round;stroke-miterlimit:10;}
	.st4{fill:#FFFFFF;}
	.st5{fill:#C3E5F0;}
	.st6{fill:#73B5CB;}
	.st7{fill:none;stroke:#231F20;stroke-width:0.5;stroke-linecap:round;stroke-miterlimit:10;}
	.st8{fill:#FFFFFF;stroke:#231F20;stroke-width:0.5;stroke-linecap:round;stroke-miterlimit:10;}
	.st9{fill:#231F20;}
	.st10{fill:#628EC4;stroke:#231F20;stroke-width:0.5;stroke-linecap:round;stroke-miterlimit:10;}
	.st11{fill:#4E79BC;stroke:#231F20;stroke-width:0.5;stroke-linecap:round;stroke-miterlimit:10;}
</style>
<defs>
</defs>
<g>
	<g>
		<path class="st0" d="M291.61,580.92l4.62,12.32c0.09,0.23,0.08,0.47-0.02,0.73c0.39,1.04,19.57,52.24,19.57,52.24
			c0.29,0.78,0.45,1.57,0.46,2.38l0.71,32.2c0,0.02-0.1,0.07-0.24,0.09c-0.14,0.03-0.26,0.03-0.27,0.01l-21.92-27.97
			c-0.55-0.7-0.97-1.45-1.26-2.22c0,0-18.86-50.33-19.58-52.26c-0.19-0.16-0.32-0.33-0.4-0.52l-4.62-12.32"/>
		<path class="st1" d="M278.59,599.5"/>
		<path class="st1" d="M273.94,587.17"/>
		<path class="st2" d="M293.56,596.22c0-0.05-0.01-0.08-0.01-0.08s-4.34-11.59-4.59-12.25c1.94-1,2.98-2.07,2.66-2.94
			c-0.64-1.72-6.3-2.06-12.64-0.76c-6.34,1.29-10.95,3.73-10.31,5.45c0.37,0.98,2.42,1.51,5.26,1.55l4.57,12.2
			c0,0,0.62,1.12,2.07,0.07c0,0-4.53-12.08-4.62-12.32c1.65-0.1,3.47-0.34,5.35-0.73c2.23-0.46,4.25-1.06,5.91-1.71
			c0.21,0.57,4.61,12.3,4.61,12.3C293.48,597.28,293.58,596.48,293.56,596.22"/>
		<path class="st1" d="M273.94,587.17c0,0,0.66,0.58,2.02-0.06"/>
		<path class="st1" d="M288.96,583.89c0,0-0.14,0.82-1.75,0.79"/>
		<path class="st3" d="M316.01,646.82"/>
		<path class="st1" d="M278.59,599.5c-2.88-0.02-4.93-0.56-5.3-1.55"/>
		<path class="st1" d="M296.23,593.96c-0.26,0.71-1.21,1.49-2.66,2.24"/>
		
			<ellipse transform="matrix(0.9815 -0.1913 0.1913 0.9815 -106.395 64.3546)" class="st4" cx="280.15" cy="583.29" rx="10.02" ry="2.33"/>
		<path class="st5" d="M279.52,599.77l-4.59-12.25c0,0-0.59,0.01-0.75-0.09l4.46,11.9C278.65,599.33,278.94,599.84,279.52,599.77z"
			/>
		<path class="st5" d="M288.46,584.58l4.59,12.25c0,0-0.25,0.17-1.11,0.04l-4.53-12.09C287.41,584.78,287.95,584.81,288.46,584.58z"
			/>
		<path class="st5" d="M271.09,587.05l4.52,12.07c0,0-0.75-0.15-1.17-0.35l-4.51-12.03C269.93,586.74,270.59,586.98,271.09,587.05z"
			/>
		<path class="st6" d="M276.16,587.22l4.53,12.1c0,0,0.75-0.04,1.35-0.11l-4.52-12.11C277.52,587.1,276.74,587.19,276.16,587.22z"/>
		<path class="st6" d="M289.14,583.93c0,0,0.53-0.27,0.91-0.52l4.52,12.07c0,0-0.44,0.29-0.9,0.53L289.14,583.93z"/>
		<path class="st6" d="M294.89,595.56l19.52,52.1c0.07,0.18,0.11,0.37,0.12,0.56l2.18,32.55l-0.78-33.05
			c-0.01-0.22-0.05-0.43-0.13-0.64l-19.71-52.59C296.1,594.48,295.74,595.01,294.89,595.56z"/>
		<path class="st3" d="M314.24,649.28c0.43-0.27,0.79-0.54,1.08-0.81"/>
		<path class="st5" d="M277.01,599.53l19.51,52.07c0.06,0.17,0.15,0.33,0.25,0.48l19.88,28.7l-18.12-29.02
			c-0.08-0.13-0.14-0.26-0.19-0.39l-19.26-51.41c0,0-0.31-0.08-0.56-0.35C278.51,599.61,277.78,599.63,277.01,599.53z"/>
		<path class="st5" d="M289.18,598.05l19.57,52.22c0.03,0.09,0.06,0.17,0.08,0.26l5.42,23.67l-3.89-24.14
			c-0.02-0.13-0.05-0.25-0.1-0.38l-19.53-52.13C290.73,597.56,290.14,597.77,289.18,598.05z"/>
		<path class="st3" d="M295.41,652.61c2.26,0.59,6.24,0.49,10.52-0.39c1.98-0.4,3.79-0.93,5.31-1.5"/>
		<path class="st1" d="M280.58,599.44c0,0,6.23-0.27,11.25-2.46"/>
	</g>
	<g>
		<path class="st7" d="M290.83,578.96l-56.2-152.41c-0.3-0.82-0.25-1.73,0.15-2.51l13.27-25.89"/>
		<path class="st7" d="M193.32,418.39c1.14,2.83,14.45,0.15,29.73-5.99c15.28-6.14,26.75-13.41,25.61-16.25"/>
		<path class="st8" d="M269.09,587.69l-56.21-152.46c-0.3-0.81-0.81-1.53-1.49-2.08l-18.07-14.76l-9.4-27.08"/>
		<line class="st7" x1="248.66" y1="396.16" x2="240.35" y2="372.23"/>
		<path class="st7" d="M254.41,361.87c1.2,3.47-16.73,12.84-40.06,20.94s-43.22,11.84-44.42,8.37"/>
		<line class="st7" x1="169.92" y1="391.18" x2="61.09" y2="88.41"/>
		<line class="st7" x1="254.41" y1="361.87" x2="164.15" y2="90.39"/>
		
			<rect x="128.68" y="260.49" transform="matrix(0.3278 0.9448 -0.9448 0.3278 363.2527 28.2753)" class="st9" width="66.15" height="17.83"/>
		<path class="st7" d="M67.65,65.58"/>
		<path class="st10" d="M99.27,24.54c-4.48,1.99-10.25,4.14-16.67,6.13c-6.12,1.89-11.88,3.35-16.57,4.25
			c-6.8,1.31-11.4,1.45-11.81,0.14l-5.31-17.09c0.68,2.21,13.41,0.23,28.38-4.39c14.98-4.65,26.6-10.21,25.91-12.43l5.28,17.1
			C108.89,19.52,105.26,21.9,99.27,24.54z"/>
		<path class="st7" d="M109.83,54.12"/>
		<path class="st7" d="M91.91,61.44c-9.41,2.05-17.37,2.28-17.76,0.48l-8.11-26.99c4.69-0.89,10.46-2.36,16.57-4.25
			c6.41-1.99,12.19-4.15,16.67-6.13l9,29.92C108.66,56.26,101.32,59.39,91.91,61.44z"/>
		<path class="st11" d="M77.29,13.59c-14.97,4.63-27.7,6.61-28.38,4.39c-0.68-2.21,10.91-7.79,25.91-12.43
			c14.98-4.65,27.7-6.61,28.38-4.39C103.89,3.38,92.28,8.94,77.29,13.59z"/>
		<path class="st7" d="M59.26,55.7"/>
		<path class="st7" d="M63.32,61.44"/>
		<path class="st7" d="M61.73,57.65c1.03-1.32,4.49-2.79,9.72-4.25"/>
		<path class="st7" d="M159.67,94.07c2.75-1.39,4.39-2.67,4.48-3.67c0.02-0.09,0-0.2-0.01-0.28c-0.26-1.09-2.48-1.57-6.26-1.5"/>
		<path class="st7" d="M117.53,54.89c-0.01-0.03-0.02-0.06-0.02-0.06"/>
		<path class="st10" d="M149.04,61.55c-1.49,0.42-3.04,0.8-4.64,1.19c-9.77,2.32-18.28,3.37-22.81,2.91
			c-2.22-5.88-3.87-10.25-4.07-10.76c1.91,0.46,5.23,0.45,9.42-0.02c4.26-0.46,9.41-1.38,14.93-2.69
			c13.92-3.33,24.7-8.04,24.1-10.53l2.53,10.56C169.04,54.43,160.62,58.35,149.04,61.55z"/>
		<path class="st10" d="M159.67,94.07c-4.35,2.18-11.46,4.62-19.65,6.57c-1.63,0.4-3.24,0.76-4.8,1.07
			c-0.04-0.17-8.4-22.25-13.63-36.05c4.53,0.46,13.04-0.59,22.81-2.91c1.6-0.39,3.15-0.78,4.64-1.19l8.84,27.07L159.67,94.07z"/>
		<path class="st7" d="M269.07,587.73c1.14,2.83,6.93,3.18,12.93,0.76c6-2.41,9.95-6.66,8.81-9.5"/>
		<path class="st11" d="M141.87,52.18c-5.52,1.31-10.67,2.23-14.93,2.69c-4.19,0.47-7.51,0.47-9.42,0.02
			c-0.04-0.02-0.07-0.01-0.09-0.02c0.03-0.01,0.04-0.03,0.07-0.04c2.07-1.1,3.2-2.11,3.17-2.92c0.02-0.04,0.02-0.09,0-0.15
			l-0.44-2.1l0.03-0.01c4.36-2.15,11.39-4.53,19.47-6.49c13.9-3.34,25.67-4,26.24-1.52C166.57,44.14,155.79,48.85,141.87,52.18z"/>
		<path class="st11" d="M6.24,92.9C9,88.59,13.01,84,18.78,79.48c2.99-2.34,6.43-4.05,10.09-5.03c0,0,22.39-5.96,30.76-8.19
			c1.93-0.51,3.11-0.83,3.11-0.83c0.17-0.53,0.34-1.07,0.34-1.07c0.49-1.58,0.96-4.92-2.35-7.76c-0.83-0.71-2-0.92-3.04-0.6
			l-28.25,8.48c-2.63,0.79-5.14,1.94-7.41,3.49C2.86,81.13,5.97,92.55,5.97,92.55s0.05,0.19,0.15,0.55
			C6.16,93.03,6.2,92.96,6.24,92.9"/>
		<path class="st7" d="M106.28,47.74"/>
		<path class="st7" d="M106.1,47.35c8.1-0.91,13.45-0.48,13.81,1.16l0.59,2.7c0.56,2.56-12.75,8.76-28.43,12.18
			c-10.47,2.28-18.76,1.99-24.04,1.69l-4.46-0.15"/>
		<path class="st7" d="M6.11,93.1c-7.21,11.71-5.74,21.8-5.74,21.8c0.97,5.3,4.14,4.53,5.94,3.61c0.79-0.41,1.31-1.2,1.45-2.08
			c2.35-14.87,10.2-22.88,16.09-26.91c4.09-2.8,8.83-4.37,13.76-4.91c21.12-2.29,36.95,12.41,36.95,12.41"/>
	</g>
</g>
</svg>
