<!-- Generator: Adobe Illustrator 24.1.0, SVG Export Plug-In  -->
<svg version="1.1" xmlns="http://www.w3.org/2000/svg" xmlns:xlink="http://www.w3.org/1999/xlink" x="0px" y="0px"
	 width="226.24px" height="200.87px" viewBox="0 0 226.24 200.87" style="enable-background:new 0 0 226.24 200.87;"
	 xml:space="preserve">
<style type="text/css">
	.st0{fill:#699DAC;stroke:#231F20;stroke-width:0.5;stroke-miterlimit:10;}
	.st1{fill:#AEAEAF;stroke:#231F20;stroke-width:0.5;stroke-miterlimit:10;}
	.st2{fill:#9CC1CC;stroke:#231F20;stroke-width:0.5;stroke-miterlimit:10;}
	.st3{fill:#D7D8D8;stroke:#231F20;stroke-width:0.5;stroke-miterlimit:10;}
	.st4{opacity:0.58;fill:#C2C0C0;stroke:#231F20;stroke-width:0.5;stroke-miterlimit:10;}
	.st5{fill:#88B9C9;stroke:#231F20;stroke-width:0.5;stroke-miterlimit:10;}
	.st6{fill:#C2C0C0;stroke:#231F20;stroke-width:0.5;stroke-miterlimit:10;}
	.st7{fill:#F0F8FD;stroke:#231F20;stroke-width:0.5;stroke-miterlimit:10;}
	.st8{fill:none;stroke:#231F20;stroke-width:0.5;stroke-miterlimit:10;}
	.st9{fill:#1B335B;stroke:#231F20;stroke-width:0.5;stroke-miterlimit:10;}
	.st10{fill:#3C629B;stroke:#231F20;stroke-width:0.5;stroke-miterlimit:10;}
	.st11{opacity:0.4;fill:#F0F8FD;stroke:#231F20;stroke-width:0.5;stroke-miterlimit:10;}
</style>
<defs>
</defs>
<g>
	<g>
		<polygon class="st0" points="173.81,161.9 168.29,192.05 160.99,200.4 155.46,187.11 163.7,164.75 167.93,168.28 		"/>
		<polygon class="st1" points="225.29,12.61 221.59,110.56 218.06,135.1 168.29,192.05 173.81,161.9 193.14,115.8 193.53,112.53 
			202.56,37.68 204.4,22.38 		"/>
		<path class="st2" d="M23.92,138.65l-12.71-2.37L0.85,155.11l46.12,28.95l39.54,8l68.95-4.94l8.24-22.36L23.92,138.65z
			 M110.22,186.46l-22.42,1.41l-37.59-7.84l-16.41-9.28l10.94-21.41l73.07,14.17L110.22,186.46z"/>
		<polygon class="st3" points="225.29,12.61 204.4,22.38 62.97,8.49 89.8,0.25 		"/>
		<polygon class="st4" points="171.14,58.18 167.6,108.81 84.86,96.97 84.86,48.24 		"/>
		<polygon class="st4" points="188.62,36.17 172.87,49.91 84.86,40.16 84.86,24.93 		"/>
		<polygon class="st5" points="160.99,200.4 87.45,196.99 50.26,188.52 9.55,168.28 0.85,155.11 46.97,184.05 86.5,192.05 
			155.46,187.11 		"/>
		<polygon class="st6" points="204.4,22.38 202.56,37.68 188.62,36.17 		"/>
		<polygon class="st6" points="204.4,22.38 188.62,36.17 84.86,24.93 61.34,22.38 62.97,8.49 		"/>
		<polygon class="st4" points="172.87,49.91 171.14,58.18 84.86,48.24 84.86,40.16 		"/>
		<polygon class="st7" points="62.97,8.49 61.34,22.38 59.58,37.36 22.5,33.25 		"/>
		<polygon class="st7" points="59.58,37.36 58.66,45.23 19.67,40.74 22.5,33.25 		"/>
		<polygon class="st7" points="58.66,45.23 52.86,94.68 27.93,135.84 23.92,138.65 11.2,136.28 19.67,40.74 		"/>
		<polygon class="st1" points="84.86,48.24 84.86,96.97 27.93,135.84 52.86,94.68 58.66,45.23 		"/>
		<line class="st8" x1="84.86" y1="24.93" x2="84.86" y2="24.92"/>
		<polygon class="st1" points="84.86,24.93 84.86,40.16 59.58,37.36 61.34,22.38 		"/>
		<polygon class="st1" points="84.86,40.16 84.86,48.24 58.66,45.23 59.58,37.36 		"/>
		<polygon class="st4" points="202.56,37.68 193.53,112.53 167.6,108.81 171.14,58.18 172.87,49.91 188.62,36.17 		"/>
		<polygon class="st3" points="167.48,110.52 165.6,137.53 148.63,153.69 36.85,132.04 88.16,98.74 		"/>
		<polygon class="st3" points="190.38,113.92 165.6,137.53 167.48,110.52 		"/>
		<polygon class="st3" points="36.85,132.04 36.85,138.65 148.87,159.98 165.13,144.27 163.7,164.75 23.92,138.65 27.93,135.84 
			84.86,96.97 167.6,108.81 167.48,110.52 88.16,98.74 		"/>
		<polygon class="st6" points="148.87,159.98 36.85,138.65 36.85,132.04 148.63,153.69 		"/>
		<polygon class="st1" points="165.6,137.53 165.13,144.27 148.87,159.98 148.63,153.69 		"/>
		<polygon class="st1" points="190.38,113.92 190.38,119.86 165.13,144.27 165.6,137.53 		"/>
		<polygon class="st3" points="193.53,112.53 193.14,115.8 173.81,161.9 167.93,168.28 163.7,164.75 165.13,144.27 190.38,119.86 
			190.38,113.92 167.48,110.52 167.6,108.81 		"/>
		<path class="st1" d="M44.74,149.34l-10.94,21.41l16.41,9.28l37.59,7.84l22.42-1.41l7.59-22.94L44.74,149.34z M54.31,173.57h-0.84
			c-1.53,0-2.77-1.24-2.77-2.76c0-1.53,1.24-2.77,2.77-2.77h0.84c1.52,0,2.77,1.24,2.77,2.77
			C57.08,172.34,55.83,173.57,54.31,173.57z M71.99,177.52h-0.85c-1.52,0-2.76-1.24-2.76-2.77c0-1.52,1.24-2.77,2.76-2.77h0.85
			c1.52,0,2.76,1.24,2.76,2.77C74.75,176.28,73.51,177.52,71.99,177.52z M90.64,180.28H89.8c-1.53,0-2.77-1.24-2.77-2.76
			c0-1.53,1.24-2.77,2.77-2.77h0.84c1.52,0,2.77,1.24,2.77,2.77C93.41,179.05,92.17,180.28,90.64,180.28z M102.1,171.99L48.03,161.9
			l2.71-5.98l54.23,10.13L102.1,171.99z"/>
		<path class="st9" d="M57.08,170.81c0,1.52-1.24,2.76-2.77,2.76h-0.84c1.52,0,2.76-1.24,2.76-2.76c0-1.53-1.24-2.77-2.76-2.77h0.84
			C55.83,168.05,57.08,169.28,57.08,170.81z"/>
		<path class="st9" d="M74.75,174.75c0,1.52-1.24,2.77-2.76,2.77h-0.85c1.52,0,2.77-1.24,2.77-2.77c0-1.52-1.24-2.77-2.77-2.77h0.85
			C73.51,171.99,74.75,173.23,74.75,174.75z"/>
		<path class="st9" d="M93.41,177.52c0,1.52-1.24,2.76-2.77,2.76H89.8c1.52,0,2.76-1.24,2.76-2.76c0-1.53-1.24-2.77-2.76-2.77h0.84
			C92.17,174.75,93.41,175.99,93.41,177.52z"/>
		<polygon class="st3" points="104.96,166.06 102.1,171.99 48.03,161.9 50.74,155.92 		"/>
		<path class="st10" d="M56.23,170.81c0,1.52-1.24,2.76-2.76,2.76c-1.53,0-2.77-1.24-2.77-2.76c0-1.53,1.24-2.77,2.77-2.77
			C54.99,168.05,56.23,169.28,56.23,170.81z"/>
		<g>
			<path class="st10" d="M73.91,174.75c0,1.52-1.24,2.77-2.77,2.77c-1.52,0-2.76-1.24-2.76-2.77c0-1.52,1.24-2.77,2.76-2.77
				C72.67,171.99,73.91,173.23,73.91,174.75z"/>
		</g>
		<path class="st10" d="M92.56,177.52c0,1.52-1.24,2.76-2.76,2.76c-1.53,0-2.77-1.24-2.77-2.76c0-1.53,1.24-2.77,2.77-2.77
			C91.33,174.75,92.56,175.99,92.56,177.52z"/>
		<g>
			<polygon class="st11" points="23.92,138.65 27.93,135.84 52.86,94.68 58.66,45.23 171.14,58.18 163.7,164.75 			"/>
			<polygon class="st11" points="163.7,164.75 167.93,168.28 173.81,161.9 193.14,115.8 204.4,22.38 172.87,49.91 171.14,58.18 			
				"/>
			<polygon class="st11" points="58.66,45.23 59.58,37.36 172.87,49.91 171.14,58.18 			"/>
			<polygon class="st11" points="62.97,8.49 59.58,37.36 172.87,49.91 204.4,22.38 			"/>
		</g>
	</g>
</g>
</svg>
