<!-- Generator: Adobe Illustrator 24.1.0, SVG Export Plug-In  -->
<svg version="1.1" xmlns="http://www.w3.org/2000/svg" xmlns:xlink="http://www.w3.org/1999/xlink" x="0px" y="0px" width="63.56px"
	 height="213.93px" viewBox="0 0 63.56 213.93" style="enable-background:new 0 0 63.56 213.93;" xml:space="preserve">
<style type="text/css">
	.st0{fill:#F7F2AE;}
	.st1{opacity:0.56;fill:#E2F3FC;}
	.st2{fill:#39398E;stroke:#231F20;stroke-width:0.5;stroke-miterlimit:10;}
	.st3{fill:none;stroke:#231F20;stroke-width:0.5;stroke-miterlimit:10;}
	.st4{fill:#020203;}
	.st5{font-family:'Bahnschrift';}
	.st6{font-size:6px;}
	.st7{fill:none;stroke:#231F20;stroke-width:0.5;stroke-linecap:round;stroke-miterlimit:10;}
	.st8{fill:none;stroke:#6367A1;stroke-width:0.5;stroke-linecap:round;stroke-miterlimit:10;}
	.st9{fill:none;stroke:#6367A1;stroke-width:0.25;stroke-linecap:round;stroke-miterlimit:10;}
	.st10{fill:none;stroke:#292659;stroke-width:0.5874;stroke-linecap:round;stroke-miterlimit:10;}
	.st11{fill:none;stroke:#231F20;stroke-width:0.5;stroke-linecap:round;stroke-linejoin:round;stroke-miterlimit:10;}
	.st12{fill:none;stroke:#292659;stroke-width:0.5878;stroke-linecap:round;stroke-miterlimit:10;}
	.st13{fill:none;stroke:#6367A1;stroke-width:0.1949;stroke-linecap:round;stroke-miterlimit:10;}
	.st14{fill:none;stroke:#6367A1;stroke-width:0.3098;stroke-linecap:round;stroke-miterlimit:10;}
	.st15{opacity:0.69;fill:#B6B6B7;}
	.st16{fill:none;stroke:#E2F3FC;stroke-width:0.25;stroke-miterlimit:10;}
	.st17{fill:#FAFAFA;stroke:#C3C5C5;stroke-miterlimit:10;}
</style>
<defs>
</defs>
<g>
	<g>
		<path class="st0" d="M55.7,135.32c0,2.46-11.21,4.45-25.03,4.45s-25.03-1.99-25.03-4.45c0-2.45,11.21-4.44,25.03-4.44
			S55.7,132.87,55.7,135.32z"/>
		<path class="st0" d="M55.7,135.32l-0.09,43.09c0,1.07-0.36,2.11-1.03,2.95l-22.81,29.08c-0.99,1.27-2.92,1.25-3.89-0.03
			l-21.52-28.4c-0.46-0.61-0.71-1.35-0.71-2.12v-44.57c0,2.46,11.21,4.45,25.03,4.45S55.7,137.78,55.7,135.32z"/>
	</g>
	<g>
		<path class="st1" d="M21.89,55.35v130.24c0,0.62,0.1,1.33,0.31,1.9l7.6,26.18l-6.1-26.18c-0.17-0.69-0.17-1.24-0.17-1.8
			l0.01-130.24L21.89,55.35z"/>
		<path class="st2" d="M60,12.5v30.75c0,6.77-13.38,12.25-29.88,12.25S0.25,50.02,0.25,43.25V12.5"/>
		<path class="st3" d="M3.75,49.01v130.71c0,0.89,0.29,1.76,0.82,2.47l22.07,29.71c1.75,2.36,5.27,2.39,7.06,0.07l23.02-29.75
			c0.57-0.73,0.87-1.63,0.87-2.56V48.07"/>
		<path class="st3" d="M16.05,78.5c0,0,10.38,3.75,29.25,0"/>
		<path class="st3" d="M16.05,94.66c0,0,10.38,3.75,29.25,0"/>
		<path class="st3" d="M16.05,110.82c0,0,10.38,3.75,29.25,0"/>
		<path class="st3" d="M16.05,126.99c0,0,10.38,3.75,29.25,0"/>
		<path class="st3" d="M16.05,142.32c0,0,10.38,3.75,29.25,0"/>
		<path class="st3" d="M16.05,157.65c0,0,10.38,3.75,29.25,0"/>
		<path class="st3" d="M16.05,172.98c0,0,10.04,3.25,29.25,0"/>
		<path class="st3" d="M16.05,64.66c0,0,10.38,3.75,29.25,0"/>
		<path class="st3" d="M17.66,72.15c0,0,1.88,0.59,4.87,0.33"/>
		<path class="st3" d="M17.66,87.08c0,0,1.88,0.59,4.87,0.33"/>
		<path class="st3" d="M17.66,103.04c0,0,1.88,0.59,4.87,0.33"/>
		<path class="st3" d="M17.66,119.54c0,0,1.88,0.59,4.87,0.33"/>
		<path class="st3" d="M17.66,135.29c0,0,1.88,0.59,4.87,0.33"/>
		<path class="st3" d="M17.66,150.62c0,0,1.88,0.59,4.87,0.33"/>
		<path class="st3" d="M17.66,165.95c0,0,1.88,0.59,4.87,0.33"/>
		<path class="st3" d="M17.66,178.41c0,0,1.88,0.59,4.87,0.33"/>
		<text transform="matrix(1 0 0 1 23.7085 181.0396)" class="st4 st5 st6">5</text>
		<text transform="matrix(1 0 0 1 23.7085 168.0396)" class="st4 st5 st6">10</text>
		<text transform="matrix(1 0 0 1 23.7085 153.0396)" class="st4 st5 st6">15</text>
		<text transform="matrix(1 0 0 1 23.7085 137.6023)" class="st4 st5 st6">20</text>
		<text transform="matrix(1 0 0 1 23.7085 121.7478)" class="st4 st5 st6">25</text>
		<text transform="matrix(1 0 0 1 23.7085 105.4561)" class="st4 st5 st6">30</text>
		<text transform="matrix(1 0 0 1 23.7085 89.3313)" class="st4 st5 st6">35</text>
		<text transform="matrix(1 0 0 1 23.7085 74.5813)" class="st4 st5 st6">40</text>
		<line class="st7" x1="14.75" y1="26.02" x2="14.75" y2="50.68"/>
		<line class="st7" x1="26.42" y1="27.85" x2="26.42" y2="52.51"/>
		<line class="st7" x1="38.42" y1="27.43" x2="38.42" y2="52.1"/>
		<line class="st7" x1="49.17" y1="24.89" x2="49.17" y2="49.56"/>
		<line class="st7" x1="58.25" y1="19.68" x2="58.25" y2="44.35"/>
		<path class="st8" d="M38.42,24.27c-2.63,0.31-5.41,0.48-8.29,0.48c-14.25,0-26.17-4.09-29.16-9.57"/>
		<path class="st8" d="M59.31,15.14c-1.8,3.37-6.98,6.22-14.01,7.92"/>
		<path class="st2" d="M0.25,12.5c0-6.77,13.38-12.25,29.88-12.25S60,5.73,60,12.5"/>
		<line class="st7" x1="4.02" y1="21.67" x2="4.02" y2="46.33"/>
		<line class="st9" x1="8.67" y1="39.58" x2="8.67" y2="48.73"/>
		<path class="st10" d="M9.75,25.1v24.24c0,0,0.85,0.49,2.55,0.98"/>
		<path class="st11" d="M9.39,24.89v24.66c0,0,0.78,0.63,2.82,1.12"/>
		<path class="st10" d="M20.86,27.43v24.31c0,0,0.73,0.39,2.45,0.62"/>
		<path class="st11" d="M20.5,27.22v24.79c0,0,0.8,0.47,2.9,0.66"/>
		<path class="st10" d="M32.78,28.06v24.41c0,0,0.76,0.31,2.66,0.11"/>
		<path class="st11" d="M32.42,27.85v24.91c0,0,1.31,0.41,3.3,0.12"/>
		<path class="st10" d="M44.2,26.81l0.05,24.41c0,0,1.06-0.06,3.01-0.67"/>
		<path class="st11" d="M43.84,26.6v25.04c0,0,1.89-0.19,3.63-0.98"/>
		<path class="st12" d="M54.28,23.01l-0.04,24.31c0,0,0.86-0.31,2.42-1.62"/>
		<path class="st11" d="M53.92,22.81v25.1c0,0,1.75-0.92,2.91-2.04"/>
		<line class="st9" x1="8.67" y1="26.02" x2="8.67" y2="28.28"/>
		<line class="st9" x1="19.69" y1="27.44" x2="19.69" y2="36.59"/>
		<line class="st13" x1="19.69" y1="45.81" x2="19.69" y2="47.18"/>
		<line class="st14" x1="3.57" y1="31.99" x2="3.57" y2="46.04"/>
		<path class="st7" d="M56.29,178.61c-1.78-1.36-5.3-2.54-9.93-3.35"/>
		<path class="st1" d="M8.36,51.93l0.01,127.83c0,1.03,0.28,2.04,0.82,2.92l19.03,30.24l-15.88-30.41c-0.39-0.78-0.59-1.63-0.59-2.5
			V53.19L8.36,51.93z"/>
		<path class="st7" d="M11.1,185.18c4.9,1.28,11.86,2.08,19.57,2.08c2.31,0,4.56-0.07,6.7-0.21"/>
		<path class="st15" d="M55.37,50.17v129.92c0,0.62-0.2,1.23-0.56,1.73L32.4,212.79l20.48-31.04c0.31-0.47,0.47-1.01,0.47-1.57
			L53.33,51.26L55.37,50.17z"/>
		<path class="st16" d="M63.56,71.14"/>
		<path class="st7" d="M41.71,186.68c4.54-0.5,8.42-1.31,11.2-2.31"/>
	</g>
</g>
<path class="st17" d="M57.59,98.45v23.76c0,2.64-12.05,4.79-26.92,4.79c-14.86,0-26.92-2.15-26.92-4.79V98.45
	c0,2.65,12.06,4.79,26.92,4.79C45.54,103.24,57.59,101.1,57.59,98.45z"/>
<g>
	<path class="st4" d="M19.49,117.77c0.47,0.29,1.15,0.53,1.87,0.53c1.07,0,1.69-0.56,1.69-1.38c0-0.75-0.43-1.19-1.52-1.61
		c-1.32-0.47-2.13-1.15-2.13-2.29c0-1.26,1.04-2.2,2.61-2.2c0.83,0,1.43,0.19,1.79,0.4l-0.29,0.85c-0.26-0.14-0.8-0.38-1.54-0.38
		c-1.1,0-1.52,0.66-1.52,1.21c0,0.76,0.49,1.13,1.61,1.56c1.37,0.53,2.06,1.19,2.06,2.37c0,1.25-0.92,2.33-2.83,2.33
		c-0.78,0-1.63-0.23-2.06-0.52L19.49,117.77z"/>
	<path class="st4" d="M32.46,114.92c0,2.78-1.69,4.26-3.75,4.26c-2.13,0-3.63-1.66-3.63-4.1c0-2.57,1.6-4.25,3.75-4.25
		C31.03,110.83,32.46,112.52,32.46,114.92z M26.18,115.05c0,1.73,0.94,3.27,2.58,3.27c1.65,0,2.59-1.52,2.59-3.36
		c0-1.61-0.84-3.29-2.58-3.29C27.05,111.68,26.18,113.27,26.18,115.05z"/>
	<path class="st4" d="M39.47,118.78c-0.38,0.19-1.15,0.38-2.13,0.38c-2.28,0-3.99-1.44-3.99-4.09c0-2.53,1.72-4.25,4.22-4.25
		c1.01,0,1.64,0.22,1.92,0.36l-0.25,0.85c-0.4-0.19-0.96-0.34-1.63-0.34c-1.9,0-3.15,1.21-3.15,3.33c0,1.98,1.14,3.25,3.11,3.25
		c0.64,0,1.28-0.13,1.7-0.34L39.47,118.78z"/>
</g>
</svg>
