<!-- Generator: Adobe Illustrator 24.1.0, SVG Export Plug-In  -->
<svg version="1.1" xmlns="http://www.w3.org/2000/svg" xmlns:xlink="http://www.w3.org/1999/xlink" x="0px" y="0px"
	 width="294.83px" height="203.73px" viewBox="0 0 294.83 203.73" style="enable-background:new 0 0 294.83 203.73;"
	 xml:space="preserve">
<style type="text/css">
	.st0{fill:#EAE1BF;}
	.st1{fill:#CCC7AE;stroke:#231F20;stroke-width:0.5;stroke-miterlimit:10;}
	.st2{fill:#EAE1BF;stroke:#231F20;stroke-width:0.5;stroke-miterlimit:10;}
	.st3{fill:#F0F8FB;stroke:#231F20;stroke-width:0.5;stroke-miterlimit:10;}
	.st4{fill:none;stroke:#231F20;stroke-width:0.5;stroke-miterlimit:10;}
	.st5{fill:none;stroke:#231F20;stroke-width:0.593;stroke-miterlimit:10;}
	.st6{opacity:0.82;fill:#C6E6EB;}
	.st7{fill:#C6E6EB;}
	.st8{fill:#ECAB69;stroke:#231F20;stroke-width:0.5027;stroke-miterlimit:10;}
	.st9{fill:#ECAB69;stroke:#231F20;stroke-width:0.5;stroke-miterlimit:10;}
	.st10{fill:#E5BD88;stroke:#231F20;stroke-width:0.5;stroke-miterlimit:10;}
	.st11{fill:#F1F8F9;}
	.st12{opacity:0.61;fill:#C7C7C9;}
	.st13{fill:#020203;}
	.st14{font-family:'Bahnschrift';}
	.st15{font-size:2.8095px;}
	.st16{fill:none;stroke:#231F20;stroke-width:0.5;stroke-linecap:round;stroke-miterlimit:10;}
	.st17{fill:none;stroke:#231F20;stroke-width:0.562;stroke-linecap:round;stroke-miterlimit:10;}
</style>
<defs>
</defs>
<g>
	<g>
		<polygon class="st0" points="52.64,64.01 54.76,66.39 58.04,64.54 56.95,63.48 		"/>
		<polygon class="st1" points="257.43,73.52 257.43,71.5 253.87,69.57 253.87,62.56 249.62,59.82 248.12,59.82 248.12,64.82 
			241.49,64.82 241.49,61.82 233.49,58.63 234.74,53.68 228.07,53.68 228.07,42.54 275.85,71.27 		"/>
		<polygon class="st2" points="51.12,64.19 41.74,68.94 41.74,73.44 36.68,74.06 37.24,77.6 21.07,67.87 		"/>
		<polygon class="st2" points="228.07,42.54 228.07,53.68 227.68,53.68 224.3,47.75 216.37,47.75 216.37,52.88 215.5,55.4 
			214.06,52.25 209.01,52.25 209.01,49.11 208.3,48.73 208.3,46.86 207.76,46.81 207.76,45.69 204.43,45.42 		"/>
		<line class="st2" x1="52.57" y1="64.02" x2="56.95" y2="63.48"/>
		<polyline class="st3" points="188.6,41.43 189.26,41.44 190.14,40.69 190.32,40.54 191.43,39.61 195.43,40.05 200.6,40.61 
			200.6,45.11 		"/>
		<polyline class="st4" points="197.51,51.77 198.72,52.73 200.6,52.73 200.6,53.98 		"/>
		<polyline class="st4" points="201.3,60.32 205.3,52.25 209.01,52.25 		"/>
		<line class="st4" x1="257.43" y1="73.56" x2="257.43" y2="73.52"/>
		<polyline class="st3" points="200.6,45.11 198.68,46.65 198.68,48.69 197.51,51.77 190.32,51.77 190.32,44.52 188.6,41.43 		"/>
		<path class="st3" d="M257.63,71.53v2.02L69.05,96.64L37.44,77.63l-0.56-3.54l5.06-0.62v-4.5l9.38-4.75l1.12-0.56l0.33,0.39
			l2.11,2.48l3.25-1.94l-2.5-2.87l6.75-4.63h2.75l0.81,1.07v-7.57l8.63-3.56l8.75,0.88v0.81l1.87,0.25v-3.62l2.94-1.71l1.13-4.67
			l13.08-2.08l5.62,5.33l2.17-3.33h5.63v-4.67h16.29l0.41,1.92l4.25-4.84h6.84v2.25c0,0,3.75,2.59,9.83,1.42l3.75-0.33l3-4.84l10,1
			l-1.67,5.17c0,0,4.5,0.67,7.84-1.25l6.58,5.75l-0.46,1.22l-0.54,1.45l1.83-1.09l1.59-0.66l3.5,0.07l1.72,3.09v7.25h7.19l1.17-3.08
			v-2.04l1.92-1.54l3.83,0.31l3.33,0.27v1.12l0.54,0.05v1.87l0.71,0.38v3.14h5.05l1.44,3.15l0.87-2.52v-5.13h7.93l3.38,5.93h7.06
			l-1.25,4.95l8,3.19v3h6.63v-5h1.5l4.25,2.74v7.01L257.63,71.53z"/>
		<polyline class="st4" points="215.5,55.4 213.8,60.32 223.06,64.44 225.87,62.38 		"/>
		<polyline class="st4" points="63.05,75.06 58.37,69.57 70.62,58.06 72.99,58.06 76.8,62.44 74.12,67.06 		"/>
		<polyline class="st4" points="79.55,73.25 82.12,68 92.37,68 92.37,69.57 93.68,72 93.68,73.25 		"/>
		<polyline class="st4" points="63.99,82.94 69.24,75.06 80.24,82.56 		"/>
		<polyline class="st4" points="68.37,87.25 86.62,82.13 86.24,90.13 		"/>
		<polyline class="st4" points="90.74,91.25 90.74,85.31 86.62,82.13 		"/>
		<polyline class="st4" points="105.3,63.56 98.99,60.56 100.8,49.13 114.62,47.56 111.12,55.56 		"/>
		<polyline class="st4" points="116.55,57.25 119.12,51.63 114.62,47.56 		"/>
		<path class="st4" d="M126.3,68.31v-3.38c0-0.48,0.18-0.93,0.51-1.28l0.21-0.22c0.49-0.51,1.17-0.82,1.88-0.84l6.72-0.24
			c0.58-0.02,1.1,0.35,1.27,0.91l0.9,2.99"/>
		<path class="st4" d="M122.87,42.63l22.37,1.02c1.23,0.06,2.24,0.99,2.39,2.22l0.24,2.01"/>
		<path class="st5" d="M123.63,51.47c-0.24,0.18-0.49,0.28-0.76,0.28c-1.21,0-2.19-2.04-2.19-4.56c0-2.52,0.98-4.56,2.19-4.56
			s2.19,2.04,2.19,4.56c0,0.49-0.04,0.95-0.1,1.39"/>
		<path class="st4" d="M90.74,82.94l19.51-19.54c1.1-1.1,2.64-1.71,4.18-1.47c0.94,0.15,1.94,0.6,2.73,1.67
			c0.65,0.88,0.63,2.1-0.02,2.99l-3.64,5.06"/>
		<polyline class="st4" points="100.51,80.77 106.51,73.94 114.62,73.94 116.87,76.11 		"/>
		<polyline class="st4" points="111.76,86.73 111.76,80.4 124.85,74.56 128.05,74.56 		"/>
		<polyline class="st4" points="179.84,79.16 183.93,74.85 193.18,74.85 197.59,79.83 		"/>
		<polyline class="st4" points="188.18,70.5 187.18,59.94 193.55,57.81 197.59,63.56 		"/>
		<polyline class="st4" points="166.68,59.38 173.49,54.81 181.37,57.1 181.37,62.13 		"/>
		<polyline class="st4" points="145.18,65.33 145.74,62.35 152.55,62.35 153.24,65.33 		"/>
		<polyline class="st4" points="146.99,61.56 146.99,56.75 152.93,54.5 156.62,54.81 158.49,58.03 		"/>
		<polyline class="st4" points="142.74,53.68 144.43,48.25 152.37,48.56 153.24,52.88 		"/>
		<polyline class="st4" points="126.77,79.63 129.74,72.13 140.9,67.1 146.43,74.94 142.24,80.65 		"/>
		<line class="st4" x1="141.27" y1="69.57" x2="142.84" y2="79.83"/>
		<polyline class="st4" points="171.93,67.63 164.55,62.35 158.8,62.35 155.24,65.63 155.24,73.87 163.12,73.44 164.62,67.75 		"/>
		<line class="st4" x1="294.58" y1="75.57" x2="228.74" y2="35.97"/>
		<polygon class="st1" points="66.09,103.53 66.09,203.29 0.25,163.69 0.25,63.93 		"/>
		<line class="st4" x1="65.66" y1="55.93" x2="0.25" y2="63.93"/>
		<line class="st4" x1="190.23" y1="40.68" x2="182.13" y2="41.67"/>
		<line class="st3" x1="228.74" y1="35.97" x2="195.43" y2="40.05"/>
		<polygon class="st2" points="294.58,75.57 294.58,175.33 66.09,203.29 66.09,103.53 		"/>
		<path class="st6" d="M82.47,84.55l-8.62,2.48c-0.07,0.02-0.12,0.1-0.1,0.17l0,0c0.02,0.07,0.1,0.12,0.17,0.1l8.62-2.48
			c0.07-0.02,0.12-0.1,0.1-0.17l0,0C82.62,84.57,82.54,84.53,82.47,84.55z"/>
		<path class="st6" d="M77.26,82.3l-7.3-5.21c-0.06-0.04-0.15-0.03-0.2,0.03l0,0c-0.04,0.06-0.03,0.15,0.03,0.2l7.3,5.21
			c0.06,0.04,0.15,0.03,0.2-0.03l0,0C77.33,82.43,77.32,82.34,77.26,82.3z"/>
		<path class="st6" d="M112,48.62l-8.9,1.1c-0.08,0.01-0.13,0.08-0.12,0.16l0,0c0.01,0.08,0.08,0.13,0.16,0.12l8.9-1.1
			c0.08-0.01,0.13-0.08,0.12-0.16l0,0C112.15,48.67,112.08,48.61,112,48.62z"/>
		<path class="st6" d="M88.97,68.63H83.3c-0.06,0-0.11,0.05-0.11,0.11v0.06c0,0.06,0.05,0.11,0.11,0.11h5.67
			c0.06,0,0.11-0.05,0.11-0.11v-0.06C89.09,68.68,89.04,68.63,88.97,68.63z"/>
		<path class="st6" d="M91.35,68.91h-0.77c-0.06,0-0.11-0.05-0.11-0.11l0,0c0-0.06,0.05-0.11,0.11-0.11h0.77
			c0.06,0,0.11,0.05,0.11,0.11l0,0C91.46,68.86,91.41,68.91,91.35,68.91z"/>
		<path class="st6" d="M66.83,63.07l-6.47,6.21c-0.06,0.05-0.06,0.14,0,0.2l0,0c0.05,0.06,0.14,0.06,0.2,0l6.47-6.21
			c0.06-0.05,0.06-0.14,0-0.2l0,0C66.98,63.01,66.89,63.01,66.83,63.07z"/>
		<path class="st7" d="M70.92,59.11l-1.83,1.83c-0.05,0.05-0.05,0.14,0,0.19l0,0c0.05,0.05,0.14,0.05,0.19,0l1.83-1.83
			c0.05-0.05,0.05-0.14,0-0.19l0,0C71.06,59.05,70.98,59.05,70.92,59.11z"/>
		<path class="st6" d="M113.3,74.56h-5.88c-0.05,0-0.1,0.04-0.1,0.1v0.01c0,0.05,0.04,0.1,0.1,0.1h5.88c0.05,0,0.1-0.04,0.1-0.1
			v-0.01C113.39,74.61,113.35,74.56,113.3,74.56z"/>
		<path class="st6" d="M116.11,76.48l-1.52-1.52c-0.03-0.03-0.07-0.03-0.1,0l-0.02,0.02c-0.03,0.03-0.03,0.07,0,0.1l1.52,1.52
			c0.03,0.03,0.07,0.03,0.1,0l0.02-0.02C116.14,76.55,116.14,76.51,116.11,76.48z"/>
		<path class="st6" d="M109.2,66.27L94.56,80.91c-0.05,0.05-0.12,0.05-0.17,0l0,0c-0.05-0.05-0.05-0.12,0-0.17l14.64-14.64
			c0.05-0.05,0.12-0.05,0.17,0l0,0C109.25,66.15,109.25,66.23,109.2,66.27z"/>
		<path class="st6" d="M135.77,63.22l-6.41,0.21c-0.04,0-0.07-0.03-0.07-0.06l0-0.1c0-0.04,0.03-0.07,0.06-0.07l6.41-0.21
			c0.04,0,0.07,0.03,0.07,0.06l0,0.1C135.83,63.19,135.8,63.22,135.77,63.22z"/>
		<path class="st7" d="M150.84,63.06h-4.52c-0.03,0-0.06-0.03-0.06-0.06v-0.12c0-0.03,0.03-0.06,0.06-0.06h4.52
			c0.03,0,0.06,0.03,0.06,0.06V63C150.9,63.03,150.87,63.06,150.84,63.06z"/>
		<path class="st7" d="M152.42,65.14l-0.37-1.6c0-0.02,0.01-0.04,0.03-0.04l0.16-0.04c0.02,0,0.04,0.01,0.04,0.03l0.37,1.6
			c0,0.02-0.01,0.04-0.03,0.04l-0.16,0.04C152.44,65.17,152.42,65.16,152.42,65.14z"/>
		<path class="st7" d="M139.49,68.9l-7.71,3.42c-0.04,0.02-0.1,0-0.12-0.04l-0.05-0.11c-0.02-0.04,0-0.1,0.04-0.12l7.71-3.42
			c0.04-0.02,0.1,0,0.12,0.04l0.05,0.11C139.56,68.83,139.54,68.88,139.49,68.9z"/>
		<path class="st7" d="M122.73,76.67l-9.35,4.15c-0.05,0.02-0.1,0-0.12-0.05l-0.02-0.05c-0.02-0.05,0-0.1,0.05-0.12l9.35-4.15
			c0.05-0.02,0.1,0,0.12,0.05l0.02,0.05C122.79,76.59,122.77,76.65,122.73,76.67z"/>
		<path class="st7" d="M189.01,75.69h-4.52c-0.03,0-0.06-0.03-0.06-0.06v-0.12c0-0.03,0.03-0.06,0.06-0.06h4.52
			c0.03,0,0.06,0.03,0.06,0.06v0.12C189.06,75.66,189.04,75.69,189.01,75.69z"/>
		<path class="st7" d="M164.09,63.34h-4.52c-0.03,0-0.06-0.03-0.06-0.06v-0.12c0-0.03,0.03-0.06,0.06-0.06h4.52
			c0.03,0,0.06,0.03,0.06,0.06v0.12C164.15,63.31,164.12,63.34,164.09,63.34z"/>
		<path class="st7" d="M193.06,59.2l-4.31,1.36c-0.03,0.01-0.06-0.01-0.07-0.04l-0.04-0.12c-0.01-0.03,0.01-0.06,0.04-0.07
			l4.31-1.36c0.03-0.01,0.06,0.01,0.07,0.04l0.04,0.12C193.11,59.16,193.09,59.19,193.06,59.2z"/>
		<path class="st7" d="M179.87,57.63l-5.64-1.53c-0.03-0.01-0.05-0.04-0.04-0.08l0.03-0.11c0.01-0.03,0.04-0.05,0.08-0.05l5.64,1.53
			c0.03,0.01,0.05,0.04,0.05,0.08l-0.03,0.11C179.93,57.62,179.9,57.64,179.87,57.63z"/>
		<path class="st7" d="M196.05,79.9l-3.08-3.31c-0.02-0.02-0.02-0.06,0-0.08l0.09-0.08c0.02-0.02,0.06-0.02,0.08,0l3.08,3.31
			c0.02,0.02,0.02,0.06,0,0.08l-0.09,0.08C196.11,79.93,196.07,79.93,196.05,79.9z"/>
		<path class="st7" d="M196.51,63.71l-2.01-2.58c-0.02-0.02-0.01-0.05,0.01-0.07l0.11-0.08c0.02-0.02,0.05-0.01,0.07,0.01l2.01,2.58
			c0.02,0.02,0.01,0.05-0.01,0.07l-0.11,0.08C196.56,63.74,196.53,63.73,196.51,63.71z"/>
		<path class="st7" d="M151.75,49.51l-5.27-0.2c-0.03,0-0.06-0.03-0.05-0.06l0-0.09c0-0.03,0.03-0.06,0.06-0.05l5.27,0.2
			c0.03,0,0.06,0.03,0.05,0.06l0,0.09C151.8,49.49,151.78,49.52,151.75,49.51z"/>
		<path class="st7" d="M144.95,44.72l-11.98-0.46c-0.05,0-0.08-0.04-0.08-0.09l0-0.03c0-0.05,0.04-0.08,0.09-0.08l11.98,0.46
			c0.05,0,0.08,0.04,0.08,0.09l0,0.03C145.03,44.68,144.99,44.72,144.95,44.72z"/>
		<path class="st7" d="M147.08,47.95l-0.28-2.19c0-0.02,0.01-0.04,0.03-0.04l0.11-0.01c0.02,0,0.04,0.01,0.04,0.03l0.28,2.19
			c0,0.02-0.01,0.04-0.03,0.04l-0.11,0.01C147.1,47.98,147.08,47.97,147.08,47.95z"/>
	</g>
	<g>
		<g>
			<polyline class="st8" points="169.4,32.85 171.28,58.51 187.99,72.88 185.97,45.25 			"/>
			<polygon class="st9" points="109.88,49.78 111.97,78.42 95.26,64.23 93.17,35.6 			"/>
			<polygon class="st10" points="187.28,44.13 189.38,72.76 188,72.86 186,45.55 110.96,51.03 112.95,78.34 111.97,78.42 
				109.88,49.78 			"/>
			<path class="st4" d="M170.58,29.94"/>
			<path class="st10" d="M171.22,34.04c0.01,0.16-0.01,0.32-0.07,0.48c-0.77-1.45-4.66-2.31-9.25-1.98c-4.6,0.34-8.32,1.76-8.87,3.3
				c-0.08-0.15-0.13-0.3-0.14-0.47c-0.13-1.72,3.88-3.41,8.94-3.78C166.89,31.24,171.1,32.33,171.22,34.04z"/>
			<path class="st4" d="M171.7,45.27"/>
			<path class="st4" d="M95.26,64.23"/>
			<path class="st10" d="M122.37,37.61c0.01,0.16-0.01,0.32-0.07,0.48c-0.77-1.44-4.66-2.31-9.25-1.98
				c-4.59,0.34-8.31,1.76-8.87,3.3c-0.08-0.15-0.13-0.3-0.14-0.46c-0.13-1.72,3.87-3.41,8.94-3.78
				C118.04,34.8,122.25,35.89,122.37,37.61z"/>
			<path class="st4" d="M122.3,38.09C122.3,38.09,122.3,38.09,122.3,38.09c-0.56,1.54-4.28,2.96-8.87,3.3
				c-4.59,0.34-8.48-0.53-9.25-1.98c0.56-1.54,4.28-2.96,8.87-3.3C117.64,35.78,121.53,36.64,122.3,38.09z"/>
			<path class="st10" d="M130.44,44.21c0.01,0.16-0.01,0.31-0.07,0.47c-0.78-1.44-4.67-2.31-9.25-1.97c-4.6,0.34-8.32,1.76-8.87,3.3
				c-0.08-0.15-0.13-0.3-0.14-0.47c-0.13-1.72,3.88-3.41,8.94-3.78C126.11,41.41,130.31,42.5,130.44,44.21z"/>
			<path class="st4" d="M130.37,44.69L130.37,44.69c-0.56,1.55-4.27,2.97-8.86,3.31c-4.59,0.34-8.47-0.53-9.25-1.98
				c0.55-1.54,4.27-2.97,8.87-3.3C125.7,42.38,129.59,43.24,130.37,44.69z"/>
			<path class="st10" d="M146.8,35.83c0.01,0.16-0.01,0.31-0.07,0.47c-0.78-1.44-4.66-2.31-9.25-1.97c-4.59,0.34-8.31,1.75-8.87,3.3
				c-0.08-0.15-0.13-0.3-0.14-0.46c-0.13-1.72,3.88-3.41,8.94-3.78S146.67,34.11,146.8,35.83z"/>
			<path class="st4" d="M146.73,36.3L146.73,36.3c-0.56,1.54-4.27,2.97-8.86,3.3c-4.59,0.34-8.48-0.53-9.25-1.98l0,0
				c0.56-1.54,4.28-2.96,8.87-3.3C142.06,33.99,145.95,34.86,146.73,36.3z"/>
			<path class="st10" d="M154.47,42.31c0.01,0.16-0.01,0.32-0.07,0.48c-0.77-1.45-4.66-2.31-9.25-1.98
				c-4.59,0.34-8.31,1.75-8.87,3.3c-0.08-0.15-0.13-0.3-0.14-0.46c-0.13-1.72,3.87-3.41,8.94-3.78
				C150.14,39.5,154.34,40.59,154.47,42.31z"/>
			<path class="st4" d="M154.4,42.79C154.4,42.79,154.4,42.79,154.4,42.79c-0.56,1.54-4.28,2.96-8.87,3.3
				c-4.59,0.34-8.48-0.53-9.25-1.98c0.56-1.54,4.27-2.96,8.87-3.3C149.73,40.48,153.62,41.34,154.4,42.79z"/>
			<path class="st4" d="M171.15,34.52c-0.56,1.54-4.28,2.96-8.87,3.3c-4.59,0.34-8.47-0.53-9.25-1.97c0.55-1.54,4.27-2.97,8.87-3.3
				C166.49,32.21,170.38,33.08,171.15,34.52z"/>
			<path class="st10" d="M177.8,40.61c0.01,0.16-0.01,0.32-0.07,0.47c-0.78-1.44-4.67-2.31-9.25-1.97c-4.59,0.34-8.31,1.76-8.87,3.3
				c-0.08-0.15-0.13-0.3-0.14-0.46c-0.13-1.72,3.88-3.41,8.94-3.78C173.47,37.8,177.67,38.89,177.8,40.61z"/>
			<path class="st4" d="M177.73,41.08L177.73,41.08c-0.01,0.03-0.02,0.05-0.03,0.07c-0.01,0.03-0.03,0.06-0.04,0.09
				c-0.02,0.04-0.04,0.08-0.07,0.12c-0.03,0.05-0.06,0.09-0.1,0.14c-0.26,0.35-0.67,0.68-1.21,0.99c-0.12,0.07-0.25,0.14-0.39,0.21
				c-0.06,0.03-0.13,0.07-0.19,0.1c-0.03,0.01-0.06,0.03-0.09,0.04c-0.16,0.08-0.33,0.15-0.51,0.22c-0.09,0.04-0.19,0.08-0.29,0.11
				c-0.07,0.03-0.15,0.05-0.22,0.08c-0.08,0.03-0.15,0.05-0.23,0.08c-0.57,0.2-1.2,0.37-1.87,0.52c-0.12,0.03-0.25,0.05-0.37,0.08
				c-0.17,0.03-0.34,0.07-0.51,0.1c-0.14,0.03-0.28,0.05-0.43,0.07c-0.02,0-0.03,0.01-0.05,0.01c-0.15,0.02-0.3,0.05-0.44,0.06
				c-0.05,0.01-0.09,0.01-0.14,0.02c-0.18,0.02-0.37,0.05-0.55,0.07c-0.21,0.02-0.41,0.04-0.62,0.06c-0.08,0.01-0.17,0.02-0.25,0.02
				c-0.08,0.01-0.17,0.02-0.25,0.02c-4.59,0.34-8.48-0.53-9.25-1.98c0.56-1.54,4.28-2.96,8.87-3.3
				C173.07,38.77,176.95,39.64,177.73,41.08z"/>
			<path class="st4" d="M122.31,38.11c0-0.01,0-0.01-0.01-0.02"/>
			<polyline class="st4" points="146.73,36.31 146.73,36.3 146.73,36.3 			"/>
			<polyline class="st4" points="128.61,37.62 128.61,37.63 128.6,37.64 			"/>
			<polyline class="st4" points="130.38,44.7 130.37,44.69 130.37,44.69 			"/>
			<path class="st4" d="M112.25,46.02c-0.01,0.02-0.02,0.03-0.02,0.05"/>
			<path class="st4" d="M154.41,42.81c0-0.01,0-0.01-0.01-0.02"/>
			<path class="st4" d="M136.28,44.11c-0.01,0.01-0.01,0.01-0.01,0.02"/>
			<path class="st4" d="M171.17,34.55c0-0.01-0.01-0.02-0.02-0.03"/>
			<path class="st4" d="M153.03,35.85c0,0.01-0.01,0.01-0.01,0.02"/>
			<polyline class="st4" points="177.74,41.1 177.73,41.08 177.73,41.08 			"/>
			<path class="st9" d="M170.58,29.94L93.17,35.6l16.71,14.19l77.41-5.65L170.58,29.94z M161.83,31.61
				c5.06-0.37,9.27,0.72,9.39,2.44c0.01,0.16-0.01,0.32-0.07,0.48c-0.56,1.54-4.28,2.96-8.87,3.3c-4.59,0.34-8.47-0.53-9.25-1.97
				c-0.08-0.15-0.13-0.3-0.14-0.47C152.77,33.67,156.77,31.98,161.83,31.61z M137.41,33.39c5.06-0.37,9.26,0.72,9.39,2.44
				c0.01,0.16-0.01,0.31-0.07,0.47l0,0c-0.56,1.54-4.27,2.96-8.87,3.3c-4.59,0.34-8.48-0.53-9.25-1.98l0,0
				c-0.08-0.15-0.13-0.3-0.14-0.46C128.34,35.45,132.35,33.76,137.41,33.39z M104.18,39.41c-0.08-0.15-0.13-0.3-0.14-0.46
				c-0.13-1.72,3.87-3.41,8.94-3.78c5.06-0.37,9.26,0.72,9.39,2.44c0.01,0.16-0.01,0.32-0.07,0.48c0,0,0,0,0,0
				c-0.56,1.54-4.28,2.96-8.87,3.3C108.84,41.72,104.96,40.86,104.18,39.41z M130.37,44.69L130.37,44.69
				c-0.56,1.55-4.27,2.97-8.86,3.31c-4.59,0.34-8.47-0.53-9.25-1.98c-0.08-0.15-0.13-0.3-0.14-0.47c-0.13-1.72,3.88-3.41,8.94-3.78
				c5.06-0.37,9.26,0.72,9.39,2.44C130.45,44.37,130.43,44.53,130.37,44.69z M154.4,42.79C154.4,42.79,154.4,42.79,154.4,42.79
				c-0.56,1.54-4.28,2.96-8.87,3.3c-4.59,0.34-8.48-0.53-9.25-1.98c-0.08-0.15-0.13-0.3-0.14-0.46c-0.13-1.72,3.87-3.41,8.94-3.78
				c5.06-0.37,9.27,0.72,9.39,2.44C154.48,42.47,154.46,42.63,154.4,42.79z M177.73,41.08c-0.01,0.02-0.02,0.05-0.03,0.07
				c-0.01,0.03-0.03,0.06-0.04,0.09c-0.02,0.04-0.04,0.08-0.07,0.12c-0.03,0.05-0.06,0.09-0.1,0.14c-0.26,0.35-0.67,0.68-1.21,0.99
				c-0.12,0.07-0.25,0.14-0.39,0.21c-0.06,0.03-0.13,0.07-0.19,0.1c-0.03,0.01-0.06,0.03-0.09,0.04c-0.16,0.08-0.33,0.15-0.51,0.22
				c-0.09,0.04-0.19,0.08-0.29,0.11c-0.07,0.03-0.15,0.05-0.22,0.08c-0.08,0.03-0.15,0.05-0.23,0.08c-0.57,0.2-1.2,0.37-1.87,0.52
				c-0.12,0.03-0.25,0.06-0.37,0.08c-0.17,0.03-0.34,0.07-0.51,0.1c-0.14,0.03-0.28,0.05-0.43,0.07c-0.02,0-0.03,0.01-0.05,0.01
				c-0.15,0.02-0.3,0.05-0.44,0.06c-0.05,0.01-0.09,0.01-0.14,0.02c-0.18,0.02-0.37,0.05-0.55,0.07c-0.21,0.02-0.41,0.04-0.62,0.06
				c-0.08,0.01-0.17,0.02-0.25,0.02c-0.08,0.01-0.17,0.02-0.25,0.02c-4.59,0.34-8.48-0.53-9.25-1.98c-0.08-0.15-0.13-0.3-0.14-0.46
				c-0.13-1.72,3.88-3.41,8.94-3.78c5.06-0.37,9.26,0.72,9.39,2.44C177.81,40.76,177.79,40.92,177.73,41.08L177.73,41.08z"/>
		</g>
		<g>
			<path class="st11" d="M118.71,48.05l-1.6-21.88c0,0-0.32,0.03-0.89,0.01L117.82,48"/>
			<line class="st11" x1="118.89" y1="50.45" x2="118.71" y2="48.05"/>
			<path class="st11" d="M118,50.52l0.26,3.62c0.01,0.17,0.05,0.34,0.1,0.5l4.03,11.88l-3.17-12.01c-0.03-0.12-0.05-0.24-0.06-0.36
				l-0.27-3.69"/>
			<line class="st11" x1="117.82" y1="48" x2="118" y2="50.52"/>
			<path class="st11" d="M114.06,46.58l-1.66-22.76c0,0-0.54-0.18-1.03-0.38l1.69,23.11"/>
			<line class="st11" x1="114.36" y1="50.65" x2="114.06" y2="46.58"/>
			<path class="st11" d="M113.36,50.72l0.2,2.69c0.02,0.31,0.12,0.62,0.28,0.89l8.71,14.34l-7.76-14.46
				c-0.13-0.24-0.21-0.51-0.23-0.78l-0.2-2.75"/>
			<line class="st11" x1="113.05" y1="46.55" x2="113.36" y2="50.72"/>
			<line class="st12" x1="129.23" y1="45.93" x2="129.51" y2="49.68"/>
			<path class="st12" d="M128.27,46.45l-1.58-21.71c0,0,0.57-0.12,0.97-0.35l1.57,21.54"/>
			<line class="st12" x1="128.51" y1="49.75" x2="128.27" y2="46.45"/>
			<path class="st12" d="M129.51,49.68l0.19,2.55c0.02,0.31-0.03,0.63-0.15,0.92l-6.53,15.46l5.58-15.43
				c0.09-0.26,0.13-0.53,0.11-0.8l-0.19-2.61"/>
			<path class="st4" d="M130.87,18.74c0.2,2.71-4.64,5.27-10.81,5.72c-6.17,0.45-11.33-1.38-11.53-4.09"/>
			<line class="st4" x1="108.5" y1="19.84" x2="108.53" y2="20.37"/>
			<line class="st4" x1="130.72" y1="16.63" x2="130.87" y2="18.74"/>
			<line class="st4" x1="130.09" y1="44.98" x2="128.42" y2="22.12"/>
			<path class="st4" d="M130.09,44.98"/>
			<path class="st4" d="M112.77,50.9l0.16,2.19c0.09,1.21,0.49,2.37,1.18,3.37l8.11,11.91c0.47,0.69,1.51,0.6,1.86-0.16l5.86-12.85
				c0.52-1.13,0.74-2.38,0.65-3.62l-0.17-2.28"/>
			<line class="st4" x1="110.73" y1="23.02" x2="112.4" y2="45.88"/>
			<path class="st4" d="M127.14,11.33c-2.09-0.76-4.97-1.12-8.1-0.89c-4.89,0.36-8.95,2.04-10.32,4.07
				c-0.03,0.04-0.08,0.07-0.13,0.08c-0.52,0.04-3.29,0.24-3.29,0.24l0.23,3.1l3.29-0.24c0.07-0.01,0.14,0.02,0.19,0.08
				c1.69,1.78,5.91,2.83,10.75,2.48c6.17-0.45,11.01-3.01,10.81-5.72C130.47,13.19,129.17,12.07,127.14,11.33z"/>
			<path class="st4" d="M130.72,16.63c0.2,2.71-4.64,5.27-10.81,5.72c-4.85,0.35-9.07-0.7-10.76-2.48
				c-0.05-0.05-0.11-0.07-0.18-0.07l-3.3,0.24l-0.15-2.11"/>
			<line class="st4" x1="130.56" y1="14.53" x2="130.72" y2="16.63"/>
			
				<ellipse transform="matrix(0.9973 -0.0728 0.0728 0.9973 -0.8004 8.738)" class="st4" cx="119.4" cy="15.34" rx="6.37" ry="2.36"/>
			<path class="st4" d="M131.37,19.18c-0.15,0.04-0.3,0.07-0.46,0.08l-0.06-0.8c0.81-0.06,1.41-0.76,1.36-1.57
				c-0.06-0.81-0.76-1.41-1.57-1.36l-0.06-0.8c1.25-0.09,2.34,0.85,2.43,2.1C133.09,17.93,132.38,18.9,131.37,19.18z"/>
			<path class="st4" d="M130.67,16.02"/>
			<path class="st4" d="M129.49,12.54c0.95-0.07,1.81,0.46,2.21,1.27c0.21,0.43,1.05,2.13,1.05,2.13"/>
			<path class="st4" d="M130.66,15.87c0.1-0.1,0.19-0.21,0.26-0.33"/>
			<path class="st4" d="M133,16.71"/>
			<path class="st4" d="M118.73,63.14c0,0,0.8,0.04,1.51-0.08"/>
			<path class="st4" d="M125.15,62.62c0,0,0.67,0.02,1.38-0.1"/>
			<path class="st4" d="M119.31,59.62c0,0,3,0.13,5.59-0.41"/>
			<path class="st4" d="M117.83,39.27c0,0,3,0.13,5.59-0.41"/>
			<path class="st4" d="M117.2,30.68c0,0,3,0.13,5.59-0.41"/>
			<path class="st4" d="M117.96,52.6c0,0,0.8,0.06,1.51-0.04"/>
			<path class="st4" d="M124.23,52.19c0,0,0.67-0.04,1.37-0.22"/>
			<path class="st4" d="M117.25,43.66c0,0,0.8,0.06,1.51-0.04"/>
			<path class="st4" d="M123.52,43.24c0,0,0.67-0.04,1.37-0.22"/>
			<path class="st4" d="M116.48,35c0,0,0.8,0.06,1.51-0.04"/>
			<path class="st4" d="M122.75,34.58c0,0,0.67-0.04,1.37-0.22"/>
			<text transform="matrix(0.9973 -0.0728 0.0728 0.9973 120.0212 53.5008)" class="st13 st14 st15">0.5</text>
			<text transform="matrix(0.9973 -0.0728 0.0728 0.9973 119.8613 44.4748)" class="st13 st14 st15">1.0</text>
			<text transform="matrix(0.9973 -0.0728 0.0728 0.9973 118.8753 35.8009)" class="st13 st14 st15">1.5</text>
			<text transform="matrix(0.9973 -0.0728 0.0728 0.9973 121.3128 64.3476)" class="st13 st14 st15">0.1</text>
			<path class="st4" d="M113.18,16.22c0.46-1.14,2.99-2.16,6.11-2.39c3.12-0.23,5.77,0.41,6.39,1.47"/>
			<path class="st16" d="M125.26,55.66c-1.06,0.23-2.22,0.39-3.44,0.48c-3.42,0.25-6.44-0.17-8.09-0.99"/>
			<path class="st16" d="M130.07,53.68c-0.6,0.53-1.55,1.02-2.76,1.43"/>
			<path class="st17" d="M129.18,51.84c-0.78-0.29-1.88-0.51-3.17-0.62"/>
			<path class="st12" d="M128.39,23.01c0,0-4.71,2.3-10.58,1.61c0,0,6.08,0.25,10.52-2.33L128.39,23.01z"/>
			<path class="st11" d="M129.61,13.83c-0.37,2.48-4.38,4.64-10.12,5.06c-5.34,0.39-9.16-1.37-10.42-3.49
				c0.48,2.57,5.2,4.44,11.18,4C125.98,18.98,129.33,16.37,129.61,13.83"/>
		</g>
		<g>
			<path class="st11" d="M135.83,37.93l-1.6-21.88c0,0-0.32,0.03-0.89,0.01l1.59,21.82"/>
			<line class="st11" x1="136" y1="40.33" x2="135.83" y2="37.93"/>
			<path class="st11" d="M135.11,40.4l0.26,3.62c0.01,0.17,0.05,0.34,0.1,0.5l4.03,11.88l-3.17-12.01
				c-0.03-0.12-0.05-0.24-0.06-0.36L136,40.33"/>
			<line class="st11" x1="134.93" y1="37.88" x2="135.11" y2="40.4"/>
			<path class="st11" d="M131.17,36.46l-1.66-22.76c0,0-0.54-0.18-1.03-0.38l1.69,23.11"/>
			<line class="st11" x1="131.47" y1="40.52" x2="131.17" y2="36.46"/>
			<path class="st11" d="M130.47,40.6l0.2,2.69c0.02,0.31,0.12,0.62,0.28,0.89l8.71,14.34l-7.76-14.46
				c-0.13-0.24-0.21-0.51-0.23-0.78l-0.2-2.75"/>
			<line class="st11" x1="130.16" y1="36.43" x2="130.47" y2="40.6"/>
			<line class="st12" x1="146.35" y1="35.81" x2="146.62" y2="39.56"/>
			<path class="st12" d="M145.38,36.33l-1.58-21.71c0,0,0.57-0.12,0.97-0.35l1.57,21.54"/>
			<line class="st12" x1="145.62" y1="39.63" x2="145.38" y2="36.33"/>
			<path class="st12" d="M146.62,39.56l0.19,2.55c0.02,0.31-0.03,0.63-0.15,0.92l-6.53,15.46l5.58-15.43
				c0.09-0.26,0.13-0.53,0.11-0.8l-0.19-2.61"/>
			<path class="st4" d="M147.98,8.62c0.2,2.71-4.64,5.27-10.81,5.72c-6.17,0.45-11.33-1.38-11.53-4.09"/>
			<line class="st4" x1="125.61" y1="9.72" x2="125.65" y2="10.25"/>
			<line class="st4" x1="147.83" y1="6.51" x2="147.98" y2="8.62"/>
			<line class="st4" x1="147.2" y1="34.86" x2="145.53" y2="12"/>
			<path class="st4" d="M147.2,34.86"/>
			<path class="st4" d="M129.88,40.78l0.16,2.19c0.09,1.21,0.49,2.37,1.18,3.37l8.11,11.91c0.47,0.69,1.51,0.6,1.86-0.16l5.86-12.85
				c0.52-1.13,0.74-2.38,0.65-3.62l-0.17-2.28"/>
			<line class="st4" x1="127.85" y1="12.9" x2="129.52" y2="35.76"/>
			<path class="st4" d="M144.25,1.21c-2.09-0.76-4.97-1.12-8.1-0.89c-4.89,0.36-8.95,2.04-10.32,4.07
				c-0.03,0.04-0.08,0.07-0.13,0.08c-0.52,0.04-3.29,0.24-3.29,0.24l0.23,3.1l3.29-0.24c0.07-0.01,0.14,0.02,0.19,0.08
				c1.69,1.78,5.91,2.83,10.75,2.48c6.17-0.45,11.01-3.01,10.81-5.72C147.58,3.07,146.28,1.95,144.25,1.21z"/>
			<path class="st4" d="M147.83,6.51c0.2,2.71-4.64,5.27-10.81,5.72c-4.85,0.35-9.07-0.7-10.76-2.48c-0.05-0.05-0.11-0.07-0.18-0.07
				l-3.3,0.24l-0.15-2.11"/>
			<line class="st4" x1="147.68" y1="4.41" x2="147.83" y2="6.51"/>
			
				<ellipse transform="matrix(0.9973 -0.0728 0.0728 0.9973 -0.0177 9.9576)" class="st4" cx="136.51" cy="5.22" rx="6.37" ry="2.36"/>
			<path class="st4" d="M148.48,9.06c-0.15,0.04-0.3,0.07-0.46,0.08l-0.06-0.8c0.81-0.06,1.41-0.76,1.36-1.57s-0.76-1.41-1.57-1.36
				l-0.06-0.8c1.25-0.09,2.34,0.85,2.43,2.1C150.2,7.81,149.49,8.77,148.48,9.06z"/>
			<path class="st4" d="M147.79,5.9"/>
			<path class="st4" d="M146.6,2.42c0.95-0.07,1.81,0.46,2.21,1.27c0.21,0.43,1.05,2.13,1.05,2.13"/>
			<path class="st4" d="M147.77,5.75c0.1-0.1,0.19-0.21,0.26-0.33"/>
			<path class="st4" d="M150.11,6.59"/>
			<path class="st4" d="M135.84,53.02c0,0,0.8,0.04,1.51-0.08"/>
			<path class="st4" d="M142.26,52.5c0,0,0.67,0.02,1.38-0.1"/>
			<path class="st4" d="M136.42,49.5c0,0,3,0.13,5.59-0.41"/>
			<path class="st4" d="M134.94,29.15c0,0,3,0.13,5.59-0.41"/>
			<path class="st4" d="M134.31,20.56c0,0,3,0.13,5.59-0.41"/>
			<path class="st4" d="M135.07,42.48c0,0,0.8,0.06,1.51-0.04"/>
			<path class="st4" d="M141.34,42.06c0,0,0.67-0.04,1.37-0.22"/>
			<path class="st4" d="M134.36,33.54c0,0,0.8,0.06,1.51-0.04"/>
			<path class="st4" d="M140.63,33.12c0,0,0.67-0.04,1.37-0.22"/>
			<path class="st4" d="M133.59,24.88c0,0,0.8,0.06,1.51-0.04"/>
			<path class="st4" d="M139.86,24.46c0,0,0.67-0.04,1.37-0.22"/>
			<text transform="matrix(0.9973 -0.0728 0.0728 0.9973 137.1329 43.3797)" class="st13 st14 st15">0.5</text>
			<text transform="matrix(0.9973 -0.0728 0.0728 0.9973 136.9731 34.3537)" class="st13 st14 st15">1.0</text>
			<text transform="matrix(0.9973 -0.0728 0.0728 0.9973 135.987 25.6798)" class="st13 st14 st15">1.5</text>
			<text transform="matrix(0.9973 -0.0728 0.0728 0.9973 138.4245 54.2265)" class="st13 st14 st15">0.1</text>
			<path class="st4" d="M130.29,6.1c0.46-1.14,2.99-2.16,6.11-2.39c3.12-0.23,5.77,0.41,6.39,1.47"/>
			<path class="st16" d="M142.37,45.54c-1.06,0.23-2.22,0.39-3.44,0.48c-3.42,0.25-6.44-0.17-8.09-0.99"/>
			<path class="st16" d="M147.18,43.55c-0.6,0.53-1.55,1.02-2.76,1.43"/>
			<path class="st17" d="M146.29,41.72c-0.78-0.29-1.88-0.51-3.17-0.62"/>
			<path class="st12" d="M145.51,12.89c0,0-4.71,2.3-10.58,1.61c0,0,6.08,0.25,10.52-2.33L145.51,12.89z"/>
			<path class="st11" d="M146.72,3.71c-0.37,2.48-4.38,4.64-10.12,5.06c-5.34,0.39-9.16-1.37-10.42-3.49c0.48,2.57,5.2,4.44,11.18,4
				C143.1,8.86,146.44,6.25,146.72,3.71"/>
		</g>
		<g>
			<path class="st11" d="M166.04,43.98l-1.6-21.88c0,0-0.32,0.03-0.89,0.01l1.59,21.82"/>
			<line class="st11" x1="166.21" y1="46.39" x2="166.04" y2="43.98"/>
			<line class="st11" x1="166.26" y1="46.99" x2="166.21" y2="46.39"/>
			<path class="st11" d="M165.37,47.06l0.22,3.01c0.01,0.17,0.05,0.34,0.1,0.5l4.03,11.88l-3.17-12.01
				c-0.03-0.12-0.05-0.24-0.06-0.36l-0.23-3.08"/>
			<line class="st11" x1="165.33" y1="46.45" x2="165.37" y2="47.06"/>
			<line class="st11" x1="165.14" y1="43.93" x2="165.33" y2="46.45"/>
			<path class="st11" d="M161.39,42.52l-1.66-22.76c0,0-0.54-0.18-1.03-0.38l1.69,23.11"/>
			<line class="st11" x1="161.68" y1="46.58" x2="161.39" y2="42.52"/>
			<line class="st11" x1="161.73" y1="47.22" x2="161.68" y2="46.58"/>
			<path class="st11" d="M160.73,47.29l0.15,2.05c0.02,0.31,0.12,0.62,0.28,0.89l8.71,14.34l-7.76-14.46
				c-0.13-0.24-0.21-0.51-0.23-0.78l-0.15-2.11"/>
			<line class="st11" x1="160.68" y1="46.65" x2="160.73" y2="47.29"/>
			<line class="st11" x1="160.38" y1="42.48" x2="160.68" y2="46.65"/>
			<line class="st12" x1="176.56" y1="41.87" x2="176.83" y2="45.61"/>
			<path class="st12" d="M175.59,42.39l-1.58-21.71c0,0,0.57-0.12,0.97-0.35l1.57,21.54"/>
			<line class="st12" x1="175.83" y1="45.69" x2="175.59" y2="42.39"/>
			<line class="st12" x1="175.87" y1="46.19" x2="175.83" y2="45.69"/>
			<path class="st12" d="M176.87,46.12l0.15,2.05c0.02,0.31-0.03,0.63-0.15,0.92l-6.53,15.46l5.58-15.43
				c0.09-0.26,0.13-0.53,0.11-0.8l-0.15-2.11"/>
			<line class="st12" x1="176.83" y1="45.61" x2="176.87" y2="46.12"/>
			<path class="st4" d="M178.2,14.67c0.2,2.71-4.64,5.27-10.81,5.72c-6.17,0.45-11.33-1.38-11.53-4.09"/>
			<line class="st4" x1="155.82" y1="15.77" x2="155.86" y2="16.31"/>
			<line class="st4" x1="178.04" y1="12.57" x2="178.2" y2="14.67"/>
			<line class="st4" x1="177.41" y1="40.92" x2="175.74" y2="18.06"/>
			<path class="st4" d="M177.41,40.92"/>
			<path class="st4" d="M160.13,47.34l0.12,1.69c0.09,1.21,0.49,2.37,1.18,3.37l8.11,11.91c0.47,0.69,1.51,0.6,1.86-0.16l5.86-12.85
				c0.52-1.13,0.74-2.38,0.65-3.62l-0.17-2.28"/>
			<line class="st4" x1="158.06" y1="18.96" x2="159.73" y2="41.82"/>
			<path class="st4" d="M174.46,7.27c-2.09-0.76-4.97-1.12-8.1-0.89c-4.89,0.36-8.95,2.04-10.32,4.07
				c-0.03,0.04-0.08,0.07-0.13,0.08c-0.52,0.04-3.29,0.24-3.29,0.24l0.23,3.1l3.29-0.24c0.07-0.01,0.14,0.02,0.19,0.08
				c1.69,1.78,5.91,2.83,10.75,2.48c6.17-0.45,11.01-3.01,10.81-5.72C177.79,9.13,176.49,8.01,174.46,7.27z"/>
			<path class="st4" d="M178.04,12.57c0.2,2.71-4.64,5.27-10.81,5.72c-4.85,0.35-9.07-0.7-10.76-2.48
				c-0.05-0.05-0.11-0.07-0.18-0.07l-3.3,0.24l-0.15-2.11"/>
			<line class="st4" x1="177.89" y1="10.46" x2="178.04" y2="12.57"/>
			
				<ellipse transform="matrix(0.9973 -0.0728 0.0728 0.9973 -0.3785 12.1745)" class="st4" cx="166.72" cy="11.28" rx="6.37" ry="2.36"/>
			<path class="st4" d="M178.69,15.12c-0.15,0.04-0.3,0.07-0.46,0.08l-0.06-0.8c0.81-0.06,1.41-0.76,1.36-1.57s-0.76-1.41-1.57-1.36
				l-0.06-0.8c1.25-0.09,2.34,0.85,2.43,2.1C180.41,13.86,179.71,14.83,178.69,15.12z"/>
			<path class="st4" d="M178,11.95"/>
			<path class="st4" d="M176.82,8.47c0.95-0.07,1.81,0.46,2.21,1.27c0.21,0.43,1.05,2.13,1.05,2.13"/>
			<path class="st4" d="M177.99,11.8c0.1-0.1,0.19-0.21,0.26-0.33"/>
			<path class="st4" d="M180.32,12.65"/>
			<path class="st4" d="M166.05,59.07c0,0,0.8,0.04,1.51-0.08"/>
			<path class="st4" d="M172.47,58.55c0,0,0.67,0.02,1.38-0.1"/>
			<path class="st4" d="M166.64,55.55c0,0,3,0.13,5.59-0.41"/>
			<path class="st4" d="M165.15,35.2c0,0,3,0.13,5.59-0.41"/>
			<path class="st4" d="M164.52,26.61c0,0,3,0.13,5.59-0.41"/>
			<path class="st4" d="M165.28,48.54c0,0,0.8,0.06,1.51-0.04"/>
			<path class="st4" d="M171.56,48.12c0,0,0.67-0.04,1.37-0.22"/>
			<path class="st4" d="M164.57,39.59c0,0,0.8,0.06,1.51-0.04"/>
			<path class="st4" d="M170.84,39.17c0,0,0.67-0.04,1.37-0.22"/>
			<path class="st4" d="M163.8,30.93c0,0,0.8,0.06,1.51-0.04"/>
			<path class="st4" d="M170.08,30.51c0,0,0.67-0.04,1.37-0.22"/>
			<text transform="matrix(0.9973 -0.0728 0.0728 0.9973 167.3468 49.4352)" class="st13 st14 st15">0.5</text>
			<text transform="matrix(0.9973 -0.0728 0.0728 0.9973 167.1879 40.4091)" class="st13 st14 st15">1.0</text>
			<text transform="matrix(0.9973 -0.0728 0.0728 0.9973 166.2019 31.7352)" class="st13 st14 st15">1.5</text>
			<text transform="matrix(0.9973 -0.0728 0.0728 0.9973 168.6394 60.2819)" class="st13 st14 st15">0.1</text>
			<path class="st4" d="M160.5,12.15c0.46-1.14,2.99-2.16,6.11-2.39c3.12-0.23,5.77,0.41,6.39,1.47"/>
			<path class="st16" d="M172.59,51.59c-1.06,0.23-2.22,0.39-3.44,0.48c-3.42,0.25-6.44-0.17-8.09-0.99"/>
			<path class="st16" d="M177.4,49.61c-0.6,0.53-1.55,1.02-2.76,1.43"/>
			<path class="st17" d="M176.5,47.78c-0.78-0.29-1.88-0.51-3.17-0.62"/>
			<path class="st12" d="M175.72,18.94c0,0-4.71,2.3-10.58,1.61c0,0,6.08,0.25,10.52-2.33L175.72,18.94z"/>
			<path class="st11" d="M176.94,9.76c-0.37,2.48-4.38,4.64-10.12,5.06c-5.34,0.39-9.16-1.37-10.42-3.49c0.48,2.57,5.2,4.44,11.18,4
				C173.31,14.92,176.65,12.3,176.94,9.76"/>
		</g>
	</g>
	<polyline class="st3" points="165.95,62.51 168.38,58.93 174.2,62.26 174.2,70.86 	"/>
	<polyline class="st3" points="93.17,64.18 95.6,60.6 101.42,63.93 101.42,72.53 	"/>
	<polyline class="st3" points="108.27,74.62 110.69,71.04 116.52,74.36 116.52,82.96 	"/>
	<path class="st3" d="M114.31,66.31c0.48-0.29,1.18-0.68,2.09-0.99c2.4-0.83,7.63-1.65,10.13,1.61c1.69,2.21,1.63,5.63,0,8.6"/>
	<polyline class="st3" points="133.38,56.07 136.67,52.49 144.54,55.81 144.54,64.41 	"/>
	<polyline class="st3" points="179.84,72.86 185.74,67.57 193.38,67.86 198.1,72.36 199.38,74.02 201.59,75.99 	"/>
</g>
</svg>
