<!-- Generator: Adobe Illustrator 24.1.0, SVG Export Plug-In  -->
<svg version="1.1" xmlns="http://www.w3.org/2000/svg" xmlns:xlink="http://www.w3.org/1999/xlink" x="0px" y="0px"
	 width="213.32px" height="214.58px" viewBox="0 0 213.32 214.58" style="enable-background:new 0 0 213.32 214.58;"
	 xml:space="preserve">
<style type="text/css">
	.st0{fill:#AEAEAF;stroke:#231F20;stroke-width:0.5;stroke-miterlimit:10;}
	.st1{fill:none;stroke:#231F20;stroke-width:0.5;stroke-miterlimit:10;}
	.st2{fill:#D7D8D8;stroke:#231F20;stroke-width:0.5;stroke-miterlimit:10;}
	.st3{fill:#C7C6C6;stroke:#231F20;stroke-width:0.5;stroke-miterlimit:10;}
	.st4{fill:#699DAC;stroke:#231F20;stroke-width:0.5;stroke-miterlimit:10;}
	.st5{fill:#9CC1CC;stroke:#231F20;stroke-width:0.5;stroke-miterlimit:10;}
	.st6{fill:#88B9C9;stroke:#231F20;stroke-width:0.5;stroke-miterlimit:10;}
	.st7{fill:#A5A4A4;stroke:#231F20;stroke-width:0.5;stroke-miterlimit:10;}
	.st8{fill:none;stroke:#231F20;stroke-width:0.25;stroke-miterlimit:10;}
	.st9{fill:none;stroke:#231F20;stroke-width:0.3571;stroke-miterlimit:10;}
	.st10{fill:#699DAC;stroke:#231F20;stroke-width:0.25;stroke-miterlimit:10;}
	.st11{fill:#88B9C9;stroke:#231F20;stroke-width:0.25;stroke-miterlimit:10;}
	.st12{fill:#D7D8D8;stroke:#231F20;stroke-width:0.25;stroke-miterlimit:10;}
	.st13{fill:#AEAEAF;stroke:#231F20;stroke-width:0.25;stroke-miterlimit:10;}
	.st14{fill:#C7C6C6;stroke:#231F20;stroke-width:0.249;stroke-miterlimit:10;}
</style>
<defs>
</defs>
<g>
	<polygon class="st0" points="29.39,27.57 29.39,210.37 0.72,189.17 0.72,6.37 	"/>
	<path class="st1" d="M29.39,27.57"/>
	<polygon class="st2" points="206.56,21.45 64.39,26.36 29.39,27.57 0.72,6.37 177.9,0.25 	"/>
	<polygon class="st3" points="64.39,156.7 64.39,209.31 29.39,210.37 29.39,157.91 	"/>
	<polygon class="st4" points="70.42,30.82 70.42,214.07 64.39,209.46 64.39,26.36 	"/>
	<polygon class="st5" points="212.59,25.91 70.42,30.82 64.39,26.36 206.56,21.45 	"/>
	<path class="st6" d="M70.42,30.82v183.25l142.17-4.6V25.91L70.42,30.82z M98.23,151.09l-17.84,0.61v-42.71l17.84-0.62V151.09z"/>
	<polygon class="st7" points="98.23,110.17 98.23,149.54 86.89,145.04 86.89,113.79 	"/>
	<polygon class="st3" points="86.89,113.79 86.89,145.04 98.23,149.54 98.23,151.09 80.39,151.7 80.39,108.99 98.23,108.37 
		98.23,110.17 	"/>
	<polygon class="st2" points="64.39,26.36 64.39,156.7 29.39,157.91 29.39,27.57 	"/>
	<line class="st1" x1="98.23" y1="151.33" x2="98.23" y2="151.09"/>
	<line class="st1" x1="80.39" y1="108.99" x2="80.39" y2="108.74"/>
	<path class="st1" d="M98.24,108.38"/>
	<polygon class="st3" points="59.39,45.15 59.39,76.18 34.39,77.04 34.39,46.02 	"/>
	<path class="st2" d="M34.31,77.04v62.08l25-0.87V76.18L34.31,77.04z M44.53,114.57h-1.12c-1.89,0-3.41-1.52-3.41-3.4
		s1.52-3.41,3.41-3.41h1.12c1.88,0,3.41,1.53,3.41,3.41S46.41,114.57,44.53,114.57z M44.53,101.38h-1.12c-1.89,0-3.41-1.52-3.41-3.4
		c0-1.89,1.52-3.41,3.41-3.41h1.12c1.88,0,3.41,1.52,3.41,3.41C47.94,99.86,46.41,101.38,44.53,101.38z M44.53,88.19h-1.12
		c-1.89,0-3.41-1.53-3.41-3.41s1.52-3.4,3.41-3.4h1.12c1.88,0,3.41,1.52,3.41,3.4S46.41,88.19,44.53,88.19z"/>
	<path class="st8" d="M48.02,84.78c0,1.88-1.53,3.41-3.41,3.41h-1.12V88c-1.33-0.47-2.28-1.73-2.28-3.22s0.95-2.75,2.28-3.21v-0.19
		h1.12C46.49,81.38,48.02,82.9,48.02,84.78z"/>
	<path class="st9" d="M48.02,111.17c0,1.88-1.53,3.4-3.41,3.4h-1.12v-0.19c-1.33-0.46-2.28-1.72-2.28-3.21s0.95-2.75,2.28-3.22
		v-0.19h1.12C46.49,107.76,48.02,109.29,48.02,111.17z"/>
	<path class="st9" d="M48.02,97.98c0,1.88-1.53,3.4-3.41,3.4h-1.12v-0.19c-1.33-0.46-2.28-1.72-2.28-3.21s0.95-2.76,2.28-3.22v-0.19
		h1.12C46.49,94.57,48.02,96.09,48.02,97.98z"/>
	<path class="st10" d="M41.21,84.78c0,1.49,0.95,2.75,2.28,3.22v0.19c-1.89,0-3.41-1.53-3.41-3.41s1.52-3.4,3.41-3.4v0.19
		C42.16,82.03,41.21,83.29,41.21,84.78z"/>
	<path class="st4" d="M43.49,81.57V88c-1.33-0.47-2.28-1.73-2.28-3.22S42.16,82.03,43.49,81.57z"/>
	<path class="st11" d="M48.02,84.78c0,1.88-1.53,3.41-3.41,3.41c-0.39,0-0.77-0.07-1.12-0.19c-1.33-0.47-2.28-1.73-2.28-3.22
		s0.95-2.75,2.28-3.21c0.35-0.12,0.73-0.19,1.12-0.19C46.49,81.38,48.02,82.9,48.02,84.78z"/>
	<path class="st10" d="M41.21,97.98c0,1.49,0.95,2.75,2.28,3.21v0.19c-1.89,0-3.41-1.52-3.41-3.4c0-1.89,1.52-3.41,3.41-3.41v0.19
		C42.16,95.22,41.21,96.49,41.21,97.98z"/>
	<path class="st4" d="M43.49,94.76v6.43c-1.33-0.46-2.28-1.72-2.28-3.21S42.16,95.22,43.49,94.76z"/>
	<path class="st11" d="M48.02,97.98c0,1.88-1.53,3.4-3.41,3.4c-0.39,0-0.77-0.07-1.12-0.19c-1.33-0.46-2.28-1.72-2.28-3.21
		s0.95-2.76,2.28-3.22c0.35-0.12,0.73-0.19,1.12-0.19C46.49,94.57,48.02,96.09,48.02,97.98z"/>
	<path class="st10" d="M41.21,111.17c0,1.49,0.95,2.75,2.28,3.21v0.19c-1.89,0-3.41-1.52-3.41-3.4s1.52-3.41,3.41-3.41v0.19
		C42.16,108.42,41.21,109.68,41.21,111.17z"/>
	<path class="st4" d="M43.49,107.95v6.43c-1.33-0.46-2.28-1.72-2.28-3.21S42.16,108.42,43.49,107.95z"/>
	<path class="st11" d="M48.02,111.17c0,1.88-1.53,3.4-3.41,3.4c-0.39,0-0.77-0.07-1.12-0.19c-1.33-0.46-2.28-1.72-2.28-3.21
		s0.95-2.75,2.28-3.22c0.35-0.12,0.73-0.19,1.12-0.19C46.49,107.76,48.02,109.29,48.02,111.17z"/>
	<polygon class="st12" points="41.21,124.87 41.21,133.2 40.28,132.7 40.28,124.37 	"/>
	<polygon class="st13" points="49.87,124.79 49.87,133.12 41.21,133.2 41.21,124.87 	"/>
	<path class="st14" d="M40.28,124.37"/>
	<polyline class="st8" points="49.87,124.79 48.88,124.22 40.17,124.3 	"/>
</g>
</svg>
