<!-- Generator: Adobe Illustrator 24.1.0, SVG Export Plug-In  -->
<svg version="1.1" xmlns="http://www.w3.org/2000/svg" xmlns:xlink="http://www.w3.org/1999/xlink" x="0px" y="0px" width="90px"
	 height="90px" viewBox="0 0 90 90" style="enable-background:new 0 0 90 90;" xml:space="preserve">
<style type="text/css">
	.st0{fill:#FFFFFF;}
</style>
<defs>
</defs>
<g transform="translate(0,-952.36218)">
	<path class="st0" d="M2.69,952.37c-1.53,0.16-2.7,1.46-2.69,3v84c0,1.66,1.34,3,3,3h84c1.66,0,3-1.34,3-3v-42
		c0.02-1.66-1.3-3.02-2.96-3.04s-3.02,1.3-3.04,2.96c0,0.03,0,0.06,0,0.08v39H6v-78h39c1.66,0.02,3.02-1.3,3.04-2.96
		s-1.3-3.02-2.96-3.04c-0.03,0-0.06,0-0.08,0H3C2.9,952.36,2.79,952.36,2.69,952.37z M60.69,952.37c-1.66,0.08-2.94,1.49-2.85,3.15
		c0.08,1.66,1.49,2.93,3.15,2.85c0.01,0,0.01,0,0.02,0h18.75l-42.88,42.87c-1.17,1.17-1.17,3.08,0,4.25c1.17,1.17,3.08,1.17,4.25,0
		l0,0L84,962.62v18.75c-0.02,1.66,1.3,3.02,2.96,3.04s3.02-1.3,3.04-2.96c0-0.03,0-0.06,0-0.08v-26c0-1.66-1.34-3-3-3H61
		C60.9,952.36,60.79,952.36,60.69,952.37L60.69,952.37z"/>
</g>
</svg>
