<!-- Generator: Adobe Illustrator 24.1.0, SVG Export Plug-In  -->
<svg version="1.1" xmlns="http://www.w3.org/2000/svg" xmlns:xlink="http://www.w3.org/1999/xlink" x="0px" y="0px"
	 width="177.79px" height="178.72px" viewBox="0 0 177.79 178.72" style="enable-background:new 0 0 177.79 178.72;"
	 xml:space="preserve">
<style type="text/css">
	.st0{fill:#AEAEAF;stroke:#231F20;stroke-width:0.5;stroke-miterlimit:10;}
	.st1{fill:none;stroke:#231F20;stroke-width:0.5;stroke-miterlimit:10;}
	.st2{fill:#D7D8D8;stroke:#231F20;stroke-width:0.5;stroke-miterlimit:10;}
	.st3{fill:#C7C6C6;stroke:#231F20;stroke-width:0.5;stroke-miterlimit:10;}
	.st4{fill:#699DAC;stroke:#231F20;stroke-width:0.5;stroke-miterlimit:10;}
	.st5{fill:#9CC1CC;stroke:#231F20;stroke-width:0.5;stroke-miterlimit:10;}
	.st6{fill:#88B9C9;stroke:#231F20;stroke-width:0.5;stroke-miterlimit:10;}
	.st7{fill:#A5A4A4;stroke:#231F20;stroke-width:0.5;stroke-miterlimit:10;}
	.st8{fill:none;stroke:#231F20;stroke-width:0.25;stroke-miterlimit:10;}
	.st9{fill:none;stroke:#231F20;stroke-width:0.3571;stroke-miterlimit:10;}
	.st10{fill:#699DAC;stroke:#231F20;stroke-width:0.25;stroke-miterlimit:10;}
	.st11{fill:#88B9C9;stroke:#231F20;stroke-width:0.25;stroke-miterlimit:10;}
	.st12{fill:#D7D8D8;stroke:#231F20;stroke-width:0.25;stroke-miterlimit:10;}
	.st13{fill:#AEAEAF;stroke:#231F20;stroke-width:0.25;stroke-miterlimit:10;}
	.st14{fill:#C7C6C6;stroke:#231F20;stroke-width:0.249;stroke-miterlimit:10;}
</style>
<defs>
</defs>
<g>
	<polygon class="st0" points="24.59,22.99 24.59,175.13 0.72,157.49 0.72,5.35 	"/>
	<path class="st1" d="M24.59,22.99"/>
	<polygon class="st2" points="172.04,17.9 53.72,21.98 24.59,22.99 0.72,5.35 148.19,0.25 	"/>
	<polygon class="st3" points="53.72,130.46 53.72,174.25 24.59,175.13 24.59,131.47 	"/>
	<polygon class="st4" points="58.74,25.7 58.74,178.21 53.72,174.38 53.72,21.98 	"/>
	<polygon class="st5" points="177.06,21.61 58.74,25.7 53.72,21.98 172.04,17.9 	"/>
	<path class="st6" d="M58.74,25.7v152.52l118.33-3.83V21.61L58.74,25.7z M81.88,125.8l-14.85,0.51V90.76l14.85-0.52V125.8z"/>
	<polygon class="st7" points="81.88,91.74 81.88,124.51 72.44,120.76 72.44,94.75 	"/>
	<polygon class="st3" points="72.44,94.75 72.44,120.76 81.88,124.51 81.88,125.8 67.03,126.3 67.03,90.76 81.88,90.24 81.88,91.74 
			"/>
	<polygon class="st2" points="53.72,21.98 53.72,130.46 24.59,131.47 24.59,22.99 	"/>
	<line class="st1" x1="81.88" y1="126" x2="81.88" y2="125.8"/>
	<line class="st1" x1="67.03" y1="90.76" x2="67.03" y2="90.55"/>
	<path class="st1" d="M81.88,90.24"/>
	<polygon class="st3" points="49.56,37.62 49.56,63.45 28.75,64.16 28.75,38.35 	"/>
	<path class="st2" d="M28.68,64.16v51.67l20.81-0.72V63.45L28.68,64.16z M37.19,95.4h-0.93c-1.57,0-2.84-1.27-2.84-2.83
		s1.27-2.84,2.84-2.84h0.93c1.56,0,2.84,1.27,2.84,2.84S38.75,95.4,37.19,95.4z M37.19,84.42h-0.93c-1.57,0-2.84-1.27-2.84-2.83
		c0-1.57,1.27-2.84,2.84-2.84h0.93c1.56,0,2.84,1.27,2.84,2.84C40.02,83.16,38.75,84.42,37.19,84.42z M37.19,73.44h-0.93
		c-1.57,0-2.84-1.27-2.84-2.84s1.27-2.83,2.84-2.83h0.93c1.56,0,2.84,1.27,2.84,2.83S38.75,73.44,37.19,73.44z"/>
	<path class="st8" d="M40.09,70.61c0,1.56-1.27,2.84-2.84,2.84h-0.93v-0.16c-1.11-0.39-1.9-1.44-1.9-2.68c0-1.24,0.79-2.29,1.9-2.67
		v-0.16h0.93C38.82,67.78,40.09,69.04,40.09,70.61z"/>
	<path class="st9" d="M40.09,92.57c0,1.56-1.27,2.83-2.84,2.83h-0.93v-0.16c-1.11-0.38-1.9-1.43-1.9-2.67s0.79-2.29,1.9-2.68v-0.16
		h0.93C38.82,89.73,40.09,91.01,40.09,92.57z"/>
	<path class="st9" d="M40.09,81.59c0,1.56-1.27,2.83-2.84,2.83h-0.93v-0.16c-1.11-0.38-1.9-1.43-1.9-2.67s0.79-2.3,1.9-2.68v-0.16
		h0.93C38.82,78.75,40.09,80.02,40.09,81.59z"/>
	<path class="st10" d="M34.42,70.61c0,1.24,0.79,2.29,1.9,2.68v0.16c-1.57,0-2.84-1.27-2.84-2.84s1.27-2.83,2.84-2.83v0.16
		C35.22,68.32,34.42,69.37,34.42,70.61z"/>
	<path class="st4" d="M36.32,67.93v5.35c-1.11-0.39-1.9-1.44-1.9-2.68C34.42,69.37,35.22,68.32,36.32,67.93z"/>
	<path class="st11" d="M40.09,70.61c0,1.56-1.27,2.84-2.84,2.84c-0.32,0-0.64-0.06-0.93-0.16c-1.11-0.39-1.9-1.44-1.9-2.68
		c0-1.24,0.79-2.29,1.9-2.67c0.29-0.1,0.61-0.16,0.93-0.16C38.82,67.78,40.09,69.04,40.09,70.61z"/>
	<path class="st10" d="M34.42,81.59c0,1.24,0.79,2.29,1.9,2.67v0.16c-1.57,0-2.84-1.27-2.84-2.83c0-1.57,1.27-2.84,2.84-2.84v0.16
		C35.22,79.3,34.42,80.35,34.42,81.59z"/>
	<path class="st4" d="M36.32,78.91v5.35c-1.11-0.38-1.9-1.43-1.9-2.67S35.22,79.3,36.32,78.91z"/>
	<path class="st11" d="M40.09,81.59c0,1.56-1.27,2.83-2.84,2.83c-0.32,0-0.64-0.06-0.93-0.16c-1.11-0.38-1.9-1.43-1.9-2.67
		s0.79-2.3,1.9-2.68c0.29-0.1,0.61-0.16,0.93-0.16C38.82,78.75,40.09,80.02,40.09,81.59z"/>
	<path class="st10" d="M34.42,92.57c0,1.24,0.79,2.29,1.9,2.67v0.16c-1.57,0-2.84-1.27-2.84-2.83s1.27-2.84,2.84-2.84v0.16
		C35.22,90.28,34.42,91.33,34.42,92.57z"/>
	<path class="st4" d="M36.32,89.89v5.35c-1.11-0.38-1.9-1.43-1.9-2.67S35.22,90.28,36.32,89.89z"/>
	<path class="st11" d="M40.09,92.57c0,1.56-1.27,2.83-2.84,2.83c-0.32,0-0.64-0.06-0.93-0.16c-1.11-0.38-1.9-1.43-1.9-2.67
		s0.79-2.29,1.9-2.68c0.29-0.1,0.61-0.16,0.93-0.16C38.82,89.73,40.09,91.01,40.09,92.57z"/>
	<polygon class="st12" points="34.42,103.97 34.42,110.91 33.65,110.49 33.65,103.56 	"/>
	<polygon class="st13" points="41.63,103.91 41.63,110.84 34.42,110.91 34.42,103.97 	"/>
	<path class="st14" d="M33.65,103.56"/>
	<polyline class="st8" points="41.63,103.91 40.8,103.43 33.56,103.5 	"/>
</g>
</svg>
