<!-- Generator: Adobe Illustrator 24.1.0, SVG Export Plug-In  -->
<svg version="1.1" xmlns="http://www.w3.org/2000/svg" xmlns:xlink="http://www.w3.org/1999/xlink" x="0px" y="0px"
	 width="102.79px" height="81.95px" viewBox="0 0 102.79 81.95" style="enable-background:new 0 0 102.79 81.95;"
	 xml:space="preserve">
<style type="text/css">
	.st0{opacity:0.9;fill:#EEF7F8;}
	.st1{fill:none;stroke:#2B2523;stroke-width:0.2073;stroke-linecap:round;stroke-miterlimit:10;}
	.st2{fill:#F7FCFD;}
	.st3{fill:none;stroke:#2B2523;stroke-width:0.2073;stroke-miterlimit:10;}
	.st4{fill:#E9C289;stroke:#2B2523;stroke-width:0.2073;stroke-miterlimit:10;}
	.st5{fill:#EEB066;stroke:#2B2523;stroke-width:0.2084;stroke-miterlimit:10;}
	.st6{fill:#EEB066;stroke:#2B2523;stroke-width:0.2073;stroke-miterlimit:10;}
	.st7{fill:#D0CED0;}
	.st8{fill:none;stroke:#2B2523;stroke-width:0.2612;stroke-miterlimit:10;}
	.st9{fill:none;stroke:#2B2523;stroke-width:0.233;stroke-linecap:round;stroke-miterlimit:10;}
	.st10{opacity:0.61;fill:#D0CED0;}
	.st11{fill:#FCFCFD;stroke:#CCCCCC;stroke-width:0.3902;stroke-miterlimit:10;}
</style>
<defs>
</defs>
<g>
	<path class="st0" d="M90.27,41.87c0,1.85-4.44,3.36-9.9,3.36c-5.47,0-9.91-1.5-9.91-3.36c0-1.86,4.44-3.36,9.91-3.36
		C85.84,38.51,90.27,40.01,90.27,41.87z"/>
	<path class="st0" d="M90.27,41.87v9.61c0,1.27-0.32,2.52-0.94,3.64l-8.16,14.72c-0.25,0.48-0.93,0.48-1.19,0.01l-8.75-15.15
		c-0.51-0.88-0.78-1.88-0.78-2.9v-9.92c0,1.85,4.44,3.36,9.91,3.36C85.84,45.23,90.27,43.72,90.27,41.87z"/>
</g>
<g>
	<path class="st0" d="M62.83,44.44c0,1.85-4.44,3.36-9.9,3.36c-5.47,0-9.91-1.5-9.91-3.36c0-1.86,4.44-3.36,9.91-3.36
		C58.4,41.08,62.83,42.59,62.83,44.44z"/>
	<path class="st0" d="M62.83,44.44v9.61c0,1.27-0.32,2.52-0.94,3.64l-8.16,14.72c-0.25,0.48-0.93,0.48-1.19,0.01L43.8,57.27
		c-0.51-0.88-0.78-1.88-0.78-2.9v-9.92c0,1.85,4.44,3.36,9.91,3.36C58.4,47.8,62.83,46.3,62.83,44.44z"/>
</g>
<g>
	<path class="st0" d="M35.61,47.06c0,1.85-4.44,3.36-9.9,3.36c-5.47,0-9.91-1.5-9.91-3.36c0-1.86,4.44-3.36,9.91-3.36
		C31.18,43.7,35.61,45.2,35.61,47.06z"/>
	<path class="st0" d="M35.61,47.06v9.61c0,1.27-0.32,2.52-0.94,3.64l-8.16,14.72c-0.25,0.48-0.93,0.48-1.19,0.01l-8.75-15.15
		C16.07,59,15.8,58,15.8,56.98v-9.92c0,1.85,4.44,3.36,9.91,3.36C31.18,50.42,35.61,48.91,35.61,47.06z"/>
</g>
<path class="st1" d="M29.56,60.74c-1.26,0.17-2.64,0.27-4.09,0.27c-4.04,0-7.57-0.75-9.43-1.86"/>
<path class="st2" d="M15.97,49.62v10.69c0,0.37,0.09,0.74,0.26,1.07l9.4,14.52l-8.27-14.58c-0.13-0.29-0.2-0.61-0.2-0.94
	l-0.03-10.88"/>
<path class="st3" d="M15.26,49.69v6.97c0,1.43,0.38,2.83,1.09,4.07l8.52,14.72c0.49,0.85,1.73,0.84,2.2-0.03l8-14.62
	c0.71-1.29,1.07-2.73,1.07-4.2v-8.55"/>
<text transform="matrix(1 0 0 1 25.7085 48.8191)" style="fill:#13110C; font-family:'Bahnschrift'; font-size:3.3161px;">1.0</text>
<path class="st4" d="M36.56,39.42c0,0.19-0.04,0.37-0.12,0.55c-0.8-1.77-5.29-3.12-10.72-3.12c-5.44,0-9.94,1.36-10.72,3.13
	c-0.08-0.18-0.12-0.37-0.12-0.56c0-2.03,4.86-3.68,10.85-3.68S36.56,37.39,36.56,39.42z"/>
<path class="st4" d="M63.61,36.89c0,0.19-0.04,0.37-0.12,0.55c-0.8-1.77-5.29-3.12-10.72-3.12c-5.43,0-9.94,1.36-10.72,3.12
	c-0.08-0.18-0.12-0.36-0.12-0.56c0-2.03,4.86-3.68,10.85-3.68C58.75,33.21,63.61,34.86,63.61,36.89z"/>
<path class="st3" d="M37.87,43.98c0,0,0-0.01-0.01-0.01v0"/>
<path class="st3" d="M16.42,43.97c-0.01,0.02-0.02,0.04-0.03,0.06"/>
<g>
	<polygon class="st5" points="101.31,73.99 83.85,61.64 83.6,43.43 83.59,41.75 83.59,41.73 83.54,38.33 83.44,31.3 83.37,25.95 
		99.41,40.25 99.42,40.25 99.43,40.26 101.1,41.75 	"/>
	<polygon class="st6" points="18.7,47.85 18.7,81.74 0.25,68.12 0.25,34.11 	"/>
	<polygon class="st4" points="102.3,39.98 102.68,73.86 101.31,73.98 101.03,41.8 19.86,49.42 19.86,81.74 18.7,81.74 18.7,47.85 	
		"/>
	<path class="st6" d="M83.4,25.93L0.28,34.1l18.45,13.74l64.86-6.11l15.82-1.48h0.01l2.91-0.28L83.4,25.93z M36.44,39.97
		c-0.02,0.02-0.02,0.06-0.04,0.08c-0.02,0.03-0.04,0.07-0.06,0.1c-0.02,0.05-0.06,0.1-0.09,0.14c-0.04,0.06-0.08,0.1-0.13,0.16
		c-0.33,0.38-0.85,0.75-1.51,1.06c-0.15,0.08-0.32,0.14-0.48,0.21c-0.08,0.04-0.16,0.07-0.24,0.1c-0.04,0.02-0.08,0.02-0.11,0.05
		c-0.2,0.07-0.4,0.14-0.62,0.21c-0.11,0.04-0.23,0.07-0.35,0.1c-0.09,0.02-0.17,0.06-0.27,0.08c-0.1,0.02-0.18,0.05-0.28,0.07
		c-0.69,0.18-1.44,0.33-2.25,0.45c-0.14,0.02-0.29,0.04-0.44,0.06c-0.2,0.02-0.4,0.06-0.61,0.07c-0.17,0.02-0.34,0.04-0.51,0.06
		c-0.02,0-0.04,0-0.06,0.01c-0.17,0.01-0.35,0.02-0.52,0.03c-0.06,0.01-0.11,0.01-0.17,0.02c-0.21,0.01-0.43,0.02-0.65,0.03
		c-0.25,0.01-0.49,0.02-0.74,0.02h-0.3c-0.1,0.01-0.2,0.01-0.29,0.01c-5.44,0-9.94-1.36-10.73-3.13c-0.08-0.18-0.12-0.37-0.12-0.56
		c0-2.03,4.86-3.67,10.85-3.67c5.99,0,10.84,1.64,10.84,3.67C36.56,39.61,36.52,39.79,36.44,39.97z M63.49,37.45
		c-0.8,1.77-5.29,3.12-10.73,3.12c-5.43,0-9.93-1.36-10.71-3.12c-0.09-0.18-0.13-0.37-0.13-0.56c0-2.03,4.86-3.68,10.84-3.68
		c5.99,0,10.85,1.65,10.85,3.68C63.6,37.08,63.57,37.27,63.49,37.45z M80.3,38.5c-5.43,0-9.93-1.36-10.72-3.12
		c-0.09-0.18-0.13-0.37-0.13-0.56c0-2.03,4.86-3.67,10.85-3.67c1.1,0,2.15,0.06,3.14,0.16l0.1,7.03
		C82.52,38.44,81.43,38.5,80.3,38.5z"/>
</g>
<path class="st3" d="M83.54,38.33c-1.02,0.11-2.11,0.17-3.24,0.17c-5.43,0-9.93-1.36-10.72-3.12c-0.09-0.18-0.13-0.37-0.13-0.56
	c0-2.03,4.86-3.67,10.85-3.67c1.1,0,2.15,0.06,3.14,0.16L83.54,38.33z"/>
<path class="st3" d="M91.14,34.81c0,0.19-0.04,0.37-0.12,0.56c-0.63,1.4-3.58,2.55-7.48,2.96l-0.1-7.03
	C87.9,31.75,91.14,33.16,91.14,34.81z"/>
<path class="st3" d="M63.6,36.89c0,0.19-0.04,0.37-0.12,0.56c-0.8,1.77-5.29,3.12-10.73,3.12c-5.43,0-9.93-1.36-10.71-3.12
	c-0.09-0.18-0.13-0.37-0.13-0.56c0-2.03,4.86-3.68,10.84-3.68C58.75,33.21,63.6,34.86,63.6,36.89z"/>
<path class="st3" d="M36.56,39.42c0,0.19-0.04,0.37-0.12,0.56c-0.02,0.02-0.02,0.06-0.04,0.08c-0.02,0.03-0.04,0.07-0.06,0.1
	c-0.02,0.05-0.06,0.1-0.09,0.14c-0.04,0.06-0.08,0.1-0.13,0.16c-0.33,0.38-0.85,0.75-1.51,1.06c-0.15,0.08-0.32,0.14-0.48,0.21
	c-0.08,0.04-0.16,0.07-0.24,0.1c-0.04,0.02-0.08,0.02-0.11,0.05c-0.2,0.07-0.4,0.14-0.62,0.21c-0.11,0.04-0.23,0.07-0.35,0.1
	c-0.09,0.02-0.17,0.06-0.27,0.08c-0.1,0.02-0.18,0.05-0.28,0.07c-0.69,0.18-1.44,0.33-2.25,0.45c-0.14,0.02-0.29,0.04-0.44,0.06
	c-0.2,0.02-0.4,0.06-0.61,0.07c-0.17,0.02-0.34,0.04-0.51,0.06c-0.02,0-0.04,0-0.06,0.01c-0.17,0.01-0.35,0.02-0.52,0.03
	c-0.06,0.01-0.11,0.01-0.17,0.02c-0.21,0.01-0.43,0.02-0.65,0.03c-0.25,0.01-0.49,0.02-0.74,0.02h-0.3c-0.1,0.01-0.2,0.01-0.29,0.01
	c-5.44,0-9.94-1.36-10.73-3.13c-0.08-0.18-0.12-0.37-0.12-0.56c0-2.03,4.86-3.67,10.85-3.67C31.71,35.74,36.56,37.39,36.56,39.42z"
	/>
<path class="st2" d="M21.45,49.11v9.23c0,0.2,0.03,0.4,0.08,0.6l3.72,14.33l-2.7-14.41c-0.03-0.14-0.04-0.29-0.04-0.43v-9.27"/>
<path class="st7" d="M35.07,48.17v10.41c0,0.37-0.09,0.74,0.22-0.4l-9.02,17.63l7.41-16.22c0.13-0.29,0.2-0.61,0.2-0.94l0-10.49"/>
<path class="st8" d="M9.17,71.54c0,0,1.18,0.14,2.25,0.04"/>
<path class="st8" d="M18.75,71.46c0,0,1,0.1,2.06,0"/>
<path class="st3" d="M22.21,64.89c0,0,3.52,0.41,6.61,0"/>
<path class="st3" d="M22.21,51.28c0,0,3.52,0.41,6.61,0"/>
<path class="st3" d="M21.22,56.51c0,0,0.94,0.13,1.78,0.08"/>
<path class="st3" d="M28.64,56.56c0,0,0.79,0.01,1.63-0.14"/>
<text transform="matrix(1 0 0 1 23.5754 57.7478)" style="fill:#13110C; font-family:'Bahnschrift'; font-size:3.3161px;">0.5</text>
<text transform="matrix(1 0 0 1 24.1628 70.6262)" style="fill:#13110C; font-family:'Bahnschrift'; font-size:3.3161px;">0.1</text>
<path class="st1" d="M35.39,58.82c-0.75,0.57-1.91,1.07-3.37,1.44"/>
<path class="st9" d="M34.49,56.59c-0.9-0.41-2.17-0.76-3.68-1"/>
<path class="st4" d="M91.14,34.77c0,0.19-0.04,0.37-0.12,0.56c-0.79-1.77-5.29-3.12-10.72-3.12c-5.43,0-9.93,1.35-10.72,3.12
	c-0.08-0.18-0.12-0.36-0.12-0.56c0-2.03,4.85-3.68,10.84-3.68C86.29,31.09,91.14,32.74,91.14,34.77z"/>
<path class="st3" d="M50.38,26.26c0,0,3.52,0.41,6.61,0"/>
<path class="st1" d="M56.77,58.13c-1.26,0.17-2.64,0.27-4.09,0.27c-4.04,0-7.57-0.75-9.43-1.86"/>
<path class="st2" d="M43.18,47.23V57.7c0,0.37,0.09,0.74,0.26,1.07l9.4,14.52l-8.27-14.58c-0.13-0.29-0.2-0.61-0.2-0.94l-0.03-10.66
	"/>
<path class="st3" d="M42.48,47.3v6.74c0,1.43,0.38,2.83,1.09,4.07l8.52,14.72c0.49,0.85,1.73,0.84,2.2-0.03l8-14.62
	c0.71-1.29,1.07-2.73,1.07-4.2v-8.55"/>
<path class="st2" d="M48.67,46.81v9.23c0,0.2,0.03,0.4,0.08,0.6l3.72,14.33l-2.7-14.41c-0.03-0.14-0.04-0.29-0.04-0.43l-0.01-9.38"
	/>
<path class="st7" d="M62.28,45.56v10.41c0,0.37-0.09,0.74,0.22-0.4L53.49,73.2l7.41-16.22c0.13-0.29,0.2-0.61,0.2-0.94l0-10.34"/>
<path class="st3" d="M48.44,66.37c0,0,0.94,0.11,1.79,0.03"/>
<path class="st3" d="M56.04,66.31c0,0,0.79,0.08,1.64,0"/>
<path class="st3" d="M49.43,62.28c0,0,3.52,0.41,6.61,0"/>
<path class="st3" d="M49.43,48.67c0,0,3.52,0.41,6.61,0"/>
<path class="st3" d="M48.44,53.9c0,0,0.94,0.13,1.78,0.08"/>
<path class="st3" d="M55.86,53.95c0,0,0.79,0.01,1.63-0.14"/>
<text transform="matrix(1 0 0 1 50.7929 55.135)" style="fill:#13110C; font-family:'Bahnschrift'; font-size:3.3161px;">0.5</text>
<text transform="matrix(1 0 0 1 51.3803 68.0139)" style="fill:#13110C; font-family:'Bahnschrift'; font-size:3.3161px;">0.1</text>
<path class="st1" d="M62.6,56.2c-0.75,0.57-1.91,1.07-3.37,1.44"/>
<path class="st9" d="M61.71,53.97c-0.9-0.41-2.17-0.76-3.68-1"/>
<path class="st1" d="M84.22,55.55c-1.26,0.17-2.64,0.27-4.09,0.27c-4.04,0-7.57-0.75-9.43-1.86"/>
<path class="st2" d="M70.63,44.66v10.47c0,0.37,0.09,0.74,0.26,1.07l9.4,14.52l-8.27-14.58c-0.13-0.29-0.2-0.61-0.2-0.94
	l-0.03-10.66"/>
<path class="st3" d="M69.92,44.72v6.74c0,1.43,0.38,2.83,1.09,4.07l8.52,14.72c0.49,0.85,1.73,0.84,2.2-0.03l8-14.62
	c0.71-1.29,1.07-2.73,1.07-4.2v-8.55"/>
<path class="st2" d="M76.11,44.23v9.23c0,0.2,0.03,0.4,0.08,0.6L79.9,68.4l-2.7-14.41c-0.03-0.14-0.04-0.29-0.04-0.43l-0.01-9.38"/>
<path class="st7" d="M89.73,42.98v10.41c0,0.37-0.09,0.74,0.22-0.4l-9.02,17.63l7.41-16.22c0.13-0.29,0.2-0.61,0.2-0.94l0-10.34"/>
<path class="st3" d="M75.88,63.79c0,0,0.94,0.11,1.79,0.03"/>
<path class="st3" d="M83.48,63.73c0,0,0.79,0.08,1.64,0"/>
<path class="st3" d="M76.87,59.7c0,0,3.52,0.41,6.61,0"/>
<path class="st3" d="M75.88,51.33c0,0,0.94,0.13,1.78,0.08"/>
<path class="st3" d="M83.3,51.37c0,0,0.79,0.01,1.63-0.14"/>
<text transform="matrix(1 0 0 1 78.2363 52.5594)" style="fill:#13110C; font-family:'Bahnschrift'; font-size:3.3161px;">0.5</text>
<text transform="matrix(1 0 0 1 78.8237 65.4378)" style="fill:#13110C; font-family:'Bahnschrift'; font-size:3.3161px;">0.1</text>
<path class="st1" d="M90.05,53.63c-0.75,0.57-1.91,1.07-3.37,1.44"/>
<path class="st9" d="M89.15,51.4c-0.9-0.41-2.17-0.76-3.68-1"/>
<path class="st2" d="M22.57,42.89V23.13c0,0-0.38,0.01-1.05-0.07v19.73"/>
<path class="st2" d="M17.22,41.69V18.92c0,0-0.62,0.78-1.18,0.49v21.66"/>
<path class="st10" d="M33.95,41.75l0-19.49c0,0,0.68-0.09,1.18-0.33v19.24"/>
<line class="st3" x1="36.22" y1="40.39" x2="36.22" y2="19.33"/>
<line class="st3" x1="15.33" y1="18.87" x2="15.33" y2="40.62"/>
<path class="st3" d="M23.26,28.86c0,0,3.52,0.41,6.61,0"/>
<path class="st10" d="M36.12,20.37c0,0-5.74,2.3-12.59,0.98c0,0,7.14,0.81,12.59-1.84L36.12,20.37z"/>
<path class="st11" d="M36.28,29.65v9.27c0,1.03-4.7,1.87-10.5,1.87c-5.8,0-10.5-0.84-10.5-1.87v-9.27c0,1.03,4.71,1.87,10.5,1.87
	C31.58,31.52,36.28,30.68,36.28,29.65z"/>
<path class="st2" d="M49.69,40.29V20.53c0,0-0.38,0.01-1.05-0.07v19.73"/>
<path class="st2" d="M44.33,39.09V16.32c0,0-0.62,0.78-1.18,0.49v21.66"/>
<path class="st7" d="M61.07,39.15l0-19.49c0,0,0.68-0.09,1.18-0.33v19.24"/>
<path class="st2" d="M77.16,38.22V18.46c0,0-0.38,0.01-1.05-0.07v19.73"/>
<path class="st2" d="M71.81,37.02V14.25c0,0-0.62,0.78-1.18,0.49V36.4"/>
<path class="st10" d="M88.55,37.08l0-19.49c0,0,0.68-0.09,1.18-0.33V36.5"/>
<path class="st3" d="M77.86,24.19c0,0,3.52,0.41,6.61,0"/>
<path class="st11" d="M90.87,24.98v9.27c0,1.03-4.7,1.87-10.5,1.87c-5.8,0-10.5-0.84-10.5-1.87v-9.27c0,1.03,4.71,1.87,10.5,1.87
	C86.17,26.85,90.87,26.01,90.87,24.98z"/>
<path class="st7" d="M63.23,17.77c0,0-5.74,2.3-12.59,0.98c0,0,7.14,0.81,12.59-1.84L63.23,17.77z"/>
<path class="st3" d="M39.4,15.56c0,3.21-5.92,5.8-13.22,5.8s-13.22-2.6-13.22-5.8"/>
<line class="st3" x1="12.96" y1="14.93" x2="12.96" y2="15.56"/>
<line class="st3" x1="39.4" y1="11.3" x2="39.4" y2="13.8"/>
<path class="st3" d="M35.64,6.52c-2.4-1.08-5.75-1.75-9.46-1.75c-5.79,0-10.71,1.63-12.5,3.91c-0.04,0.05-0.09,0.08-0.16,0.08
	c-0.62,0-3.9,0-3.9,0v3.67h3.89c0.09,0,0.17,0.04,0.22,0.11c1.83,2.24,6.71,3.84,12.44,3.84c7.3,0,13.22-2.6,13.22-5.8
	C39.4,9,37.97,7.57,35.64,6.52z"/>
<path class="st3" d="M39.4,13.07c0,3.21-5.92,5.8-13.22,5.8c-5.74,0-10.62-1.6-12.45-3.85c-0.05-0.06-0.12-0.1-0.2-0.1h-3.9v-2.5"/>
<line class="st3" x1="39.4" y1="13.01" x2="39.4" y2="15.51"/>
<ellipse class="st3" cx="26.18" cy="10.58" rx="7.51" ry="2.78"/>
<path class="st3" d="M39.95,16.13c-0.18,0.04-0.36,0.06-0.55,0.06v-0.95c0.96,0,1.73-0.77,1.73-1.73s-0.77-1.73-1.73-1.73v-0.95
	c1.48,0,2.68,1.2,2.68,2.68C42.08,14.8,41.17,15.88,39.95,16.13z"/>
<path class="st3" d="M40.38,12.76"/>
<path class="st3" d="M38.19,8.14c1.13,0,2.22,0.7,2.61,1.69c0.21,0.53,1.06,2.6,1.06,2.6"/>
<path class="st3" d="M39.4,12.17c0.13-0.1,0.24-0.23,0.33-0.36"/>
<path class="st3" d="M43.06,13.77"/>
<path class="st3" d="M18.79,11.07c0.63-1.3,3.7-2.28,7.39-2.28c3.69,0,6.76,0.98,7.39,2.28"/>
<path class="st2" d="M38.34,9.67c-0.65,2.89-5.55,5.09-12.34,5.09c-6.32,0-10.67-2.4-11.97-5c0.34,3.07,5.74,5.67,12.81,5.67
	C33.62,15.43,37.79,12.64,38.34,9.67"/>
<path class="st3" d="M94,10.89c0,3.21-5.92,5.8-13.22,5.8c-5.75,0-10.65-1.61-12.46-3.87"/>
<path class="st3" d="M67.56,10.89"/>
<line class="st3" x1="94" y1="6.63" x2="94" y2="9.13"/>
<line class="st3" x1="90.82" y1="35.72" x2="90.82" y2="14.67"/>
<line class="st3" x1="69.92" y1="14.2" x2="69.92" y2="35.95"/>
<path class="st3" d="M68.11,7.76c0.09,0,0.17,0.04,0.22,0.11c1.83,2.24,6.71,3.84,12.44,3.84c7.3,0,13.22-2.6,13.22-5.8
	c0-1.58-1.43-3.01-3.76-4.05c-2.4-1.08-5.75-1.75-9.46-1.75c-5.79,0-10.71,1.63-12.5,3.91c-0.04,0.05-0.09,0.08-0.16,0.08
	c-0.62,0-3.9,0-3.9,0v0.65"/>
<path class="st3" d="M64.22,4.68"/>
<path class="st3" d="M94,8.4c0,3.21-5.92,5.8-13.22,5.8c-5.01,0-9.37-1.22-11.61-3.03"/>
<line class="st3" x1="94" y1="8.34" x2="94" y2="10.84"/>
<ellipse class="st3" cx="80.78" cy="5.91" rx="7.51" ry="2.78"/>
<path class="st3" d="M94.54,11.46c-0.18,0.04-0.36,0.06-0.55,0.06v-0.95c0.96,0,1.73-0.77,1.73-1.73S94.95,7.1,94,7.1V6.16
	c1.48,0,2.68,1.2,2.68,2.68C96.68,10.13,95.76,11.21,94.54,11.46z"/>
<path class="st3" d="M94.98,8.09"/>
<path class="st3" d="M92.9,3.48c1.13,0,2.1,0.7,2.49,1.69c0.21,0.53,1.06,2.6,1.06,2.6"/>
<path class="st3" d="M94,7.5c0.13-0.1,0.24-0.23,0.33-0.36"/>
<path class="st3" d="M97.66,9.11"/>
<path class="st3" d="M73.38,6.4c0.63-1.3,3.7-2.28,7.39-2.28c3.69,0,6.76,0.98,7.39,2.28"/>
<path class="st10" d="M90.71,15.7c0,0-5.74,2.3-12.59,0.98c0,0,7.14,0.81,12.59-1.84L90.71,15.7z"/>
<path class="st2" d="M92.93,5c-0.65,2.89-5.55,5.09-12.34,5.09c-6.32,0-10.67-2.4-11.97-5c0.34,3.07,5.74,5.67,12.81,5.67
	C88.22,10.76,92.38,7.97,92.93,5"/>
<path class="st3" d="M66.52,12.96c0,3.21-5.92,5.8-13.22,5.8c-5.34,0-9.94-1.39-12.03-3.39"/>
<line class="st3" x1="66.52" y1="8.7" x2="66.52" y2="11.2"/>
<path class="st3" d="M40.86,9.94c1.83,2.24,6.71,3.84,12.44,3.84c7.3,0,13.22-2.6,13.22-5.8c0-1.58-1.43-3.01-3.76-4.05
	c-2.4-1.08-5.75-1.75-9.46-1.75c-5.79,0-10.71,1.63-12.5,3.91c-0.04,0.05-0.09,0.08-0.16,0.08c-0.62,0-3.9,0-3.9,0v0.95"/>
<line class="st3" x1="66.52" y1="10.41" x2="66.52" y2="12.91"/>
<ellipse class="st3" cx="53.3" cy="7.98" rx="7.51" ry="2.78"/>
<path class="st3" d="M67.06,13.53c-0.18,0.04-0.36,0.06-0.55,0.06v-0.95c0.96,0,1.73-0.77,1.73-1.73s-0.77-1.73-1.73-1.73V8.22
	c1.48,0,2.68,1.2,2.68,2.68C69.2,12.2,68.28,13.28,67.06,13.53z"/>
<path class="st3" d="M67.5,10.16"/>
<path class="st3" d="M65.3,5.54c1.13,0,2.22,0.7,2.61,1.69c0.21,0.53,1.06,2.6,1.06,2.6"/>
<path class="st3" d="M66.52,9.57c0.13-0.1,0.24-0.23,0.33-0.36"/>
<path class="st3" d="M70.18,11.18"/>
<path class="st3" d="M45.91,8.47c0.63-1.3,3.7-2.28,7.39-2.28c3.69,0,6.76,0.98,7.39,2.28"/>
<path class="st2" d="M65.46,7.07c-0.65,2.89-5.55,5.09-12.34,5.09c-6.32,0-10.67-2.4-11.97-5c0.34,3.07,5.74,5.67,12.81,5.67
	C60.74,12.83,64.9,10.04,65.46,7.07"/>
<path class="st3" d="M66.52,10.6c0,3.21-5.92,5.8-13.22,5.8c-5.01,0-8.98-0.93-11.22-2.74"/>
<line class="st3" x1="63.34" y1="37.79" x2="63.34" y2="16.74"/>
<line class="st3" x1="42.44" y1="16.27" x2="42.44" y2="38.02"/>
<path class="st11" d="M63.4,27.05v9.27c0,1.03-4.7,1.87-10.5,1.87c-5.8,0-10.5-0.84-10.5-1.87v-9.27c0,1.03,4.71,1.87,10.5,1.87
	C58.69,28.92,63.4,28.08,63.4,27.05z"/>
</svg>
