<!-- Generator: Adobe Illustrator 24.1.0, SVG Export Plug-In  -->
<svg version="1.1" xmlns="http://www.w3.org/2000/svg" xmlns:xlink="http://www.w3.org/1999/xlink" x="0px" y="0px"
	 width="132.31px" height="273.34px" viewBox="0 0 132.31 273.34" style="enable-background:new 0 0 132.31 273.34;"
	 xml:space="preserve">
<style type="text/css">
	.st0{fill:none;stroke:#231F20;stroke-width:0.5;stroke-linecap:round;stroke-miterlimit:10;}
	.st1{fill:#231F20;}
	.st2{fill:#628EC4;stroke:#231F20;stroke-width:0.5;stroke-linecap:round;stroke-miterlimit:10;}
	.st3{fill:#4E79BC;stroke:#231F20;stroke-width:0.5;stroke-linecap:round;stroke-miterlimit:10;}
</style>
<defs>
</defs>
<g>
	<path class="st0" d="M130.64,259.94l-25.22-68.39c-0.14-0.37-0.11-0.78,0.07-1.13l5.96-11.62"/>
	<path class="st0" d="M86.89,187.89c0.51,1.27,6.48,0.07,13.34-2.69c6.86-2.76,12-6.02,11.49-7.29"/>
	<path class="st0" d="M120.89,263.86l-25.23-68.41c-0.13-0.37-0.36-0.69-0.67-0.93l-8.11-6.62l-4.22-12.15"/>
	<line class="st0" x1="111.72" y1="177.91" x2="107.99" y2="167.17"/>
	<path class="st0" d="M114.3,162.52c0.54,1.56-7.51,5.76-17.98,9.4s-19.39,5.31-19.93,3.76"/>
	<line class="st0" x1="76.39" y1="175.68" x2="27.55" y2="39.81"/>
	<line class="st0" x1="114.3" y1="162.52" x2="73.8" y2="40.7"/>
	
		<rect x="57.88" y="117.03" transform="matrix(0.3278 0.9448 -0.9448 0.3278 163.2282 12.6506)" class="st1" width="29.69" height="8"/>
	<path class="st0" d="M30.49,29.57"/>
	<path class="st2" d="M44.69,11.15c-2.01,0.89-4.6,1.86-7.48,2.75c-2.74,0.85-5.33,1.51-7.44,1.91c-3.05,0.59-5.12,0.65-5.3,0.06
		l-2.38-7.67c0.31,0.99,6.02,0.11,12.74-1.97c6.72-2.09,11.93-4.58,11.63-5.58l2.37,7.67C49,8.9,47.37,9.96,44.69,11.15z"/>
	<path class="st0" d="M49.42,24.42"/>
	<path class="st0" d="M41.38,27.71c-4.22,0.92-7.8,1.02-7.97,0.21l-3.64-12.11c2.11-0.4,4.69-1.06,7.44-1.91
		c2.88-0.89,5.47-1.86,7.48-2.75l4.04,13.43C48.9,25.38,45.61,26.79,41.38,27.71z"/>
	<path class="st3" d="M34.82,6.23C28.1,8.31,22.39,9.2,22.09,8.21c-0.31-0.99,4.89-3.49,11.63-5.58c6.72-2.09,12.43-2.96,12.74-1.97
		C46.76,1.65,41.55,4.15,34.82,6.23z"/>
	<path class="st0" d="M26.73,25.13"/>
	<path class="st0" d="M28.55,27.71"/>
	<path class="st0" d="M27.84,26.01c0.46-0.59,2.02-1.25,4.36-1.91"/>
	<path class="st0" d="M71.79,42.35c1.24-0.62,1.97-1.2,2.01-1.65c0.01-0.04,0-0.09-0.01-0.13c-0.12-0.49-1.11-0.71-2.81-0.67"/>
	<path class="st0" d="M52.88,24.77c0-0.01-0.01-0.03-0.01-0.03"/>
	<path class="st2" d="M67.02,27.76c-0.67,0.19-1.36,0.36-2.08,0.54c-4.38,1.04-8.2,1.51-10.23,1.31c-1-2.64-1.74-4.6-1.83-4.83
		c0.86,0.2,2.35,0.2,4.23-0.01c1.91-0.21,4.22-0.62,6.7-1.21c6.25-1.49,11.08-3.61,10.81-4.73l1.14,4.74
		C75.99,24.56,72.22,26.32,67.02,27.76z"/>
	<path class="st2" d="M71.79,42.35c-1.95,0.98-5.14,2.08-8.82,2.95c-0.73,0.18-1.45,0.34-2.15,0.48c-0.02-0.08-3.77-9.99-6.11-16.18
		c2.03,0.21,5.85-0.26,10.23-1.31c0.72-0.17,1.41-0.35,2.08-0.54l3.97,12.15L71.79,42.35z"/>
	<path class="st1" d="M132.25,269.61c-0.38-1.09-2.54-7.31-2.54-7.31l-0.02,0.01c-0.72,0.71-1.75,1.39-3,1.89
		c-1.39,0.56-2.74,0.78-3.8,0.7l-0.01,0c0,0,2.6,7.49,2.66,7.66c0.65,0.87,2.37,1.04,4.07,0.36
		C131.43,272.18,132.59,270.73,132.25,269.61z"/>
	<path class="st0" d="M120.88,263.88c0.51,1.27,3.11,1.43,5.8,0.34c2.69-1.08,4.46-2.99,3.95-4.26"/>
	<path class="st3" d="M63.8,23.55c-2.48,0.59-4.79,1-6.7,1.21c-1.88,0.21-3.37,0.21-4.23,0.01c-0.02-0.01-0.03,0-0.04-0.01
		c0.01,0,0.02-0.01,0.03-0.02c0.93-0.49,1.44-0.95,1.42-1.31c0.01-0.02,0.01-0.04,0-0.07l-0.2-0.94l0.01,0
		c1.96-0.96,5.11-2.03,8.74-2.91c6.24-1.5,11.52-1.8,11.78-0.68C74.88,19.95,70.05,22.06,63.8,23.55z"/>
	<path class="st3" d="M2.94,41.82c1.24-1.93,3.04-3.99,5.63-6.02c1.34-1.05,2.88-1.82,4.53-2.26c0,0,10.05-2.67,13.8-3.67
		c0.86-0.23,1.4-0.37,1.4-0.37c0.08-0.24,0.15-0.48,0.15-0.48c0.22-0.71,0.43-2.21-1.05-3.48c-0.37-0.32-0.9-0.41-1.37-0.27
		l-12.67,3.81c-1.18,0.35-2.31,0.87-3.32,1.57c-8.6,5.9-7.21,11.03-7.21,11.03s0.02,0.09,0.07,0.24C2.9,41.88,2.92,41.85,2.94,41.82
		"/>
	<path class="st0" d="M47.83,21.56"/>
	<path class="st0" d="M47.75,21.39c3.63-0.41,6.04-0.22,6.2,0.52l0.26,1.21c0.25,1.15-5.72,3.93-12.76,5.47
		c-4.7,1.02-8.42,0.89-10.79,0.76l-2-0.07"/>
	<path class="st0" d="M2.88,41.91c-3.24,5.26-2.58,9.78-2.58,9.78c0.43,2.38,1.86,2.03,2.66,1.62c0.36-0.18,0.59-0.54,0.65-0.93
		c1.06-6.67,4.58-10.27,7.22-12.08c1.84-1.26,3.96-1.96,6.17-2.2c9.48-1.03,16.58,5.57,16.58,5.57"/>
</g>
</svg>
