<!-- Generator: Adobe Illustrator 24.1.0, SVG Export Plug-In  -->
<svg version="1.1" xmlns="http://www.w3.org/2000/svg" xmlns:xlink="http://www.w3.org/1999/xlink" x="0px" y="0px"
	 width="158.95px" height="219.42px" viewBox="0 0 158.95 219.42" style="enable-background:new 0 0 158.95 219.42;"
	 xml:space="preserve">
<style type="text/css">
	.st0{opacity:0.9;fill:#D3EBED;}
	.st1{fill:#F1F8F9;}
	.st2{fill:none;stroke:#231F20;stroke-width:0.54;stroke-miterlimit:10;}
	.st3{opacity:0.61;fill:#C7C7C9;}
</style>
<defs>
</defs>
<g>
	<path class="st0" d="M76.19,132.12v42.71c-16.51,1.37-30.41,5.18-38.57,10.31v-63.33C45.78,126.95,59.68,130.75,76.19,132.12z"/>
	<path class="st0" d="M89.75,132.68v41.59c-3.89,0-7.69,0.13-11.37,0.4v-42.38C82.06,132.55,85.86,132.68,89.75,132.68z"/>
	<path class="st0" d="M141.44,122.16v62.63c-10.45-6.3-29.66-10.52-51.63-10.52h-0.06v-41.59h0.06
		C111.78,132.68,130.99,128.46,141.44,122.16z"/>
	<path class="st0" d="M33.28,118.43v70.09c-2.25,2.25-3.47,4.68-3.47,7.21v-84.5C29.81,113.76,31.03,116.18,33.28,118.43z"/>
	<path class="st0" d="M149.81,111.23v84.5c0-2.11-0.85-4.15-2.44-6.08V117.3C148.96,115.37,149.81,113.34,149.81,111.23z"/>
	<path class="st0" d="M149.81,111.23c0,2.11-0.85,4.14-2.44,6.07c-1.41,1.72-3.42,3.35-5.93,4.86
		c-10.45,6.3-29.66,10.52-51.63,10.52h-0.06c-3.89,0-7.69-0.13-11.37-0.39c-0.74-0.05-1.47-0.1-2.19-0.17
		c-16.51-1.37-30.41-5.17-38.57-10.31c-1.71-1.07-3.17-2.2-4.34-3.38c-2.25-2.25-3.47-4.67-3.47-7.2c0-2.53,1.22-4.96,3.47-7.21
		c1.17-1.18,2.63-2.31,4.34-3.38c10.31-6.49,29.79-10.86,52.13-10.87h0.06c21.97,0,41.18,4.22,51.63,10.52
		c2.51,1.51,4.51,3.14,5.93,4.86C148.96,107.08,149.81,109.12,149.81,111.23z"/>
	<path class="st0" d="M149.81,195.73c0,11.84-26.86,21.45-60,21.45c-33.14,0-60-9.61-60-21.45c0-2.53,1.22-4.96,3.47-7.21
		c1.17-1.18,2.63-2.31,4.34-3.38c8.16-5.13,22.06-8.94,38.57-10.31c0.72-0.07,1.45-0.12,2.19-0.16c3.68-0.27,7.48-0.4,11.37-0.4
		h0.06c21.97,0,41.18,4.22,51.63,10.52c2.51,1.51,4.51,3.14,5.93,4.86C148.96,191.58,149.81,193.62,149.81,195.73z"/>
	<path class="st1" d="M63.35,211.86c-32.25-4.75-30.07-18.41-30.07-18.41V75.91c0-1.18,0.97-2.15,2.15-2.15h0.04
		c1.18,0,2.15,0.97,2.15,2.15v117.54C37.62,203.87,63.35,211.86,63.35,211.86z"/>
	<path class="st2" d="M151.85,195.75c0,12.92-27.8,23.4-62.1,23.4s-62.05-9.53-62.05-22.45"/>
	<path class="st2" d="M132.55,46.51c-11.15,4.03-26.29,6.5-42.95,6.5c-19.56,0-35.1-3.6-48.38-8.73c-0.02-0.01-0.03-0.02-0.03-0.02
		L11.27,33.55c-0.52-0.19-0.59-0.9-0.11-1.18l25.01-14.7c0,0,0.14-0.08,0.39-0.23C47.47,10.7,67.14,6.21,89.6,6.21
		c34.3,0,62.1,10.48,62.1,23.4C151.7,36.25,144.35,42.25,132.55,46.51z"/>
	<path class="st2" d="M158.47,27.29c-2.78-15.12-32.49-27.02-68.73-27.02c-21.66,0-31.99,2.46-45.35,7.38
		C43.25,8.07,39.25,9.61,32.94,13L0.98,33.29c-1.08,0.68-0.9,2.31,0.3,2.74l42.09,15.29c0,0,0.01,0,0.04,0.02
		c12.24,4.73,28.49,7.61,46.33,7.61c15.55,0,29.91-2.19,41.44-5.89c16.7-5.35,27.5-13.86,27.5-23.45
		C158.68,28.83,158.61,28.06,158.47,27.29z"/>
	<line class="st2" x1="151.7" y1="65.43" x2="151.85" y2="195.75"/>
	<path class="st2" d="M151.7,65.43"/>
	<path class="st2" d="M151.7,65.43c0,0-0.45-18.5,3.2-26.21"/>
	<path class="st2" d="M35.45,18.09"/>
	<path class="st2" d="M34.72,11.87"/>
	<path class="st2" d="M2.67,36.54c5.04,1.78,13.85,11.68,17.35,17.74c5.18,8.98,7.89,19.18,7.89,29.55L27.7,196.69"/>
	<path class="st2" d="M121.42,79.53c-15.84,5.59-31.67,3.97-31.67,3.97v6.27v6.69v12.58v15.51v8.13v41.59v8.77v12.48v0.22"/>
	<path class="st2" d="M89.75,195.53c0,0,15.83,1.62,31.67-3.97"/>
	<path class="st2" d="M89.75,109.04c0,0,15.83,1.62,31.67-3.97"/>
	<path class="st2" d="M89.75,170.43c0,0,15.83,1.62,31.67-3.97"/>
	<path class="st2" d="M89.75,139.74c0,0,15.83,1.62,31.67-3.97"/>
	<path class="st2" d="M89.75,124.55c0,0,11.11,0.83,22.22-2.04"/>
	<path class="st2" d="M89.75,96.47c0,0,11.11,0.83,22.22-2.04"/>
	<path class="st2" d="M89.75,155.43c0,0,11.11,0.83,22.22-2.04"/>
	<path class="st2" d="M89.75,183.04c0,0,11.11,0.83,22.22-2.04"/>
	<text transform="matrix(1 0 0 1 123.4842 81.7281)" style="fill:#020203; font-family:'Bahnschrift'; font-size:7.5599px;">250</text>
	<text transform="matrix(1 0 0 1 123.4847 108.2418)" style="fill:#020203; font-family:'Bahnschrift'; font-size:7.5599px;">200</text>
	<text transform="matrix(1 0 0 1 123.4847 137.859)" style="fill:#020203; font-family:'Bahnschrift'; font-size:7.5599px;">150</text>
	<text transform="matrix(1 0 0 1 123.4847 168.5562)" style="fill:#020203; font-family:'Bahnschrift'; font-size:7.5599px;">100</text>
	<text transform="matrix(1 0 0 1 123.4847 193.65)" style="fill:#020203; font-family:'Bahnschrift'; font-size:7.5599px;">50</text>
	<path class="st1" d="M3.49,35.19L3.49,35.19c-0.45,0-0.82-0.37-0.82-0.82v0c0-0.45,0.37-0.82,0.82-0.82h0
		c0.45,0,0.82,0.37,0.82,0.82v0C4.3,34.83,3.94,35.19,3.49,35.19z"/>
	<path class="st1" d="M30.86,17.5L6.21,31.74c-0.18,0.1-0.24,0.34-0.14,0.52l0.07,0.13c0.1,0.18,0.34,0.24,0.52,0.14l24.66-14.23
		c0.18-0.1,0.24-0.34,0.14-0.52l-0.07-0.13C31.28,17.46,31.04,17.4,30.86,17.5z"/>
	<path class="st1" d="M14.08,37.63l30.34,11.33c0,0,0.01,0,0.03,0.02c13.28,5.13,28.83,8.73,48.38,8.73c16.67,0,31.2-3.4,42.36-7.43
		c11.8-4.26,18.56-9.31,19.74-15.97c0.71-3.99-1.55-11.7-6.37-15.03c4.04,3.11,5.96,10.52,5.12,14.12
		c-1.62,7.01-8.07,11.68-19.87,15.94c-11.15,4.03-25.56,7.46-42.22,7.46c-19.56,0-35.1-3.6-48.38-8.73
		c-0.02-0.01-0.03-0.02-0.03-0.02L14.08,37.63"/>
	<path class="st1" d="M19.31,45.9c0,0,8.82,8.59,12.5,19.35c0.23,0.68,0.72,1.28,1.39,1.54c0.66,0.26,1.51,0.26,2.23-0.77
		C36.83,64.07,21.93,47.03,19.31,45.9z"/>
	<path class="st3" d="M152.76,45.55c0,0-18.89,20.72-78.78,12.91c0,0,53.46,6.5,80.04-17.82C154.01,40.65,153.13,43.42,152.76,45.55
		z"/>
	<path class="st1" d="M78.38,96.09v87.73c0,0.6-0.49,1.09-1.09,1.09c-0.61,0-1.1-0.49-1.1-1.09V96.09c0-0.61,0.49-1.1,1.1-1.1
		C77.89,94.99,78.38,95.48,78.38,96.09z"/>
	<path class="st3" d="M147.37,72.65v122.76c0,1.69-0.48,3.36-1.45,4.75c-2.44,3.5-9.16,7.55-25.53,10.92
		c0.63-0.23,21.05-7.9,21.05-13.9V72.65c0-1.43,1.16-2.59,2.59-2.59h0.74C146.2,70.06,147.37,71.22,147.37,72.65z"/>
</g>
</svg>
