<!-- Generator: Adobe Illustrator 24.1.0, SVG Export Plug-In  -->
<svg version="1.1" xmlns="http://www.w3.org/2000/svg" xmlns:xlink="http://www.w3.org/1999/xlink" x="0px" y="0px" width="243.1px"
	 height="302.65px" viewBox="0 0 243.1 302.65" style="enable-background:new 0 0 243.1 302.65;" xml:space="preserve">
<style type="text/css">
	.st0{fill:#B3B2B2;stroke:#231F20;stroke-width:0.5;stroke-miterlimit:10;}
	.st1{fill:none;stroke:#231F20;stroke-width:0.5;stroke-miterlimit:10;}
	.st2{fill:#CFCECD;stroke:#231F20;stroke-width:0.5;stroke-miterlimit:10;}
	.st3{fill:#465C96;stroke:#231F20;stroke-width:0.5;stroke-miterlimit:10;}
	.st4{fill:#E9E8E8;stroke:#231F20;stroke-width:0.5;stroke-miterlimit:10;}
	.st5{fill:#193F34;stroke:#231F20;stroke-width:0.5;stroke-miterlimit:10;}
	.st6{fill:#286456;stroke:#231F20;stroke-width:0.5;stroke-miterlimit:10;}
	.st7{fill:#E3E3E4;stroke:#231F20;stroke-width:0.5;stroke-miterlimit:10;}
	.st8{fill:#367D67;stroke:#231F20;stroke-width:0.5;stroke-miterlimit:10;}
	.st9{fill:#7995B2;stroke:#231F20;stroke-width:0.5;stroke-miterlimit:10;}
</style>
<defs>
</defs>
<g>
	<polygon class="st0" points="65.84,238.56 65.84,301.29 0.34,129.29 0.34,38.29 14.81,76.29 14.81,104.56 	"/>
	<path class="st1" d="M175.79,7.03"/>
	<path class="st2" d="M65.84,238.56v62.73l176.93-38v-62.73L65.84,238.56z M126.47,281.43c-2,0-3.85-0.64-5.37-1.74l-0.48-0.36
		l-1.39-1.01c-0.31-0.2-0.6-0.41-0.88-0.65l-0.07-0.05c-2-1.69-3.27-4.21-3.27-7.03c0-5.08,4.11-9.19,9.19-9.19
		c1.95,0,3.76,0.61,5.25,1.64l0.43,0.32l1.67,1.21l0.13,0.09c2.41,1.65,3.99,4.43,3.99,7.57
		C135.67,277.31,131.55,281.43,126.47,281.43z M162.52,271.62c-2.06,0-3.73-1.67-3.73-3.73s1.67-3.73,3.73-3.73
		c2.06,0,3.73,1.67,3.73,3.73S164.58,271.62,162.52,271.62z M162.52,260.35c-2.06,0-3.73-1.67-3.73-3.73c0-2.05,1.67-3.72,3.73-3.72
		c2.06,0,3.73,1.67,3.73,3.72C166.25,258.68,164.58,260.35,162.52,260.35z M198.57,265.7c-2.16,0-4.16-0.75-5.74-2.01l-0.11-0.09
		l-1.23-0.9c-0.42-0.26-0.82-0.56-1.19-0.88l-0.05-0.04c-1.93-1.68-3.14-4.16-3.14-6.92c0-5.07,4.11-9.19,9.19-9.19
		c2.51,0,4.78,1.01,6.43,2.63c0.3,0.15,0.59,0.32,0.87,0.51l0.56,0.4c2.19,1.67,3.61,4.32,3.61,7.3
		C207.77,261.58,203.65,265.7,198.57,265.7z M219.86,234.23L90.19,262.4v-15.07l129.67-27.77V234.23z"/>
	<path class="st3" d="M189.38,256.51c0,2.55,1.05,4.87,2.73,6.54c-0.21-0.11-0.42-0.23-0.62-0.35l-1.19-0.88l-0.05-0.04
		c-1.93-1.68-3.14-4.16-3.14-6.92c0-5.07,4.11-9.19,9.19-9.19c2.51,0,4.78,1.01,6.43,2.63c-1.25-0.63-2.66-0.99-4.16-0.99
		C193.5,247.31,189.38,251.43,189.38,256.51z"/>
	<path class="st3" d="M117.28,272.23c0,2.56,1.05,4.88,2.74,6.55c-0.27-0.14-0.54-0.29-0.79-0.46l-0.88-0.65l-0.07-0.05
		c-2-1.69-3.27-4.21-3.27-7.03c0-5.08,4.11-9.19,9.19-9.19c1.95,0,3.76,0.61,5.25,1.64l0.43,0.32l1.67,1.21
		c-1.46-0.97-3.2-1.53-5.08-1.53C121.4,263.04,117.28,267.16,117.28,272.23z"/>
	<polygon class="st4" points="219.86,219.56 219.86,234.23 90.19,262.4 90.19,247.33 	"/>
	<polygon class="st5" points="65.84,210.29 65.84,238.56 14.81,104.56 14.81,76.29 	"/>
	<polygon class="st6" points="242.77,172.29 242.77,200.56 65.84,238.56 65.84,210.29 	"/>
	<polygon class="st7" points="191.76,38.34 14.81,76.29 0.34,38.29 177.27,0.29 	"/>
	<polygon class="st8" points="242.77,172.29 65.84,210.29 14.81,76.29 191.76,38.34 	"/>
	<line class="st1" x1="191.99" y1="38.29" x2="191.76" y2="38.34"/>
	<path class="st1" d="M130.53,263.92c-0.21-0.19-0.42-0.38-0.65-0.56"/>
	<path class="st1" d="M120.08,278.81c-0.02-0.01-0.04-0.02-0.06-0.03"/>
	<path class="st1" d="M202.79,248.36c-0.02-0.02-0.04-0.04-0.06-0.06"/>
	<path class="st1" d="M192.15,263.07c-0.01-0.01-0.03-0.01-0.04-0.02"/>
	<path class="st9" d="M135.67,272.23c0,5.08-4.12,9.2-9.2,9.2c-2,0-3.85-0.64-5.37-1.74l-0.48-0.36c-0.2-0.18-0.41-0.36-0.6-0.55
		c-1.69-1.67-2.74-3.99-2.74-6.55c0-5.07,4.12-9.19,9.19-9.19c1.88,0,3.62,0.56,5.08,1.53l0.13,0.09
		C134.09,266.31,135.67,269.09,135.67,272.23z"/>
	<path class="st9" d="M207.77,256.51c0,5.07-4.12,9.19-9.2,9.19c-2.16,0-4.16-0.75-5.74-2.01l-0.11-0.09
		c-0.21-0.17-0.41-0.36-0.61-0.55c-1.68-1.67-2.73-3.99-2.73-6.54c0-5.08,4.12-9.2,9.19-9.2c1.5,0,2.91,0.36,4.16,0.99
		c0.3,0.15,0.59,0.32,0.87,0.51l0.56,0.4C206.35,250.88,207.77,253.53,207.77,256.51z"/>
	<path class="st9" d="M166.25,256.62c0,2.06-1.67,3.73-3.73,3.73c-2.06,0-3.73-1.67-3.73-3.73c0-2.05,1.67-3.72,3.73-3.72
		C164.58,252.9,166.25,254.57,166.25,256.62z"/>
	<path class="st9" d="M166.25,267.89c0,2.06-1.67,3.73-3.73,3.73c-2.06,0-3.73-1.67-3.73-3.73s1.67-3.73,3.73-3.73
		C164.58,264.16,166.25,265.83,166.25,267.89z"/>
	<line class="st1" x1="201.42" y1="247.23" x2="204.16" y2="249.21"/>
</g>
</svg>
