<!-- Generator: Adobe Illustrator 24.1.0, SVG Export Plug-In  -->
<svg version="1.1" xmlns="http://www.w3.org/2000/svg" xmlns:xlink="http://www.w3.org/1999/xlink" x="0px" y="0px" width="32.37px"
	 height="68.38px" viewBox="0 0 32.37 68.38" style="enable-background:new 0 0 32.37 68.38;" xml:space="preserve">
<style type="text/css">
	.st0{opacity:0.9;fill:#E5F3F3;}
	.st1{fill:#F1F8F9;}
	.st2{opacity:0.61;fill:#C7C7C9;}
	.st3{fill:none;stroke:#231F20;stroke-width:0.5;stroke-miterlimit:10;}
	.st4{fill:#020203;}
	.st5{font-family:'Bahnschrift';}
	.st6{font-size:3.2572px;}
	.st7{fill:none;stroke:#231F20;stroke-width:0.5;stroke-linecap:round;stroke-miterlimit:10;}
	.st8{fill:none;stroke:#231F20;stroke-width:0.562;stroke-linecap:round;stroke-miterlimit:10;}
	.st9{fill:#FAFAFA;stroke:#C3C5C5;stroke-width:0.937;stroke-miterlimit:10;}
</style>
<defs>
</defs>
<g>
	<g>
		<g>
			<g>
				<path class="st0" d="M25.84,39.62c0,1.82-4.36,3.3-9.73,3.3c-5.37,0-9.73-1.48-9.73-3.3c0-1.82,4.36-3.3,9.73-3.3
					C21.48,36.32,25.84,37.8,25.84,39.62z"/>
				<path class="st0" d="M25.84,39.62v9.44c0,1.25-0.32,2.48-0.92,3.57L16.9,67.09c-0.24,0.47-0.91,0.47-1.17,0.01L7.14,52.22
					c-0.5-0.87-0.76-1.85-0.76-2.85v-9.74c0,1.82,4.36,3.3,9.73,3.3C21.48,42.92,25.84,41.44,25.84,39.62z"/>
			</g>
			<g>
				<path class="st1" d="M11.92,18.21v32.5c0,0.2,0.03,0.4,0.07,0.59l3.65,14.08L13,51.22c-0.03-0.14-0.04-0.28-0.04-0.43V18.28
					C12.96,18.28,12.59,18.29,11.92,18.21z"/>
				<path class="st1" d="M6.54,14.63v34.84c0,0.36,0.09,0.72,0.25,1.05l8.86,17.32L7.9,50.46c-0.13-0.29-0.2-0.6-0.2-0.92V15.16
					C7.7,15.16,7.09,14.91,6.54,14.63z"/>
				<path class="st2" d="M25.3,17.11v32.36c0,0.36-0.09,0.72-0.25,1.05l-8.86,17.32l7.75-17.38c0.13-0.29,0.2-0.6,0.2-0.92
					l0.01-32.12C24.14,17.43,24.82,17.34,25.3,17.11z"/>
				<path class="st3" d="M29.49,10.85c0,3.15-5.81,5.7-12.98,5.7S3.53,14,3.53,10.85"/>
				<line class="st3" x1="3.53" y1="10.23" x2="3.53" y2="10.85"/>
				<line class="st3" x1="29.49" y1="8.4" x2="29.49" y2="10.85"/>
				<path class="st3" d="M5.85,14.1v34.95c0,1.4,0.37,2.78,1.07,4l8.37,14.46c0.48,0.84,1.7,0.82,2.16-0.03l7.86-14.36
					c0.69-1.26,1.06-2.68,1.06-4.13V14.55"/>
				<path class="st3" d="M25.8,1.97c-2.36-1.06-5.65-1.72-9.29-1.72c-5.69,0-10.52,1.6-12.28,3.84C4.19,4.14,4.14,4.17,4.08,4.17
					c-0.61,0-3.83,0-3.83,0v3.61h3.82c0.09,0,0.16,0.04,0.22,0.1c1.8,2.2,6.59,3.77,12.22,3.77c7.17,0,12.98-2.55,12.98-5.7
					C29.49,4.4,28.08,3,25.8,1.97z"/>
				<path class="st3" d="M29.49,8.4c0,3.15-5.81,5.7-12.98,5.7c-5.63,0-10.43-1.58-12.23-3.78c-0.05-0.06-0.12-0.09-0.2-0.09H0.25
					V7.77"/>
				<line class="st3" x1="29.49" y1="5.95" x2="29.49" y2="8.4"/>
				<ellipse class="st3" cx="16.51" cy="5.95" rx="7.38" ry="2.73"/>
				<path class="st3" d="M30.03,11.4c-0.17,0.04-0.35,0.05-0.54,0.05v-0.93c0.94,0,1.7-0.76,1.7-1.7s-0.76-1.7-1.7-1.7V6.19
					c1.45,0,2.63,1.18,2.63,2.63C32.12,10.1,31.23,11.16,30.03,11.4z"/>
				<path class="st3" d="M29.49,7.69"/>
				<path class="st3" d="M28.42,3.56c1.11,0,2.06,0.69,2.45,1.66c0.21,0.52,1.04,2.55,1.04,2.55"/>
				<path class="st3" d="M29.49,7.51c0.13-0.1,0.24-0.22,0.33-0.35"/>
				<path class="st3" d="M32.12,8.68"/>
				<path class="st3" d="M11.7,61.16c0,0,0.92,0.11,1.75,0.03"/>
				<path class="st3" d="M19.17,61.1c0,0,0.78,0.08,1.61,0"/>
				<path class="st3" d="M12.67,57.14c0,0,3.46,0.41,6.49,0"/>
				<path class="st3" d="M12.67,43.77c0,0,3.46,0.41,6.49,0"/>
				<path class="st3" d="M12.67,33.48c0,0,3.46,0.41,6.49,0"/>
				<path class="st3" d="M12.67,23.49c0,0,3.46,0.41,6.49,0"/>
				<path class="st3" d="M11.7,48.91c0,0,0.92,0.13,1.75,0.08"/>
				<path class="st3" d="M18.99,48.96c0,0,0.78,0.01,1.6-0.14"/>
				<path class="st3" d="M11.63,38.51c0,0,0.92,0.13,1.75,0.08"/>
				<path class="st3" d="M18.92,38.55c0,0,0.78,0.01,1.6-0.14"/>
				<path class="st3" d="M11.48,28.43c0,0,0.92,0.13,1.75,0.08"/>
				<path class="st3" d="M18.76,28.47c0,0,0.78,0.01,1.6-0.14"/>
				<text transform="matrix(1 0 0 1 14.0124 50.1232)" class="st4 st5 st6">0.5</text>
				<text transform="matrix(1 0 0 1 14.5895 39.673)" class="st4 st5 st6">1.0</text>
				<text transform="matrix(1 0 0 1 14.1823 29.5626)" class="st4 st5 st6">1.5</text>
				<text transform="matrix(1 0 0 1 14.5895 62.7736)" class="st4 st5 st6">0.1</text>
				<path class="st3" d="M9.25,6.44c0.62-1.28,3.64-2.24,7.26-2.24c3.62,0,6.64,0.97,7.26,2.24"/>
				<path class="st7" d="M19.89,53.06c-1.24,0.17-2.6,0.27-4.02,0.27c-3.97,0-7.43-0.74-9.27-1.83"/>
				<path class="st7" d="M25.61,51.17c-0.73,0.56-1.88,1.05-3.31,1.42"/>
				<path class="st8" d="M24.74,48.98c-0.88-0.41-2.13-0.74-3.62-0.98"/>
				<path class="st2" d="M26.27,15.57c0,0-5.64,2.26-12.37,0.96c0,0,7.01,0.8,12.36-1.81L26.27,15.57z"/>
				<path class="st1" d="M28.45,5.06c-0.64,2.84-5.45,5-12.12,5c-6.21,0-10.48-2.36-11.76-4.91c0.34,3.02,5.63,5.57,12.59,5.57
					C23.82,10.72,27.91,7.98,28.45,5.06"/>
			</g>
		</g>
		<g>
			<path class="st9" d="M26.46,24.38v9.06c0,1.01-4.6,1.83-10.27,1.83c-5.67,0-10.27-0.82-10.27-1.83v-9.06
				c0,1.01,4.6,1.83,10.27,1.83C21.86,26.2,26.46,25.39,26.46,24.38z"/>
		</g>
	</g>
	<g>
		<path class="st4" d="M11.34,31.6c0.23,0.14,0.57,0.26,0.92,0.26c0.52,0,0.83-0.28,0.83-0.68c0-0.37-0.21-0.58-0.75-0.79
			c-0.65-0.23-1.05-0.57-1.05-1.13c0-0.62,0.51-1.08,1.29-1.08c0.41,0,0.7,0.09,0.88,0.19l-0.14,0.42
			c-0.13-0.07-0.39-0.19-0.75-0.19c-0.54,0-0.75,0.32-0.75,0.6c0,0.37,0.24,0.55,0.79,0.77c0.67,0.26,1.01,0.58,1.01,1.17
			c0,0.61-0.45,1.14-1.39,1.14c-0.38,0-0.8-0.11-1.01-0.25L11.34,31.6z"/>
		<path class="st4" d="M17.72,30.2c0,1.37-0.83,2.09-1.85,2.09c-1.05,0-1.79-0.81-1.79-2.02c0-1.26,0.78-2.09,1.85-2.09
			C17.01,28.19,17.72,29.02,17.72,30.2z M14.63,30.27c0,0.85,0.46,1.61,1.27,1.61c0.81,0,1.27-0.75,1.27-1.65
			c0-0.79-0.41-1.62-1.27-1.62C15.06,28.61,14.63,29.39,14.63,30.27z"/>
		<path class="st4" d="M21.16,32.1c-0.19,0.09-0.57,0.19-1.05,0.19c-1.12,0-1.96-0.71-1.96-2.01c0-1.24,0.84-2.09,2.08-2.09
			c0.5,0,0.81,0.11,0.94,0.18l-0.12,0.42c-0.19-0.09-0.47-0.17-0.8-0.17c-0.93,0-1.55,0.6-1.55,1.64c0,0.97,0.56,1.6,1.53,1.6
			c0.31,0,0.63-0.06,0.84-0.17L21.16,32.1z"/>
	</g>
</g>
</svg>
