<!-- Generator: Adobe Illustrator 24.1.0, SVG Export Plug-In  -->
<svg version="1.1" xmlns="http://www.w3.org/2000/svg" xmlns:xlink="http://www.w3.org/1999/xlink" x="0px" y="0px"
	 width="154.32px" height="219.89px" viewBox="0 0 154.32 219.89" style="enable-background:new 0 0 154.32 219.89;"
	 xml:space="preserve">
<style type="text/css">
	.st0{fill:#F6E7C8;}
	.st1{fill:none;stroke:#075292;stroke-width:0.8571;stroke-linecap:round;stroke-linejoin:round;stroke-miterlimit:10;}
</style>
<defs>
</defs>
<ellipse class="st0" cx="77.16" cy="109.95" rx="77.16" ry="109.95"/>
<path class="st1" d="M71.44,139.26c-7.46,8.99-11.99,21.72-6.51,31.92c1.6,2.99,4.21,5.71,7.64,6.47c4.81,1.07,9.8-2.22,11.85-6.5
	c2.05-4.28,1.74-9.25,0.79-13.87c-1.39-6.79-4.05-13.28-6.17-19.9c-7.33-22.93-8.05-47.75-2.07-71.03c0.69-2.7,1.51-5.44,3.25-7.67
	c1.63-2.08,3.96-3.56,5.75-5.52c3.9-4.28,4.71-10.94,1.75-15.86s-9.56-7.62-15.28-6.09c-6.7,1.8-10.9,8.62-11.27,15.25
	s2.34,13.06,5.52,18.97c7.98,14.81,19.22,27.94,26.25,43.17c5.29,11.47,8.07,23.89,9.16,36.38c1.11,12.72,0.16,26.51-8,36.63
	c-3.51,4.36-8.85,7.99-14.58,7.46c-5.57-0.51-9.94-4.73-13.15-9.1c-3.7-5.03-6.57-10.62-8.47-16.49c-1.22-3.76-1.97-8.08,0.14-11.46
	c1.77-2.82,5.15-4.33,8.47-5.22c7.34-1.98,15.16-1.74,22.58-3.42c7.42-1.68,15.02-6.15,16.64-13.26c1.15-5.04-1.12-10.48-5.16-13.91
	s-9.59-4.96-15-4.83c-7.65,0.19-14.81,3.44-22.29,4.96c-3.22,0.66-7.09,0.8-9.28-1.54c-1.38-1.47-1.72-3.56-2-5.52
	c-0.85-5.98-1.71-11.97-2.56-17.95c-0.67-4.67-1.33-9.36-1.15-14.07c0.08-2.14,0.4-4.42,1.83-6.07c2.17-2.5,6.05-2.74,9.46-2.58
	c4.73,0.22,9.45,0.81,14.17,0.5s9.55-1.63,13.01-4.71c3.66-3.26,5.37-8.24,5.05-13.01c-0.32-4.77-2.53-9.31-5.66-13.04
	c-3.14-3.75-8.08-6.95-12.93-5.68c-3.82,1-6.4,4.55-7.38,8.21c-1.03,3.82-0.68,7.85-0.21,11.78c2.96,24.94,10.13,50.52,2.94,74.67
	c-1.75,5.88-4.92,12.1-10.91,14.27c-0.96,0.35-2.04,0.57-2.99,0.2c-1.77-0.7-2.03-2.96-1.94-4.79c0.88-18.86,9.48-37.31,23.58-50.56
	c3.68-3.46,7.81-6.69,10.14-11.1c2.28-4.33,2.55-9.59,0.72-14.11"/>
</svg>
