<!-- Generator: Adobe Illustrator 24.1.0, SVG Export Plug-In  -->
<svg version="1.1" xmlns="http://www.w3.org/2000/svg" xmlns:xlink="http://www.w3.org/1999/xlink" x="0px" y="0px" width="75.14px"
	 height="197.22px" viewBox="0 0 75.14 197.22" style="enable-background:new 0 0 75.14 197.22;" xml:space="preserve">
<style type="text/css">
	.st0{opacity:0.9;}
	.st1{opacity:0.9;fill:#EEEDA2;}
	.st2{fill:#F1F8F9;}
	.st3{opacity:0.61;fill:#C7C7C9;}
	.st4{fill:none;stroke:#231F20;stroke-width:0.5;stroke-miterlimit:10;}
	.st5{fill:none;stroke:#231F20;stroke-width:0.5;stroke-linecap:round;stroke-miterlimit:10;}
	.st6{fill:#020203;}
	.st7{fill:none;stroke:#231F20;stroke-width:0.562;stroke-linecap:round;stroke-miterlimit:10;}
	.st8{fill:#FAFAFA;stroke:#C3C5C5;stroke-miterlimit:10;}
</style>
<defs>
</defs>
<g>
	<g>
		<g class="st0">
			<path class="st1" d="M45.72,138.85c0,3.67-8.79,6.66-19.63,6.66c-10.85,0-19.64-2.98-19.64-6.66c0-3.68,8.79-6.66,19.64-6.66
				C36.93,132.19,45.72,135.17,45.72,138.85z"/>
			<path class="st1" d="M45.72,138.85v19.05c0,2.52-0.64,5-1.86,7.21L27.7,194.28c-0.49,0.94-1.84,0.95-2.36,0.02L7.99,164.27
				c-1.01-1.75-1.54-3.73-1.54-5.75v-19.66c0,3.67,8.79,6.66,19.64,6.66C36.93,145.51,45.72,142.53,45.72,138.85z"/>
		</g>
		<path class="st2" d="M18.12,96.75v65.59c0,0.4,0.05,0.8,0.15,1.18l7.37,28.41l-5.35-28.56c-0.05-0.28-0.08-0.57-0.08-0.86V96.89
			C20.21,96.89,19.46,96.91,18.12,96.75z"/>
		<path class="st2" d="M7.25,89.45v70.38c0,0.74,0.17,1.46,0.51,2.12l17.88,34.95L9.99,161.84c-0.26-0.58-0.4-1.22-0.4-1.86V90.4
			C9.6,90.4,8.46,89.99,7.25,89.45z"/>
		<path class="st3" d="M45.12,94.52v65.31c0,0.74-0.17,1.46-0.51,2.12l-17.88,34.95l15.65-35.07c0.26-0.58,0.4-1.22,0.4-1.86
			l0.01-64.81C42.78,95.17,44.14,95,45.12,94.52z"/>
		<ellipse class="st4" cx="26.22" cy="76.42" rx="21.5" ry="7.29"/>
		<ellipse class="st4" cx="26.45" cy="76.42" rx="26.2" ry="11.5"/>
		<path class="st4" d="M52.65,81.37c0,6.35-11.73,11.5-26.2,11.5s-26.2-5.15-26.2-11.5v-4.94"/>
		<line class="st4" x1="52.65" y1="76.42" x2="52.65" y2="81.37"/>
		<path class="st4" d="M46.35,88.84v69.51c0,2.91-0.73,5.77-2.13,8.33l-15.87,28.98c-0.94,1.71-3.38,1.74-4.36,0.05L7.1,166.53
			c-1.42-2.45-2.17-5.24-2.17-8.07V87.93"/>
		<path class="st4" d="M60.83,8.05"/>
		<path class="st4" d="M51.93,73.73l10.73-9.91c0.27-0.27,0.48-0.6,0.61-0.97l3.44-9.9c0.15-0.44,0.42-0.82,0.76-1.13
			c4.33-3.98,7.42-12.02,7.42-20.7c0-8.71-2.94-16.3-7.29-20.23c-0.2-0.18-0.32-0.43-0.32-0.7c0.01-1.48,0.03-6.37,0.04-8
			c0-0.25-0.26-0.41-0.48-0.3l-3.99,1.88"/>
		<path class="st4" d="M40.15,66.62l9.16-7.13c0.41-0.32,0.72-0.76,0.88-1.25c0,0,1.51-4.57,1.92-5.83
			c0.06-0.18-0.02-0.38-0.18-0.48c-5.31-3.17-9.09-11.28-9.09-20.78c0-8.57,3.07-16.01,7.58-19.71c0.2-0.16,0.31-0.4,0.31-0.65
			l0-8.87c0-0.12,0.11-0.22,0.23-0.2l11.91,2.06c0.09,0.02,0.15,0.09,0.15,0.18l0,6.75c0,0.28,0.13,0.54,0.35,0.72
			c4.51,3.69,7.59,11.14,7.59,19.72c0,8.09-3.29,16.75-7.39,20.66c-0.1,0.1-0.17,0.21-0.22,0.34l-2.92,8.39
			c-0.14,0.4-0.38,0.76-0.7,1.04l-10.44,9.2"/>
		<path class="st4" d="M50.72,1.68"/>
		<path class="st4" d="M50.95,1.72l5.09-1.46c0.04-0.01,0.08-0.01,0.12-0.01l10.92,1.62"/>
		<ellipse class="st4" cx="50.95" cy="32" rx="5.51" ry="14.89"/>
		<path class="st4" d="M58.82,16.01c3.04,0,5.51,6.67,5.51,14.89s-2.47,14.89-5.51,14.89"/>
		<line class="st4" x1="50.95" y1="17.1" x2="58.82" y2="16.01"/>
		<line class="st4" x1="50.95" y1="46.89" x2="58.82" y2="45.79"/>
		<ellipse class="st4" cx="50.95" cy="32" rx="3.42" ry="12.22"/>
		<path class="st4" d="M16.81,183.23c0,0,1.86,0.22,3.54,0.07"/>
		<path class="st4" d="M31.88,183.1c0,0,1.57,0.15,3.24,0"/>
		<path class="st4" d="M18.77,175.11c0,0,6.97,0.82,13.11,0"/>
		<path class="st5" d="M33.44,166.74c-2.5,0.35-5.24,0.54-8.11,0.54c-8.01,0-15-1.49-18.7-3.69"/>
		<path class="st5" d="M45,162.94c-1.48,1.14-3.79,2.12-6.67,2.86"/>
		<path class="st4" d="M18.77,148.14c0,0,6.97,0.82,13.11,0"/>
		<path class="st4" d="M18.77,127.38c0,0,6.97,0.82,13.11,0"/>
		<path class="st4" d="M18.77,107.22c0,0,6.97,0.82,13.11,0"/>
		<path class="st4" d="M16.81,158.51c0,0,1.86,0.27,3.54,0.15"/>
		<path class="st4" d="M31.52,158.6c0,0,1.57,0.01,3.23-0.29"/>
		<path class="st4" d="M16.67,137.52c0,0,1.86,0.27,3.54,0.15"/>
		<path class="st4" d="M31.38,137.61c0,0,1.57,0.01,3.23-0.29"/>
		<path class="st4" d="M16.35,117.17c0,0,1.86,0.27,3.54,0.15"/>
		<path class="st4" d="M31.06,117.27c0,0,1.57,0.01,3.23-0.29"/>
		<g>
			<path class="st6" d="M25.77,183.77c0,1.45-0.54,2.26-1.49,2.26c-0.83,0-1.4-0.78-1.41-2.2c0-1.43,0.62-2.22,1.49-2.22
				C25.26,181.6,25.77,182.4,25.77,183.77z M23.45,183.83c0,1.11,0.34,1.74,0.87,1.74c0.59,0,0.88-0.69,0.88-1.78
				c0-1.05-0.27-1.74-0.87-1.74C23.82,182.05,23.45,182.67,23.45,183.83z"/>
			<path class="st6" d="M26.35,185.61c0-0.24,0.17-0.41,0.39-0.41c0.23,0,0.39,0.17,0.39,0.41c0,0.24-0.15,0.41-0.39,0.41
				C26.51,186.02,26.35,185.84,26.35,185.61z"/>
			<path class="st6" d="M28.92,182.21h-0.01l-0.74,0.4l-0.11-0.44l0.93-0.5h0.49v4.27h-0.56V182.21z"/>
		</g>
		<g>
			<path class="st6" d="M24.61,158.77c0,1.45-0.54,2.26-1.49,2.26c-0.83,0-1.4-0.78-1.41-2.2c0-1.43,0.62-2.22,1.49-2.22
				C24.1,156.61,24.61,157.41,24.61,158.77z M22.29,158.84c0,1.11,0.34,1.74,0.87,1.74c0.59,0,0.88-0.69,0.88-1.78
				c0-1.05-0.27-1.74-0.87-1.74C22.66,157.06,22.29,157.68,22.29,158.84z"/>
			<path class="st6" d="M25.19,160.62c0-0.24,0.17-0.41,0.39-0.41c0.23,0,0.39,0.17,0.39,0.41c0,0.24-0.15,0.41-0.39,0.41
				C25.35,161.03,25.19,160.85,25.19,160.62z"/>
			<path class="st6" d="M29.05,157.17h-1.63l-0.16,1.1c0.1-0.01,0.19-0.03,0.35-0.03c0.33,0,0.66,0.07,0.92,0.23
				c0.34,0.19,0.61,0.56,0.61,1.1c0,0.83-0.67,1.46-1.59,1.46c-0.47,0-0.86-0.13-1.07-0.26l0.14-0.44c0.18,0.11,0.53,0.24,0.91,0.24
				c0.55,0,1.01-0.36,1.01-0.93c-0.01-0.55-0.38-0.95-1.23-0.95c-0.24,0-0.43,0.03-0.59,0.05l0.28-2.05h2.04V157.17z"/>
		</g>
		<g>
			<path class="st6" d="M24.19,136.13h-0.01l-0.74,0.4l-0.11-0.44l0.93-0.5h0.49v4.27h-0.56V136.13z"/>
			<path class="st6" d="M26.35,139.53c0-0.24,0.17-0.41,0.39-0.41c0.23,0,0.39,0.17,0.39,0.41c0,0.24-0.15,0.41-0.39,0.41
				C26.51,139.94,26.35,139.76,26.35,139.53z"/>
			<path class="st6" d="M30.51,137.68c0,1.45-0.54,2.26-1.49,2.26c-0.83,0-1.4-0.78-1.41-2.2c0-1.43,0.62-2.22,1.49-2.22
				C29.99,135.52,30.51,136.32,30.51,137.68z M28.19,137.75c0,1.11,0.34,1.74,0.87,1.74c0.59,0,0.88-0.69,0.88-1.78
				c0-1.05-0.27-1.74-0.87-1.74C28.55,135.97,28.19,136.59,28.19,137.75z"/>
		</g>
		<g>
			<path class="st6" d="M23.37,115.73h-0.01l-0.74,0.4l-0.11-0.44l0.93-0.5h0.49v4.27h-0.56V115.73z"/>
			<path class="st6" d="M25.53,119.12c0-0.24,0.17-0.41,0.39-0.41c0.23,0,0.39,0.17,0.39,0.41c0,0.24-0.15,0.41-0.39,0.41
				C25.69,119.54,25.53,119.36,25.53,119.12z"/>
			<path class="st6" d="M29.4,115.68h-1.63l-0.17,1.1c0.1-0.01,0.19-0.03,0.35-0.03c0.33,0,0.66,0.07,0.92,0.23
				c0.34,0.19,0.61,0.56,0.61,1.1c0,0.83-0.67,1.46-1.59,1.46c-0.47,0-0.86-0.13-1.07-0.26l0.14-0.44c0.18,0.11,0.53,0.24,0.91,0.24
				c0.55,0,1.01-0.36,1.01-0.93c-0.01-0.55-0.38-0.95-1.23-0.95c-0.24,0-0.43,0.03-0.59,0.05l0.28-2.05h2.04V115.68z"/>
		</g>
		<path class="st7" d="M43.22,158.51c-1.78-0.82-4.3-1.5-7.3-1.98"/>
		<path class="st3" d="M46.14,90.89c0,0-11.38,4.55-24.96,1.95c0,0,14.15,1.61,24.95-3.65L46.14,90.89z"/>
		<path class="st2" d="M50.11,75.19c-1.28,5.73-11.01,10.09-24.47,10.09c-12.54,0-21.15-4.75-23.73-9.92
			C2.6,81.45,13.28,86.6,27.32,86.6C40.76,86.6,49.01,81.07,50.11,75.19"/>
	</g>
	<path class="st8" d="M46.35,113.47v18.79c0,2.09-9.26,3.79-20.7,3.79c-11.43,0-20.7-1.7-20.7-3.79v-18.79
		c0,2.1,9.27,3.79,20.7,3.79C37.09,117.26,46.35,115.56,46.35,113.47z"/>
	<g>
		<path class="st6" d="M17.4,128.74c0.37,0.23,0.91,0.42,1.48,0.42c0.84,0,1.34-0.45,1.34-1.09c0-0.6-0.34-0.94-1.2-1.27
			c-1.04-0.37-1.69-0.91-1.69-1.81c0-1,0.82-1.74,2.07-1.74c0.65,0,1.13,0.15,1.41,0.31l-0.23,0.67c-0.21-0.11-0.64-0.3-1.21-0.3
			c-0.87,0-1.2,0.52-1.2,0.96c0,0.6,0.39,0.89,1.27,1.23c1.08,0.42,1.63,0.94,1.63,1.88c0,0.99-0.73,1.84-2.24,1.84
			c-0.62,0-1.29-0.18-1.63-0.41L17.4,128.74z"/>
		<path class="st6" d="M27.65,126.49c0,2.2-1.34,3.37-2.97,3.37c-1.69,0-2.87-1.31-2.87-3.24c0-2.03,1.26-3.36,2.97-3.36
			C26.52,123.25,27.65,124.59,27.65,126.49z M22.69,126.59c0,1.37,0.74,2.59,2.04,2.59c1.31,0,2.05-1.2,2.05-2.66
			c0-1.27-0.66-2.6-2.04-2.6C23.38,123.93,22.69,125.19,22.69,126.59z"/>
		<path class="st6" d="M33.19,129.54c-0.3,0.15-0.91,0.3-1.69,0.3c-1.8,0-3.16-1.14-3.16-3.23c0-2,1.36-3.36,3.34-3.36
			c0.8,0,1.3,0.17,1.52,0.28l-0.2,0.67c-0.31-0.15-0.76-0.27-1.29-0.27c-1.5,0-2.49,0.96-2.49,2.64c0,1.56,0.9,2.57,2.46,2.57
			c0.5,0,1.01-0.1,1.35-0.27L33.19,129.54z"/>
	</g>
</g>
</svg>
