<!-- Generator: Adobe Illustrator 24.1.0, SVG Export Plug-In  -->
<svg version="1.1" xmlns="http://www.w3.org/2000/svg" xmlns:xlink="http://www.w3.org/1999/xlink" x="0px" y="0px"
	 width="114.04px" height="209.91px" viewBox="0 0 114.04 209.91" style="enable-background:new 0 0 114.04 209.91;"
	 xml:space="preserve">
<style type="text/css">
	.st0{fill:#F1F8F9;}
	.st1{fill:#3A563F;stroke:#231F20;stroke-width:0.3789;stroke-miterlimit:10;}
	.st2{fill:none;stroke:#231F20;stroke-width:0.3789;stroke-miterlimit:10;}
	.st3{fill:none;stroke:#231F20;stroke-width:0.3789;stroke-linecap:round;stroke-miterlimit:10;}
	.st4{fill:#4F7660;stroke:#231F20;stroke-width:0.3789;stroke-miterlimit:10;}
	.st5{fill:none;stroke:#223D20;stroke-width:0.3789;stroke-linecap:round;stroke-linejoin:round;stroke-miterlimit:10;}
	.st6{fill:none;stroke:#231F20;stroke-width:0.3789;stroke-linecap:round;stroke-linejoin:round;stroke-miterlimit:10;}
	.st7{fill:none;stroke:#4F7660;stroke-width:0.3789;stroke-linecap:round;stroke-miterlimit:10;}
	.st8{fill:none;stroke:#231F20;stroke-width:0.379;stroke-linecap:round;stroke-miterlimit:10;}
	.st9{opacity:0.61;fill:#C7C7C9;}
	.st10{fill:#FAFAFA;stroke:#C3C5C5;stroke-width:0.937;stroke-miterlimit:10;}
</style>
<defs>
</defs>
<g>
	<g>
		<path class="st0" d="M12.86,170.1L12.86,170.1c-1.86,0-3.39-1.53-3.39-3.39V60.69c0-1.86,1.53-3.39,3.39-3.39h0
			c1.86,0,3.39,1.53,3.39,3.39v106.02C16.25,168.58,14.73,170.1,12.86,170.1z"/>
		<path class="st1" d="M99.2,17.55v16.04c0,9.55-18.92,17.29-42.26,17.29s-42.26-7.74-42.26-17.29V17.55"/>
		<path class="st2" d="M113.57,184.87c0,13.72-25.34,24.85-56.61,24.85S0.36,198.6,0.36,184.87"/>
		<path class="st2" d="M113.57,55.41c0,0.07,0,0.15,0,0.22"/>
		<path class="st2" d="M99.19,34.26c8.84,4.34,14.26,14.77,14.38,21.15c0,0,0,0.04,0,0.11c0,11.84,0,129.36,0,129.36"/>
		<path class="st2" d="M0.36,55.62c0-6.35,5.42-16.95,14.34-21.34"/>
		<line class="st2" x1="0.36" y1="55.62" x2="0.36" y2="184.87"/>
		<line class="st3" x1="22.51" y1="29.09" x2="22.51" y2="41.94"/>
		<line class="st3" x1="30.76" y1="32.64" x2="30.76" y2="45.49"/>
		<line class="st3" x1="38.61" y1="34.61" x2="38.61" y2="47.47"/>
		<line class="st3" x1="46.89" y1="35.87" x2="46.89" y2="48.72"/>
		<line class="st3" x1="56.36" y1="36.37" x2="56.36" y2="49.18"/>
		<line class="st3" x1="65.53" y1="36.01" x2="65.53" y2="48.7"/>
		<line class="st3" x1="73.36" y1="34.98" x2="73.36" y2="47.74"/>
		<line class="st3" x1="82.17" y1="32.96" x2="82.17" y2="45.58"/>
		<line class="st3" x1="90.42" y1="29.68" x2="90.42" y2="42.13"/>
		<line class="st3" x1="97.6" y1="23.85" x2="97.6" y2="35.69"/>
		<ellipse class="st4" cx="56.97" cy="17.48" rx="42.26" ry="17.29"/>
		<path class="st1" d="M56.97,6.01c-19.19,0-34.75,4.96-34.75,11.07c0,0.49,0.11,0.97,0.3,1.44c2.24-5.42,16.81-9.61,34.44-9.61
			c17.63,0,32.2,4.19,34.45,9.61c0.19-0.47,0.3-0.95,0.3-1.44C91.72,10.96,76.16,6.01,56.97,6.01z"/>
		<path class="st4" d="M56.97,8.91c-17.64,0-32.2,4.19-34.44,9.61c2.22,5.43,16.79,9.63,34.44,9.63c17.66,0,32.23-4.2,34.45-9.63
			C89.17,13.09,74.6,8.91,56.97,8.91z"/>
		<path class="st5" d="M18.35,26.12c0,0,0,12.9,0,13.01c0.84,0.73,1.59,1.29,2.66,1.96"/>
		<path class="st6" d="M18.13,26.12c0,0,0,13.03,0,13.14c0.84,0.73,1.8,1.43,2.88,2.1"/>
		<path class="st5" d="M30.02,45.17c-1.1-0.36-2.02-0.68-3.03-1.09c0-0.09,0-12.88,0-12.88"/>
		<path class="st6" d="M30.02,45.41c-1.1-0.36-2.16-0.74-3.17-1.14c0-0.09,0-13.06,0-13.06"/>
		<path class="st5" d="M34.95,33.71c0,0,0,12.88,0,12.92c1.05,0.26,1.86,0.41,2.97,0.63"/>
		<path class="st6" d="M34.75,33.71c0,0,0,13,0,13.04c1.05,0.26,2.13,0.5,3.24,0.71"/>
		<path class="st5" d="M46.38,48.54c-1.15-0.11-2.12-0.23-3.23-0.38c0-0.02,0-12.75,0-12.75"/>
		<path class="st6" d="M46.38,48.69c-1.15-0.11-2.28-0.25-3.38-0.4c0-0.02,0-12.9,0-12.9"/>
		<path class="st5" d="M55.36,48.97c-1.42-0.01-2.45-0.04-3.83-0.1c0-0.4,0-12.65,0-12.65"/>
		<path class="st6" d="M55.51,49.17c-1.42-0.01-2.82-0.05-4.19-0.12c0-0.4,0-12.84,0-12.84"/>
		<path class="st5" d="M61.56,36.28c0,0,0,12.6,0,12.62c1.23-0.06,2.15-0.12,3.35-0.22"/>
		<path class="st6" d="M61.41,36.27c0,0,0,12.77,0,12.78c1.23-0.06,2.45-0.14,3.65-0.24"/>
		<path class="st5" d="M69.54,35.71v12.5c1.15-0.15,2.03-0.29,3.13-0.48"/>
		<path class="st6" d="M69.41,35.58v12.75c1.15-0.15,2.28-0.32,3.38-0.52"/>
		<path class="st5" d="M81.41,45.68c-1.12,0.34-2.14,0.61-3.34,0.9v-12.5"/>
		<path class="st6" d="M81.36,45.83c-1.12,0.34-2.28,0.65-3.48,0.94V34.1"/>
		<path class="st5" d="M86.32,31.55c0,0,0,12.38,0,12.38c1.29-0.53,2.33-1,3.45-1.59"/>
		<path class="st6" d="M86.16,31.55c0,0,0,12.6,0,12.6c1.29-0.53,2.5-1.08,3.62-1.67"/>
		<path class="st5" d="M97.11,36.23c-0.65,1.01-1.2,1.63-2.27,2.56V26.76"/>
		<path class="st6" d="M97.24,36.29c-0.65,1.01-1.52,1.99-2.59,2.93V26.88"/>
		<path class="st7" d="M15.29,30.91V34c0,0.44,0.06,0.87,0.2,1.28c0.34,1.03,0.91,2.2,1.67,2.85"/>
		<line class="st7" x1="15.29" y1="21.6" x2="15.29" y2="25.4"/>
		<line class="st7" x1="26.39" y1="37.49" x2="26.39" y2="43.86"/>
		<line class="st7" x1="26.39" y1="32.27" x2="26.39" y2="33.45"/>
		<line class="st7" x1="34.33" y1="37.09" x2="34.33" y2="45.34"/>
		<line class="st7" x1="42.45" y1="35.52" x2="42.45" y2="39.01"/>
		<line class="st7" x1="42.45" y1="45.74" x2="42.45" y2="46.33"/>
		<line class="st7" x1="50.89" y1="41.8" x2="50.89" y2="45.29"/>
		<line class="st8" x1="110.42" y1="185.01" x2="110.42" y2="85.09"/>
		<path class="st8" d="M3.51,157.33c0,0,0-85.16,0-99.91c0-3.99,2.15-9.67,5.96-14.42"/>
		<path class="st8" d="M24.29,167.31c-12.64,4.09-20.78,10.5-20.78,17.7c0,12.35,23.93,22.36,53.45,22.36s53.45-10.01,53.45-22.36"
			/>
		<path class="st0" d="M34.95,95.66L34.95,95.66c-0.69,0-1.25-0.56-1.25-1.25v-9.78c0-0.69,0.56-1.25,1.25-1.25h0
			c0.69,0,1.25,0.56,1.25,1.25v9.78C36.2,95.1,35.64,95.66,34.95,95.66z"/>
		<path class="st9" d="M108.48,185.1V72.12c0-1.21-0.99-2.2-2.2-2.2l0,0c-1.21,0-2.2,0.99-2.2,2.2v111.91c0,1.8-0.66,3.54-1.87,4.87
			c-3.29,3.6-10.07,10.2-22.32,12.7c0,0,20.28-4.43,26.82-11.76C107.88,188.55,108.48,186.84,108.48,185.1z"/>
		<path class="st0" d="M34.95,183.44L34.95,183.44c-1.3,0-2.37-1.07-2.37-2.37v-58.23c0-1.3,1.07-2.37,2.37-2.37h0
			c1.3,0,2.37,1.07,2.37,2.37v58.23C37.32,182.37,36.25,183.44,34.95,183.44z"/>
		<path class="st0" d="M16.71,186.3v-6.37c0-1.89-1.54-3.43-3.43-3.43h-0.83c-1.89,0-3.43,1.54-3.43,3.43v6.37
			c0,0,0,13.76,33.12,17.34C42.14,203.64,16.25,197.93,16.71,186.3z"/>
	</g>
	<g>
		<path class="st10" d="M113.57,83.03v51.05c0,5.67-25.31,10.29-56.55,10.29c-31.22,0-56.55-4.62-56.55-10.29V83.03
			c0,5.69,25.33,10.29,56.55,10.29C88.26,93.32,113.57,88.73,113.57,83.03z"/>
	</g>
	<g>
		<path d="M31.62,109.28h-6.07v-2.19h14.77v2.19h-6.1v17.76h-2.6V109.28z"/>
		<path d="M41.12,117.19c0-1.69-0.03-3.14-0.12-4.47h2.28l0.09,2.81h0.12c0.65-1.92,2.22-3.14,3.97-3.14c0.3,0,0.5,0.03,0.74,0.09
			v2.46c-0.27-0.06-0.53-0.09-0.89-0.09c-1.83,0-3.14,1.39-3.49,3.35c-0.06,0.35-0.12,0.77-0.12,1.21v7.64h-2.58V117.19z"/>
		<path d="M58.58,127.04l-0.21-1.81h-0.09c-0.8,1.12-2.34,2.13-4.38,2.13c-2.9,0-4.38-2.04-4.38-4.11c0-3.46,3.08-5.36,8.61-5.33
			v-0.3c0-1.18-0.33-3.32-3.26-3.32c-1.33,0-2.72,0.41-3.73,1.07l-0.59-1.72c1.18-0.77,2.9-1.27,4.71-1.27
			c4.38,0,5.45,2.99,5.45,5.86v5.36c0,1.24,0.06,2.46,0.24,3.43H58.58z M58.2,119.73c-2.84-0.06-6.07,0.44-6.07,3.23
			c0,1.69,1.12,2.49,2.46,2.49c1.87,0,3.05-1.18,3.46-2.4c0.09-0.27,0.15-0.56,0.15-0.83V119.73z"/>
		<path d="M64.56,124.38c0.77,0.5,2.13,1.04,3.43,1.04c1.89,0,2.78-0.95,2.78-2.13c0-1.24-0.74-1.92-2.66-2.63
			c-2.58-0.92-3.79-2.34-3.79-4.05c0-2.31,1.86-4.2,4.94-4.2c1.45,0,2.72,0.42,3.52,0.89l-0.65,1.89c-0.56-0.36-1.6-0.83-2.93-0.83
			c-1.54,0-2.4,0.89-2.4,1.95c0,1.18,0.86,1.72,2.72,2.43c2.49,0.95,3.76,2.19,3.76,4.32c0,2.52-1.95,4.29-5.36,4.29
			c-1.57,0-3.02-0.38-4.03-0.98L64.56,124.38z"/>
		<path d="M76.63,106.03h2.6v8.94h0.06c0.41-0.74,1.07-1.39,1.87-1.83c0.77-0.44,1.69-0.74,2.66-0.74c1.92,0,5,1.18,5,6.13v8.53
			h-2.61v-8.23c0-2.31-0.86-4.26-3.32-4.26c-1.69,0-3.02,1.18-3.49,2.61c-0.15,0.35-0.18,0.74-0.18,1.24v8.64h-2.6V106.03z"/>
	</g>
</g>
</svg>
