<!-- Generator: Adobe Illustrator 24.1.0, SVG Export Plug-In  -->
<svg version="1.1" xmlns="http://www.w3.org/2000/svg" xmlns:xlink="http://www.w3.org/1999/xlink" x="0px" y="0px" width="446.7px"
	 height="133.09px" viewBox="0 0 446.7 133.09" style="enable-background:new 0 0 446.7 133.09;" xml:space="preserve">
<style type="text/css">
	.st0{fill:none;stroke:#231F20;stroke-width:0.25;stroke-miterlimit:10;}
	.st1{opacity:0.5;fill:#DAE0E0;stroke:#231F20;stroke-width:0.25;stroke-miterlimit:10;}
	.st2{fill:none;stroke:#E9F1F1;stroke-linecap:round;stroke-miterlimit:10;}
	.st3{fill:#222E5A;}
</style>
<defs>
</defs>
<g>
	<g>
		<circle class="st0" cx="223.35" cy="66.54" r="66.42"/>
		<circle class="st0" cx="223.35" cy="66.54" r="62.2"/>
		<circle class="st1" cx="223.35" cy="66.54" r="58.53"/>
		<path class="st2" d="M159.53,58.54c0,0,3.17-33.21,33.12-47.9"/>
		<path class="st2" d="M286.96,75.33c0,0-3.17,33.21-33.12,47.9"/>
	</g>
	<g>
		<path class="st3" d="M170.39,61.17c-0.14-0.02-0.3-0.07-0.47-0.16c-0.18-0.09-0.36-0.2-0.53-0.33c-0.18-0.13-0.35-0.29-0.52-0.45
			c-0.17-0.17-0.31-0.34-0.44-0.52c-0.13-0.18-0.22-0.35-0.29-0.52c-0.07-0.18-0.09-0.34-0.07-0.49c0-0.04,0.02-0.08,0.04-0.12
			c0.02-0.04,0.05-0.08,0.09-0.11c0.03-0.03,0.07-0.06,0.11-0.08c0.04-0.02,0.08-0.03,0.12-0.02c0.03,0,0.07,0.02,0.12,0.03
			c0.05,0.02,0.07,0.05,0.06,0.09c0,0.03-0.01,0.05-0.03,0.07c-0.02,0.02-0.03,0.04-0.05,0.06c-0.02,0.02-0.04,0.04-0.05,0.07
			c-0.02,0.02-0.03,0.05-0.03,0.08c-0.02,0.15,0,0.3,0.06,0.45c0.06,0.15,0.15,0.31,0.26,0.45c0.11,0.15,0.25,0.29,0.4,0.42
			c0.15,0.13,0.31,0.25,0.48,0.35c0.17,0.1,0.33,0.19,0.49,0.25c0.16,0.07,0.31,0.11,0.44,0.12c0.21,0.03,0.38,0.01,0.52-0.04
			s0.26-0.14,0.35-0.25c0.09-0.11,0.17-0.24,0.22-0.39c0.06-0.15,0.1-0.31,0.15-0.49c0.02-0.03,0.04-0.05,0.06-0.05
			c0.02,0,0.05,0,0.07,0c0.06,0.01,0.1,0.04,0.12,0.08c0.02,0.05,0.03,0.1,0.04,0.16c0,0.06,0,0.11-0.01,0.17
			c-0.01,0.06-0.02,0.1-0.02,0.13c-0.02,0.2-0.09,0.37-0.2,0.51c-0.11,0.14-0.24,0.25-0.4,0.33c-0.16,0.08-0.33,0.13-0.52,0.16
			C170.76,61.19,170.57,61.2,170.39,61.17z"/>
		<path class="st3" d="M170.95,57.34c-0.02,0.08-0.02,0.17-0.03,0.25c0,0.08,0,0.17,0,0.25c0,0.08,0,0.17,0,0.25
			c0,0.08-0.01,0.17-0.02,0.25c-0.01,0.06-0.04,0.1-0.07,0.11c-0.03,0.01-0.06,0.01-0.11,0c-0.06-0.01-0.09-0.02-0.11-0.04
			c-0.02-0.02-0.03-0.06-0.03-0.12c0-0.04,0-0.1-0.01-0.19c0-0.09,0-0.19,0-0.29c0-0.1,0-0.2-0.01-0.29c0-0.09,0-0.15-0.01-0.19
			c0-0.02-0.01-0.04-0.03-0.05s-0.04-0.02-0.06-0.03c-0.02-0.01-0.04-0.01-0.06-0.01c-0.02,0-0.04-0.01-0.05-0.01
			c-0.07-0.01-0.14-0.02-0.21-0.02c-0.07,0-0.14,0-0.21,0.01c-0.07,0-0.14,0.01-0.21,0.01s-0.14,0-0.21-0.02l-0.02,0
			c-0.01-0.01-0.03-0.03-0.05-0.07c-0.02-0.04-0.04-0.06-0.05-0.08l0-0.01c0,0,0-0.01,0-0.01l0-0.01l0-0.01c0,0.01,0.01,0,0.01,0
			l0-0.02l0.15-0.1l0.9-0.09l0.08-0.05l0.03-0.1c0.03-0.07,0.05-0.15,0.08-0.25c0.03-0.1,0.06-0.19,0.09-0.29
			c0.03-0.1,0.06-0.19,0.07-0.25c0-0.01,0.01-0.04,0.02-0.07c0.01-0.03,0.02-0.07,0.03-0.1c0.01-0.03,0.03-0.06,0.05-0.09
			c0.02-0.02,0.05-0.03,0.08-0.03c0.01,0,0.03,0.01,0.06,0.04c0.02,0.02,0.05,0.04,0.07,0.07c0.02,0.02,0.04,0.05,0.06,0.07
			c0.02,0.02,0.03,0.04,0.02,0.05l-0.17,0.98l1.1,0.2l0.02,0.02c0.01,0.02,0.02,0.04,0.03,0.06c0.01,0.02,0.02,0.04,0.03,0.06
			c0.01,0.02,0.02,0.04,0.02,0.06c0,0,0,0.01,0,0.02l0,0.01c-0.01,0.05-0.04,0.08-0.09,0.09c-0.05,0.02-0.1,0.02-0.16,0.01
			c-0.06-0.01-0.11-0.01-0.16-0.02c-0.05-0.01-0.09-0.02-0.12-0.02c-0.03,0-0.08,0-0.15,0c-0.07,0-0.15,0-0.23,0
			c-0.08,0-0.16,0-0.23,0c-0.07,0-0.12,0-0.15,0L170.95,57.34z"/>
		<path class="st3" d="M172.65,55.75c-0.03-0.01-0.08-0.05-0.13-0.13c-0.05-0.08-0.12-0.18-0.2-0.31c-0.08-0.12-0.16-0.26-0.26-0.4
			c-0.1-0.14-0.21-0.28-0.33-0.41c-0.12-0.13-0.25-0.25-0.4-0.35c-0.14-0.1-0.3-0.17-0.47-0.21c-0.16-0.04-0.32-0.05-0.47-0.03
			c-0.15,0.01-0.31,0.04-0.46,0.09c-0.15,0.05-0.3,0.11-0.44,0.19c-0.14,0.08-0.27,0.16-0.4,0.25c0.01,0.03,0.01,0.06-0.01,0.09
			c-0.02,0.03-0.04,0.05-0.06,0.07c-0.03,0.02-0.06,0.03-0.09,0.04c-0.03,0.01-0.06,0.01-0.09,0.01c-0.06-0.01-0.1-0.04-0.1-0.08
			c0-0.04,0-0.09,0.02-0.14c0.03-0.13,0.09-0.24,0.17-0.34c0.09-0.1,0.19-0.18,0.31-0.25c0.12-0.07,0.26-0.13,0.41-0.18
			c0.15-0.05,0.3-0.08,0.44-0.1c0.15-0.02,0.29-0.03,0.43-0.03c0.14,0,0.26,0.02,0.36,0.04c0.1,0.02,0.23,0.08,0.37,0.16
			c0.15,0.08,0.3,0.18,0.46,0.3s0.32,0.25,0.47,0.4c0.16,0.14,0.29,0.29,0.41,0.44c0.12,0.15,0.21,0.29,0.27,0.43
			c0.06,0.14,0.08,0.26,0.06,0.37c-0.01,0.03-0.02,0.05-0.04,0.06s-0.05,0.03-0.07,0.04c-0.03,0.01-0.06,0.01-0.09,0.01
			C172.69,55.76,172.66,55.76,172.65,55.75z"/>
		<path class="st3" d="M173.34,48.79c-0.14-0.06-0.3-0.13-0.48-0.21c-0.18-0.08-0.35-0.16-0.53-0.24c-0.18-0.08-0.34-0.17-0.51-0.25
			c-0.16-0.08-0.3-0.16-0.42-0.24c-0.12-0.08-0.2-0.14-0.26-0.2c-0.05-0.07-0.06-0.11-0.02-0.15c0.03-0.05,0.09-0.07,0.17-0.06
			c0.09,0.01,0.2,0.05,0.33,0.1c0.13,0.06,0.28,0.13,0.44,0.21c0.16,0.09,0.33,0.18,0.5,0.26c0.17,0.09,0.34,0.17,0.51,0.26
			c0.17,0.08,0.33,0.15,0.48,0.19c0.04,0.01,0.09,0.02,0.14,0.03c0.05,0,0.1,0,0.15-0.01c0.05-0.01,0.1-0.03,0.14-0.05
			c0.05-0.03,0.08-0.06,0.1-0.11l0.56-1.18c0.02-0.03,0.05-0.05,0.08-0.04c0.04,0.01,0.07,0.02,0.09,0.02
			c0.07,0.03,0.11,0.07,0.12,0.12c0.01,0.05,0.01,0.12,0,0.2c-0.01,0.02-0.02,0.05-0.03,0.09c-0.01,0.04-0.03,0.09-0.04,0.14
			c-0.02,0.05-0.03,0.09-0.04,0.13c-0.02,0.04-0.03,0.07-0.03,0.08c-0.07,0.19-0.15,0.35-0.23,0.5c-0.09,0.15-0.19,0.26-0.3,0.34
			c-0.12,0.08-0.25,0.13-0.4,0.14C173.72,48.9,173.55,48.87,173.34,48.79z"/>
		<path class="st3" d="M175.66,45.28c-0.01,0.01-0.04,0.03-0.09,0.07c-0.05,0.04-0.11,0.08-0.17,0.12
			c-0.07,0.04-0.13,0.07-0.19,0.09c-0.06,0.02-0.11,0.02-0.15,0c-0.04-0.04-0.06-0.07-0.06-0.11c0-0.04,0-0.08-0.01-0.12
			c0-0.04-0.01-0.08-0.03-0.11c-0.02-0.04-0.06-0.07-0.12-0.09c-0.5-0.15-0.95-0.27-1.33-0.38c-0.39-0.11-0.72-0.19-0.99-0.24
			c-0.27-0.05-0.49-0.07-0.65-0.05c-0.16,0.02-0.26,0.08-0.31,0.18l0,0.01l-0.01,0.01l-0.01,0.01c0.01,0.04,0.01,0.09,0.01,0.15
			c0,0.06-0.01,0.13-0.01,0.2c-0.01,0.07-0.01,0.14-0.02,0.21c-0.01,0.07-0.01,0.12-0.02,0.16c0,0.01-0.01,0.02-0.01,0.03
			c0,0.01-0.01,0.02-0.01,0.02l-0.18-0.08c-0.04-0.02-0.06-0.07-0.06-0.16c0-0.09,0-0.19,0.02-0.31c0.02-0.12,0.04-0.26,0.06-0.4
			c0.03-0.14,0.06-0.28,0.09-0.41c0.03-0.13,0.07-0.24,0.1-0.34c0.03-0.1,0.05-0.17,0.07-0.2c0.03-0.07,0.08-0.15,0.14-0.24
			c0.06-0.09,0.13-0.18,0.21-0.28s0.17-0.18,0.26-0.26c0.1-0.08,0.19-0.15,0.3-0.2c0.1-0.05,0.2-0.09,0.3-0.1
			c0.1-0.02,0.19,0,0.29,0.04c0.1,0.05,0.19,0.11,0.26,0.19c0.07,0.08,0.13,0.16,0.17,0.25c0.05,0.08,0.09,0.16,0.12,0.22
			c0.04,0.07,0.08,0.11,0.12,0.13c0.01,0,0.05-0.02,0.12-0.08c0.07-0.06,0.17-0.13,0.29-0.22c0.12-0.09,0.26-0.18,0.42-0.27
			c0.16-0.09,0.33-0.17,0.5-0.24c0.17-0.07,0.35-0.11,0.53-0.12c0.18-0.02,0.34,0.01,0.5,0.08c0.17,0.07,0.29,0.17,0.37,0.3
			c0.08,0.12,0.13,0.26,0.14,0.4c0.01,0.14,0,0.29-0.03,0.44c-0.03,0.15-0.08,0.29-0.14,0.42c-0.06,0.13-0.11,0.24-0.16,0.34
			c-0.05,0.1-0.11,0.19-0.16,0.29c-0.06,0.09-0.12,0.19-0.2,0.3C175.86,45.02,175.77,45.14,175.66,45.28z M175.03,44.79
			c0.06,0.09,0.12,0.13,0.19,0.14c0.07,0.01,0.14-0.01,0.21-0.06c0.07-0.05,0.14-0.11,0.21-0.2c0.07-0.08,0.13-0.17,0.19-0.26
			s0.1-0.17,0.14-0.25c0.04-0.08,0.06-0.14,0.07-0.18c0.05-0.12,0.1-0.24,0.14-0.35c0.04-0.12,0.06-0.23,0.06-0.34
			c0-0.1-0.03-0.2-0.09-0.29s-0.15-0.16-0.29-0.22c-0.19-0.09-0.38-0.11-0.55-0.07c-0.17,0.04-0.34,0.12-0.5,0.23
			c-0.16,0.11-0.31,0.24-0.45,0.39c-0.14,0.15-0.27,0.29-0.4,0.42c-0.12,0.13-0.24,0.23-0.34,0.3c-0.1,0.07-0.2,0.09-0.28,0.05
			c-0.04-0.02-0.07-0.06-0.07-0.11c-0.01-0.06,0-0.12,0.01-0.2c0.01-0.08,0.02-0.16,0.04-0.25c0.01-0.09,0.02-0.18,0-0.27
			c-0.01-0.09-0.04-0.17-0.08-0.25c-0.04-0.07-0.12-0.13-0.23-0.18c-0.09-0.04-0.18-0.05-0.26-0.03c-0.09,0.02-0.17,0.05-0.25,0.1
			c-0.08,0.05-0.15,0.11-0.21,0.19c-0.06,0.07-0.11,0.15-0.14,0.22c-0.05,0.11-0.09,0.23-0.12,0.36c-0.03,0.13-0.03,0.25,0,0.37
			c0.22,0.04,0.47,0.09,0.74,0.14c0.27,0.05,0.54,0.1,0.81,0.16c0.27,0.06,0.53,0.12,0.79,0.19
			C174.62,44.63,174.84,44.71,175.03,44.79z"/>
		<path class="st3" d="M176.49,41.14c-0.04,0.08-0.08,0.15-0.1,0.23c-0.03,0.08-0.05,0.16-0.08,0.24c-0.02,0.08-0.05,0.16-0.08,0.24
			s-0.06,0.15-0.1,0.23c-0.03,0.06-0.06,0.08-0.1,0.08c-0.03,0-0.06-0.01-0.1-0.03c-0.05-0.03-0.08-0.05-0.09-0.07
			c-0.01-0.02-0.01-0.06,0.01-0.13c0.01-0.03,0.03-0.09,0.05-0.18c0.03-0.09,0.05-0.18,0.08-0.27c0.03-0.1,0.06-0.19,0.08-0.27
			c0.03-0.09,0.04-0.15,0.05-0.18c0.01-0.02,0-0.04-0.01-0.06c-0.01-0.02-0.03-0.03-0.05-0.05c-0.02-0.01-0.04-0.02-0.06-0.03
			c-0.02-0.01-0.03-0.02-0.04-0.02c-0.06-0.03-0.12-0.06-0.19-0.08c-0.07-0.02-0.13-0.04-0.2-0.06c-0.07-0.02-0.14-0.04-0.21-0.06
			s-0.13-0.05-0.19-0.08l-0.02-0.01c-0.01-0.01-0.02-0.04-0.03-0.08c-0.01-0.04-0.02-0.07-0.03-0.09l0.01-0.01c0,0,0-0.01,0-0.01
			l0.01-0.01l0-0.01c0,0.01,0,0.01,0.01,0l0.01-0.02l0.17-0.05l0.89,0.2l0.09-0.02l0.06-0.08c0.05-0.06,0.1-0.13,0.16-0.21
			c0.06-0.08,0.12-0.16,0.18-0.25c0.06-0.09,0.11-0.16,0.15-0.22c0.01-0.01,0.02-0.03,0.04-0.06c0.02-0.03,0.04-0.06,0.07-0.09
			c0.02-0.03,0.05-0.05,0.08-0.07c0.03-0.01,0.05-0.01,0.08,0c0.01,0.01,0.03,0.02,0.04,0.05c0.02,0.03,0.03,0.06,0.05,0.09
			c0.01,0.03,0.02,0.06,0.03,0.09c0.01,0.03,0.01,0.05,0.01,0.06l-0.47,0.88l0.99,0.53l0.01,0.03c0,0.02,0.01,0.04,0.01,0.06
			c0,0.02,0.01,0.04,0.01,0.07c0,0.03,0,0.05,0,0.06c0,0.01,0,0.01,0,0.02l-0.01,0.01c-0.02,0.04-0.06,0.06-0.11,0.06
			c-0.05,0-0.1-0.01-0.15-0.04c-0.05-0.02-0.1-0.05-0.15-0.07c-0.04-0.03-0.08-0.05-0.1-0.06c-0.03-0.01-0.08-0.03-0.15-0.05
			c-0.07-0.02-0.14-0.05-0.22-0.08c-0.08-0.03-0.15-0.05-0.22-0.07c-0.07-0.02-0.12-0.04-0.14-0.05L176.49,41.14z"/>
		<path class="st3" d="M176.45,36.5c-0.16,0.26-0.34,0.51-0.55,0.76c-0.21,0.25-0.41,0.49-0.6,0.71c-0.01,0.04-0.03,0.06-0.06,0.07
			c-0.03,0.01-0.06,0.01-0.09,0c-0.03-0.01-0.06-0.02-0.09-0.03c-0.03-0.01-0.05-0.03-0.06-0.04c0.03-0.05,0.09-0.15,0.18-0.28
			c0.08-0.13,0.19-0.29,0.31-0.48c0.12-0.18,0.25-0.38,0.39-0.59c0.14-0.21,0.29-0.42,0.44-0.63c0.15-0.21,0.3-0.41,0.45-0.6
			c0.15-0.19,0.29-0.36,0.42-0.5c0.13-0.14,0.25-0.24,0.34-0.31c0.1-0.07,0.17-0.09,0.23-0.05c0.04,0.02,0.07,0.05,0.1,0.09
			c0.03,0.03,0.03,0.07,0,0.12c-0.09,0.13-0.2,0.25-0.31,0.36c-0.12,0.11-0.23,0.22-0.34,0.33c-0.11,0.11-0.22,0.23-0.32,0.36
			c-0.1,0.13-0.17,0.28-0.22,0.45c0.17,0.11,0.36,0.21,0.58,0.32c0.22,0.11,0.44,0.21,0.66,0.32c0.23,0.1,0.46,0.21,0.69,0.3
			c0.23,0.1,0.45,0.19,0.65,0.27c0.05,0.02,0.11,0.04,0.17,0.04c0.06,0.01,0.12,0.01,0.18,0.01c0.06,0,0.12,0.01,0.17,0.02
			c0.06,0.01,0.11,0.03,0.15,0.06c0.03,0.02,0.05,0.04,0.05,0.07c0,0.03,0,0.06-0.01,0.09c-0.01,0.03-0.02,0.06-0.04,0.09
			c-0.02,0.03-0.03,0.05-0.04,0.07c-0.05,0.07-0.11,0.11-0.2,0.12c-0.09,0-0.17-0.01-0.27-0.03c-0.09-0.03-0.18-0.06-0.27-0.11
			c-0.09-0.05-0.16-0.08-0.22-0.11c-0.22-0.1-0.43-0.2-0.64-0.29c-0.2-0.1-0.4-0.2-0.61-0.3c-0.2-0.1-0.4-0.21-0.6-0.32
			C176.87,36.72,176.66,36.61,176.45,36.5z"/>
		<path class="st3" d="M187.53,26.58c-0.1-0.11-0.17-0.26-0.22-0.44c-0.05-0.18-0.07-0.36-0.07-0.55c0-0.19,0.03-0.37,0.09-0.55
			c0.06-0.17,0.15-0.31,0.27-0.42c0.07-0.06,0.16-0.11,0.27-0.14c0.1-0.03,0.21-0.04,0.33-0.05c0.12,0,0.24,0.01,0.36,0.03
			c0.12,0.02,0.24,0.06,0.36,0.1c0.11,0.04,0.22,0.09,0.31,0.15c0.09,0.06,0.17,0.12,0.23,0.19c0.11,0.13,0.2,0.27,0.28,0.43
			c0.08,0.16,0.12,0.32,0.15,0.49s0.01,0.33-0.04,0.5s-0.14,0.31-0.29,0.43c-0.15,0.13-0.31,0.22-0.49,0.28
			c-0.18,0.06-0.36,0.08-0.55,0.06c-0.18-0.02-0.36-0.07-0.53-0.15C187.81,26.85,187.66,26.73,187.53,26.58z M187.74,26.33
			c0.09,0.13,0.19,0.23,0.31,0.3s0.25,0.12,0.39,0.14c0.14,0.02,0.28,0.01,0.41-0.03c0.14-0.04,0.26-0.11,0.38-0.21
			c0.04-0.04,0.08-0.07,0.1-0.1c0.03-0.03,0.05-0.07,0.07-0.1c0.02-0.04,0.04-0.08,0.06-0.13s0.04-0.11,0.06-0.17
			c-0.03-0.05-0.05-0.1-0.06-0.16c-0.01-0.06-0.01-0.11-0.02-0.18c-0.01-0.06-0.02-0.13-0.04-0.2c-0.02-0.07-0.07-0.15-0.14-0.23
			c-0.09-0.11-0.2-0.2-0.33-0.27c-0.12-0.07-0.25-0.12-0.38-0.14c-0.13-0.02-0.27-0.02-0.4,0.02c-0.14,0.03-0.26,0.1-0.38,0.21
			c-0.08,0.07-0.15,0.16-0.18,0.27c-0.04,0.11-0.05,0.22-0.05,0.34c0,0.12,0.03,0.24,0.06,0.35
			C187.63,26.15,187.68,26.25,187.74,26.33z"/>
		<path class="st3" d="M191.16,23.57c-0.03,0.06-0.05,0.14-0.08,0.23c-0.03,0.09-0.06,0.17-0.1,0.26c-0.04,0.08-0.08,0.16-0.13,0.23
			c-0.05,0.07-0.11,0.12-0.19,0.16c-0.13,0.1-0.27,0.15-0.42,0.15c-0.15,0-0.29-0.04-0.44-0.11c-0.14-0.07-0.27-0.15-0.39-0.26
			c-0.12-0.1-0.22-0.21-0.3-0.31c-0.09-0.11-0.16-0.22-0.22-0.31c-0.06-0.1-0.11-0.2-0.16-0.3c-0.04-0.1-0.09-0.21-0.13-0.33
			c-0.04-0.11-0.09-0.25-0.14-0.39c-0.02-0.04-0.02-0.08,0-0.12c0.02-0.04,0.04-0.08,0.08-0.11c0.04-0.03,0.07-0.05,0.12-0.06
			c0.04-0.01,0.07,0,0.09,0.04c0.07,0.09,0.12,0.19,0.16,0.31s0.08,0.24,0.11,0.36c0.04,0.12,0.08,0.25,0.12,0.37
			c0.04,0.12,0.1,0.23,0.18,0.33c0.06,0.07,0.13,0.14,0.21,0.21c0.09,0.07,0.18,0.13,0.27,0.17c0.1,0.04,0.19,0.06,0.29,0.06
			s0.19-0.03,0.27-0.1c0.12-0.09,0.2-0.2,0.25-0.33c0.05-0.13,0.08-0.27,0.09-0.41c0.01-0.14,0.01-0.29-0.02-0.43
			s-0.05-0.27-0.07-0.39c-0.03-0.12-0.05-0.21-0.08-0.28c-0.03-0.07-0.04-0.1-0.03-0.11c0.08-0.06,0.15-0.09,0.19-0.09
			c0.04,0.01,0.09,0.04,0.12,0.08c0.05,0.07,0.11,0.15,0.16,0.25c0.05,0.1,0.1,0.2,0.15,0.3c0.05,0.1,0.1,0.21,0.16,0.3
			c0.05,0.1,0.11,0.18,0.17,0.25c0.06,0.08,0.13,0.16,0.21,0.23c0.07,0.07,0.15,0.15,0.23,0.22c0.08,0.07,0.15,0.14,0.23,0.22
			c0.07,0.07,0.14,0.15,0.2,0.23c0.05,0.07,0.08,0.14,0.08,0.22c0,0.08-0.04,0.15-0.11,0.2c-0.04,0.03-0.1,0.03-0.16-0.01
			c-0.06-0.04-0.13-0.1-0.21-0.18c-0.08-0.08-0.15-0.17-0.23-0.27c-0.08-0.1-0.15-0.19-0.22-0.28c-0.07-0.08-0.13-0.15-0.19-0.2
			C191.23,23.56,191.19,23.55,191.16,23.57z"/>
		<path class="st3" d="M192.55,24.05c-0.04-0.05-0.07-0.12-0.1-0.21c-0.03-0.09-0.05-0.18-0.08-0.29c-0.02-0.1-0.04-0.2-0.05-0.29
			s-0.02-0.17-0.03-0.22l-0.85-3.01c-0.02-0.06-0.06-0.13-0.1-0.21s-0.08-0.16-0.11-0.25c-0.03-0.08-0.06-0.17-0.07-0.25
			c-0.01-0.08,0-0.14,0.03-0.19c0.04-0.02,0.07-0.02,0.1-0.01c0.03,0.01,0.05,0.02,0.07,0.04c0.02,0.02,0.04,0.04,0.06,0.07
			s0.03,0.05,0.05,0.07c0.04,0.05,0.09,0.16,0.16,0.32c0.07,0.16,0.14,0.36,0.22,0.59s0.16,0.48,0.25,0.76
			c0.09,0.28,0.17,0.55,0.26,0.84c0.08,0.28,0.16,0.56,0.23,0.82c0.07,0.27,0.13,0.51,0.17,0.72c0.05,0.21,0.08,0.38,0.09,0.52
			s0.01,0.22-0.02,0.24c-0.05,0.03-0.1,0.04-0.16,0.02S192.58,24.08,192.55,24.05z"/>
		<path class="st3" d="M193.58,21.8c-0.08-0.12-0.13-0.28-0.16-0.46c-0.02-0.18-0.02-0.37,0.01-0.56c0.03-0.19,0.09-0.36,0.17-0.53
			c0.08-0.17,0.19-0.29,0.33-0.38c0.08-0.05,0.18-0.09,0.28-0.1c0.11-0.01,0.22-0.01,0.34,0c0.12,0.02,0.23,0.04,0.35,0.08
			c0.12,0.04,0.23,0.09,0.34,0.15c0.11,0.06,0.2,0.12,0.29,0.19c0.08,0.07,0.15,0.15,0.2,0.22c0.09,0.14,0.16,0.29,0.21,0.46
			c0.05,0.17,0.08,0.34,0.07,0.51c0,0.17-0.04,0.33-0.11,0.49c-0.07,0.15-0.18,0.28-0.34,0.38c-0.17,0.11-0.34,0.18-0.53,0.2
			c-0.19,0.03-0.37,0.02-0.55-0.02c-0.18-0.04-0.35-0.12-0.5-0.23C193.82,22.11,193.68,21.97,193.58,21.8z M193.82,21.59
			c0.07,0.14,0.16,0.25,0.27,0.34c0.11,0.09,0.23,0.15,0.37,0.19c0.13,0.04,0.27,0.05,0.41,0.03c0.14-0.02,0.28-0.07,0.4-0.15
			c0.05-0.03,0.09-0.06,0.12-0.09c0.03-0.03,0.06-0.06,0.09-0.09c0.03-0.04,0.05-0.08,0.08-0.12c0.02-0.05,0.05-0.1,0.08-0.16
			c-0.03-0.06-0.04-0.11-0.04-0.17s0-0.12,0.01-0.18c0-0.06,0-0.13-0.02-0.21c-0.01-0.07-0.05-0.16-0.11-0.25
			c-0.08-0.12-0.17-0.23-0.28-0.31c-0.11-0.09-0.23-0.15-0.36-0.19c-0.13-0.04-0.26-0.05-0.4-0.04c-0.14,0.01-0.28,0.06-0.41,0.15
			c-0.09,0.06-0.17,0.14-0.22,0.25c-0.05,0.1-0.08,0.21-0.1,0.33c-0.01,0.12-0.01,0.24,0.01,0.36
			C193.74,21.39,193.77,21.5,193.82,21.59z"/>
		<path class="st3" d="M196.03,20.32c-0.08-0.15-0.15-0.32-0.2-0.51c-0.05-0.19-0.08-0.4-0.09-0.61c-0.01-0.21,0-0.42,0.03-0.64
			c0.03-0.22,0.08-0.42,0.15-0.62c0.07-0.2,0.16-0.38,0.26-0.54c0.11-0.16,0.24-0.3,0.38-0.4c0.04-0.02,0.08-0.05,0.13-0.06
			c0.05-0.02,0.11-0.03,0.17-0.03c0.06,0,0.11,0,0.16,0.02c0.05,0.02,0.09,0.05,0.12,0.1c0.01,0.02,0.02,0.05,0.03,0.08
			c0.01,0.03,0.01,0.06,0.02,0.09c0,0.03,0,0.06-0.01,0.09c-0.01,0.03-0.02,0.05-0.05,0.06c-0.01,0-0.03,0.01-0.06,0
			c-0.04,0-0.08,0-0.12-0.01c-0.04,0-0.08,0-0.12,0c-0.04,0-0.07,0-0.09,0l-0.03,0.02c-0.08,0.04-0.15,0.11-0.22,0.2
			c-0.07,0.09-0.13,0.2-0.19,0.33c-0.06,0.13-0.11,0.26-0.15,0.4c-0.04,0.14-0.07,0.28-0.09,0.42c-0.02,0.14-0.03,0.27-0.02,0.39
			c0.01,0.12,0.03,0.21,0.08,0.29l0.02,0.03c0.06-0.07,0.12-0.14,0.17-0.19c0.05-0.05,0.1-0.09,0.16-0.13
			c0.05-0.04,0.11-0.08,0.17-0.11c0.06-0.03,0.13-0.07,0.2-0.12c0.15-0.08,0.29-0.13,0.45-0.16c0.15-0.02,0.3-0.01,0.44,0.02
			c0.14,0.04,0.27,0.1,0.39,0.2c0.12,0.09,0.23,0.21,0.31,0.37c0.1,0.17,0.14,0.34,0.14,0.51c-0.01,0.17-0.05,0.32-0.14,0.47
			c-0.08,0.15-0.19,0.28-0.32,0.4c-0.13,0.12-0.28,0.23-0.43,0.31c-0.17,0.1-0.34,0.15-0.5,0.15c-0.16,0-0.31-0.04-0.46-0.1
			s-0.27-0.16-0.39-0.29C196.22,20.6,196.12,20.47,196.03,20.32z M196.37,20.27c0.18,0.21,0.37,0.33,0.57,0.37
			c0.2,0.04,0.4,0.01,0.61-0.09c0.1-0.06,0.2-0.13,0.3-0.21c0.09-0.08,0.17-0.17,0.23-0.27c0.06-0.1,0.09-0.2,0.1-0.32
			c0.01-0.11-0.03-0.24-0.1-0.36c-0.04-0.07-0.1-0.13-0.19-0.18c-0.09-0.05-0.18-0.1-0.29-0.13c-0.1-0.03-0.2-0.05-0.31-0.05
			c-0.1,0-0.19,0.02-0.25,0.06c-0.13,0.08-0.26,0.16-0.37,0.26c-0.11,0.1-0.2,0.2-0.27,0.3c-0.07,0.1-0.11,0.21-0.12,0.32
			C196.27,20.08,196.3,20.18,196.37,20.27z"/>
		<path class="st3" d="M199.05,19.95c-0.03-0.05-0.05-0.13-0.06-0.22c-0.02-0.09-0.03-0.19-0.03-0.29c-0.01-0.1-0.01-0.2-0.01-0.3
			c0-0.1,0-0.17,0-0.22l-0.4-3.1c-0.02-0.06-0.04-0.13-0.07-0.22c-0.03-0.09-0.06-0.17-0.08-0.26c-0.02-0.09-0.03-0.17-0.03-0.25
			c0-0.08,0.02-0.14,0.06-0.18c0.04-0.01,0.07-0.01,0.1,0c0.03,0.01,0.05,0.03,0.07,0.05c0.02,0.02,0.04,0.05,0.05,0.08
			c0.01,0.03,0.02,0.05,0.04,0.08c0.03,0.06,0.07,0.17,0.11,0.34c0.04,0.17,0.09,0.37,0.13,0.61c0.05,0.24,0.09,0.5,0.14,0.79
			c0.05,0.29,0.09,0.57,0.13,0.87c0.04,0.29,0.08,0.57,0.11,0.85c0.03,0.28,0.05,0.52,0.07,0.73c0.02,0.21,0.02,0.39,0.01,0.53
			c-0.01,0.14-0.02,0.22-0.06,0.23c-0.05,0.03-0.1,0.02-0.16-0.01C199.11,20.02,199.07,19.99,199.05,19.95z"/>
		<path class="st3" d="M202.45,18.33c-0.14,0.06-0.27,0.14-0.4,0.22c-0.12,0.08-0.26,0.15-0.4,0.22c-0.08,0.04-0.16,0.06-0.26,0.08
			c-0.09,0.02-0.18,0.03-0.28,0.02c-0.09-0.01-0.18-0.04-0.26-0.08c-0.08-0.04-0.15-0.11-0.21-0.2c-0.03-0.06-0.05-0.11-0.04-0.16
			c0.01-0.05,0.03-0.09,0.06-0.13c0.03-0.04,0.07-0.07,0.12-0.1c0.05-0.03,0.09-0.05,0.13-0.07c0.09-0.04,0.19-0.07,0.29-0.08
			c0.1-0.01,0.2-0.02,0.3-0.02s0.2,0,0.3-0.01c0.1-0.01,0.2-0.03,0.29-0.08c0.08-0.04,0.15-0.1,0.19-0.19s0.08-0.19,0.09-0.3
			c0.02-0.11,0.02-0.24,0.01-0.37c-0.01-0.13-0.02-0.26-0.04-0.38c-0.02-0.12-0.04-0.23-0.07-0.33c-0.03-0.1-0.05-0.18-0.07-0.23
			c-0.02-0.06-0.07-0.13-0.13-0.23s-0.14-0.19-0.22-0.28c-0.08-0.09-0.17-0.16-0.26-0.21c-0.09-0.05-0.18-0.06-0.27-0.02
			c-0.08,0.04-0.13,0.09-0.15,0.17c-0.01,0.08-0.02,0.16-0.01,0.24c0.01,0.08,0.02,0.16,0.03,0.24c0.01,0.08-0.01,0.13-0.05,0.17
			c-0.08-0.01-0.13-0.05-0.17-0.11c-0.04-0.06-0.07-0.12-0.09-0.17c-0.04-0.08-0.05-0.16-0.06-0.24c0-0.08,0.01-0.16,0.04-0.24
			c0.03-0.08,0.08-0.15,0.14-0.21c0.06-0.06,0.13-0.11,0.22-0.15c0.14-0.06,0.27-0.07,0.41-0.03c0.14,0.04,0.26,0.11,0.38,0.2
			c0.12,0.1,0.22,0.21,0.31,0.33c0.09,0.13,0.16,0.24,0.21,0.34c0.05,0.1,0.08,0.2,0.11,0.28c0.03,0.08,0.05,0.17,0.07,0.25
			c0.02,0.08,0.03,0.17,0.03,0.27c0,0.1,0.01,0.21,0.01,0.34c-0.02,0.03-0.04,0.08-0.06,0.14c-0.02,0.06-0.03,0.13-0.05,0.2
			c-0.01,0.07-0.02,0.13-0.02,0.19c0,0.06,0,0.11,0.02,0.14c0.02,0.04,0.05,0.06,0.1,0.06c0.05,0,0.11,0,0.17-0.02
			c0.06-0.01,0.13-0.03,0.2-0.05c0.07-0.02,0.14-0.04,0.2-0.05c0.06-0.01,0.13-0.01,0.18,0c0.05,0.01,0.09,0.04,0.12,0.1
			c0.02,0.04,0.02,0.09-0.01,0.14c-0.01,0.05-0.04,0.09-0.09,0.11c-0.09,0.04-0.18,0.07-0.27,0.09c-0.09,0.02-0.19,0.04-0.28,0.05
			c-0.09,0.02-0.19,0.03-0.28,0.05C202.62,18.27,202.53,18.3,202.45,18.33z"/>
		<path class="st3" d="M203.43,16.53c-0.05-0.14-0.07-0.3-0.06-0.48c0.02-0.18,0.06-0.37,0.13-0.54c0.07-0.18,0.16-0.34,0.28-0.48
			c0.12-0.14,0.25-0.24,0.4-0.3c0.09-0.03,0.19-0.05,0.3-0.04c0.11,0.01,0.22,0.03,0.33,0.07c0.11,0.04,0.22,0.09,0.33,0.15
			c0.11,0.06,0.21,0.14,0.3,0.21c0.09,0.08,0.17,0.16,0.24,0.25c0.07,0.09,0.12,0.17,0.15,0.26c0.06,0.15,0.1,0.32,0.11,0.5
			c0.02,0.18,0,0.35-0.04,0.51c-0.04,0.17-0.11,0.32-0.21,0.45c-0.1,0.14-0.24,0.24-0.42,0.3c-0.19,0.07-0.37,0.1-0.56,0.09
			c-0.19-0.01-0.37-0.05-0.53-0.13c-0.17-0.08-0.32-0.19-0.45-0.33C203.6,16.88,203.5,16.72,203.43,16.53z M203.71,16.38
			c0.04,0.15,0.1,0.28,0.19,0.39c0.09,0.11,0.19,0.2,0.32,0.26c0.12,0.06,0.26,0.1,0.4,0.11c0.14,0.01,0.28-0.01,0.43-0.06
			c0.05-0.02,0.1-0.04,0.13-0.06c0.04-0.02,0.07-0.04,0.1-0.07c0.03-0.03,0.07-0.06,0.1-0.1c0.03-0.04,0.07-0.09,0.12-0.14
			c-0.01-0.06-0.01-0.12,0-0.17c0.01-0.05,0.03-0.11,0.04-0.17c0.02-0.06,0.03-0.13,0.03-0.21c0-0.08-0.01-0.16-0.05-0.27
			c-0.05-0.13-0.12-0.26-0.21-0.37c-0.09-0.11-0.19-0.2-0.31-0.27c-0.12-0.07-0.25-0.11-0.38-0.12c-0.14-0.01-0.28,0.01-0.43,0.06
			c-0.1,0.04-0.19,0.1-0.27,0.19c-0.07,0.09-0.13,0.19-0.16,0.31c-0.04,0.11-0.06,0.23-0.06,0.35
			C203.67,16.17,203.68,16.28,203.71,16.38z"/>
	</g>
</g>
<g>
	<g>
		<circle class="st0" cx="380.15" cy="66.54" r="66.42"/>
		<circle class="st0" cx="380.15" cy="66.54" r="62.2"/>
		<circle class="st1" cx="380.15" cy="66.54" r="58.53"/>
		<path class="st2" d="M316.34,58.54c0,0,3.17-33.21,33.12-47.9"/>
		<path class="st2" d="M443.77,75.33c0,0-3.17,33.21-33.12,47.9"/>
	</g>
	<g>
		<path class="st3" d="M327.19,61.17c-0.14-0.02-0.3-0.07-0.47-0.16c-0.18-0.09-0.36-0.2-0.53-0.33c-0.18-0.13-0.35-0.29-0.52-0.45
			c-0.17-0.17-0.31-0.34-0.44-0.52c-0.13-0.18-0.22-0.35-0.29-0.52c-0.07-0.18-0.09-0.34-0.07-0.49c0-0.04,0.02-0.08,0.04-0.12
			c0.02-0.04,0.05-0.08,0.09-0.11c0.03-0.03,0.07-0.06,0.11-0.08c0.04-0.02,0.08-0.03,0.12-0.02c0.03,0,0.07,0.02,0.12,0.03
			s0.07,0.05,0.06,0.09c0,0.03-0.01,0.05-0.03,0.07c-0.02,0.02-0.03,0.04-0.05,0.06c-0.02,0.02-0.04,0.04-0.05,0.07
			c-0.02,0.02-0.03,0.05-0.03,0.08c-0.02,0.15,0,0.3,0.06,0.45s0.15,0.31,0.26,0.45c0.11,0.15,0.25,0.29,0.4,0.42
			c0.15,0.13,0.31,0.25,0.48,0.35c0.17,0.1,0.33,0.19,0.49,0.25c0.16,0.07,0.31,0.11,0.44,0.12c0.21,0.03,0.38,0.01,0.52-0.04
			s0.26-0.14,0.35-0.25c0.09-0.11,0.17-0.24,0.22-0.39c0.06-0.15,0.11-0.31,0.15-0.49c0.02-0.03,0.04-0.05,0.06-0.05
			c0.02,0,0.05,0,0.07,0c0.06,0.01,0.1,0.04,0.12,0.08c0.02,0.05,0.03,0.1,0.04,0.16c0,0.06,0,0.11-0.01,0.17
			c-0.01,0.06-0.02,0.1-0.02,0.13c-0.02,0.2-0.09,0.37-0.2,0.51c-0.11,0.14-0.24,0.25-0.4,0.33s-0.33,0.13-0.52,0.16
			C327.56,61.19,327.38,61.2,327.19,61.17z"/>
		<path class="st3" d="M326.96,56.75c0.01-0.06,0.02-0.12,0.04-0.19c0.01-0.07,0.04-0.13,0.07-0.19c0.03-0.06,0.07-0.1,0.12-0.13
			c0.05-0.03,0.11-0.04,0.19-0.03c0.09,0.02,0.13,0.06,0.11,0.14c-0.02,0.09-0.04,0.18-0.08,0.25c-0.04,0.07-0.06,0.16-0.08,0.26
			c-0.02,0.12-0.03,0.25-0.04,0.37c-0.01,0.12-0.01,0.25-0.02,0.37c0,0.13-0.01,0.25-0.01,0.37c-0.01,0.12-0.02,0.25-0.04,0.37
			c-0.1-0.02-0.18-0.06-0.23-0.11c-0.05-0.06-0.09-0.13-0.11-0.21c-0.02-0.08-0.03-0.17-0.03-0.27c0-0.1,0.01-0.2,0.03-0.3
			c0.02-0.1,0.03-0.2,0.04-0.3c0.02-0.1,0.02-0.19,0.03-0.26l0-0.02c0-0.01,0-0.03,0-0.04c0-0.02,0-0.03,0.01-0.05
			C326.96,56.77,326.96,56.76,326.96,56.75z"/>
		<path class="st3" d="M329.34,56.29c-0.03-0.01-0.08-0.05-0.13-0.13c-0.05-0.08-0.12-0.18-0.2-0.3c-0.08-0.12-0.17-0.25-0.26-0.4
			c-0.1-0.14-0.21-0.28-0.33-0.41c-0.12-0.13-0.26-0.25-0.4-0.35c-0.15-0.1-0.3-0.17-0.47-0.21c-0.16-0.03-0.32-0.04-0.47-0.03
			c-0.15,0.02-0.31,0.05-0.46,0.1c-0.15,0.05-0.29,0.11-0.43,0.19c-0.14,0.08-0.27,0.16-0.4,0.25c0.01,0.03,0.01,0.06-0.01,0.09
			c-0.02,0.03-0.04,0.05-0.06,0.07c-0.03,0.02-0.05,0.03-0.09,0.04c-0.03,0.01-0.06,0.01-0.09,0.01c-0.06-0.01-0.1-0.04-0.1-0.08
			c0-0.04,0-0.09,0.01-0.14c0.03-0.13,0.08-0.24,0.17-0.34s0.19-0.18,0.31-0.26c0.12-0.07,0.26-0.13,0.41-0.18
			c0.15-0.05,0.3-0.08,0.44-0.11c0.15-0.02,0.29-0.03,0.43-0.03c0.14,0,0.26,0.01,0.36,0.03s0.23,0.07,0.37,0.15
			c0.15,0.08,0.3,0.18,0.46,0.3c0.16,0.12,0.32,0.25,0.48,0.39c0.16,0.14,0.3,0.29,0.41,0.43s0.21,0.29,0.27,0.43
			c0.06,0.14,0.08,0.26,0.06,0.37c-0.01,0.03-0.02,0.05-0.04,0.06c-0.02,0.02-0.05,0.03-0.07,0.04c-0.03,0.01-0.06,0.01-0.09,0.01
			C329.38,56.3,329.36,56.29,329.34,56.29z"/>
		<path class="st3" d="M329.96,49.34c-0.14-0.06-0.3-0.13-0.48-0.2c-0.18-0.08-0.36-0.15-0.53-0.24c-0.18-0.08-0.35-0.16-0.51-0.24
			c-0.16-0.08-0.3-0.16-0.42-0.23c-0.12-0.07-0.2-0.14-0.26-0.2c-0.06-0.07-0.06-0.11-0.02-0.15c0.03-0.05,0.09-0.07,0.17-0.06
			c0.09,0.01,0.2,0.05,0.33,0.1c0.13,0.05,0.28,0.13,0.44,0.21c0.16,0.09,0.33,0.17,0.5,0.26c0.17,0.09,0.34,0.17,0.52,0.25
			c0.17,0.08,0.33,0.14,0.48,0.19c0.04,0.01,0.09,0.02,0.14,0.03c0.05,0,0.1,0,0.15-0.01c0.05-0.01,0.1-0.03,0.14-0.05
			c0.05-0.03,0.08-0.07,0.1-0.11l0.55-1.18c0.02-0.04,0.05-0.05,0.08-0.04c0.04,0.01,0.07,0.01,0.09,0.02
			c0.07,0.03,0.11,0.07,0.12,0.12c0.01,0.05,0.01,0.12,0,0.2c-0.01,0.02-0.02,0.05-0.03,0.09c-0.01,0.04-0.03,0.09-0.04,0.14
			c-0.02,0.05-0.03,0.09-0.04,0.13c-0.01,0.04-0.02,0.07-0.03,0.08c-0.07,0.19-0.14,0.35-0.23,0.5c-0.08,0.15-0.18,0.26-0.3,0.34
			c-0.11,0.08-0.25,0.13-0.4,0.15C330.34,49.44,330.17,49.41,329.96,49.34z"/>
		<path class="st3" d="M332.25,45.79c-0.01,0.01-0.04,0.03-0.09,0.07c-0.05,0.04-0.11,0.08-0.17,0.12c-0.06,0.04-0.13,0.07-0.19,0.1
			c-0.06,0.02-0.11,0.02-0.15,0c-0.04-0.04-0.06-0.07-0.06-0.11c0-0.04-0.01-0.08-0.01-0.12c0-0.04-0.01-0.08-0.03-0.11
			c-0.02-0.04-0.06-0.07-0.13-0.09c-0.5-0.14-0.95-0.26-1.34-0.37c-0.39-0.1-0.72-0.18-0.99-0.23c-0.27-0.05-0.49-0.06-0.65-0.04
			c-0.16,0.02-0.26,0.08-0.31,0.19l0,0.01l-0.01,0.01l0,0.01c0.01,0.04,0.01,0.09,0.01,0.15c0,0.06,0,0.13-0.01,0.2
			c0,0.07-0.01,0.14-0.02,0.21c-0.01,0.07-0.01,0.12-0.02,0.16c0,0.01-0.01,0.02-0.01,0.03c0,0.01-0.01,0.02-0.01,0.02l-0.18-0.08
			c-0.04-0.02-0.06-0.07-0.07-0.16s0-0.19,0.01-0.31c0.01-0.12,0.03-0.26,0.06-0.4c0.03-0.14,0.06-0.28,0.09-0.41
			c0.03-0.13,0.06-0.24,0.09-0.34c0.03-0.1,0.05-0.17,0.06-0.2c0.03-0.07,0.08-0.15,0.13-0.24s0.13-0.18,0.21-0.28
			c0.08-0.09,0.17-0.18,0.26-0.27c0.1-0.08,0.19-0.15,0.29-0.21c0.1-0.05,0.2-0.09,0.3-0.11c0.1-0.02,0.19-0.01,0.29,0.04
			c0.1,0.05,0.19,0.11,0.26,0.19c0.07,0.08,0.13,0.16,0.17,0.25c0.05,0.08,0.09,0.16,0.12,0.22c0.04,0.06,0.08,0.11,0.13,0.13
			c0.01,0,0.05-0.02,0.12-0.09c0.07-0.06,0.17-0.14,0.29-0.23c0.12-0.09,0.26-0.18,0.42-0.28c0.16-0.09,0.33-0.18,0.5-0.24
			c0.17-0.07,0.35-0.11,0.52-0.13c0.18-0.02,0.34,0.01,0.5,0.08c0.17,0.07,0.29,0.17,0.37,0.29c0.08,0.12,0.13,0.25,0.14,0.4
			c0.02,0.14,0.01,0.29-0.02,0.44c-0.03,0.15-0.08,0.29-0.13,0.43c-0.06,0.13-0.11,0.24-0.16,0.34c-0.05,0.1-0.1,0.19-0.16,0.29
			c-0.06,0.09-0.12,0.19-0.19,0.3C332.44,45.53,332.35,45.65,332.25,45.79z M331.61,45.31c0.06,0.09,0.12,0.13,0.19,0.14
			c0.07,0.01,0.14-0.01,0.21-0.06c0.07-0.05,0.14-0.11,0.21-0.2c0.07-0.08,0.13-0.17,0.18-0.26c0.06-0.09,0.1-0.17,0.13-0.25
			c0.03-0.08,0.06-0.14,0.07-0.18c0.05-0.12,0.1-0.24,0.14-0.36c0.04-0.12,0.06-0.23,0.05-0.34c0-0.1-0.03-0.2-0.09-0.29
			c-0.06-0.09-0.16-0.16-0.29-0.22c-0.2-0.08-0.38-0.11-0.55-0.06c-0.17,0.04-0.34,0.12-0.5,0.23c-0.16,0.11-0.31,0.24-0.45,0.39
			c-0.14,0.15-0.27,0.29-0.39,0.42c-0.12,0.13-0.23,0.23-0.34,0.3c-0.1,0.07-0.2,0.09-0.28,0.05c-0.04-0.02-0.07-0.06-0.07-0.11
			c-0.01-0.06,0-0.12,0.01-0.2c0.01-0.08,0.02-0.16,0.03-0.25c0.01-0.09,0.01-0.18,0-0.27c-0.01-0.09-0.04-0.17-0.08-0.24
			s-0.12-0.13-0.23-0.18c-0.09-0.04-0.18-0.05-0.26-0.03c-0.09,0.02-0.17,0.05-0.25,0.1c-0.08,0.05-0.15,0.12-0.21,0.19
			c-0.06,0.07-0.11,0.15-0.14,0.22c-0.05,0.11-0.09,0.23-0.11,0.36c-0.03,0.13-0.02,0.25,0.01,0.37c0.22,0.04,0.47,0.09,0.74,0.13
			s0.54,0.1,0.81,0.15c0.27,0.06,0.54,0.12,0.79,0.19C331.19,45.15,331.42,45.23,331.61,45.31z"/>
		<path class="st3" d="M333.03,41.64c-0.04,0.08-0.07,0.15-0.1,0.23c-0.03,0.08-0.05,0.16-0.08,0.24c-0.02,0.08-0.05,0.16-0.07,0.24
			s-0.06,0.15-0.1,0.23c-0.03,0.06-0.06,0.08-0.1,0.08c-0.03,0-0.06-0.01-0.1-0.03c-0.05-0.03-0.08-0.05-0.09-0.07
			c-0.01-0.02-0.01-0.06,0.01-0.13c0.01-0.03,0.03-0.09,0.05-0.18c0.03-0.09,0.05-0.18,0.08-0.27c0.03-0.1,0.06-0.19,0.08-0.27
			c0.03-0.09,0.04-0.15,0.05-0.18c0.01-0.02,0-0.04-0.01-0.06c-0.01-0.02-0.03-0.03-0.05-0.05c-0.02-0.01-0.04-0.02-0.06-0.03
			c-0.02-0.01-0.03-0.02-0.04-0.02c-0.06-0.03-0.13-0.06-0.19-0.08c-0.07-0.02-0.13-0.04-0.2-0.06c-0.07-0.02-0.14-0.04-0.21-0.06
			c-0.07-0.02-0.13-0.05-0.19-0.08l-0.02-0.01c-0.01-0.01-0.02-0.04-0.03-0.08c-0.01-0.04-0.02-0.07-0.03-0.09l0.01-0.01
			c0,0,0-0.01,0-0.01l0.01-0.01l0-0.01c0,0.01,0,0,0.01,0l0.01-0.02l0.17-0.05l0.89,0.19l0.09-0.02l0.06-0.08
			c0.05-0.06,0.1-0.13,0.16-0.21c0.06-0.08,0.12-0.17,0.18-0.25s0.11-0.16,0.15-0.22c0.01-0.01,0.02-0.03,0.04-0.06
			c0.02-0.03,0.04-0.06,0.06-0.09c0.02-0.03,0.05-0.05,0.08-0.07c0.03-0.02,0.05-0.02,0.08,0c0.01,0.01,0.03,0.02,0.04,0.05
			c0.02,0.03,0.03,0.06,0.05,0.09c0.01,0.03,0.03,0.06,0.04,0.09c0.01,0.03,0.01,0.05,0.01,0.06l-0.46,0.88l0.99,0.52l0.01,0.03
			c0,0.02,0.01,0.04,0.01,0.06c0,0.02,0.01,0.04,0.01,0.07c0,0.03,0,0.05,0,0.06c0,0.01,0,0.01,0,0.02l-0.01,0.01
			c-0.02,0.04-0.06,0.06-0.11,0.06c-0.05,0-0.1-0.01-0.16-0.03c-0.05-0.02-0.1-0.05-0.15-0.07c-0.04-0.03-0.08-0.05-0.1-0.05
			c-0.03-0.01-0.08-0.03-0.15-0.05c-0.07-0.02-0.14-0.05-0.22-0.08c-0.08-0.03-0.15-0.05-0.22-0.07c-0.07-0.02-0.12-0.04-0.14-0.05
			L333.03,41.64z"/>
		<path class="st3" d="M332.94,37c-0.16,0.26-0.34,0.51-0.54,0.76c-0.2,0.25-0.4,0.49-0.6,0.71c-0.01,0.04-0.03,0.06-0.06,0.07
			c-0.03,0.01-0.06,0.01-0.09,0c-0.03-0.01-0.07-0.02-0.09-0.03c-0.03-0.01-0.05-0.03-0.06-0.03c0.03-0.06,0.09-0.15,0.18-0.29
			c0.08-0.14,0.18-0.29,0.3-0.48c0.12-0.18,0.25-0.38,0.39-0.6c0.14-0.21,0.29-0.43,0.44-0.64s0.3-0.41,0.44-0.61
			c0.15-0.19,0.28-0.36,0.41-0.5c0.13-0.14,0.24-0.25,0.34-0.31c0.1-0.07,0.17-0.09,0.23-0.06c0.04,0.02,0.07,0.05,0.1,0.08
			c0.03,0.03,0.03,0.07,0.01,0.12c-0.09,0.13-0.19,0.25-0.31,0.36c-0.11,0.11-0.23,0.22-0.34,0.34c-0.11,0.11-0.22,0.23-0.31,0.36
			c-0.1,0.13-0.17,0.28-0.21,0.45c0.17,0.1,0.36,0.21,0.58,0.31c0.22,0.1,0.44,0.21,0.67,0.31c0.23,0.1,0.46,0.2,0.69,0.29
			c0.23,0.09,0.45,0.18,0.66,0.26c0.05,0.02,0.11,0.04,0.17,0.04c0.06,0,0.12,0.01,0.18,0.01c0.06,0,0.12,0.01,0.17,0.01
			c0.06,0.01,0.11,0.03,0.15,0.05c0.03,0.02,0.05,0.04,0.05,0.07s0,0.06-0.01,0.09c-0.01,0.03-0.02,0.06-0.04,0.09
			c-0.02,0.03-0.03,0.05-0.04,0.07c-0.04,0.07-0.11,0.11-0.2,0.12c-0.08,0.01-0.17,0-0.27-0.03c-0.09-0.03-0.18-0.06-0.27-0.11
			s-0.16-0.08-0.22-0.1c-0.22-0.1-0.44-0.19-0.64-0.29c-0.2-0.09-0.41-0.19-0.61-0.29c-0.2-0.1-0.4-0.2-0.61-0.31
			C333.37,37.22,333.16,37.11,332.94,37z"/>
		<path class="st3" d="M343.92,26.96c-0.1-0.11-0.17-0.25-0.22-0.43c-0.05-0.18-0.08-0.36-0.08-0.55c0-0.19,0.03-0.37,0.09-0.55
			c0.06-0.18,0.15-0.32,0.26-0.42c0.07-0.07,0.16-0.11,0.27-0.14c0.1-0.03,0.21-0.05,0.33-0.05c0.12,0,0.24,0.01,0.36,0.03
			c0.12,0.02,0.24,0.05,0.36,0.09c0.11,0.04,0.22,0.09,0.31,0.15c0.1,0.06,0.17,0.12,0.23,0.19c0.11,0.12,0.2,0.26,0.28,0.42
			c0.08,0.16,0.13,0.32,0.15,0.49c0.02,0.17,0.01,0.33-0.03,0.5c-0.05,0.16-0.14,0.31-0.28,0.43c-0.15,0.13-0.31,0.23-0.49,0.28
			c-0.18,0.06-0.36,0.08-0.55,0.07c-0.18-0.01-0.36-0.06-0.53-0.15S344.06,27.11,343.92,26.96z M344.13,26.71
			c0.09,0.13,0.19,0.22,0.31,0.3c0.12,0.07,0.25,0.12,0.39,0.13c0.14,0.02,0.28,0,0.41-0.04c0.14-0.04,0.26-0.11,0.37-0.21
			c0.04-0.04,0.08-0.07,0.1-0.1c0.03-0.03,0.05-0.07,0.07-0.11c0.02-0.04,0.04-0.08,0.06-0.13c0.02-0.05,0.04-0.11,0.06-0.17
			c-0.03-0.05-0.05-0.1-0.06-0.16c-0.01-0.06-0.01-0.11-0.02-0.18c-0.01-0.06-0.02-0.13-0.05-0.2c-0.02-0.07-0.07-0.15-0.14-0.23
			c-0.1-0.11-0.2-0.2-0.33-0.27c-0.12-0.07-0.25-0.12-0.39-0.14c-0.13-0.02-0.27-0.01-0.4,0.02c-0.13,0.04-0.26,0.11-0.38,0.21
			c-0.08,0.07-0.14,0.17-0.18,0.28c-0.04,0.11-0.05,0.22-0.04,0.34c0.01,0.12,0.03,0.24,0.07,0.35
			C344.02,26.53,344.07,26.63,344.13,26.71z"/>
		<path class="st3" d="M347.52,23.92c-0.03,0.06-0.05,0.14-0.08,0.23c-0.03,0.09-0.06,0.17-0.1,0.26c-0.04,0.08-0.08,0.16-0.13,0.23
			c-0.05,0.07-0.11,0.13-0.19,0.16c-0.13,0.1-0.27,0.16-0.42,0.15c-0.15,0-0.29-0.04-0.44-0.1c-0.14-0.07-0.28-0.15-0.4-0.25
			c-0.12-0.1-0.22-0.21-0.3-0.31c-0.09-0.11-0.16-0.22-0.23-0.31c-0.06-0.1-0.11-0.2-0.16-0.3s-0.09-0.21-0.13-0.32
			c-0.04-0.11-0.09-0.25-0.14-0.39c-0.02-0.04-0.02-0.08-0.01-0.12c0.02-0.04,0.04-0.08,0.08-0.11c0.04-0.03,0.07-0.05,0.12-0.06
			c0.04-0.01,0.07,0,0.09,0.04c0.07,0.09,0.13,0.19,0.17,0.31c0.04,0.12,0.08,0.24,0.12,0.36c0.04,0.12,0.08,0.25,0.12,0.37
			c0.04,0.12,0.11,0.23,0.19,0.33c0.06,0.07,0.13,0.14,0.21,0.21c0.09,0.07,0.18,0.13,0.27,0.17c0.1,0.04,0.19,0.06,0.29,0.06
			c0.1,0,0.19-0.03,0.27-0.1c0.11-0.09,0.2-0.2,0.24-0.33c0.05-0.13,0.08-0.27,0.09-0.41c0.01-0.14,0-0.29-0.02-0.43
			c-0.02-0.14-0.05-0.27-0.08-0.39c-0.03-0.12-0.06-0.21-0.08-0.28c-0.03-0.07-0.04-0.1-0.03-0.11c0.08-0.06,0.15-0.09,0.19-0.09
			c0.04,0.01,0.09,0.04,0.12,0.08c0.05,0.07,0.11,0.15,0.16,0.25s0.1,0.2,0.15,0.3c0.05,0.1,0.1,0.21,0.16,0.3
			c0.06,0.1,0.11,0.18,0.17,0.25c0.07,0.08,0.14,0.16,0.21,0.23c0.08,0.07,0.15,0.15,0.23,0.22c0.08,0.07,0.16,0.14,0.23,0.21
			c0.07,0.07,0.14,0.15,0.2,0.22c0.05,0.07,0.08,0.14,0.08,0.22c0,0.08-0.04,0.15-0.1,0.2c-0.04,0.04-0.1,0.03-0.16-0.01
			c-0.06-0.04-0.13-0.1-0.21-0.18c-0.08-0.08-0.15-0.17-0.23-0.27c-0.08-0.1-0.15-0.19-0.22-0.27c-0.07-0.08-0.13-0.15-0.19-0.19
			C347.59,23.9,347.55,23.89,347.52,23.92z"/>
		<path class="st3" d="M348.92,24.38c-0.04-0.05-0.07-0.12-0.1-0.21c-0.03-0.09-0.06-0.18-0.08-0.28c-0.02-0.1-0.04-0.2-0.06-0.29
			c-0.02-0.09-0.03-0.17-0.03-0.22l-0.88-3c-0.02-0.06-0.06-0.13-0.1-0.21c-0.04-0.08-0.08-0.16-0.12-0.25
			c-0.03-0.08-0.06-0.16-0.07-0.24c-0.02-0.08-0.01-0.14,0.03-0.19c0.04-0.02,0.07-0.02,0.1-0.01s0.05,0.02,0.07,0.04
			c0.02,0.02,0.04,0.04,0.06,0.07c0.02,0.03,0.03,0.05,0.05,0.07c0.04,0.05,0.09,0.16,0.16,0.32c0.07,0.16,0.15,0.36,0.23,0.58
			c0.08,0.23,0.17,0.48,0.26,0.75c0.09,0.28,0.18,0.55,0.27,0.83c0.09,0.28,0.17,0.56,0.24,0.82c0.07,0.27,0.13,0.51,0.18,0.72
			s0.08,0.38,0.1,0.52c0.02,0.14,0.01,0.22-0.02,0.24c-0.05,0.03-0.1,0.04-0.16,0.02C348.98,24.44,348.94,24.41,348.92,24.38z"/>
		<path class="st3" d="M349.9,22.14c-0.08-0.12-0.13-0.28-0.16-0.46c-0.03-0.18-0.02-0.37,0-0.56c0.03-0.19,0.08-0.36,0.17-0.53
			s0.19-0.29,0.32-0.38c0.08-0.05,0.18-0.09,0.28-0.1c0.11-0.02,0.22-0.02,0.33,0c0.12,0.01,0.24,0.04,0.35,0.08
			c0.12,0.04,0.23,0.09,0.34,0.14c0.11,0.06,0.2,0.12,0.29,0.19c0.09,0.07,0.15,0.14,0.2,0.22c0.09,0.14,0.16,0.29,0.22,0.46
			c0.05,0.17,0.08,0.34,0.08,0.51c0,0.17-0.04,0.33-0.11,0.49c-0.07,0.15-0.18,0.28-0.34,0.39c-0.17,0.11-0.34,0.18-0.53,0.21
			c-0.19,0.03-0.37,0.03-0.55-0.01c-0.18-0.04-0.35-0.11-0.51-0.22C350.14,22.44,350.01,22.3,349.9,22.14z M350.14,21.92
			c0.07,0.14,0.16,0.25,0.27,0.34c0.11,0.09,0.23,0.15,0.37,0.19c0.13,0.04,0.27,0.04,0.41,0.02c0.14-0.02,0.27-0.07,0.4-0.15
			c0.05-0.03,0.08-0.06,0.12-0.09c0.03-0.03,0.06-0.06,0.08-0.09c0.03-0.04,0.05-0.08,0.07-0.12c0.02-0.05,0.05-0.1,0.08-0.16
			c-0.03-0.06-0.04-0.11-0.04-0.17c0-0.06,0-0.12,0.01-0.18c0-0.06,0-0.13-0.02-0.21c-0.01-0.07-0.05-0.16-0.11-0.25
			c-0.08-0.12-0.17-0.22-0.29-0.31c-0.11-0.09-0.23-0.15-0.36-0.19c-0.13-0.04-0.26-0.05-0.4-0.04c-0.14,0.02-0.27,0.07-0.41,0.16
			c-0.09,0.06-0.17,0.14-0.22,0.25c-0.05,0.1-0.08,0.22-0.09,0.34s-0.01,0.24,0.02,0.36C350.06,21.72,350.09,21.83,350.14,21.92z"/>
		<path class="st3" d="M352.34,20.62c-0.09-0.15-0.15-0.32-0.21-0.51c-0.05-0.19-0.08-0.4-0.1-0.61c-0.01-0.21,0-0.42,0.02-0.64
			c0.03-0.22,0.07-0.42,0.14-0.62c0.07-0.2,0.15-0.38,0.26-0.54c0.11-0.17,0.23-0.3,0.38-0.41c0.03-0.02,0.08-0.05,0.13-0.07
			c0.05-0.02,0.11-0.03,0.17-0.03c0.06,0,0.11,0,0.16,0.02c0.05,0.02,0.09,0.05,0.12,0.1c0.01,0.02,0.02,0.05,0.03,0.08
			c0.01,0.03,0.01,0.06,0.02,0.09c0,0.03,0,0.06-0.01,0.09c-0.01,0.03-0.02,0.05-0.05,0.06c-0.01,0-0.03,0.01-0.07,0
			c-0.04,0-0.08,0-0.12-0.01c-0.04,0-0.08,0-0.12,0c-0.04,0-0.07,0-0.09,0.01L353,17.63c-0.07,0.04-0.15,0.11-0.21,0.2
			c-0.07,0.09-0.13,0.2-0.19,0.33c-0.06,0.13-0.11,0.26-0.15,0.4c-0.04,0.14-0.07,0.28-0.09,0.42c-0.02,0.14-0.02,0.27-0.01,0.39
			c0.01,0.12,0.04,0.21,0.08,0.29l0.02,0.03c0.06-0.08,0.12-0.14,0.17-0.19c0.05-0.05,0.1-0.09,0.16-0.14
			c0.05-0.04,0.11-0.08,0.17-0.11c0.06-0.03,0.13-0.07,0.2-0.12c0.15-0.08,0.29-0.14,0.44-0.16c0.15-0.02,0.3-0.02,0.44,0.02
			c0.14,0.04,0.27,0.1,0.4,0.19c0.12,0.09,0.23,0.21,0.32,0.36c0.1,0.17,0.15,0.34,0.14,0.51c-0.01,0.17-0.05,0.33-0.13,0.47
			c-0.08,0.15-0.19,0.28-0.32,0.41c-0.13,0.12-0.27,0.23-0.43,0.32c-0.17,0.1-0.34,0.15-0.5,0.15c-0.16,0-0.31-0.03-0.46-0.1
			c-0.14-0.07-0.28-0.16-0.39-0.28C352.53,20.91,352.42,20.77,352.34,20.62z M352.68,20.57c0.18,0.2,0.38,0.32,0.57,0.36
			c0.2,0.04,0.4,0,0.61-0.1c0.1-0.06,0.2-0.13,0.3-0.21c0.09-0.08,0.17-0.17,0.23-0.27c0.06-0.1,0.09-0.21,0.09-0.32
			c0.01-0.11-0.03-0.23-0.1-0.36c-0.04-0.07-0.1-0.13-0.19-0.18c-0.09-0.05-0.18-0.1-0.29-0.13c-0.1-0.03-0.21-0.05-0.31-0.04
			c-0.1,0-0.19,0.02-0.25,0.06c-0.13,0.08-0.26,0.17-0.37,0.26c-0.11,0.1-0.2,0.2-0.27,0.31c-0.07,0.11-0.11,0.21-0.12,0.32
			C352.57,20.38,352.6,20.48,352.68,20.57z"/>
		<path class="st3" d="M355.37,20.21c-0.03-0.05-0.05-0.13-0.07-0.22c-0.02-0.09-0.03-0.19-0.04-0.29c-0.01-0.1-0.01-0.2-0.01-0.3
			c0-0.09,0-0.17,0-0.22l-0.43-3.09c-0.02-0.06-0.04-0.13-0.07-0.22s-0.06-0.17-0.08-0.26c-0.02-0.09-0.03-0.17-0.04-0.25
			c0-0.08,0.02-0.14,0.06-0.18c0.04-0.01,0.07-0.01,0.1,0c0.03,0.01,0.05,0.03,0.07,0.05c0.02,0.02,0.04,0.05,0.05,0.08
			c0.01,0.03,0.02,0.05,0.04,0.08c0.03,0.06,0.07,0.17,0.11,0.34c0.05,0.17,0.09,0.37,0.14,0.61c0.05,0.24,0.1,0.5,0.15,0.78
			c0.05,0.29,0.1,0.57,0.14,0.86c0.04,0.29,0.08,0.57,0.12,0.85c0.03,0.28,0.06,0.52,0.07,0.73c0.02,0.21,0.02,0.39,0.02,0.53
			c0,0.14-0.02,0.22-0.05,0.23c-0.05,0.03-0.1,0.02-0.16-0.01C355.42,20.28,355.39,20.25,355.37,20.21z"/>
		<path class="st3" d="M358.74,18.56c-0.14,0.06-0.27,0.14-0.39,0.22c-0.12,0.08-0.25,0.16-0.4,0.22c-0.08,0.04-0.16,0.06-0.26,0.09
			c-0.09,0.02-0.18,0.03-0.28,0.02c-0.09-0.01-0.18-0.03-0.26-0.07c-0.08-0.04-0.15-0.11-0.21-0.2c-0.03-0.06-0.05-0.11-0.04-0.16
			c0.01-0.05,0.03-0.09,0.06-0.13c0.03-0.04,0.07-0.08,0.12-0.1c0.05-0.03,0.09-0.05,0.13-0.07c0.09-0.04,0.19-0.07,0.29-0.08
			c0.1-0.01,0.2-0.02,0.3-0.02s0.2-0.01,0.3-0.02c0.1-0.01,0.2-0.04,0.29-0.08c0.08-0.04,0.15-0.1,0.19-0.19
			c0.04-0.09,0.08-0.19,0.09-0.3c0.02-0.11,0.02-0.24,0.01-0.37s-0.02-0.26-0.05-0.38c-0.02-0.12-0.05-0.23-0.07-0.33
			c-0.03-0.1-0.05-0.18-0.08-0.23c-0.03-0.06-0.07-0.13-0.13-0.23c-0.06-0.1-0.14-0.19-0.22-0.28c-0.08-0.09-0.17-0.15-0.26-0.21
			c-0.09-0.05-0.18-0.06-0.27-0.01c-0.08,0.04-0.13,0.1-0.14,0.17s-0.02,0.16-0.01,0.24c0.01,0.08,0.02,0.16,0.03,0.24
			c0.01,0.08-0.01,0.13-0.05,0.17c-0.08-0.01-0.13-0.05-0.17-0.11c-0.04-0.06-0.07-0.12-0.1-0.17c-0.04-0.08-0.06-0.16-0.06-0.24
			c0-0.08,0.01-0.16,0.04-0.24c0.03-0.08,0.08-0.15,0.14-0.21c0.06-0.06,0.13-0.11,0.22-0.15c0.14-0.06,0.27-0.08,0.41-0.04
			c0.14,0.04,0.26,0.1,0.38,0.2s0.22,0.2,0.31,0.33c0.09,0.13,0.16,0.24,0.21,0.34c0.05,0.1,0.09,0.19,0.12,0.28
			c0.03,0.08,0.05,0.16,0.07,0.25c0.02,0.08,0.03,0.17,0.03,0.27c0.01,0.1,0.01,0.21,0.01,0.34c-0.02,0.03-0.04,0.08-0.05,0.14
			c-0.02,0.06-0.03,0.13-0.04,0.2c-0.01,0.07-0.02,0.13-0.02,0.19c0,0.06,0,0.11,0.02,0.14c0.02,0.04,0.05,0.06,0.1,0.06
			c0.05,0,0.11,0,0.17-0.02c0.06-0.02,0.13-0.03,0.2-0.06c0.07-0.02,0.14-0.04,0.2-0.05c0.07-0.01,0.12-0.01,0.18,0
			c0.06,0.01,0.1,0.04,0.12,0.1c0.02,0.04,0.02,0.09-0.01,0.14c-0.01,0.05-0.04,0.09-0.09,0.11c-0.09,0.04-0.18,0.07-0.27,0.09
			c-0.09,0.02-0.19,0.04-0.28,0.06c-0.09,0.02-0.19,0.03-0.28,0.05C358.92,18.49,358.83,18.52,358.74,18.56z"/>
		<path class="st3" d="M359.7,16.75c-0.05-0.14-0.07-0.3-0.06-0.48c0.01-0.18,0.05-0.37,0.12-0.54c0.07-0.18,0.16-0.34,0.27-0.48
			c0.11-0.15,0.25-0.25,0.39-0.3c0.09-0.04,0.19-0.05,0.3-0.04c0.11,0.01,0.22,0.03,0.33,0.07c0.11,0.04,0.22,0.09,0.33,0.15
			s0.21,0.13,0.3,0.21s0.17,0.16,0.24,0.25c0.07,0.09,0.12,0.17,0.15,0.26c0.06,0.15,0.1,0.32,0.12,0.49s0.01,0.35-0.03,0.51
			c-0.04,0.17-0.11,0.32-0.2,0.45c-0.1,0.14-0.24,0.24-0.41,0.31c-0.19,0.07-0.37,0.1-0.56,0.1c-0.19-0.01-0.37-0.05-0.53-0.13
			c-0.17-0.08-0.32-0.19-0.45-0.33C359.88,17.1,359.78,16.94,359.7,16.75z M359.98,16.59c0.04,0.15,0.1,0.28,0.19,0.39
			c0.09,0.11,0.2,0.2,0.32,0.26c0.12,0.06,0.26,0.1,0.4,0.11c0.14,0.01,0.28-0.01,0.42-0.07c0.05-0.02,0.1-0.04,0.13-0.06
			c0.04-0.02,0.07-0.05,0.1-0.07c0.03-0.03,0.06-0.06,0.1-0.1c0.03-0.04,0.07-0.09,0.11-0.14c-0.01-0.06-0.01-0.12,0-0.17
			c0.01-0.05,0.03-0.11,0.04-0.17c0.02-0.06,0.02-0.13,0.03-0.21c0-0.08-0.02-0.16-0.06-0.27c-0.05-0.13-0.12-0.25-0.21-0.36
			c-0.09-0.11-0.2-0.2-0.31-0.26c-0.12-0.07-0.25-0.1-0.39-0.12c-0.14-0.01-0.28,0.01-0.43,0.07c-0.1,0.04-0.19,0.11-0.26,0.2
			c-0.07,0.09-0.12,0.19-0.16,0.31c-0.04,0.11-0.06,0.23-0.06,0.35C359.94,16.38,359.96,16.49,359.98,16.59z"/>
	</g>
</g>
<g>
	<g>
		<circle class="st0" cx="66.54" cy="66.54" r="66.42"/>
		<circle class="st0" cx="66.54" cy="66.54" r="62.2"/>
		<circle class="st1" cx="66.54" cy="66.54" r="58.53"/>
		<path class="st2" d="M2.73,58.54c0,0,3.17-33.21,33.12-47.9"/>
		<path class="st2" d="M130.16,75.33c0,0-3.17,33.21-33.12,47.9"/>
	</g>
	<g>
		<path class="st3" d="M13.59,61.17c-0.14-0.02-0.3-0.07-0.47-0.16c-0.18-0.09-0.36-0.2-0.53-0.33c-0.18-0.13-0.35-0.29-0.52-0.45
			c-0.17-0.17-0.31-0.34-0.44-0.52c-0.13-0.18-0.22-0.35-0.29-0.52c-0.07-0.18-0.09-0.35-0.07-0.49c0-0.04,0.02-0.08,0.04-0.12
			c0.02-0.04,0.05-0.08,0.09-0.11c0.03-0.03,0.07-0.06,0.11-0.08c0.04-0.02,0.08-0.03,0.12-0.02c0.03,0,0.07,0.02,0.12,0.03
			c0.05,0.02,0.07,0.05,0.06,0.09c0,0.03-0.01,0.05-0.03,0.07c-0.02,0.02-0.03,0.04-0.05,0.06c-0.02,0.02-0.04,0.04-0.05,0.07
			c-0.02,0.02-0.03,0.05-0.03,0.08c-0.02,0.15,0,0.3,0.06,0.45c0.06,0.15,0.15,0.31,0.26,0.45c0.11,0.15,0.25,0.29,0.4,0.42
			c0.15,0.13,0.31,0.25,0.48,0.35c0.17,0.1,0.33,0.19,0.49,0.25c0.16,0.07,0.31,0.11,0.44,0.12c0.21,0.03,0.38,0.01,0.52-0.04
			c0.14-0.05,0.26-0.14,0.35-0.25c0.09-0.11,0.17-0.24,0.22-0.39s0.1-0.31,0.15-0.49c0.02-0.03,0.04-0.05,0.06-0.05
			c0.02,0,0.05,0,0.07,0c0.06,0.01,0.1,0.04,0.12,0.08c0.02,0.05,0.03,0.1,0.04,0.16c0,0.06,0,0.11-0.01,0.17
			c-0.01,0.06-0.02,0.1-0.02,0.13c-0.02,0.2-0.09,0.37-0.2,0.51c-0.11,0.14-0.24,0.25-0.4,0.33s-0.33,0.13-0.52,0.16
			C13.95,61.19,13.77,61.2,13.59,61.17z"/>
		<path class="st3" d="M13.96,57.22c0.2,0.01,0.38,0,0.55-0.01c0.17-0.01,0.31-0.02,0.44-0.01c0.12,0,0.22,0.01,0.29,0.03
			c0.07,0.02,0.11,0.07,0.11,0.15c0.02,0.01,0.01,0.03-0.05,0.04c-0.06,0.02-0.15,0.03-0.27,0.04c-0.12,0.01-0.26,0.02-0.43,0.03
			c-0.17,0.01-0.34,0.02-0.52,0.02c-0.18,0-0.37,0-0.57,0s-0.38-0.01-0.55-0.03c-0.17-0.01-0.33-0.03-0.47-0.06
			c-0.14-0.03-0.26-0.06-0.35-0.1c-0.03-0.06-0.03-0.11,0-0.14s0.06-0.06,0.11-0.08c0.05-0.02,0.1-0.02,0.16-0.02
			c0.06,0.01,0.11,0.02,0.15,0.04c0.02,0,0.05,0,0.1,0c0.05,0,0.1,0,0.16-0.01c0.06,0,0.11-0.01,0.16-0.01
			c0.05,0,0.08-0.01,0.1-0.01c0-0.06,0.01-0.15,0.01-0.27c0.01-0.12,0.01-0.25,0.01-0.39c0-0.14-0.01-0.29-0.02-0.43
			s-0.03-0.29-0.06-0.41c-0.03-0.12-0.07-0.23-0.13-0.32s-0.12-0.14-0.21-0.15c-0.01,0-0.02,0-0.03,0l-0.02,0
			c-0.16,0.09-0.29,0.19-0.4,0.3c-0.11,0.11-0.19,0.23-0.26,0.36c-0.07,0.13-0.12,0.27-0.16,0.42c-0.04,0.15-0.08,0.31-0.11,0.49
			c-0.02,0.13-0.05,0.26-0.07,0.4c-0.02,0.14-0.03,0.27-0.02,0.39c0.01,0.12,0.06,0.23,0.13,0.32c0.08,0.09,0.2,0.16,0.37,0.19
			c-0.01,0.04-0.03,0.07-0.06,0.09c-0.03,0.02-0.07,0.04-0.11,0.06c-0.04,0.01-0.08,0.02-0.13,0.03c-0.04,0.01-0.08,0.01-0.11,0
			c-0.06-0.01-0.11-0.03-0.16-0.07c-0.05-0.04-0.09-0.08-0.13-0.13c-0.03-0.05-0.07-0.1-0.09-0.16c-0.03-0.06-0.05-0.11-0.06-0.17
			c0-0.14,0-0.26,0-0.37c0-0.11,0.01-0.21,0.01-0.3c0.01-0.09,0.02-0.19,0.03-0.29c0.02-0.1,0.03-0.2,0.06-0.32
			c0.02-0.12,0.05-0.24,0.1-0.37c0.04-0.13,0.1-0.26,0.16-0.38c0.06-0.13,0.14-0.25,0.22-0.36c0.08-0.11,0.18-0.2,0.28-0.28
			c0.11-0.08,0.22-0.14,0.34-0.17c0.12-0.03,0.26-0.04,0.4-0.01c0.12,0.02,0.23,0.08,0.31,0.17c0.08,0.09,0.14,0.21,0.19,0.35
			c0.04,0.14,0.08,0.29,0.1,0.45c0.02,0.16,0.03,0.33,0.04,0.49c0.01,0.16,0.01,0.31,0.01,0.45c0.01,0.14,0.02,0.26,0.03,0.35
			c0.33-0.16,0.62-0.32,0.87-0.49c0.24-0.17,0.45-0.33,0.63-0.49c0.17-0.16,0.32-0.3,0.44-0.43c0.11-0.13,0.21-0.24,0.29-0.32
			c0.08-0.08,0.13-0.13,0.17-0.15c0.04-0.02,0.07,0.01,0.1,0.08c0.05,0.06,0.05,0.14,0,0.24c-0.05,0.1-0.13,0.21-0.24,0.33
			c-0.11,0.12-0.25,0.25-0.41,0.38c-0.16,0.13-0.32,0.26-0.49,0.39c-0.17,0.13-0.34,0.25-0.5,0.36
			C14.22,57.06,14.08,57.15,13.96,57.22z"/>
		<path class="st3" d="M16.03,53.79c-0.12,0-0.22-0.01-0.3-0.02c-0.08-0.01-0.15-0.02-0.21-0.02c-0.06-0.01-0.12-0.02-0.17-0.03
			c-0.05-0.01-0.1-0.03-0.17-0.04c-0.06-0.01-0.13-0.03-0.21-0.04c-0.08-0.01-0.18-0.02-0.3-0.04c-0.09-0.01-0.15,0.01-0.2,0.04
			c-0.04,0.04-0.07,0.09-0.09,0.15c-0.02,0.06-0.03,0.12-0.04,0.19s-0.02,0.13-0.03,0.19c-0.01,0.06-0.04,0.1-0.07,0.13
			c-0.04,0.03-0.1,0.03-0.18,0.01c-0.01,0-0.02-0.01-0.03-0.04c-0.01-0.02-0.01-0.04-0.01-0.05c0.01-0.08,0.02-0.15,0.04-0.22
			c0.02-0.07,0.02-0.14,0.01-0.2c-0.01-0.06-0.03-0.12-0.07-0.17c-0.05-0.05-0.13-0.09-0.23-0.11c-0.21-0.02-0.4-0.05-0.54-0.09
			c-0.15-0.04-0.27-0.07-0.37-0.08c-0.1-0.01-0.18,0.01-0.22,0.06c-0.05,0.05-0.09,0.16-0.11,0.31c0,0.02-0.01,0.04-0.02,0.08
			c-0.01,0.04-0.02,0.08-0.03,0.13c-0.01,0.04-0.02,0.09-0.03,0.13c-0.01,0.04-0.02,0.07-0.02,0.08c0.01,0.01,0.01,0.03,0.02,0.07
			c0,0.03,0.01,0.06,0.01,0.07c0,0.01,0,0.01,0,0.02c0,0.01,0,0.02,0,0.02l-0.01,0.01l0,0.01c-0.01,0.01-0.03,0.01-0.06,0.02
			c-0.03,0-0.06,0.01-0.07,0.01l-0.03-0.01c-0.04-0.07-0.07-0.19-0.08-0.35c-0.01-0.16,0-0.34,0.01-0.55
			c0.02-0.21,0.05-0.43,0.09-0.68c0.04-0.24,0.1-0.48,0.16-0.72c0.06-0.24,0.14-0.47,0.23-0.69c0.09-0.22,0.19-0.41,0.29-0.58
			c0.1-0.17,0.22-0.29,0.34-0.39c0.13-0.09,0.25-0.13,0.38-0.11c-0.03,0.13-0.08,0.26-0.15,0.38c-0.07,0.12-0.14,0.24-0.21,0.36
			c-0.08,0.12-0.15,0.24-0.21,0.36c-0.07,0.12-0.12,0.26-0.16,0.4c-0.01,0.03-0.02,0.08-0.04,0.15c-0.02,0.06-0.04,0.14-0.06,0.22
			c-0.02,0.08-0.04,0.17-0.06,0.26c-0.02,0.09-0.02,0.17-0.02,0.25c0,0.08,0.01,0.15,0.04,0.2c0.02,0.06,0.07,0.09,0.12,0.11
			c0.06,0.02,0.15,0.04,0.26,0.08c0.11,0.04,0.22,0.07,0.34,0.09c0.12,0.03,0.23,0.04,0.34,0.04c0.11,0,0.19-0.03,0.26-0.08
			c0-0.01,0.01-0.02,0.01-0.04c0-0.02,0.01-0.04,0.02-0.07c0.01-0.03,0.01-0.05,0.02-0.08c0.01-0.02,0.01-0.04,0.01-0.05
			c0.06-0.32,0.11-0.57,0.18-0.77c0.06-0.19,0.12-0.32,0.18-0.4c0.06-0.07,0.11-0.09,0.15-0.06c0.04,0.04,0.07,0.12,0.08,0.25
			c0.01,0.13,0,0.3-0.02,0.52c-0.03,0.22-0.08,0.48-0.17,0.77c0.19,0.04,0.34,0.07,0.45,0.09c0.11,0.02,0.2,0.03,0.26,0.04
			c0.06,0.01,0.11,0.01,0.15,0.01c0.04,0,0.08,0,0.13,0c0.05,0,0.12,0.01,0.2,0.02c0.08,0.01,0.21,0.04,0.37,0.07
			c-0.02,0.06-0.04,0.11-0.06,0.16c-0.02,0.05-0.03,0.09-0.04,0.13c-0.01,0.04-0.02,0.06-0.03,0.08
			C16.05,53.8,16.04,53.8,16.03,53.79z"/>
		<path class="st3" d="M17.28,49.91c-0.12,0.02-0.27,0.03-0.45,0.01c-0.18-0.02-0.36-0.04-0.54-0.07c-0.19-0.03-0.36-0.07-0.52-0.1
			c-0.16-0.04-0.29-0.06-0.39-0.07l-1.06-0.35c-0.04-0.02-0.08-0.05-0.11-0.1c-0.03-0.05-0.03-0.1-0.02-0.14
			c0-0.01,0.01-0.02,0.01-0.03c0-0.01,0.01-0.02,0.01-0.02c0.12,0.02,0.24,0.05,0.36,0.08c0.12,0.03,0.24,0.06,0.36,0.09
			c0.12,0.03,0.24,0.06,0.36,0.08c0.12,0.02,0.24,0.03,0.36,0.03c0.04-0.06,0.07-0.13,0.11-0.2c0.02-0.07,0.06-0.16,0.1-0.25
			c0.04-0.11,0.06-0.23,0.06-0.36c0.01-0.14-0.01-0.27-0.04-0.4c-0.03-0.13-0.08-0.24-0.16-0.35c-0.07-0.1-0.17-0.18-0.29-0.22
			c-0.13-0.04-0.26-0.04-0.39,0.01c-0.13,0.05-0.26,0.13-0.38,0.24c-0.12,0.11-0.24,0.24-0.35,0.38c-0.11,0.14-0.21,0.29-0.3,0.43
			c-0.09,0.15-0.16,0.28-0.22,0.41c-0.06,0.13-0.1,0.23-0.13,0.3c-0.01,0.02-0.02,0.07-0.05,0.13c-0.03,0.06-0.05,0.14-0.08,0.22
			c-0.02,0.08-0.04,0.16-0.06,0.23c-0.02,0.08-0.02,0.14-0.01,0.19c0.01,0.04,0.03,0.09,0.08,0.14c0.04,0.05,0.09,0.1,0.13,0.14
			c0.05,0.05,0.08,0.09,0.12,0.14c0.03,0.04,0.04,0.08,0.03,0.12l0,0.01c0,0-0.01,0.01-0.01,0.02c-0.01,0.01-0.02,0.01-0.02,0.01
			c-0.01,0-0.03,0-0.07-0.01c-0.03,0-0.08-0.02-0.15-0.03c-0.06-0.02-0.15-0.04-0.26-0.08c-0.05-0.02-0.08-0.05-0.1-0.11
			c-0.02-0.06-0.04-0.12-0.04-0.21c-0.01-0.08-0.01-0.17,0-0.26c0-0.09,0.01-0.17,0.02-0.25c0.01-0.08,0.02-0.15,0.03-0.21
			c0.01-0.06,0.02-0.1,0.03-0.12c0.05-0.14,0.11-0.3,0.19-0.48c0.08-0.18,0.17-0.36,0.28-0.55c0.11-0.18,0.23-0.36,0.37-0.53
			c0.14-0.17,0.28-0.31,0.44-0.43c0.16-0.12,0.32-0.2,0.5-0.25c0.18-0.05,0.36-0.04,0.56,0.03c0.15,0.03,0.27,0.09,0.36,0.2
			c0.09,0.11,0.17,0.24,0.22,0.39c0.05,0.15,0.09,0.31,0.11,0.49c0.02,0.17,0.02,0.34,0.01,0.49c-0.01,0.16-0.03,0.29-0.05,0.41
			c-0.03,0.12-0.06,0.2-0.1,0.23l0.06,0.02c0.14,0.05,0.29,0.08,0.44,0.11c0.15,0.02,0.29,0.06,0.44,0.11
			c0.02,0.01,0.04,0.02,0.08,0.03c0.03,0.02,0.06,0.04,0.09,0.06c0.03,0.03,0.05,0.05,0.06,0.08
			C17.31,49.84,17.31,49.87,17.28,49.91z"/>
		<path class="st3" d="M18.12,47.91c-0.03-0.01-0.07-0.06-0.11-0.15c-0.04-0.09-0.09-0.2-0.15-0.33c-0.06-0.13-0.12-0.28-0.19-0.44
			c-0.07-0.16-0.16-0.31-0.26-0.46c-0.1-0.15-0.21-0.29-0.34-0.41c-0.13-0.12-0.27-0.22-0.43-0.28c-0.15-0.06-0.31-0.1-0.46-0.11
			s-0.31,0-0.47,0.02c-0.16,0.02-0.31,0.06-0.46,0.12c-0.15,0.05-0.29,0.12-0.44,0.19c0.01,0.03,0,0.06-0.02,0.09
			c-0.02,0.02-0.04,0.04-0.07,0.06s-0.06,0.02-0.09,0.03s-0.06,0-0.09-0.01c-0.06-0.02-0.09-0.06-0.08-0.1
			c0-0.04,0.02-0.09,0.04-0.14c0.05-0.12,0.12-0.22,0.22-0.3s0.22-0.15,0.35-0.2c0.13-0.05,0.28-0.09,0.43-0.11
			c0.15-0.02,0.31-0.03,0.45-0.03c0.15,0,0.29,0.01,0.43,0.04c0.14,0.02,0.25,0.05,0.35,0.09c0.1,0.04,0.21,0.11,0.34,0.21
			c0.13,0.1,0.27,0.23,0.4,0.37c0.14,0.14,0.27,0.3,0.41,0.46c0.13,0.17,0.24,0.33,0.34,0.5s0.16,0.32,0.2,0.47s0.04,0.27,0,0.37
			c-0.01,0.02-0.03,0.04-0.05,0.05c-0.02,0.01-0.05,0.02-0.08,0.02s-0.06,0-0.09,0C18.16,47.92,18.14,47.92,18.12,47.91z"/>
		<path class="st3" d="M19.89,41.16c-0.13-0.08-0.27-0.17-0.44-0.28c-0.16-0.1-0.33-0.21-0.49-0.32c-0.16-0.11-0.31-0.22-0.46-0.32
			c-0.15-0.11-0.27-0.21-0.37-0.3c-0.1-0.09-0.18-0.17-0.23-0.24c-0.04-0.07-0.04-0.12,0-0.15c0.04-0.05,0.1-0.06,0.18-0.03
			c0.08,0.03,0.19,0.08,0.31,0.15c0.12,0.08,0.26,0.17,0.4,0.28c0.15,0.11,0.3,0.22,0.45,0.34c0.16,0.11,0.31,0.23,0.47,0.33
			s0.31,0.2,0.45,0.26c0.04,0.02,0.08,0.04,0.13,0.05c0.05,0.01,0.1,0.02,0.15,0.01c0.05,0,0.1-0.01,0.15-0.03
			c0.05-0.02,0.09-0.05,0.11-0.09l0.74-1.08c0.02-0.03,0.05-0.04,0.09-0.03c0.04,0.01,0.07,0.03,0.08,0.04
			c0.07,0.04,0.1,0.08,0.1,0.14c0,0.05-0.01,0.12-0.03,0.2c-0.01,0.02-0.02,0.04-0.04,0.08c-0.02,0.04-0.04,0.08-0.06,0.13
			c-0.02,0.04-0.04,0.09-0.06,0.12c-0.02,0.04-0.04,0.06-0.04,0.08c-0.1,0.17-0.2,0.32-0.31,0.45c-0.11,0.13-0.22,0.23-0.35,0.29
			c-0.13,0.06-0.27,0.09-0.42,0.08C20.25,41.32,20.08,41.26,19.89,41.16z"/>
		<path class="st3" d="M22.74,38.03c-0.01,0.01-0.04,0.02-0.1,0.06c-0.06,0.03-0.12,0.06-0.19,0.09c-0.07,0.03-0.14,0.05-0.2,0.06
			c-0.07,0.01-0.11,0-0.15-0.03c-0.03-0.04-0.04-0.08-0.04-0.12c0-0.04,0.01-0.08,0.01-0.12c0.01-0.04,0-0.08-0.01-0.12
			c-0.01-0.04-0.05-0.07-0.11-0.11c-0.47-0.22-0.89-0.42-1.26-0.58c-0.37-0.17-0.68-0.3-0.94-0.39c-0.26-0.09-0.47-0.14-0.63-0.15
			c-0.16-0.01-0.27,0.03-0.34,0.13l0,0.01l-0.01,0.01l-0.01,0.01c0,0.04-0.01,0.09-0.02,0.15c-0.01,0.06-0.03,0.13-0.04,0.2
			s-0.03,0.14-0.05,0.2c-0.02,0.06-0.03,0.12-0.04,0.16c0,0.01-0.01,0.02-0.01,0.03c0,0.01-0.01,0.01-0.01,0.02l-0.16-0.11
			c-0.04-0.02-0.05-0.08-0.04-0.17c0.01-0.09,0.03-0.19,0.06-0.31c0.03-0.12,0.08-0.25,0.13-0.38c0.05-0.14,0.1-0.27,0.16-0.39
			c0.05-0.12,0.1-0.23,0.15-0.32c0.05-0.09,0.08-0.15,0.1-0.18c0.04-0.06,0.1-0.14,0.17-0.22c0.07-0.08,0.16-0.16,0.25-0.24
			c0.09-0.08,0.19-0.15,0.3-0.22c0.11-0.07,0.22-0.12,0.32-0.16c0.11-0.04,0.21-0.06,0.32-0.06c0.1,0,0.19,0.03,0.28,0.08
			c0.09,0.06,0.17,0.14,0.23,0.23c0.06,0.09,0.1,0.18,0.13,0.27c0.03,0.09,0.06,0.17,0.08,0.24c0.02,0.07,0.06,0.12,0.1,0.15
			c0.01,0,0.05-0.02,0.13-0.06c0.08-0.05,0.19-0.11,0.32-0.18c0.13-0.07,0.29-0.14,0.46-0.2c0.17-0.07,0.35-0.12,0.53-0.16
			c0.18-0.04,0.36-0.05,0.54-0.04c0.18,0.01,0.34,0.07,0.48,0.16c0.15,0.1,0.26,0.22,0.32,0.35c0.06,0.13,0.08,0.27,0.08,0.42
			c-0.01,0.14-0.04,0.29-0.1,0.43c-0.06,0.15-0.12,0.28-0.2,0.4c-0.08,0.12-0.15,0.22-0.21,0.31c-0.07,0.09-0.13,0.17-0.21,0.26
			c-0.07,0.08-0.15,0.17-0.24,0.26C22.97,37.8,22.86,37.91,22.74,38.03z M22.19,37.45c0.04,0.09,0.1,0.15,0.16,0.17
			c0.07,0.02,0.14,0.01,0.22-0.03c0.08-0.03,0.16-0.09,0.24-0.16c0.08-0.07,0.16-0.15,0.22-0.22c0.07-0.08,0.13-0.15,0.17-0.23
			c0.05-0.07,0.08-0.13,0.1-0.17c0.07-0.11,0.14-0.22,0.19-0.33c0.06-0.11,0.1-0.22,0.11-0.32c0.01-0.1,0-0.2-0.04-0.3
			c-0.04-0.09-0.13-0.18-0.25-0.27c-0.18-0.12-0.36-0.17-0.54-0.15c-0.18,0.01-0.35,0.06-0.53,0.15c-0.17,0.08-0.34,0.19-0.51,0.31
			c-0.16,0.13-0.31,0.24-0.45,0.35c-0.14,0.11-0.27,0.19-0.38,0.24c-0.11,0.05-0.21,0.06-0.29,0.01c-0.04-0.03-0.06-0.07-0.05-0.12
			c0-0.06,0.02-0.12,0.04-0.2c0.02-0.07,0.05-0.15,0.08-0.24c0.03-0.08,0.04-0.17,0.05-0.26c0-0.09-0.01-0.17-0.04-0.25
			c-0.03-0.08-0.1-0.15-0.19-0.22c-0.08-0.05-0.17-0.08-0.26-0.07c-0.09,0-0.18,0.02-0.27,0.06c-0.09,0.04-0.17,0.09-0.24,0.15
			c-0.07,0.06-0.13,0.13-0.18,0.2c-0.07,0.1-0.12,0.21-0.17,0.34c-0.05,0.12-0.07,0.24-0.05,0.37c0.21,0.08,0.45,0.16,0.71,0.25
			c0.26,0.09,0.52,0.19,0.77,0.29c0.26,0.1,0.51,0.2,0.75,0.31C21.81,37.22,22.01,37.33,22.19,37.45z"/>
		<path class="st3" d="M24.19,34.08c-0.05,0.07-0.1,0.14-0.14,0.21s-0.08,0.15-0.11,0.23c-0.04,0.08-0.07,0.15-0.11,0.22
			c-0.04,0.07-0.08,0.14-0.13,0.21c-0.04,0.05-0.08,0.07-0.11,0.06c-0.03-0.01-0.06-0.02-0.09-0.05c-0.04-0.03-0.07-0.06-0.08-0.08
			c-0.01-0.02,0-0.06,0.03-0.12c0.01-0.03,0.04-0.09,0.08-0.17c0.04-0.08,0.08-0.17,0.13-0.26c0.04-0.09,0.09-0.18,0.13-0.26
			c0.04-0.08,0.07-0.14,0.08-0.17c0.01-0.02,0.01-0.04,0-0.06c-0.01-0.02-0.02-0.04-0.04-0.06c-0.02-0.02-0.03-0.03-0.05-0.04
			c-0.02-0.01-0.03-0.02-0.04-0.03c-0.06-0.04-0.11-0.08-0.17-0.11c-0.06-0.03-0.13-0.06-0.19-0.09c-0.07-0.03-0.13-0.06-0.19-0.09
			c-0.06-0.03-0.12-0.07-0.18-0.11l-0.02-0.01c0-0.01-0.01-0.04-0.02-0.09c-0.01-0.04-0.01-0.07-0.01-0.09l0.01-0.01
			c0,0,0-0.01,0-0.01l0.01-0.01l0-0.01c0,0.01,0,0.01,0.01,0l0.01-0.02l0.18-0.02L24,33.39l0.1-0.01l0.07-0.07
			c0.05-0.05,0.12-0.11,0.19-0.18c0.07-0.07,0.14-0.14,0.22-0.22c0.07-0.08,0.13-0.14,0.18-0.19c0.01-0.01,0.02-0.03,0.05-0.05
			c0.02-0.02,0.05-0.05,0.08-0.07c0.03-0.02,0.06-0.04,0.09-0.05c0.03-0.01,0.06-0.01,0.08,0.01c0.01,0.01,0.02,0.03,0.03,0.06
			c0.01,0.03,0.02,0.06,0.03,0.09c0.01,0.03,0.02,0.06,0.02,0.09s0,0.05,0,0.06l-0.6,0.79l0.89,0.68l0,0.03c0,0.02,0,0.04,0,0.06
			c0,0.02,0,0.04,0,0.07c0,0.03,0,0.05-0.01,0.06c0,0.01,0,0.01-0.01,0.02l-0.01,0.01c-0.03,0.04-0.07,0.05-0.12,0.04
			c-0.05-0.01-0.1-0.03-0.15-0.06c-0.05-0.03-0.09-0.06-0.13-0.09c-0.04-0.04-0.07-0.06-0.09-0.07c-0.03-0.01-0.07-0.04-0.14-0.07
			c-0.06-0.03-0.13-0.07-0.2-0.11c-0.07-0.04-0.14-0.07-0.2-0.11c-0.06-0.03-0.11-0.06-0.14-0.07L24.19,34.08z"/>
		<path class="st3" d="M24.88,29.47c-0.2,0.23-0.42,0.45-0.66,0.66c-0.24,0.21-0.48,0.42-0.71,0.61c-0.02,0.04-0.04,0.05-0.07,0.06
			c-0.03,0-0.06,0-0.09-0.01c-0.03-0.01-0.06-0.03-0.09-0.05c-0.02-0.02-0.04-0.03-0.06-0.04c0.04-0.05,0.12-0.13,0.22-0.25
			c0.1-0.12,0.23-0.26,0.38-0.42c0.15-0.16,0.31-0.34,0.48-0.52c0.17-0.19,0.35-0.37,0.54-0.56c0.18-0.18,0.36-0.36,0.54-0.52
			c0.18-0.17,0.34-0.31,0.49-0.42c0.15-0.12,0.28-0.2,0.39-0.25c0.11-0.05,0.19-0.06,0.23-0.02c0.03,0.03,0.06,0.06,0.09,0.1
			c0.02,0.04,0.02,0.08-0.01,0.12c-0.11,0.11-0.23,0.22-0.36,0.31c-0.13,0.09-0.26,0.18-0.39,0.28c-0.13,0.09-0.25,0.2-0.37,0.31
			c-0.12,0.11-0.21,0.25-0.28,0.41c0.15,0.13,0.32,0.27,0.52,0.41s0.4,0.28,0.61,0.42s0.42,0.27,0.63,0.41
			c0.21,0.13,0.42,0.25,0.6,0.37c0.05,0.03,0.1,0.05,0.16,0.07c0.06,0.01,0.12,0.03,0.18,0.04c0.06,0.01,0.11,0.02,0.17,0.04
			c0.05,0.02,0.1,0.04,0.14,0.08c0.03,0.02,0.04,0.05,0.04,0.08c0,0.03-0.01,0.06-0.02,0.08c-0.02,0.03-0.03,0.05-0.06,0.08
			c-0.02,0.03-0.04,0.05-0.06,0.06c-0.06,0.06-0.13,0.09-0.21,0.08c-0.08-0.01-0.17-0.03-0.26-0.08c-0.09-0.04-0.17-0.09-0.25-0.15
			c-0.08-0.06-0.15-0.11-0.2-0.14c-0.2-0.13-0.4-0.26-0.58-0.39c-0.19-0.13-0.37-0.26-0.55-0.39c-0.18-0.13-0.36-0.27-0.55-0.41
			C25.26,29.76,25.07,29.62,24.88,29.47z"/>
		<path class="st3" d="M37.38,21.4c-0.08-0.13-0.13-0.28-0.15-0.46c-0.02-0.18-0.02-0.37,0.02-0.56c0.03-0.19,0.09-0.36,0.18-0.53
			c0.09-0.16,0.2-0.29,0.33-0.37c0.08-0.05,0.18-0.09,0.29-0.1c0.11-0.01,0.22-0.01,0.34,0.01c0.12,0.02,0.23,0.05,0.35,0.09
			c0.12,0.04,0.23,0.09,0.34,0.15c0.11,0.06,0.2,0.13,0.28,0.2c0.08,0.07,0.15,0.15,0.2,0.23c0.09,0.14,0.16,0.29,0.21,0.46
			c0.05,0.17,0.07,0.34,0.07,0.51c-0.01,0.17-0.04,0.33-0.12,0.48c-0.07,0.15-0.19,0.28-0.35,0.38c-0.17,0.1-0.35,0.17-0.53,0.2
			c-0.19,0.03-0.37,0.02-0.55-0.03c-0.18-0.04-0.35-0.12-0.5-0.24S37.48,21.57,37.38,21.4z M37.62,21.19
			c0.07,0.14,0.15,0.25,0.26,0.34c0.11,0.09,0.23,0.16,0.36,0.2c0.13,0.04,0.27,0.05,0.41,0.03c0.14-0.02,0.28-0.06,0.4-0.15
			c0.05-0.03,0.09-0.06,0.12-0.09c0.03-0.03,0.06-0.06,0.09-0.09c0.03-0.03,0.05-0.07,0.08-0.12c0.02-0.05,0.05-0.1,0.09-0.16
			c-0.02-0.06-0.04-0.11-0.03-0.17c0-0.06,0.01-0.12,0.01-0.18c0-0.06,0-0.13-0.01-0.21c-0.01-0.07-0.05-0.16-0.1-0.25
			c-0.08-0.12-0.17-0.23-0.28-0.32c-0.11-0.09-0.23-0.16-0.36-0.2c-0.13-0.04-0.26-0.06-0.4-0.05c-0.14,0.01-0.28,0.06-0.41,0.15
			c-0.09,0.06-0.17,0.14-0.22,0.24s-0.09,0.21-0.1,0.33c-0.01,0.12-0.01,0.24,0.01,0.36C37.54,20.99,37.57,21.1,37.62,21.19z"/>
		<path class="st3" d="M41.42,19c-0.04,0.06-0.07,0.13-0.12,0.21c-0.04,0.08-0.09,0.16-0.14,0.24c-0.05,0.08-0.11,0.15-0.17,0.21
			c-0.06,0.06-0.13,0.1-0.21,0.13c-0.15,0.08-0.29,0.11-0.44,0.08c-0.15-0.03-0.28-0.08-0.41-0.17c-0.13-0.09-0.25-0.19-0.35-0.32
			c-0.1-0.12-0.19-0.24-0.25-0.35c-0.07-0.13-0.13-0.24-0.17-0.35c-0.04-0.11-0.08-0.21-0.11-0.32c-0.03-0.11-0.05-0.22-0.08-0.34
			s-0.05-0.26-0.07-0.41c-0.01-0.04-0.01-0.08,0.01-0.12c0.02-0.04,0.06-0.07,0.1-0.09c0.04-0.02,0.08-0.04,0.12-0.04
			c0.04,0,0.07,0.01,0.08,0.05c0.05,0.1,0.09,0.21,0.11,0.33c0.02,0.12,0.04,0.25,0.06,0.38c0.02,0.13,0.04,0.26,0.06,0.38
			c0.02,0.13,0.07,0.25,0.13,0.36c0.04,0.08,0.1,0.16,0.18,0.25c0.07,0.08,0.15,0.15,0.24,0.21c0.09,0.06,0.18,0.09,0.28,0.11
			s0.19,0,0.29-0.05c0.13-0.07,0.23-0.17,0.3-0.29c0.07-0.12,0.12-0.25,0.15-0.39c0.03-0.14,0.05-0.28,0.05-0.43
			c0-0.14,0-0.28-0.01-0.4s-0.02-0.22-0.03-0.29c-0.01-0.07-0.02-0.11-0.01-0.11c0.09-0.05,0.16-0.07,0.21-0.05
			c0.04,0.02,0.08,0.05,0.11,0.1c0.04,0.08,0.08,0.17,0.12,0.27c0.04,0.1,0.07,0.21,0.1,0.32c0.03,0.11,0.07,0.22,0.11,0.32
			c0.04,0.11,0.08,0.2,0.12,0.28c0.05,0.09,0.11,0.18,0.17,0.26c0.06,0.09,0.13,0.17,0.19,0.25c0.07,0.08,0.13,0.17,0.19,0.25
			s0.12,0.17,0.16,0.26c0.04,0.08,0.06,0.15,0.04,0.23s-0.06,0.14-0.14,0.18c-0.05,0.03-0.1,0.02-0.16-0.04
			c-0.06-0.05-0.11-0.12-0.18-0.21c-0.06-0.09-0.12-0.19-0.18-0.3c-0.06-0.11-0.12-0.21-0.17-0.31c-0.05-0.09-0.11-0.17-0.16-0.22
			C41.5,19,41.45,18.99,41.42,19z"/>
		<path class="st3" d="M42.72,19.7c-0.03-0.05-0.05-0.13-0.06-0.22s-0.02-0.19-0.03-0.29c-0.01-0.1-0.01-0.2-0.01-0.3
			c0-0.1,0-0.17,0-0.22l-0.36-3.1c-0.02-0.06-0.04-0.13-0.07-0.22c-0.03-0.09-0.05-0.17-0.07-0.26c-0.02-0.09-0.03-0.17-0.03-0.25
			c0-0.08,0.02-0.14,0.06-0.18c0.04-0.01,0.07-0.01,0.1,0c0.02,0.01,0.05,0.03,0.07,0.05s0.03,0.05,0.05,0.08
			c0.01,0.03,0.02,0.05,0.03,0.08c0.03,0.06,0.06,0.17,0.11,0.34c0.04,0.17,0.08,0.38,0.13,0.61c0.04,0.24,0.09,0.5,0.13,0.79
			c0.04,0.29,0.08,0.58,0.12,0.87c0.04,0.29,0.07,0.58,0.1,0.85s0.05,0.52,0.06,0.74s0.02,0.39,0.01,0.53
			c-0.01,0.14-0.03,0.22-0.06,0.23c-0.05,0.02-0.1,0.02-0.16-0.01C42.77,19.77,42.74,19.74,42.72,19.7z"/>
		<path class="st3" d="M44.08,17.64c-0.06-0.14-0.09-0.3-0.08-0.48c0.01-0.19,0.04-0.37,0.1-0.55c0.06-0.18,0.14-0.35,0.25-0.49
			c0.11-0.15,0.24-0.26,0.38-0.32c0.09-0.04,0.19-0.06,0.3-0.06c0.11,0,0.22,0.02,0.33,0.05c0.11,0.03,0.23,0.08,0.33,0.14
			c0.11,0.06,0.21,0.12,0.31,0.2c0.1,0.07,0.18,0.15,0.25,0.24c0.07,0.08,0.13,0.17,0.16,0.25c0.07,0.15,0.11,0.31,0.14,0.49
			c0.02,0.17,0.02,0.35-0.01,0.51c-0.03,0.17-0.09,0.32-0.19,0.46c-0.09,0.14-0.23,0.25-0.4,0.33c-0.18,0.08-0.37,0.12-0.55,0.12
			c-0.19,0-0.37-0.04-0.54-0.1s-0.33-0.17-0.46-0.31C44.27,17.99,44.16,17.83,44.08,17.64z M44.35,17.47
			c0.04,0.15,0.11,0.27,0.21,0.38c0.09,0.11,0.2,0.19,0.33,0.25s0.26,0.09,0.4,0.09c0.14,0,0.28-0.02,0.42-0.08
			c0.05-0.02,0.09-0.04,0.13-0.07c0.03-0.02,0.07-0.05,0.1-0.08c0.03-0.03,0.06-0.07,0.09-0.11c0.03-0.04,0.07-0.09,0.11-0.15
			c-0.02-0.06-0.02-0.12-0.01-0.17c0.01-0.05,0.02-0.11,0.04-0.18c0.01-0.06,0.02-0.13,0.02-0.21c0-0.08-0.02-0.16-0.07-0.26
			c-0.06-0.13-0.13-0.25-0.23-0.36c-0.1-0.11-0.2-0.19-0.32-0.25c-0.12-0.06-0.25-0.1-0.39-0.1c-0.14-0.01-0.28,0.02-0.43,0.08
			c-0.1,0.05-0.19,0.11-0.25,0.21c-0.07,0.09-0.12,0.2-0.15,0.31c-0.03,0.12-0.05,0.23-0.05,0.35
			C44.31,17.26,44.32,17.37,44.35,17.47z"/>
		<path class="st3" d="M46.73,16.57c-0.06-0.16-0.1-0.34-0.12-0.54c-0.02-0.2-0.01-0.4,0.01-0.61c0.02-0.21,0.07-0.42,0.13-0.63
			c0.06-0.21,0.15-0.41,0.25-0.59c0.1-0.18,0.21-0.35,0.35-0.49c0.13-0.14,0.28-0.26,0.44-0.34c0.04-0.02,0.09-0.03,0.14-0.04
			c0.06-0.01,0.11-0.01,0.17,0c0.06,0.01,0.11,0.02,0.16,0.04c0.05,0.02,0.08,0.06,0.1,0.12c0.01,0.02,0.02,0.05,0.02,0.08
			c0,0.03,0,0.06,0,0.09c0,0.03-0.01,0.06-0.02,0.08c-0.01,0.03-0.03,0.04-0.06,0.05c-0.01,0-0.03,0-0.06-0.01
			c-0.04-0.01-0.07-0.02-0.12-0.03c-0.04-0.01-0.08-0.02-0.12-0.02c-0.04,0-0.07-0.01-0.09-0.01l-0.03,0.01
			c-0.08,0.03-0.16,0.09-0.25,0.17c-0.08,0.08-0.16,0.18-0.24,0.29s-0.15,0.24-0.21,0.37c-0.06,0.13-0.12,0.27-0.16,0.4
			c-0.04,0.13-0.07,0.26-0.08,0.38c-0.01,0.12,0,0.22,0.03,0.3L47,15.67c0.07-0.06,0.14-0.12,0.2-0.16
			c0.06-0.04,0.12-0.08,0.18-0.11s0.12-0.06,0.19-0.08c0.06-0.02,0.14-0.05,0.22-0.08c0.16-0.06,0.31-0.09,0.47-0.08
			c0.15,0,0.3,0.03,0.43,0.09c0.13,0.06,0.25,0.14,0.36,0.26c0.11,0.11,0.19,0.25,0.25,0.41c0.07,0.19,0.09,0.36,0.05,0.53
			c-0.04,0.16-0.1,0.31-0.21,0.44c-0.1,0.13-0.23,0.25-0.38,0.35s-0.31,0.18-0.48,0.24c-0.19,0.07-0.36,0.09-0.52,0.06
			c-0.16-0.03-0.3-0.08-0.43-0.17c-0.13-0.09-0.24-0.21-0.34-0.35C46.87,16.88,46.79,16.73,46.73,16.57z M47.07,16.58
			c0.15,0.23,0.31,0.38,0.5,0.45c0.19,0.07,0.4,0.07,0.62,0c0.11-0.04,0.22-0.09,0.33-0.16c0.1-0.06,0.19-0.14,0.27-0.23
			c0.07-0.09,0.12-0.19,0.15-0.3c0.02-0.11,0.01-0.24-0.04-0.38c-0.03-0.07-0.08-0.14-0.16-0.21c-0.08-0.07-0.17-0.13-0.26-0.17
			c-0.1-0.05-0.19-0.08-0.29-0.1c-0.1-0.02-0.19-0.01-0.26,0.02c-0.15,0.05-0.28,0.12-0.41,0.2c-0.13,0.08-0.23,0.16-0.32,0.25
			c-0.09,0.09-0.14,0.19-0.17,0.3C47,16.37,47.02,16.47,47.07,16.58z"/>
		<path class="st3" d="M49.78,16.68c-0.02-0.06-0.03-0.13-0.03-0.23c0-0.09,0-0.19,0.01-0.3c0.01-0.1,0.02-0.2,0.04-0.3
			c0.02-0.09,0.03-0.17,0.04-0.22l0.1-3.12c-0.01-0.06-0.02-0.14-0.03-0.23c-0.02-0.09-0.03-0.18-0.03-0.27
			c-0.01-0.09,0-0.17,0.01-0.26c0.01-0.08,0.04-0.14,0.09-0.17c0.04,0,0.07,0,0.09,0.02c0.02,0.02,0.04,0.04,0.06,0.06
			c0.02,0.03,0.03,0.06,0.03,0.08c0.01,0.03,0.01,0.06,0.02,0.08c0.02,0.06,0.04,0.18,0.05,0.36c0.02,0.18,0.03,0.38,0.04,0.63
			s0.01,0.51,0.01,0.8s0,0.58-0.01,0.88c0,0.29-0.02,0.58-0.03,0.86c-0.01,0.28-0.03,0.52-0.05,0.74c-0.02,0.21-0.04,0.39-0.07,0.53
			c-0.03,0.14-0.06,0.21-0.09,0.22c-0.05,0.02-0.1,0.01-0.15-0.03C49.82,16.76,49.79,16.72,49.78,16.68z"/>
		<path class="st3" d="M53.38,15.62c-0.15,0.04-0.29,0.09-0.42,0.15c-0.13,0.06-0.28,0.11-0.43,0.15c-0.08,0.02-0.17,0.04-0.27,0.04
			c-0.09,0-0.19,0-0.27-0.03c-0.09-0.02-0.17-0.06-0.25-0.12c-0.07-0.05-0.13-0.13-0.17-0.23c-0.02-0.06-0.03-0.11-0.01-0.16
			c0.02-0.05,0.04-0.09,0.08-0.12c0.04-0.03,0.08-0.06,0.14-0.08c0.05-0.02,0.1-0.04,0.13-0.05c0.1-0.03,0.19-0.04,0.3-0.03
			c0.1,0,0.2,0.01,0.3,0.03s0.2,0.03,0.3,0.03c0.1,0.01,0.2,0,0.3-0.03c0.09-0.02,0.16-0.07,0.22-0.15
			c0.06-0.08,0.11-0.17,0.14-0.28c0.04-0.11,0.06-0.23,0.07-0.36c0.01-0.13,0.02-0.26,0.02-0.38c0-0.12-0.01-0.23-0.02-0.34
			c-0.01-0.1-0.02-0.18-0.04-0.24c-0.02-0.06-0.05-0.14-0.09-0.25s-0.1-0.21-0.17-0.31c-0.07-0.1-0.14-0.18-0.22-0.25
			c-0.08-0.07-0.17-0.09-0.27-0.06c-0.09,0.02-0.14,0.07-0.17,0.15c-0.03,0.07-0.04,0.15-0.05,0.24c0,0.08-0.01,0.17-0.01,0.24
			c0,0.08-0.03,0.13-0.07,0.16c-0.07-0.03-0.13-0.07-0.15-0.13c-0.03-0.06-0.05-0.13-0.07-0.18c-0.02-0.08-0.03-0.17-0.02-0.25
			c0.01-0.08,0.04-0.16,0.08-0.23c0.04-0.07,0.1-0.13,0.17-0.18c0.07-0.05,0.15-0.09,0.24-0.11c0.15-0.04,0.28-0.03,0.41,0.03
			c0.13,0.06,0.24,0.15,0.34,0.26c0.1,0.11,0.18,0.24,0.25,0.38c0.07,0.14,0.12,0.26,0.15,0.37c0.03,0.11,0.05,0.21,0.07,0.29
			c0.02,0.09,0.03,0.17,0.03,0.26c0,0.08,0,0.17-0.01,0.27c-0.01,0.09-0.02,0.21-0.04,0.34c-0.02,0.03-0.05,0.07-0.08,0.13
			c-0.03,0.06-0.05,0.12-0.08,0.19c-0.02,0.06-0.04,0.13-0.05,0.19c-0.01,0.06-0.02,0.11-0.01,0.14c0.01,0.04,0.04,0.07,0.09,0.08
			c0.05,0.01,0.11,0.02,0.17,0.01c0.07,0,0.14-0.01,0.21-0.02c0.07-0.01,0.14-0.02,0.21-0.02c0.07,0,0.13,0.01,0.18,0.03
			c0.05,0.02,0.09,0.06,0.1,0.12c0.01,0.04,0,0.09-0.03,0.14c-0.02,0.05-0.06,0.08-0.11,0.1c-0.09,0.02-0.18,0.04-0.28,0.04
			c-0.09,0-0.19,0.01-0.29,0.01c-0.1,0-0.19,0-0.28,0S53.47,15.6,53.38,15.62z"/>
		<path class="st3" d="M54.65,14c-0.03-0.14-0.02-0.31,0.02-0.49c0.04-0.18,0.12-0.35,0.21-0.52c0.1-0.16,0.21-0.31,0.35-0.43
			c0.14-0.12,0.28-0.2,0.44-0.23c0.1-0.02,0.2-0.02,0.3,0.01c0.1,0.03,0.21,0.07,0.31,0.12c0.1,0.06,0.2,0.12,0.3,0.21
			c0.1,0.08,0.18,0.17,0.26,0.26c0.08,0.09,0.14,0.19,0.2,0.29s0.09,0.19,0.11,0.28c0.03,0.16,0.04,0.33,0.03,0.51
			c-0.01,0.18-0.05,0.34-0.12,0.5c-0.06,0.16-0.16,0.29-0.28,0.41c-0.12,0.12-0.27,0.2-0.46,0.23c-0.19,0.04-0.38,0.04-0.57,0
			c-0.18-0.04-0.35-0.11-0.51-0.22c-0.15-0.1-0.28-0.24-0.39-0.4C54.76,14.37,54.69,14.2,54.65,14z M54.95,13.89
			c0.01,0.15,0.05,0.29,0.12,0.41c0.07,0.12,0.16,0.23,0.27,0.31c0.11,0.08,0.24,0.14,0.38,0.18c0.14,0.03,0.28,0.04,0.43,0.01
			c0.05-0.01,0.1-0.02,0.14-0.04s0.08-0.03,0.11-0.06c0.04-0.02,0.08-0.05,0.11-0.09c0.04-0.03,0.08-0.07,0.14-0.12
			c0-0.06,0.01-0.12,0.03-0.17c0.02-0.05,0.05-0.11,0.07-0.16c0.03-0.06,0.05-0.12,0.06-0.2c0.02-0.07,0.01-0.16-0.01-0.27
			c-0.03-0.14-0.08-0.27-0.15-0.4c-0.07-0.12-0.16-0.23-0.26-0.31c-0.11-0.08-0.23-0.15-0.36-0.18c-0.14-0.04-0.28-0.04-0.44-0.01
			c-0.11,0.02-0.21,0.07-0.29,0.15s-0.16,0.17-0.21,0.28c-0.06,0.11-0.1,0.22-0.12,0.34C54.95,13.68,54.94,13.79,54.95,13.89z"/>
	</g>
</g>
</svg>
