<!-- Generator: Adobe Illustrator 24.1.0, SVG Export Plug-In  -->
<svg version="1.1" xmlns="http://www.w3.org/2000/svg" xmlns:xlink="http://www.w3.org/1999/xlink" x="0px" y="0px"
	 width="217.71px" height="210.7px" viewBox="0 0 217.71 210.7" style="enable-background:new 0 0 217.71 210.7;"
	 xml:space="preserve">
<style type="text/css">
	.st0{fill:none;stroke:#231F20;stroke-width:0.5;stroke-linecap:round;stroke-miterlimit:10;}
	.st1{fill:#231F20;}
	.st2{fill:#628EC4;stroke:#231F20;stroke-width:0.5;stroke-linecap:round;stroke-miterlimit:10;}
	.st3{fill:#4E79BC;stroke:#231F20;stroke-width:0.5;stroke-linecap:round;stroke-miterlimit:10;}
</style>
<defs>
</defs>
<g>
	<path class="st0" d="M211.65,196.93l-52.53-50.54c-0.28-0.27-0.44-0.65-0.43-1.04l0.29-13.05"/>
	<path class="st0" d="M140.84,151.19c1.01,0.92,5.86-2.77,10.83-8.24s8.17-10.65,7.16-11.57"/>
	<path class="st0" d="M204.58,204.72l-52.54-50.55c-0.28-0.27-0.63-0.46-1.01-0.55l-10.19-2.42l-9.09-9.09"/>
	<line class="st0" x1="158.83" y1="131.38" x2="150.79" y2="123.34"/>
	<path class="st0" d="M154.44,116.41c1.17,1.17-4.24,8.46-12.08,16.3s-15.13,13.24-16.3,12.08"/>
	<line class="st0" x1="126.07" y1="144.78" x2="22.85" y2="43.83"/>
	<line class="st0" x1="154.44" y1="116.41" x2="64.85" y2="24.46"/>
	
		<rect x="84.09" y="93.21" transform="matrix(0.7071 0.7071 -0.7071 0.7071 97.7124 -41.4816)" class="st1" width="29.69" height="8"/>
	<path class="st0" d="M21.03,33.33"/>
	<path class="st2" d="M25.76,10.57c-1.42,1.68-3.33,3.68-5.53,5.74c-2.1,1.96-4.14,3.68-5.86,4.96c-2.49,1.86-4.32,2.82-4.74,2.37
		l-5.49-5.86c0.71,0.76,5.46-2.53,10.6-7.33c5.14-4.81,8.74-9.33,8.03-10.09l5.48,5.87C28.66,6.66,27.66,8.33,25.76,10.57z"/>
	<path class="st0" d="M35.82,20.45"/>
	<path class="st0" d="M30.01,26.91c-3.4,2.67-6.57,4.32-7.08,3.67l-8.56-9.31c1.72-1.28,3.76-3,5.86-4.96
		c2.2-2.06,4.11-4.06,5.53-5.74l9.49,10.32C35.76,21.54,33.41,24.24,30.01,26.91z"/>
	<path class="st3" d="M14.74,10.45c-5.14,4.8-9.89,8.09-10.6,7.33c-0.71-0.76,2.88-5.28,8.03-10.09c5.14-4.81,9.89-8.09,10.6-7.33
		C23.48,1.12,19.88,5.64,14.74,10.45z"/>
	<path class="st0" d="M15.71,30.98"/>
	<path class="st0" d="M18.47,32.51"/>
	<path class="st0" d="M17.09,31.29c0.16-0.73,1.27-2.01,3.09-3.62"/>
	<path class="st0" d="M63.76,26.82c0.84-1.1,1.25-1.94,1.09-2.36c-0.01-0.04-0.04-0.08-0.06-0.11c-0.32-0.39-1.31-0.15-2.82,0.62"/>
	<path class="st0" d="M39.07,19.25c-0.01-0.01-0.02-0.02-0.02-0.02"/>
	<path class="st2" d="M53.1,15.77c-0.52,0.46-1.07,0.92-1.64,1.39c-3.49,2.85-6.72,4.94-8.64,5.64c-2.05-1.94-3.57-3.38-3.75-3.55
		c0.86-0.19,2.2-0.84,3.8-1.85c1.63-1.02,3.53-2.4,5.5-4.01c4.97-4.07,8.4-8.08,7.67-8.97l3.09,3.77
		C59.78,8.98,57.15,12.21,53.1,15.77z"/>
	<path class="st2" d="M63.76,26.82c-1.33,1.73-3.72,4.11-6.65,6.5c-0.58,0.48-1.16,0.94-1.73,1.37c-0.05-0.06-7.75-7.34-12.56-11.89
		c1.92-0.7,5.15-2.79,8.64-5.64c0.57-0.47,1.12-0.93,1.64-1.39l8.87,9.2L63.76,26.82z"/>
	<path class="st1" d="M217.31,204.94c-0.81-0.81-5.47-5.47-5.47-5.47l-0.02,0.02c-0.33,0.95-0.97,2.02-1.87,3.01
		c-1,1.11-2.12,1.9-3.12,2.29l-0.01,0.01c0,0,5.61,5.61,5.73,5.73c0.97,0.5,2.58-0.09,3.82-1.46
		C217.7,207.61,218.1,205.8,217.31,204.94z"/>
	<path class="st0" d="M204.58,204.74c1.01,0.92,3.42-0.07,5.37-2.22c1.95-2.15,2.71-4.64,1.7-5.56"/>
	<path class="st3" d="M48.37,13.39c-1.97,1.61-3.87,2.99-5.5,4.01c-1.6,1.01-2.94,1.66-3.8,1.85c-0.02,0-0.03,0.01-0.04,0.01
		c0.01-0.01,0.01-0.02,0.02-0.03c0.62-0.85,0.88-1.48,0.71-1.8c0-0.02-0.01-0.04-0.03-0.06l-0.59-0.76l0.01-0.01
		c1.34-1.72,3.71-4.06,6.59-6.43c4.96-4.07,9.58-6.64,10.3-5.75C56.77,5.31,53.34,9.32,48.37,13.39z"/>
	<path class="st3" d="M1.58,56.38c0.27-2.28,0.99-4.91,2.44-7.87c0.75-1.53,1.8-2.89,3.09-4.01c0,0,7.87-6.79,10.82-9.33
		c0.68-0.58,1.09-0.94,1.09-0.94c-0.03-0.25-0.07-0.5-0.07-0.5c-0.11-0.73-0.57-2.18-2.47-2.67c-0.48-0.12-0.99,0.02-1.35,0.35
		l-9.75,8.95c-0.91,0.83-1.7,1.79-2.31,2.86C-2.09,52.29,1.4,56.3,1.4,56.3s0.06,0.07,0.17,0.19C1.57,56.45,1.58,56.42,1.58,56.38"
		/>
	<path class="st0" d="M33.13,18.56"/>
	<path class="st0" d="M32.99,18.44c3.09-1.95,5.34-2.83,5.8-2.23l0.77,0.97c0.73,0.92-3.43,6.03-9.1,10.48
		c-3.78,2.97-7.19,4.48-9.38,5.39l-1.83,0.81"/>
	<path class="st0" d="M1.57,56.49c-0.62,6.14,1.95,9.93,1.95,9.93c1.43,1.95,2.56,1.02,3.1,0.29c0.24-0.32,0.3-0.74,0.18-1.13
		c-1.96-6.47-0.36-11.24,1.23-14.02c1.1-1.93,2.71-3.49,4.59-4.68c8.08-5.06,17.35-2.22,17.35-2.22"/>
</g>
</svg>
